G04*
G04 #@! TF.GenerationSoftware,Altium Limited,Altium Designer,26.8.1 (31)*
G04*
G04 Layer_Physical_Order=4*
G04 Layer_Color=6736896*
G04 Board_Origin=4724409|16535433*
%FSLAX44Y44*%
%MOMM*%
G71*
G04*
G04 #@! TF.SameCoordinates,43FAAB10-66CE-4FAD-952C-44127771BE6C*
G04*
G04*
G04 #@! TF.FilePolarity,Positive*
G04*
G01*
G75*
%ADD15C,0.1524*%
%ADD95C,0.3500*%
%ADD100C,0.5080*%
%ADD102C,0.7620*%
%ADD106C,1.0160*%
%ADD131C,0.9000*%
G36*
X467008Y180891D02*
X466881D01*
X465962Y180511D01*
X465259Y179807D01*
X464878Y178889D01*
Y177894D01*
X465259Y176975D01*
X465962Y176272D01*
X466217Y176166D01*
X465213Y170169D01*
X462608Y167403D01*
X462322Y168094D01*
X461618Y168797D01*
X460700Y169178D01*
X459705D01*
X458786Y168797D01*
X458083Y168094D01*
X457702Y167175D01*
Y166181D01*
X458083Y165262D01*
X458786Y164559D01*
X459608Y164218D01*
X459196Y163780D01*
X458925D01*
X457730Y163286D01*
X456816Y162371D01*
X456321Y161177D01*
Y160728D01*
X456237Y160639D01*
X456114Y160936D01*
X455411Y161639D01*
X454492Y162020D01*
X453498D01*
X452579Y161639D01*
X451876Y160936D01*
X451495Y160017D01*
Y159023D01*
X451876Y158104D01*
X452579Y157401D01*
X453016Y157220D01*
X451161Y155250D01*
X448599D01*
X447984Y155505D01*
X446989D01*
X446374Y155250D01*
X442097D01*
X441482Y155505D01*
X440487D01*
X439872Y155250D01*
X435594D01*
X434979Y155505D01*
X433984D01*
X433369Y155250D01*
X422589D01*
X421974Y155505D01*
X420980D01*
X420365Y155250D01*
X416112D01*
X415497Y155505D01*
X414503D01*
X413888Y155250D01*
X411053D01*
X410706Y155597D01*
X409787Y155977D01*
X409750D01*
Y157320D01*
X409914Y157388D01*
X410617Y158091D01*
X410998Y159010D01*
Y160005D01*
X410617Y160923D01*
X409914Y161627D01*
X409750Y161694D01*
Y161750D01*
X413000Y165000D01*
X413164D01*
Y164844D01*
X413544Y163925D01*
X414248Y163222D01*
X415166Y162841D01*
X416161D01*
X417080Y163222D01*
X417783Y163925D01*
X418164Y164844D01*
Y165000D01*
X419189D01*
X419358Y164594D01*
X420061Y163890D01*
X420980Y163510D01*
X421974D01*
X422893Y163890D01*
X423596Y164594D01*
X423765Y165000D01*
X427178D01*
X427456Y164722D01*
X428374Y164341D01*
X429369D01*
X430288Y164722D01*
X430566Y165000D01*
X432500D01*
Y177422D01*
X433219Y177124D01*
X434213D01*
X435132Y177505D01*
X435835Y178208D01*
X436216Y179127D01*
Y180121D01*
X435835Y181040D01*
X435132Y181743D01*
X434213Y182124D01*
X433219D01*
X432500Y181826D01*
Y182361D01*
X424030D01*
X423257Y182682D01*
X422262D01*
X421489Y182361D01*
X412048D01*
X411577Y194113D01*
X411845D01*
X413563Y194339D01*
X415164Y195002D01*
X416538Y196057D01*
X417593Y197432D01*
X417879Y198123D01*
X442250Y207250D01*
X442275Y207272D01*
X443359Y206824D01*
X444552D01*
X445655Y207280D01*
X446499Y208124D01*
X446955Y209227D01*
Y210420D01*
X446621Y211227D01*
X460773Y224104D01*
X474242D01*
X467008Y180891D01*
D02*
G37*
G36*
X490955Y246734D02*
X490342Y244718D01*
X499108Y213500D01*
X498662D01*
X497560Y213043D01*
X496716Y212199D01*
X496259Y211097D01*
Y209903D01*
X496716Y208801D01*
X497560Y207957D01*
X498662Y207500D01*
X499856D01*
X500695Y207847D01*
X507250Y184500D01*
Y138268D01*
X506976Y138542D01*
X505873Y138999D01*
X504680D01*
X503577Y138542D01*
X502733Y137698D01*
X502277Y136595D01*
Y135402D01*
X502733Y134299D01*
X503577Y133455D01*
X504680Y132999D01*
X505873D01*
X506976Y133455D01*
X507250Y133729D01*
Y132716D01*
X506585Y132991D01*
X505391D01*
X504289Y132535D01*
X503445Y131691D01*
X502988Y130588D01*
Y129395D01*
X503445Y128292D01*
X504289Y127448D01*
X505391Y126991D01*
X506585D01*
X507250Y127267D01*
Y126545D01*
X506585Y126820D01*
X505391D01*
X504289Y126363D01*
X503445Y125520D01*
X502988Y124417D01*
Y123223D01*
X503445Y122121D01*
X504289Y121277D01*
X505391Y120820D01*
X506585D01*
X507250Y121096D01*
Y100394D01*
X506976Y100668D01*
X505873Y101124D01*
X504680D01*
X503577Y100668D01*
X502733Y99824D01*
X502277Y98721D01*
Y97528D01*
X502733Y96425D01*
X503577Y95581D01*
X504680Y95125D01*
X505873D01*
X506976Y95581D01*
X507250Y95855D01*
Y76201D01*
X507000Y75597D01*
Y74403D01*
X507250Y73799D01*
Y61000D01*
X370000D01*
Y64134D01*
X370225Y64040D01*
X371418D01*
X372521Y64497D01*
X373365Y65341D01*
X373821Y66444D01*
Y67637D01*
X373365Y68740D01*
X372521Y69584D01*
X371418Y70040D01*
X370225D01*
X370000Y69947D01*
Y91021D01*
X370143D01*
X371246Y91478D01*
X372090Y92322D01*
X372547Y93424D01*
Y94618D01*
X372090Y95721D01*
X371246Y96564D01*
X370143Y97021D01*
X370000D01*
Y98241D01*
X380160Y108401D01*
X379988Y107985D01*
Y106991D01*
X380369Y106072D01*
X381072Y105369D01*
X381991Y104988D01*
X382985D01*
X383904Y105369D01*
X384607Y106072D01*
X384988Y106991D01*
Y107985D01*
X384607Y108904D01*
X383904Y109607D01*
X382985Y109988D01*
X381991D01*
X381575Y109816D01*
X382500Y110740D01*
X383134D01*
X384329Y111235D01*
X385243Y112149D01*
X385531Y112845D01*
X385849Y112077D01*
X386553Y111374D01*
X387472Y110993D01*
X388466D01*
X389385Y111374D01*
X390088Y112077D01*
X390469Y112996D01*
Y113990D01*
X390088Y114909D01*
X389385Y115612D01*
X388466Y115993D01*
X387472D01*
X386553Y115612D01*
X385849Y114909D01*
X385737Y114638D01*
X385243Y115831D01*
X384329Y116746D01*
X383134Y117240D01*
X381842D01*
X380647Y116746D01*
X379733Y115831D01*
X379238Y114637D01*
Y114002D01*
X379071Y113835D01*
Y114319D01*
X378691Y115238D01*
X377988Y115941D01*
X377069Y116322D01*
X376074D01*
X375155Y115941D01*
X374452Y115238D01*
X374071Y114319D01*
Y113324D01*
X374452Y112406D01*
X375155Y111702D01*
X376074Y111322D01*
X376558D01*
X370000Y104764D01*
Y105115D01*
X370092Y105153D01*
X370936Y105997D01*
X371393Y107100D01*
Y108293D01*
X370936Y109396D01*
X370092Y110240D01*
X370000Y110278D01*
Y121361D01*
X371064Y121801D01*
X371979Y122716D01*
X372473Y123910D01*
Y125203D01*
X371979Y126398D01*
X371064Y127312D01*
X370000Y127753D01*
Y132000D01*
X370597D01*
X371699Y132457D01*
X372543Y133301D01*
X373000Y134403D01*
Y135597D01*
X372543Y136699D01*
X371699Y137543D01*
X370597Y138000D01*
X369403D01*
X369104Y137876D01*
X358175Y166711D01*
Y184500D01*
X399541Y206715D01*
X405201Y203113D01*
X410876Y195447D01*
X410429Y195261D01*
X410415Y195229D01*
X410383Y195214D01*
X410179Y194660D01*
X409953Y194113D01*
X409966Y194081D01*
X409954Y194048D01*
X409977Y193493D01*
X409731Y194086D01*
X409028Y194789D01*
X408109Y195170D01*
X407114D01*
X406195Y194789D01*
X405492Y194086D01*
X405112Y193167D01*
Y192173D01*
X405492Y191254D01*
X406195Y190551D01*
X407114Y190170D01*
X408109D01*
X409028Y190551D01*
X409731Y191254D01*
X410037Y191992D01*
X410425Y182296D01*
X410673Y181759D01*
X410900Y181213D01*
X410932Y181200D01*
X410947Y181168D01*
X411501Y180964D01*
X412048Y180738D01*
X413354D01*
X412925Y180308D01*
X412544Y179390D01*
Y178395D01*
X412925Y177476D01*
X413628Y176773D01*
X414547Y176392D01*
X415541D01*
X416460Y176773D01*
X417164Y177476D01*
X417544Y178395D01*
Y179390D01*
X417164Y180308D01*
X416734Y180738D01*
X420284D01*
X420260Y180679D01*
Y179685D01*
X420640Y178766D01*
X421343Y178062D01*
X422262Y177682D01*
X423257D01*
X424176Y178062D01*
X424879Y178766D01*
X425259Y179685D01*
Y180679D01*
X425235Y180738D01*
X430961D01*
Y177627D01*
X430876Y177422D01*
Y168372D01*
X430288Y168961D01*
X429369Y169341D01*
X428374D01*
X427456Y168961D01*
X426752Y168257D01*
X426372Y167339D01*
Y166624D01*
X423929D01*
X423596Y167426D01*
X422893Y168129D01*
X421974Y168510D01*
X420980D01*
X420061Y168129D01*
X419358Y167426D01*
X419025Y166624D01*
X418164D01*
X417886Y166509D01*
X417783Y166757D01*
X417080Y167461D01*
X416161Y167841D01*
X415166D01*
X414248Y167461D01*
X413544Y166757D01*
X413441Y166509D01*
X413164Y166624D01*
X413000D01*
X411852Y166148D01*
X411668Y165964D01*
X411331Y166779D01*
X410628Y167482D01*
X409709Y167863D01*
X408714D01*
X407795Y167482D01*
X407092Y166779D01*
X406711Y165860D01*
Y164865D01*
X407092Y163947D01*
X407795Y163243D01*
X408610Y162906D01*
X408602Y162898D01*
X408492Y162632D01*
X408439Y162505D01*
X408250Y162316D01*
Y162048D01*
X408233Y162007D01*
X408000D01*
X407081Y161627D01*
X406378Y160923D01*
X405998Y160005D01*
Y159010D01*
X406378Y158091D01*
X407081Y157388D01*
X408000Y157007D01*
X408126D01*
Y155977D01*
X408224Y155742D01*
X407874Y155597D01*
X407170Y154893D01*
X406790Y153975D01*
Y152980D01*
X407170Y152061D01*
X407874Y151358D01*
X408793Y150977D01*
X409787D01*
X410706Y151358D01*
X411409Y152061D01*
X411502Y152284D01*
X411669Y137387D01*
X409509Y135784D01*
X408995Y135998D01*
X408000D01*
X407081Y135617D01*
X406378Y134914D01*
X405998Y133995D01*
Y133000D01*
X406378Y132081D01*
X407081Y131378D01*
X408000Y130998D01*
X408995D01*
X409185Y131076D01*
X409202Y129410D01*
X408995Y129495D01*
X408000D01*
X407081Y129115D01*
X406378Y128411D01*
X405998Y127493D01*
Y126498D01*
X406378Y125579D01*
X407081Y124876D01*
X408000Y124495D01*
X408995D01*
X409249Y124600D01*
X409258Y123660D01*
X408682D01*
X407763Y123279D01*
X407060Y122576D01*
X406679Y121657D01*
Y120662D01*
X407060Y119744D01*
X407763Y119040D01*
X408682Y118660D01*
X409308D01*
X409330Y116351D01*
X408995Y116490D01*
X408000D01*
X407081Y116110D01*
X406378Y115407D01*
X405998Y114488D01*
Y113493D01*
X406378Y112574D01*
X407081Y111871D01*
X408000Y111490D01*
X408995D01*
X409377Y111649D01*
X409393Y110015D01*
X409813Y109595D01*
X408919Y109965D01*
X407924D01*
X407006Y109584D01*
X406302Y108881D01*
X405922Y107962D01*
Y106968D01*
X406302Y106049D01*
X407006Y105346D01*
X407924Y104965D01*
X408919D01*
X409838Y105346D01*
X410541Y106049D01*
X410922Y106968D01*
Y107962D01*
X410551Y108856D01*
X412006Y107402D01*
X412500Y107408D01*
Y106991D01*
X412881Y106072D01*
X413584Y105369D01*
X414503Y104988D01*
X415497D01*
X416416Y105369D01*
X417119Y106072D01*
X417500Y106991D01*
Y107477D01*
X418977Y107497D01*
Y106991D01*
X419358Y106072D01*
X420061Y105369D01*
X420980Y104988D01*
X421974D01*
X422893Y105369D01*
X423596Y106072D01*
X423977Y106991D01*
Y107565D01*
X425479Y107586D01*
Y106991D01*
X425860Y106072D01*
X426563Y105369D01*
X427482Y104988D01*
X428477D01*
X429395Y105369D01*
X430099Y106072D01*
X430479Y106991D01*
Y107654D01*
X443581Y107834D01*
X444987Y107853D01*
Y106991D01*
X445367Y106072D01*
X446071Y105369D01*
X446989Y104988D01*
X447984D01*
X448903Y105369D01*
X449606Y106072D01*
X449987Y106991D01*
Y107921D01*
X451489Y107942D01*
Y106991D01*
X451870Y106072D01*
X452573Y105369D01*
X453492Y104988D01*
X454486D01*
X455405Y105369D01*
X456108Y106072D01*
X456489Y106991D01*
Y107985D01*
X456479Y108010D01*
X457256Y108021D01*
X457098Y107863D01*
X456717Y106944D01*
Y105949D01*
X457098Y105031D01*
X457801Y104327D01*
X458720Y103947D01*
X459715D01*
X460634Y104327D01*
X461337Y105031D01*
X461717Y105949D01*
Y106944D01*
X461337Y107863D01*
X461126Y108074D01*
X461739Y108082D01*
X462145Y112108D01*
X462611Y112574D01*
X462991Y113493D01*
Y114488D01*
X462611Y115407D01*
X462490Y115528D01*
X462629Y116913D01*
X463023Y117076D01*
X463726Y117779D01*
X464107Y118698D01*
Y119693D01*
X463726Y120612D01*
X463069Y121269D01*
X464796Y138396D01*
X464831Y138361D01*
X465750Y137981D01*
X466745D01*
X467663Y138361D01*
X468367Y139065D01*
X468747Y139983D01*
Y140978D01*
X468367Y141897D01*
X467663Y142600D01*
X466745Y142981D01*
X465750D01*
X464877Y142619D01*
X464892Y144174D01*
X465052Y144013D01*
X465971Y143633D01*
X466966D01*
X467884Y144013D01*
X468588Y144717D01*
X468968Y145635D01*
Y146630D01*
X468588Y147549D01*
X467884Y148252D01*
X466966Y148633D01*
X465971D01*
X465052Y148252D01*
X464929Y148129D01*
X465019Y157673D01*
X469308Y175496D01*
X469503Y176988D01*
X469878Y177894D01*
Y178889D01*
X469782Y179121D01*
X473757Y209507D01*
X473723Y211167D01*
X475844Y223836D01*
X475812Y223973D01*
X475866Y224104D01*
X475676Y224562D01*
X475564Y225046D01*
X475444Y225121D01*
X475390Y225252D01*
X474931Y225442D01*
X474510Y225705D01*
X474373Y225673D01*
X474242Y225727D01*
X473426D01*
X472999Y246734D01*
X476325Y246806D01*
X489211Y247084D01*
X490955Y246734D01*
D02*
G37*
G36*
X463971Y160255D02*
X463441Y158053D01*
X463471Y157864D01*
X463396Y157688D01*
X463306Y148144D01*
X463309Y148137D01*
X463306Y148129D01*
X463541Y147561D01*
X463770Y146992D01*
X463778Y146988D01*
X463781Y146981D01*
X464065Y146863D01*
X463968Y146630D01*
Y145635D01*
X464045Y145450D01*
X463754Y145333D01*
X463751Y145325D01*
X463744Y145322D01*
X463509Y144755D01*
X463268Y144189D01*
X463253Y142634D01*
X463377Y142328D01*
X463377Y141997D01*
X463600Y141774D01*
X463718Y141482D01*
X463920Y141396D01*
X463747Y140978D01*
Y139983D01*
X463871Y139684D01*
X463769Y139654D01*
X463728Y139578D01*
X463648Y139544D01*
X463475Y139126D01*
X463331Y138983D01*
Y138839D01*
X463181Y138559D01*
X462955Y136323D01*
X462573Y135813D01*
X462063Y136024D01*
X461069D01*
X460150Y135644D01*
X459447Y134941D01*
X459066Y134022D01*
Y133027D01*
X459447Y132108D01*
X459648Y131907D01*
X456644Y127897D01*
X456072Y128468D01*
X455153Y128849D01*
X454159D01*
X453240Y128468D01*
X452537Y127765D01*
X452156Y126846D01*
Y125851D01*
X452537Y124932D01*
X453240Y124229D01*
X453741Y124022D01*
X451479Y121002D01*
X451104Y121908D01*
X450401Y122611D01*
X449482Y122992D01*
X448488D01*
X447569Y122611D01*
X446865Y121908D01*
X446485Y120989D01*
Y119994D01*
X446865Y119076D01*
X447569Y118372D01*
X448488Y117992D01*
X449482D01*
X450356Y118354D01*
X449620Y116614D01*
X449027Y116022D01*
X448907Y116142D01*
X447988Y116522D01*
X446994D01*
X446075Y116142D01*
X445372Y115438D01*
X444991Y114520D01*
Y113525D01*
X445372Y112606D01*
X445492Y112486D01*
X442755Y109750D01*
X435750D01*
Y111810D01*
X435898Y111871D01*
X436601Y112574D01*
X436982Y113493D01*
Y114488D01*
X436601Y115407D01*
X435898Y116110D01*
X435750Y116171D01*
Y119652D01*
X436123Y120553D01*
Y121548D01*
X435750Y122449D01*
Y122469D01*
Y124815D01*
X435898Y124876D01*
X436601Y125579D01*
X436982Y126498D01*
Y127493D01*
X436601Y128411D01*
X435898Y129115D01*
X435750Y129176D01*
Y131317D01*
X435898Y131378D01*
X436601Y132081D01*
X436982Y133000D01*
Y133995D01*
X436601Y134914D01*
X435898Y135617D01*
X435809Y135654D01*
X435962Y137944D01*
X436601Y138584D01*
X436982Y139503D01*
Y140497D01*
X436601Y141416D01*
X436218Y141799D01*
X436426Y144911D01*
X436601Y145086D01*
X436982Y146005D01*
Y147000D01*
X436622Y147867D01*
X436922Y152362D01*
X436982Y152507D01*
Y153265D01*
X436998Y153505D01*
X438485D01*
X438484Y153502D01*
Y152507D01*
X438865Y151589D01*
X439568Y150885D01*
X440487Y150505D01*
X441482D01*
X442400Y150885D01*
X443104Y151589D01*
X443484Y152507D01*
Y153502D01*
X443483Y153505D01*
X444988D01*
X444987Y153502D01*
Y152507D01*
X445367Y151589D01*
X446071Y150885D01*
X446989Y150505D01*
X447984D01*
X448903Y150885D01*
X449606Y151589D01*
X449987Y152507D01*
Y153502D01*
X449985Y153505D01*
X450177D01*
X450264Y153626D01*
X451161D01*
X451182Y153635D01*
Y152959D01*
X451563Y152040D01*
X452266Y151337D01*
X453185Y150957D01*
X454180D01*
X455098Y151337D01*
X455802Y152040D01*
X456182Y152959D01*
Y153954D01*
X455802Y154873D01*
X455098Y155576D01*
X454180Y155957D01*
X454057D01*
X454198Y156106D01*
X454304Y156386D01*
X454516Y156598D01*
X454516Y156945D01*
X454555Y157046D01*
X455411Y157401D01*
X456114Y158104D01*
X456495Y159023D01*
Y159111D01*
X456559Y159139D01*
X456859D01*
X457104Y159384D01*
X457419Y159526D01*
X457503Y159615D01*
X457606Y159887D01*
X457737Y160018D01*
Y160228D01*
X457945Y160728D01*
Y160854D01*
X458192Y161452D01*
X458650Y161909D01*
X459546Y162280D01*
X459569Y162304D01*
X459791Y162403D01*
X460344Y162632D01*
X460354Y162656D01*
X460378Y162667D01*
X460679Y162987D01*
X463971D01*
Y160255D01*
D02*
G37*
G36*
X367586Y137301D02*
X367604Y137281D01*
Y137255D01*
X367808Y137051D01*
X367457Y136699D01*
X367000Y135597D01*
Y134403D01*
X367457Y133301D01*
X368301Y132457D01*
X368527Y132363D01*
X368376Y132000D01*
Y127753D01*
X368500Y127454D01*
Y127131D01*
X368728Y126903D01*
X368852Y126605D01*
X369150Y126481D01*
X369379Y126253D01*
X370000Y125995D01*
Y123118D01*
X369379Y122861D01*
X369150Y122632D01*
X368852Y122509D01*
X368728Y122210D01*
X368500Y121982D01*
Y121659D01*
X368376Y121361D01*
Y110696D01*
X367796D01*
X366694Y110240D01*
X365850Y109396D01*
X365393Y108293D01*
Y107100D01*
X365850Y105997D01*
X366694Y105153D01*
X367796Y104696D01*
X368404D01*
X368852Y103616D01*
D01*
X352246Y87010D01*
X341817D01*
X341368Y87459D01*
X340173Y87954D01*
X338880D01*
X337686Y87459D01*
X336772Y86545D01*
X336277Y85350D01*
Y84057D01*
X336772Y82863D01*
X337686Y81948D01*
X338880Y81454D01*
X340173D01*
X341368Y81948D01*
X341817Y82397D01*
X353201D01*
X354084Y82573D01*
X354832Y83073D01*
X366666Y94907D01*
X366547Y94618D01*
Y93424D01*
X367003Y92322D01*
X367847Y91478D01*
X368460Y91224D01*
X368376Y91021D01*
Y81307D01*
X367815Y81868D01*
X366712Y82325D01*
X365519D01*
X364416Y81868D01*
X363572Y81024D01*
X363116Y79921D01*
Y78787D01*
X362332Y79570D01*
X361230Y80027D01*
X360036D01*
X358934Y79570D01*
X358090Y78727D01*
X357633Y77624D01*
Y76431D01*
X358090Y75328D01*
X358934Y74484D01*
X360036Y74027D01*
X361230D01*
X362332Y74484D01*
X363176Y75328D01*
X363633Y76431D01*
Y77565D01*
X364416Y76781D01*
X365519Y76325D01*
X366712D01*
X367815Y76781D01*
X368376Y77343D01*
Y69947D01*
X368500Y69649D01*
Y69326D01*
X368682Y69144D01*
X368278Y68740D01*
X367822Y67637D01*
Y66444D01*
X368278Y65341D01*
X368682Y64937D01*
X368500Y64755D01*
Y64432D01*
X368376Y64134D01*
Y61000D01*
X368852Y59852D01*
X370000Y59376D01*
Y5000D01*
X250000D01*
X245000Y10000D01*
Y140000D01*
X252885D01*
X252645Y138795D01*
X253111Y136454D01*
X254437Y134469D01*
X256422Y133143D01*
X258764Y132677D01*
X262751D01*
X265093Y133143D01*
X267077Y134469D01*
X268404Y136454D01*
X268869Y138795D01*
X268630Y140000D01*
X293182D01*
X292943Y138795D01*
X293408Y136454D01*
X294734Y134469D01*
X296719Y133143D01*
X299061Y132677D01*
X306071D01*
X308412Y133143D01*
X310397Y134469D01*
X311723Y136454D01*
X312189Y138795D01*
X311949Y140000D01*
X331295D01*
Y139435D01*
X331752Y138332D01*
X332595Y137488D01*
X333698Y137031D01*
X334892D01*
X335091Y137114D01*
X334661Y136077D01*
Y134883D01*
X335118Y133781D01*
X335962Y132937D01*
X337064Y132480D01*
X338258D01*
X339360Y132937D01*
X340204Y133781D01*
X340661Y134883D01*
Y136077D01*
X340204Y137179D01*
X339360Y138023D01*
X338258Y138480D01*
X337064D01*
X336865Y138398D01*
X337295Y139435D01*
Y140000D01*
X366562D01*
X367586Y137301D01*
D02*
G37*
%LPC*%
G36*
X439497Y203250D02*
X438503D01*
X437584Y202869D01*
X436881Y202166D01*
X436500Y201247D01*
Y200253D01*
X436881Y199334D01*
X437584Y198631D01*
X438503Y198250D01*
X439497D01*
X440416Y198631D01*
X441119Y199334D01*
X441500Y200253D01*
Y201247D01*
X441119Y202166D01*
X440416Y202869D01*
X439497Y203250D01*
D02*
G37*
G36*
X463750Y202957D02*
X462756D01*
X461837Y202577D01*
X461134Y201873D01*
X460753Y200955D01*
Y199960D01*
X461134Y199041D01*
X461837Y198338D01*
X462756Y197957D01*
X463750D01*
X464669Y198338D01*
X465372Y199041D01*
X465753Y199960D01*
Y200955D01*
X465372Y201873D01*
X464669Y202577D01*
X463750Y202957D01*
D02*
G37*
G36*
X433074Y202253D02*
X432080D01*
X431161Y201872D01*
X430457Y201169D01*
X430077Y200250D01*
Y199256D01*
X430457Y198337D01*
X431161Y197634D01*
X432080Y197253D01*
X433074D01*
X433993Y197634D01*
X434696Y198337D01*
X435077Y199256D01*
Y200250D01*
X434696Y201169D01*
X433993Y201872D01*
X433074Y202253D01*
D02*
G37*
G36*
X460944Y196515D02*
X459950D01*
X459031Y196134D01*
X458327Y195431D01*
X457947Y194512D01*
Y193517D01*
X458327Y192599D01*
X459031Y191895D01*
X459950Y191515D01*
X460944D01*
X461863Y191895D01*
X462566Y192599D01*
X462947Y193517D01*
Y194512D01*
X462566Y195431D01*
X461863Y196134D01*
X460944Y196515D01*
D02*
G37*
G36*
X428441Y194471D02*
X427447D01*
X426528Y194090D01*
X425825Y193387D01*
X425444Y192468D01*
Y191474D01*
X425825Y190555D01*
X426528Y189851D01*
X427447Y189471D01*
X428441D01*
X429360Y189851D01*
X430063Y190555D01*
X430444Y191474D01*
Y192468D01*
X430063Y193387D01*
X429360Y194090D01*
X428441Y194471D01*
D02*
G37*
G36*
X454533Y194467D02*
X453538D01*
X452619Y194086D01*
X451916Y193383D01*
X451535Y192464D01*
Y191469D01*
X451916Y190550D01*
X452619Y189847D01*
X453538Y189467D01*
X454533D01*
X455452Y189847D01*
X456155Y190550D01*
X456535Y191469D01*
Y192464D01*
X456155Y193383D01*
X455452Y194086D01*
X454533Y194467D01*
D02*
G37*
G36*
X442043Y193939D02*
X441048D01*
X440129Y193558D01*
X439426Y192855D01*
X439045Y191936D01*
Y190942D01*
X439426Y190023D01*
X440129Y189319D01*
X441048Y188939D01*
X442043D01*
X442961Y189319D01*
X443665Y190023D01*
X444045Y190942D01*
Y191936D01*
X443665Y192855D01*
X442961Y193558D01*
X442043Y193939D01*
D02*
G37*
G36*
X433957Y189324D02*
X432963D01*
X432044Y188943D01*
X431341Y188240D01*
X430960Y187321D01*
Y186327D01*
X431341Y185408D01*
X432044Y184705D01*
X432963Y184324D01*
X433957D01*
X434876Y184705D01*
X435580Y185408D01*
X435960Y186327D01*
Y187321D01*
X435580Y188240D01*
X434876Y188943D01*
X433957Y189324D01*
D02*
G37*
G36*
X442302Y188869D02*
X441308D01*
X440389Y188489D01*
X439686Y187785D01*
X439305Y186866D01*
Y185872D01*
X439686Y184953D01*
X440389Y184250D01*
X441308Y183869D01*
X442302D01*
X443221Y184250D01*
X443924Y184953D01*
X444159Y185519D01*
X444453Y184810D01*
X445156Y184107D01*
X446075Y183726D01*
X447069D01*
X447988Y184107D01*
X448691Y184810D01*
X449072Y185729D01*
Y186723D01*
X448691Y187642D01*
X447988Y188346D01*
X447069Y188726D01*
X446075D01*
X445156Y188346D01*
X444453Y187642D01*
X444218Y187076D01*
X443924Y187785D01*
X443221Y188489D01*
X442302Y188869D01*
D02*
G37*
G36*
X423021Y193477D02*
X422027D01*
X421108Y193096D01*
X420405Y192393D01*
X420024Y191474D01*
Y190480D01*
X420405Y189561D01*
X421108Y188857D01*
X421807Y188568D01*
X421125Y188285D01*
X420422Y187582D01*
X420041Y186663D01*
Y185668D01*
X420422Y184750D01*
X421125Y184046D01*
X422044Y183666D01*
X423039D01*
X423957Y184046D01*
X424661Y184750D01*
X424823Y185142D01*
X424974Y184779D01*
X425677Y184076D01*
X426596Y183695D01*
X427590D01*
X428509Y184076D01*
X429212Y184779D01*
X429593Y185698D01*
Y186692D01*
X429212Y187611D01*
X428509Y188314D01*
X427590Y188695D01*
X426596D01*
X425677Y188314D01*
X424974Y187611D01*
X424811Y187219D01*
X424661Y187582D01*
X423957Y188285D01*
X423258Y188575D01*
X423940Y188857D01*
X424643Y189561D01*
X425024Y190480D01*
Y191474D01*
X424643Y192393D01*
X423940Y193096D01*
X423021Y193477D01*
D02*
G37*
G36*
X442432Y182307D02*
X441437D01*
X440518Y181926D01*
X439815Y181223D01*
X439434Y180304D01*
Y179309D01*
X439815Y178391D01*
X440518Y177687D01*
X441437Y177307D01*
X442432D01*
X443350Y177687D01*
X444054Y178391D01*
X444434Y179309D01*
Y180304D01*
X444054Y181223D01*
X443350Y181926D01*
X442432Y182307D01*
D02*
G37*
G36*
X448782Y182242D02*
X447787D01*
X446868Y181861D01*
X446165Y181158D01*
X445784Y180239D01*
Y179245D01*
X446165Y178326D01*
X446868Y177623D01*
X447787Y177242D01*
X448782D01*
X449700Y177623D01*
X450404Y178326D01*
X450784Y179245D01*
Y180239D01*
X450404Y181158D01*
X449700Y181861D01*
X448782Y182242D01*
D02*
G37*
G36*
X455275Y175900D02*
X454280D01*
X453361Y175520D01*
X452658Y174816D01*
X452277Y173897D01*
Y172903D01*
X452658Y171984D01*
X453361Y171281D01*
X454280Y170900D01*
X455275D01*
X456194Y171281D01*
X456897Y171984D01*
X457277Y172903D01*
Y173897D01*
X456897Y174816D01*
X456194Y175520D01*
X455275Y175900D01*
D02*
G37*
G36*
X442073Y174442D02*
X441079D01*
X440160Y174061D01*
X439457Y173358D01*
X439076Y172439D01*
Y171444D01*
X439457Y170526D01*
X440160Y169822D01*
X441079Y169442D01*
X442073D01*
X442992Y169822D01*
X443695Y170526D01*
X444076Y171444D01*
Y172439D01*
X443695Y173358D01*
X442992Y174061D01*
X442073Y174442D01*
D02*
G37*
G36*
X447261Y174466D02*
X446266D01*
X445347Y174086D01*
X444644Y173382D01*
X444263Y172463D01*
Y171469D01*
X444644Y170550D01*
X445347Y169847D01*
X446245Y169475D01*
X445942D01*
X445023Y169094D01*
X444320Y168391D01*
X444058Y167759D01*
X443872Y168209D01*
X443169Y168912D01*
X442250Y169293D01*
X441255D01*
X440336Y168912D01*
X439633Y168209D01*
X439253Y167290D01*
Y166296D01*
X439633Y165377D01*
X440336Y164673D01*
X441255Y164293D01*
X442250D01*
X443169Y164673D01*
X443872Y165377D01*
X444134Y166009D01*
X444320Y165559D01*
X445023Y164855D01*
X445942Y164475D01*
X446937D01*
X447855Y164855D01*
X448559Y165559D01*
X448939Y166478D01*
Y167472D01*
X448559Y168391D01*
X447855Y169094D01*
X446958Y169466D01*
X447261D01*
X448179Y169847D01*
X448883Y170550D01*
X449263Y171469D01*
Y172463D01*
X448883Y173382D01*
X448179Y174086D01*
X447261Y174466D01*
D02*
G37*
G36*
X455127Y167973D02*
X454133D01*
X453214Y167593D01*
X452511Y166889D01*
X452130Y165970D01*
Y164976D01*
X452511Y164057D01*
X453214Y163354D01*
X454133Y162973D01*
X455127D01*
X456046Y163354D01*
X456749Y164057D01*
X457130Y164976D01*
Y165970D01*
X456749Y166889D01*
X456046Y167593D01*
X455127Y167973D01*
D02*
G37*
G36*
X428477Y162017D02*
X427482D01*
X426563Y161636D01*
X425860Y160933D01*
X425479Y160014D01*
Y159020D01*
X425860Y158101D01*
X426563Y157398D01*
X427482Y157017D01*
X428477D01*
X429395Y157398D01*
X430099Y158101D01*
X430479Y159020D01*
Y160014D01*
X430099Y160933D01*
X429395Y161636D01*
X428477Y162017D01*
D02*
G37*
G36*
X499738Y202301D02*
X498545D01*
X497442Y201844D01*
X496598Y201000D01*
X496142Y199897D01*
Y198704D01*
X496598Y197601D01*
X497442Y196757D01*
X498545Y196301D01*
X499738D01*
X500841Y196757D01*
X501685Y197601D01*
X502141Y198704D01*
Y199897D01*
X501685Y201000D01*
X500841Y201844D01*
X499738Y202301D01*
D02*
G37*
G36*
X486950Y199541D02*
X485956D01*
X485037Y199160D01*
X484334Y198457D01*
X483953Y197538D01*
Y196544D01*
X484334Y195625D01*
X485037Y194922D01*
X485956Y194541D01*
X486950D01*
X487869Y194922D01*
X488572Y195625D01*
X488953Y196544D01*
Y197538D01*
X488572Y198457D01*
X487869Y199160D01*
X486950Y199541D01*
D02*
G37*
G36*
X389495Y194575D02*
X388500D01*
X387581Y194194D01*
X386878Y193491D01*
X386498Y192572D01*
Y191577D01*
X386878Y190658D01*
X387581Y189955D01*
X388500Y189575D01*
X389495D01*
X390414Y189955D01*
X391117Y190658D01*
X391498Y191577D01*
Y192572D01*
X391117Y193491D01*
X390414Y194194D01*
X389495Y194575D01*
D02*
G37*
G36*
X395983Y194502D02*
X394989D01*
X394070Y194121D01*
X393367Y193418D01*
X392986Y192499D01*
Y191504D01*
X393367Y190586D01*
X394070Y189882D01*
X394989Y189502D01*
X395983D01*
X396902Y189882D01*
X397606Y190586D01*
X397986Y191504D01*
Y192499D01*
X397606Y193418D01*
X396902Y194121D01*
X395983Y194502D01*
D02*
G37*
G36*
X407838Y189020D02*
X406844D01*
X405925Y188640D01*
X405222Y187936D01*
X404841Y187017D01*
Y186023D01*
X405222Y185104D01*
X405925Y184401D01*
X406844Y184020D01*
X407838D01*
X408757Y184401D01*
X409460Y185104D01*
X409841Y186023D01*
Y187017D01*
X409460Y187936D01*
X408757Y188640D01*
X407838Y189020D01*
D02*
G37*
G36*
X389390Y188583D02*
X388396D01*
X387477Y188202D01*
X386774Y187499D01*
X386393Y186580D01*
Y185585D01*
X386774Y184667D01*
X387477Y183963D01*
X388396Y183583D01*
X389390D01*
X390309Y183963D01*
X391012Y184667D01*
X391393Y185585D01*
Y186580D01*
X391012Y187499D01*
X390309Y188202D01*
X389390Y188583D01*
D02*
G37*
G36*
X395983Y188099D02*
X394989D01*
X394070Y187718D01*
X393367Y187015D01*
X392986Y186096D01*
Y185101D01*
X393367Y184182D01*
X394070Y183479D01*
X394989Y183099D01*
X395983D01*
X396902Y183479D01*
X397605Y184182D01*
X397986Y185101D01*
Y186096D01*
X397605Y187015D01*
X396902Y187718D01*
X395983Y188099D01*
D02*
G37*
G36*
X402462Y188056D02*
X401468D01*
X400549Y187676D01*
X399846Y186972D01*
X399465Y186054D01*
Y185059D01*
X399846Y184140D01*
X400549Y183437D01*
X401468Y183056D01*
X402462D01*
X403381Y183437D01*
X404085Y184140D01*
X404465Y185059D01*
Y186054D01*
X404085Y186972D01*
X403381Y187676D01*
X402462Y188056D01*
D02*
G37*
G36*
X487417Y186969D02*
X486422D01*
X485503Y186589D01*
X484800Y185886D01*
X484420Y184967D01*
Y183972D01*
X484800Y183053D01*
X485503Y182350D01*
X486422Y181969D01*
X487417D01*
X488336Y182350D01*
X489039Y183053D01*
X489420Y183972D01*
Y184967D01*
X489039Y185886D01*
X488336Y186589D01*
X487417Y186969D01*
D02*
G37*
G36*
X402457Y182511D02*
X401462D01*
X400543Y182130D01*
X399840Y181427D01*
X399459Y180508D01*
Y179513D01*
X399840Y178594D01*
X400543Y177891D01*
X401462Y177511D01*
X402457D01*
X403376Y177891D01*
X404079Y178594D01*
X404459Y179513D01*
Y180508D01*
X404079Y181427D01*
X403376Y182130D01*
X402457Y182511D01*
D02*
G37*
G36*
X396848D02*
X395854D01*
X394935Y182130D01*
X394232Y181427D01*
X393851Y180508D01*
Y179513D01*
X394232Y178594D01*
X394935Y177891D01*
X395854Y177511D01*
X396848D01*
X397767Y177891D01*
X398470Y178594D01*
X398851Y179513D01*
Y180508D01*
X398470Y181427D01*
X397767Y182130D01*
X396848Y182511D01*
D02*
G37*
G36*
X408100Y182379D02*
X407105D01*
X406186Y181999D01*
X405483Y181295D01*
X405103Y180376D01*
Y179382D01*
X405483Y178463D01*
X406186Y177760D01*
X407105Y177379D01*
X408100D01*
X409019Y177760D01*
X409722Y178463D01*
X410103Y179382D01*
Y180376D01*
X409722Y181295D01*
X409019Y181999D01*
X408100Y182379D01*
D02*
G37*
G36*
X389473Y181059D02*
X388479D01*
X387560Y180678D01*
X386857Y179975D01*
X386476Y179056D01*
Y178061D01*
X386857Y177143D01*
X387560Y176439D01*
X388479Y176059D01*
X389473D01*
X390392Y176439D01*
X391095Y177143D01*
X391476Y178061D01*
Y179056D01*
X391095Y179975D01*
X390392Y180678D01*
X389473Y181059D01*
D02*
G37*
G36*
X480496Y174987D02*
X479501D01*
X478582Y174606D01*
X477879Y173903D01*
X477499Y172984D01*
Y171989D01*
X477879Y171070D01*
X478582Y170367D01*
X479501Y169987D01*
X480496D01*
X481415Y170367D01*
X482118Y171070D01*
X482499Y171989D01*
Y172984D01*
X482118Y173903D01*
X481415Y174606D01*
X480496Y174987D01*
D02*
G37*
G36*
X428477D02*
X427482D01*
X426563Y174606D01*
X425860Y173903D01*
X425479Y172984D01*
Y171989D01*
X425860Y171070D01*
X426563Y170367D01*
X427482Y169987D01*
X428477D01*
X429395Y170367D01*
X430099Y171070D01*
X430479Y171989D01*
Y172984D01*
X430099Y173903D01*
X429395Y174606D01*
X428477Y174987D01*
D02*
G37*
G36*
X402534D02*
X401539D01*
X400620Y174606D01*
X399917Y173903D01*
X399537Y172984D01*
Y171989D01*
X399917Y171070D01*
X400620Y170367D01*
X401539Y169987D01*
X402534D01*
X403453Y170367D01*
X404156Y171070D01*
X404537Y171989D01*
Y172984D01*
X404156Y173903D01*
X403453Y174606D01*
X402534Y174987D01*
D02*
G37*
G36*
X395990D02*
X394995D01*
X394077Y174606D01*
X393373Y173903D01*
X392993Y172984D01*
Y171989D01*
X393373Y171070D01*
X394077Y170367D01*
X394995Y169987D01*
X395990D01*
X396909Y170367D01*
X397612Y171070D01*
X397993Y171989D01*
Y172984D01*
X397612Y173903D01*
X396909Y174606D01*
X395990Y174987D01*
D02*
G37*
G36*
X423220Y173715D02*
X422225D01*
X421306Y173335D01*
X420603Y172631D01*
X420222Y171712D01*
Y170718D01*
X420603Y169799D01*
X421306Y169096D01*
X422225Y168715D01*
X423220D01*
X424138Y169096D01*
X424842Y169799D01*
X425222Y170718D01*
Y171712D01*
X424842Y172631D01*
X424138Y173335D01*
X423220Y173715D01*
D02*
G37*
G36*
X502676Y172643D02*
X501482D01*
X500379Y172186D01*
X499536Y171342D01*
X499079Y170239D01*
Y169046D01*
X499536Y167943D01*
X500379Y167099D01*
X501482Y166643D01*
X502676D01*
X503778Y167099D01*
X504622Y167943D01*
X505079Y169046D01*
Y170239D01*
X504622Y171342D01*
X503778Y172186D01*
X502676Y172643D01*
D02*
G37*
G36*
X370066Y172470D02*
X368873D01*
X367770Y172013D01*
X366926Y171169D01*
X366470Y170066D01*
Y168873D01*
X366926Y167770D01*
X367770Y166926D01*
X368873Y166470D01*
X370066D01*
X371169Y166926D01*
X372013Y167770D01*
X372470Y168873D01*
Y170066D01*
X372013Y171169D01*
X371169Y172013D01*
X370066Y172470D01*
D02*
G37*
G36*
X396059Y168543D02*
X395065D01*
X394146Y168162D01*
X393443Y167459D01*
X393062Y166540D01*
Y165546D01*
X393443Y164627D01*
X394146Y163923D01*
X395065Y163543D01*
X396059D01*
X396978Y163923D01*
X397681Y164627D01*
X398062Y165546D01*
Y166540D01*
X397681Y167459D01*
X396978Y168162D01*
X396059Y168543D01*
D02*
G37*
G36*
X502676Y166478D02*
X501482D01*
X500379Y166021D01*
X499536Y165177D01*
X499079Y164075D01*
Y162881D01*
X499536Y161779D01*
X500379Y160935D01*
X501482Y160478D01*
X502676D01*
X503778Y160935D01*
X504622Y161779D01*
X505079Y162881D01*
Y164075D01*
X504622Y165177D01*
X503778Y166021D01*
X502676Y166478D01*
D02*
G37*
G36*
X374539Y165243D02*
X373545D01*
X372626Y164862D01*
X371922Y164159D01*
X371542Y163240D01*
Y162246D01*
X371922Y161327D01*
X372626Y160624D01*
X373545Y160243D01*
X374539D01*
X375458Y160624D01*
X376161Y161327D01*
X376542Y162246D01*
Y163240D01*
X376161Y164159D01*
X375458Y164862D01*
X374539Y165243D01*
D02*
G37*
G36*
X371264Y157223D02*
X370071D01*
X368968Y156766D01*
X368124Y155922D01*
X367668Y154820D01*
Y153626D01*
X368124Y152523D01*
X368968Y151680D01*
X370071Y151223D01*
X371264D01*
X372367Y151680D01*
X373211Y152523D01*
X373668Y153626D01*
Y154820D01*
X373211Y155922D01*
X372367Y156766D01*
X371264Y157223D01*
D02*
G37*
G36*
X376554Y149416D02*
X375560D01*
X374641Y149035D01*
X373938Y148332D01*
X373557Y147413D01*
Y146419D01*
X373938Y145500D01*
X374641Y144797D01*
X375560Y144416D01*
X376554D01*
X377473Y144797D01*
X378176Y145500D01*
X378557Y146419D01*
Y147413D01*
X378176Y148332D01*
X377473Y149035D01*
X376554Y149416D01*
D02*
G37*
G36*
X389495Y149004D02*
X388500D01*
X387581Y148623D01*
X386878Y147920D01*
X386497Y147001D01*
Y146006D01*
X386878Y145088D01*
X387581Y144384D01*
X388500Y144004D01*
X389495D01*
X390414Y144384D01*
X391117Y145088D01*
X391497Y146006D01*
Y147001D01*
X391117Y147920D01*
X390414Y148623D01*
X389495Y149004D01*
D02*
G37*
G36*
X408995Y149002D02*
X408000D01*
X407081Y148622D01*
X406378Y147919D01*
X405998Y147000D01*
Y146005D01*
X406378Y145086D01*
X407081Y144383D01*
X408000Y144002D01*
X408995D01*
X409914Y144383D01*
X410617Y145086D01*
X410998Y146005D01*
Y147000D01*
X410617Y147919D01*
X409914Y148622D01*
X408995Y149002D01*
D02*
G37*
G36*
X402492D02*
X401498D01*
X400579Y148622D01*
X399876Y147919D01*
X399495Y147000D01*
Y146005D01*
X399876Y145086D01*
X400579Y144383D01*
X401498Y144002D01*
X402492D01*
X403411Y144383D01*
X404115Y145086D01*
X404495Y146005D01*
Y147000D01*
X404115Y147919D01*
X403411Y148622D01*
X402492Y149002D01*
D02*
G37*
G36*
X395990D02*
X394995D01*
X394077Y148622D01*
X393373Y147919D01*
X392993Y147000D01*
Y146005D01*
X393373Y145086D01*
X394077Y144383D01*
X394995Y144002D01*
X395990D01*
X396909Y144383D01*
X397612Y145086D01*
X397993Y146005D01*
Y147000D01*
X397612Y147919D01*
X396909Y148622D01*
X395990Y149002D01*
D02*
G37*
G36*
X396886Y143622D02*
X395891D01*
X394972Y143242D01*
X394269Y142539D01*
X393888Y141620D01*
Y140625D01*
X394269Y139706D01*
X394972Y139003D01*
X395891Y138622D01*
X396886D01*
X397804Y139003D01*
X398508Y139706D01*
X398888Y140625D01*
Y141620D01*
X398508Y142539D01*
X397804Y143242D01*
X396886Y143622D01*
D02*
G37*
G36*
X403417Y143448D02*
X402422D01*
X401503Y143067D01*
X400800Y142364D01*
X400419Y141445D01*
Y140450D01*
X400800Y139531D01*
X401503Y138828D01*
X402422Y138448D01*
X403417D01*
X404335Y138828D01*
X405039Y139531D01*
X405419Y140450D01*
Y141445D01*
X405039Y142364D01*
X404335Y143067D01*
X403417Y143448D01*
D02*
G37*
G36*
X382915Y142538D02*
X381921D01*
X381002Y142158D01*
X380298Y141454D01*
X379918Y140536D01*
Y139541D01*
X380298Y138622D01*
X381002Y137919D01*
X381921Y137538D01*
X382915D01*
X383834Y137919D01*
X384537Y138622D01*
X384918Y139541D01*
Y140536D01*
X384537Y141454D01*
X383834Y142158D01*
X382915Y142538D01*
D02*
G37*
G36*
X389495Y142478D02*
X388500D01*
X387581Y142098D01*
X386878Y141394D01*
X386497Y140476D01*
Y139481D01*
X386878Y138562D01*
X387581Y137859D01*
X388500Y137478D01*
X389495D01*
X390414Y137859D01*
X391117Y138562D01*
X391497Y139481D01*
Y140476D01*
X391117Y141394D01*
X390414Y142098D01*
X389495Y142478D01*
D02*
G37*
G36*
X467491Y135998D02*
X466497D01*
X465578Y135617D01*
X464874Y134914D01*
X464494Y133995D01*
Y133000D01*
X464874Y132081D01*
X465578Y131378D01*
X466497Y130998D01*
X467491D01*
X468410Y131378D01*
X469113Y132081D01*
X469494Y133000D01*
Y133995D01*
X469113Y134914D01*
X468410Y135617D01*
X467491Y135998D01*
D02*
G37*
G36*
X402492D02*
X401498D01*
X400579Y135617D01*
X399876Y134914D01*
X399495Y133995D01*
Y133000D01*
X399876Y132081D01*
X400579Y131378D01*
X401498Y130998D01*
X402492D01*
X403411Y131378D01*
X404115Y132081D01*
X404495Y133000D01*
Y133995D01*
X404115Y134914D01*
X403411Y135617D01*
X402492Y135998D01*
D02*
G37*
G36*
X395990D02*
X394995D01*
X394077Y135617D01*
X393373Y134914D01*
X392993Y133995D01*
Y133000D01*
X393373Y132081D01*
X394077Y131378D01*
X394995Y130998D01*
X395990D01*
X396909Y131378D01*
X397612Y132081D01*
X397993Y133000D01*
Y133995D01*
X397612Y134914D01*
X396909Y135617D01*
X395990Y135998D01*
D02*
G37*
G36*
X389488Y135926D02*
X388494D01*
X387575Y135545D01*
X386872Y134842D01*
X386491Y133923D01*
Y132929D01*
X386872Y132010D01*
X387575Y131307D01*
X388494Y130926D01*
X389488D01*
X390407Y131307D01*
X391110Y132010D01*
X391491Y132929D01*
Y133923D01*
X391110Y134842D01*
X390407Y135545D01*
X389488Y135926D01*
D02*
G37*
G36*
X378072Y134629D02*
X377077D01*
X376158Y134249D01*
X375455Y133545D01*
X375074Y132626D01*
Y131632D01*
X375455Y130713D01*
X376158Y130010D01*
X377077Y129629D01*
X378072D01*
X378991Y130010D01*
X379694Y130713D01*
X380074Y131632D01*
Y132626D01*
X379694Y133545D01*
X378991Y134249D01*
X378072Y134629D01*
D02*
G37*
G36*
X493288Y133000D02*
X492095D01*
X490992Y132543D01*
X490148Y131699D01*
X489691Y130597D01*
Y129403D01*
X490148Y128301D01*
X490992Y127457D01*
X492095Y127000D01*
X493288D01*
X494391Y127457D01*
X495235Y128301D01*
X495691Y129403D01*
Y130597D01*
X495235Y131699D01*
X494391Y132543D01*
X493288Y133000D01*
D02*
G37*
G36*
X403244Y130300D02*
X402249D01*
X401330Y129920D01*
X400627Y129216D01*
X400246Y128297D01*
Y127303D01*
X400627Y126384D01*
X401330Y125681D01*
X402249Y125300D01*
X403244D01*
X404162Y125681D01*
X404866Y126384D01*
X405246Y127303D01*
Y128297D01*
X404866Y129216D01*
X404162Y129920D01*
X403244Y130300D01*
D02*
G37*
G36*
X467534Y129484D02*
X466540D01*
X465621Y129104D01*
X464918Y128400D01*
X464537Y127481D01*
Y126487D01*
X464918Y125568D01*
X465621Y124865D01*
X466540Y124484D01*
X467534D01*
X468453Y124865D01*
X469156Y125568D01*
X469537Y126487D01*
Y127481D01*
X469156Y128400D01*
X468453Y129104D01*
X467534Y129484D01*
D02*
G37*
G36*
X397126Y123994D02*
X396132D01*
X395213Y123613D01*
X394510Y122910D01*
X394129Y121991D01*
Y120996D01*
X394510Y120078D01*
X395213Y119374D01*
X396132Y118994D01*
X397126D01*
X398045Y119374D01*
X398749Y120078D01*
X399129Y120996D01*
Y121991D01*
X398749Y122910D01*
X398045Y123613D01*
X397126Y123994D01*
D02*
G37*
G36*
X389258Y123517D02*
X388264D01*
X387345Y123136D01*
X386642Y122433D01*
X386261Y121514D01*
Y120520D01*
X386642Y119601D01*
X387345Y118897D01*
X388264Y118517D01*
X389258D01*
X390177Y118897D01*
X390881Y119601D01*
X391261Y120520D01*
Y121514D01*
X390881Y122433D01*
X390177Y123136D01*
X389258Y123517D01*
D02*
G37*
G36*
X497556Y119689D02*
X496362D01*
X495260Y119232D01*
X494416Y118388D01*
X493959Y117286D01*
Y116092D01*
X494416Y114990D01*
X495260Y114146D01*
X496362Y113689D01*
X497556D01*
X498658Y114146D01*
X499502Y114990D01*
X499959Y116092D01*
Y117286D01*
X499502Y118388D01*
X498658Y119232D01*
X497556Y119689D01*
D02*
G37*
G36*
X395990Y116490D02*
X394995D01*
X394077Y116110D01*
X393373Y115407D01*
X392993Y114488D01*
Y113493D01*
X393373Y112574D01*
X394077Y111871D01*
X394995Y111490D01*
X395990D01*
X396909Y111871D01*
X397612Y112574D01*
X397993Y113493D01*
Y114488D01*
X397612Y115407D01*
X396909Y116110D01*
X395990Y116490D01*
D02*
G37*
G36*
X389488Y109988D02*
X388493D01*
X387574Y109607D01*
X386871Y108904D01*
X386490Y107985D01*
Y106991D01*
X386871Y106072D01*
X387574Y105369D01*
X388493Y104988D01*
X389488D01*
X390406Y105369D01*
X391110Y106072D01*
X391490Y106991D01*
Y107985D01*
X391110Y108904D01*
X390406Y109607D01*
X389488Y109988D01*
D02*
G37*
G36*
X467497Y109965D02*
X466502D01*
X465583Y109584D01*
X464880Y108881D01*
X464499Y107962D01*
Y106968D01*
X464880Y106049D01*
X465583Y105346D01*
X466502Y104965D01*
X467497D01*
X468415Y105346D01*
X469119Y106049D01*
X469499Y106968D01*
Y107962D01*
X469119Y108881D01*
X468415Y109584D01*
X467497Y109965D01*
D02*
G37*
G36*
X402470Y109934D02*
X401475D01*
X400556Y109554D01*
X399853Y108850D01*
X399472Y107932D01*
Y106937D01*
X399853Y106018D01*
X400556Y105315D01*
X401475Y104934D01*
X402470D01*
X403388Y105315D01*
X404092Y106018D01*
X404472Y106937D01*
Y107932D01*
X404092Y108850D01*
X403388Y109554D01*
X402470Y109934D01*
D02*
G37*
G36*
X394946Y108966D02*
X393951D01*
X393032Y108586D01*
X392329Y107882D01*
X391948Y106964D01*
Y105969D01*
X392329Y105050D01*
X393032Y104347D01*
X393951Y103966D01*
X394946D01*
X395864Y104347D01*
X396568Y105050D01*
X396948Y105969D01*
Y106964D01*
X396568Y107882D01*
X395864Y108586D01*
X394946Y108966D01*
D02*
G37*
G36*
X415084Y103839D02*
X414089D01*
X413170Y103458D01*
X412467Y102755D01*
X412086Y101836D01*
Y100841D01*
X412467Y99923D01*
X413170Y99219D01*
X414089Y98839D01*
X415084D01*
X416002Y99219D01*
X416706Y99923D01*
X417086Y100841D01*
Y101836D01*
X416706Y102755D01*
X416002Y103458D01*
X415084Y103839D01*
D02*
G37*
G36*
X473984Y103554D02*
X472989D01*
X472071Y103173D01*
X471367Y102470D01*
X470987Y101551D01*
Y100557D01*
X471367Y99638D01*
X472071Y98934D01*
X472989Y98554D01*
X473984D01*
X474903Y98934D01*
X475606Y99638D01*
X475987Y100557D01*
Y101551D01*
X475606Y102470D01*
X474903Y103173D01*
X473984Y103554D01*
D02*
G37*
G36*
X441471Y103516D02*
X440476D01*
X439557Y103135D01*
X438854Y102432D01*
X438473Y101513D01*
Y100518D01*
X438854Y99600D01*
X439557Y98896D01*
X440476Y98516D01*
X441471D01*
X442389Y98896D01*
X443093Y99600D01*
X443473Y100518D01*
Y101513D01*
X443093Y102432D01*
X442389Y103135D01*
X441471Y103516D01*
D02*
G37*
G36*
X421970D02*
X420975D01*
X420057Y103135D01*
X419353Y102432D01*
X418973Y101513D01*
Y100518D01*
X419353Y99600D01*
X420057Y98896D01*
X420975Y98516D01*
X421970D01*
X422889Y98896D01*
X423592Y99600D01*
X423973Y100518D01*
Y101513D01*
X423592Y102432D01*
X422889Y103135D01*
X421970Y103516D01*
D02*
G37*
G36*
X480496Y103486D02*
X479501D01*
X478582Y103105D01*
X477879Y102402D01*
X477499Y101483D01*
Y100488D01*
X477879Y99570D01*
X478582Y98866D01*
X479501Y98486D01*
X480496D01*
X481415Y98866D01*
X482118Y99570D01*
X482499Y100488D01*
Y101483D01*
X482118Y102402D01*
X481415Y103105D01*
X480496Y103486D01*
D02*
G37*
G36*
X467491D02*
X466497D01*
X465578Y103105D01*
X464874Y102402D01*
X464494Y101483D01*
Y100488D01*
X464874Y99570D01*
X465578Y98866D01*
X466497Y98486D01*
X467491D01*
X468410Y98866D01*
X469113Y99570D01*
X469494Y100488D01*
Y101483D01*
X469113Y102402D01*
X468410Y103105D01*
X467491Y103486D01*
D02*
G37*
G36*
X454524Y103482D02*
X453530D01*
X452611Y103102D01*
X451908Y102399D01*
X451527Y101480D01*
Y100485D01*
X451908Y99566D01*
X452611Y98863D01*
X453530Y98482D01*
X454524D01*
X455443Y98863D01*
X456146Y99566D01*
X456527Y100485D01*
Y101480D01*
X456146Y102399D01*
X455443Y103102D01*
X454524Y103482D01*
D02*
G37*
G36*
X447958Y103478D02*
X446963D01*
X446045Y103097D01*
X445341Y102394D01*
X444961Y101475D01*
Y100480D01*
X445341Y99561D01*
X446045Y98858D01*
X446963Y98478D01*
X447958D01*
X448877Y98858D01*
X449580Y99561D01*
X449961Y100480D01*
Y101475D01*
X449580Y102394D01*
X448877Y103097D01*
X447958Y103478D01*
D02*
G37*
G36*
X460971Y103439D02*
X459977D01*
X459058Y103059D01*
X458354Y102355D01*
X457974Y101437D01*
Y100442D01*
X458354Y99523D01*
X459058Y98820D01*
X459977Y98439D01*
X460971D01*
X461890Y98820D01*
X462593Y99523D01*
X462974Y100442D01*
Y101437D01*
X462593Y102355D01*
X461890Y103059D01*
X460971Y103439D01*
D02*
G37*
G36*
X408995D02*
X408001D01*
X407082Y103059D01*
X406379Y102355D01*
X405998Y101437D01*
Y100442D01*
X406379Y99523D01*
X407082Y98820D01*
X408001Y98439D01*
X408995D01*
X409914Y98820D01*
X410617Y99523D01*
X410998Y100442D01*
Y101437D01*
X410617Y102355D01*
X409914Y103059D01*
X408995Y103439D01*
D02*
G37*
G36*
X402470Y102160D02*
X401475D01*
X400556Y101780D01*
X399853Y101076D01*
X399472Y100158D01*
Y99163D01*
X399853Y98244D01*
X400556Y97541D01*
X401475Y97160D01*
X402470D01*
X403388Y97541D01*
X404092Y98244D01*
X404472Y99163D01*
Y100158D01*
X404092Y101076D01*
X403388Y101780D01*
X402470Y102160D01*
D02*
G37*
G36*
X441445Y97076D02*
X440450D01*
X439531Y96695D01*
X438828Y95992D01*
X438447Y95073D01*
Y94078D01*
X438828Y93160D01*
X439531Y92456D01*
X440450Y92076D01*
X441445D01*
X442364Y92456D01*
X443067Y93160D01*
X443447Y94078D01*
Y95073D01*
X443067Y95992D01*
X442364Y96695D01*
X441445Y97076D01*
D02*
G37*
G36*
X396006Y97057D02*
X395012D01*
X394093Y96676D01*
X393390Y95973D01*
X393009Y95054D01*
Y94060D01*
X393390Y93141D01*
X394093Y92437D01*
X395012Y92057D01*
X396006D01*
X396925Y92437D01*
X397629Y93141D01*
X398009Y94060D01*
Y95054D01*
X397629Y95973D01*
X396925Y96676D01*
X396006Y97057D01*
D02*
G37*
G36*
X473993Y97009D02*
X472999D01*
X472080Y96628D01*
X471377Y95925D01*
X470996Y95006D01*
Y94011D01*
X471377Y93092D01*
X472080Y92389D01*
X472999Y92009D01*
X473993D01*
X474912Y92389D01*
X475616Y93092D01*
X475996Y94011D01*
Y95006D01*
X475616Y95925D01*
X474912Y96628D01*
X473993Y97009D01*
D02*
G37*
G36*
X422110D02*
X421116D01*
X420197Y96628D01*
X419494Y95925D01*
X419113Y95006D01*
Y94011D01*
X419494Y93092D01*
X420197Y92389D01*
X421116Y92009D01*
X422110D01*
X423029Y92389D01*
X423732Y93092D01*
X424113Y94011D01*
Y95006D01*
X423732Y95925D01*
X423029Y96628D01*
X422110Y97009D01*
D02*
G37*
G36*
X460894Y96972D02*
X459900D01*
X458981Y96592D01*
X458278Y95888D01*
X457897Y94970D01*
Y93975D01*
X458278Y93056D01*
X458981Y92353D01*
X459900Y91972D01*
X460894D01*
X461813Y92353D01*
X462516Y93056D01*
X462897Y93975D01*
Y94970D01*
X462516Y95888D01*
X461813Y96592D01*
X460894Y96972D01*
D02*
G37*
G36*
X404742Y92543D02*
X403747D01*
X402828Y92162D01*
X402125Y91459D01*
X401744Y90540D01*
Y89546D01*
X402125Y88627D01*
X402828Y87924D01*
X403747Y87543D01*
X404742D01*
X405660Y87924D01*
X406364Y88627D01*
X406744Y89546D01*
Y90540D01*
X406364Y91459D01*
X405660Y92162D01*
X404742Y92543D01*
D02*
G37*
G36*
X415540Y92500D02*
X414545D01*
X413626Y92119D01*
X412923Y91416D01*
X412542Y90497D01*
Y89503D01*
X412923Y88584D01*
X413626Y87881D01*
X414545Y87500D01*
X415540D01*
X416458Y87881D01*
X417162Y88584D01*
X417542Y89503D01*
Y90497D01*
X417162Y91416D01*
X416458Y92119D01*
X415540Y92500D01*
D02*
G37*
G36*
X439801Y91355D02*
X438806D01*
X437888Y90975D01*
X437184Y90271D01*
X436804Y89353D01*
Y88358D01*
X437184Y87439D01*
X437888Y86736D01*
X438806Y86355D01*
X439801D01*
X440720Y86736D01*
X441423Y87439D01*
X441804Y88358D01*
Y89353D01*
X441423Y90271D01*
X440720Y90975D01*
X439801Y91355D01*
D02*
G37*
G36*
X466576Y91288D02*
X465581D01*
X464662Y90907D01*
X463959Y90204D01*
X463578Y89285D01*
Y88291D01*
X463959Y87372D01*
X464662Y86669D01*
X465581Y86288D01*
X466576D01*
X467495Y86669D01*
X468198Y87372D01*
X468578Y88291D01*
Y89285D01*
X468198Y90204D01*
X467495Y90907D01*
X466576Y91288D01*
D02*
G37*
G36*
X449546Y90674D02*
X448551D01*
X447633Y90293D01*
X446929Y89590D01*
X446549Y88671D01*
Y87676D01*
X446929Y86758D01*
X447633Y86054D01*
X448551Y85674D01*
X449546D01*
X450465Y86054D01*
X451168Y86758D01*
X451549Y87676D01*
Y88671D01*
X451168Y89590D01*
X450465Y90293D01*
X449546Y90674D01*
D02*
G37*
G36*
X388038Y87500D02*
X387043D01*
X386124Y87119D01*
X385421Y86416D01*
X385041Y85497D01*
Y84503D01*
X385421Y83584D01*
X386124Y82881D01*
X387043Y82500D01*
X388038D01*
X388957Y82881D01*
X389660Y83584D01*
X390041Y84503D01*
Y85497D01*
X389660Y86416D01*
X388957Y87119D01*
X388038Y87500D01*
D02*
G37*
G36*
X382465Y87564D02*
X381271D01*
X380168Y87107D01*
X379325Y86263D01*
X378868Y85161D01*
Y83967D01*
X379325Y82864D01*
X380168Y82021D01*
X381271Y81564D01*
X382465D01*
X383567Y82021D01*
X384411Y82864D01*
X384868Y83967D01*
Y85161D01*
X384411Y86263D01*
X383567Y87107D01*
X382465Y87564D01*
D02*
G37*
G36*
X467272Y81155D02*
X466078D01*
X464976Y80698D01*
X464132Y79854D01*
X463675Y78752D01*
Y77558D01*
X464132Y76455D01*
X464976Y75612D01*
X466078Y75155D01*
X467272D01*
X468374Y75612D01*
X469218Y76455D01*
X469675Y77558D01*
Y78752D01*
X469218Y79854D01*
X468374Y80698D01*
X467272Y81155D01*
D02*
G37*
G36*
X486670Y77838D02*
X485476D01*
X484373Y77381D01*
X483530Y76537D01*
X483073Y75434D01*
Y74241D01*
X483530Y73138D01*
X484373Y72294D01*
X485476Y71838D01*
X486670D01*
X487772Y72294D01*
X488616Y73138D01*
X489073Y74241D01*
Y75434D01*
X488616Y76537D01*
X487772Y77381D01*
X486670Y77838D01*
D02*
G37*
G36*
X446835Y70352D02*
X445642D01*
X444539Y69895D01*
X443695Y69051D01*
X443272Y68031D01*
X443052Y68564D01*
X442208Y69408D01*
X441105Y69865D01*
X439912D01*
X438809Y69408D01*
X437965Y68564D01*
X437509Y67461D01*
Y66268D01*
X437965Y65165D01*
X438809Y64321D01*
X439912Y63864D01*
X441105D01*
X442208Y64321D01*
X443052Y65165D01*
X443474Y66185D01*
X443695Y65652D01*
X444539Y64809D01*
X445642Y64352D01*
X446835D01*
X447938Y64809D01*
X448782Y65652D01*
X449238Y66755D01*
Y67948D01*
X448782Y69051D01*
X447938Y69895D01*
X446835Y70352D01*
D02*
G37*
G36*
X465195Y70065D02*
X464002D01*
X462899Y69608D01*
X462055Y68765D01*
X461709Y67930D01*
X461391Y68698D01*
X460548Y69542D01*
X459445Y69998D01*
X458251D01*
X457149Y69542D01*
X456305Y68698D01*
X455848Y67595D01*
Y66402D01*
X456305Y65299D01*
X457149Y64455D01*
X458251Y63998D01*
X459445D01*
X460548Y64455D01*
X461391Y65299D01*
X461737Y66133D01*
X462055Y65366D01*
X462899Y64522D01*
X464002Y64065D01*
X465195D01*
X466298Y64522D01*
X467142Y65366D01*
X467598Y66469D01*
Y67662D01*
X467142Y68765D01*
X466298Y69608D01*
X465195Y70065D01*
D02*
G37*
G36*
X413320Y69748D02*
X412126D01*
X411024Y69292D01*
X410180Y68448D01*
X409723Y67345D01*
Y66152D01*
X410180Y65049D01*
X411024Y64205D01*
X412126Y63748D01*
X413320D01*
X414422Y64205D01*
X415266Y65049D01*
X415723Y66152D01*
Y67345D01*
X415266Y68448D01*
X414422Y69292D01*
X413320Y69748D01*
D02*
G37*
G36*
X405273Y69168D02*
X404080D01*
X402977Y68712D01*
X402133Y67868D01*
X401677Y66765D01*
Y65572D01*
X402133Y64469D01*
X402977Y63625D01*
X404080Y63168D01*
X405273D01*
X406376Y63625D01*
X407220Y64469D01*
X407677Y65572D01*
Y66765D01*
X407220Y67868D01*
X406376Y68712D01*
X405273Y69168D01*
D02*
G37*
G36*
X440275Y150082D02*
X439281D01*
X438362Y149701D01*
X437659Y148998D01*
X437278Y148079D01*
Y147084D01*
X437659Y146166D01*
X438362Y145462D01*
X439281Y145082D01*
X440275D01*
X441194Y145462D01*
X441898Y146166D01*
X442278Y147084D01*
Y148079D01*
X441898Y148998D01*
X441194Y149701D01*
X440275Y150082D01*
D02*
G37*
G36*
X446825Y149009D02*
X445831D01*
X444912Y148628D01*
X444209Y147925D01*
X443828Y147006D01*
Y146011D01*
X444209Y145092D01*
X444912Y144389D01*
X445831Y144009D01*
X446825D01*
X447744Y144389D01*
X448447Y145092D01*
X448828Y146011D01*
Y147006D01*
X448447Y147925D01*
X447744Y148628D01*
X446825Y149009D01*
D02*
G37*
G36*
X454486Y149002D02*
X453492D01*
X452573Y148622D01*
X451870Y147919D01*
X451489Y147000D01*
Y146005D01*
X451870Y145086D01*
X452573Y144383D01*
X453492Y144002D01*
X454486D01*
X455405Y144383D01*
X456108Y145086D01*
X456489Y146005D01*
Y147000D01*
X456108Y147919D01*
X455405Y148622D01*
X454486Y149002D01*
D02*
G37*
G36*
X461765Y148484D02*
X460770D01*
X459851Y148104D01*
X459148Y147401D01*
X458768Y146482D01*
Y145487D01*
X459148Y144568D01*
X459851Y143865D01*
X460770Y143484D01*
X461765D01*
X462684Y143865D01*
X463387Y144568D01*
X463768Y145487D01*
Y146482D01*
X463387Y147401D01*
X462684Y148104D01*
X461765Y148484D01*
D02*
G37*
G36*
X454486Y142500D02*
X453492D01*
X452573Y142119D01*
X451870Y141416D01*
X451489Y140497D01*
Y139503D01*
X451870Y138584D01*
X452573Y137881D01*
X453492Y137500D01*
X454486D01*
X455405Y137881D01*
X456108Y138584D01*
X456489Y139503D01*
Y140497D01*
X456108Y141416D01*
X455405Y142119D01*
X454486Y142500D01*
D02*
G37*
G36*
X447984D02*
X446989D01*
X446071Y142119D01*
X445367Y141416D01*
X444987Y140497D01*
Y139503D01*
X445367Y138584D01*
X446071Y137881D01*
X446989Y137500D01*
X447984D01*
X448903Y137881D01*
X449606Y138584D01*
X449987Y139503D01*
Y140497D01*
X449606Y141416D01*
X448903Y142119D01*
X447984Y142500D01*
D02*
G37*
G36*
X440497D02*
X439503D01*
X438584Y142119D01*
X437881Y141416D01*
X437500Y140497D01*
Y139503D01*
X437881Y138584D01*
X438584Y137881D01*
X439503Y137500D01*
X440497D01*
X441416Y137881D01*
X442119Y138584D01*
X442500Y139503D01*
Y140497D01*
X442119Y141416D01*
X441416Y142119D01*
X440497Y142500D01*
D02*
G37*
G36*
X454504Y137002D02*
X453509D01*
X452590Y136621D01*
X451887Y135918D01*
X451507Y134999D01*
Y134005D01*
X451887Y133086D01*
X452590Y132383D01*
X453509Y132002D01*
X454504D01*
X455423Y132383D01*
X456126Y133086D01*
X456507Y134005D01*
Y134999D01*
X456126Y135918D01*
X455423Y136621D01*
X454504Y137002D01*
D02*
G37*
G36*
X447984Y135998D02*
X446989D01*
X446071Y135617D01*
X445367Y134914D01*
X444987Y133995D01*
Y133000D01*
X445367Y132081D01*
X446071Y131378D01*
X446989Y130998D01*
X447984D01*
X448903Y131378D01*
X449606Y132081D01*
X449987Y133000D01*
Y133995D01*
X449606Y134914D01*
X448903Y135617D01*
X447984Y135998D01*
D02*
G37*
G36*
X441015Y135978D02*
X440020D01*
X439101Y135598D01*
X438398Y134895D01*
X438018Y133976D01*
Y132981D01*
X438398Y132062D01*
X439101Y131359D01*
X440020Y130978D01*
X441015D01*
X441934Y131359D01*
X442637Y132062D01*
X443018Y132981D01*
Y133976D01*
X442637Y134895D01*
X441934Y135598D01*
X441015Y135978D01*
D02*
G37*
G36*
X447561Y130086D02*
X446567D01*
X445648Y129705D01*
X444944Y129002D01*
X444564Y128083D01*
Y127088D01*
X444944Y126170D01*
X445648Y125466D01*
X446567Y125086D01*
X447561D01*
X448480Y125466D01*
X449183Y126170D01*
X449564Y127088D01*
Y128083D01*
X449183Y129002D01*
X448480Y129705D01*
X447561Y130086D01*
D02*
G37*
G36*
X440737Y129447D02*
X439742D01*
X438824Y129066D01*
X438120Y128363D01*
X437740Y127444D01*
Y126449D01*
X438120Y125531D01*
X438824Y124827D01*
X439742Y124447D01*
X440737D01*
X441656Y124827D01*
X442359Y125531D01*
X442740Y126449D01*
Y127444D01*
X442359Y128363D01*
X441656Y129066D01*
X440737Y129447D01*
D02*
G37*
G36*
X440350Y122943D02*
X439355D01*
X438437Y122563D01*
X437733Y121859D01*
X437353Y120940D01*
Y119946D01*
X437733Y119027D01*
X438437Y118324D01*
X439355Y117943D01*
X440350D01*
X441269Y118324D01*
X441972Y119027D01*
X442353Y119946D01*
Y120940D01*
X441972Y121859D01*
X441269Y122563D01*
X440350Y122943D01*
D02*
G37*
G36*
X285597Y138000D02*
X284403D01*
X283300Y137543D01*
X282457Y136699D01*
X282000Y135597D01*
Y134403D01*
X282457Y133301D01*
X283300Y132457D01*
X284403Y132000D01*
X285597D01*
X286699Y132457D01*
X287543Y133301D01*
X288000Y134403D01*
Y135597D01*
X287543Y136699D01*
X286699Y137543D01*
X285597Y138000D01*
D02*
G37*
G36*
X351835Y135020D02*
X350641D01*
X349539Y134563D01*
X348695Y133719D01*
X348238Y132617D01*
Y131423D01*
X348695Y130321D01*
X349539Y129477D01*
X350641Y129020D01*
X351835D01*
X352937Y129477D01*
X353781Y130321D01*
X354238Y131423D01*
Y132617D01*
X353781Y133719D01*
X352937Y134563D01*
X351835Y135020D01*
D02*
G37*
G36*
X338375Y131917D02*
X337182D01*
X336079Y131460D01*
X335235Y130616D01*
X334779Y129514D01*
Y128320D01*
X335235Y127218D01*
X336079Y126374D01*
X337182Y125917D01*
X338375D01*
X339478Y126374D01*
X340322Y127218D01*
X340779Y128320D01*
Y129514D01*
X340322Y130616D01*
X339478Y131460D01*
X338375Y131917D01*
D02*
G37*
G36*
X364044Y123774D02*
X362851D01*
X361748Y123318D01*
X360904Y122474D01*
X360448Y121371D01*
Y120178D01*
X360904Y119075D01*
X361748Y118231D01*
X362851Y117774D01*
X364044D01*
X365147Y118231D01*
X365991Y119075D01*
X366447Y120178D01*
Y121371D01*
X365991Y122474D01*
X365147Y123318D01*
X364044Y123774D01*
D02*
G37*
G36*
X336190Y122935D02*
X334996D01*
X333894Y122478D01*
X333050Y121634D01*
X332593Y120532D01*
Y119338D01*
X333050Y118236D01*
X333894Y117392D01*
X334996Y116935D01*
X336190D01*
X337293Y117392D01*
X338136Y118236D01*
X338593Y119338D01*
Y120532D01*
X338136Y121634D01*
X337293Y122478D01*
X336190Y122935D01*
D02*
G37*
G36*
X267807Y116108D02*
X266613D01*
X265511Y115651D01*
X264667Y114807D01*
X264210Y113705D01*
Y112511D01*
X264667Y111409D01*
X265511Y110564D01*
X266613Y110108D01*
X267807D01*
X268909Y110564D01*
X269753Y111409D01*
X270210Y112511D01*
Y113705D01*
X269753Y114807D01*
X268909Y115651D01*
X267807Y116108D01*
D02*
G37*
G36*
X293347Y116000D02*
X292153D01*
X291051Y115543D01*
X290207Y114699D01*
X289750Y113597D01*
Y112403D01*
X290207Y111301D01*
X291051Y110457D01*
X292153Y110000D01*
X293347D01*
X294449Y110457D01*
X295293Y111301D01*
X295750Y112403D01*
Y113597D01*
X295293Y114699D01*
X294449Y115543D01*
X293347Y116000D01*
D02*
G37*
G36*
X280347D02*
X279153D01*
X278051Y115543D01*
X277207Y114699D01*
X276750Y113597D01*
Y112403D01*
X277207Y111301D01*
X278051Y110457D01*
X279153Y110000D01*
X280347D01*
X281449Y110457D01*
X282293Y111301D01*
X282750Y112403D01*
Y113597D01*
X282293Y114699D01*
X281449Y115543D01*
X280347Y116000D01*
D02*
G37*
G36*
X306046Y112837D02*
X304853D01*
X303750Y112380D01*
X302906Y111536D01*
X302449Y110434D01*
Y109240D01*
X302906Y108137D01*
X303750Y107294D01*
X304853Y106837D01*
X306046D01*
X307149Y107294D01*
X307993Y108137D01*
X308449Y109240D01*
Y110434D01*
X307993Y111536D01*
X307149Y112380D01*
X306046Y112837D01*
D02*
G37*
G36*
X335597Y108000D02*
X334403D01*
X333301Y107543D01*
X332457Y106699D01*
X332000Y105597D01*
Y104403D01*
X332457Y103301D01*
X333301Y102457D01*
X334403Y102000D01*
X335597D01*
X336699Y102457D01*
X337543Y103301D01*
X338000Y104403D01*
Y105597D01*
X337543Y106699D01*
X336699Y107543D01*
X335597Y108000D01*
D02*
G37*
G36*
X255597Y108000D02*
X254403D01*
X253300Y107543D01*
X252457Y106699D01*
X252000Y105597D01*
Y104403D01*
X252457Y103301D01*
X253300Y102457D01*
X254403Y102000D01*
X255597D01*
X256699Y102457D01*
X257543Y103301D01*
X258000Y104403D01*
Y105597D01*
X257543Y106699D01*
X256699Y107543D01*
X255597Y108000D01*
D02*
G37*
G36*
X298252Y107825D02*
X297058D01*
X295956Y107368D01*
X295112Y106525D01*
X294655Y105422D01*
Y104228D01*
X295112Y103126D01*
X295956Y102282D01*
X297058Y101825D01*
X298252D01*
X299354Y102282D01*
X300198Y103126D01*
X300655Y104228D01*
Y105422D01*
X300198Y106525D01*
X299354Y107368D01*
X298252Y107825D01*
D02*
G37*
G36*
X287216Y101704D02*
X286023D01*
X284920Y101247D01*
X284076Y100403D01*
X283619Y99300D01*
Y98107D01*
X284076Y97004D01*
X284920Y96160D01*
X286023Y95704D01*
X287216D01*
X288319Y96160D01*
X289163Y97004D01*
X289620Y98107D01*
Y99300D01*
X289163Y100403D01*
X288319Y101247D01*
X287216Y101704D01*
D02*
G37*
G36*
X330597Y98000D02*
X329403D01*
X328301Y97543D01*
X327457Y96699D01*
X327000Y95597D01*
Y94403D01*
X327457Y93301D01*
X328301Y92457D01*
X329403Y92000D01*
X330597D01*
X331699Y92457D01*
X332543Y93301D01*
X333000Y94403D01*
Y95597D01*
X332543Y96699D01*
X331699Y97543D01*
X330597Y98000D01*
D02*
G37*
G36*
X344385Y97015D02*
X343192D01*
X342089Y96558D01*
X341245Y95714D01*
X340789Y94612D01*
Y93418D01*
X341245Y92316D01*
X342089Y91472D01*
X343192Y91015D01*
X344385D01*
X345488Y91472D01*
X346332Y92316D01*
X346789Y93418D01*
Y94612D01*
X346332Y95714D01*
X345488Y96558D01*
X344385Y97015D01*
D02*
G37*
G36*
X332576Y91913D02*
X331383D01*
X330280Y91456D01*
X329436Y90612D01*
X328980Y89510D01*
Y88316D01*
X329436Y87213D01*
X330280Y86370D01*
X331383Y85913D01*
X332576D01*
X333679Y86370D01*
X334523Y87213D01*
X334980Y88316D01*
Y89510D01*
X334523Y90612D01*
X333679Y91456D01*
X332576Y91913D01*
D02*
G37*
G36*
X286276Y87858D02*
X285082D01*
X283980Y87402D01*
X283136Y86558D01*
X282679Y85455D01*
Y84262D01*
X283136Y83159D01*
X283980Y82315D01*
X285082Y81859D01*
X286276D01*
X287378Y82315D01*
X288222Y83159D01*
X288679Y84262D01*
Y85455D01*
X288222Y86558D01*
X287378Y87402D01*
X286276Y87858D01*
D02*
G37*
G36*
X271276D02*
X270082D01*
X268980Y87402D01*
X268136Y86558D01*
X267679Y85455D01*
Y84262D01*
X268136Y83159D01*
X268980Y82315D01*
X270082Y81859D01*
X271276D01*
X272378Y82315D01*
X273222Y83159D01*
X273679Y84262D01*
Y85455D01*
X273222Y86558D01*
X272378Y87402D01*
X271276Y87858D01*
D02*
G37*
G36*
X300847Y87430D02*
X299653D01*
X298551Y86973D01*
X297707Y86129D01*
X297250Y85026D01*
Y83833D01*
X297707Y82730D01*
X298551Y81886D01*
X299653Y81430D01*
X300847D01*
X301950Y81886D01*
X302793Y82730D01*
X303250Y83833D01*
Y85026D01*
X302793Y86129D01*
X301950Y86973D01*
X300847Y87430D01*
D02*
G37*
G36*
X255597Y78000D02*
X254403D01*
X253300Y77543D01*
X252457Y76699D01*
X252000Y75597D01*
Y74403D01*
X252457Y73300D01*
X253300Y72457D01*
X254403Y72000D01*
X255597D01*
X256699Y72457D01*
X257543Y73300D01*
X258000Y74403D01*
Y75597D01*
X257543Y76699D01*
X256699Y77543D01*
X255597Y78000D01*
D02*
G37*
G36*
X301276Y77859D02*
X300082D01*
X298980Y77402D01*
X298136Y76558D01*
X297679Y75455D01*
Y74262D01*
X298136Y73159D01*
X298980Y72315D01*
X300082Y71859D01*
X301276D01*
X302378Y72315D01*
X303222Y73159D01*
X303679Y74262D01*
Y75455D01*
X303222Y76558D01*
X302378Y77402D01*
X301276Y77859D01*
D02*
G37*
G36*
X286276D02*
X285082D01*
X283980Y77402D01*
X283136Y76558D01*
X282679Y75455D01*
Y74262D01*
X283136Y73159D01*
X283980Y72315D01*
X285082Y71859D01*
X286276D01*
X287378Y72315D01*
X288222Y73159D01*
X288679Y74262D01*
Y75455D01*
X288222Y76558D01*
X287378Y77402D01*
X286276Y77859D01*
D02*
G37*
G36*
X271276D02*
X270082D01*
X268980Y77402D01*
X268136Y76558D01*
X267679Y75455D01*
Y74262D01*
X268136Y73159D01*
X268980Y72315D01*
X270082Y71859D01*
X271276D01*
X272378Y72315D01*
X273222Y73159D01*
X273679Y74262D01*
Y75455D01*
X273222Y76558D01*
X272378Y77402D01*
X271276Y77859D01*
D02*
G37*
G36*
X345254Y76989D02*
X344061D01*
X342958Y76533D01*
X342114Y75689D01*
X341657Y74586D01*
Y73393D01*
X342114Y72290D01*
X342958Y71446D01*
X344061Y70989D01*
X345254D01*
X346357Y71446D01*
X347201Y72290D01*
X347657Y73393D01*
Y74586D01*
X347201Y75689D01*
X346357Y76533D01*
X345254Y76989D01*
D02*
G37*
G36*
X362990Y69998D02*
X361797D01*
X360694Y69542D01*
X359850Y68698D01*
X359393Y67595D01*
Y66402D01*
X359850Y65299D01*
X360694Y64455D01*
X361797Y63998D01*
X362990D01*
X364093Y64455D01*
X364937Y65299D01*
X365393Y66402D01*
Y67595D01*
X364937Y68698D01*
X364093Y69542D01*
X362990Y69998D01*
D02*
G37*
G36*
X301276Y67859D02*
X300082D01*
X298980Y67402D01*
X298136Y66558D01*
X297679Y65455D01*
Y64262D01*
X298136Y63159D01*
X298980Y62315D01*
X300082Y61859D01*
X301276D01*
X302378Y62315D01*
X303222Y63159D01*
X303679Y64262D01*
Y65455D01*
X303222Y66558D01*
X302378Y67402D01*
X301276Y67859D01*
D02*
G37*
G36*
X286276D02*
X285082D01*
X283980Y67402D01*
X283136Y66558D01*
X282679Y65455D01*
Y64262D01*
X283136Y63159D01*
X283980Y62315D01*
X285082Y61859D01*
X286276D01*
X287378Y62315D01*
X288222Y63159D01*
X288679Y64262D01*
Y65455D01*
X288222Y66558D01*
X287378Y67402D01*
X286276Y67859D01*
D02*
G37*
G36*
X271276D02*
X270082D01*
X268980Y67402D01*
X268136Y66558D01*
X267679Y65455D01*
Y64262D01*
X268136Y63159D01*
X268980Y62315D01*
X270082Y61859D01*
X271276D01*
X272378Y62315D01*
X273222Y63159D01*
X273679Y64262D01*
Y65455D01*
X273222Y66558D01*
X272378Y67402D01*
X271276Y67859D01*
D02*
G37*
G36*
X321643Y60074D02*
X320450D01*
X319347Y59617D01*
X318503Y58773D01*
X318047Y57671D01*
Y56477D01*
X318503Y55375D01*
X319347Y54531D01*
X320450Y54074D01*
X321643D01*
X322746Y54531D01*
X323590Y55375D01*
X324047Y56477D01*
Y57671D01*
X323590Y58773D01*
X322746Y59617D01*
X321643Y60074D01*
D02*
G37*
G36*
X328025Y54897D02*
X326831D01*
X325729Y54440D01*
X324885Y53597D01*
X324428Y52494D01*
Y51300D01*
X324885Y50198D01*
X325729Y49354D01*
X326831Y48897D01*
X328025D01*
X329127Y49354D01*
X329971Y50198D01*
X330428Y51300D01*
Y52494D01*
X329971Y53597D01*
X329127Y54440D01*
X328025Y54897D01*
D02*
G37*
G36*
X322309Y48815D02*
X321116D01*
X320013Y48358D01*
X319169Y47514D01*
X318713Y46411D01*
Y45218D01*
X319169Y44115D01*
X320013Y43271D01*
X321116Y42815D01*
X322309D01*
X323412Y43271D01*
X324256Y44115D01*
X324713Y45218D01*
Y46411D01*
X324256Y47514D01*
X323412Y48358D01*
X322309Y48815D01*
D02*
G37*
G36*
X341249Y48375D02*
X340056D01*
X338953Y47918D01*
X338109Y47074D01*
X337652Y45972D01*
Y44778D01*
X338109Y43676D01*
X338953Y42832D01*
X340056Y42375D01*
X341249D01*
X342352Y42832D01*
X343195Y43676D01*
X343652Y44778D01*
Y45972D01*
X343195Y47074D01*
X342352Y47918D01*
X341249Y48375D01*
D02*
G37*
G36*
X270597Y48000D02*
X269403D01*
X268300Y47543D01*
X267457Y46699D01*
X267000Y45597D01*
Y44403D01*
X267457Y43300D01*
X268300Y42457D01*
X269403Y42000D01*
X270597D01*
X271699Y42457D01*
X272543Y43300D01*
X273000Y44403D01*
Y45597D01*
X272543Y46699D01*
X271699Y47543D01*
X270597Y48000D01*
D02*
G37*
G36*
X255597D02*
X254403D01*
X253300Y47543D01*
X252457Y46699D01*
X252000Y45597D01*
Y44403D01*
X252457Y43300D01*
X253300Y42457D01*
X254403Y42000D01*
X255597D01*
X256699Y42457D01*
X257543Y43300D01*
X258000Y44403D01*
Y45597D01*
X257543Y46699D01*
X256699Y47543D01*
X255597Y48000D01*
D02*
G37*
G36*
X366077Y46911D02*
X364884D01*
X363781Y46454D01*
X362938Y45610D01*
X362481Y44508D01*
Y43314D01*
X362938Y42211D01*
X363781Y41368D01*
X364884Y40911D01*
X366077D01*
X367180Y41368D01*
X368024Y42211D01*
X368481Y43314D01*
Y44508D01*
X368024Y45610D01*
X367180Y46454D01*
X366077Y46911D01*
D02*
G37*
G36*
X327839Y45615D02*
X326645D01*
X325543Y45158D01*
X324699Y44314D01*
X324242Y43212D01*
Y42018D01*
X324699Y40916D01*
X325543Y40072D01*
X326645Y39615D01*
X327839D01*
X328941Y40072D01*
X329785Y40916D01*
X330242Y42018D01*
Y43212D01*
X329785Y44314D01*
X328941Y45158D01*
X327839Y45615D01*
D02*
G37*
G36*
X294425Y38141D02*
X293232D01*
X292129Y37684D01*
X291285Y36840D01*
X290828Y35738D01*
Y34544D01*
X291285Y33442D01*
X292129Y32598D01*
X293232Y32141D01*
X294425D01*
X295528Y32598D01*
X296372Y33442D01*
X296828Y34544D01*
Y35738D01*
X296372Y36840D01*
X295528Y37684D01*
X294425Y38141D01*
D02*
G37*
G36*
X267685Y38127D02*
X266492D01*
X265389Y37670D01*
X264545Y36826D01*
X264088Y35724D01*
Y34530D01*
X264545Y33428D01*
X265389Y32584D01*
X266492Y32127D01*
X267685D01*
X268788Y32584D01*
X269632Y33428D01*
X270089Y34530D01*
Y35724D01*
X269632Y36826D01*
X268788Y37670D01*
X267685Y38127D01*
D02*
G37*
G36*
X326432Y22292D02*
X325238D01*
X324136Y21835D01*
X323292Y20991D01*
X322835Y19889D01*
Y18695D01*
X323292Y17593D01*
X324136Y16749D01*
X325238Y16292D01*
X326432D01*
X327535Y16749D01*
X328378Y17593D01*
X328835Y18695D01*
Y19889D01*
X328378Y20991D01*
X327535Y21835D01*
X326432Y22292D01*
D02*
G37*
G36*
X298115Y21778D02*
X296922D01*
X295819Y21321D01*
X294975Y20477D01*
X294518Y19375D01*
Y18181D01*
X294975Y17079D01*
X295819Y16235D01*
X296922Y15778D01*
X298115D01*
X299218Y16235D01*
X300062Y17079D01*
X300518Y18181D01*
Y19375D01*
X300062Y20477D01*
X299218Y21321D01*
X298115Y21778D01*
D02*
G37*
G36*
X264107Y21461D02*
X262913D01*
X261811Y21004D01*
X260967Y20161D01*
X260510Y19058D01*
Y17864D01*
X260967Y16762D01*
X261811Y15918D01*
X262913Y15461D01*
X264107D01*
X265210Y15918D01*
X266053Y16762D01*
X266510Y17864D01*
Y19058D01*
X266053Y20161D01*
X265210Y21004D01*
X264107Y21461D01*
D02*
G37*
G36*
X360597Y18000D02*
X359403D01*
X358301Y17543D01*
X357457Y16699D01*
X357000Y15597D01*
Y14403D01*
X357457Y13300D01*
X358301Y12457D01*
X359403Y12000D01*
X360597D01*
X361699Y12457D01*
X362543Y13300D01*
X363000Y14403D01*
Y15597D01*
X362543Y16699D01*
X361699Y17543D01*
X360597Y18000D01*
D02*
G37*
G36*
X255597D02*
X254403D01*
X253300Y17543D01*
X252457Y16699D01*
X252000Y15597D01*
Y14403D01*
X252457Y13300D01*
X253300Y12457D01*
X254403Y12000D01*
X255597D01*
X256699Y12457D01*
X257543Y13300D01*
X258000Y14403D01*
Y15597D01*
X257543Y16699D01*
X256699Y17543D01*
X255597Y18000D01*
D02*
G37*
%LPD*%
D15*
X339527Y84704D02*
X353201D01*
X382488Y113990D01*
D95*
X461252Y140699D02*
D03*
X459571Y160530D02*
D03*
X506534Y114432D02*
D03*
X403236Y121458D02*
D03*
X396093Y127683D02*
D03*
X402739Y158561D02*
D03*
X400738Y167221D02*
D03*
X426737Y214519D02*
D03*
X448281Y201067D02*
D03*
X455355Y200952D02*
D03*
X321849Y62477D02*
D03*
X415000Y185491D02*
D03*
X352714Y201773D02*
D03*
X347716Y182217D02*
D03*
X453989Y185491D02*
D03*
X415000Y191994D02*
D03*
X501959Y116697D02*
D03*
X352702Y77753D02*
D03*
X360363Y110188D02*
D03*
X401995Y113990D02*
D03*
X467274Y217066D02*
D03*
X462697Y213838D02*
D03*
X471618Y220397D02*
D03*
X462697Y220463D02*
D03*
X369223Y124557D02*
D03*
X358046Y59119D02*
D03*
X362824Y163317D02*
D03*
X344273Y132451D02*
D03*
X305065Y102711D02*
D03*
X279714Y102747D02*
D03*
X321774Y33288D02*
D03*
X339527Y84704D02*
D03*
X382488Y113990D02*
D03*
X305291Y35088D02*
D03*
X345312Y119745D02*
D03*
X440984Y113990D02*
D03*
X460491Y153005D02*
D03*
X388838Y368903D02*
D03*
X502079Y183512D02*
D03*
X502356Y177702D02*
D03*
X477780Y234273D02*
D03*
X484985Y234894D02*
D03*
X477904Y241230D02*
D03*
X484861Y240981D02*
D03*
X362445Y180494D02*
D03*
X415000Y159507D02*
D03*
X421477D02*
D03*
X434482D02*
D03*
X447487D02*
D03*
X440984D02*
D03*
X401995Y153005D02*
D03*
X447487Y191994D02*
D03*
X400000Y200750D02*
D03*
X427979Y178989D02*
D03*
X408498Y140000D02*
D03*
D100*
X426737Y213663D02*
Y214519D01*
X418788Y206814D02*
X419889D01*
X426737Y213663D01*
D102*
X352714Y187214D02*
Y201773D01*
X347716Y182217D02*
X352714Y187214D01*
D106*
X388307Y368372D02*
X395879Y360800D01*
X390497Y329723D02*
Y347631D01*
X395879Y353013D01*
X390497Y329723D02*
X394808Y325411D01*
X395879Y353013D02*
Y360800D01*
X417381Y205000D02*
X418788Y206407D01*
X400000Y200750D02*
X411845D01*
X418788Y206814D02*
Y246423D01*
X394808Y310995D02*
Y325411D01*
X403250Y261961D02*
X418788Y246423D01*
X394808Y310995D02*
X403250Y302553D01*
Y261961D02*
Y302553D01*
D131*
X411845Y200750D02*
X416095Y205000D01*
M02*
