G04*
G04 #@! TF.GenerationSoftware,Altium Limited,Altium Designer Agile,26.0.0 (14)*
G04*
G04 Layer_Color=16711935*
%FSLAX44Y44*%
%MOMM*%
G71*
G04*
G04 #@! TF.SameCoordinates,4FF2EC7E-CA27-4E83-9EAC-C24659388D2A*
G04*
G04*
G04 #@! TF.FilePolarity,Negative*
G04*
G01*
G75*
%ADD27R,0.3250X0.2700*%
%ADD43R,0.5153X0.4725*%
%ADD47R,0.7500X0.9000*%
%ADD48R,0.9000X0.7500*%
%ADD50R,0.4725X0.5153*%
%ADD63R,2.1006X3.1013*%
%ADD64R,0.4013X1.4021*%
%ADD71O,1.9025X1.3005*%
%ADD72O,2.1006X1.3005*%
%ADD73R,1.4032X1.4032*%
%ADD74C,1.4032*%
%ADD75C,1.2032*%
%ADD76C,2.8032*%
%ADD77C,0.7032*%
%ADD116R,0.8000X0.9000*%
%ADD117R,0.8000X0.8000*%
G04:AMPARAMS|DCode=118|XSize=0.55mm|YSize=0.25mm|CornerRadius=0.05mm|HoleSize=0mm|Usage=FLASHONLY|Rotation=180.000|XOffset=0mm|YOffset=0mm|HoleType=Round|Shape=RoundedRectangle|*
%AMROUNDEDRECTD118*
21,1,0.5500,0.1500,0,0,180.0*
21,1,0.4500,0.2500,0,0,180.0*
1,1,0.1000,-0.2250,0.0750*
1,1,0.1000,0.2250,0.0750*
1,1,0.1000,0.2250,-0.0750*
1,1,0.1000,-0.2250,-0.0750*
%
%ADD118ROUNDEDRECTD118*%
G04:AMPARAMS|DCode=119|XSize=0.9mm|YSize=0.25mm|CornerRadius=0.05mm|HoleSize=0mm|Usage=FLASHONLY|Rotation=0.000|XOffset=0mm|YOffset=0mm|HoleType=Round|Shape=RoundedRectangle|*
%AMROUNDEDRECTD119*
21,1,0.9000,0.1500,0,0,0.0*
21,1,0.8000,0.2500,0,0,0.0*
1,1,0.1000,0.4000,-0.0750*
1,1,0.1000,-0.4000,-0.0750*
1,1,0.1000,-0.4000,0.0750*
1,1,0.1000,0.4000,0.0750*
%
%ADD119ROUNDEDRECTD119*%
G04:AMPARAMS|DCode=120|XSize=0.6mm|YSize=0.25mm|CornerRadius=0.05mm|HoleSize=0mm|Usage=FLASHONLY|Rotation=0.000|XOffset=0mm|YOffset=0mm|HoleType=Round|Shape=RoundedRectangle|*
%AMROUNDEDRECTD120*
21,1,0.6000,0.1500,0,0,0.0*
21,1,0.5000,0.2500,0,0,0.0*
1,1,0.1000,0.2500,-0.0750*
1,1,0.1000,-0.2500,-0.0750*
1,1,0.1000,-0.2500,0.0750*
1,1,0.1000,0.2500,0.0750*
%
%ADD120ROUNDEDRECTD120*%
G04:AMPARAMS|DCode=121|XSize=1.3mm|YSize=0.25mm|CornerRadius=0.05mm|HoleSize=0mm|Usage=FLASHONLY|Rotation=0.000|XOffset=0mm|YOffset=0mm|HoleType=Round|Shape=RoundedRectangle|*
%AMROUNDEDRECTD121*
21,1,1.3000,0.1500,0,0,0.0*
21,1,1.2000,0.2500,0,0,0.0*
1,1,0.1000,0.6000,-0.0750*
1,1,0.1000,-0.6000,-0.0750*
1,1,0.1000,-0.6000,0.0750*
1,1,0.1000,0.6000,0.0750*
%
%ADD121ROUNDEDRECTD121*%
%ADD122R,0.3000X0.2800*%
%ADD124R,0.2800X0.3000*%
%ADD125R,0.8500X0.8500*%
G04:AMPARAMS|DCode=143|XSize=0.5032mm|YSize=0.6532mm|CornerRadius=0.1511mm|HoleSize=0mm|Usage=FLASHONLY|Rotation=270.000|XOffset=0mm|YOffset=0mm|HoleType=Round|Shape=RoundedRectangle|*
%AMROUNDEDRECTD143*
21,1,0.5032,0.3510,0,0,270.0*
21,1,0.2010,0.6532,0,0,270.0*
1,1,0.3022,-0.1755,-0.1005*
1,1,0.3022,-0.1755,0.1005*
1,1,0.3022,0.1755,0.1005*
1,1,0.3022,0.1755,-0.1005*
%
%ADD143ROUNDEDRECTD143*%
G04:AMPARAMS|DCode=144|XSize=1.2032mm|YSize=1.8032mm|CornerRadius=0.1516mm|HoleSize=0mm|Usage=FLASHONLY|Rotation=0.000|XOffset=0mm|YOffset=0mm|HoleType=Round|Shape=RoundedRectangle|*
%AMROUNDEDRECTD144*
21,1,1.2032,1.5000,0,0,0.0*
21,1,0.9000,1.8032,0,0,0.0*
1,1,0.3032,0.4500,-0.7500*
1,1,0.3032,-0.4500,-0.7500*
1,1,0.3032,-0.4500,0.7500*
1,1,0.3032,0.4500,0.7500*
%
%ADD144ROUNDEDRECTD144*%
%ADD145R,0.9525X0.7036*%
D27*
X102761Y431559D02*
D03*
Y436559D02*
D03*
Y441559D02*
D03*
X96011D02*
D03*
Y431559D02*
D03*
Y436559D02*
D03*
D43*
X121717Y107839D02*
D03*
X129289D02*
D03*
X103916Y120001D02*
D03*
X96344D02*
D03*
X113732Y74609D02*
D03*
X106161D02*
D03*
X36297Y407561D02*
D03*
X28726D02*
D03*
X69822Y512607D02*
D03*
X62251D02*
D03*
X129569Y134718D02*
D03*
X121997D02*
D03*
X279722Y38211D02*
D03*
X287294D02*
D03*
X67309Y197274D02*
D03*
X59738D02*
D03*
X121652Y124557D02*
D03*
X129223D02*
D03*
X298612Y190618D02*
D03*
X306184D02*
D03*
X160500Y200689D02*
D03*
X152929D02*
D03*
X299792Y221798D02*
D03*
X307363D02*
D03*
X111832Y134100D02*
D03*
X104260D02*
D03*
X66410Y164208D02*
D03*
X58839D02*
D03*
X317571Y325000D02*
D03*
X310000D02*
D03*
X129618Y162610D02*
D03*
X122047D02*
D03*
X330042Y387359D02*
D03*
X337613D02*
D03*
X330982Y449201D02*
D03*
X338553D02*
D03*
X346576Y449290D02*
D03*
X354148D02*
D03*
X223149Y200358D02*
D03*
X215578D02*
D03*
X99744Y477157D02*
D03*
X107316D02*
D03*
X55500Y35061D02*
D03*
X63071D02*
D03*
X186500Y213689D02*
D03*
X178929D02*
D03*
X212422Y210306D02*
D03*
X204851D02*
D03*
X207569Y200276D02*
D03*
X199998D02*
D03*
X346378Y387136D02*
D03*
X353949D02*
D03*
X306112Y395226D02*
D03*
X313683D02*
D03*
X122195Y152313D02*
D03*
X129766D02*
D03*
X148483Y146665D02*
D03*
X140912D02*
D03*
X137668Y133519D02*
D03*
X145239D02*
D03*
X145336Y293134D02*
D03*
X137765D02*
D03*
D47*
X121743Y91061D02*
D03*
X106243D02*
D03*
D48*
X125000Y437750D02*
D03*
Y422250D02*
D03*
D50*
X49054Y499590D02*
D03*
Y492019D02*
D03*
X354666Y365530D02*
D03*
Y357958D02*
D03*
X353749Y426480D02*
D03*
Y418909D02*
D03*
X201677Y309711D02*
D03*
Y317282D02*
D03*
X171572Y374364D02*
D03*
Y366793D02*
D03*
X163374Y319563D02*
D03*
Y327134D02*
D03*
X291310Y279774D02*
D03*
Y272203D02*
D03*
X329370Y283375D02*
D03*
Y290946D02*
D03*
X306607Y285382D02*
D03*
Y292953D02*
D03*
X81509Y20470D02*
D03*
Y28041D02*
D03*
X81713Y45922D02*
D03*
Y38351D02*
D03*
X81943Y56307D02*
D03*
Y63878D02*
D03*
X301193Y59302D02*
D03*
Y51731D02*
D03*
X285990Y59426D02*
D03*
Y51855D02*
D03*
X270353Y59620D02*
D03*
Y52049D02*
D03*
X266907Y378787D02*
D03*
Y371216D02*
D03*
X264158Y361874D02*
D03*
Y354303D02*
D03*
X128306Y195903D02*
D03*
Y203474D02*
D03*
X64939Y110321D02*
D03*
Y102750D02*
D03*
X39689Y110321D02*
D03*
Y102750D02*
D03*
X188196Y193347D02*
D03*
Y200919D02*
D03*
X207911Y434592D02*
D03*
Y442164D02*
D03*
X205512Y424881D02*
D03*
Y417310D02*
D03*
X257943Y441629D02*
D03*
Y434058D02*
D03*
X135061Y268750D02*
D03*
Y261179D02*
D03*
X120061Y268750D02*
D03*
Y261179D02*
D03*
X120061Y249497D02*
D03*
Y241926D02*
D03*
X128306Y180197D02*
D03*
Y172626D02*
D03*
X256029Y424278D02*
D03*
Y416707D02*
D03*
X109490Y308883D02*
D03*
Y316454D02*
D03*
D63*
X106445Y32930D02*
D03*
X244444D02*
D03*
D64*
X127934Y56425D02*
D03*
X132938D02*
D03*
X142945D02*
D03*
X147949D02*
D03*
X157931D02*
D03*
X222930D02*
D03*
X217951D02*
D03*
X207944D02*
D03*
X202940D02*
D03*
X192932D02*
D03*
X187929D02*
D03*
X177946D02*
D03*
X172943D02*
D03*
X162935D02*
D03*
X122930D02*
D03*
X167939D02*
D03*
X182950D02*
D03*
X197936D02*
D03*
X227934D02*
D03*
X137941D02*
D03*
X212948D02*
D03*
X152927D02*
D03*
D71*
X30756Y225308D02*
D03*
Y138795D02*
D03*
X333092Y161059D02*
D03*
Y247572D02*
D03*
D72*
X72564Y225308D02*
D03*
Y138795D02*
D03*
X291283Y161059D02*
D03*
Y247572D02*
D03*
D73*
X295500Y510000D02*
D03*
X294601Y127402D02*
D03*
X69736Y302009D02*
D03*
D74*
X295500Y490000D02*
D03*
X294601Y107402D02*
D03*
X69736Y322009D02*
D03*
D75*
X68383Y411459D02*
D03*
Y431459D02*
D03*
Y451459D02*
D03*
Y471459D02*
D03*
Y491459D02*
D03*
X352737Y276631D02*
D03*
X352693Y260506D02*
D03*
X182865Y340381D02*
D03*
X198990Y340337D02*
D03*
X195000Y297874D02*
D03*
X194956Y281749D02*
D03*
X352410Y327975D02*
D03*
X352454Y344100D02*
D03*
X352615Y306456D02*
D03*
X352571Y290331D02*
D03*
D76*
X26150Y258584D02*
D03*
D77*
X206206Y379130D02*
D03*
Y368130D02*
D03*
X321000Y297500D02*
D03*
X316000Y302500D02*
D03*
Y292500D02*
D03*
X326000D02*
D03*
Y302500D02*
D03*
X240000Y305500D02*
D03*
Y294500D02*
D03*
D116*
X184614Y366537D02*
D03*
Y383537D02*
D03*
X217059Y294146D02*
D03*
Y311146D02*
D03*
D117*
X297581Y306237D02*
D03*
Y321237D02*
D03*
D118*
X328853Y433806D02*
D03*
Y428806D02*
D03*
Y423806D02*
D03*
X342352Y418806D02*
D03*
Y428806D02*
D03*
Y433806D02*
D03*
Y423806D02*
D03*
X328853Y418806D02*
D03*
X328402Y372446D02*
D03*
Y367446D02*
D03*
Y362446D02*
D03*
X341902Y357446D02*
D03*
Y367446D02*
D03*
Y372446D02*
D03*
Y362446D02*
D03*
X328402Y357446D02*
D03*
D119*
X287500Y420000D02*
D03*
Y425000D02*
D03*
Y435000D02*
D03*
Y440000D02*
D03*
X296027Y355161D02*
D03*
Y360161D02*
D03*
Y370161D02*
D03*
Y375161D02*
D03*
X237500Y420000D02*
D03*
Y425000D02*
D03*
Y435000D02*
D03*
Y440000D02*
D03*
D120*
X271000D02*
D03*
Y435000D02*
D03*
Y420000D02*
D03*
Y425000D02*
D03*
Y430000D02*
D03*
X279527Y375161D02*
D03*
Y370161D02*
D03*
Y355161D02*
D03*
Y360161D02*
D03*
Y365161D02*
D03*
X221000Y440000D02*
D03*
Y435000D02*
D03*
Y420000D02*
D03*
Y425000D02*
D03*
Y430000D02*
D03*
D121*
X285500D02*
D03*
X294027Y365161D02*
D03*
X235500Y430000D02*
D03*
D122*
X148922Y113643D02*
D03*
Y108343D02*
D03*
X175005Y113381D02*
D03*
Y108081D02*
D03*
X161991Y166571D02*
D03*
Y171871D02*
D03*
X220456Y160094D02*
D03*
Y165394D02*
D03*
X220477Y152515D02*
D03*
Y147215D02*
D03*
X207482Y113514D02*
D03*
Y108214D02*
D03*
X207404Y159981D02*
D03*
Y165281D02*
D03*
X200840Y160019D02*
D03*
Y165319D02*
D03*
X181350Y160443D02*
D03*
Y165743D02*
D03*
X187962Y166626D02*
D03*
Y171926D02*
D03*
X175078Y160193D02*
D03*
Y165493D02*
D03*
X200916Y126443D02*
D03*
Y121143D02*
D03*
X168261Y153672D02*
D03*
Y158972D02*
D03*
X187810Y126443D02*
D03*
Y121143D02*
D03*
X181529Y119755D02*
D03*
Y114455D02*
D03*
X181470Y134175D02*
D03*
Y139475D02*
D03*
X207388Y126497D02*
D03*
Y121197D02*
D03*
X194390Y126470D02*
D03*
Y121170D02*
D03*
X207542Y139403D02*
D03*
Y134103D02*
D03*
X200826Y139403D02*
D03*
Y134103D02*
D03*
X194491Y139485D02*
D03*
Y134185D02*
D03*
X188073Y139499D02*
D03*
Y134199D02*
D03*
X201069Y152647D02*
D03*
Y147347D02*
D03*
X207814Y152646D02*
D03*
Y147346D02*
D03*
X214068Y139349D02*
D03*
Y134049D02*
D03*
X181554Y147379D02*
D03*
Y152678D02*
D03*
X187829Y152631D02*
D03*
Y147331D02*
D03*
X194543Y152700D02*
D03*
Y147400D02*
D03*
X174808Y147295D02*
D03*
Y152595D02*
D03*
X214231Y152619D02*
D03*
Y147319D02*
D03*
X187972Y113310D02*
D03*
Y108011D02*
D03*
D124*
X161145Y159550D02*
D03*
X155845D02*
D03*
X214581Y113995D02*
D03*
X219881D02*
D03*
X221215Y140048D02*
D03*
X226515D02*
D03*
X214625Y126627D02*
D03*
X219925D02*
D03*
X219922Y120378D02*
D03*
X214622D02*
D03*
X195109Y172468D02*
D03*
X200410D02*
D03*
X187409Y178975D02*
D03*
X182109D02*
D03*
X213402Y185505D02*
D03*
X208102D02*
D03*
X174417Y192046D02*
D03*
X169117D02*
D03*
X174445Y185627D02*
D03*
X169145D02*
D03*
X206887Y192046D02*
D03*
X201587D02*
D03*
X155781Y133563D02*
D03*
X161081D02*
D03*
X155796Y146616D02*
D03*
X161096D02*
D03*
X161147Y153066D02*
D03*
X155847D02*
D03*
X162646Y113900D02*
D03*
X167946D02*
D03*
X161496Y120365D02*
D03*
X156196D02*
D03*
X154874Y126966D02*
D03*
X149574D02*
D03*
X168996Y140198D02*
D03*
X174296D02*
D03*
X174411Y120420D02*
D03*
X169111D02*
D03*
X168032Y126947D02*
D03*
X162732D02*
D03*
X161038Y140039D02*
D03*
X155738D02*
D03*
X200378Y114031D02*
D03*
X195078D02*
D03*
D125*
X49269Y156042D02*
D03*
X15769D02*
D03*
D143*
X215956Y373630D02*
D03*
Y380130D02*
D03*
X196456Y373630D02*
D03*
Y367130D02*
D03*
X215956D02*
D03*
X196456Y380130D02*
D03*
X249750Y300000D02*
D03*
Y306500D02*
D03*
X230250Y300000D02*
D03*
Y293500D02*
D03*
X249750D02*
D03*
X230250Y306500D02*
D03*
D144*
X206206Y373630D02*
D03*
X240000Y300000D02*
D03*
D145*
X125959Y309216D02*
D03*
X145974D02*
D03*
Y319224D02*
D03*
X125959Y329232D02*
D03*
X145974D02*
D03*
X125959Y319224D02*
D03*
M02*
