G04*
G04 #@! TF.GenerationSoftware,Altium Limited,Altium Designer Agile,26.0.0 (14)*
G04*
G04 Layer_Physical_Order=2*
G04 Layer_Color=36540*
%FSLAX44Y44*%
%MOMM*%
G71*
G04*
G04 #@! TF.SameCoordinates,02C85A25-7EA7-4CE0-89AD-E39939A6B267*
G04*
G04*
G04 #@! TF.FilePolarity,Positive*
G04*
G01*
G75*
%ADD83C,0.4501*%
%ADD110O,1.8009X1.1989*%
%ADD111O,1.9990X1.1989*%
%ADD112C,0.5000*%
%ADD113C,1.2000*%
%ADD115C,1.0000*%
G36*
X362050Y3372D02*
X4000D01*
Y442617D01*
X4034Y442534D01*
X5019Y441549D01*
X6305Y441016D01*
X7698D01*
X8984Y441549D01*
X9969Y442534D01*
X10501Y443820D01*
Y445213D01*
X9969Y446499D01*
X8984Y447483D01*
X7698Y448016D01*
X6305D01*
X5019Y447483D01*
X4034Y446499D01*
X4000Y446416D01*
Y522500D01*
X100000D01*
Y514326D01*
X99189Y515137D01*
X97902Y515670D01*
X96510D01*
X95224Y515137D01*
X94239Y514152D01*
X93706Y512866D01*
Y511474D01*
X94239Y510187D01*
X95224Y509203D01*
X96510Y508670D01*
X97902D01*
X99189Y509203D01*
X100000Y510014D01*
Y481693D01*
X174414D01*
Y522500D01*
X362050D01*
Y3372D01*
D02*
G37*
%LPC*%
G36*
X70805Y516155D02*
X69413D01*
X68127Y515622D01*
X67142Y514637D01*
X66609Y513351D01*
Y511959D01*
X67142Y510672D01*
X68127Y509688D01*
X69413Y509155D01*
X70805D01*
X72092Y509688D01*
X73076Y510672D01*
X73609Y511959D01*
Y513351D01*
X73076Y514637D01*
X72092Y515622D01*
X70805Y516155D01*
D02*
G37*
G36*
X88833Y515732D02*
X87441D01*
X86154Y515199D01*
X85169Y514214D01*
X84637Y512928D01*
Y511535D01*
X85169Y510249D01*
X86154Y509264D01*
X87441Y508732D01*
X88833D01*
X90119Y509264D01*
X91104Y510249D01*
X91637Y511535D01*
Y512928D01*
X91104Y514214D01*
X90119Y515199D01*
X88833Y515732D01*
D02*
G37*
G36*
X296594Y515500D02*
X294406D01*
X292384Y514663D01*
X290837Y513116D01*
X290000Y511094D01*
Y508906D01*
X290837Y506884D01*
X292384Y505337D01*
X294406Y504500D01*
X296594D01*
X298615Y505337D01*
X300163Y506884D01*
X301000Y508906D01*
Y511094D01*
X300163Y513116D01*
X298615Y514663D01*
X296594Y515500D01*
D02*
G37*
G36*
X18097Y508424D02*
X16705D01*
X15419Y507892D01*
X14434Y506907D01*
X13901Y505620D01*
Y504228D01*
X14434Y502942D01*
X15419Y501957D01*
X16705Y501424D01*
X18097D01*
X19384Y501957D01*
X20368Y502942D01*
X20901Y504228D01*
Y505620D01*
X20368Y506907D01*
X19384Y507892D01*
X18097Y508424D01*
D02*
G37*
G36*
X51264Y502815D02*
X49871D01*
X48585Y502282D01*
X47600Y501297D01*
X47068Y500011D01*
Y498619D01*
X47600Y497332D01*
X48585Y496348D01*
X49871Y495815D01*
X51264D01*
X52550Y496348D01*
X53535Y497332D01*
X54068Y498619D01*
Y500011D01*
X53535Y501297D01*
X52550Y502282D01*
X51264Y502815D01*
D02*
G37*
G36*
X11196Y496750D02*
X9804D01*
X8517Y496217D01*
X7533Y495233D01*
X7000Y493946D01*
Y492554D01*
X7533Y491267D01*
X8517Y490283D01*
X9804Y489750D01*
X11196D01*
X12483Y490283D01*
X13467Y491267D01*
X14000Y492554D01*
Y493946D01*
X13467Y495233D01*
X12483Y496217D01*
X11196Y496750D01*
D02*
G37*
G36*
X69079Y494958D02*
X67687D01*
X66400Y494426D01*
X65416Y493441D01*
X64883Y492155D01*
Y490762D01*
X65416Y489476D01*
X66400Y488491D01*
X67687Y487959D01*
X69079D01*
X70366Y488491D01*
X71350Y489476D01*
X71883Y490762D01*
Y492155D01*
X71350Y493441D01*
X70366Y494426D01*
X69079Y494958D01*
D02*
G37*
G36*
X48206Y492933D02*
X46814D01*
X45527Y492400D01*
X44543Y491416D01*
X44010Y490130D01*
Y488737D01*
X44543Y487451D01*
X45527Y486466D01*
X46814Y485933D01*
X48206D01*
X49493Y486466D01*
X50477Y487451D01*
X51010Y488737D01*
Y490130D01*
X50477Y491416D01*
X49493Y492400D01*
X48206Y492933D01*
D02*
G37*
G36*
X8430Y488666D02*
X7037D01*
X5751Y488133D01*
X4766Y487149D01*
X4234Y485862D01*
Y484470D01*
X4766Y483184D01*
X5751Y482199D01*
X7037Y481666D01*
X8430D01*
X9716Y482199D01*
X10701Y483184D01*
X11234Y484470D01*
Y485862D01*
X10701Y487149D01*
X9716Y488133D01*
X8430Y488666D01*
D02*
G37*
G36*
X90064Y481012D02*
X88672D01*
X87385Y480479D01*
X86401Y479495D01*
X85868Y478208D01*
Y476816D01*
X86401Y475530D01*
X87385Y474545D01*
X88672Y474012D01*
X90064D01*
X91350Y474545D01*
X92335Y475530D01*
X92868Y476816D01*
Y478208D01*
X92335Y479495D01*
X91350Y480479D01*
X90064Y481012D01*
D02*
G37*
G36*
X135696Y478500D02*
X134304D01*
X133017Y477967D01*
X132033Y476983D01*
X131500Y475696D01*
Y474304D01*
X132033Y473017D01*
X133017Y472033D01*
X134304Y471500D01*
X135696D01*
X136983Y472033D01*
X137967Y473017D01*
X138500Y474304D01*
Y475696D01*
X137967Y476983D01*
X136983Y477967D01*
X135696Y478500D01*
D02*
G37*
G36*
X8521Y474876D02*
X7128D01*
X5842Y474343D01*
X4858Y473359D01*
X4325Y472072D01*
Y470680D01*
X4858Y469393D01*
X5842Y468409D01*
X7128Y467876D01*
X8521D01*
X9807Y468409D01*
X10792Y469393D01*
X11325Y470680D01*
Y472072D01*
X10792Y473359D01*
X9807Y474343D01*
X8521Y474876D01*
D02*
G37*
G36*
X251457Y474298D02*
X250065D01*
X248779Y473766D01*
X247794Y472781D01*
X247261Y471495D01*
Y470102D01*
X247794Y468816D01*
X248779Y467831D01*
X250065Y467298D01*
X251457D01*
X252744Y467831D01*
X253728Y468816D01*
X254261Y470102D01*
Y471495D01*
X253728Y472781D01*
X252744Y473766D01*
X251457Y474298D01*
D02*
G37*
G36*
X20946Y474000D02*
X19554D01*
X18267Y473467D01*
X17283Y472483D01*
X16750Y471196D01*
Y469804D01*
X17283Y468517D01*
X18267Y467533D01*
X19554Y467000D01*
X20946D01*
X22233Y467533D01*
X23217Y468517D01*
X23750Y469804D01*
Y471196D01*
X23217Y472483D01*
X22233Y473467D01*
X20946Y474000D01*
D02*
G37*
G36*
X305696Y468500D02*
X304304D01*
X303017Y467967D01*
X302033Y466983D01*
X301500Y465696D01*
Y464304D01*
X302033Y463017D01*
X303017Y462033D01*
X304304Y461500D01*
X305696D01*
X306983Y462033D01*
X307967Y463017D01*
X308500Y464304D01*
Y465696D01*
X307967Y466983D01*
X306983Y467967D01*
X305696Y468500D01*
D02*
G37*
G36*
X122197Y468234D02*
X120804D01*
X119518Y467701D01*
X118533Y466717D01*
X118000Y465430D01*
Y464038D01*
X118533Y462751D01*
X119518Y461767D01*
X120804Y461234D01*
X122197D01*
X123483Y461767D01*
X124468Y462751D01*
X125000Y464038D01*
Y465430D01*
X124468Y466717D01*
X123483Y467701D01*
X122197Y468234D01*
D02*
G37*
G36*
X209446Y467500D02*
X208054D01*
X206767Y466967D01*
X205783Y465983D01*
X205250Y464696D01*
Y463304D01*
X205783Y462017D01*
X206767Y461033D01*
X208054Y460500D01*
X209446D01*
X210733Y461033D01*
X211717Y462017D01*
X212250Y463304D01*
Y464696D01*
X211717Y465983D01*
X210733Y466967D01*
X209446Y467500D01*
D02*
G37*
G36*
X30696Y464250D02*
X29304D01*
X28017Y463717D01*
X27033Y462733D01*
X26500Y461446D01*
Y460054D01*
X27033Y458767D01*
X28017Y457783D01*
X29304Y457250D01*
X30696D01*
X31983Y457783D01*
X32967Y458767D01*
X33500Y460054D01*
Y461446D01*
X32967Y462733D01*
X31983Y463717D01*
X30696Y464250D01*
D02*
G37*
G36*
X222179Y463649D02*
X220786D01*
X219500Y463116D01*
X218516Y462131D01*
X217983Y460845D01*
Y459452D01*
X218516Y458166D01*
X219500Y457182D01*
X220786Y456649D01*
X222179D01*
X223465Y457182D01*
X224450Y458166D01*
X224983Y459452D01*
Y460845D01*
X224450Y462131D01*
X223465Y463116D01*
X222179Y463649D01*
D02*
G37*
G36*
X270696Y463500D02*
X269304D01*
X268017Y462967D01*
X267033Y461983D01*
X266500Y460696D01*
Y459304D01*
X267033Y458017D01*
X268017Y457033D01*
X269304Y456500D01*
X270696D01*
X271983Y457033D01*
X272967Y458017D01*
X273500Y459304D01*
Y460696D01*
X272967Y461983D01*
X271983Y462967D01*
X270696Y463500D01*
D02*
G37*
G36*
X198642Y463472D02*
X197250D01*
X195963Y462939D01*
X194979Y461954D01*
X194446Y460668D01*
Y459275D01*
X194979Y457989D01*
X195963Y457004D01*
X197250Y456472D01*
X198642D01*
X199928Y457004D01*
X200913Y457989D01*
X201446Y459275D01*
Y460668D01*
X200913Y461954D01*
X199928Y462939D01*
X198642Y463472D01*
D02*
G37*
G36*
X8212Y461498D02*
X6820D01*
X5533Y460965D01*
X4549Y459980D01*
X4016Y458694D01*
Y457301D01*
X4549Y456015D01*
X5533Y455031D01*
X6820Y454498D01*
X8212D01*
X9499Y455031D01*
X10483Y456015D01*
X11016Y457301D01*
Y458694D01*
X10483Y459980D01*
X9499Y460965D01*
X8212Y461498D01*
D02*
G37*
G36*
X339977Y465890D02*
X338585D01*
X337298Y465357D01*
X336314Y464372D01*
X335781Y463086D01*
Y461693D01*
X336314Y460407D01*
X337103Y459618D01*
X335783D01*
X334497Y459085D01*
X333512Y458100D01*
X332980Y456814D01*
Y455421D01*
X333512Y454135D01*
X334497Y453151D01*
X335783Y452618D01*
X337176D01*
X338462Y453151D01*
X339447Y454135D01*
X339980Y455421D01*
Y456814D01*
X339447Y458100D01*
X338657Y458890D01*
X339977D01*
X341264Y459423D01*
X342248Y460407D01*
X342781Y461693D01*
Y463086D01*
X342248Y464372D01*
X341264Y465357D01*
X339977Y465890D01*
D02*
G37*
G36*
X272584Y456234D02*
X271192D01*
X269905Y455701D01*
X268920Y454716D01*
X268388Y453430D01*
Y452038D01*
X268920Y450751D01*
X269905Y449767D01*
X271192Y449234D01*
X272584D01*
X273870Y449767D01*
X274855Y450751D01*
X275388Y452038D01*
Y453430D01*
X274855Y454716D01*
X273870Y455701D01*
X272584Y456234D01*
D02*
G37*
G36*
X222279Y455860D02*
X220886D01*
X219600Y455327D01*
X218615Y454343D01*
X218083Y453056D01*
Y451664D01*
X218615Y450378D01*
X219600Y449393D01*
X220886Y448860D01*
X222279D01*
X223565Y449393D01*
X224550Y450378D01*
X225083Y451664D01*
Y453056D01*
X224550Y454343D01*
X223565Y455327D01*
X222279Y455860D01*
D02*
G37*
G36*
X182132Y455566D02*
X180740D01*
X179453Y455033D01*
X178469Y454049D01*
X177936Y452762D01*
Y451370D01*
X178469Y450084D01*
X179453Y449099D01*
X180740Y448566D01*
X182132D01*
X183419Y449099D01*
X184403Y450084D01*
X184936Y451370D01*
Y452762D01*
X184403Y454049D01*
X183419Y455033D01*
X182132Y455566D01*
D02*
G37*
G36*
X50196Y450106D02*
X48804D01*
X47517Y449573D01*
X46533Y448588D01*
X46000Y447302D01*
Y445909D01*
X46533Y444623D01*
X47517Y443638D01*
X48804Y443106D01*
X50196D01*
X51483Y443638D01*
X52467Y444623D01*
X53000Y445909D01*
Y447302D01*
X52467Y448588D01*
X51483Y449573D01*
X50196Y450106D01*
D02*
G37*
G36*
X113006Y448500D02*
X111614D01*
X110327Y447967D01*
X109343Y446983D01*
X108810Y445696D01*
Y444304D01*
X109343Y443017D01*
X110327Y442033D01*
X111614Y441500D01*
X113006D01*
X114293Y442033D01*
X115277Y443017D01*
X115810Y444304D01*
Y445696D01*
X115277Y446983D01*
X114293Y447967D01*
X113006Y448500D01*
D02*
G37*
G36*
X20946Y448000D02*
X19554D01*
X18267Y447467D01*
X17283Y446483D01*
X16750Y445196D01*
Y443804D01*
X17283Y442517D01*
X18267Y441533D01*
X19554Y441000D01*
X20946D01*
X22233Y441533D01*
X23217Y442517D01*
X23750Y443804D01*
Y445196D01*
X23217Y446483D01*
X22233Y447467D01*
X20946Y448000D01*
D02*
G37*
G36*
X182026Y447640D02*
X180634D01*
X179347Y447107D01*
X178363Y446122D01*
X177830Y444836D01*
Y443443D01*
X178363Y442157D01*
X179347Y441172D01*
X180634Y440639D01*
X182026D01*
X183313Y441172D01*
X184297Y442157D01*
X184830Y443443D01*
Y444836D01*
X184297Y446122D01*
X183313Y447107D01*
X182026Y447640D01*
D02*
G37*
G36*
X149336Y446101D02*
X147943D01*
X146657Y445569D01*
X145672Y444584D01*
X145140Y443298D01*
Y441905D01*
X145672Y440619D01*
X146657Y439634D01*
X147943Y439102D01*
X149336D01*
X150622Y439634D01*
X151607Y440619D01*
X152140Y441905D01*
Y443298D01*
X151607Y444584D01*
X150622Y445569D01*
X149336Y446101D01*
D02*
G37*
G36*
X267871Y444002D02*
X266478D01*
X265192Y443470D01*
X264207Y442485D01*
X263674Y441199D01*
Y439806D01*
X264207Y438520D01*
X265192Y437535D01*
X266478Y437002D01*
X267871D01*
X269157Y437535D01*
X270141Y438520D01*
X270674Y439806D01*
Y441199D01*
X270141Y442485D01*
X269157Y443470D01*
X267871Y444002D01*
D02*
G37*
G36*
X125798Y442088D02*
X124406D01*
X123119Y441555D01*
X122135Y440570D01*
X121602Y439284D01*
Y437892D01*
X122135Y436605D01*
X123119Y435621D01*
X124406Y435088D01*
X125798D01*
X127084Y435621D01*
X128069Y436605D01*
X128602Y437892D01*
Y439284D01*
X128069Y440570D01*
X127084Y441555D01*
X125798Y442088D01*
D02*
G37*
G36*
X107570Y441247D02*
X106177D01*
X104891Y440714D01*
X103906Y439730D01*
X103374Y438443D01*
Y437051D01*
X103906Y435765D01*
X104891Y434780D01*
X106177Y434247D01*
X107570D01*
X108856Y434780D01*
X109841Y435765D01*
X110374Y437051D01*
Y438443D01*
X109841Y439730D01*
X108856Y440714D01*
X107570Y441247D01*
D02*
G37*
G36*
X279295Y444546D02*
X277903D01*
X276616Y444013D01*
X275632Y443028D01*
X275099Y441742D01*
Y440349D01*
X275632Y439063D01*
X276616Y438078D01*
X277903Y437546D01*
X278065D01*
X277907Y437388D01*
X277375Y436102D01*
Y434709D01*
X277907Y433423D01*
X278892Y432438D01*
X280178Y431906D01*
X281571D01*
X282857Y432438D01*
X283842Y433423D01*
X284375Y434709D01*
Y436102D01*
X283842Y437388D01*
X282857Y438373D01*
X281571Y438905D01*
X281408D01*
X281566Y439063D01*
X282099Y440349D01*
Y441742D01*
X281566Y443028D01*
X280581Y444013D01*
X279295Y444546D01*
D02*
G37*
G36*
X228721Y444389D02*
X227328D01*
X226042Y443857D01*
X225057Y442872D01*
X224524Y441586D01*
Y440193D01*
X225057Y438907D01*
X226042Y437922D01*
X227328Y437389D01*
X227909D01*
X227907Y437388D01*
X227375Y436102D01*
Y434709D01*
X227907Y433423D01*
X228892Y432438D01*
X230178Y431906D01*
X231571D01*
X232857Y432438D01*
X233842Y433423D01*
X234375Y434709D01*
Y436102D01*
X233842Y437388D01*
X232857Y438373D01*
X231571Y438905D01*
X230990D01*
X230992Y438907D01*
X231524Y440193D01*
Y441586D01*
X230992Y442872D01*
X230007Y443857D01*
X228721Y444389D01*
D02*
G37*
G36*
X148878Y437595D02*
X147485D01*
X146199Y437062D01*
X145214Y436078D01*
X144682Y434791D01*
Y433399D01*
X145214Y432113D01*
X146199Y431128D01*
X147485Y430595D01*
X148878D01*
X150164Y431128D01*
X151149Y432113D01*
X151682Y433399D01*
Y434791D01*
X151149Y436078D01*
X150164Y437062D01*
X148878Y437595D01*
D02*
G37*
G36*
X183820Y435149D02*
X182428D01*
X181141Y434616D01*
X180157Y433631D01*
X179624Y432345D01*
Y430953D01*
X180157Y429666D01*
X181141Y428682D01*
X182428Y428149D01*
X183820D01*
X185106Y428682D01*
X186091Y429666D01*
X186624Y430953D01*
Y432345D01*
X186091Y433631D01*
X185106Y434616D01*
X183820Y435149D01*
D02*
G37*
G36*
X8727Y434844D02*
X7334D01*
X6048Y434311D01*
X5063Y433326D01*
X4531Y432040D01*
Y430648D01*
X5063Y429361D01*
X6048Y428377D01*
X7334Y427844D01*
X8727D01*
X10013Y428377D01*
X10998Y429361D01*
X11531Y430648D01*
Y432040D01*
X10998Y433326D01*
X10013Y434311D01*
X8727Y434844D01*
D02*
G37*
G36*
X18884Y434445D02*
X17492D01*
X16205Y433913D01*
X15221Y432928D01*
X14688Y431642D01*
Y430249D01*
X15221Y428963D01*
X16205Y427978D01*
X17492Y427445D01*
X18884D01*
X20170Y427978D01*
X21155Y428963D01*
X21688Y430249D01*
Y431642D01*
X21155Y432928D01*
X20170Y433913D01*
X18884Y434445D01*
D02*
G37*
G36*
X105446Y434253D02*
X104054D01*
X102767Y433720D01*
X101783Y432735D01*
X101250Y431449D01*
Y430056D01*
X101783Y428770D01*
X102767Y427785D01*
X104054Y427253D01*
X105446D01*
X106733Y427785D01*
X107717Y428770D01*
X108250Y430056D01*
Y431449D01*
X107717Y432735D01*
X106733Y433720D01*
X105446Y434253D01*
D02*
G37*
G36*
X135463Y434030D02*
X134070D01*
X132784Y433498D01*
X131799Y432513D01*
X131266Y431227D01*
Y429834D01*
X131799Y428548D01*
X132784Y427563D01*
X134070Y427030D01*
X135463D01*
X136749Y427563D01*
X137734Y428548D01*
X138266Y429834D01*
Y431227D01*
X137734Y432513D01*
X136749Y433498D01*
X135463Y434030D01*
D02*
G37*
G36*
X325696Y438500D02*
X324304D01*
X323017Y437967D01*
X322033Y436983D01*
X321500Y435696D01*
Y434304D01*
X322033Y433017D01*
X323017Y432033D01*
X323501Y431833D01*
X323183D01*
X321897Y431300D01*
X320912Y430315D01*
X320379Y429029D01*
Y427636D01*
X320912Y426350D01*
X321897Y425365D01*
X323183Y424833D01*
X324576D01*
X325862Y425365D01*
X326847Y426350D01*
X327379Y427636D01*
Y429029D01*
X326847Y430315D01*
X325862Y431300D01*
X325379Y431500D01*
X325696D01*
X326983Y432033D01*
X327967Y433017D01*
X328500Y434304D01*
Y435696D01*
X327967Y436983D01*
X326983Y437967D01*
X325696Y438500D01*
D02*
G37*
G36*
X354943Y430284D02*
X353551D01*
X352264Y429751D01*
X351280Y428767D01*
X350747Y427480D01*
Y426088D01*
X351280Y424802D01*
X352264Y423817D01*
X353551Y423284D01*
X354943D01*
X356229Y423817D01*
X357214Y424802D01*
X357747Y426088D01*
Y427480D01*
X357214Y428767D01*
X356229Y429751D01*
X354943Y430284D01*
D02*
G37*
G36*
X336743Y431780D02*
X335350D01*
X334064Y431247D01*
X333079Y430263D01*
X332547Y428976D01*
Y427584D01*
X333079Y426298D01*
X333346Y426031D01*
X333164D01*
X331878Y425498D01*
X330893Y424513D01*
X330360Y423227D01*
Y421834D01*
X330893Y420548D01*
X331878Y419563D01*
X333164Y419030D01*
X334557D01*
X335843Y419563D01*
X336828Y420548D01*
X337360Y421834D01*
Y423227D01*
X336828Y424513D01*
X336560Y424780D01*
X336743D01*
X338029Y425313D01*
X339014Y426298D01*
X339547Y427584D01*
Y428976D01*
X339014Y430263D01*
X338029Y431247D01*
X336743Y431780D01*
D02*
G37*
G36*
X244482Y423273D02*
X243090D01*
X241803Y422741D01*
X240819Y421756D01*
X240286Y420470D01*
Y419077D01*
X240819Y417791D01*
X241803Y416806D01*
X243090Y416273D01*
X244482D01*
X245769Y416806D01*
X246753Y417791D01*
X247286Y419077D01*
Y420470D01*
X246753Y421756D01*
X245769Y422741D01*
X244482Y423273D01*
D02*
G37*
G36*
X294057Y423262D02*
X292664D01*
X291378Y422729D01*
X290393Y421744D01*
X289860Y420458D01*
Y419066D01*
X290393Y417779D01*
X291378Y416795D01*
X292664Y416262D01*
X294057D01*
X295343Y416795D01*
X296328Y417779D01*
X296860Y419066D01*
Y420458D01*
X296328Y421744D01*
X295343Y422729D01*
X294057Y423262D01*
D02*
G37*
G36*
X231325Y427991D02*
X229932D01*
X228646Y427458D01*
X227661Y426474D01*
X227129Y425187D01*
Y423795D01*
X227535Y422814D01*
X227328D01*
X226042Y422281D01*
X225057Y421297D01*
X224524Y420010D01*
Y418618D01*
X225057Y417332D01*
X226042Y416347D01*
X227328Y415814D01*
X228721D01*
X230007Y416347D01*
X230992Y417332D01*
X231525Y418618D01*
Y420010D01*
X231118Y420991D01*
X231325D01*
X232611Y421524D01*
X233596Y422509D01*
X234128Y423795D01*
Y425187D01*
X233596Y426474D01*
X232611Y427458D01*
X231325Y427991D01*
D02*
G37*
G36*
X267537Y422121D02*
X266145D01*
X264858Y421588D01*
X263874Y420603D01*
X263341Y419317D01*
Y417924D01*
X263874Y416638D01*
X264858Y415653D01*
X266145Y415121D01*
X267537D01*
X268824Y415653D01*
X269808Y416638D01*
X270341Y417924D01*
Y419317D01*
X269808Y420603D01*
X268824Y421588D01*
X267537Y422121D01*
D02*
G37*
G36*
X281571Y428094D02*
X280178D01*
X278892Y427562D01*
X277907Y426577D01*
X277375Y425291D01*
Y423898D01*
X277907Y422612D01*
X278484Y422035D01*
X277846D01*
X276560Y421502D01*
X275575Y420518D01*
X275042Y419231D01*
Y417839D01*
X275575Y416552D01*
X276560Y415568D01*
X277846Y415035D01*
X279238D01*
X280525Y415568D01*
X281509Y416552D01*
X282042Y417839D01*
Y419231D01*
X281509Y420518D01*
X280932Y421095D01*
X281571D01*
X282857Y421627D01*
X283842Y422612D01*
X284375Y423898D01*
Y425291D01*
X283842Y426577D01*
X282857Y427562D01*
X281571Y428094D01*
D02*
G37*
G36*
X218518Y422000D02*
X217125D01*
X215839Y421467D01*
X214854Y420483D01*
X214321Y419196D01*
Y417804D01*
X214854Y416517D01*
X215839Y415533D01*
X217125Y415000D01*
X218518D01*
X219804Y415533D01*
X220789Y416517D01*
X221322Y417804D01*
Y419196D01*
X220789Y420483D01*
X219804Y421467D01*
X218518Y422000D01*
D02*
G37*
G36*
X186696Y418750D02*
X185304D01*
X184017Y418217D01*
X183033Y417233D01*
X182500Y415946D01*
Y414554D01*
X183033Y413267D01*
X184017Y412283D01*
X185304Y411750D01*
X186696D01*
X187983Y412283D01*
X188967Y413267D01*
X189500Y414554D01*
Y415946D01*
X188967Y417233D01*
X187983Y418217D01*
X186696Y418750D01*
D02*
G37*
G36*
X105446Y422000D02*
X104054D01*
X102767Y421467D01*
X101783Y420483D01*
X101250Y419196D01*
Y417804D01*
X101783Y416517D01*
X102767Y415533D01*
X103450Y415250D01*
X102767Y414967D01*
X101783Y413983D01*
X101250Y412696D01*
Y411304D01*
X101783Y410017D01*
X102767Y409033D01*
X104054Y408500D01*
X105446D01*
X106733Y409033D01*
X107717Y410017D01*
X108250Y411304D01*
Y412696D01*
X107717Y413983D01*
X106733Y414967D01*
X106050Y415250D01*
X106733Y415533D01*
X107717Y416517D01*
X108250Y417804D01*
Y419196D01*
X107717Y420483D01*
X106733Y421467D01*
X105446Y422000D01*
D02*
G37*
G36*
X305696Y411863D02*
X304304D01*
X303017Y411330D01*
X302033Y410346D01*
X301500Y409059D01*
Y407667D01*
X302033Y406381D01*
X303017Y405396D01*
X304304Y404863D01*
X305696D01*
X306983Y405396D01*
X307967Y406381D01*
X308500Y407667D01*
Y409059D01*
X307967Y410346D01*
X306983Y411330D01*
X305696Y411863D01*
D02*
G37*
G36*
X82382Y411256D02*
X80990D01*
X79703Y410724D01*
X78719Y409739D01*
X78186Y408453D01*
Y407060D01*
X78719Y405774D01*
X79703Y404789D01*
X80990Y404256D01*
X82382D01*
X83668Y404789D01*
X84653Y405774D01*
X85186Y407060D01*
Y408453D01*
X84653Y409739D01*
X83668Y410724D01*
X82382Y411256D01*
D02*
G37*
G36*
X37683Y411166D02*
X36291D01*
X35004Y410633D01*
X34019Y409648D01*
X33487Y408362D01*
Y406969D01*
X34019Y405683D01*
X35004Y404698D01*
X36291Y404166D01*
X37683D01*
X38969Y404698D01*
X39954Y405683D01*
X40487Y406969D01*
Y408362D01*
X39954Y409648D01*
X38969Y410633D01*
X37683Y411166D01*
D02*
G37*
G36*
X343268Y406130D02*
X341876D01*
X340589Y405597D01*
X339605Y404612D01*
X339346Y403986D01*
X339160Y404435D01*
X338175Y405420D01*
X336889Y405952D01*
X335496D01*
X334210Y405420D01*
X333225Y404435D01*
X332693Y403149D01*
Y401756D01*
X333225Y400470D01*
X334210Y399485D01*
X334531Y399352D01*
X333629Y398450D01*
X333096Y397163D01*
Y395771D01*
X333629Y394485D01*
X334613Y393500D01*
X335900Y392967D01*
X337292D01*
X338579Y393500D01*
X339563Y394485D01*
X340096Y395771D01*
Y397163D01*
X339563Y398450D01*
X338579Y399434D01*
X338257Y399567D01*
X339160Y400470D01*
X339419Y401096D01*
X339605Y400647D01*
X340589Y399662D01*
X341876Y399130D01*
X343268D01*
X344554Y399662D01*
X345539Y400647D01*
X346072Y401933D01*
Y403326D01*
X345539Y404612D01*
X344554Y405597D01*
X343268Y406130D01*
D02*
G37*
G36*
X113877Y407329D02*
X112485D01*
X111199Y406796D01*
X110214Y405811D01*
X109681Y404525D01*
Y403133D01*
X110214Y401846D01*
X111199Y400862D01*
X112485Y400329D01*
X113877D01*
X115164Y400862D01*
X116149Y401846D01*
X116681Y403133D01*
Y404525D01*
X116149Y405811D01*
X115164Y406796D01*
X113877Y407329D01*
D02*
G37*
G36*
X285696Y393500D02*
X284304D01*
X283017Y392967D01*
X282033Y391983D01*
X281500Y390696D01*
Y389304D01*
X282033Y388017D01*
X283017Y387033D01*
X284304Y386500D01*
X285696D01*
X286983Y387033D01*
X287967Y388017D01*
X288500Y389304D01*
Y390696D01*
X287967Y391983D01*
X286983Y392967D01*
X285696Y393500D01*
D02*
G37*
G36*
X215946Y386178D02*
X214554D01*
X213267Y385645D01*
X212283Y384661D01*
X211750Y383374D01*
Y381982D01*
X212283Y380696D01*
X213267Y379711D01*
X214554Y379178D01*
X215946D01*
X217233Y379711D01*
X218217Y380696D01*
X218750Y381982D01*
Y383374D01*
X218217Y384661D01*
X217233Y385645D01*
X215946Y386178D01*
D02*
G37*
G36*
X103786Y384034D02*
X102394D01*
X101107Y383502D01*
X100123Y382517D01*
X99590Y381231D01*
Y379838D01*
X100123Y378552D01*
X101107Y377567D01*
X102394Y377034D01*
X103786D01*
X105072Y377567D01*
X106057Y378552D01*
X106590Y379838D01*
Y381231D01*
X106057Y382517D01*
X105072Y383502D01*
X103786Y384034D01*
D02*
G37*
G36*
X225832Y383997D02*
X224439D01*
X223153Y383464D01*
X222168Y382480D01*
X221635Y381193D01*
Y379801D01*
X222168Y378515D01*
X223153Y377530D01*
X224439Y376997D01*
X225832D01*
X227118Y377530D01*
X228102Y378515D01*
X228635Y379801D01*
Y381193D01*
X228102Y382480D01*
X227118Y383464D01*
X225832Y383997D01*
D02*
G37*
G36*
X86204Y383113D02*
X84812D01*
X83525Y382580D01*
X82541Y381595D01*
X82008Y380309D01*
Y378916D01*
X82541Y377630D01*
X83525Y376645D01*
X84812Y376113D01*
X86204D01*
X87491Y376645D01*
X88475Y377630D01*
X89008Y378916D01*
Y380309D01*
X88475Y381595D01*
X87491Y382580D01*
X86204Y383113D01*
D02*
G37*
G36*
X325707Y378500D02*
X324315D01*
X323028Y377967D01*
X322044Y376983D01*
X321511Y375696D01*
Y374304D01*
X322044Y373017D01*
X323028Y372033D01*
X324315Y371500D01*
X325707D01*
X326993Y372033D01*
X327978Y373017D01*
X328511Y374304D01*
Y375696D01*
X327978Y376983D01*
X326993Y377967D01*
X325707Y378500D01*
D02*
G37*
G36*
X216058Y377081D02*
X214665D01*
X213379Y376548D01*
X212394Y375563D01*
X211862Y374277D01*
Y372884D01*
X212394Y371598D01*
X213379Y370614D01*
X214665Y370081D01*
X216058D01*
X217344Y370614D01*
X218329Y371598D01*
X218862Y372884D01*
Y374277D01*
X218329Y375563D01*
X217344Y376548D01*
X216058Y377081D01*
D02*
G37*
G36*
X94445Y374751D02*
X93053D01*
X91767Y374218D01*
X90782Y373233D01*
X90249Y371947D01*
Y370555D01*
X90782Y369268D01*
X91767Y368284D01*
X93053Y367751D01*
X94445D01*
X95732Y368284D01*
X96716Y369268D01*
X97249Y370555D01*
Y371947D01*
X96716Y373233D01*
X95732Y374218D01*
X94445Y374751D01*
D02*
G37*
G36*
X286701Y379826D02*
X285309D01*
X284023Y379293D01*
X283038Y378309D01*
X282505Y377022D01*
Y375630D01*
X283038Y374343D01*
X284023Y373359D01*
X285309Y372826D01*
X286701D01*
X286718Y372833D01*
X286434Y372549D01*
X285901Y371263D01*
Y369871D01*
X286434Y368584D01*
X287419Y367600D01*
X288705Y367067D01*
X290098D01*
X291384Y367600D01*
X292369Y368584D01*
X292901Y369871D01*
Y371263D01*
X292369Y372549D01*
X291384Y373534D01*
X290098Y374067D01*
X288705D01*
X288689Y374060D01*
X288972Y374343D01*
X289505Y375630D01*
Y377022D01*
X288972Y378309D01*
X287988Y379293D01*
X286701Y379826D01*
D02*
G37*
G36*
X149534Y372403D02*
X148142D01*
X146855Y371870D01*
X145871Y370886D01*
X145338Y369599D01*
Y368207D01*
X145871Y366921D01*
X146855Y365936D01*
X148142Y365403D01*
X149534D01*
X150820Y365936D01*
X151805Y366921D01*
X152338Y368207D01*
Y369599D01*
X151805Y370886D01*
X150820Y371870D01*
X149534Y372403D01*
D02*
G37*
G36*
X324179Y371266D02*
X322786D01*
X321500Y370733D01*
X320515Y369749D01*
X319982Y368463D01*
Y367070D01*
X320515Y365784D01*
X321500Y364799D01*
X322786Y364266D01*
X324179D01*
X325465Y364799D01*
X326450Y365784D01*
X326982Y367070D01*
Y368463D01*
X326450Y369749D01*
X325465Y370733D01*
X324179Y371266D01*
D02*
G37*
G36*
X217009Y370016D02*
X215616D01*
X214330Y369483D01*
X213345Y368499D01*
X212812Y367212D01*
Y365820D01*
X213345Y364534D01*
X214330Y363549D01*
X215616Y363016D01*
X217009D01*
X218295Y363549D01*
X219280Y364534D01*
X219812Y365820D01*
Y367212D01*
X219280Y368499D01*
X218295Y369483D01*
X217009Y370016D01*
D02*
G37*
G36*
X292439Y363867D02*
X291047D01*
X289761Y363334D01*
X288776Y362350D01*
X288732Y362244D01*
X288009Y362967D01*
X286723Y363500D01*
X285331D01*
X284044Y362967D01*
X283060Y361983D01*
X282527Y360696D01*
Y359304D01*
X283060Y358017D01*
X284044Y357033D01*
X285331Y356500D01*
X286723D01*
X288009Y357033D01*
X288994Y358017D01*
X289037Y358123D01*
X289761Y357400D01*
X291047Y356867D01*
X292439D01*
X293726Y357400D01*
X294710Y358384D01*
X295243Y359671D01*
Y361063D01*
X294710Y362350D01*
X293726Y363334D01*
X292439Y363867D01*
D02*
G37*
G36*
X126779Y360168D02*
X125387D01*
X124101Y359635D01*
X123116Y358650D01*
X122583Y357364D01*
Y355971D01*
X123116Y354685D01*
X124101Y353700D01*
X125387Y353168D01*
X126779D01*
X128066Y353700D01*
X129051Y354685D01*
X129583Y355971D01*
Y357364D01*
X129051Y358650D01*
X128066Y359635D01*
X126779Y360168D01*
D02*
G37*
G36*
X334348Y365379D02*
X332956D01*
X331669Y364846D01*
X330685Y363862D01*
X330152Y362575D01*
Y361183D01*
X330685Y359897D01*
X331669Y358912D01*
X332605Y358525D01*
X332589Y358509D01*
X332056Y357222D01*
Y355830D01*
X332589Y354543D01*
X333573Y353559D01*
X334860Y353026D01*
X336252D01*
X337539Y353559D01*
X338523Y354543D01*
X339056Y355830D01*
Y357222D01*
X338523Y358509D01*
X337539Y359493D01*
X336603Y359881D01*
X336619Y359897D01*
X337152Y361183D01*
Y362575D01*
X336619Y363862D01*
X335634Y364846D01*
X334348Y365379D01*
D02*
G37*
G36*
X141169Y358500D02*
X139777D01*
X138490Y357967D01*
X137506Y356983D01*
X136973Y355696D01*
Y354304D01*
X137506Y353017D01*
X138490Y352033D01*
X139777Y351500D01*
X141169D01*
X142456Y352033D01*
X143440Y353017D01*
X143973Y354304D01*
Y355696D01*
X143440Y356983D01*
X142456Y357967D01*
X141169Y358500D01*
D02*
G37*
G36*
X276436Y356170D02*
X275044D01*
X273758Y355637D01*
X272773Y354652D01*
X272240Y353366D01*
Y351974D01*
X272773Y350687D01*
X273758Y349703D01*
X275044Y349170D01*
X276436D01*
X277723Y349703D01*
X278707Y350687D01*
X279240Y351974D01*
Y353366D01*
X278707Y354652D01*
X277723Y355637D01*
X276436Y356170D01*
D02*
G37*
G36*
X183859Y345381D02*
X181870D01*
X180033Y344620D01*
X178626Y343213D01*
X177865Y341376D01*
Y339386D01*
X178626Y337549D01*
X180033Y336142D01*
X181870Y335381D01*
X183859D01*
X185697Y336142D01*
X187104Y337549D01*
X187865Y339386D01*
Y341376D01*
X187104Y343213D01*
X185697Y344620D01*
X183859Y345381D01*
D02*
G37*
G36*
X199985Y345337D02*
X197995D01*
X196158Y344576D01*
X194751Y343170D01*
X193990Y341332D01*
Y339343D01*
X194751Y337505D01*
X196158Y336098D01*
X197995Y335337D01*
X199985D01*
X201822Y336098D01*
X203229Y337505D01*
X203990Y339343D01*
Y341332D01*
X203229Y343170D01*
X201822Y344576D01*
X199985Y345337D01*
D02*
G37*
G36*
X214318Y334200D02*
X212926D01*
X211639Y333667D01*
X210655Y332682D01*
X210122Y331396D01*
Y330004D01*
X210655Y328717D01*
X211639Y327733D01*
X212926Y327200D01*
X214318D01*
X215604Y327733D01*
X216589Y328717D01*
X217122Y330004D01*
Y331396D01*
X216589Y332682D01*
X215604Y333667D01*
X214318Y334200D01*
D02*
G37*
G36*
X353405Y332975D02*
X351415D01*
X349578Y332214D01*
X348171Y330807D01*
X347410Y328970D01*
Y326981D01*
X348171Y325143D01*
X349578Y323736D01*
X351415Y322975D01*
X353405D01*
X355242Y323736D01*
X356649Y325143D01*
X357410Y326981D01*
Y328970D01*
X356649Y330807D01*
X355242Y332214D01*
X353405Y332975D01*
D02*
G37*
G36*
X317215Y328864D02*
X315822D01*
X314536Y328331D01*
X313551Y327347D01*
X313018Y326060D01*
Y324668D01*
X313551Y323382D01*
X314536Y322397D01*
X315822Y321864D01*
X317215D01*
X318501Y322397D01*
X319486Y323382D01*
X320018Y324668D01*
Y326060D01*
X319486Y327347D01*
X318501Y328331D01*
X317215Y328864D01*
D02*
G37*
G36*
X101811Y327151D02*
X100419D01*
X99132Y326618D01*
X98148Y325633D01*
X97615Y324347D01*
Y322954D01*
X98148Y321668D01*
X99132Y320683D01*
X100419Y320151D01*
X101811D01*
X103097Y320683D01*
X104082Y321668D01*
X104615Y322954D01*
Y324347D01*
X104082Y325633D01*
X103097Y326618D01*
X101811Y327151D01*
D02*
G37*
G36*
X164327Y322513D02*
X162934D01*
X161648Y321980D01*
X160663Y320995D01*
X160131Y319709D01*
Y318317D01*
X160663Y317030D01*
X161648Y316046D01*
X162934Y315513D01*
X164327D01*
X165613Y316046D01*
X166598Y317030D01*
X167131Y318317D01*
Y319709D01*
X166598Y320995D01*
X165613Y321980D01*
X164327Y322513D01*
D02*
G37*
G36*
X320478Y321086D02*
X319086D01*
X317799Y320554D01*
X316815Y319569D01*
X316282Y318283D01*
Y316890D01*
X316815Y315604D01*
X317799Y314619D01*
X319086Y314086D01*
X320478D01*
X321764Y314619D01*
X322749Y315604D01*
X323282Y316890D01*
Y318283D01*
X322749Y319569D01*
X321764Y320554D01*
X320478Y321086D01*
D02*
G37*
G36*
X242675Y318741D02*
X241282D01*
X239996Y318209D01*
X239011Y317224D01*
X238478Y315938D01*
Y314545D01*
X239011Y313259D01*
X239996Y312274D01*
X241282Y311742D01*
X242675D01*
X243961Y312274D01*
X244946Y313259D01*
X245478Y314545D01*
Y315938D01*
X244946Y317224D01*
X243961Y318209D01*
X242675Y318741D01*
D02*
G37*
G36*
X330835Y315817D02*
X329442D01*
X328156Y315284D01*
X327171Y314299D01*
X326639Y313013D01*
Y311621D01*
X327171Y310334D01*
X328156Y309350D01*
X329442Y308817D01*
X330835D01*
X332121Y309350D01*
X333106Y310334D01*
X333639Y311621D01*
Y313013D01*
X333106Y314299D01*
X332121Y315284D01*
X330835Y315817D01*
D02*
G37*
G36*
X353584Y315865D02*
X351595D01*
X349757Y315104D01*
X348350Y313697D01*
X347589Y311860D01*
Y309871D01*
X348350Y308033D01*
X349757Y306626D01*
X351595Y305865D01*
X353584D01*
X355421Y306626D01*
X356828Y308033D01*
X357589Y309871D01*
Y311860D01*
X356828Y313697D01*
X355421Y315104D01*
X353584Y315865D01*
D02*
G37*
G36*
X146735Y312522D02*
X145342D01*
X144056Y311989D01*
X143071Y311005D01*
X142538Y309718D01*
Y308326D01*
X143071Y307040D01*
X144056Y306055D01*
X145342Y305522D01*
X146735D01*
X148021Y306055D01*
X149006Y307040D01*
X149538Y308326D01*
Y309718D01*
X149006Y311005D01*
X148021Y311989D01*
X146735Y312522D01*
D02*
G37*
G36*
X126319D02*
X124927D01*
X123640Y311989D01*
X122656Y311005D01*
X122123Y309718D01*
Y308326D01*
X122656Y307040D01*
X123640Y306055D01*
X124927Y305522D01*
X126319D01*
X127605Y306055D01*
X128590Y307040D01*
X129123Y308326D01*
Y309718D01*
X128590Y311005D01*
X127605Y311989D01*
X126319Y312522D01*
D02*
G37*
G36*
X110247Y312347D02*
X108855D01*
X107568Y311814D01*
X106584Y310830D01*
X106051Y309543D01*
Y308151D01*
X106584Y306865D01*
X107568Y305880D01*
X108855Y305347D01*
X110247D01*
X111533Y305880D01*
X112518Y306865D01*
X113051Y308151D01*
Y309543D01*
X112518Y310830D01*
X111533Y311814D01*
X110247Y312347D01*
D02*
G37*
G36*
X259072Y309511D02*
X257680D01*
X256393Y308978D01*
X255409Y307994D01*
X254876Y306707D01*
Y305315D01*
X255409Y304028D01*
X256393Y303044D01*
X257680Y302511D01*
X259072D01*
X260359Y303044D01*
X261343Y304028D01*
X261876Y305315D01*
Y306707D01*
X261343Y307994D01*
X260359Y308978D01*
X259072Y309511D01*
D02*
G37*
G36*
X305696Y308500D02*
X304304D01*
X303017Y307967D01*
X302033Y306983D01*
X301500Y305696D01*
Y304304D01*
X302033Y303017D01*
X303017Y302033D01*
X304304Y301500D01*
X305696D01*
X306983Y302033D01*
X307967Y303017D01*
X308500Y304304D01*
Y305696D01*
X307967Y306983D01*
X306983Y307967D01*
X305696Y308500D01*
D02*
G37*
G36*
X70830Y307509D02*
X68642D01*
X66621Y306671D01*
X65074Y305124D01*
X64236Y303103D01*
Y300915D01*
X65074Y298893D01*
X66621Y297346D01*
X68642Y296509D01*
X70830D01*
X72852Y297346D01*
X74399Y298893D01*
X75236Y300915D01*
Y303103D01*
X74399Y305124D01*
X72852Y306671D01*
X70830Y307509D01*
D02*
G37*
G36*
X250446Y303500D02*
X249054D01*
X247767Y302967D01*
X246783Y301983D01*
X246250Y300696D01*
Y299304D01*
X246783Y298017D01*
X247767Y297033D01*
X249054Y296500D01*
X250446D01*
X251733Y297033D01*
X252717Y298017D01*
X253250Y299304D01*
Y300696D01*
X252717Y301983D01*
X251733Y302967D01*
X250446Y303500D01*
D02*
G37*
G36*
X195995Y302874D02*
X194006D01*
X192168Y302113D01*
X190761Y300706D01*
X190000Y298869D01*
Y296879D01*
X190761Y295042D01*
X192168Y293635D01*
X194006Y292874D01*
X195995D01*
X197832Y293635D01*
X199239Y295042D01*
X200000Y296879D01*
Y298869D01*
X199239Y300706D01*
X197832Y302113D01*
X195995Y302874D01*
D02*
G37*
G36*
X249040Y294443D02*
X247648D01*
X246362Y293910D01*
X245377Y292926D01*
X244844Y291639D01*
Y290247D01*
X245377Y288960D01*
X246362Y287976D01*
X247648Y287443D01*
X249040D01*
X250327Y287976D01*
X251311Y288960D01*
X251844Y290247D01*
Y291639D01*
X251311Y292926D01*
X250327Y293910D01*
X249040Y294443D01*
D02*
G37*
G36*
X330317Y286580D02*
X328925D01*
X327638Y286047D01*
X326654Y285062D01*
X326121Y283776D01*
Y282383D01*
X326654Y281097D01*
X327638Y280112D01*
X328925Y279580D01*
X330317D01*
X331603Y280112D01*
X332588Y281097D01*
X333121Y282383D01*
Y283776D01*
X332588Y285062D01*
X331603Y286047D01*
X330317Y286580D01*
D02*
G37*
G36*
X307946Y285818D02*
X306554D01*
X305267Y285285D01*
X304283Y284301D01*
X303750Y283014D01*
Y281622D01*
X304283Y280336D01*
X305267Y279351D01*
X306554Y278818D01*
X307946D01*
X309233Y279351D01*
X310217Y280336D01*
X310750Y281622D01*
Y283014D01*
X310217Y284301D01*
X309233Y285285D01*
X307946Y285818D01*
D02*
G37*
G36*
X195951Y286749D02*
X193962D01*
X192124Y285988D01*
X190717Y284581D01*
X189956Y282743D01*
Y280754D01*
X190717Y278917D01*
X192124Y277510D01*
X193962Y276749D01*
X195951D01*
X197788Y277510D01*
X199195Y278917D01*
X199956Y280754D01*
Y282743D01*
X199195Y284581D01*
X197788Y285988D01*
X195951Y286749D01*
D02*
G37*
G36*
X292067Y283185D02*
X290675D01*
X289389Y282652D01*
X288404Y281667D01*
X287871Y280381D01*
Y278988D01*
X288404Y277702D01*
X289389Y276717D01*
X290675Y276185D01*
X292067D01*
X293354Y276717D01*
X294338Y277702D01*
X294871Y278988D01*
Y280381D01*
X294338Y281667D01*
X293354Y282652D01*
X292067Y283185D01*
D02*
G37*
G36*
X139479Y281690D02*
X138087D01*
X136800Y281157D01*
X135816Y280173D01*
X135283Y278886D01*
Y277494D01*
X135816Y276207D01*
X136800Y275223D01*
X138087Y274690D01*
X139479D01*
X140765Y275223D01*
X141750Y276207D01*
X142283Y277494D01*
Y278886D01*
X141750Y280173D01*
X140765Y281157D01*
X139479Y281690D01*
D02*
G37*
G36*
X353464Y284689D02*
X351474D01*
X349637Y283928D01*
X348230Y282521D01*
X347469Y280683D01*
Y278694D01*
X348230Y276857D01*
X349637Y275450D01*
X351474Y274689D01*
X353464D01*
X355301Y275450D01*
X356708Y276857D01*
X357469Y278694D01*
Y280683D01*
X356708Y282521D01*
X355301Y283928D01*
X353464Y284689D01*
D02*
G37*
G36*
X122856Y275063D02*
X121463D01*
X120177Y274530D01*
X119192Y273545D01*
X118659Y272259D01*
Y270866D01*
X119192Y269580D01*
X120177Y268595D01*
X121463Y268063D01*
X122856D01*
X124142Y268595D01*
X125127Y269580D01*
X125659Y270866D01*
Y272259D01*
X125127Y273545D01*
X124142Y274530D01*
X122856Y275063D01*
D02*
G37*
G36*
X250711Y273449D02*
X249319D01*
X248032Y272916D01*
X247048Y271932D01*
X246515Y270645D01*
Y269253D01*
X247048Y267966D01*
X248032Y266982D01*
X249319Y266449D01*
X250711D01*
X251997Y266982D01*
X252982Y267966D01*
X253515Y269253D01*
Y270645D01*
X252982Y271932D01*
X251997Y272916D01*
X250711Y273449D01*
D02*
G37*
G36*
X137517Y265129D02*
X136124D01*
X134838Y264596D01*
X133854Y263612D01*
X133321Y262325D01*
Y260933D01*
X133854Y259646D01*
X134838Y258662D01*
X136124Y258129D01*
X137517D01*
X138803Y258662D01*
X139788Y259646D01*
X140321Y260933D01*
Y262325D01*
X139788Y263612D01*
X138803Y264596D01*
X137517Y265129D01*
D02*
G37*
G36*
X196117Y263343D02*
X194725D01*
X193439Y262810D01*
X192454Y261825D01*
X191921Y260539D01*
Y259147D01*
X192454Y257860D01*
X193439Y256876D01*
X194725Y256343D01*
X196117D01*
X197404Y256876D01*
X198389Y257860D01*
X198921Y259147D01*
Y260539D01*
X198389Y261825D01*
X197404Y262810D01*
X196117Y263343D01*
D02*
G37*
G36*
X27726Y274583D02*
X24574D01*
X21483Y273969D01*
X18571Y272763D01*
X15951Y271012D01*
X13722Y268783D01*
X11971Y266162D01*
X10765Y263251D01*
X10150Y260159D01*
Y257008D01*
X10765Y253916D01*
X11971Y251005D01*
X13722Y248384D01*
X15951Y246155D01*
X18571Y244405D01*
X21483Y243198D01*
X24574Y242584D01*
X27726D01*
X30817Y243198D01*
X33729Y244405D01*
X36349Y246155D01*
X38578Y248384D01*
X40329Y251005D01*
X41535Y253916D01*
X42150Y257008D01*
Y260159D01*
X41535Y263251D01*
X40329Y266162D01*
X38578Y268783D01*
X36349Y271012D01*
X33729Y272763D01*
X30817Y273969D01*
X27726Y274583D01*
D02*
G37*
G36*
X238601Y244730D02*
X237208D01*
X235922Y244197D01*
X234937Y243213D01*
X234404Y241926D01*
Y240534D01*
X234937Y239247D01*
X235922Y238263D01*
X237104Y237773D01*
X237084D01*
X235798Y237240D01*
X234813Y236256D01*
X234280Y234969D01*
Y233577D01*
X234813Y232290D01*
X235798Y231306D01*
X237084Y230773D01*
X238476D01*
X239763Y231306D01*
X240747Y232290D01*
X241280Y233577D01*
Y234969D01*
X240747Y236256D01*
X239763Y237240D01*
X238581Y237730D01*
X238601D01*
X239887Y238263D01*
X240872Y239247D01*
X241361Y240429D01*
Y240285D01*
X241894Y238999D01*
X242878Y238014D01*
X243125Y237912D01*
X243003Y237861D01*
X242018Y236877D01*
X241485Y235590D01*
Y234198D01*
X242018Y232912D01*
X243003Y231927D01*
X244289Y231394D01*
X245681D01*
X246968Y231927D01*
X247952Y232912D01*
X248485Y234198D01*
Y235590D01*
X247952Y236877D01*
X246968Y237861D01*
X246721Y237964D01*
X246844Y238014D01*
X247828Y238999D01*
X248361Y240285D01*
Y241678D01*
X247828Y242964D01*
X246844Y243949D01*
X245557Y244481D01*
X244165D01*
X242878Y243949D01*
X241894Y242964D01*
X241404Y241782D01*
Y241926D01*
X240872Y243213D01*
X239887Y244197D01*
X238601Y244730D01*
D02*
G37*
G36*
X307233Y238303D02*
X305244D01*
X303406Y237542D01*
X302000Y236135D01*
X301238Y234298D01*
Y232309D01*
X302000Y230471D01*
X303406Y229064D01*
X305244Y228303D01*
X307233D01*
X309071Y229064D01*
X310477Y230471D01*
X311238Y232309D01*
Y234298D01*
X310477Y236135D01*
X309071Y237542D01*
X307233Y238303D01*
D02*
G37*
G36*
X309877Y224953D02*
X308485D01*
X307199Y224421D01*
X306214Y223436D01*
X305681Y222150D01*
Y220757D01*
X306214Y219471D01*
X307199Y218486D01*
X308485Y217953D01*
X309877D01*
X311164Y218486D01*
X312148Y219471D01*
X312681Y220757D01*
Y222150D01*
X312148Y223436D01*
X311164Y224421D01*
X309877Y224953D01*
D02*
G37*
G36*
X221628Y219526D02*
X220236D01*
X218949Y218993D01*
X217965Y218009D01*
X217432Y216722D01*
Y215330D01*
X217965Y214044D01*
X218949Y213059D01*
X220236Y212526D01*
X221628D01*
X222914Y213059D01*
X223899Y214044D01*
X224432Y215330D01*
Y216722D01*
X223899Y218009D01*
X222914Y218993D01*
X221628Y219526D01*
D02*
G37*
G36*
X187433Y217163D02*
X186041D01*
X184754Y216630D01*
X183770Y215645D01*
X183237Y214359D01*
Y212967D01*
X183770Y211680D01*
X184754Y210696D01*
X186041Y210163D01*
X187433D01*
X188720Y210696D01*
X189704Y211680D01*
X190237Y212967D01*
Y214359D01*
X189704Y215645D01*
X188720Y216630D01*
X187433Y217163D01*
D02*
G37*
G36*
X259955Y214000D02*
X258563D01*
X257276Y213467D01*
X256292Y212483D01*
X255759Y211196D01*
Y209804D01*
X256292Y208517D01*
X257276Y207533D01*
X258563Y207000D01*
X259955D01*
X261241Y207533D01*
X262226Y208517D01*
X262759Y209804D01*
Y211196D01*
X262226Y212483D01*
X261241Y213467D01*
X259955Y214000D01*
D02*
G37*
G36*
X228210Y226854D02*
X226817D01*
X225531Y226321D01*
X224547Y225336D01*
X224014Y224050D01*
Y222658D01*
X224547Y221371D01*
X225531Y220387D01*
X226406Y220024D01*
X226267Y219967D01*
X225283Y218983D01*
X224750Y217696D01*
Y216304D01*
X225283Y215017D01*
X226267Y214033D01*
X226950Y213750D01*
X226267Y213467D01*
X225283Y212483D01*
X224750Y211196D01*
Y209804D01*
X225283Y208517D01*
X226267Y207533D01*
X227554Y207000D01*
X228946D01*
X230233Y207533D01*
X231217Y208517D01*
X231750Y209804D01*
Y211196D01*
X231217Y212483D01*
X230233Y213467D01*
X229550Y213750D01*
X230233Y214033D01*
X231217Y215017D01*
X231750Y216304D01*
Y217696D01*
X231217Y218983D01*
X230233Y219967D01*
X229358Y220329D01*
X229496Y220387D01*
X230481Y221371D01*
X231014Y222658D01*
Y224050D01*
X230481Y225336D01*
X229496Y226321D01*
X228210Y226854D01*
D02*
G37*
G36*
X196694Y213500D02*
X195302D01*
X194016Y212967D01*
X193031Y211983D01*
X192498Y210696D01*
Y209304D01*
X193031Y208017D01*
X194016Y207033D01*
X195302Y206500D01*
X196694D01*
X197981Y207033D01*
X198965Y208017D01*
X199498Y209304D01*
Y210696D01*
X198965Y211983D01*
X197981Y212967D01*
X196694Y213500D01*
D02*
G37*
G36*
X151670Y213294D02*
X150278D01*
X148991Y212761D01*
X148007Y211777D01*
X147474Y210491D01*
Y209098D01*
X148007Y207812D01*
X148991Y206827D01*
X150278Y206294D01*
X151670D01*
X152957Y206827D01*
X153941Y207812D01*
X154474Y209098D01*
Y210491D01*
X153941Y211777D01*
X152957Y212761D01*
X151670Y213294D01*
D02*
G37*
G36*
X58502Y216142D02*
X56513D01*
X54675Y215381D01*
X53269Y213975D01*
X52508Y212137D01*
Y210148D01*
X53269Y208310D01*
X54675Y206904D01*
X56513Y206142D01*
X58502D01*
X60340Y206904D01*
X61746Y208310D01*
X62508Y210148D01*
Y212137D01*
X61746Y213975D01*
X60340Y215381D01*
X58502Y216142D01*
D02*
G37*
G36*
X108696Y207500D02*
X107304D01*
X106017Y206967D01*
X105033Y205983D01*
X104500Y204696D01*
Y203304D01*
X105033Y202017D01*
X106017Y201033D01*
X107304Y200500D01*
X108696D01*
X109983Y201033D01*
X110967Y202017D01*
X111500Y203304D01*
Y204696D01*
X110967Y205983D01*
X109983Y206967D01*
X108696Y207500D01*
D02*
G37*
G36*
X105446Y201000D02*
X104054D01*
X102767Y200467D01*
X101783Y199483D01*
X101500Y198800D01*
X101217Y199483D01*
X100233Y200467D01*
X98946Y201000D01*
X97554D01*
X96267Y200467D01*
X95283Y199483D01*
X94750Y198196D01*
Y196804D01*
X95283Y195517D01*
X96267Y194533D01*
X97554Y194000D01*
X98946D01*
X100233Y194533D01*
X101217Y195517D01*
X101500Y196200D01*
X101783Y195517D01*
X102767Y194533D01*
X104054Y194000D01*
X105446D01*
X106733Y194533D01*
X107717Y195517D01*
X108250Y196804D01*
Y198196D01*
X107717Y199483D01*
X106733Y200467D01*
X105446Y201000D01*
D02*
G37*
G36*
X199497Y203250D02*
X198503D01*
X197584Y202869D01*
X196881Y202166D01*
X196500Y201247D01*
Y200253D01*
X196881Y199334D01*
X197584Y198631D01*
X198503Y198250D01*
X199497D01*
X200416Y198631D01*
X201119Y199334D01*
X201500Y200253D01*
Y201247D01*
X201119Y202166D01*
X200416Y202869D01*
X199497Y203250D01*
D02*
G37*
G36*
X160497D02*
X159503D01*
X158584Y202869D01*
X157881Y202166D01*
X157500Y201247D01*
Y200253D01*
X157881Y199334D01*
X158584Y198631D01*
X159503Y198250D01*
X160497D01*
X161416Y198631D01*
X162119Y199334D01*
X162500Y200253D01*
Y201247D01*
X162119Y202166D01*
X161416Y202869D01*
X160497Y203250D01*
D02*
G37*
G36*
X216194Y203110D02*
X215200D01*
X214281Y202729D01*
X213578Y202026D01*
X213197Y201107D01*
Y200113D01*
X213578Y199194D01*
X214281Y198491D01*
X215200Y198110D01*
X216194D01*
X217113Y198491D01*
X217817Y199194D01*
X218197Y200113D01*
Y201107D01*
X217817Y202026D01*
X217113Y202729D01*
X216194Y203110D01*
D02*
G37*
G36*
X223750Y202957D02*
X222756D01*
X221837Y202577D01*
X221134Y201873D01*
X220753Y200955D01*
Y199960D01*
X221134Y199041D01*
X221837Y198338D01*
X222756Y197957D01*
X223750D01*
X224669Y198338D01*
X225372Y199041D01*
X225753Y199960D01*
Y200955D01*
X225372Y201873D01*
X224669Y202577D01*
X223750Y202957D01*
D02*
G37*
G36*
X208514Y202760D02*
X207520D01*
X206601Y202380D01*
X205898Y201677D01*
X205517Y200758D01*
Y199763D01*
X205898Y198844D01*
X206601Y198141D01*
X207520Y197760D01*
X208514D01*
X209433Y198141D01*
X210136Y198844D01*
X210517Y199763D01*
Y200758D01*
X210136Y201677D01*
X209433Y202380D01*
X208514Y202760D01*
D02*
G37*
G36*
X115696Y203486D02*
X114304D01*
X113017Y202953D01*
X112033Y201968D01*
X111500Y200682D01*
Y199290D01*
X112033Y198003D01*
X113017Y197019D01*
X114304Y196486D01*
X115696D01*
X116983Y197019D01*
X117967Y198003D01*
X118500Y199290D01*
Y200682D01*
X117967Y201968D01*
X116983Y202953D01*
X115696Y203486D01*
D02*
G37*
G36*
X259838Y202801D02*
X258445D01*
X257159Y202268D01*
X256174Y201283D01*
X255641Y199997D01*
Y198605D01*
X256174Y197318D01*
X257159Y196334D01*
X258445Y195801D01*
X259838D01*
X261124Y196334D01*
X262109Y197318D01*
X262642Y198605D01*
Y199997D01*
X262109Y201283D01*
X261124Y202268D01*
X259838Y202801D01*
D02*
G37*
G36*
X180050Y200238D02*
X179055D01*
X178137Y199857D01*
X177433Y199154D01*
X177053Y198235D01*
Y197240D01*
X177433Y196322D01*
X178137Y195618D01*
X179055Y195238D01*
X180050D01*
X180969Y195618D01*
X181672Y196322D01*
X182053Y197240D01*
Y198235D01*
X181672Y199154D01*
X180969Y199857D01*
X180050Y200238D01*
D02*
G37*
G36*
X246950Y198828D02*
X245956D01*
X245037Y198447D01*
X244334Y197744D01*
X243953Y196825D01*
Y195831D01*
X244334Y194912D01*
X245037Y194209D01*
X245956Y193828D01*
X246950D01*
X247869Y194209D01*
X248572Y194912D01*
X248953Y195831D01*
Y196825D01*
X248572Y197744D01*
X247869Y198447D01*
X246950Y198828D01*
D02*
G37*
G36*
X129124Y198591D02*
X128129D01*
X127210Y198210D01*
X126507Y197507D01*
X126126Y196588D01*
Y195593D01*
X126507Y194674D01*
X127210Y193971D01*
X128129Y193591D01*
X129124D01*
X130042Y193971D01*
X130746Y194674D01*
X131126Y195593D01*
Y196588D01*
X130746Y197507D01*
X130042Y198210D01*
X129124Y198591D01*
D02*
G37*
G36*
X58149Y197899D02*
X56757D01*
X55470Y197366D01*
X54486Y196381D01*
X53953Y195095D01*
Y193703D01*
X54486Y192416D01*
X55041Y191861D01*
X54737Y191987D01*
X53344D01*
X52058Y191454D01*
X51074Y190469D01*
X50541Y189183D01*
Y187791D01*
X51074Y186504D01*
X51614Y185964D01*
X51157Y185775D01*
X50173Y184790D01*
X49640Y183504D01*
Y182111D01*
X50173Y180825D01*
X51157Y179841D01*
X52443Y179308D01*
X53836D01*
X55122Y179841D01*
X55245Y179963D01*
X55634Y179025D01*
X56618Y178040D01*
X56859Y177940D01*
X56185Y177266D01*
X55652Y175980D01*
Y174587D01*
X56185Y173301D01*
X57170Y172316D01*
X58456Y171783D01*
X59848D01*
X61135Y172316D01*
X62119Y173301D01*
X62652Y174587D01*
Y175980D01*
X62119Y177266D01*
X61135Y178251D01*
X60894Y178350D01*
X61568Y179025D01*
X62101Y180311D01*
Y181703D01*
X61568Y182990D01*
X60584Y183974D01*
X59297Y184507D01*
X57905D01*
X56618Y183974D01*
X56496Y183852D01*
X56107Y184790D01*
X55567Y185331D01*
X56023Y185520D01*
X57008Y186504D01*
X57541Y187791D01*
Y189183D01*
X57008Y190469D01*
X56452Y191025D01*
X56757Y190899D01*
X58149D01*
X59436Y191432D01*
X60420Y192416D01*
X60953Y193703D01*
Y195095D01*
X60420Y196381D01*
X59436Y197366D01*
X58149Y197899D01*
D02*
G37*
G36*
X220944Y195819D02*
X219949D01*
X219030Y195438D01*
X218327Y194735D01*
X217946Y193816D01*
Y192822D01*
X218327Y191903D01*
X219030Y191199D01*
X219949Y190819D01*
X220944D01*
X221863Y191199D01*
X222566Y191903D01*
X222946Y192822D01*
Y193816D01*
X222566Y194735D01*
X221863Y195438D01*
X220944Y195819D01*
D02*
G37*
G36*
X155983Y194502D02*
X154989D01*
X154070Y194121D01*
X153367Y193418D01*
X152986Y192499D01*
Y191504D01*
X153367Y190586D01*
X154070Y189882D01*
X154989Y189502D01*
X155983D01*
X156902Y189882D01*
X157605Y190586D01*
X157986Y191504D01*
Y192499D01*
X157605Y193418D01*
X156902Y194121D01*
X155983Y194502D01*
D02*
G37*
G36*
X207984Y194494D02*
X206989D01*
X206070Y194113D01*
X205367Y193410D01*
X204987Y192491D01*
Y191497D01*
X205367Y190578D01*
X206070Y189874D01*
X206989Y189494D01*
X207984D01*
X208903Y189874D01*
X209606Y190578D01*
X209987Y191497D01*
Y192491D01*
X209606Y193410D01*
X208903Y194113D01*
X207984Y194494D01*
D02*
G37*
G36*
X175497D02*
X174503D01*
X173584Y194113D01*
X172881Y193410D01*
X172500Y192491D01*
Y191497D01*
X172881Y190578D01*
X173584Y189874D01*
X174503Y189494D01*
X175497D01*
X176416Y189874D01*
X177119Y190578D01*
X177500Y191497D01*
Y192491D01*
X177119Y193410D01*
X176416Y194113D01*
X175497Y194494D01*
D02*
G37*
G36*
X188441Y194471D02*
X187447D01*
X186528Y194090D01*
X185825Y193387D01*
X185444Y192468D01*
Y191474D01*
X185825Y190555D01*
X186528Y189851D01*
X187447Y189471D01*
X188441D01*
X189360Y189851D01*
X190063Y190555D01*
X190444Y191474D01*
Y192468D01*
X190063Y193387D01*
X189360Y194090D01*
X188441Y194471D01*
D02*
G37*
G36*
X214533Y194467D02*
X213538D01*
X212619Y194086D01*
X211916Y193383D01*
X211535Y192464D01*
Y191469D01*
X211916Y190550D01*
X212619Y189847D01*
X213538Y189467D01*
X214533D01*
X215452Y189847D01*
X216155Y190550D01*
X216535Y191469D01*
Y192464D01*
X216155Y193383D01*
X215452Y194086D01*
X214533Y194467D01*
D02*
G37*
G36*
X305577Y216024D02*
X304184D01*
X302898Y215492D01*
X301913Y214507D01*
X301381Y213221D01*
Y211828D01*
X301913Y210542D01*
X302898Y209557D01*
X303041Y209498D01*
X302152Y209129D01*
X301167Y208145D01*
X300634Y206858D01*
Y205466D01*
X301167Y204179D01*
X302152Y203195D01*
X303438Y202662D01*
X304830D01*
X306117Y203195D01*
X306464Y203542D01*
Y202810D01*
X306996Y201524D01*
X307981Y200539D01*
X308261Y200423D01*
X307282Y200018D01*
X306298Y199034D01*
X305765Y197747D01*
Y196355D01*
X306298Y195068D01*
X307282Y194084D01*
X307586Y193958D01*
X307251D01*
X305965Y193425D01*
X304980Y192440D01*
X304447Y191154D01*
Y189762D01*
X304980Y188475D01*
X305965Y187491D01*
X307251Y186958D01*
X308644D01*
X309930Y187491D01*
X310915Y188475D01*
X311448Y189762D01*
Y191154D01*
X310915Y192440D01*
X309930Y193425D01*
X309626Y193551D01*
X309961D01*
X311247Y194084D01*
X312232Y195068D01*
X312765Y196355D01*
Y197747D01*
X312232Y199034D01*
X311247Y200018D01*
X310968Y200134D01*
X311946Y200539D01*
X312931Y201524D01*
X313464Y202810D01*
Y204203D01*
X312931Y205489D01*
X311946Y206474D01*
X310660Y207006D01*
X309268D01*
X307981Y206474D01*
X307634Y206127D01*
Y206858D01*
X307101Y208145D01*
X306117Y209129D01*
X305973Y209189D01*
X306863Y209557D01*
X307848Y210542D01*
X308381Y211828D01*
Y213221D01*
X307848Y214507D01*
X306863Y215492D01*
X305577Y216024D01*
D02*
G37*
G36*
X155983Y188099D02*
X154989D01*
X154070Y187718D01*
X153367Y187015D01*
X152986Y186096D01*
Y185101D01*
X153367Y184182D01*
X154070Y183479D01*
X154989Y183099D01*
X155983D01*
X156902Y183479D01*
X157605Y184182D01*
X157986Y185101D01*
Y186096D01*
X157605Y187015D01*
X156902Y187718D01*
X155983Y188099D01*
D02*
G37*
G36*
X149390D02*
X148396D01*
X147477Y187718D01*
X146774Y187015D01*
X146393Y186096D01*
Y185101D01*
X146774Y184182D01*
X147477Y183479D01*
X148396Y183099D01*
X149390D01*
X150309Y183479D01*
X151012Y184182D01*
X151393Y185101D01*
Y186096D01*
X151012Y187015D01*
X150309Y187718D01*
X149390Y188099D01*
D02*
G37*
G36*
X162462Y188056D02*
X161468D01*
X160549Y187676D01*
X159846Y186972D01*
X159465Y186054D01*
Y185059D01*
X159846Y184140D01*
X160549Y183437D01*
X161468Y183056D01*
X162462D01*
X163381Y183437D01*
X164084Y184140D01*
X164465Y185059D01*
Y186054D01*
X164084Y186972D01*
X163381Y187676D01*
X162462Y188056D01*
D02*
G37*
G36*
X214486Y187991D02*
X213492D01*
X212573Y187611D01*
X211870Y186908D01*
X211489Y185989D01*
Y184994D01*
X211870Y184075D01*
X212573Y183372D01*
X213492Y182991D01*
X214486D01*
X215405Y183372D01*
X216108Y184075D01*
X216489Y184994D01*
Y185989D01*
X216108Y186908D01*
X215405Y187611D01*
X214486Y187991D01*
D02*
G37*
G36*
X175497D02*
X174503D01*
X173584Y187611D01*
X172881Y186908D01*
X172500Y185989D01*
Y184994D01*
X172881Y184075D01*
X173584Y183372D01*
X174503Y182991D01*
X175497D01*
X176416Y183372D01*
X177119Y184075D01*
X177500Y184994D01*
Y185989D01*
X177119Y186908D01*
X176416Y187611D01*
X175497Y187991D01*
D02*
G37*
G36*
X247417Y186969D02*
X246422D01*
X245503Y186589D01*
X244800Y185886D01*
X244420Y184967D01*
Y183972D01*
X244800Y183053D01*
X245503Y182350D01*
X246422Y181969D01*
X247417D01*
X248336Y182350D01*
X249039Y183053D01*
X249420Y183972D01*
Y184967D01*
X249039Y185886D01*
X248336Y186589D01*
X247417Y186969D01*
D02*
G37*
G36*
X108634Y185631D02*
X107242D01*
X105956Y185099D01*
X104971Y184114D01*
X104438Y182828D01*
Y181435D01*
X104971Y180149D01*
X105956Y179164D01*
X107242Y178631D01*
X108634D01*
X109921Y179164D01*
X110905Y180149D01*
X111438Y181435D01*
Y182828D01*
X110905Y184114D01*
X109921Y185099D01*
X108634Y185631D01*
D02*
G37*
G36*
X122942Y182994D02*
X121948D01*
X121029Y182613D01*
X120325Y181910D01*
X119945Y180991D01*
Y179996D01*
X120325Y179077D01*
X121029Y178374D01*
X121948Y177994D01*
X122942D01*
X123861Y178374D01*
X124564Y179077D01*
X124945Y179996D01*
Y180991D01*
X124564Y181910D01*
X123861Y182613D01*
X122942Y182994D01*
D02*
G37*
G36*
X162457Y181543D02*
X161462D01*
X160543Y181162D01*
X159840Y180459D01*
X159459Y179540D01*
Y178545D01*
X159840Y177626D01*
X160543Y176923D01*
X161462Y176543D01*
X162457D01*
X163376Y176923D01*
X164079Y177626D01*
X164459Y178545D01*
Y179540D01*
X164079Y180459D01*
X163376Y181162D01*
X162457Y181543D01*
D02*
G37*
G36*
X156008D02*
X155013D01*
X154094Y181162D01*
X153391Y180459D01*
X153010Y179540D01*
Y178545D01*
X153391Y177626D01*
X154094Y176923D01*
X155013Y176543D01*
X156008D01*
X156926Y176923D01*
X157630Y177626D01*
X158010Y178545D01*
Y179540D01*
X157630Y180459D01*
X156926Y181162D01*
X156008Y181543D01*
D02*
G37*
G36*
X149375D02*
X148381D01*
X147462Y181162D01*
X146759Y180459D01*
X146378Y179540D01*
Y178545D01*
X146759Y177626D01*
X147462Y176923D01*
X148381Y176543D01*
X149375D01*
X150294Y176923D01*
X150997Y177626D01*
X151378Y178545D01*
Y179540D01*
X150997Y180459D01*
X150294Y181162D01*
X149375Y181543D01*
D02*
G37*
G36*
X207939Y181498D02*
X206945D01*
X206026Y181117D01*
X205323Y180414D01*
X204942Y179495D01*
Y178501D01*
X205323Y177582D01*
X206026Y176879D01*
X206945Y176498D01*
X207939D01*
X208858Y176879D01*
X209561Y177582D01*
X209942Y178501D01*
Y179495D01*
X209561Y180414D01*
X208858Y181117D01*
X207939Y181498D01*
D02*
G37*
G36*
X188477Y181489D02*
X187482D01*
X186563Y181108D01*
X185860Y180405D01*
X185479Y179486D01*
Y178492D01*
X185860Y177573D01*
X186563Y176870D01*
X187482Y176489D01*
X188477D01*
X189396Y176870D01*
X190099Y177573D01*
X190479Y178492D01*
Y179486D01*
X190099Y180405D01*
X189396Y181108D01*
X188477Y181489D01*
D02*
G37*
G36*
X169053Y181470D02*
X168059D01*
X167140Y181089D01*
X166437Y180386D01*
X166056Y179467D01*
Y178473D01*
X166437Y177554D01*
X167140Y176851D01*
X168059Y176470D01*
X169053D01*
X169972Y176851D01*
X170676Y177554D01*
X171056Y178473D01*
Y179467D01*
X170676Y180386D01*
X169972Y181089D01*
X169053Y181470D01*
D02*
G37*
G36*
X175541Y181392D02*
X174547D01*
X173628Y181012D01*
X172925Y180308D01*
X172544Y179390D01*
Y178395D01*
X172925Y177476D01*
X173628Y176773D01*
X174547Y176392D01*
X175541D01*
X176460Y176773D01*
X177164Y177476D01*
X177544Y178395D01*
Y179390D01*
X177164Y180308D01*
X176460Y181012D01*
X175541Y181392D01*
D02*
G37*
G36*
X262775Y187012D02*
X261383D01*
X260096Y186479D01*
X259112Y185494D01*
X258579Y184208D01*
Y182815D01*
X259112Y181529D01*
X260096Y180544D01*
X260204Y180500D01*
X259388Y179684D01*
X258856Y178398D01*
Y177005D01*
X259388Y175719D01*
X260373Y174734D01*
X261659Y174202D01*
X263052D01*
X264338Y174734D01*
X265323Y175719D01*
X265856Y177005D01*
Y178398D01*
X265323Y179684D01*
X264338Y180669D01*
X264230Y180713D01*
X265046Y181529D01*
X265579Y182815D01*
Y184208D01*
X265046Y185494D01*
X264062Y186479D01*
X262775Y187012D01*
D02*
G37*
G36*
X307337Y180224D02*
X305348D01*
X303510Y179463D01*
X302104Y178057D01*
X301343Y176219D01*
Y174230D01*
X302104Y172392D01*
X303510Y170986D01*
X305348Y170224D01*
X307337D01*
X309175Y170986D01*
X310581Y172392D01*
X311343Y174230D01*
Y176219D01*
X310581Y178057D01*
X309175Y179463D01*
X307337Y180224D01*
D02*
G37*
G36*
X214427Y174973D02*
X213432D01*
X212513Y174592D01*
X211810Y173889D01*
X211429Y172970D01*
Y171975D01*
X211810Y171056D01*
X212513Y170353D01*
X213432Y169973D01*
X214427D01*
X215345Y170353D01*
X216049Y171056D01*
X216429Y171975D01*
Y172970D01*
X216049Y173889D01*
X215345Y174592D01*
X214427Y174973D01*
D02*
G37*
G36*
X208021D02*
X207026D01*
X206107Y174592D01*
X205404Y173889D01*
X205023Y172970D01*
Y171975D01*
X205404Y171056D01*
X206107Y170353D01*
X207026Y169973D01*
X208021D01*
X208940Y170353D01*
X209643Y171056D01*
X210023Y171975D01*
Y172970D01*
X209643Y173889D01*
X208940Y174592D01*
X208021Y174973D01*
D02*
G37*
G36*
X128579Y174870D02*
X127585D01*
X126666Y174489D01*
X125963Y173786D01*
X125582Y172867D01*
Y171873D01*
X125963Y170954D01*
X126666Y170250D01*
X127585Y169870D01*
X128579D01*
X129498Y170250D01*
X130202Y170954D01*
X130582Y171873D01*
Y172867D01*
X130202Y173786D01*
X129498Y174489D01*
X128579Y174870D01*
D02*
G37*
G36*
X101963Y175000D02*
X100570D01*
X99284Y174467D01*
X98299Y173483D01*
X97767Y172196D01*
Y170804D01*
X98299Y169517D01*
X99284Y168533D01*
X100570Y168000D01*
X101963D01*
X103249Y168533D01*
X104234Y169517D01*
X104766Y170804D01*
Y172196D01*
X104234Y173483D01*
X103249Y174467D01*
X101963Y175000D01*
D02*
G37*
G36*
X114263Y179205D02*
X112871D01*
X111584Y178673D01*
X110600Y177688D01*
X110067Y176402D01*
Y175009D01*
X110600Y173723D01*
X111114Y173209D01*
X110456Y172937D01*
X109472Y171952D01*
X108939Y170666D01*
Y169273D01*
X109472Y167987D01*
X110456Y167002D01*
X111743Y166469D01*
X113135D01*
X114421Y167002D01*
X115406Y167987D01*
X115939Y169273D01*
Y170666D01*
X115406Y171952D01*
X114892Y172466D01*
X115549Y172738D01*
X116534Y173723D01*
X117067Y175009D01*
Y176402D01*
X116534Y177688D01*
X115549Y178673D01*
X114263Y179205D01*
D02*
G37*
G36*
X156059Y168543D02*
X155065D01*
X154146Y168162D01*
X153443Y167459D01*
X153062Y166540D01*
Y165546D01*
X153443Y164627D01*
X154146Y163923D01*
X155065Y163543D01*
X156059D01*
X156978Y163923D01*
X157681Y164627D01*
X158062Y165546D01*
Y166540D01*
X157681Y167459D01*
X156978Y168162D01*
X156059Y168543D01*
D02*
G37*
G36*
X188477Y168510D02*
X187482D01*
X186563Y168129D01*
X185860Y167426D01*
X185479Y166507D01*
Y165512D01*
X185860Y164594D01*
X186563Y163890D01*
X187482Y163510D01*
X188477D01*
X189396Y163890D01*
X190099Y164594D01*
X190479Y165512D01*
Y166507D01*
X190099Y167426D01*
X189396Y168129D01*
X188477Y168510D01*
D02*
G37*
G36*
X162493D02*
X161498D01*
X160579Y168129D01*
X159876Y167426D01*
X159495Y166507D01*
Y165512D01*
X159876Y164594D01*
X160579Y163890D01*
X161498Y163510D01*
X162493D01*
X163411Y163890D01*
X164115Y164594D01*
X164495Y165512D01*
Y166507D01*
X164115Y167426D01*
X163411Y168129D01*
X162493Y168510D01*
D02*
G37*
G36*
X57653Y170281D02*
X56261D01*
X54975Y169748D01*
X53990Y168764D01*
X53457Y167477D01*
Y166085D01*
X53990Y164799D01*
X54975Y163814D01*
X56261Y163281D01*
X57653D01*
X58940Y163814D01*
X59924Y164799D01*
X60457Y166085D01*
Y167477D01*
X59924Y168764D01*
X58940Y169748D01*
X57653Y170281D01*
D02*
G37*
G36*
X51119Y163966D02*
X49726D01*
X48440Y163433D01*
X47455Y162449D01*
X46922Y161163D01*
Y160419D01*
X46595Y160555D01*
X45202D01*
X43916Y160022D01*
X42931Y159037D01*
X42398Y157751D01*
Y156358D01*
X42530Y156041D01*
X41170D01*
X39883Y155508D01*
X38899Y154523D01*
X38366Y153237D01*
Y151845D01*
X38899Y150558D01*
X39883Y149573D01*
X41170Y149041D01*
X42562D01*
X43849Y149573D01*
X44833Y150558D01*
X45366Y151845D01*
Y153237D01*
X45234Y153555D01*
X46595D01*
X47881Y154087D01*
X48865Y155072D01*
X49398Y156358D01*
Y157102D01*
X49726Y156966D01*
X51119D01*
X52405Y157499D01*
X53390Y158484D01*
X53923Y159770D01*
Y161163D01*
X53390Y162449D01*
X52405Y163433D01*
X51119Y163966D01*
D02*
G37*
G36*
X130577Y165259D02*
X129583D01*
X128664Y164878D01*
X127961Y164175D01*
X127580Y163256D01*
Y162261D01*
X127961Y161343D01*
X128664Y160639D01*
X129583Y160259D01*
X130577D01*
X131496Y160639D01*
X132199Y161343D01*
X132580Y162261D01*
Y163256D01*
X132199Y164175D01*
X131496Y164878D01*
X130577Y165259D01*
D02*
G37*
G36*
X262775Y173143D02*
X261383D01*
X260096Y172610D01*
X259112Y171625D01*
X258579Y170339D01*
Y168946D01*
X259112Y167660D01*
X260096Y166675D01*
X260374Y166560D01*
X260096Y166445D01*
X259112Y165461D01*
X258579Y164174D01*
Y162782D01*
X259112Y161495D01*
X260096Y160511D01*
X261383Y159978D01*
X262775D01*
X264062Y160511D01*
X265046Y161495D01*
X265579Y162782D01*
Y164174D01*
X265046Y165461D01*
X264062Y166445D01*
X263783Y166560D01*
X264062Y166675D01*
X265046Y167660D01*
X265579Y168946D01*
Y170339D01*
X265046Y171625D01*
X264062Y172610D01*
X262775Y173143D01*
D02*
G37*
G36*
X188477Y162017D02*
X187482D01*
X186563Y161636D01*
X185860Y160933D01*
X185479Y160014D01*
Y159020D01*
X185860Y158101D01*
X186563Y157398D01*
X187482Y157017D01*
X188477D01*
X189396Y157398D01*
X190099Y158101D01*
X190479Y159020D01*
Y160014D01*
X190099Y160933D01*
X189396Y161636D01*
X188477Y162017D01*
D02*
G37*
G36*
X220989Y162007D02*
X219994D01*
X219075Y161627D01*
X218372Y160923D01*
X217991Y160005D01*
Y159010D01*
X218372Y158091D01*
X219075Y157388D01*
X219994Y157007D01*
X220989D01*
X221908Y157388D01*
X222611Y158091D01*
X222991Y159010D01*
Y160005D01*
X222611Y160923D01*
X221908Y161627D01*
X220989Y162007D01*
D02*
G37*
G36*
X207984D02*
X206989D01*
X206070Y161627D01*
X205367Y160923D01*
X204987Y160005D01*
Y159010D01*
X205367Y158091D01*
X206070Y157388D01*
X206989Y157007D01*
X207984D01*
X208903Y157388D01*
X209606Y158091D01*
X209987Y159010D01*
Y160005D01*
X209606Y160923D01*
X208903Y161627D01*
X207984Y162007D01*
D02*
G37*
G36*
X201481D02*
X200487D01*
X199568Y161627D01*
X198865Y160923D01*
X198484Y160005D01*
Y159010D01*
X198865Y158091D01*
X199568Y157388D01*
X200487Y157007D01*
X201481D01*
X202400Y157388D01*
X203104Y158091D01*
X203484Y159010D01*
Y160005D01*
X203104Y160923D01*
X202400Y161627D01*
X201481Y162007D01*
D02*
G37*
G36*
X194979D02*
X193985D01*
X193066Y161627D01*
X192362Y160923D01*
X191982Y160005D01*
Y159010D01*
X192362Y158091D01*
X193066Y157388D01*
X193985Y157007D01*
X194979D01*
X195898Y157388D01*
X196601Y158091D01*
X196982Y159010D01*
Y160005D01*
X196601Y160923D01*
X195898Y161627D01*
X194979Y162007D01*
D02*
G37*
G36*
X181974D02*
X180980D01*
X180061Y161627D01*
X179358Y160923D01*
X178977Y160005D01*
Y159010D01*
X179358Y158091D01*
X180061Y157388D01*
X180980Y157007D01*
X181974D01*
X182893Y157388D01*
X183596Y158091D01*
X183977Y159010D01*
Y160005D01*
X183596Y160923D01*
X182893Y161627D01*
X181974Y162007D01*
D02*
G37*
G36*
X175497D02*
X174503D01*
X173584Y161627D01*
X172881Y160923D01*
X172500Y160005D01*
Y159010D01*
X172881Y158091D01*
X173584Y157388D01*
X174503Y157007D01*
X175497D01*
X176416Y157388D01*
X177119Y158091D01*
X177500Y159010D01*
Y160005D01*
X177119Y160923D01*
X176416Y161627D01*
X175497Y162007D01*
D02*
G37*
G36*
X162493D02*
X161498D01*
X160579Y161627D01*
X159876Y160923D01*
X159495Y160005D01*
Y159010D01*
X159876Y158091D01*
X160579Y157388D01*
X161498Y157007D01*
X162493D01*
X163411Y157388D01*
X164115Y158091D01*
X164495Y159010D01*
Y160005D01*
X164115Y160923D01*
X163411Y161627D01*
X162493Y162007D01*
D02*
G37*
G36*
X131045Y155840D02*
X130051D01*
X129132Y155459D01*
X128428Y154756D01*
X128048Y153837D01*
Y152842D01*
X128428Y151924D01*
X129132Y151220D01*
X130051Y150840D01*
X131045D01*
X131964Y151220D01*
X132667Y151924D01*
X133048Y152842D01*
Y153837D01*
X132667Y154756D01*
X131964Y155459D01*
X131045Y155840D01*
D02*
G37*
G36*
X220989Y155505D02*
X219994D01*
X219075Y155124D01*
X218372Y154421D01*
X217991Y153502D01*
Y152507D01*
X218372Y151589D01*
X219075Y150885D01*
X219994Y150505D01*
X220989D01*
X221908Y150885D01*
X222611Y151589D01*
X222991Y152507D01*
Y153502D01*
X222611Y154421D01*
X221908Y155124D01*
X220989Y155505D01*
D02*
G37*
G36*
X214486D02*
X213492D01*
X212573Y155124D01*
X211870Y154421D01*
X211489Y153502D01*
Y152507D01*
X211870Y151589D01*
X212573Y150885D01*
X213492Y150505D01*
X214486D01*
X215405Y150885D01*
X216108Y151589D01*
X216489Y152507D01*
Y153502D01*
X216108Y154421D01*
X215405Y155124D01*
X214486Y155505D01*
D02*
G37*
G36*
X207984D02*
X206989D01*
X206070Y155124D01*
X205367Y154421D01*
X204987Y153502D01*
Y152507D01*
X205367Y151589D01*
X206070Y150885D01*
X206989Y150505D01*
X207984D01*
X208903Y150885D01*
X209606Y151589D01*
X209987Y152507D01*
Y153502D01*
X209606Y154421D01*
X208903Y155124D01*
X207984Y155505D01*
D02*
G37*
G36*
X201481D02*
X200487D01*
X199568Y155124D01*
X198865Y154421D01*
X198484Y153502D01*
Y152507D01*
X198865Y151589D01*
X199568Y150885D01*
X200487Y150505D01*
X201481D01*
X202400Y150885D01*
X203104Y151589D01*
X203484Y152507D01*
Y153502D01*
X203104Y154421D01*
X202400Y155124D01*
X201481Y155505D01*
D02*
G37*
G36*
X194979D02*
X193985D01*
X193066Y155124D01*
X192362Y154421D01*
X191982Y153502D01*
Y152507D01*
X192362Y151589D01*
X193066Y150885D01*
X193985Y150505D01*
X194979D01*
X195898Y150885D01*
X196601Y151589D01*
X196982Y152507D01*
Y153502D01*
X196601Y154421D01*
X195898Y155124D01*
X194979Y155505D01*
D02*
G37*
G36*
X188477D02*
X187482D01*
X186563Y155124D01*
X185860Y154421D01*
X185479Y153502D01*
Y152507D01*
X185860Y151589D01*
X186563Y150885D01*
X187482Y150505D01*
X188477D01*
X189396Y150885D01*
X190099Y151589D01*
X190479Y152507D01*
Y153502D01*
X190099Y154421D01*
X189396Y155124D01*
X188477Y155505D01*
D02*
G37*
G36*
X168995D02*
X168000D01*
X167082Y155124D01*
X166378Y154421D01*
X165998Y153502D01*
Y152507D01*
X166378Y151589D01*
X167082Y150885D01*
X168000Y150505D01*
X168995D01*
X169914Y150885D01*
X170617Y151589D01*
X170998Y152507D01*
Y153502D01*
X170617Y154421D01*
X169914Y155124D01*
X168995Y155505D01*
D02*
G37*
G36*
X162493D02*
X161498D01*
X160579Y155124D01*
X159876Y154421D01*
X159495Y153502D01*
Y152507D01*
X159876Y151589D01*
X160579Y150885D01*
X161498Y150505D01*
X162493D01*
X163411Y150885D01*
X164115Y151589D01*
X164495Y152507D01*
Y153502D01*
X164115Y154421D01*
X163411Y155124D01*
X162493Y155505D01*
D02*
G37*
G36*
X17476Y164772D02*
X16083D01*
X14797Y164239D01*
X13812Y163255D01*
X13279Y161968D01*
Y160576D01*
X13413Y160254D01*
X12100D01*
X10814Y159721D01*
X9829Y158736D01*
X9296Y157450D01*
Y156057D01*
X9577Y155379D01*
X8188D01*
X6902Y154846D01*
X5917Y153861D01*
X5384Y152575D01*
Y151182D01*
X5917Y149896D01*
X6902Y148912D01*
X8188Y148379D01*
X9580D01*
X10867Y148912D01*
X11851Y149896D01*
X12384Y151182D01*
Y152575D01*
X12103Y153254D01*
X13492D01*
X14779Y153786D01*
X15763Y154771D01*
X16296Y156057D01*
Y157450D01*
X16163Y157772D01*
X17476D01*
X18762Y158305D01*
X19746Y159290D01*
X20279Y160576D01*
Y161968D01*
X19746Y163255D01*
X18762Y164239D01*
X17476Y164772D01*
D02*
G37*
G36*
X58606Y158064D02*
X56617D01*
X54779Y157303D01*
X53373Y155896D01*
X52612Y154058D01*
Y152069D01*
X53373Y150232D01*
X54779Y148825D01*
X56617Y148064D01*
X58606D01*
X60444Y148825D01*
X61850Y150232D01*
X62612Y152069D01*
Y154058D01*
X61850Y155896D01*
X60444Y157303D01*
X58606Y158064D01*
D02*
G37*
G36*
X149495Y149004D02*
X148500D01*
X147581Y148623D01*
X146878Y147920D01*
X146497Y147001D01*
Y146006D01*
X146878Y145088D01*
X147581Y144384D01*
X148500Y144004D01*
X149495D01*
X150414Y144384D01*
X151117Y145088D01*
X151497Y146006D01*
Y147001D01*
X151117Y147920D01*
X150414Y148623D01*
X149495Y149004D01*
D02*
G37*
G36*
X181974Y149002D02*
X180980D01*
X180061Y148622D01*
X179358Y147919D01*
X178977Y147000D01*
Y146005D01*
X179358Y145086D01*
X180061Y144383D01*
X180980Y144002D01*
X181974D01*
X182893Y144383D01*
X183596Y145086D01*
X183977Y146005D01*
Y147000D01*
X183596Y147919D01*
X182893Y148622D01*
X181974Y149002D01*
D02*
G37*
G36*
X175497D02*
X174503D01*
X173584Y148622D01*
X172881Y147919D01*
X172500Y147000D01*
Y146005D01*
X172881Y145086D01*
X173584Y144383D01*
X174503Y144002D01*
X175497D01*
X176416Y144383D01*
X177119Y145086D01*
X177500Y146005D01*
Y147000D01*
X177119Y147919D01*
X176416Y148622D01*
X175497Y149002D01*
D02*
G37*
G36*
X168995D02*
X168000D01*
X167082Y148622D01*
X166378Y147919D01*
X165998Y147000D01*
Y146005D01*
X166378Y145086D01*
X167082Y144383D01*
X168000Y144002D01*
X168995D01*
X169914Y144383D01*
X170617Y145086D01*
X170998Y146005D01*
Y147000D01*
X170617Y147919D01*
X169914Y148622D01*
X168995Y149002D01*
D02*
G37*
G36*
X155990D02*
X154995D01*
X154077Y148622D01*
X153373Y147919D01*
X152993Y147000D01*
Y146005D01*
X153373Y145086D01*
X154077Y144383D01*
X154995Y144002D01*
X155990D01*
X156909Y144383D01*
X157612Y145086D01*
X157993Y146005D01*
Y147000D01*
X157612Y147919D01*
X156909Y148622D01*
X155990Y149002D01*
D02*
G37*
G36*
X142915Y142538D02*
X141920D01*
X141002Y142158D01*
X140298Y141454D01*
X139918Y140536D01*
Y139541D01*
X140298Y138622D01*
X141002Y137919D01*
X141920Y137538D01*
X142915D01*
X143834Y137919D01*
X144537Y138622D01*
X144918Y139541D01*
Y140536D01*
X144537Y141454D01*
X143834Y142158D01*
X142915Y142538D01*
D02*
G37*
G36*
X220989Y142500D02*
X219994D01*
X219075Y142119D01*
X218372Y141416D01*
X217991Y140497D01*
Y139503D01*
X218372Y138584D01*
X219075Y137881D01*
X219994Y137500D01*
X220989D01*
X221908Y137881D01*
X222611Y138584D01*
X222991Y139503D01*
Y140497D01*
X222611Y141416D01*
X221908Y142119D01*
X220989Y142500D01*
D02*
G37*
G36*
X214486D02*
X213492D01*
X212573Y142119D01*
X211870Y141416D01*
X211489Y140497D01*
Y139503D01*
X211870Y138584D01*
X212573Y137881D01*
X213492Y137500D01*
X214486D01*
X215405Y137881D01*
X216108Y138584D01*
X216489Y139503D01*
Y140497D01*
X216108Y141416D01*
X215405Y142119D01*
X214486Y142500D01*
D02*
G37*
G36*
X207984D02*
X206989D01*
X206070Y142119D01*
X205367Y141416D01*
X204987Y140497D01*
Y139503D01*
X205367Y138584D01*
X206070Y137881D01*
X206989Y137500D01*
X207984D01*
X208903Y137881D01*
X209606Y138584D01*
X209987Y139503D01*
Y140497D01*
X209606Y141416D01*
X208903Y142119D01*
X207984Y142500D01*
D02*
G37*
G36*
X201481D02*
X200487D01*
X199568Y142119D01*
X198865Y141416D01*
X198484Y140497D01*
Y139503D01*
X198865Y138584D01*
X199568Y137881D01*
X200487Y137500D01*
X201481D01*
X202400Y137881D01*
X203104Y138584D01*
X203484Y139503D01*
Y140497D01*
X203104Y141416D01*
X202400Y142119D01*
X201481Y142500D01*
D02*
G37*
G36*
X194979D02*
X193985D01*
X193066Y142119D01*
X192362Y141416D01*
X191982Y140497D01*
Y139503D01*
X192362Y138584D01*
X193066Y137881D01*
X193985Y137500D01*
X194979D01*
X195898Y137881D01*
X196601Y138584D01*
X196982Y139503D01*
Y140497D01*
X196601Y141416D01*
X195898Y142119D01*
X194979Y142500D01*
D02*
G37*
G36*
X188477D02*
X187482D01*
X186563Y142119D01*
X185860Y141416D01*
X185479Y140497D01*
Y139503D01*
X185860Y138584D01*
X186563Y137881D01*
X187482Y137500D01*
X188477D01*
X189396Y137881D01*
X190099Y138584D01*
X190479Y139503D01*
Y140497D01*
X190099Y141416D01*
X189396Y142119D01*
X188477Y142500D01*
D02*
G37*
G36*
X168995D02*
X168000D01*
X167082Y142119D01*
X166378Y141416D01*
X165998Y140497D01*
Y139503D01*
X166378Y138584D01*
X167082Y137881D01*
X168000Y137500D01*
X168995D01*
X169914Y137881D01*
X170617Y138584D01*
X170998Y139503D01*
Y140497D01*
X170617Y141416D01*
X169914Y142119D01*
X168995Y142500D01*
D02*
G37*
G36*
X162493D02*
X161498D01*
X160579Y142119D01*
X159876Y141416D01*
X159495Y140497D01*
Y139503D01*
X159876Y138584D01*
X160579Y137881D01*
X161498Y137500D01*
X162493D01*
X163411Y137881D01*
X164115Y138584D01*
X164495Y139503D01*
Y140497D01*
X164115Y141416D01*
X163411Y142119D01*
X162493Y142500D01*
D02*
G37*
G36*
X149495Y142478D02*
X148500D01*
X147581Y142098D01*
X146878Y141394D01*
X146497Y140476D01*
Y139481D01*
X146878Y138562D01*
X147581Y137859D01*
X148500Y137478D01*
X149495D01*
X150414Y137859D01*
X151117Y138562D01*
X151497Y139481D01*
Y140476D01*
X151117Y141394D01*
X150414Y142098D01*
X149495Y142478D01*
D02*
G37*
G36*
X323235Y143740D02*
X321843D01*
X320556Y143207D01*
X319572Y142222D01*
X319039Y140936D01*
Y139544D01*
X319572Y138257D01*
X320556Y137273D01*
X321843Y136740D01*
X323235D01*
X324522Y137273D01*
X325506Y138257D01*
X326039Y139544D01*
Y140936D01*
X325506Y142222D01*
X324522Y143207D01*
X323235Y143740D01*
D02*
G37*
G36*
X315714Y141634D02*
X314322D01*
X313035Y141101D01*
X312051Y140116D01*
X311518Y138830D01*
Y137438D01*
X312051Y136151D01*
X313035Y135167D01*
X314322Y134634D01*
X315714D01*
X317000Y135167D01*
X317985Y136151D01*
X318518Y137438D01*
Y138830D01*
X317985Y140116D01*
X317000Y141101D01*
X315714Y141634D01*
D02*
G37*
G36*
X95327Y143867D02*
X93935D01*
X92648Y143335D01*
X91664Y142350D01*
X91131Y141064D01*
Y139671D01*
X91664Y138385D01*
X92648Y137400D01*
X93935Y136867D01*
X94447D01*
X94161Y136176D01*
Y134784D01*
X94694Y133497D01*
X95678Y132513D01*
X96965Y131980D01*
X98357D01*
X99644Y132513D01*
X100628Y133497D01*
X101161Y134784D01*
Y136176D01*
X100628Y137463D01*
X99644Y138447D01*
X98357Y138980D01*
X97845D01*
X98131Y139671D01*
Y141064D01*
X97598Y142350D01*
X96613Y143335D01*
X95327Y143867D01*
D02*
G37*
G36*
X343898Y138858D02*
X342506D01*
X341220Y138325D01*
X340235Y137341D01*
X339702Y136054D01*
Y134662D01*
X340235Y133375D01*
X341220Y132391D01*
X342506Y131858D01*
X343898D01*
X345185Y132391D01*
X346169Y133375D01*
X346702Y134662D01*
Y136054D01*
X346169Y137341D01*
X345185Y138325D01*
X343898Y138858D01*
D02*
G37*
G36*
X181974Y135998D02*
X180980D01*
X180061Y135617D01*
X179358Y134914D01*
X178977Y133995D01*
Y133000D01*
X179358Y132081D01*
X180061Y131378D01*
X180980Y130998D01*
X181974D01*
X182893Y131378D01*
X183596Y132081D01*
X183977Y133000D01*
Y133995D01*
X183596Y134914D01*
X182893Y135617D01*
X181974Y135998D01*
D02*
G37*
G36*
X175497D02*
X174503D01*
X173584Y135617D01*
X172881Y134914D01*
X172500Y133995D01*
Y133000D01*
X172881Y132081D01*
X173584Y131378D01*
X174503Y130998D01*
X175497D01*
X176416Y131378D01*
X177119Y132081D01*
X177500Y133000D01*
Y133995D01*
X177119Y134914D01*
X176416Y135617D01*
X175497Y135998D01*
D02*
G37*
G36*
X168995D02*
X168000D01*
X167082Y135617D01*
X166378Y134914D01*
X165998Y133995D01*
Y133000D01*
X166378Y132081D01*
X167082Y131378D01*
X168000Y130998D01*
X168995D01*
X169914Y131378D01*
X170617Y132081D01*
X170998Y133000D01*
Y133995D01*
X170617Y134914D01*
X169914Y135617D01*
X168995Y135998D01*
D02*
G37*
G36*
X155990D02*
X154995D01*
X154077Y135617D01*
X153373Y134914D01*
X152993Y133995D01*
Y133000D01*
X153373Y132081D01*
X154077Y131378D01*
X154995Y130998D01*
X155990D01*
X156909Y131378D01*
X157612Y132081D01*
X157993Y133000D01*
Y133995D01*
X157612Y134914D01*
X156909Y135617D01*
X155990Y135998D01*
D02*
G37*
G36*
X149488Y135926D02*
X148494D01*
X147575Y135545D01*
X146872Y134842D01*
X146491Y133923D01*
Y132929D01*
X146872Y132010D01*
X147575Y131307D01*
X148494Y130926D01*
X149488D01*
X150407Y131307D01*
X151110Y132010D01*
X151491Y132929D01*
Y133923D01*
X151110Y134842D01*
X150407Y135545D01*
X149488Y135926D01*
D02*
G37*
G36*
X137662Y134222D02*
X136667D01*
X135748Y133841D01*
X135045Y133138D01*
X134664Y132219D01*
Y131225D01*
X135045Y130306D01*
X135748Y129603D01*
X136667Y129222D01*
X137662D01*
X138580Y129603D01*
X139284Y130306D01*
X139664Y131225D01*
Y132219D01*
X139284Y133138D01*
X138580Y133841D01*
X137662Y134222D01*
D02*
G37*
G36*
X130182D02*
X129187D01*
X128269Y133841D01*
X127565Y133138D01*
X127185Y132219D01*
Y131225D01*
X127565Y130306D01*
X128269Y129603D01*
X129187Y129222D01*
X130182D01*
X131101Y129603D01*
X131804Y130306D01*
X132185Y131225D01*
Y132219D01*
X131804Y133138D01*
X131101Y133841D01*
X130182Y134222D01*
D02*
G37*
G36*
X112674Y135520D02*
X111282D01*
X109995Y134987D01*
X109011Y134003D01*
X108478Y132716D01*
Y131324D01*
X109011Y130037D01*
X109995Y129053D01*
X111282Y128520D01*
X112674D01*
X113960Y129053D01*
X114945Y130037D01*
X115478Y131324D01*
Y132716D01*
X114945Y134003D01*
X113960Y134987D01*
X112674Y135520D01*
D02*
G37*
G36*
X214486Y129495D02*
X213492D01*
X212573Y129115D01*
X211870Y128411D01*
X211489Y127493D01*
Y126498D01*
X211870Y125579D01*
X212573Y124876D01*
X213492Y124495D01*
X214486D01*
X215405Y124876D01*
X216108Y125579D01*
X216489Y126498D01*
Y127493D01*
X216108Y128411D01*
X215405Y129115D01*
X214486Y129495D01*
D02*
G37*
G36*
X207984D02*
X206989D01*
X206070Y129115D01*
X205367Y128411D01*
X204987Y127493D01*
Y126498D01*
X205367Y125579D01*
X206070Y124876D01*
X206989Y124495D01*
X207984D01*
X208903Y124876D01*
X209606Y125579D01*
X209987Y126498D01*
Y127493D01*
X209606Y128411D01*
X208903Y129115D01*
X207984Y129495D01*
D02*
G37*
G36*
X201481D02*
X200487D01*
X199568Y129115D01*
X198865Y128411D01*
X198484Y127493D01*
Y126498D01*
X198865Y125579D01*
X199568Y124876D01*
X200487Y124495D01*
X201481D01*
X202400Y124876D01*
X203104Y125579D01*
X203484Y126498D01*
Y127493D01*
X203104Y128411D01*
X202400Y129115D01*
X201481Y129495D01*
D02*
G37*
G36*
X194979D02*
X193985D01*
X193066Y129115D01*
X192362Y128411D01*
X191982Y127493D01*
Y126498D01*
X192362Y125579D01*
X193066Y124876D01*
X193985Y124495D01*
X194979D01*
X195898Y124876D01*
X196601Y125579D01*
X196982Y126498D01*
Y127493D01*
X196601Y128411D01*
X195898Y129115D01*
X194979Y129495D01*
D02*
G37*
G36*
X188477D02*
X187482D01*
X186563Y129115D01*
X185860Y128411D01*
X185479Y127493D01*
Y126498D01*
X185860Y125579D01*
X186563Y124876D01*
X187482Y124495D01*
X188477D01*
X189396Y124876D01*
X190099Y125579D01*
X190479Y126498D01*
Y127493D01*
X190099Y128411D01*
X189396Y129115D01*
X188477Y129495D01*
D02*
G37*
G36*
X181974D02*
X180980D01*
X180061Y129115D01*
X179358Y128411D01*
X178977Y127493D01*
Y126498D01*
X179358Y125579D01*
X180061Y124876D01*
X180980Y124495D01*
X181974D01*
X182893Y124876D01*
X183596Y125579D01*
X183977Y126498D01*
Y127493D01*
X183596Y128411D01*
X182893Y129115D01*
X181974Y129495D01*
D02*
G37*
G36*
X175497D02*
X174503D01*
X173584Y129115D01*
X172881Y128411D01*
X172500Y127493D01*
Y126498D01*
X172881Y125579D01*
X173584Y124876D01*
X174503Y124495D01*
X175497D01*
X176416Y124876D01*
X177119Y125579D01*
X177500Y126498D01*
Y127493D01*
X177119Y128411D01*
X176416Y129115D01*
X175497Y129495D01*
D02*
G37*
G36*
X168995D02*
X168000D01*
X167082Y129115D01*
X166378Y128411D01*
X165998Y127493D01*
Y126498D01*
X166378Y125579D01*
X167082Y124876D01*
X168000Y124495D01*
X168995D01*
X169914Y124876D01*
X170617Y125579D01*
X170998Y126498D01*
Y127493D01*
X170617Y128411D01*
X169914Y129115D01*
X168995Y129495D01*
D02*
G37*
G36*
X155990D02*
X154995D01*
X154077Y129115D01*
X153373Y128411D01*
X152993Y127493D01*
Y126498D01*
X153373Y125579D01*
X154077Y124876D01*
X154995Y124495D01*
X155990D01*
X156909Y124876D01*
X157612Y125579D01*
X157993Y126498D01*
Y127493D01*
X157612Y128411D01*
X156909Y129115D01*
X155990Y129495D01*
D02*
G37*
G36*
X227534Y129484D02*
X226540D01*
X225621Y129104D01*
X224918Y128400D01*
X224537Y127481D01*
Y126487D01*
X224918Y125568D01*
X225621Y124865D01*
X226540Y124484D01*
X227534D01*
X228453Y124865D01*
X229156Y125568D01*
X229537Y126487D01*
Y127481D01*
X229156Y128400D01*
X228453Y129104D01*
X227534Y129484D01*
D02*
G37*
G36*
X252385Y129500D02*
X250992D01*
X249706Y128967D01*
X248721Y127983D01*
X248188Y126696D01*
Y125304D01*
X248721Y124017D01*
X249706Y123033D01*
X250992Y122500D01*
X252385D01*
X253671Y123033D01*
X254655Y124017D01*
X255188Y125304D01*
Y126696D01*
X254655Y127983D01*
X253671Y128967D01*
X252385Y129500D01*
D02*
G37*
G36*
X323974Y129417D02*
X322582D01*
X321295Y128884D01*
X320311Y127899D01*
X319778Y126613D01*
Y125220D01*
X320311Y123934D01*
X321295Y122950D01*
X322582Y122417D01*
X323974D01*
X325261Y122950D01*
X326245Y123934D01*
X326778Y125220D01*
Y126613D01*
X326245Y127899D01*
X325261Y128884D01*
X323974Y129417D01*
D02*
G37*
G36*
X122412Y126914D02*
X121417D01*
X120498Y126534D01*
X119795Y125830D01*
X119414Y124911D01*
Y123917D01*
X119795Y122998D01*
X120498Y122295D01*
X121417Y121914D01*
X122412D01*
X123330Y122295D01*
X124034Y122998D01*
X124414Y123917D01*
Y124911D01*
X124034Y125830D01*
X123330Y126534D01*
X122412Y126914D01*
D02*
G37*
G36*
X295695Y132902D02*
X293507D01*
X291485Y132065D01*
X289938Y130518D01*
X289100Y128496D01*
Y126308D01*
X289938Y124287D01*
X291485Y122740D01*
X293507Y121902D01*
X295695D01*
X297716Y122740D01*
X299263Y124287D01*
X300100Y126308D01*
Y128496D01*
X299263Y130518D01*
X297716Y132065D01*
X295695Y132902D01*
D02*
G37*
G36*
X265973Y139499D02*
X264580D01*
X263294Y138966D01*
X262309Y137981D01*
X261777Y136695D01*
Y135302D01*
X262309Y134016D01*
X262774Y133551D01*
X261856D01*
X260569Y133019D01*
X259585Y132034D01*
X259052Y130747D01*
Y129355D01*
X259585Y128069D01*
X260569Y127084D01*
X261493Y126702D01*
X260654Y125863D01*
X260121Y124576D01*
Y123184D01*
X260654Y121898D01*
X261639Y120913D01*
X262925Y120380D01*
X264317D01*
X265604Y120913D01*
X266588Y121898D01*
X267121Y123184D01*
Y124576D01*
X266588Y125863D01*
X265604Y126847D01*
X264680Y127230D01*
X265519Y128069D01*
X266052Y129355D01*
Y130747D01*
X265519Y132034D01*
X265054Y132499D01*
X265973D01*
X267259Y133031D01*
X268244Y134016D01*
X268777Y135302D01*
Y136695D01*
X268244Y137981D01*
X267259Y138966D01*
X265973Y139499D01*
D02*
G37*
G36*
X149457Y123036D02*
X148462D01*
X147543Y122655D01*
X146840Y121952D01*
X146459Y121033D01*
Y120038D01*
X146840Y119120D01*
X147543Y118416D01*
X148462Y118036D01*
X149457D01*
X150375Y118416D01*
X151079Y119120D01*
X151459Y120038D01*
Y121033D01*
X151079Y121952D01*
X150375Y122655D01*
X149457Y123036D01*
D02*
G37*
G36*
X220989Y122993D02*
X219994D01*
X219075Y122612D01*
X218372Y121909D01*
X217991Y120990D01*
Y119995D01*
X218372Y119077D01*
X219075Y118373D01*
X219994Y117993D01*
X220989D01*
X221908Y118373D01*
X222611Y119077D01*
X222991Y119995D01*
Y120990D01*
X222611Y121909D01*
X221908Y122612D01*
X220989Y122993D01*
D02*
G37*
G36*
X181974D02*
X180980D01*
X180061Y122612D01*
X179358Y121909D01*
X178977Y120990D01*
Y119995D01*
X179358Y119077D01*
X180061Y118373D01*
X180980Y117993D01*
X181974D01*
X182893Y118373D01*
X183596Y119077D01*
X183977Y119995D01*
Y120990D01*
X183596Y121909D01*
X182893Y122612D01*
X181974Y122993D01*
D02*
G37*
G36*
X175497D02*
X174503D01*
X173584Y122612D01*
X172881Y121909D01*
X172500Y120990D01*
Y119995D01*
X172881Y119077D01*
X173584Y118373D01*
X174503Y117993D01*
X175497D01*
X176416Y118373D01*
X177119Y119077D01*
X177500Y119995D01*
Y120990D01*
X177119Y121909D01*
X176416Y122612D01*
X175497Y122993D01*
D02*
G37*
G36*
X162493D02*
X161498D01*
X160579Y122612D01*
X159876Y121909D01*
X159495Y120990D01*
Y119995D01*
X159876Y119077D01*
X160579Y118373D01*
X161498Y117993D01*
X162493D01*
X163411Y118373D01*
X164115Y119077D01*
X164495Y119995D01*
Y120990D01*
X164115Y121909D01*
X163411Y122612D01*
X162493Y122993D01*
D02*
G37*
G36*
X106009Y123245D02*
X104616D01*
X103330Y122712D01*
X102345Y121728D01*
X101812Y120441D01*
Y119049D01*
X102345Y117762D01*
X103330Y116778D01*
X104616Y116245D01*
X106009D01*
X107295Y116778D01*
X108279Y117762D01*
X108812Y119049D01*
Y120441D01*
X108279Y121728D01*
X107295Y122712D01*
X106009Y123245D01*
D02*
G37*
G36*
X317418Y122833D02*
X316026D01*
X314739Y122300D01*
X313755Y121315D01*
X313222Y120029D01*
Y118637D01*
X313755Y117350D01*
X314739Y116365D01*
X316026Y115833D01*
X317418D01*
X318705Y116365D01*
X319689Y117350D01*
X320222Y118637D01*
Y120029D01*
X319689Y121315D01*
X318705Y122300D01*
X317418Y122833D01*
D02*
G37*
G36*
X207988Y116522D02*
X206994D01*
X206075Y116142D01*
X205372Y115438D01*
X204991Y114520D01*
Y113525D01*
X205372Y112606D01*
X206075Y111903D01*
X206994Y111522D01*
X207988D01*
X208907Y111903D01*
X209610Y112606D01*
X209991Y113525D01*
Y114520D01*
X209610Y115438D01*
X208907Y116142D01*
X207988Y116522D01*
D02*
G37*
G36*
X214486Y116490D02*
X213492D01*
X212573Y116110D01*
X211870Y115407D01*
X211489Y114488D01*
Y113493D01*
X211870Y112574D01*
X212573Y111871D01*
X213492Y111490D01*
X214486D01*
X215405Y111871D01*
X216108Y112574D01*
X216489Y113493D01*
Y114488D01*
X216108Y115407D01*
X215405Y116110D01*
X214486Y116490D01*
D02*
G37*
G36*
X201481D02*
X200487D01*
X199568Y116110D01*
X198865Y115407D01*
X198484Y114488D01*
Y113493D01*
X198865Y112574D01*
X199568Y111871D01*
X200487Y111490D01*
X201481D01*
X202400Y111871D01*
X203104Y112574D01*
X203484Y113493D01*
Y114488D01*
X203104Y115407D01*
X202400Y116110D01*
X201481Y116490D01*
D02*
G37*
G36*
X188477D02*
X187482D01*
X186563Y116110D01*
X185860Y115407D01*
X185479Y114488D01*
Y113493D01*
X185860Y112574D01*
X186563Y111871D01*
X187482Y111490D01*
X188477D01*
X189396Y111871D01*
X190099Y112574D01*
X190479Y113493D01*
Y114488D01*
X190099Y115407D01*
X189396Y116110D01*
X188477Y116490D01*
D02*
G37*
G36*
X175497D02*
X174503D01*
X173584Y116110D01*
X172881Y115407D01*
X172500Y114488D01*
Y113493D01*
X172881Y112574D01*
X173584Y111871D01*
X174503Y111490D01*
X175497D01*
X176416Y111871D01*
X177119Y112574D01*
X177500Y113493D01*
Y114488D01*
X177119Y115407D01*
X176416Y116110D01*
X175497Y116490D01*
D02*
G37*
G36*
X162493D02*
X161498D01*
X160579Y116110D01*
X159876Y115407D01*
X159495Y114488D01*
Y113493D01*
X159876Y112574D01*
X160579Y111871D01*
X161498Y111490D01*
X162493D01*
X163411Y111871D01*
X164115Y112574D01*
X164495Y113493D01*
Y114488D01*
X164115Y115407D01*
X163411Y116110D01*
X162493Y116490D01*
D02*
G37*
G36*
X149434Y116477D02*
X148440D01*
X147521Y116096D01*
X146817Y115393D01*
X146437Y114474D01*
Y113480D01*
X146817Y112561D01*
X147521Y111858D01*
X148440Y111477D01*
X149434D01*
X150353Y111858D01*
X151056Y112561D01*
X151437Y113480D01*
Y114474D01*
X151056Y115393D01*
X150353Y116096D01*
X149434Y116477D01*
D02*
G37*
G36*
X252699Y120218D02*
X251307D01*
X250021Y119685D01*
X249036Y118701D01*
X248503Y117414D01*
Y116022D01*
X249036Y114735D01*
X250021Y113751D01*
X251307Y113218D01*
X252699D01*
X253986Y113751D01*
X254260Y114025D01*
X254211Y113907D01*
Y112515D01*
X254744Y111228D01*
X255728Y110244D01*
X257015Y109711D01*
X258407D01*
X259694Y110244D01*
X260678Y111228D01*
X260812Y111551D01*
X261033Y111017D01*
X262017Y110033D01*
X263304Y109500D01*
X264696D01*
X265983Y110033D01*
X266967Y111017D01*
X267500Y112304D01*
Y113696D01*
X266967Y114983D01*
X265983Y115967D01*
X264696Y116500D01*
X263304D01*
X262017Y115967D01*
X261033Y114983D01*
X260899Y114660D01*
X260678Y115193D01*
X259694Y116178D01*
X258407Y116711D01*
X257015D01*
X255728Y116178D01*
X255455Y115904D01*
X255503Y116022D01*
Y117414D01*
X254970Y118701D01*
X253986Y119685D01*
X252699Y120218D01*
D02*
G37*
G36*
X53446Y116500D02*
X52054D01*
X50767Y115967D01*
X49783Y114983D01*
X49250Y113696D01*
Y112304D01*
X49783Y111017D01*
X50767Y110033D01*
X52054Y109500D01*
X53446D01*
X54733Y110033D01*
X55717Y111017D01*
X56250Y112304D01*
Y113696D01*
X55717Y114983D01*
X54733Y115967D01*
X53446Y116500D01*
D02*
G37*
G36*
X40446D02*
X39054D01*
X37767Y115967D01*
X36783Y114983D01*
X36250Y113696D01*
Y112304D01*
X36783Y111017D01*
X37767Y110033D01*
X39054Y109500D01*
X40446D01*
X41733Y110033D01*
X42717Y111017D01*
X43250Y112304D01*
Y113696D01*
X42717Y114983D01*
X41733Y115967D01*
X40446Y116500D01*
D02*
G37*
G36*
X66146Y113337D02*
X64753D01*
X63467Y112804D01*
X62482Y111819D01*
X61949Y110533D01*
Y109141D01*
X62482Y107854D01*
X63467Y106870D01*
X64753Y106337D01*
X66146D01*
X67432Y106870D01*
X68417Y107854D01*
X68949Y109141D01*
Y110533D01*
X68417Y111819D01*
X67432Y112804D01*
X66146Y113337D01*
D02*
G37*
G36*
X122006Y110300D02*
X121012D01*
X120093Y109919D01*
X119390Y109216D01*
X119009Y108297D01*
Y107303D01*
X119390Y106384D01*
X120093Y105681D01*
X121012Y105300D01*
X122006D01*
X122925Y105681D01*
X123628Y106384D01*
X124009Y107303D01*
Y108297D01*
X123628Y109216D01*
X122925Y109919D01*
X122006Y110300D01*
D02*
G37*
G36*
X220933Y110003D02*
X219938D01*
X219020Y109622D01*
X218316Y108919D01*
X217936Y108000D01*
Y107006D01*
X218316Y106087D01*
X219020Y105384D01*
X219938Y105003D01*
X220933D01*
X221852Y105384D01*
X222555Y106087D01*
X222936Y107006D01*
Y108000D01*
X222555Y108919D01*
X221852Y109622D01*
X220933Y110003D01*
D02*
G37*
G36*
X227497Y109965D02*
X226502D01*
X225583Y109584D01*
X224880Y108881D01*
X224499Y107962D01*
Y106968D01*
X224880Y106049D01*
X225583Y105346D01*
X226502Y104965D01*
X227497D01*
X228415Y105346D01*
X229119Y106049D01*
X229499Y106968D01*
Y107962D01*
X229119Y108881D01*
X228415Y109584D01*
X227497Y109965D01*
D02*
G37*
G36*
X168919D02*
X167924D01*
X167006Y109584D01*
X166302Y108881D01*
X165922Y107962D01*
Y106968D01*
X166302Y106049D01*
X167006Y105346D01*
X167924Y104965D01*
X168919D01*
X169838Y105346D01*
X170541Y106049D01*
X170922Y106968D01*
Y107962D01*
X170541Y108881D01*
X169838Y109584D01*
X168919Y109965D01*
D02*
G37*
G36*
X162470Y109934D02*
X161475D01*
X160556Y109554D01*
X159853Y108850D01*
X159472Y107932D01*
Y106937D01*
X159853Y106018D01*
X160556Y105315D01*
X161475Y104934D01*
X162470D01*
X163389Y105315D01*
X164092Y106018D01*
X164472Y106937D01*
Y107932D01*
X164092Y108850D01*
X163389Y109554D01*
X162470Y109934D01*
D02*
G37*
G36*
X155982D02*
X154988D01*
X154069Y109554D01*
X153366Y108850D01*
X152985Y107932D01*
Y106937D01*
X153366Y106018D01*
X154069Y105315D01*
X154988Y104934D01*
X155982D01*
X156901Y105315D01*
X157604Y106018D01*
X157985Y106937D01*
Y107932D01*
X157604Y108850D01*
X156901Y109554D01*
X155982Y109934D01*
D02*
G37*
G36*
X214148Y103775D02*
X213153D01*
X212234Y103395D01*
X211531Y102691D01*
X211151Y101772D01*
Y100778D01*
X211531Y99859D01*
X212234Y99156D01*
X213153Y98775D01*
X214148D01*
X215067Y99156D01*
X215770Y99859D01*
X216150Y100778D01*
Y101772D01*
X215770Y102691D01*
X215067Y103395D01*
X214148Y103775D01*
D02*
G37*
G36*
X233984Y103554D02*
X232989D01*
X232071Y103173D01*
X231367Y102470D01*
X230987Y101551D01*
Y100557D01*
X231367Y99638D01*
X232071Y98934D01*
X232989Y98554D01*
X233984D01*
X234903Y98934D01*
X235606Y99638D01*
X235987Y100557D01*
Y101551D01*
X235606Y102470D01*
X234903Y103173D01*
X233984Y103554D01*
D02*
G37*
G36*
X162470D02*
X161475D01*
X160556Y103173D01*
X159853Y102470D01*
X159472Y101551D01*
Y100557D01*
X159853Y99638D01*
X160556Y98934D01*
X161475Y98554D01*
X162470D01*
X163389Y98934D01*
X164092Y99638D01*
X164472Y100557D01*
Y101551D01*
X164092Y102470D01*
X163389Y103173D01*
X162470Y103554D01*
D02*
G37*
G36*
X201471Y103516D02*
X200476D01*
X199557Y103135D01*
X198854Y102432D01*
X198473Y101513D01*
Y100518D01*
X198854Y99600D01*
X199557Y98896D01*
X200476Y98516D01*
X201471D01*
X202390Y98896D01*
X203093Y99600D01*
X203473Y100518D01*
Y101513D01*
X203093Y102432D01*
X202390Y103135D01*
X201471Y103516D01*
D02*
G37*
G36*
X181970D02*
X180975D01*
X180057Y103135D01*
X179353Y102432D01*
X178973Y101513D01*
Y100518D01*
X179353Y99600D01*
X180057Y98896D01*
X180975Y98516D01*
X181970D01*
X182889Y98896D01*
X183592Y99600D01*
X183973Y100518D01*
Y101513D01*
X183592Y102432D01*
X182889Y103135D01*
X181970Y103516D01*
D02*
G37*
G36*
X240496Y103486D02*
X239501D01*
X238582Y103105D01*
X237879Y102402D01*
X237499Y101483D01*
Y100488D01*
X237879Y99570D01*
X238582Y98866D01*
X239501Y98486D01*
X240496D01*
X241415Y98866D01*
X242118Y99570D01*
X242499Y100488D01*
Y101483D01*
X242118Y102402D01*
X241415Y103105D01*
X240496Y103486D01*
D02*
G37*
G36*
X227491D02*
X226497D01*
X225578Y103105D01*
X224874Y102402D01*
X224494Y101483D01*
Y100488D01*
X224874Y99570D01*
X225578Y98866D01*
X226497Y98486D01*
X227491D01*
X228410Y98866D01*
X229113Y99570D01*
X229494Y100488D01*
Y101483D01*
X229113Y102402D01*
X228410Y103105D01*
X227491Y103486D01*
D02*
G37*
G36*
X207958Y103478D02*
X206963D01*
X206045Y103097D01*
X205341Y102394D01*
X204961Y101475D01*
Y100480D01*
X205341Y99561D01*
X206045Y98858D01*
X206963Y98478D01*
X207958D01*
X208877Y98858D01*
X209580Y99561D01*
X209961Y100480D01*
Y101475D01*
X209580Y102394D01*
X208877Y103097D01*
X207958Y103478D01*
D02*
G37*
G36*
X220971Y103439D02*
X219977D01*
X219058Y103059D01*
X218354Y102355D01*
X217974Y101437D01*
Y100442D01*
X218354Y99523D01*
X219058Y98820D01*
X219977Y98439D01*
X220971D01*
X221890Y98820D01*
X222593Y99523D01*
X222974Y100442D01*
Y101437D01*
X222593Y102355D01*
X221890Y103059D01*
X220971Y103439D01*
D02*
G37*
G36*
X175483D02*
X174488D01*
X173569Y103059D01*
X172866Y102355D01*
X172485Y101437D01*
Y100442D01*
X172866Y99523D01*
X173569Y98820D01*
X174488Y98439D01*
X175483D01*
X176402Y98820D01*
X177105Y99523D01*
X177485Y100442D01*
Y101437D01*
X177105Y102355D01*
X176402Y103059D01*
X175483Y103439D01*
D02*
G37*
G36*
X168995D02*
X168001D01*
X167082Y103059D01*
X166379Y102355D01*
X165998Y101437D01*
Y100442D01*
X166379Y99523D01*
X167082Y98820D01*
X168001Y98439D01*
X168995D01*
X169914Y98820D01*
X170617Y99523D01*
X170998Y100442D01*
Y101437D01*
X170617Y102355D01*
X169914Y103059D01*
X168995Y103439D01*
D02*
G37*
G36*
X201445Y97076D02*
X200450D01*
X199531Y96695D01*
X198828Y95992D01*
X198447Y95073D01*
Y94078D01*
X198828Y93160D01*
X199531Y92456D01*
X200450Y92076D01*
X201445D01*
X202364Y92456D01*
X203067Y93160D01*
X203447Y94078D01*
Y95073D01*
X203067Y95992D01*
X202364Y96695D01*
X201445Y97076D01*
D02*
G37*
G36*
X175554Y97061D02*
X174560D01*
X173641Y96681D01*
X172938Y95977D01*
X172557Y95058D01*
Y94064D01*
X172938Y93145D01*
X173641Y92442D01*
X174560Y92061D01*
X175554D01*
X176473Y92442D01*
X177176Y93145D01*
X177557Y94064D01*
Y95058D01*
X177176Y95977D01*
X176473Y96681D01*
X175554Y97061D01*
D02*
G37*
G36*
X156006Y97057D02*
X155012D01*
X154093Y96676D01*
X153390Y95973D01*
X153009Y95054D01*
Y94060D01*
X153390Y93141D01*
X154093Y92437D01*
X155012Y92057D01*
X156006D01*
X156925Y92437D01*
X157628Y93141D01*
X158009Y94060D01*
Y95054D01*
X157628Y95973D01*
X156925Y96676D01*
X156006Y97057D01*
D02*
G37*
G36*
X182110Y97009D02*
X181116D01*
X180197Y96628D01*
X179494Y95925D01*
X179113Y95006D01*
Y94011D01*
X179494Y93092D01*
X180197Y92389D01*
X181116Y92009D01*
X182110D01*
X183029Y92389D01*
X183732Y93092D01*
X184113Y94011D01*
Y95006D01*
X183732Y95925D01*
X183029Y96628D01*
X182110Y97009D01*
D02*
G37*
G36*
X220894Y96972D02*
X219900D01*
X218981Y96592D01*
X218277Y95888D01*
X217897Y94970D01*
Y93975D01*
X218277Y93056D01*
X218981Y92353D01*
X219900Y91972D01*
X220894D01*
X221813Y92353D01*
X222516Y93056D01*
X222897Y93975D01*
Y94970D01*
X222516Y95888D01*
X221813Y96592D01*
X220894Y96972D01*
D02*
G37*
G36*
X135535Y96105D02*
X134541D01*
X133622Y95724D01*
X132919Y95021D01*
X132538Y94102D01*
Y93108D01*
X132919Y92189D01*
X133622Y91486D01*
X134541Y91105D01*
X135535D01*
X136454Y91486D01*
X137157Y92189D01*
X137538Y93108D01*
Y94102D01*
X137157Y95021D01*
X136454Y95724D01*
X135535Y96105D01*
D02*
G37*
G36*
X129638Y96022D02*
X128643D01*
X127725Y95641D01*
X127021Y94938D01*
X126641Y94019D01*
Y93025D01*
X127021Y92106D01*
X127725Y91403D01*
X128643Y91022D01*
X129638D01*
X130557Y91403D01*
X131260Y92106D01*
X131641Y93025D01*
Y94019D01*
X131260Y94938D01*
X130557Y95641D01*
X129638Y96022D01*
D02*
G37*
G36*
X167820Y94479D02*
X166826D01*
X165907Y94099D01*
X165204Y93395D01*
X164823Y92476D01*
Y91482D01*
X165204Y90563D01*
X165907Y89860D01*
X166826Y89479D01*
X167820D01*
X168739Y89860D01*
X169443Y90563D01*
X169823Y91482D01*
Y92476D01*
X169443Y93395D01*
X168739Y94099D01*
X167820Y94479D01*
D02*
G37*
G36*
X199801Y91355D02*
X198806D01*
X197888Y90975D01*
X197184Y90271D01*
X196804Y89353D01*
Y88358D01*
X197184Y87439D01*
X197888Y86736D01*
X198806Y86355D01*
X199801D01*
X200720Y86736D01*
X201423Y87439D01*
X201804Y88358D01*
Y89353D01*
X201423Y90271D01*
X200720Y90975D01*
X199801Y91355D01*
D02*
G37*
G36*
X226576Y91288D02*
X225581D01*
X224662Y90907D01*
X223959Y90204D01*
X223578Y89285D01*
Y88291D01*
X223959Y87372D01*
X224662Y86669D01*
X225581Y86288D01*
X226576D01*
X227495Y86669D01*
X228198Y87372D01*
X228578Y88291D01*
Y89285D01*
X228198Y90204D01*
X227495Y90907D01*
X226576Y91288D01*
D02*
G37*
G36*
X209546Y90674D02*
X208551D01*
X207633Y90293D01*
X206929Y89590D01*
X206549Y88671D01*
Y87676D01*
X206929Y86758D01*
X207633Y86054D01*
X208551Y85674D01*
X209546D01*
X210465Y86054D01*
X211168Y86758D01*
X211549Y87676D01*
Y88671D01*
X211168Y89590D01*
X210465Y90293D01*
X209546Y90674D01*
D02*
G37*
G36*
X92676Y92413D02*
X91284D01*
X89997Y91880D01*
X89012Y90896D01*
X88480Y89609D01*
Y88217D01*
X89012Y86930D01*
X89997Y85946D01*
X91284Y85413D01*
X92676D01*
X93962Y85946D01*
X94947Y86930D01*
X95480Y88217D01*
Y89609D01*
X94947Y90896D01*
X93962Y91880D01*
X92676Y92413D01*
D02*
G37*
G36*
X144247Y88190D02*
X143253D01*
X142334Y87809D01*
X141631Y87106D01*
X141250Y86187D01*
Y85192D01*
X141631Y84274D01*
X142334Y83570D01*
X143253Y83190D01*
X144247D01*
X145166Y83570D01*
X145869Y84274D01*
X146250Y85192D01*
Y86187D01*
X145869Y87106D01*
X145166Y87809D01*
X144247Y88190D01*
D02*
G37*
G36*
X121497Y85414D02*
X120503D01*
X119584Y85033D01*
X118881Y84330D01*
X118500Y83411D01*
Y82416D01*
X118881Y81498D01*
X119584Y80794D01*
X120229Y80527D01*
X119937D01*
X118651Y79994D01*
X117666Y79010D01*
X117133Y77723D01*
Y76331D01*
X117666Y75045D01*
X118651Y74060D01*
X119937Y73527D01*
X121329D01*
X122616Y74060D01*
X123600Y75045D01*
X124133Y76331D01*
Y76357D01*
X125420Y75825D01*
X126812D01*
X128098Y76357D01*
X129083Y77342D01*
X129616Y78628D01*
Y80021D01*
X129083Y81307D01*
X128098Y82292D01*
X126812Y82825D01*
X125420D01*
X124133Y82292D01*
X123148Y81307D01*
X122616Y80021D01*
Y79994D01*
X121550Y80436D01*
X122416Y80794D01*
X123119Y81498D01*
X123500Y82416D01*
Y83411D01*
X123119Y84330D01*
X122416Y85033D01*
X121497Y85414D01*
D02*
G37*
G36*
X227371Y81655D02*
X225979D01*
X224692Y81122D01*
X223708Y80137D01*
X223175Y78851D01*
Y77459D01*
X223708Y76172D01*
X224692Y75188D01*
X225979Y74655D01*
X227371D01*
X228658Y75188D01*
X229642Y76172D01*
X230175Y77459D01*
Y78851D01*
X229642Y80137D01*
X228658Y81122D01*
X227371Y81655D01*
D02*
G37*
G36*
X113877Y79311D02*
X112485D01*
X111198Y78778D01*
X110214Y77793D01*
X109681Y76507D01*
Y75115D01*
X110214Y73828D01*
X111198Y72844D01*
X112485Y72311D01*
X113877D01*
X115163Y72844D01*
X116148Y73828D01*
X116681Y75115D01*
Y76507D01*
X116148Y77793D01*
X115163Y78778D01*
X113877Y79311D01*
D02*
G37*
G36*
X206934Y70852D02*
X205542D01*
X204256Y70319D01*
X203271Y69334D01*
X203188Y69134D01*
X202491Y69832D01*
X201205Y70364D01*
X199812D01*
X198526Y69832D01*
X197541Y68847D01*
X197008Y67561D01*
Y66168D01*
X197541Y64882D01*
X198526Y63897D01*
X199812Y63365D01*
X201205D01*
X202491Y63897D01*
X203476Y64882D01*
X203558Y65082D01*
X204256Y64385D01*
X205542Y63852D01*
X206934D01*
X208221Y64385D01*
X209205Y65369D01*
X209738Y66656D01*
Y68048D01*
X209205Y69334D01*
X208221Y70319D01*
X206934Y70852D01*
D02*
G37*
G36*
X225294Y70565D02*
X223902D01*
X222616Y70032D01*
X221690Y69107D01*
X220831Y69966D01*
X219544Y70498D01*
X218152D01*
X216866Y69966D01*
X215881Y68981D01*
X215348Y67695D01*
Y66302D01*
X215881Y65016D01*
X216866Y64031D01*
X218152Y63498D01*
X219544D01*
X220831Y64031D01*
X221757Y64957D01*
X222616Y64098D01*
X223902Y63565D01*
X225294D01*
X226581Y64098D01*
X227565Y65083D01*
X228098Y66369D01*
Y67762D01*
X227565Y69048D01*
X226581Y70032D01*
X225294Y70565D01*
D02*
G37*
G36*
X180196Y74250D02*
X178804D01*
X177517Y73717D01*
X176533Y72733D01*
X176000Y71446D01*
Y70054D01*
X176533Y68767D01*
X177517Y67783D01*
X178804Y67250D01*
X180196D01*
X181483Y67783D01*
X182467Y68767D01*
X183000Y70054D01*
Y71446D01*
X182467Y72733D01*
X181483Y73717D01*
X180196Y74250D01*
D02*
G37*
G36*
X172635Y70819D02*
X171243D01*
X169956Y70286D01*
X168972Y69302D01*
X168439Y68015D01*
Y66623D01*
X168972Y65336D01*
X169956Y64352D01*
X171243Y63819D01*
X172635D01*
X173922Y64352D01*
X174906Y65336D01*
X175439Y66623D01*
Y68015D01*
X174906Y69302D01*
X173922Y70286D01*
X172635Y70819D01*
D02*
G37*
G36*
X271199Y63147D02*
X269807D01*
X268520Y62614D01*
X267536Y61630D01*
X267003Y60343D01*
Y58951D01*
X267536Y57664D01*
X268520Y56680D01*
X269807Y56147D01*
X271199D01*
X272485Y56680D01*
X273470Y57664D01*
X274003Y58951D01*
Y60343D01*
X273470Y61630D01*
X272485Y62614D01*
X271199Y63147D01*
D02*
G37*
G36*
X302219Y62916D02*
X300827D01*
X299540Y62383D01*
X298556Y61399D01*
X298023Y60113D01*
Y58720D01*
X298556Y57434D01*
X299540Y56449D01*
X300827Y55916D01*
X302219D01*
X303505Y56449D01*
X304490Y57434D01*
X305023Y58720D01*
Y60113D01*
X304490Y61399D01*
X303505Y62383D01*
X302219Y62916D01*
D02*
G37*
G36*
X257185Y60272D02*
X255793D01*
X254506Y59740D01*
X253522Y58755D01*
X252989Y57469D01*
Y56076D01*
X253522Y54790D01*
X254506Y53805D01*
X255793Y53273D01*
X257185D01*
X258471Y53805D01*
X259456Y54790D01*
X259651Y55260D01*
Y53967D01*
X260184Y52681D01*
X261168Y51696D01*
X262454Y51163D01*
X263847D01*
X265133Y51696D01*
X266118Y52681D01*
X266651Y53967D01*
Y55360D01*
X266118Y56646D01*
X265133Y57631D01*
X263847Y58163D01*
X262454D01*
X261168Y57631D01*
X260184Y56646D01*
X259989Y56176D01*
Y57469D01*
X259456Y58755D01*
X258471Y59740D01*
X257185Y60272D01*
D02*
G37*
G36*
X323484Y55332D02*
X322092D01*
X320805Y54799D01*
X319821Y53815D01*
X319288Y52529D01*
Y51136D01*
X319821Y49850D01*
X320805Y48865D01*
X322092Y48332D01*
X323484D01*
X324771Y48865D01*
X325755Y49850D01*
X326288Y51136D01*
Y52529D01*
X325755Y53815D01*
X324771Y54799D01*
X323484Y55332D01*
D02*
G37*
G36*
X285068Y54883D02*
X283675D01*
X282389Y54350D01*
X281404Y53366D01*
X280871Y52079D01*
Y50687D01*
X281404Y49401D01*
X282389Y48416D01*
X283675Y47883D01*
X285068D01*
X286354Y48416D01*
X287339Y49401D01*
X287871Y50687D01*
Y52079D01*
X287339Y53366D01*
X286354Y54350D01*
X285068Y54883D01*
D02*
G37*
G36*
X311263Y53683D02*
X309870D01*
X308584Y53151D01*
X307599Y52166D01*
X307067Y50880D01*
Y49487D01*
X307599Y48201D01*
X308584Y47216D01*
X309870Y46683D01*
X311263D01*
X312549Y47216D01*
X313534Y48201D01*
X314067Y49487D01*
Y50880D01*
X313534Y52166D01*
X312549Y53151D01*
X311263Y53683D01*
D02*
G37*
G36*
X263772Y48480D02*
X262380D01*
X261093Y47947D01*
X260109Y46962D01*
X259576Y45676D01*
Y44283D01*
X260109Y42997D01*
X261093Y42013D01*
X262380Y41480D01*
X263772D01*
X265058Y42013D01*
X266043Y42997D01*
X266576Y44283D01*
Y45676D01*
X266043Y46962D01*
X265058Y47947D01*
X263772Y48480D01*
D02*
G37*
G36*
X145263Y47433D02*
X143870D01*
X142584Y46900D01*
X141600Y45916D01*
X141067Y44630D01*
Y43237D01*
X141600Y41951D01*
X142584Y40966D01*
X143870Y40433D01*
X145263D01*
X146549Y40966D01*
X147534Y41951D01*
X148067Y43237D01*
Y44630D01*
X147534Y45916D01*
X146549Y46900D01*
X145263Y47433D01*
D02*
G37*
G36*
X193807Y49333D02*
X192415D01*
X191129Y48800D01*
X190144Y47816D01*
X189611Y46529D01*
Y45137D01*
X189871Y44510D01*
X189284D01*
X187997Y43977D01*
X187013Y42993D01*
X186480Y41706D01*
Y40314D01*
X187013Y39027D01*
X187997Y38043D01*
X189284Y37510D01*
X190676D01*
X191963Y38043D01*
X192947Y39027D01*
X193480Y40314D01*
Y41706D01*
X193220Y42333D01*
X193807D01*
X195094Y42866D01*
X196078Y43851D01*
X196611Y45137D01*
Y46529D01*
X196078Y47816D01*
X195094Y48800D01*
X193807Y49333D01*
D02*
G37*
G36*
X278461Y43901D02*
X277069D01*
X275782Y43368D01*
X274798Y42383D01*
X274265Y41097D01*
Y39704D01*
X274798Y38418D01*
X275782Y37434D01*
X277069Y36901D01*
X278461D01*
X279748Y37434D01*
X280732Y38418D01*
X281265Y39704D01*
Y41097D01*
X280732Y42383D01*
X279748Y43368D01*
X278461Y43901D01*
D02*
G37*
G36*
X88688Y49238D02*
X87296D01*
X86009Y48705D01*
X85025Y47720D01*
X84492Y46434D01*
Y45042D01*
X85025Y43755D01*
X86009Y42771D01*
X86110Y42729D01*
X85874Y42631D01*
X84890Y41646D01*
X84357Y40360D01*
Y38968D01*
X84890Y37681D01*
X85874Y36697D01*
X87161Y36164D01*
X88553D01*
X89839Y36697D01*
X90824Y37681D01*
X91357Y38968D01*
Y40360D01*
X90824Y41646D01*
X89839Y42631D01*
X89738Y42673D01*
X89974Y42771D01*
X90959Y43755D01*
X91492Y45042D01*
Y46434D01*
X90959Y47720D01*
X89974Y48705D01*
X88688Y49238D01*
D02*
G37*
G36*
X54524Y38641D02*
X53132D01*
X51846Y38108D01*
X50861Y37124D01*
X50328Y35837D01*
Y34445D01*
X50861Y33158D01*
X51846Y32174D01*
X53132Y31641D01*
X54524D01*
X55811Y32174D01*
X56796Y33158D01*
X57328Y34445D01*
Y35837D01*
X56796Y37124D01*
X55811Y38108D01*
X54524Y38641D01*
D02*
G37*
G36*
X27785Y38627D02*
X26392D01*
X25106Y38094D01*
X24121Y37109D01*
X23589Y35823D01*
Y34431D01*
X24121Y33144D01*
X25106Y32160D01*
X26392Y31627D01*
X27785D01*
X29071Y32160D01*
X30056Y33144D01*
X30589Y34431D01*
Y35823D01*
X30056Y37109D01*
X29071Y38094D01*
X27785Y38627D01*
D02*
G37*
G36*
X65987Y38588D02*
X64595D01*
X63308Y38055D01*
X62324Y37071D01*
X61791Y35784D01*
Y34392D01*
X62324Y33106D01*
X63308Y32121D01*
X64595Y31588D01*
X65987D01*
X67274Y32121D01*
X68258Y33106D01*
X68791Y34392D01*
Y35784D01*
X68258Y37071D01*
X67274Y38055D01*
X65987Y38588D01*
D02*
G37*
G36*
X221911Y36821D02*
X220519D01*
X219233Y36289D01*
X218248Y35304D01*
X217715Y34018D01*
Y32625D01*
X218248Y31339D01*
X219233Y30354D01*
X220519Y29821D01*
X221911D01*
X223198Y30354D01*
X224182Y31339D01*
X224715Y32625D01*
Y34018D01*
X224182Y35304D01*
X223198Y36289D01*
X221911Y36821D01*
D02*
G37*
G36*
X336551Y30127D02*
X334761D01*
X333106Y29441D01*
X331841Y28176D01*
X331156Y26522D01*
Y24731D01*
X331841Y23077D01*
X333106Y21812D01*
X334761Y21126D01*
X336551D01*
X338205Y21812D01*
X339470Y23077D01*
X340156Y24731D01*
Y26522D01*
X339470Y28176D01*
X338205Y29441D01*
X336551Y30127D01*
D02*
G37*
%LPD*%
D83*
X170208Y209961D02*
D03*
X147810Y355087D02*
D03*
X107069Y476579D02*
D03*
X47415Y425000D02*
D03*
X343202Y122935D02*
D03*
X68369Y444322D02*
D03*
X88315D02*
D03*
X222056Y405419D02*
D03*
X161977Y366835D02*
D03*
Y330376D02*
D03*
X142215Y392180D02*
D03*
X110198Y144971D02*
D03*
X270000Y205000D02*
D03*
X272250Y405000D02*
D03*
X350000Y500000D02*
D03*
Y220000D02*
D03*
Y180000D02*
D03*
Y100000D02*
D03*
Y20000D02*
D03*
X330000Y500000D02*
D03*
X340000Y480000D02*
D03*
Y280000D02*
D03*
Y200000D02*
D03*
X330000Y140000D02*
D03*
Y100000D02*
D03*
Y60000D02*
D03*
X320000Y480000D02*
D03*
X310000Y420000D02*
D03*
Y340000D02*
D03*
Y100000D02*
D03*
X320000Y80000D02*
D03*
X310000Y60000D02*
D03*
X300000Y480000D02*
D03*
Y440000D02*
D03*
X290000Y140000D02*
D03*
X300000Y80000D02*
D03*
X270000Y500000D02*
D03*
Y340000D02*
D03*
X280000Y280000D02*
D03*
Y240000D02*
D03*
X270000Y220000D02*
D03*
X280000Y120000D02*
D03*
Y80000D02*
D03*
X250000Y500000D02*
D03*
X230000D02*
D03*
X210000D02*
D03*
Y340000D02*
D03*
Y220000D02*
D03*
Y20000D02*
D03*
X190000Y500000D02*
D03*
Y20000D02*
D03*
X180000Y320000D02*
D03*
Y40000D02*
D03*
X170000Y20000D02*
D03*
X160000Y400000D02*
D03*
X150000Y380000D02*
D03*
X160000Y40000D02*
D03*
X110000Y300000D02*
D03*
Y260000D02*
D03*
X100000Y360000D02*
D03*
X90000Y300000D02*
D03*
X100000Y280000D02*
D03*
Y240000D02*
D03*
X70000Y340000D02*
D03*
Y260000D02*
D03*
X50000Y340000D02*
D03*
X60000Y320000D02*
D03*
X50000Y260000D02*
D03*
Y20000D02*
D03*
X40000Y400000D02*
D03*
Y360000D02*
D03*
Y280000D02*
D03*
X30000Y180000D02*
D03*
X50051Y168990D02*
D03*
X258349Y471035D02*
D03*
X198162Y468884D02*
D03*
X260867Y419227D02*
D03*
X125000Y422250D02*
D03*
X125454Y45784D02*
D03*
X215257Y42320D02*
D03*
X315561Y190277D02*
D03*
X289727Y236184D02*
D03*
X315998Y221408D02*
D03*
X198170Y48568D02*
D03*
X104362Y75159D02*
D03*
X183071Y48500D02*
D03*
X168038Y48584D02*
D03*
X153006Y48672D02*
D03*
X137998Y48487D02*
D03*
X286750Y454250D02*
D03*
X328250Y356497D02*
D03*
X351019Y458696D02*
D03*
X354735Y449264D02*
D03*
X317085Y442665D02*
D03*
X351820Y398425D02*
D03*
X354097Y387263D02*
D03*
X327683Y417662D02*
D03*
X315363Y380016D02*
D03*
X303354Y365133D02*
D03*
X298167Y429822D02*
D03*
X297971Y391498D02*
D03*
X335006Y307987D02*
D03*
X334371Y343050D02*
D03*
X323399Y307396D02*
D03*
X336402Y261322D02*
D03*
X323433Y278521D02*
D03*
X322176Y265123D02*
D03*
X313444Y316653D02*
D03*
X297921Y338514D02*
D03*
X291714Y291351D02*
D03*
X291328Y272436D02*
D03*
X285737Y269840D02*
D03*
X235895Y454922D02*
D03*
X266343Y430591D02*
D03*
X265000Y425000D02*
D03*
X245000Y430000D02*
D03*
X214900Y424829D02*
D03*
X214850Y430591D02*
D03*
X205451Y417313D02*
D03*
X274880Y365412D02*
D03*
X274730Y359571D02*
D03*
X264251Y354455D02*
D03*
X257862Y269949D02*
D03*
X238712Y348204D02*
D03*
X223927Y329740D02*
D03*
X196347Y380465D02*
D03*
X201770Y317460D02*
D03*
X229674Y306479D02*
D03*
X215644Y313721D02*
D03*
X203955Y209823D02*
D03*
X227378Y178391D02*
D03*
X239999Y172487D02*
D03*
X226994Y140000D02*
D03*
Y146502D02*
D03*
Y133498D02*
D03*
X220491Y146502D02*
D03*
Y166010D02*
D03*
Y133498D02*
D03*
Y126995D02*
D03*
Y113990D02*
D03*
X353258Y74372D02*
D03*
X349141Y55436D02*
D03*
X340420Y31329D02*
D03*
X330720Y31046D02*
D03*
X340754Y20601D02*
D03*
X330772Y20343D02*
D03*
X265277Y98125D02*
D03*
X233496Y94509D02*
D03*
X250350Y39472D02*
D03*
X246073Y74838D02*
D03*
X207487Y185491D02*
D03*
Y166010D02*
D03*
X213989Y159507D02*
D03*
Y146502D02*
D03*
Y166010D02*
D03*
X207487Y146502D02*
D03*
X201066Y191889D02*
D03*
X201180Y179143D02*
D03*
X200984Y185491D02*
D03*
Y166010D02*
D03*
Y146502D02*
D03*
X200966Y172433D02*
D03*
X213989Y133498D02*
D03*
Y120493D02*
D03*
X207487D02*
D03*
X213989Y107488D02*
D03*
X207487D02*
D03*
Y133498D02*
D03*
X200984Y120493D02*
D03*
Y133498D02*
D03*
X184552Y381654D02*
D03*
X181547Y468899D02*
D03*
X175000Y279500D02*
D03*
X192577Y199753D02*
D03*
X181556Y191954D02*
D03*
X157487Y425322D02*
D03*
X158754Y209755D02*
D03*
X168498Y191994D02*
D03*
X152404Y227486D02*
D03*
X148998Y192075D02*
D03*
X194410Y185631D02*
D03*
Y178876D02*
D03*
X187979Y185491D02*
D03*
X181556Y185424D02*
D03*
X181477Y178989D02*
D03*
X187979Y172487D02*
D03*
X181477D02*
D03*
Y166010D02*
D03*
X168490Y185451D02*
D03*
X155493Y172487D02*
D03*
X161995D02*
D03*
X175000Y166010D02*
D03*
X168498D02*
D03*
X131081Y320440D02*
D03*
X124316Y392283D02*
D03*
X105909Y347526D02*
D03*
X120061Y241926D02*
D03*
X140292Y237481D02*
D03*
X133102Y210123D02*
D03*
X127638Y203116D02*
D03*
X97091Y182403D02*
D03*
X52754Y375167D02*
D03*
X79136Y375123D02*
D03*
X49540Y194249D02*
D03*
X194482Y146502D02*
D03*
X187979D02*
D03*
X181477Y153005D02*
D03*
X187979Y133498D02*
D03*
X194482D02*
D03*
X181477Y140000D02*
D03*
X175000Y153005D02*
D03*
Y140000D02*
D03*
X168498Y159507D02*
D03*
X161995Y146502D02*
D03*
Y133498D02*
D03*
Y126995D02*
D03*
X194482Y120493D02*
D03*
Y113990D02*
D03*
X187979Y120493D02*
D03*
X181477Y113990D02*
D03*
X187979Y107488D02*
D03*
X175000D02*
D03*
X168498Y120493D02*
D03*
Y113990D02*
D03*
X181477Y107488D02*
D03*
X155493Y140000D02*
D03*
Y120493D02*
D03*
X136057Y146916D02*
D03*
X155493Y113990D02*
D03*
X148990Y107488D02*
D03*
X142488D02*
D03*
X129583Y107447D02*
D03*
X81205Y149554D02*
D03*
X95593Y119935D02*
D03*
X106132Y90870D02*
D03*
X27210Y113108D02*
D03*
X45679Y74858D02*
D03*
Y64858D02*
D03*
Y84859D02*
D03*
X30679D02*
D03*
Y64858D02*
D03*
Y74858D02*
D03*
X99539Y40540D02*
D03*
X57518Y18778D02*
D03*
X23510Y18461D02*
D03*
X290569Y172267D02*
D03*
X298768Y38385D02*
D03*
X60679Y64858D02*
D03*
Y74858D02*
D03*
Y84859D02*
D03*
D110*
X20757Y225308D02*
D03*
Y138795D02*
D03*
X343093Y161059D02*
D03*
Y247572D02*
D03*
D111*
X62566Y225308D02*
D03*
Y138795D02*
D03*
X301284Y161059D02*
D03*
Y247572D02*
D03*
D112*
X206206Y368130D02*
D03*
Y379130D02*
D03*
X326000Y302500D02*
D03*
Y292500D02*
D03*
X316000D02*
D03*
Y302500D02*
D03*
X321000Y297500D02*
D03*
X240000Y294500D02*
D03*
Y305500D02*
D03*
D113*
X295500Y490000D02*
D03*
X294601Y107402D02*
D03*
X69736Y322009D02*
D03*
D115*
X352425Y263564D02*
D03*
X352454Y344100D02*
D03*
X352545Y294740D02*
D03*
M02*
