G04*
G04 #@! TF.GenerationSoftware,Altium Limited,Altium Designer,26.8.1 (31)*
G04*
G04 Layer_Physical_Order=4*
G04 Layer_Color=6736896*
G04 Board_Origin=4724409|16535433*
%FSLAX44Y44*%
%MOMM*%
G71*
G04*
G04 #@! TF.SameCoordinates,E0AC438D-F0EF-4517-8063-BA14263289D6*
G04*
G04*
G04 #@! TF.FilePolarity,Positive*
G04*
G01*
G75*
%ADD94C,0.4501*%
%ADD98C,0.5080*%
%ADD102C,1.0160*%
%ADD120C,0.6000*%
%ADD121O,1.8009X1.1989*%
%ADD122O,1.9990X1.1989*%
%ADD123C,0.5000*%
%ADD124C,1.2000*%
%ADD125R,1.2000X1.2000*%
%ADD126C,1.0000*%
%ADD128C,0.9000*%
G36*
X466382Y180685D02*
X465962Y180511D01*
X465259Y179807D01*
X464878Y178889D01*
Y177894D01*
X465259Y176975D01*
X465898Y176336D01*
X465213Y170169D01*
X462617Y167412D01*
X462611Y167426D01*
X461908Y168129D01*
X460989Y168510D01*
X459994D01*
X459075Y168129D01*
X458372Y167426D01*
X457991Y166507D01*
Y165512D01*
X458372Y164594D01*
X459075Y163890D01*
X459236Y163824D01*
X456229Y160631D01*
X456108Y160923D01*
X455405Y161627D01*
X454486Y162007D01*
X453492D01*
X452573Y161627D01*
X451870Y160923D01*
X451489Y160005D01*
Y159010D01*
X451870Y158091D01*
X452573Y157388D01*
X453006Y157209D01*
X451161Y155250D01*
X448599D01*
X447984Y155505D01*
X446989D01*
X446374Y155250D01*
X442097D01*
X441482Y155505D01*
X440487D01*
X439872Y155250D01*
X435594D01*
X434979Y155505D01*
X433984D01*
X433369Y155250D01*
X429092D01*
X428477Y155505D01*
X427482D01*
X426867Y155250D01*
X422589D01*
X421974Y155505D01*
X420980D01*
X420365Y155250D01*
X416112D01*
X415497Y155505D01*
X414503D01*
X413888Y155250D01*
X409750D01*
Y157320D01*
X409914Y157388D01*
X410617Y158091D01*
X410998Y159010D01*
Y160005D01*
X410617Y160923D01*
X409914Y161627D01*
X409750Y161694D01*
Y161750D01*
X412797Y164797D01*
X412881Y164594D01*
X413584Y163890D01*
X414503Y163510D01*
X415497D01*
X416416Y163890D01*
X417119Y164594D01*
X417288Y165000D01*
X419189D01*
X419358Y164594D01*
X420061Y163890D01*
X420980Y163510D01*
X421974D01*
X422893Y163890D01*
X423596Y164594D01*
X423765Y165000D01*
X425692D01*
X425860Y164594D01*
X426563Y163890D01*
X427482Y163510D01*
X428477D01*
X429395Y163890D01*
X430099Y164594D01*
X430267Y165000D01*
X432500D01*
Y177251D01*
X432994Y176757D01*
X433913Y176376D01*
X434908D01*
X435826Y176757D01*
X436530Y177460D01*
X436910Y178379D01*
Y179373D01*
X436530Y180292D01*
X435826Y180995D01*
X434908Y181376D01*
X433913D01*
X432994Y180995D01*
X432500Y180501D01*
Y182361D01*
X412048D01*
X411559Y194551D01*
X411845D01*
X414218Y195023D01*
X416229Y196367D01*
X417053Y197600D01*
Y197240D01*
X417433Y196322D01*
X418137Y195618D01*
X419055Y195238D01*
X420050D01*
X420969Y195618D01*
X421672Y196322D01*
X422053Y197240D01*
Y198235D01*
X421672Y199154D01*
X421388Y199437D01*
X441762Y207067D01*
X441973Y206856D01*
X443259Y206324D01*
X444652D01*
X445938Y206856D01*
X446923Y207841D01*
X447455Y209127D01*
Y210520D01*
X446923Y211806D01*
X446864Y211864D01*
X461750Y226750D01*
X471500D01*
X466382Y180685D01*
D02*
G37*
G36*
X490955Y246734D02*
X490342Y244718D01*
X498967Y214000D01*
X498563D01*
X497276Y213467D01*
X496292Y212483D01*
X495759Y211196D01*
Y209804D01*
X496292Y208517D01*
X497276Y207533D01*
X498563Y207000D01*
X499955D01*
X500831Y207363D01*
X507250Y184500D01*
Y147199D01*
X507033Y146982D01*
X506500Y145696D01*
Y144304D01*
X507033Y143017D01*
X507250Y142800D01*
Y138969D01*
X505973Y139499D01*
X504580D01*
X503294Y138966D01*
X502309Y137981D01*
X501777Y136695D01*
Y135302D01*
X502309Y134016D01*
X502774Y133551D01*
X501856D01*
X500569Y133019D01*
X499585Y132034D01*
X499052Y130747D01*
Y129355D01*
X499585Y128069D01*
X500569Y127084D01*
X501493Y126702D01*
X500654Y125863D01*
X500121Y124576D01*
Y123184D01*
X500654Y121898D01*
X501638Y120913D01*
X502925Y120380D01*
X504317D01*
X505604Y120913D01*
X506588Y121898D01*
X507121Y123184D01*
Y124576D01*
X506588Y125863D01*
X505604Y126847D01*
X504680Y127230D01*
X505519Y128069D01*
X506052Y129355D01*
Y130747D01*
X505519Y132034D01*
X505054Y132499D01*
X505973D01*
X507250Y133028D01*
Y101095D01*
X505973Y101624D01*
X504580D01*
X503294Y101092D01*
X502309Y100107D01*
X501777Y98821D01*
Y97428D01*
X502309Y96142D01*
X503294Y95157D01*
X504580Y94625D01*
X505973D01*
X507250Y95154D01*
Y61000D01*
X434073D01*
X414847Y65278D01*
X414906Y65336D01*
X415439Y66623D01*
Y68015D01*
X414906Y69302D01*
X413922Y70286D01*
X412635Y70819D01*
X411243D01*
X409956Y70286D01*
X408972Y69302D01*
X408439Y68015D01*
Y66703D01*
X389938Y70819D01*
X384527Y83306D01*
X385166Y83570D01*
X385869Y84274D01*
X386250Y85192D01*
Y86187D01*
X385869Y87106D01*
X385166Y87809D01*
X384247Y88190D01*
X383253D01*
X382539Y87894D01*
X374000Y107600D01*
Y138841D01*
X368571Y152430D01*
X369075Y151927D01*
X369994Y151546D01*
X370988D01*
X371907Y151927D01*
X372610Y152630D01*
X372991Y153549D01*
Y154543D01*
X372610Y155462D01*
X371907Y156165D01*
X370988Y156546D01*
X369994D01*
X369075Y156165D01*
X368371Y155462D01*
X367991Y154543D01*
Y153882D01*
X357682Y179686D01*
X358175Y184500D01*
X398684Y206255D01*
X399450D01*
X399943Y206459D01*
X405201Y203113D01*
X410931Y195373D01*
X410794Y195316D01*
X410785Y195295D01*
X410764Y195285D01*
X410628Y194915D01*
X410477Y194551D01*
X410486Y194529D01*
X410478Y194508D01*
X410518Y193509D01*
X409914Y194113D01*
X408995Y194494D01*
X408000D01*
X407081Y194113D01*
X406378Y193410D01*
X405998Y192491D01*
Y191497D01*
X406378Y190578D01*
X407081Y189874D01*
X408000Y189494D01*
X408995D01*
X409914Y189874D01*
X410617Y190578D01*
X410634Y190618D01*
X410803Y186401D01*
X410610Y186867D01*
X409906Y187570D01*
X408987Y187951D01*
X407993D01*
X407074Y187570D01*
X406371Y186867D01*
X405990Y185948D01*
Y184954D01*
X406371Y184035D01*
X407074Y183332D01*
X407993Y182951D01*
X408987D01*
X409906Y183332D01*
X410610Y184035D01*
X410872Y184669D01*
X410966Y182318D01*
X411132Y181960D01*
X411282Y181596D01*
X411304Y181587D01*
X411314Y181566D01*
X411684Y181430D01*
X412048Y181279D01*
X414273D01*
X413628Y181012D01*
X412925Y180308D01*
X412544Y179390D01*
Y178395D01*
X412925Y177476D01*
X413628Y176773D01*
X414547Y176392D01*
X415541D01*
X416460Y176773D01*
X417164Y177476D01*
X417544Y178395D01*
Y179390D01*
X417164Y180308D01*
X416460Y181012D01*
X415815Y181279D01*
X420473D01*
X420061Y181108D01*
X419358Y180405D01*
X418977Y179486D01*
Y178492D01*
X419358Y177573D01*
X420061Y176870D01*
X420980Y176489D01*
X421974D01*
X422893Y176870D01*
X423596Y177573D01*
X423977Y178492D01*
Y179486D01*
X423596Y180405D01*
X422893Y181108D01*
X422481Y181279D01*
X430961D01*
Y166711D01*
X430479Y166229D01*
Y166507D01*
X430099Y167426D01*
X429395Y168129D01*
X428477Y168510D01*
X427482D01*
X426563Y168129D01*
X425860Y167426D01*
X425479Y166507D01*
Y166082D01*
X423977D01*
Y166507D01*
X423596Y167426D01*
X422893Y168129D01*
X421974Y168510D01*
X420980D01*
X420061Y168129D01*
X419358Y167426D01*
X418977Y166507D01*
Y166082D01*
X417500D01*
Y166507D01*
X417119Y167426D01*
X416416Y168129D01*
X415497Y168510D01*
X414503D01*
X413584Y168129D01*
X412881Y167426D01*
X412500Y166507D01*
Y165797D01*
X412382D01*
X412230Y165644D01*
X412031Y165562D01*
X408985Y162515D01*
X408863Y162222D01*
X408750Y162109D01*
Y162007D01*
X408000D01*
X407081Y161627D01*
X406378Y160923D01*
X405998Y160005D01*
Y159010D01*
X406378Y158091D01*
X407081Y157388D01*
X408000Y157007D01*
X408498D01*
Y155505D01*
X408000D01*
X407081Y155124D01*
X406378Y154421D01*
X405998Y153502D01*
Y152507D01*
X406378Y151589D01*
X407081Y150885D01*
X408000Y150505D01*
X408995D01*
X409914Y150885D01*
X410617Y151589D01*
X410998Y152507D01*
Y153502D01*
X410722Y154168D01*
X412776D01*
X412500Y153502D01*
Y152507D01*
X412881Y151589D01*
X413584Y150885D01*
X414503Y150505D01*
X415497D01*
X416416Y150885D01*
X417119Y151589D01*
X417500Y152507D01*
Y153502D01*
X417224Y154168D01*
X419253D01*
X418977Y153502D01*
Y152507D01*
X419358Y151589D01*
X420061Y150885D01*
X420980Y150505D01*
X421974D01*
X422893Y150885D01*
X423596Y151589D01*
X423977Y152507D01*
Y153502D01*
X423701Y154168D01*
X425755D01*
X425479Y153502D01*
Y152507D01*
X425860Y151589D01*
X426563Y150885D01*
X427482Y150505D01*
X428477D01*
X429395Y150885D01*
X430099Y151589D01*
X430479Y152507D01*
Y153502D01*
X430204Y154168D01*
X432257D01*
X431982Y153502D01*
Y152507D01*
X432362Y151589D01*
X433066Y150885D01*
X433984Y150505D01*
X434979D01*
X435898Y150885D01*
X436601Y151589D01*
X436982Y152507D01*
Y153502D01*
X436706Y154168D01*
X436832D01*
X438484Y152516D01*
Y152507D01*
X438865Y151589D01*
X438969Y151485D01*
X438733Y147600D01*
X438484Y147000D01*
Y146005D01*
X438617Y145685D01*
X437611Y129107D01*
X436740Y121573D01*
X436601Y121909D01*
X435898Y122612D01*
X434979Y122993D01*
X433984D01*
X433066Y122612D01*
X432362Y121909D01*
X431982Y120990D01*
Y119995D01*
X432362Y119077D01*
X433066Y118373D01*
X433984Y117993D01*
X434979D01*
X435898Y118373D01*
X436433Y118908D01*
X436087Y115920D01*
X435898Y116110D01*
X434979Y116490D01*
X433984D01*
X433066Y116110D01*
X432362Y115407D01*
X431982Y114488D01*
Y113493D01*
X432362Y112574D01*
X433066Y111871D01*
X433984Y111490D01*
X434979D01*
X435606Y111750D01*
X435593Y111638D01*
X443421Y107600D01*
X446306Y111807D01*
X446994Y111522D01*
X447988D01*
X448907Y111903D01*
X449610Y112606D01*
X449991Y113525D01*
Y114520D01*
X449610Y115438D01*
X449127Y115922D01*
X451651Y119604D01*
X451870Y119077D01*
X452573Y118373D01*
X453492Y117993D01*
X454486D01*
X455405Y118373D01*
X456108Y119077D01*
X456489Y119995D01*
Y120990D01*
X456108Y121909D01*
X455405Y122612D01*
X454486Y122993D01*
X453975D01*
X455211Y124795D01*
X455405Y124876D01*
X456108Y125579D01*
X456489Y126498D01*
Y126660D01*
X459581Y131169D01*
X459994Y130998D01*
X460989D01*
X461908Y131378D01*
X462611Y132081D01*
X462991Y133000D01*
Y133995D01*
X462611Y134914D01*
X462336Y135188D01*
X464795Y138775D01*
X464874Y138584D01*
X465578Y137881D01*
X466497Y137500D01*
X467491D01*
X468410Y137881D01*
X469113Y138584D01*
X469494Y139503D01*
Y140497D01*
X469113Y141416D01*
X468410Y142119D01*
X467491Y142500D01*
X466497D01*
X465578Y142119D01*
X464874Y141416D01*
X464865Y141394D01*
X464900Y145061D01*
X465578Y144383D01*
X466497Y144002D01*
X467491D01*
X468410Y144383D01*
X469113Y145086D01*
X469494Y146005D01*
Y147000D01*
X469113Y147919D01*
X468410Y148622D01*
X467491Y149002D01*
X466497D01*
X465578Y148622D01*
X464928Y147972D01*
X465019Y157673D01*
X469308Y175496D01*
X469503Y176988D01*
X469878Y177894D01*
Y178889D01*
X469782Y179121D01*
X473757Y209507D01*
X472999Y246734D01*
X476325Y246806D01*
X489211Y247084D01*
X490955Y246734D01*
D02*
G37*
G36*
X463971Y157941D02*
X463967Y157926D01*
X463971Y157903D01*
Y157762D01*
X463937Y157683D01*
X463845Y147982D01*
X463847Y147977D01*
X463845Y147972D01*
X464002Y147592D01*
X464155Y147214D01*
X464160Y147211D01*
X464162Y147206D01*
X464518Y147059D01*
X464494Y147000D01*
Y146005D01*
X464504Y145979D01*
X464142Y145833D01*
X464140Y145828D01*
X464135Y145826D01*
X463978Y145447D01*
X463818Y145071D01*
X463783Y141404D01*
X463865Y141200D01*
X463865Y140979D01*
X464014Y140831D01*
X464093Y140636D01*
X464296Y140549D01*
X464451Y140394D01*
X464494Y140394D01*
Y139775D01*
X464381D01*
X464162Y139556D01*
X463903Y139387D01*
X461449Y135807D01*
X460989Y135998D01*
X459994D01*
X459075Y135617D01*
X458372Y134914D01*
X457991Y133995D01*
Y133000D01*
X458372Y132081D01*
X458682Y131772D01*
X456210Y128167D01*
X456108Y128411D01*
X455405Y129115D01*
X454486Y129495D01*
X453492D01*
X452573Y129115D01*
X451870Y128411D01*
X451489Y127493D01*
Y126498D01*
X451870Y125579D01*
X452573Y124876D01*
X453492Y124495D01*
X453693D01*
X453082Y123605D01*
X453016Y123290D01*
X452892Y122993D01*
X452920Y122926D01*
X452736Y122680D01*
X452573Y122612D01*
X451870Y121909D01*
X451512Y121045D01*
X451473Y120993D01*
X451308Y120604D01*
X451237D01*
X451018Y120385D01*
X450759Y120216D01*
X448234Y116534D01*
X448212Y116430D01*
X447988Y116522D01*
X446994D01*
X446075Y116142D01*
X445372Y115438D01*
X444991Y114520D01*
Y113525D01*
X445372Y112606D01*
X445492Y112486D01*
X445447Y112442D01*
X445413Y112420D01*
X445387Y112382D01*
X442755Y109750D01*
X441613D01*
X436457Y112410D01*
X436454Y112422D01*
X436451Y112424D01*
X436601Y112574D01*
X436982Y113493D01*
Y114488D01*
X436742Y115067D01*
X436760Y115072D01*
X436792Y115130D01*
X436853Y115155D01*
X436989Y115485D01*
X437163Y115796D01*
X437508Y118784D01*
X437490Y118847D01*
X437515Y118908D01*
X437378Y119238D01*
X437281Y119581D01*
X437223Y119613D01*
X437198Y119673D01*
X436900Y119797D01*
X436982Y119995D01*
Y120573D01*
X437155Y120573D01*
X437264Y120682D01*
X437413Y120725D01*
X437546Y120964D01*
X437741Y121159D01*
X437741Y121313D01*
X437816Y121448D01*
X438484Y127235D01*
Y126498D01*
X438865Y125579D01*
X439568Y124876D01*
X440487Y124495D01*
X441482D01*
X442400Y124876D01*
X443104Y125579D01*
X443484Y126498D01*
Y127493D01*
X443104Y128411D01*
X442400Y129115D01*
X441482Y129495D01*
X440487D01*
X439568Y129115D01*
X438865Y128411D01*
X438526Y127592D01*
X438686Y128983D01*
X438677Y129013D01*
X438691Y129042D01*
X438875Y132071D01*
X439568Y131378D01*
X440487Y130998D01*
X441482D01*
X442400Y131378D01*
X443104Y132081D01*
X443484Y133000D01*
Y133995D01*
X443104Y134914D01*
X442400Y135617D01*
X441482Y135998D01*
X440487D01*
X439568Y135617D01*
X439059Y135108D01*
X439247Y138202D01*
X439568Y137881D01*
X440487Y137500D01*
X441482D01*
X442400Y137881D01*
X443104Y138584D01*
X443484Y139503D01*
Y140497D01*
X443104Y141416D01*
X442400Y142119D01*
X441482Y142500D01*
X440487D01*
X439568Y142119D01*
X439479Y142031D01*
X439621Y144361D01*
X440487Y144002D01*
X441482D01*
X442400Y144383D01*
X443104Y145086D01*
X443484Y146005D01*
Y147000D01*
X443104Y147919D01*
X442400Y148622D01*
X441482Y149002D01*
X440487D01*
X439887Y148754D01*
X440006Y150704D01*
X440487Y150505D01*
X441482D01*
X442400Y150885D01*
X443104Y151589D01*
X443484Y152507D01*
Y153502D01*
X443483Y153505D01*
X444988D01*
X444987Y153502D01*
Y152507D01*
X445367Y151589D01*
X446071Y150885D01*
X446989Y150505D01*
X447984D01*
X448903Y150885D01*
X449606Y151589D01*
X449987Y152507D01*
Y153502D01*
X449985Y153505D01*
X450177D01*
X450654Y154168D01*
X451161D01*
X451177Y154174D01*
X451193Y154168D01*
X451558Y154332D01*
X451926Y154485D01*
X451933Y154501D01*
X451949Y154508D01*
X453793Y156466D01*
X453864Y156653D01*
X454006Y156794D01*
Y157007D01*
X454486D01*
X455405Y157388D01*
X456108Y158091D01*
X456489Y159010D01*
Y159631D01*
X456644D01*
X456807Y159794D01*
X457017Y159889D01*
X459935Y162987D01*
X463971D01*
Y157941D01*
D02*
G37*
%LPC*%
G36*
X439497Y203250D02*
X438503D01*
X437584Y202869D01*
X436881Y202166D01*
X436500Y201247D01*
Y200253D01*
X436881Y199334D01*
X437584Y198631D01*
X438503Y198250D01*
X439497D01*
X440416Y198631D01*
X441119Y199334D01*
X441500Y200253D01*
Y201247D01*
X441119Y202166D01*
X440416Y202869D01*
X439497Y203250D01*
D02*
G37*
G36*
X463750Y202957D02*
X462756D01*
X461837Y202577D01*
X461134Y201873D01*
X460753Y200955D01*
Y199960D01*
X461134Y199041D01*
X461837Y198338D01*
X462756Y197957D01*
X463750D01*
X464669Y198338D01*
X465372Y199041D01*
X465753Y199960D01*
Y200955D01*
X465372Y201873D01*
X464669Y202577D01*
X463750Y202957D01*
D02*
G37*
G36*
X433074Y202253D02*
X432080D01*
X431161Y201872D01*
X430457Y201169D01*
X430077Y200250D01*
Y199256D01*
X430457Y198337D01*
X431161Y197634D01*
X432080Y197253D01*
X433074D01*
X433993Y197634D01*
X434696Y198337D01*
X435077Y199256D01*
Y200250D01*
X434696Y201169D01*
X433993Y201872D01*
X433074Y202253D01*
D02*
G37*
G36*
X460944Y195819D02*
X459949D01*
X459030Y195438D01*
X458327Y194735D01*
X457947Y193816D01*
Y192822D01*
X458327Y191903D01*
X459030Y191199D01*
X459949Y190819D01*
X460944D01*
X461863Y191199D01*
X462566Y191903D01*
X462947Y192822D01*
Y193816D01*
X462566Y194735D01*
X461863Y195438D01*
X460944Y195819D01*
D02*
G37*
G36*
X428441Y194471D02*
X427447D01*
X426528Y194090D01*
X425825Y193387D01*
X425444Y192468D01*
Y191474D01*
X425825Y190555D01*
X426528Y189851D01*
X427447Y189471D01*
X428441D01*
X429360Y189851D01*
X430063Y190555D01*
X430444Y191474D01*
Y192468D01*
X430063Y193387D01*
X429360Y194090D01*
X428441Y194471D01*
D02*
G37*
G36*
X454533Y194467D02*
X453538D01*
X452619Y194086D01*
X451916Y193383D01*
X451535Y192464D01*
Y191469D01*
X451916Y190550D01*
X452619Y189847D01*
X453538Y189467D01*
X454533D01*
X455452Y189847D01*
X456155Y190550D01*
X456535Y191469D01*
Y192464D01*
X456155Y193383D01*
X455452Y194086D01*
X454533Y194467D01*
D02*
G37*
G36*
X422053Y194454D02*
X421059D01*
X420140Y194073D01*
X419437Y193370D01*
X419056Y192451D01*
Y191457D01*
X419437Y190538D01*
X420140Y189834D01*
X421059Y189454D01*
X422053D01*
X422972Y189834D01*
X423675Y190538D01*
X424056Y191457D01*
Y192451D01*
X423675Y193370D01*
X422972Y194073D01*
X422053Y194454D01*
D02*
G37*
G36*
X441563Y194389D02*
X440569D01*
X439650Y194008D01*
X438946Y193305D01*
X438566Y192386D01*
Y191392D01*
X438946Y190473D01*
X439650Y189770D01*
X440569Y189389D01*
X441563D01*
X442482Y189770D01*
X443185Y190473D01*
X443566Y191392D01*
Y192386D01*
X443185Y193305D01*
X442482Y194008D01*
X441563Y194389D01*
D02*
G37*
G36*
X434908Y188131D02*
X433913D01*
X432994Y187750D01*
X432291Y187047D01*
X431910Y186128D01*
Y185133D01*
X432291Y184214D01*
X432994Y183511D01*
X433913Y183131D01*
X434908D01*
X435826Y183511D01*
X436530Y184214D01*
X436910Y185133D01*
Y186128D01*
X436530Y187047D01*
X435826Y187750D01*
X434908Y188131D01*
D02*
G37*
G36*
X447984Y187991D02*
X446989D01*
X446071Y187611D01*
X445367Y186908D01*
X444987Y185989D01*
Y184994D01*
X445367Y184075D01*
X446071Y183372D01*
X446989Y182991D01*
X447984D01*
X448903Y183372D01*
X449606Y184075D01*
X449987Y184994D01*
Y185989D01*
X449606Y186908D01*
X448903Y187611D01*
X447984Y187991D01*
D02*
G37*
G36*
X441482D02*
X440487D01*
X439568Y187611D01*
X438865Y186908D01*
X438484Y185989D01*
Y184994D01*
X438865Y184075D01*
X439568Y183372D01*
X440487Y182991D01*
X441482D01*
X442400Y183372D01*
X443104Y184075D01*
X443484Y184994D01*
Y185989D01*
X443104Y186908D01*
X442400Y187611D01*
X441482Y187991D01*
D02*
G37*
G36*
X428477D02*
X427482D01*
X426563Y187611D01*
X425860Y186908D01*
X425479Y185989D01*
Y184994D01*
X425860Y184075D01*
X426563Y183372D01*
X427482Y182991D01*
X428477D01*
X429395Y183372D01*
X430099Y184075D01*
X430479Y184994D01*
Y185989D01*
X430099Y186908D01*
X429395Y187611D01*
X428477Y187991D01*
D02*
G37*
G36*
X422053Y187924D02*
X421059D01*
X420140Y187543D01*
X419437Y186840D01*
X419056Y185921D01*
Y184926D01*
X419437Y184007D01*
X420140Y183304D01*
X421059Y182924D01*
X422053D01*
X422972Y183304D01*
X423675Y184007D01*
X424056Y184926D01*
Y185921D01*
X423675Y186840D01*
X422972Y187543D01*
X422053Y187924D01*
D02*
G37*
G36*
X441678Y181643D02*
X440683D01*
X439764Y181263D01*
X439061Y180559D01*
X438680Y179641D01*
Y178646D01*
X439061Y177727D01*
X439764Y177024D01*
X440683Y176643D01*
X441678D01*
X442596Y177024D01*
X443300Y177727D01*
X443680Y178646D01*
Y179641D01*
X443300Y180559D01*
X442596Y181263D01*
X441678Y181643D01*
D02*
G37*
G36*
X447939Y181498D02*
X446945D01*
X446026Y181117D01*
X445323Y180414D01*
X444942Y179495D01*
Y178501D01*
X445323Y177582D01*
X446026Y176879D01*
X446945Y176498D01*
X447939D01*
X448858Y176879D01*
X449561Y177582D01*
X449942Y178501D01*
Y179495D01*
X449561Y180414D01*
X448858Y181117D01*
X447939Y181498D01*
D02*
G37*
G36*
X454427Y174973D02*
X453432D01*
X452513Y174592D01*
X451810Y173889D01*
X451429Y172970D01*
Y171975D01*
X451810Y171056D01*
X452513Y170353D01*
X453432Y169973D01*
X454427D01*
X455345Y170353D01*
X456049Y171056D01*
X456429Y171975D01*
Y172970D01*
X456049Y173889D01*
X455345Y174592D01*
X454427Y174973D01*
D02*
G37*
G36*
X448021D02*
X447026D01*
X446107Y174592D01*
X445404Y173889D01*
X445023Y172970D01*
Y171975D01*
X445404Y171056D01*
X446107Y170353D01*
X447026Y169973D01*
X448021D01*
X448940Y170353D01*
X449643Y171056D01*
X450023Y171975D01*
Y172970D01*
X449643Y173889D01*
X448940Y174592D01*
X448021Y174973D01*
D02*
G37*
G36*
X441464Y174933D02*
X440469D01*
X439550Y174552D01*
X438847Y173849D01*
X438466Y172930D01*
Y171936D01*
X438847Y171017D01*
X439550Y170314D01*
X440469Y169933D01*
X441464D01*
X442383Y170314D01*
X443086Y171017D01*
X443466Y171936D01*
Y172930D01*
X443086Y173849D01*
X442383Y174552D01*
X441464Y174933D01*
D02*
G37*
G36*
X454486Y168510D02*
X453492D01*
X452573Y168129D01*
X451870Y167426D01*
X451489Y166507D01*
Y165512D01*
X451870Y164594D01*
X452573Y163890D01*
X453492Y163510D01*
X454486D01*
X455405Y163890D01*
X456108Y164594D01*
X456489Y165512D01*
Y166507D01*
X456108Y167426D01*
X455405Y168129D01*
X454486Y168510D01*
D02*
G37*
G36*
X447984D02*
X446989D01*
X446071Y168129D01*
X445367Y167426D01*
X444987Y166507D01*
Y165512D01*
X445367Y164594D01*
X446071Y163890D01*
X446989Y163510D01*
X447984D01*
X448903Y163890D01*
X449606Y164594D01*
X449987Y165512D01*
Y166507D01*
X449606Y167426D01*
X448903Y168129D01*
X447984Y168510D01*
D02*
G37*
G36*
X441482D02*
X440487D01*
X439568Y168129D01*
X438865Y167426D01*
X438484Y166507D01*
Y165512D01*
X438865Y164594D01*
X439568Y163890D01*
X440487Y163510D01*
X441482D01*
X442400Y163890D01*
X443104Y164594D01*
X443484Y165512D01*
Y166507D01*
X443104Y167426D01*
X442400Y168129D01*
X441482Y168510D01*
D02*
G37*
G36*
X428477Y162017D02*
X427482D01*
X426563Y161636D01*
X425860Y160933D01*
X425479Y160014D01*
Y159020D01*
X425860Y158101D01*
X426563Y157398D01*
X427482Y157017D01*
X428477D01*
X429395Y157398D01*
X430099Y158101D01*
X430479Y159020D01*
Y160014D01*
X430099Y160933D01*
X429395Y161636D01*
X428477Y162017D01*
D02*
G37*
G36*
X499838Y202801D02*
X498445D01*
X497159Y202268D01*
X496174Y201283D01*
X495642Y199997D01*
Y198605D01*
X496174Y197318D01*
X497159Y196334D01*
X498445Y195801D01*
X499838D01*
X501124Y196334D01*
X502109Y197318D01*
X502641Y198605D01*
Y199997D01*
X502109Y201283D01*
X501124Y202268D01*
X499838Y202801D01*
D02*
G37*
G36*
X486950Y198828D02*
X485956D01*
X485037Y198447D01*
X484334Y197744D01*
X483953Y196825D01*
Y195831D01*
X484334Y194912D01*
X485037Y194209D01*
X485956Y193828D01*
X486950D01*
X487869Y194209D01*
X488572Y194912D01*
X488953Y195831D01*
Y196825D01*
X488572Y197744D01*
X487869Y198447D01*
X486950Y198828D01*
D02*
G37*
G36*
X389495Y194575D02*
X388500D01*
X387581Y194194D01*
X386878Y193491D01*
X386498Y192572D01*
Y191577D01*
X386878Y190658D01*
X387581Y189955D01*
X388500Y189575D01*
X389495D01*
X390414Y189955D01*
X391117Y190658D01*
X391498Y191577D01*
Y192572D01*
X391117Y193491D01*
X390414Y194194D01*
X389495Y194575D01*
D02*
G37*
G36*
X395983Y194502D02*
X394989D01*
X394070Y194121D01*
X393367Y193418D01*
X392986Y192499D01*
Y191504D01*
X393367Y190586D01*
X394070Y189882D01*
X394989Y189502D01*
X395983D01*
X396902Y189882D01*
X397606Y190586D01*
X397986Y191504D01*
Y192499D01*
X397606Y193418D01*
X396902Y194121D01*
X395983Y194502D01*
D02*
G37*
G36*
X395983Y188099D02*
X394989D01*
X394070Y187718D01*
X393367Y187015D01*
X392986Y186096D01*
Y185101D01*
X393367Y184182D01*
X394070Y183479D01*
X394989Y183099D01*
X395983D01*
X396902Y183479D01*
X397605Y184182D01*
X397986Y185101D01*
Y186096D01*
X397605Y187015D01*
X396902Y187718D01*
X395983Y188099D01*
D02*
G37*
G36*
X389390D02*
X388396D01*
X387477Y187718D01*
X386774Y187015D01*
X386393Y186096D01*
Y185101D01*
X386774Y184182D01*
X387477Y183479D01*
X388396Y183099D01*
X389390D01*
X390309Y183479D01*
X391012Y184182D01*
X391393Y185101D01*
Y186096D01*
X391012Y187015D01*
X390309Y187718D01*
X389390Y188099D01*
D02*
G37*
G36*
X402462Y188056D02*
X401468D01*
X400549Y187676D01*
X399846Y186972D01*
X399465Y186054D01*
Y185059D01*
X399846Y184140D01*
X400549Y183437D01*
X401468Y183056D01*
X402462D01*
X403381Y183437D01*
X404085Y184140D01*
X404465Y185059D01*
Y186054D01*
X404085Y186972D01*
X403381Y187676D01*
X402462Y188056D01*
D02*
G37*
G36*
X487417Y186969D02*
X486422D01*
X485503Y186589D01*
X484800Y185886D01*
X484420Y184967D01*
Y183972D01*
X484800Y183053D01*
X485503Y182350D01*
X486422Y181969D01*
X487417D01*
X488336Y182350D01*
X489039Y183053D01*
X489420Y183972D01*
Y184967D01*
X489039Y185886D01*
X488336Y186589D01*
X487417Y186969D01*
D02*
G37*
G36*
X402457Y181543D02*
X401462D01*
X400543Y181162D01*
X399840Y180459D01*
X399459Y179540D01*
Y178545D01*
X399840Y177626D01*
X400543Y176923D01*
X401462Y176543D01*
X402457D01*
X403376Y176923D01*
X404079Y177626D01*
X404459Y178545D01*
Y179540D01*
X404079Y180459D01*
X403376Y181162D01*
X402457Y181543D01*
D02*
G37*
G36*
X396008D02*
X395013D01*
X394094Y181162D01*
X393391Y180459D01*
X393010Y179540D01*
Y178545D01*
X393391Y177626D01*
X394094Y176923D01*
X395013Y176543D01*
X396008D01*
X396926Y176923D01*
X397630Y177626D01*
X398010Y178545D01*
Y179540D01*
X397630Y180459D01*
X396926Y181162D01*
X396008Y181543D01*
D02*
G37*
G36*
X389375D02*
X388381D01*
X387462Y181162D01*
X386759Y180459D01*
X386378Y179540D01*
Y178545D01*
X386759Y177626D01*
X387462Y176923D01*
X388381Y176543D01*
X389375D01*
X390294Y176923D01*
X390997Y177626D01*
X391378Y178545D01*
Y179540D01*
X390997Y180459D01*
X390294Y181162D01*
X389375Y181543D01*
D02*
G37*
G36*
X409053Y181470D02*
X408059D01*
X407140Y181089D01*
X406437Y180386D01*
X406056Y179467D01*
Y178473D01*
X406437Y177554D01*
X407140Y176851D01*
X408059Y176470D01*
X409053D01*
X409972Y176851D01*
X410676Y177554D01*
X411056Y178473D01*
Y179467D01*
X410676Y180386D01*
X409972Y181089D01*
X409053Y181470D01*
D02*
G37*
G36*
X368627Y175038D02*
X367632D01*
X366713Y174657D01*
X366010Y173954D01*
X365630Y173035D01*
Y172041D01*
X366010Y171122D01*
X366713Y170418D01*
X367632Y170038D01*
X368627D01*
X369546Y170418D01*
X370249Y171122D01*
X370630Y172041D01*
Y173035D01*
X370249Y173954D01*
X369546Y174657D01*
X368627Y175038D01*
D02*
G37*
G36*
X480496Y174987D02*
X479501D01*
X478582Y174606D01*
X477879Y173903D01*
X477499Y172984D01*
Y171989D01*
X477879Y171070D01*
X478582Y170367D01*
X479501Y169987D01*
X480496D01*
X481415Y170367D01*
X482118Y171070D01*
X482499Y171989D01*
Y172984D01*
X482118Y173903D01*
X481415Y174606D01*
X480496Y174987D01*
D02*
G37*
G36*
X428477D02*
X427482D01*
X426563Y174606D01*
X425860Y173903D01*
X425479Y172984D01*
Y171989D01*
X425860Y171070D01*
X426563Y170367D01*
X427482Y169987D01*
X428477D01*
X429395Y170367D01*
X430099Y171070D01*
X430479Y171989D01*
Y172984D01*
X430099Y173903D01*
X429395Y174606D01*
X428477Y174987D01*
D02*
G37*
G36*
X421974D02*
X420980D01*
X420061Y174606D01*
X419358Y173903D01*
X418977Y172984D01*
Y171989D01*
X419358Y171070D01*
X420061Y170367D01*
X420980Y169987D01*
X421974D01*
X422893Y170367D01*
X423596Y171070D01*
X423977Y171989D01*
Y172984D01*
X423596Y173903D01*
X422893Y174606D01*
X421974Y174987D01*
D02*
G37*
G36*
X402492D02*
X401498D01*
X400579Y174606D01*
X399876Y173903D01*
X399495Y172984D01*
Y171989D01*
X399876Y171070D01*
X400579Y170367D01*
X401498Y169987D01*
X402492D01*
X403411Y170367D01*
X404115Y171070D01*
X404495Y171989D01*
Y172984D01*
X404115Y173903D01*
X403411Y174606D01*
X402492Y174987D01*
D02*
G37*
G36*
X395990D02*
X394995D01*
X394077Y174606D01*
X393373Y173903D01*
X392993Y172984D01*
Y171989D01*
X393373Y171070D01*
X394077Y170367D01*
X394995Y169987D01*
X395990D01*
X396909Y170367D01*
X397612Y171070D01*
X397993Y171989D01*
Y172984D01*
X397612Y173903D01*
X396909Y174606D01*
X395990Y174987D01*
D02*
G37*
G36*
X396059Y168543D02*
X395065D01*
X394146Y168162D01*
X393443Y167459D01*
X393062Y166540D01*
Y165546D01*
X393443Y164627D01*
X394146Y163923D01*
X395065Y163543D01*
X396059D01*
X396978Y163923D01*
X397681Y164627D01*
X398062Y165546D01*
Y166540D01*
X397681Y167459D01*
X396978Y168162D01*
X396059Y168543D01*
D02*
G37*
G36*
X408995Y168510D02*
X408000D01*
X407081Y168129D01*
X406378Y167426D01*
X405998Y166507D01*
Y165512D01*
X406378Y164594D01*
X407081Y163890D01*
X408000Y163510D01*
X408995D01*
X409914Y163890D01*
X410617Y164594D01*
X410998Y165512D01*
Y166507D01*
X410617Y167426D01*
X409914Y168129D01*
X408995Y168510D01*
D02*
G37*
G36*
X370577Y165259D02*
X369583D01*
X368664Y164878D01*
X367961Y164175D01*
X367580Y163256D01*
Y162261D01*
X367961Y161343D01*
X368664Y160639D01*
X369583Y160259D01*
X370577D01*
X371496Y160639D01*
X372200Y161343D01*
X372580Y162261D01*
Y163256D01*
X372200Y164175D01*
X371496Y164878D01*
X370577Y165259D01*
D02*
G37*
G36*
X502775Y173143D02*
X501383D01*
X500096Y172610D01*
X499112Y171625D01*
X498579Y170339D01*
Y168946D01*
X499112Y167660D01*
X500096Y166675D01*
X500374Y166560D01*
X500096Y166445D01*
X499112Y165461D01*
X498579Y164174D01*
Y162782D01*
X499112Y161495D01*
X500096Y160511D01*
X501383Y159978D01*
X502775D01*
X504062Y160511D01*
X505046Y161495D01*
X505579Y162782D01*
Y164174D01*
X505046Y165461D01*
X504062Y166445D01*
X503783Y166560D01*
X504062Y166675D01*
X505046Y167660D01*
X505579Y168946D01*
Y170339D01*
X505046Y171625D01*
X504062Y172610D01*
X502775Y173143D01*
D02*
G37*
G36*
X376554Y149416D02*
X375560D01*
X374641Y149035D01*
X373938Y148332D01*
X373557Y147413D01*
Y146419D01*
X373938Y145500D01*
X374641Y144797D01*
X375560Y144416D01*
X376554D01*
X377473Y144797D01*
X378176Y145500D01*
X378557Y146419D01*
Y147413D01*
X378176Y148332D01*
X377473Y149035D01*
X376554Y149416D01*
D02*
G37*
G36*
X389495Y149004D02*
X388500D01*
X387581Y148623D01*
X386878Y147920D01*
X386497Y147001D01*
Y146006D01*
X386878Y145088D01*
X387581Y144384D01*
X388500Y144004D01*
X389495D01*
X390414Y144384D01*
X391117Y145088D01*
X391497Y146006D01*
Y147001D01*
X391117Y147920D01*
X390414Y148623D01*
X389495Y149004D01*
D02*
G37*
G36*
X434979Y149002D02*
X433984D01*
X433066Y148622D01*
X432362Y147919D01*
X431982Y147000D01*
Y146005D01*
X432362Y145086D01*
X433066Y144383D01*
X433984Y144002D01*
X434979D01*
X435898Y144383D01*
X436601Y145086D01*
X436982Y146005D01*
Y147000D01*
X436601Y147919D01*
X435898Y148622D01*
X434979Y149002D01*
D02*
G37*
G36*
X428477D02*
X427482D01*
X426563Y148622D01*
X425860Y147919D01*
X425479Y147000D01*
Y146005D01*
X425860Y145086D01*
X426563Y144383D01*
X427482Y144002D01*
X428477D01*
X429395Y144383D01*
X430099Y145086D01*
X430479Y146005D01*
Y147000D01*
X430099Y147919D01*
X429395Y148622D01*
X428477Y149002D01*
D02*
G37*
G36*
X421974D02*
X420980D01*
X420061Y148622D01*
X419358Y147919D01*
X418977Y147000D01*
Y146005D01*
X419358Y145086D01*
X420061Y144383D01*
X420980Y144002D01*
X421974D01*
X422893Y144383D01*
X423596Y145086D01*
X423977Y146005D01*
Y147000D01*
X423596Y147919D01*
X422893Y148622D01*
X421974Y149002D01*
D02*
G37*
G36*
X415497D02*
X414503D01*
X413584Y148622D01*
X412881Y147919D01*
X412500Y147000D01*
Y146005D01*
X412881Y145086D01*
X413584Y144383D01*
X414503Y144002D01*
X415497D01*
X416416Y144383D01*
X417119Y145086D01*
X417500Y146005D01*
Y147000D01*
X417119Y147919D01*
X416416Y148622D01*
X415497Y149002D01*
D02*
G37*
G36*
X408995D02*
X408000D01*
X407081Y148622D01*
X406378Y147919D01*
X405998Y147000D01*
Y146005D01*
X406378Y145086D01*
X407081Y144383D01*
X408000Y144002D01*
X408995D01*
X409914Y144383D01*
X410617Y145086D01*
X410998Y146005D01*
Y147000D01*
X410617Y147919D01*
X409914Y148622D01*
X408995Y149002D01*
D02*
G37*
G36*
X402492D02*
X401498D01*
X400579Y148622D01*
X399876Y147919D01*
X399495Y147000D01*
Y146005D01*
X399876Y145086D01*
X400579Y144383D01*
X401498Y144002D01*
X402492D01*
X403411Y144383D01*
X404115Y145086D01*
X404495Y146005D01*
Y147000D01*
X404115Y147919D01*
X403411Y148622D01*
X402492Y149002D01*
D02*
G37*
G36*
X395990D02*
X394995D01*
X394077Y148622D01*
X393373Y147919D01*
X392993Y147000D01*
Y146005D01*
X393373Y145086D01*
X394077Y144383D01*
X394995Y144002D01*
X395990D01*
X396909Y144383D01*
X397612Y145086D01*
X397993Y146005D01*
Y147000D01*
X397612Y147919D01*
X396909Y148622D01*
X395990Y149002D01*
D02*
G37*
G36*
X382915Y142538D02*
X381921D01*
X381002Y142158D01*
X380298Y141454D01*
X379918Y140536D01*
Y139541D01*
X380298Y138622D01*
X381002Y137919D01*
X381921Y137538D01*
X382915D01*
X383834Y137919D01*
X384537Y138622D01*
X384918Y139541D01*
Y140536D01*
X384537Y141454D01*
X383834Y142158D01*
X382915Y142538D01*
D02*
G37*
G36*
X434979Y142500D02*
X433984D01*
X433066Y142119D01*
X432362Y141416D01*
X431982Y140497D01*
Y139503D01*
X432362Y138584D01*
X433066Y137881D01*
X433984Y137500D01*
X434979D01*
X435898Y137881D01*
X436601Y138584D01*
X436982Y139503D01*
Y140497D01*
X436601Y141416D01*
X435898Y142119D01*
X434979Y142500D01*
D02*
G37*
G36*
X428477D02*
X427482D01*
X426563Y142119D01*
X425860Y141416D01*
X425479Y140497D01*
Y139503D01*
X425860Y138584D01*
X426563Y137881D01*
X427482Y137500D01*
X428477D01*
X429395Y137881D01*
X430099Y138584D01*
X430479Y139503D01*
Y140497D01*
X430099Y141416D01*
X429395Y142119D01*
X428477Y142500D01*
D02*
G37*
G36*
X421974D02*
X420980D01*
X420061Y142119D01*
X419358Y141416D01*
X418977Y140497D01*
Y139503D01*
X419358Y138584D01*
X420061Y137881D01*
X420980Y137500D01*
X421974D01*
X422893Y137881D01*
X423596Y138584D01*
X423977Y139503D01*
Y140497D01*
X423596Y141416D01*
X422893Y142119D01*
X421974Y142500D01*
D02*
G37*
G36*
X415497D02*
X414503D01*
X413584Y142119D01*
X412881Y141416D01*
X412500Y140497D01*
Y139503D01*
X412881Y138584D01*
X413584Y137881D01*
X414503Y137500D01*
X415497D01*
X416416Y137881D01*
X417119Y138584D01*
X417500Y139503D01*
Y140497D01*
X417119Y141416D01*
X416416Y142119D01*
X415497Y142500D01*
D02*
G37*
G36*
X402492D02*
X401498D01*
X400579Y142119D01*
X399876Y141416D01*
X399495Y140497D01*
Y139503D01*
X399876Y138584D01*
X400579Y137881D01*
X401498Y137500D01*
X402492D01*
X403411Y137881D01*
X404115Y138584D01*
X404495Y139503D01*
Y140497D01*
X404115Y141416D01*
X403411Y142119D01*
X402492Y142500D01*
D02*
G37*
G36*
X395990D02*
X394995D01*
X394077Y142119D01*
X393373Y141416D01*
X392993Y140497D01*
Y139503D01*
X393373Y138584D01*
X394077Y137881D01*
X394995Y137500D01*
X395990D01*
X396909Y137881D01*
X397612Y138584D01*
X397993Y139503D01*
Y140497D01*
X397612Y141416D01*
X396909Y142119D01*
X395990Y142500D01*
D02*
G37*
G36*
X389495Y142478D02*
X388500D01*
X387581Y142098D01*
X386878Y141394D01*
X386497Y140476D01*
Y139481D01*
X386878Y138562D01*
X387581Y137859D01*
X388500Y137478D01*
X389495D01*
X390414Y137859D01*
X391117Y138562D01*
X391497Y139481D01*
Y140476D01*
X391117Y141394D01*
X390414Y142098D01*
X389495Y142478D01*
D02*
G37*
G36*
X467491Y135998D02*
X466497D01*
X465578Y135617D01*
X464874Y134914D01*
X464494Y133995D01*
Y133000D01*
X464874Y132081D01*
X465578Y131378D01*
X466497Y130998D01*
X467491D01*
X468410Y131378D01*
X469113Y132081D01*
X469494Y133000D01*
Y133995D01*
X469113Y134914D01*
X468410Y135617D01*
X467491Y135998D01*
D02*
G37*
G36*
X434979D02*
X433984D01*
X433066Y135617D01*
X432362Y134914D01*
X431982Y133995D01*
Y133000D01*
X432362Y132081D01*
X433066Y131378D01*
X433984Y130998D01*
X434979D01*
X435898Y131378D01*
X436601Y132081D01*
X436982Y133000D01*
Y133995D01*
X436601Y134914D01*
X435898Y135617D01*
X434979Y135998D01*
D02*
G37*
G36*
X428477D02*
X427482D01*
X426563Y135617D01*
X425860Y134914D01*
X425479Y133995D01*
Y133000D01*
X425860Y132081D01*
X426563Y131378D01*
X427482Y130998D01*
X428477D01*
X429395Y131378D01*
X430099Y132081D01*
X430479Y133000D01*
Y133995D01*
X430099Y134914D01*
X429395Y135617D01*
X428477Y135998D01*
D02*
G37*
G36*
X421974D02*
X420980D01*
X420061Y135617D01*
X419358Y134914D01*
X418977Y133995D01*
Y133000D01*
X419358Y132081D01*
X420061Y131378D01*
X420980Y130998D01*
X421974D01*
X422893Y131378D01*
X423596Y132081D01*
X423977Y133000D01*
Y133995D01*
X423596Y134914D01*
X422893Y135617D01*
X421974Y135998D01*
D02*
G37*
G36*
X415497D02*
X414503D01*
X413584Y135617D01*
X412881Y134914D01*
X412500Y133995D01*
Y133000D01*
X412881Y132081D01*
X413584Y131378D01*
X414503Y130998D01*
X415497D01*
X416416Y131378D01*
X417119Y132081D01*
X417500Y133000D01*
Y133995D01*
X417119Y134914D01*
X416416Y135617D01*
X415497Y135998D01*
D02*
G37*
G36*
X408995D02*
X408000D01*
X407081Y135617D01*
X406378Y134914D01*
X405998Y133995D01*
Y133000D01*
X406378Y132081D01*
X407081Y131378D01*
X408000Y130998D01*
X408995D01*
X409914Y131378D01*
X410617Y132081D01*
X410998Y133000D01*
Y133995D01*
X410617Y134914D01*
X409914Y135617D01*
X408995Y135998D01*
D02*
G37*
G36*
X402492D02*
X401498D01*
X400579Y135617D01*
X399876Y134914D01*
X399495Y133995D01*
Y133000D01*
X399876Y132081D01*
X400579Y131378D01*
X401498Y130998D01*
X402492D01*
X403411Y131378D01*
X404115Y132081D01*
X404495Y133000D01*
Y133995D01*
X404115Y134914D01*
X403411Y135617D01*
X402492Y135998D01*
D02*
G37*
G36*
X395990D02*
X394995D01*
X394077Y135617D01*
X393373Y134914D01*
X392993Y133995D01*
Y133000D01*
X393373Y132081D01*
X394077Y131378D01*
X394995Y130998D01*
X395990D01*
X396909Y131378D01*
X397612Y132081D01*
X397993Y133000D01*
Y133995D01*
X397612Y134914D01*
X396909Y135617D01*
X395990Y135998D01*
D02*
G37*
G36*
X389488Y135926D02*
X388494D01*
X387575Y135545D01*
X386872Y134842D01*
X386491Y133923D01*
Y132929D01*
X386872Y132010D01*
X387575Y131307D01*
X388494Y130926D01*
X389488D01*
X390407Y131307D01*
X391110Y132010D01*
X391491Y132929D01*
Y133923D01*
X391110Y134842D01*
X390407Y135545D01*
X389488Y135926D01*
D02*
G37*
G36*
X377691Y133753D02*
X376696D01*
X375778Y133373D01*
X375074Y132669D01*
X374694Y131751D01*
Y130756D01*
X375074Y129837D01*
X375778Y129134D01*
X376696Y128753D01*
X377691D01*
X378610Y129134D01*
X379313Y129837D01*
X379694Y130756D01*
Y131751D01*
X379313Y132669D01*
X378610Y133373D01*
X377691Y133753D01*
D02*
G37*
G36*
X460989Y129495D02*
X459994D01*
X459075Y129115D01*
X458372Y128411D01*
X457991Y127493D01*
Y126498D01*
X458372Y125579D01*
X459075Y124876D01*
X459994Y124495D01*
X460989D01*
X461908Y124876D01*
X462611Y125579D01*
X462991Y126498D01*
Y127493D01*
X462611Y128411D01*
X461908Y129115D01*
X460989Y129495D01*
D02*
G37*
G36*
X434979D02*
X433984D01*
X433066Y129115D01*
X432362Y128411D01*
X431982Y127493D01*
Y126498D01*
X432362Y125579D01*
X433066Y124876D01*
X433984Y124495D01*
X434979D01*
X435898Y124876D01*
X436601Y125579D01*
X436982Y126498D01*
Y127493D01*
X436601Y128411D01*
X435898Y129115D01*
X434979Y129495D01*
D02*
G37*
G36*
X428477D02*
X427482D01*
X426563Y129115D01*
X425860Y128411D01*
X425479Y127493D01*
Y126498D01*
X425860Y125579D01*
X426563Y124876D01*
X427482Y124495D01*
X428477D01*
X429395Y124876D01*
X430099Y125579D01*
X430479Y126498D01*
Y127493D01*
X430099Y128411D01*
X429395Y129115D01*
X428477Y129495D01*
D02*
G37*
G36*
X421974D02*
X420980D01*
X420061Y129115D01*
X419358Y128411D01*
X418977Y127493D01*
Y126498D01*
X419358Y125579D01*
X420061Y124876D01*
X420980Y124495D01*
X421974D01*
X422893Y124876D01*
X423596Y125579D01*
X423977Y126498D01*
Y127493D01*
X423596Y128411D01*
X422893Y129115D01*
X421974Y129495D01*
D02*
G37*
G36*
X415497D02*
X414503D01*
X413584Y129115D01*
X412881Y128411D01*
X412500Y127493D01*
Y126498D01*
X412881Y125579D01*
X413584Y124876D01*
X414503Y124495D01*
X415497D01*
X416416Y124876D01*
X417119Y125579D01*
X417500Y126498D01*
Y127493D01*
X417119Y128411D01*
X416416Y129115D01*
X415497Y129495D01*
D02*
G37*
G36*
X408995D02*
X408000D01*
X407081Y129115D01*
X406378Y128411D01*
X405998Y127493D01*
Y126498D01*
X406378Y125579D01*
X407081Y124876D01*
X408000Y124495D01*
X408995D01*
X409914Y124876D01*
X410617Y125579D01*
X410998Y126498D01*
Y127493D01*
X410617Y128411D01*
X409914Y129115D01*
X408995Y129495D01*
D02*
G37*
G36*
X402492D02*
X401498D01*
X400579Y129115D01*
X399876Y128411D01*
X399495Y127493D01*
Y126498D01*
X399876Y125579D01*
X400579Y124876D01*
X401498Y124495D01*
X402492D01*
X403411Y124876D01*
X404115Y125579D01*
X404495Y126498D01*
Y127493D01*
X404115Y128411D01*
X403411Y129115D01*
X402492Y129495D01*
D02*
G37*
G36*
X467534Y129484D02*
X466540D01*
X465621Y129104D01*
X464918Y128400D01*
X464537Y127481D01*
Y126487D01*
X464918Y125568D01*
X465621Y124865D01*
X466540Y124484D01*
X467534D01*
X468453Y124865D01*
X469156Y125568D01*
X469537Y126487D01*
Y127481D01*
X469156Y128400D01*
X468453Y129104D01*
X467534Y129484D01*
D02*
G37*
G36*
X492385Y129500D02*
X490992D01*
X489706Y128967D01*
X488721Y127983D01*
X488188Y126696D01*
Y125304D01*
X488721Y124017D01*
X489706Y123033D01*
X490992Y122500D01*
X492385D01*
X493671Y123033D01*
X494655Y124017D01*
X495188Y125304D01*
Y126696D01*
X494655Y127983D01*
X493671Y128967D01*
X492385Y129500D01*
D02*
G37*
G36*
X389457Y123036D02*
X388462D01*
X387543Y122655D01*
X386840Y121952D01*
X386459Y121033D01*
Y120038D01*
X386840Y119120D01*
X387543Y118416D01*
X388462Y118036D01*
X389457D01*
X390375Y118416D01*
X391079Y119120D01*
X391459Y120038D01*
Y121033D01*
X391079Y121952D01*
X390375Y122655D01*
X389457Y123036D01*
D02*
G37*
G36*
X460989Y122993D02*
X459994D01*
X459075Y122612D01*
X458372Y121909D01*
X457991Y120990D01*
Y119995D01*
X458372Y119077D01*
X459075Y118373D01*
X459994Y117993D01*
X460989D01*
X461908Y118373D01*
X462611Y119077D01*
X462991Y119995D01*
Y120990D01*
X462611Y121909D01*
X461908Y122612D01*
X460989Y122993D01*
D02*
G37*
G36*
X428477D02*
X427482D01*
X426563Y122612D01*
X425860Y121909D01*
X425479Y120990D01*
Y119995D01*
X425860Y119077D01*
X426563Y118373D01*
X427482Y117993D01*
X428477D01*
X429395Y118373D01*
X430099Y119077D01*
X430479Y119995D01*
Y120990D01*
X430099Y121909D01*
X429395Y122612D01*
X428477Y122993D01*
D02*
G37*
G36*
X421974D02*
X420980D01*
X420061Y122612D01*
X419358Y121909D01*
X418977Y120990D01*
Y119995D01*
X419358Y119077D01*
X420061Y118373D01*
X420980Y117993D01*
X421974D01*
X422893Y118373D01*
X423596Y119077D01*
X423977Y119995D01*
Y120990D01*
X423596Y121909D01*
X422893Y122612D01*
X421974Y122993D01*
D02*
G37*
G36*
X415497D02*
X414503D01*
X413584Y122612D01*
X412881Y121909D01*
X412500Y120990D01*
Y119995D01*
X412881Y119077D01*
X413584Y118373D01*
X414503Y117993D01*
X415497D01*
X416416Y118373D01*
X417119Y119077D01*
X417500Y119995D01*
Y120990D01*
X417119Y121909D01*
X416416Y122612D01*
X415497Y122993D01*
D02*
G37*
G36*
X408995D02*
X408000D01*
X407081Y122612D01*
X406378Y121909D01*
X405998Y120990D01*
Y119995D01*
X406378Y119077D01*
X407081Y118373D01*
X408000Y117993D01*
X408995D01*
X409914Y118373D01*
X410617Y119077D01*
X410998Y119995D01*
Y120990D01*
X410617Y121909D01*
X409914Y122612D01*
X408995Y122993D01*
D02*
G37*
G36*
X395990D02*
X394995D01*
X394077Y122612D01*
X393373Y121909D01*
X392993Y120990D01*
Y119995D01*
X393373Y119077D01*
X394077Y118373D01*
X394995Y117993D01*
X395990D01*
X396909Y118373D01*
X397612Y119077D01*
X397993Y119995D01*
Y120990D01*
X397612Y121909D01*
X396909Y122612D01*
X395990Y122993D01*
D02*
G37*
G36*
X492699Y120218D02*
X491307D01*
X490021Y119685D01*
X489036Y118701D01*
X488503Y117414D01*
Y116022D01*
X489036Y114735D01*
X490021Y113751D01*
X491307Y113218D01*
X492699D01*
X493986Y113751D01*
X494970Y114735D01*
X495503Y116022D01*
Y117414D01*
X494970Y118701D01*
X493986Y119685D01*
X492699Y120218D01*
D02*
G37*
G36*
X460989Y116490D02*
X459994D01*
X459075Y116110D01*
X458372Y115407D01*
X457991Y114488D01*
Y113493D01*
X458372Y112574D01*
X459075Y111871D01*
X459994Y111490D01*
X460989D01*
X461908Y111871D01*
X462611Y112574D01*
X462991Y113493D01*
Y114488D01*
X462611Y115407D01*
X461908Y116110D01*
X460989Y116490D01*
D02*
G37*
G36*
X454486D02*
X453492D01*
X452573Y116110D01*
X451870Y115407D01*
X451489Y114488D01*
Y113493D01*
X451870Y112574D01*
X452573Y111871D01*
X453492Y111490D01*
X454486D01*
X455405Y111871D01*
X456108Y112574D01*
X456489Y113493D01*
Y114488D01*
X456108Y115407D01*
X455405Y116110D01*
X454486Y116490D01*
D02*
G37*
G36*
X428477D02*
X427482D01*
X426563Y116110D01*
X425860Y115407D01*
X425479Y114488D01*
Y113493D01*
X425860Y112574D01*
X426563Y111871D01*
X427482Y111490D01*
X428477D01*
X429395Y111871D01*
X430099Y112574D01*
X430479Y113493D01*
Y114488D01*
X430099Y115407D01*
X429395Y116110D01*
X428477Y116490D01*
D02*
G37*
G36*
X421974D02*
X420980D01*
X420061Y116110D01*
X419358Y115407D01*
X418977Y114488D01*
Y113493D01*
X419358Y112574D01*
X420061Y111871D01*
X420980Y111490D01*
X421974D01*
X422893Y111871D01*
X423596Y112574D01*
X423977Y113493D01*
Y114488D01*
X423596Y115407D01*
X422893Y116110D01*
X421974Y116490D01*
D02*
G37*
G36*
X415497D02*
X414503D01*
X413584Y116110D01*
X412881Y115407D01*
X412500Y114488D01*
Y113493D01*
X412881Y112574D01*
X413584Y111871D01*
X414503Y111490D01*
X415497D01*
X416416Y111871D01*
X417119Y112574D01*
X417500Y113493D01*
Y114488D01*
X417119Y115407D01*
X416416Y116110D01*
X415497Y116490D01*
D02*
G37*
G36*
X408995D02*
X408000D01*
X407081Y116110D01*
X406378Y115407D01*
X405998Y114488D01*
Y113493D01*
X406378Y112574D01*
X407081Y111871D01*
X408000Y111490D01*
X408995D01*
X409914Y111871D01*
X410617Y112574D01*
X410998Y113493D01*
Y114488D01*
X410617Y115407D01*
X409914Y116110D01*
X408995Y116490D01*
D02*
G37*
G36*
X395990D02*
X394995D01*
X394077Y116110D01*
X393373Y115407D01*
X392993Y114488D01*
Y113493D01*
X393373Y112574D01*
X394077Y111871D01*
X394995Y111490D01*
X395990D01*
X396909Y111871D01*
X397612Y112574D01*
X397993Y113493D01*
Y114488D01*
X397612Y115407D01*
X396909Y116110D01*
X395990Y116490D01*
D02*
G37*
G36*
X389434Y116477D02*
X388439D01*
X387521Y116096D01*
X386817Y115393D01*
X386437Y114474D01*
Y113480D01*
X386817Y112561D01*
X387521Y111858D01*
X388439Y111477D01*
X389434D01*
X390353Y111858D01*
X391056Y112561D01*
X391437Y113480D01*
Y114474D01*
X391056Y115393D01*
X390353Y116096D01*
X389434Y116477D01*
D02*
G37*
G36*
X460933Y110003D02*
X459938D01*
X459020Y109622D01*
X458316Y108919D01*
X457936Y108000D01*
Y107006D01*
X458316Y106087D01*
X459020Y105384D01*
X459938Y105003D01*
X460933D01*
X461852Y105384D01*
X462555Y106087D01*
X462936Y107006D01*
Y108000D01*
X462555Y108919D01*
X461852Y109622D01*
X460933Y110003D01*
D02*
G37*
G36*
X454486Y109988D02*
X453492D01*
X452573Y109607D01*
X451870Y108904D01*
X451489Y107985D01*
Y106991D01*
X451870Y106072D01*
X452573Y105369D01*
X453492Y104988D01*
X454486D01*
X455405Y105369D01*
X456108Y106072D01*
X456489Y106991D01*
Y107985D01*
X456108Y108904D01*
X455405Y109607D01*
X454486Y109988D01*
D02*
G37*
G36*
X447984D02*
X446989D01*
X446071Y109607D01*
X445367Y108904D01*
X444987Y107985D01*
Y106991D01*
X445367Y106072D01*
X446071Y105369D01*
X446989Y104988D01*
X447984D01*
X448903Y105369D01*
X449606Y106072D01*
X449987Y106991D01*
Y107985D01*
X449606Y108904D01*
X448903Y109607D01*
X447984Y109988D01*
D02*
G37*
G36*
X428477D02*
X427482D01*
X426563Y109607D01*
X425860Y108904D01*
X425479Y107985D01*
Y106991D01*
X425860Y106072D01*
X426563Y105369D01*
X427482Y104988D01*
X428477D01*
X429395Y105369D01*
X430099Y106072D01*
X430479Y106991D01*
Y107985D01*
X430099Y108904D01*
X429395Y109607D01*
X428477Y109988D01*
D02*
G37*
G36*
X421974D02*
X420980D01*
X420061Y109607D01*
X419358Y108904D01*
X418977Y107985D01*
Y106991D01*
X419358Y106072D01*
X420061Y105369D01*
X420980Y104988D01*
X421974D01*
X422893Y105369D01*
X423596Y106072D01*
X423977Y106991D01*
Y107985D01*
X423596Y108904D01*
X422893Y109607D01*
X421974Y109988D01*
D02*
G37*
G36*
X415497D02*
X414503D01*
X413584Y109607D01*
X412881Y108904D01*
X412500Y107985D01*
Y106991D01*
X412881Y106072D01*
X413584Y105369D01*
X414503Y104988D01*
X415497D01*
X416416Y105369D01*
X417119Y106072D01*
X417500Y106991D01*
Y107985D01*
X417119Y108904D01*
X416416Y109607D01*
X415497Y109988D01*
D02*
G37*
G36*
X389488D02*
X388493D01*
X387574Y109607D01*
X386871Y108904D01*
X386490Y107985D01*
Y106991D01*
X386871Y106072D01*
X387574Y105369D01*
X388493Y104988D01*
X389488D01*
X390406Y105369D01*
X391110Y106072D01*
X391490Y106991D01*
Y107985D01*
X391110Y108904D01*
X390406Y109607D01*
X389488Y109988D01*
D02*
G37*
G36*
X382985D02*
X381991D01*
X381072Y109607D01*
X380369Y108904D01*
X379988Y107985D01*
Y106991D01*
X380369Y106072D01*
X381072Y105369D01*
X381991Y104988D01*
X382985D01*
X383904Y105369D01*
X384607Y106072D01*
X384988Y106991D01*
Y107985D01*
X384607Y108904D01*
X383904Y109607D01*
X382985Y109988D01*
D02*
G37*
G36*
X467497Y109965D02*
X466502D01*
X465583Y109584D01*
X464880Y108881D01*
X464499Y107962D01*
Y106968D01*
X464880Y106049D01*
X465583Y105346D01*
X466502Y104965D01*
X467497D01*
X468415Y105346D01*
X469119Y106049D01*
X469499Y106968D01*
Y107962D01*
X469119Y108881D01*
X468415Y109584D01*
X467497Y109965D01*
D02*
G37*
G36*
X408919D02*
X407924D01*
X407006Y109584D01*
X406302Y108881D01*
X405922Y107962D01*
Y106968D01*
X406302Y106049D01*
X407006Y105346D01*
X407924Y104965D01*
X408919D01*
X409838Y105346D01*
X410541Y106049D01*
X410922Y106968D01*
Y107962D01*
X410541Y108881D01*
X409838Y109584D01*
X408919Y109965D01*
D02*
G37*
G36*
X402470Y109934D02*
X401475D01*
X400556Y109554D01*
X399853Y108850D01*
X399472Y107932D01*
Y106937D01*
X399853Y106018D01*
X400556Y105315D01*
X401475Y104934D01*
X402470D01*
X403388Y105315D01*
X404092Y106018D01*
X404472Y106937D01*
Y107932D01*
X404092Y108850D01*
X403388Y109554D01*
X402470Y109934D01*
D02*
G37*
G36*
X395982D02*
X394988D01*
X394069Y109554D01*
X393366Y108850D01*
X392985Y107932D01*
Y106937D01*
X393366Y106018D01*
X394069Y105315D01*
X394988Y104934D01*
X395982D01*
X396901Y105315D01*
X397604Y106018D01*
X397985Y106937D01*
Y107932D01*
X397604Y108850D01*
X396901Y109554D01*
X395982Y109934D01*
D02*
G37*
G36*
X454148Y103775D02*
X453153D01*
X452234Y103395D01*
X451531Y102691D01*
X451151Y101772D01*
Y100778D01*
X451531Y99859D01*
X452234Y99156D01*
X453153Y98775D01*
X454148D01*
X455067Y99156D01*
X455770Y99859D01*
X456151Y100778D01*
Y101772D01*
X455770Y102691D01*
X455067Y103395D01*
X454148Y103775D01*
D02*
G37*
G36*
X473984Y103554D02*
X472989D01*
X472071Y103173D01*
X471367Y102470D01*
X470987Y101551D01*
Y100557D01*
X471367Y99638D01*
X472071Y98934D01*
X472989Y98554D01*
X473984D01*
X474903Y98934D01*
X475606Y99638D01*
X475987Y100557D01*
Y101551D01*
X475606Y102470D01*
X474903Y103173D01*
X473984Y103554D01*
D02*
G37*
G36*
X402470D02*
X401475D01*
X400556Y103173D01*
X399853Y102470D01*
X399472Y101551D01*
Y100557D01*
X399853Y99638D01*
X400556Y98934D01*
X401475Y98554D01*
X402470D01*
X403388Y98934D01*
X404092Y99638D01*
X404472Y100557D01*
Y101551D01*
X404092Y102470D01*
X403388Y103173D01*
X402470Y103554D01*
D02*
G37*
G36*
X441471Y103516D02*
X440476D01*
X439557Y103135D01*
X438854Y102432D01*
X438473Y101513D01*
Y100518D01*
X438854Y99600D01*
X439557Y98896D01*
X440476Y98516D01*
X441471D01*
X442389Y98896D01*
X443093Y99600D01*
X443473Y100518D01*
Y101513D01*
X443093Y102432D01*
X442389Y103135D01*
X441471Y103516D01*
D02*
G37*
G36*
X421970D02*
X420975D01*
X420057Y103135D01*
X419353Y102432D01*
X418973Y101513D01*
Y100518D01*
X419353Y99600D01*
X420057Y98896D01*
X420975Y98516D01*
X421970D01*
X422889Y98896D01*
X423592Y99600D01*
X423973Y100518D01*
Y101513D01*
X423592Y102432D01*
X422889Y103135D01*
X421970Y103516D01*
D02*
G37*
G36*
X480496Y103486D02*
X479501D01*
X478582Y103105D01*
X477879Y102402D01*
X477499Y101483D01*
Y100488D01*
X477879Y99570D01*
X478582Y98866D01*
X479501Y98486D01*
X480496D01*
X481415Y98866D01*
X482118Y99570D01*
X482499Y100488D01*
Y101483D01*
X482118Y102402D01*
X481415Y103105D01*
X480496Y103486D01*
D02*
G37*
G36*
X467491D02*
X466497D01*
X465578Y103105D01*
X464874Y102402D01*
X464494Y101483D01*
Y100488D01*
X464874Y99570D01*
X465578Y98866D01*
X466497Y98486D01*
X467491D01*
X468410Y98866D01*
X469113Y99570D01*
X469494Y100488D01*
Y101483D01*
X469113Y102402D01*
X468410Y103105D01*
X467491Y103486D01*
D02*
G37*
G36*
X447958Y103478D02*
X446963D01*
X446045Y103097D01*
X445341Y102394D01*
X444961Y101475D01*
Y100480D01*
X445341Y99561D01*
X446045Y98858D01*
X446963Y98478D01*
X447958D01*
X448877Y98858D01*
X449580Y99561D01*
X449961Y100480D01*
Y101475D01*
X449580Y102394D01*
X448877Y103097D01*
X447958Y103478D01*
D02*
G37*
G36*
X460971Y103439D02*
X459977D01*
X459058Y103059D01*
X458354Y102355D01*
X457974Y101437D01*
Y100442D01*
X458354Y99523D01*
X459058Y98820D01*
X459977Y98439D01*
X460971D01*
X461890Y98820D01*
X462593Y99523D01*
X462974Y100442D01*
Y101437D01*
X462593Y102355D01*
X461890Y103059D01*
X460971Y103439D01*
D02*
G37*
G36*
X415483D02*
X414488D01*
X413569Y103059D01*
X412866Y102355D01*
X412485Y101437D01*
Y100442D01*
X412866Y99523D01*
X413569Y98820D01*
X414488Y98439D01*
X415483D01*
X416402Y98820D01*
X417105Y99523D01*
X417485Y100442D01*
Y101437D01*
X417105Y102355D01*
X416402Y103059D01*
X415483Y103439D01*
D02*
G37*
G36*
X408995D02*
X408001D01*
X407082Y103059D01*
X406379Y102355D01*
X405998Y101437D01*
Y100442D01*
X406379Y99523D01*
X407082Y98820D01*
X408001Y98439D01*
X408995D01*
X409914Y98820D01*
X410617Y99523D01*
X410998Y100442D01*
Y101437D01*
X410617Y102355D01*
X409914Y103059D01*
X408995Y103439D01*
D02*
G37*
G36*
X441445Y97076D02*
X440450D01*
X439531Y96695D01*
X438828Y95992D01*
X438447Y95073D01*
Y94078D01*
X438828Y93160D01*
X439531Y92456D01*
X440450Y92076D01*
X441445D01*
X442364Y92456D01*
X443067Y93160D01*
X443447Y94078D01*
Y95073D01*
X443067Y95992D01*
X442364Y96695D01*
X441445Y97076D01*
D02*
G37*
G36*
X415554Y97061D02*
X414560D01*
X413641Y96681D01*
X412938Y95977D01*
X412557Y95058D01*
Y94064D01*
X412938Y93145D01*
X413641Y92442D01*
X414560Y92061D01*
X415554D01*
X416473Y92442D01*
X417176Y93145D01*
X417557Y94064D01*
Y95058D01*
X417176Y95977D01*
X416473Y96681D01*
X415554Y97061D01*
D02*
G37*
G36*
X396006Y97057D02*
X395012D01*
X394093Y96676D01*
X393390Y95973D01*
X393009Y95054D01*
Y94060D01*
X393390Y93141D01*
X394093Y92437D01*
X395012Y92057D01*
X396006D01*
X396925Y92437D01*
X397629Y93141D01*
X398009Y94060D01*
Y95054D01*
X397629Y95973D01*
X396925Y96676D01*
X396006Y97057D01*
D02*
G37*
G36*
X473993Y97009D02*
X472999D01*
X472080Y96628D01*
X471377Y95925D01*
X470996Y95006D01*
Y94011D01*
X471377Y93092D01*
X472080Y92389D01*
X472999Y92009D01*
X473993D01*
X474912Y92389D01*
X475616Y93092D01*
X475996Y94011D01*
Y95006D01*
X475616Y95925D01*
X474912Y96628D01*
X473993Y97009D01*
D02*
G37*
G36*
X422110D02*
X421116D01*
X420197Y96628D01*
X419494Y95925D01*
X419113Y95006D01*
Y94011D01*
X419494Y93092D01*
X420197Y92389D01*
X421116Y92009D01*
X422110D01*
X423029Y92389D01*
X423732Y93092D01*
X424113Y94011D01*
Y95006D01*
X423732Y95925D01*
X423029Y96628D01*
X422110Y97009D01*
D02*
G37*
G36*
X460894Y96972D02*
X459900D01*
X458981Y96592D01*
X458278Y95888D01*
X457897Y94970D01*
Y93975D01*
X458278Y93056D01*
X458981Y92353D01*
X459900Y91972D01*
X460894D01*
X461813Y92353D01*
X462516Y93056D01*
X462897Y93975D01*
Y94970D01*
X462516Y95888D01*
X461813Y96592D01*
X460894Y96972D01*
D02*
G37*
G36*
X407820Y94479D02*
X406826D01*
X405907Y94099D01*
X405204Y93395D01*
X404823Y92476D01*
Y91482D01*
X405204Y90563D01*
X405907Y89860D01*
X406826Y89479D01*
X407820D01*
X408739Y89860D01*
X409442Y90563D01*
X409823Y91482D01*
Y92476D01*
X409442Y93395D01*
X408739Y94099D01*
X407820Y94479D01*
D02*
G37*
G36*
X439801Y91355D02*
X438806D01*
X437888Y90975D01*
X437184Y90271D01*
X436804Y89353D01*
Y88358D01*
X437184Y87439D01*
X437888Y86736D01*
X438806Y86355D01*
X439801D01*
X440720Y86736D01*
X441423Y87439D01*
X441804Y88358D01*
Y89353D01*
X441423Y90271D01*
X440720Y90975D01*
X439801Y91355D01*
D02*
G37*
G36*
X466576Y91288D02*
X465581D01*
X464662Y90907D01*
X463959Y90204D01*
X463578Y89285D01*
Y88291D01*
X463959Y87372D01*
X464662Y86669D01*
X465581Y86288D01*
X466576D01*
X467495Y86669D01*
X468198Y87372D01*
X468578Y88291D01*
Y89285D01*
X468198Y90204D01*
X467495Y90907D01*
X466576Y91288D01*
D02*
G37*
G36*
X449546Y90674D02*
X448551D01*
X447633Y90293D01*
X446929Y89590D01*
X446549Y88671D01*
Y87676D01*
X446929Y86758D01*
X447633Y86054D01*
X448551Y85674D01*
X449546D01*
X450465Y86054D01*
X451168Y86758D01*
X451549Y87676D01*
Y88671D01*
X451168Y89590D01*
X450465Y90293D01*
X449546Y90674D01*
D02*
G37*
G36*
X467371Y81655D02*
X465979D01*
X464692Y81122D01*
X463708Y80137D01*
X463175Y78851D01*
Y77459D01*
X463708Y76172D01*
X464692Y75188D01*
X465979Y74655D01*
X467371D01*
X468658Y75188D01*
X469642Y76172D01*
X470175Y77459D01*
Y78851D01*
X469642Y80137D01*
X468658Y81122D01*
X467371Y81655D01*
D02*
G37*
G36*
X486769Y78338D02*
X485377D01*
X484090Y77805D01*
X483106Y76820D01*
X482573Y75534D01*
Y74141D01*
X483106Y72855D01*
X484090Y71870D01*
X485377Y71338D01*
X486769D01*
X488055Y71870D01*
X489040Y72855D01*
X489573Y74141D01*
Y75534D01*
X489040Y76820D01*
X488055Y77805D01*
X486769Y78338D01*
D02*
G37*
G36*
X446934Y70852D02*
X445542D01*
X444256Y70319D01*
X443271Y69334D01*
X443188Y69134D01*
X442491Y69832D01*
X441205Y70364D01*
X439812D01*
X438526Y69832D01*
X437541Y68847D01*
X437009Y67561D01*
Y66168D01*
X437541Y64882D01*
X438526Y63897D01*
X439812Y63365D01*
X441205D01*
X442491Y63897D01*
X443476Y64882D01*
X443558Y65082D01*
X444256Y64385D01*
X445542Y63852D01*
X446934D01*
X448221Y64385D01*
X449205Y65369D01*
X449738Y66656D01*
Y68048D01*
X449205Y69334D01*
X448221Y70319D01*
X446934Y70852D01*
D02*
G37*
G36*
X465294Y70565D02*
X463902D01*
X462616Y70032D01*
X461690Y69107D01*
X460831Y69966D01*
X459544Y70498D01*
X458152D01*
X456866Y69966D01*
X455881Y68981D01*
X455348Y67695D01*
Y66302D01*
X455881Y65016D01*
X456866Y64031D01*
X458152Y63498D01*
X459544D01*
X460831Y64031D01*
X461757Y64957D01*
X462616Y64098D01*
X463902Y63565D01*
X465294D01*
X466581Y64098D01*
X467565Y65083D01*
X468098Y66369D01*
Y67762D01*
X467565Y69048D01*
X466581Y70032D01*
X465294Y70565D01*
D02*
G37*
G36*
X420196Y74250D02*
X418804D01*
X417517Y73717D01*
X416533Y72733D01*
X416000Y71446D01*
Y70054D01*
X416533Y68767D01*
X417517Y67783D01*
X418804Y67250D01*
X420196D01*
X421483Y67783D01*
X422467Y68767D01*
X423000Y70054D01*
Y71446D01*
X422467Y72733D01*
X421483Y73717D01*
X420196Y74250D01*
D02*
G37*
G36*
X454486Y155505D02*
X453492D01*
X452573Y155124D01*
X451870Y154421D01*
X451489Y153502D01*
Y152507D01*
X451870Y151589D01*
X452573Y150885D01*
X453492Y150505D01*
X454486D01*
X455405Y150885D01*
X456108Y151589D01*
X456489Y152507D01*
Y153502D01*
X456108Y154421D01*
X455405Y155124D01*
X454486Y155505D01*
D02*
G37*
G36*
X460989Y149002D02*
X459994D01*
X459075Y148622D01*
X458372Y147919D01*
X457991Y147000D01*
Y146005D01*
X458372Y145086D01*
X459075Y144383D01*
X459994Y144002D01*
X460989D01*
X461908Y144383D01*
X462611Y145086D01*
X462991Y146005D01*
Y147000D01*
X462611Y147919D01*
X461908Y148622D01*
X460989Y149002D01*
D02*
G37*
G36*
X454486D02*
X453492D01*
X452573Y148622D01*
X451870Y147919D01*
X451489Y147000D01*
Y146005D01*
X451870Y145086D01*
X452573Y144383D01*
X453492Y144002D01*
X454486D01*
X455405Y144383D01*
X456108Y145086D01*
X456489Y146005D01*
Y147000D01*
X456108Y147919D01*
X455405Y148622D01*
X454486Y149002D01*
D02*
G37*
G36*
X447984D02*
X446989D01*
X446071Y148622D01*
X445367Y147919D01*
X444987Y147000D01*
Y146005D01*
X445367Y145086D01*
X446071Y144383D01*
X446989Y144002D01*
X447984D01*
X448903Y144383D01*
X449606Y145086D01*
X449987Y146005D01*
Y147000D01*
X449606Y147919D01*
X448903Y148622D01*
X447984Y149002D01*
D02*
G37*
G36*
X454486Y142500D02*
X453492D01*
X452573Y142119D01*
X451870Y141416D01*
X451489Y140497D01*
Y139503D01*
X451870Y138584D01*
X452573Y137881D01*
X453492Y137500D01*
X454486D01*
X455405Y137881D01*
X456108Y138584D01*
X456489Y139503D01*
Y140497D01*
X456108Y141416D01*
X455405Y142119D01*
X454486Y142500D01*
D02*
G37*
G36*
X447984D02*
X446989D01*
X446071Y142119D01*
X445367Y141416D01*
X444987Y140497D01*
Y139503D01*
X445367Y138584D01*
X446071Y137881D01*
X446989Y137500D01*
X447984D01*
X448903Y137881D01*
X449606Y138584D01*
X449987Y139503D01*
Y140497D01*
X449606Y141416D01*
X448903Y142119D01*
X447984Y142500D01*
D02*
G37*
G36*
X454486Y135998D02*
X453492D01*
X452573Y135617D01*
X451870Y134914D01*
X451489Y133995D01*
Y133000D01*
X451870Y132081D01*
X452573Y131378D01*
X453492Y130998D01*
X454486D01*
X455405Y131378D01*
X456108Y132081D01*
X456489Y133000D01*
Y133995D01*
X456108Y134914D01*
X455405Y135617D01*
X454486Y135998D01*
D02*
G37*
G36*
X447984D02*
X446989D01*
X446071Y135617D01*
X445367Y134914D01*
X444987Y133995D01*
Y133000D01*
X445367Y132081D01*
X446071Y131378D01*
X446989Y130998D01*
X447984D01*
X448903Y131378D01*
X449606Y132081D01*
X449987Y133000D01*
Y133995D01*
X449606Y134914D01*
X448903Y135617D01*
X447984Y135998D01*
D02*
G37*
G36*
Y129495D02*
X446989D01*
X446071Y129115D01*
X445367Y128411D01*
X444987Y127493D01*
Y126498D01*
X445367Y125579D01*
X446071Y124876D01*
X446989Y124495D01*
X447984D01*
X448903Y124876D01*
X449606Y125579D01*
X449987Y126498D01*
Y127493D01*
X449606Y128411D01*
X448903Y129115D01*
X447984Y129495D01*
D02*
G37*
G36*
Y122993D02*
X446989D01*
X446071Y122612D01*
X445367Y121909D01*
X444987Y120990D01*
Y119995D01*
X445367Y119077D01*
X446071Y118373D01*
X446989Y117993D01*
X447984D01*
X448903Y118373D01*
X449606Y119077D01*
X449987Y119995D01*
Y120990D01*
X449606Y121909D01*
X448903Y122612D01*
X447984Y122993D01*
D02*
G37*
G36*
X441482D02*
X440487D01*
X439568Y122612D01*
X438865Y121909D01*
X438484Y120990D01*
Y119995D01*
X438865Y119077D01*
X439568Y118373D01*
X440487Y117993D01*
X441482D01*
X442400Y118373D01*
X443104Y119077D01*
X443484Y119995D01*
Y120990D01*
X443104Y121909D01*
X442400Y122612D01*
X441482Y122993D01*
D02*
G37*
%LPD*%
D94*
X497711Y113211D02*
D03*
X460491Y159507D02*
D03*
Y140000D02*
D03*
X440984Y113990D02*
D03*
X460491Y153005D02*
D03*
X388838Y368903D02*
D03*
X502079Y183512D02*
D03*
X502356Y177702D02*
D03*
X477780Y234273D02*
D03*
X467514Y223354D02*
D03*
X484985Y234894D02*
D03*
X477904Y241230D02*
D03*
X484861Y240981D02*
D03*
X460932Y216026D02*
D03*
X468250Y210500D02*
D03*
Y217000D02*
D03*
X504000Y113000D02*
D03*
X455697Y200610D02*
D03*
X448017Y200260D02*
D03*
X426737Y213663D02*
D03*
X362445Y180494D02*
D03*
X401995Y159507D02*
D03*
X415000D02*
D03*
X421477D02*
D03*
X434482D02*
D03*
X447487D02*
D03*
X440984D02*
D03*
X401995Y153005D02*
D03*
Y166010D02*
D03*
X453989Y185491D02*
D03*
X447487Y191994D02*
D03*
X400000Y200750D02*
D03*
X415000Y191994D02*
D03*
Y185491D02*
D03*
X427979Y178989D02*
D03*
X408498Y140000D02*
D03*
X401995Y120493D02*
D03*
Y113990D02*
D03*
X395493Y126995D02*
D03*
D98*
X419889Y206814D02*
X426737Y213663D01*
X418788Y206814D02*
X419889D01*
D102*
X390497Y329723D02*
Y347631D01*
X395879Y353013D01*
X390497Y329723D02*
X394808Y325411D01*
X388307Y368372D02*
X395879Y360800D01*
Y353013D02*
Y360800D01*
X417381Y205000D02*
X418788Y206407D01*
X400000Y200750D02*
X411845D01*
X418788Y206814D02*
Y246423D01*
X394808Y310995D02*
Y325411D01*
X403250Y261961D02*
X418788Y246423D01*
X394808Y310995D02*
X403250Y302553D01*
Y261961D02*
Y302553D01*
D120*
X297507Y211142D02*
D03*
X297612Y153064D02*
D03*
X546343Y175224D02*
D03*
X546238Y233303D02*
D03*
D121*
X260757Y225308D02*
D03*
Y138795D02*
D03*
X583093Y161059D02*
D03*
Y247572D02*
D03*
D122*
X302566Y225308D02*
D03*
Y138795D02*
D03*
X541284Y161059D02*
D03*
Y247572D02*
D03*
D123*
X575656Y25626D02*
D03*
X566000Y302500D02*
D03*
Y292500D02*
D03*
X556000D02*
D03*
Y302500D02*
D03*
X561000Y297500D02*
D03*
D124*
X309736Y322009D02*
D03*
X535500Y490000D02*
D03*
X534600Y107402D02*
D03*
D125*
X309736Y302009D02*
D03*
X535500Y510000D02*
D03*
X534600Y127402D02*
D03*
D126*
X220044Y456251D02*
D03*
X220000Y440126D02*
D03*
X438990Y340337D02*
D03*
X422865Y340381D02*
D03*
X434956Y281749D02*
D03*
X435000Y297874D02*
D03*
X592410Y327975D02*
D03*
X592454Y344100D02*
D03*
X592589Y310865D02*
D03*
X592545Y294740D02*
D03*
X592469Y279689D02*
D03*
X592425Y263564D02*
D03*
X10041Y456251D02*
D03*
X9998Y440126D02*
D03*
X40044Y456251D02*
D03*
X40000Y440126D02*
D03*
X70041Y456251D02*
D03*
X69998Y440126D02*
D03*
X100044Y456251D02*
D03*
X100000Y440126D02*
D03*
X130044Y456251D02*
D03*
X130000Y440126D02*
D03*
X160044Y456251D02*
D03*
X160000Y440126D02*
D03*
X190044Y456251D02*
D03*
X190000Y440126D02*
D03*
D128*
X411845Y200750D02*
X416095Y205000D01*
M02*
