G04*
G04 #@! TF.GenerationSoftware,Altium Limited,Altium Designer Agile,26.0.0 (14)*
G04*
G04 Layer_Color=128*
%FSLAX44Y44*%
%MOMM*%
G71*
G04*
G04 #@! TF.SameCoordinates,04CBB564-C9C0-4F95-909A-045186AD367E*
G04*
G04*
G04 #@! TF.FilePolarity,Positive*
G04*
G01*
G75*
%ADD23R,0.3000X1.0000*%
%ADD24R,1.0000X1.0000*%
%ADD28R,0.3250X0.2700*%
%ADD42R,0.5153X0.4725*%
%ADD46R,0.7500X0.9000*%
%ADD47R,0.9000X0.7500*%
%ADD49R,0.4725X0.5153*%
G04:AMPARAMS|DCode=112|XSize=0.3mm|YSize=0.45mm|CornerRadius=0.0495mm|HoleSize=0mm|Usage=FLASHONLY|Rotation=270.000|XOffset=0mm|YOffset=0mm|HoleType=Round|Shape=RoundedRectangle|*
%AMROUNDEDRECTD112*
21,1,0.3000,0.3510,0,0,270.0*
21,1,0.2010,0.4500,0,0,270.0*
1,1,0.0990,-0.1755,-0.1005*
1,1,0.0990,-0.1755,0.1005*
1,1,0.0990,0.1755,0.1005*
1,1,0.0990,0.1755,-0.1005*
%
%ADD112ROUNDEDRECTD112*%
%ADD114R,0.8000X0.9000*%
%ADD115R,1.7000X0.6000*%
%ADD116R,2.8000X1.0000*%
%ADD117R,0.6096X0.4064*%
G04:AMPARAMS|DCode=118|XSize=0.55mm|YSize=0.25mm|CornerRadius=0.05mm|HoleSize=0mm|Usage=FLASHONLY|Rotation=180.000|XOffset=0mm|YOffset=0mm|HoleType=Round|Shape=RoundedRectangle|*
%AMROUNDEDRECTD118*
21,1,0.5500,0.1500,0,0,180.0*
21,1,0.4500,0.2500,0,0,180.0*
1,1,0.1000,-0.2250,0.0750*
1,1,0.1000,0.2250,0.0750*
1,1,0.1000,0.2250,-0.0750*
1,1,0.1000,-0.2250,-0.0750*
%
%ADD118ROUNDEDRECTD118*%
G04:AMPARAMS|DCode=119|XSize=0.9mm|YSize=0.25mm|CornerRadius=0.05mm|HoleSize=0mm|Usage=FLASHONLY|Rotation=0.000|XOffset=0mm|YOffset=0mm|HoleType=Round|Shape=RoundedRectangle|*
%AMROUNDEDRECTD119*
21,1,0.9000,0.1500,0,0,0.0*
21,1,0.8000,0.2500,0,0,0.0*
1,1,0.1000,0.4000,-0.0750*
1,1,0.1000,-0.4000,-0.0750*
1,1,0.1000,-0.4000,0.0750*
1,1,0.1000,0.4000,0.0750*
%
%ADD119ROUNDEDRECTD119*%
G04:AMPARAMS|DCode=120|XSize=0.6mm|YSize=0.25mm|CornerRadius=0.05mm|HoleSize=0mm|Usage=FLASHONLY|Rotation=0.000|XOffset=0mm|YOffset=0mm|HoleType=Round|Shape=RoundedRectangle|*
%AMROUNDEDRECTD120*
21,1,0.6000,0.1500,0,0,0.0*
21,1,0.5000,0.2500,0,0,0.0*
1,1,0.1000,0.2500,-0.0750*
1,1,0.1000,-0.2500,-0.0750*
1,1,0.1000,-0.2500,0.0750*
1,1,0.1000,0.2500,0.0750*
%
%ADD120ROUNDEDRECTD120*%
%ADD122R,0.3000X0.2800*%
%ADD123R,0.7493X0.5004*%
%ADD124R,0.2800X0.3000*%
%ADD125R,0.8500X0.8500*%
G04:AMPARAMS|DCode=146|XSize=1mm|YSize=0.7mm|CornerRadius=0.049mm|HoleSize=0mm|Usage=FLASHONLY|Rotation=0.000|XOffset=0mm|YOffset=0mm|HoleType=Round|Shape=RoundedRectangle|*
%AMROUNDEDRECTD146*
21,1,1.0000,0.6020,0,0,0.0*
21,1,0.9020,0.7000,0,0,0.0*
1,1,0.0980,0.4510,-0.3010*
1,1,0.0980,-0.4510,-0.3010*
1,1,0.0980,-0.4510,0.3010*
1,1,0.0980,0.4510,0.3010*
%
%ADD146ROUNDEDRECTD146*%
G36*
X291783Y431174D02*
X291924Y431033D01*
X292000Y430849D01*
Y430750D01*
Y429250D01*
Y429151D01*
X291924Y428967D01*
X291783Y428826D01*
X291599Y428750D01*
X286901D01*
X286717Y428826D01*
X286576Y428967D01*
X286500Y429151D01*
Y429250D01*
Y430750D01*
Y430849D01*
X286576Y431033D01*
X286717Y431174D01*
X286901Y431250D01*
X291599D01*
X291783Y431174D01*
D02*
G37*
G36*
X284283D02*
X284424Y431033D01*
X284500Y430849D01*
Y430750D01*
Y429250D01*
Y429151D01*
X284424Y428967D01*
X284283Y428826D01*
X284099Y428750D01*
X279401D01*
X279217Y428826D01*
X279076Y428967D01*
X279000Y429151D01*
Y429250D01*
Y430750D01*
Y430849D01*
X279076Y431033D01*
X279217Y431174D01*
X279401Y431250D01*
X284099D01*
X284283Y431174D01*
D02*
G37*
G36*
X241783D02*
X241924Y431033D01*
X242000Y430849D01*
Y430750D01*
Y429250D01*
Y429151D01*
X241924Y428967D01*
X241783Y428826D01*
X241599Y428750D01*
X236901D01*
X236717Y428826D01*
X236576Y428967D01*
X236500Y429151D01*
Y429250D01*
Y430750D01*
Y430849D01*
X236576Y431033D01*
X236717Y431174D01*
X236901Y431250D01*
X241599D01*
X241783Y431174D01*
D02*
G37*
G36*
X234283D02*
X234424Y431033D01*
X234500Y430849D01*
Y430750D01*
Y429250D01*
Y429151D01*
X234424Y428967D01*
X234283Y428826D01*
X234099Y428750D01*
X229401D01*
X229217Y428826D01*
X229076Y428967D01*
X229000Y429151D01*
Y429250D01*
Y430750D01*
Y430849D01*
X229076Y431033D01*
X229217Y431174D01*
X229401Y431250D01*
X234099D01*
X234283Y431174D01*
D02*
G37*
G36*
X300310Y366335D02*
X300451Y366194D01*
X300527Y366011D01*
Y365911D01*
Y364411D01*
Y364312D01*
X300451Y364128D01*
X300310Y363987D01*
X300126Y363911D01*
X295427D01*
X295243Y363987D01*
X295103Y364128D01*
X295027Y364312D01*
Y364411D01*
Y365911D01*
Y366011D01*
X295103Y366194D01*
X295243Y366335D01*
X295427Y366411D01*
X300126D01*
X300310Y366335D01*
D02*
G37*
G36*
X292810D02*
X292951Y366194D01*
X293027Y366011D01*
Y365911D01*
Y364411D01*
Y364312D01*
X292951Y364128D01*
X292810Y363987D01*
X292626Y363911D01*
X287927D01*
X287743Y363987D01*
X287603Y364128D01*
X287527Y364312D01*
Y364411D01*
Y365911D01*
Y366011D01*
X287603Y366194D01*
X287743Y366335D01*
X287927Y366411D01*
X292626D01*
X292810Y366335D01*
D02*
G37*
G36*
X258500Y34000D02*
X242000D01*
Y47000D01*
X258500D01*
Y34000D01*
D02*
G37*
G36*
X108000D02*
X91500D01*
Y47000D01*
X108000D01*
Y34000D01*
D02*
G37*
D23*
X172500Y59500D02*
D03*
X187500D02*
D03*
X162500D02*
D03*
X142500D02*
D03*
X207500D02*
D03*
X132500D02*
D03*
X217500D02*
D03*
X222500D02*
D03*
X127500D02*
D03*
X177500D02*
D03*
X202500D02*
D03*
X147500D02*
D03*
X192500D02*
D03*
X157500D02*
D03*
X122500D02*
D03*
X137500D02*
D03*
X152500D02*
D03*
X167500D02*
D03*
X182500D02*
D03*
X197500D02*
D03*
X212500D02*
D03*
X227500D02*
D03*
D24*
X99750Y40500D02*
D03*
X250250D02*
D03*
D28*
X96011Y431559D02*
D03*
Y441559D02*
D03*
X102761Y436559D02*
D03*
Y431559D02*
D03*
Y441559D02*
D03*
X96011Y436559D02*
D03*
D42*
X121717Y107839D02*
D03*
X129289D02*
D03*
X103916Y120001D02*
D03*
X96344D02*
D03*
X113732Y74609D02*
D03*
X106161D02*
D03*
X36297Y407561D02*
D03*
X28726D02*
D03*
X69822Y512607D02*
D03*
X62251D02*
D03*
X129569Y134718D02*
D03*
X121997D02*
D03*
X279722Y38211D02*
D03*
X287294D02*
D03*
X67309Y197274D02*
D03*
X59738D02*
D03*
X121652Y124557D02*
D03*
X129223D02*
D03*
X298612Y190618D02*
D03*
X306184D02*
D03*
X152929Y200689D02*
D03*
X160500D02*
D03*
X299792Y221798D02*
D03*
X307363D02*
D03*
X111832Y134100D02*
D03*
X104260D02*
D03*
X66410Y164208D02*
D03*
X58839D02*
D03*
X307304Y328814D02*
D03*
X314875D02*
D03*
X122047Y162610D02*
D03*
X129618D02*
D03*
X337613Y387359D02*
D03*
X330042D02*
D03*
X330982Y449201D02*
D03*
X338553D02*
D03*
X346576Y449290D02*
D03*
X354148D02*
D03*
X215578Y200358D02*
D03*
X223149D02*
D03*
X99744Y477157D02*
D03*
X107316D02*
D03*
X55500Y35061D02*
D03*
X63071D02*
D03*
X178929Y213689D02*
D03*
X186500D02*
D03*
X212422Y210306D02*
D03*
X204851D02*
D03*
X199998Y200276D02*
D03*
X207569D02*
D03*
X346378Y387136D02*
D03*
X353949D02*
D03*
X313683Y395226D02*
D03*
X306112D02*
D03*
X129766Y152313D02*
D03*
X122195D02*
D03*
X148483Y146665D02*
D03*
X140912D02*
D03*
X145239Y133519D02*
D03*
X137668D02*
D03*
X137765Y293134D02*
D03*
X145336D02*
D03*
D46*
X121743Y91061D02*
D03*
X106243D02*
D03*
D47*
X125000Y437750D02*
D03*
Y422250D02*
D03*
D49*
X49054Y492019D02*
D03*
Y499590D02*
D03*
X354666Y357958D02*
D03*
Y365530D02*
D03*
X353749Y426480D02*
D03*
Y418909D02*
D03*
X201677Y309711D02*
D03*
Y317282D02*
D03*
X171572Y374364D02*
D03*
Y366793D02*
D03*
X163374Y319563D02*
D03*
Y327134D02*
D03*
X291310Y279774D02*
D03*
Y272203D02*
D03*
X329370Y283375D02*
D03*
Y290946D02*
D03*
X306607Y292953D02*
D03*
Y285382D02*
D03*
X81509Y20470D02*
D03*
Y28041D02*
D03*
X81713Y45922D02*
D03*
Y38351D02*
D03*
X81943Y56307D02*
D03*
Y63878D02*
D03*
X301193Y51731D02*
D03*
Y59302D02*
D03*
X285990Y51855D02*
D03*
Y59426D02*
D03*
X270353Y52049D02*
D03*
Y59620D02*
D03*
X266907Y371216D02*
D03*
Y378787D02*
D03*
X264158Y361874D02*
D03*
Y354303D02*
D03*
X128306Y195903D02*
D03*
Y203474D02*
D03*
X64939Y110321D02*
D03*
Y102750D02*
D03*
X39689Y110321D02*
D03*
Y102750D02*
D03*
X188196Y193347D02*
D03*
Y200919D02*
D03*
X207911Y434592D02*
D03*
Y442164D02*
D03*
X205512Y424881D02*
D03*
Y417310D02*
D03*
X257943Y434058D02*
D03*
Y441629D02*
D03*
X135061Y261179D02*
D03*
Y268750D02*
D03*
X120061Y261179D02*
D03*
Y268750D02*
D03*
X120061Y249497D02*
D03*
Y241926D02*
D03*
X128306Y172626D02*
D03*
Y180197D02*
D03*
X256029Y424278D02*
D03*
Y416707D02*
D03*
X109490Y316454D02*
D03*
Y308883D02*
D03*
D112*
X215956Y373630D02*
D03*
Y380130D02*
D03*
X196456Y373630D02*
D03*
Y367130D02*
D03*
X215956D02*
D03*
X196456Y380130D02*
D03*
X249750Y300000D02*
D03*
Y306500D02*
D03*
X230250Y300000D02*
D03*
Y293500D02*
D03*
X249750D02*
D03*
X230250Y306500D02*
D03*
D114*
X184614Y366537D02*
D03*
Y383537D02*
D03*
X217059Y294146D02*
D03*
Y311146D02*
D03*
D115*
X76500Y431000D02*
D03*
Y441000D02*
D03*
Y471000D02*
D03*
Y461000D02*
D03*
Y451000D02*
D03*
D116*
X25000Y420000D02*
D03*
Y482000D02*
D03*
D117*
X303207Y315098D02*
D03*
Y305192D02*
D03*
D118*
X328853Y433806D02*
D03*
Y428806D02*
D03*
Y423806D02*
D03*
X342352Y418806D02*
D03*
Y433806D02*
D03*
Y428806D02*
D03*
X328853Y418806D02*
D03*
X342352Y423806D02*
D03*
X341902Y372446D02*
D03*
Y367446D02*
D03*
Y357446D02*
D03*
X328402Y362446D02*
D03*
Y372446D02*
D03*
Y367446D02*
D03*
Y357446D02*
D03*
X341902Y362446D02*
D03*
D119*
X287500Y425000D02*
D03*
Y435000D02*
D03*
Y440000D02*
D03*
Y420000D02*
D03*
X296027Y360161D02*
D03*
Y370161D02*
D03*
Y375161D02*
D03*
Y355161D02*
D03*
X237500Y425000D02*
D03*
Y435000D02*
D03*
Y440000D02*
D03*
Y420000D02*
D03*
D120*
X271000Y435000D02*
D03*
Y420000D02*
D03*
Y440000D02*
D03*
Y425000D02*
D03*
Y430000D02*
D03*
X279527Y375161D02*
D03*
Y370161D02*
D03*
Y355161D02*
D03*
Y360161D02*
D03*
Y365161D02*
D03*
X221000Y440000D02*
D03*
Y435000D02*
D03*
Y420000D02*
D03*
Y430000D02*
D03*
Y425000D02*
D03*
D122*
X148922Y113643D02*
D03*
Y108343D02*
D03*
X175005Y113381D02*
D03*
Y108081D02*
D03*
X161991Y166571D02*
D03*
Y171871D02*
D03*
X220456Y160094D02*
D03*
Y165394D02*
D03*
X220477Y152515D02*
D03*
Y147215D02*
D03*
X207482Y113514D02*
D03*
Y108214D02*
D03*
X207404Y159981D02*
D03*
Y165281D02*
D03*
X200840Y160019D02*
D03*
Y165319D02*
D03*
X181350Y160443D02*
D03*
Y165743D02*
D03*
X187962Y166626D02*
D03*
Y171926D02*
D03*
X175078Y160193D02*
D03*
Y165493D02*
D03*
X200916Y126443D02*
D03*
Y121143D02*
D03*
X168261Y153672D02*
D03*
Y158972D02*
D03*
X187810Y126443D02*
D03*
Y121143D02*
D03*
X181529Y119755D02*
D03*
Y114455D02*
D03*
X181470Y134175D02*
D03*
Y139475D02*
D03*
X207388Y126497D02*
D03*
Y121197D02*
D03*
X194390Y126470D02*
D03*
Y121170D02*
D03*
X207542Y139403D02*
D03*
Y134103D02*
D03*
X200826Y139403D02*
D03*
Y134103D02*
D03*
X194491Y139485D02*
D03*
Y134185D02*
D03*
X188073Y139499D02*
D03*
Y134199D02*
D03*
X201069Y152647D02*
D03*
Y147347D02*
D03*
X207814Y152646D02*
D03*
Y147346D02*
D03*
X214068Y139349D02*
D03*
Y134049D02*
D03*
X181554Y147379D02*
D03*
Y152678D02*
D03*
X187829Y152631D02*
D03*
Y147331D02*
D03*
X194543Y152700D02*
D03*
Y147400D02*
D03*
X174808Y147295D02*
D03*
Y152595D02*
D03*
X214231Y152619D02*
D03*
Y147319D02*
D03*
X187972Y113310D02*
D03*
Y108011D02*
D03*
D123*
X145974Y309216D02*
D03*
Y319224D02*
D03*
X125959Y309216D02*
D03*
Y329232D02*
D03*
X145974D02*
D03*
X125959Y319224D02*
D03*
D124*
X161145Y159550D02*
D03*
X155845D02*
D03*
X214581Y113995D02*
D03*
X219881D02*
D03*
X221215Y140048D02*
D03*
X226515D02*
D03*
X214625Y126627D02*
D03*
X219925D02*
D03*
X219922Y120378D02*
D03*
X214622D02*
D03*
X195109Y172468D02*
D03*
X200410D02*
D03*
X187409Y178975D02*
D03*
X182109D02*
D03*
X213402Y185505D02*
D03*
X208102D02*
D03*
X174417Y192046D02*
D03*
X169117D02*
D03*
X174445Y185627D02*
D03*
X169145D02*
D03*
X206887Y192046D02*
D03*
X201587D02*
D03*
X155781Y133563D02*
D03*
X161081D02*
D03*
X155796Y146616D02*
D03*
X161096D02*
D03*
X161147Y153066D02*
D03*
X155847D02*
D03*
X162646Y113900D02*
D03*
X167946D02*
D03*
X161496Y120365D02*
D03*
X156196D02*
D03*
X154874Y126966D02*
D03*
X149574D02*
D03*
X168996Y140198D02*
D03*
X174296D02*
D03*
X174411Y120420D02*
D03*
X169111D02*
D03*
X168032Y126947D02*
D03*
X162732D02*
D03*
X161038Y140039D02*
D03*
X155738D02*
D03*
X200378Y114031D02*
D03*
X195078D02*
D03*
D125*
X49269Y156042D02*
D03*
X15769D02*
D03*
D146*
X206206Y378130D02*
D03*
Y369130D02*
D03*
X240000Y304500D02*
D03*
Y295500D02*
D03*
M02*
