G04*
G04 #@! TF.GenerationSoftware,Altium Limited,Altium Designer Agile,26.0.0 (14)*
G04*
G04 Layer_Color=8421504*
%FSLAX44Y44*%
%MOMM*%
G71*
G04*
G04 #@! TF.SameCoordinates,B02E11CB-9F90-4A07-A485-67FB5D0D6AB1*
G04*
G04*
G04 #@! TF.FilePolarity,Positive*
G04*
G01*
G75*
G04:AMPARAMS|DCode=16|XSize=1.55mm|YSize=1.55mm|CornerRadius=0.0465mm|HoleSize=0mm|Usage=FLASHONLY|Rotation=180.000|XOffset=0mm|YOffset=0mm|HoleType=Round|Shape=RoundedRectangle|*
%AMROUNDEDRECTD16*
21,1,1.5500,1.4570,0,0,180.0*
21,1,1.4570,1.5500,0,0,180.0*
1,1,0.0930,-0.7285,0.7285*
1,1,0.0930,0.7285,0.7285*
1,1,0.0930,0.7285,-0.7285*
1,1,0.0930,-0.7285,-0.7285*
%
%ADD16ROUNDEDRECTD16*%
%ADD17R,3.6906X2.7915*%
%ADD18R,0.5994X1.0008*%
%ADD19C,0.2997*%
%ADD20C,0.4500*%
G04:AMPARAMS|DCode=21|XSize=0.25mm|YSize=0.6mm|CornerRadius=0.05mm|HoleSize=0mm|Usage=FLASHONLY|Rotation=270.000|XOffset=0mm|YOffset=0mm|HoleType=Round|Shape=RoundedRectangle|*
%AMROUNDEDRECTD21*
21,1,0.2500,0.5000,0,0,270.0*
21,1,0.1500,0.6000,0,0,270.0*
1,1,0.1000,-0.2500,-0.0750*
1,1,0.1000,-0.2500,0.0750*
1,1,0.1000,0.2500,0.0750*
1,1,0.1000,0.2500,-0.0750*
%
%ADD21ROUNDEDRECTD21*%
G04:AMPARAMS|DCode=22|XSize=0.25mm|YSize=0.6mm|CornerRadius=0.05mm|HoleSize=0mm|Usage=FLASHONLY|Rotation=180.000|XOffset=0mm|YOffset=0mm|HoleType=Round|Shape=RoundedRectangle|*
%AMROUNDEDRECTD22*
21,1,0.2500,0.5000,0,0,180.0*
21,1,0.1500,0.6000,0,0,180.0*
1,1,0.1000,-0.0750,0.2500*
1,1,0.1000,0.0750,0.2500*
1,1,0.1000,0.0750,-0.2500*
1,1,0.1000,-0.0750,-0.2500*
%
%ADD22ROUNDEDRECTD22*%
%ADD23C,0.1118*%
%ADD24R,0.6502X0.5461*%
%ADD25C,0.3485*%
%ADD26R,0.7500X0.7000*%
%ADD27R,0.3250X0.2700*%
%ADD28R,0.9000X0.8000*%
%ADD29R,1.3587X0.5868*%
G04:AMPARAMS|DCode=30|XSize=1.3587mm|YSize=0.5868mm|CornerRadius=0.2934mm|HoleSize=0mm|Usage=FLASHONLY|Rotation=180.000|XOffset=0mm|YOffset=0mm|HoleType=Round|Shape=RoundedRectangle|*
%AMROUNDEDRECTD30*
21,1,1.3587,0.0000,0,0,180.0*
21,1,0.7719,0.5868,0,0,180.0*
1,1,0.5868,-0.3859,0.0000*
1,1,0.5868,0.3859,0.0000*
1,1,0.5868,0.3859,0.0000*
1,1,0.5868,-0.3859,0.0000*
%
%ADD30ROUNDEDRECTD30*%
%ADD31R,0.8500X0.8500*%
%ADD32R,0.3000X0.2500*%
%ADD33R,0.9051X0.9062*%
%ADD34R,2.2062X1.3549*%
%ADD35R,1.7062X1.1544*%
%ADD36R,0.9582X1.1061*%
%ADD37R,1.1000X1.9000*%
%ADD38R,1.8062X1.3046*%
%ADD39R,1.9990X2.9997*%
%ADD40R,0.2997X1.3005*%
%ADD41O,0.2794X1.6205*%
%ADD42R,1.4500X1.2500*%
%ADD43R,0.5153X0.4725*%
%ADD44R,0.5994X1.6002*%
%ADD45R,1.6002X0.5994*%
%ADD46C,1.1989*%
%ADD47R,0.7500X0.9000*%
%ADD48R,0.9000X0.7500*%
%ADD49R,0.9062X0.9051*%
%ADD50R,0.4725X0.5153*%
%ADD51R,0.5990X1.6000*%
G36*
X346674Y253541D02*
X346979Y253490D01*
X347258Y253439D01*
X347563Y253388D01*
X347842Y253312D01*
X348122Y253210D01*
X348401Y253083D01*
X348681Y252982D01*
X348960Y252829D01*
X349214Y252677D01*
X349468Y252525D01*
X349697Y252347D01*
X349925Y252169D01*
X350154Y251966D01*
X350382Y251763D01*
X350586Y251534D01*
X350763Y251305D01*
X350941Y251077D01*
X351119Y250823D01*
X351271Y250569D01*
X351424Y250315D01*
X351551Y250035D01*
X351678Y249756D01*
X351779Y249477D01*
X351856Y249197D01*
X351932Y248892D01*
X351983Y248613D01*
X352033Y248308D01*
X352059Y248003D01*
X352084Y247724D01*
Y247419D01*
X352059Y247114D01*
X352033Y246810D01*
X351983Y246530D01*
X351932Y246225D01*
X351856Y245946D01*
X351779Y245667D01*
X351678Y245387D01*
X351551Y245108D01*
X351424Y244828D01*
X351271Y244574D01*
X351119Y244320D01*
X350941Y244066D01*
X350763Y243838D01*
X350586Y243609D01*
X350382Y243381D01*
X350154Y243177D01*
X349925Y242974D01*
X349697Y242796D01*
X349468Y242619D01*
X349214Y242441D01*
X348960Y242288D01*
X348681Y242161D01*
X348401Y242034D01*
X348122Y241933D01*
X347842Y241831D01*
X347563Y241755D01*
X347258Y241679D01*
X346979Y241628D01*
X346674Y241603D01*
X346369Y241577D01*
X339791D01*
X339486Y241603D01*
X339181Y241628D01*
X338902Y241679D01*
X338597Y241755D01*
X338317Y241831D01*
X338038Y241933D01*
X337759Y242034D01*
X337479Y242161D01*
X337200Y242288D01*
X336946Y242441D01*
X336692Y242619D01*
X336463Y242796D01*
X336235Y242974D01*
X336006Y243177D01*
X335777Y243381D01*
X335574Y243609D01*
X335396Y243838D01*
X335219Y244066D01*
X335041Y244320D01*
X334888Y244574D01*
X334736Y244828D01*
X334609Y245108D01*
X334507Y245387D01*
X334380Y245667D01*
X334304Y245946D01*
X334228Y246225D01*
X334177Y246530D01*
X334126Y246810D01*
X334101Y247114D01*
X334076Y247419D01*
Y247724D01*
X334101Y248003D01*
X334126Y248308D01*
X334177Y248613D01*
X334228Y248892D01*
X334304Y249197D01*
X334380Y249477D01*
X334507Y249756D01*
X334609Y250035D01*
X334736Y250315D01*
X334888Y250569D01*
X335041Y250823D01*
X335219Y251077D01*
X335396Y251305D01*
X335574Y251534D01*
X335777Y251763D01*
X336006Y251966D01*
X336235Y252169D01*
X336463Y252347D01*
X336692Y252525D01*
X336946Y252677D01*
X337200Y252829D01*
X337479Y252982D01*
X337759Y253083D01*
X338038Y253210D01*
X338317Y253312D01*
X338597Y253388D01*
X338902Y253439D01*
X339181Y253490D01*
X339486Y253541D01*
X339791Y253566D01*
X346369D01*
X346674Y253541D01*
D02*
G37*
G36*
X305882D02*
X306186Y253490D01*
X306466Y253439D01*
X306771Y253388D01*
X307050Y253312D01*
X307329Y253210D01*
X307609Y253083D01*
X307888Y252982D01*
X308142Y252829D01*
X308422Y252677D01*
X308650Y252525D01*
X308904Y252347D01*
X309133Y252169D01*
X309361Y251966D01*
X309565Y251763D01*
X309768Y251534D01*
X309971Y251305D01*
X310149Y251077D01*
X310327Y250823D01*
X310479Y250569D01*
X310631Y250315D01*
X310758Y250035D01*
X310860Y249756D01*
X310962Y249477D01*
X311063Y249197D01*
X311139Y248892D01*
X311190Y248613D01*
X311241Y248308D01*
X311266Y248003D01*
X311292Y247724D01*
Y247419D01*
X311266Y247114D01*
X311241Y246810D01*
X311190Y246530D01*
X311139Y246225D01*
X311063Y245946D01*
X310962Y245667D01*
X310860Y245387D01*
X310758Y245108D01*
X310631Y244828D01*
X310479Y244574D01*
X310327Y244320D01*
X310149Y244066D01*
X309971Y243838D01*
X309768Y243609D01*
X309565Y243381D01*
X309361Y243177D01*
X309133Y242974D01*
X308904Y242796D01*
X308650Y242619D01*
X308422Y242441D01*
X308142Y242288D01*
X307888Y242161D01*
X307609Y242034D01*
X307329Y241933D01*
X307050Y241831D01*
X306771Y241755D01*
X306466Y241679D01*
X306186Y241628D01*
X305882Y241603D01*
X305577Y241577D01*
X296992D01*
X296687Y241603D01*
X296382Y241628D01*
X296103Y241679D01*
X295798Y241755D01*
X295518Y241831D01*
X295239Y241933D01*
X294960Y242034D01*
X294680Y242161D01*
X294401Y242288D01*
X294147Y242441D01*
X293893Y242619D01*
X293664Y242796D01*
X293436Y242974D01*
X293207Y243177D01*
X292978Y243381D01*
X292775Y243609D01*
X292597Y243838D01*
X292420Y244066D01*
X292242Y244320D01*
X292089Y244574D01*
X291937Y244828D01*
X291810Y245108D01*
X291708Y245387D01*
X291581Y245667D01*
X291505Y245946D01*
X291429Y246225D01*
X291378Y246530D01*
X291327Y246810D01*
X291302Y247114D01*
X291277Y247419D01*
Y247724D01*
X291302Y248003D01*
X291327Y248308D01*
X291378Y248613D01*
X291429Y248892D01*
X291505Y249197D01*
X291581Y249477D01*
X291708Y249756D01*
X291810Y250035D01*
X291937Y250315D01*
X292089Y250569D01*
X292242Y250823D01*
X292420Y251077D01*
X292597Y251305D01*
X292775Y251534D01*
X292978Y251763D01*
X293207Y251966D01*
X293436Y252169D01*
X293664Y252347D01*
X293893Y252525D01*
X294147Y252677D01*
X294401Y252829D01*
X294680Y252982D01*
X294960Y253083D01*
X295239Y253210D01*
X295518Y253312D01*
X295798Y253388D01*
X296103Y253439D01*
X296382Y253490D01*
X296687Y253541D01*
X296992Y253566D01*
X305577D01*
X305882Y253541D01*
D02*
G37*
G36*
X300090Y236319D02*
Y233322D01*
X287111D01*
Y236319D01*
Y239317D01*
X300090D01*
Y236319D01*
D02*
G37*
G36*
Y228318D02*
Y225321D01*
X287086D01*
Y228318D01*
Y231316D01*
X300090D01*
Y228318D01*
D02*
G37*
G36*
Y220317D02*
X287086D01*
Y223315D01*
X300090D01*
Y220317D01*
D02*
G37*
G36*
X67163Y231277D02*
X67468Y231226D01*
X67747Y231175D01*
X68052Y231124D01*
X68332Y231048D01*
X68611Y230947D01*
X68890Y230819D01*
X69170Y230718D01*
X69449Y230565D01*
X69703Y230413D01*
X69957Y230261D01*
X70186Y230083D01*
X70414Y229905D01*
X70643Y229702D01*
X70872Y229499D01*
X71075Y229270D01*
X71253Y229042D01*
X71430Y228813D01*
X71608Y228559D01*
X71761Y228305D01*
X71913Y228051D01*
X72040Y227771D01*
X72142Y227492D01*
X72269Y227213D01*
X72345Y226933D01*
X72421Y226628D01*
X72472Y226349D01*
X72523Y226044D01*
X72548Y225739D01*
X72573Y225460D01*
Y225155D01*
X72548Y224851D01*
X72523Y224546D01*
X72472Y224266D01*
X72421Y223962D01*
X72345Y223682D01*
X72269Y223403D01*
X72142Y223098D01*
X72040Y222844D01*
X71913Y222565D01*
X71761Y222311D01*
X71608Y222057D01*
X71430Y221803D01*
X71253Y221574D01*
X71075Y221320D01*
X70872Y221117D01*
X70643Y220914D01*
X70414Y220710D01*
X70186Y220507D01*
X69957Y220355D01*
X69703Y220177D01*
X69449Y220025D01*
X69170Y219897D01*
X68890Y219771D01*
X68611Y219669D01*
X68332Y219567D01*
X68052Y219491D01*
X67747Y219415D01*
X67468Y219364D01*
X67163Y219339D01*
X66858Y219313D01*
X58273D01*
X57968Y219339D01*
X57664Y219364D01*
X57384Y219415D01*
X57079Y219491D01*
X56800Y219567D01*
X56521Y219669D01*
X56241Y219771D01*
X55962Y219897D01*
X55708Y220025D01*
X55428Y220177D01*
X55200Y220355D01*
X54946Y220507D01*
X54717Y220710D01*
X54489Y220914D01*
X54285Y221117D01*
X54082Y221320D01*
X53879Y221574D01*
X53701Y221803D01*
X53523Y222057D01*
X53371Y222311D01*
X53219Y222565D01*
X53092Y222844D01*
X52990Y223098D01*
X52888Y223403D01*
X52787Y223682D01*
X52711Y223962D01*
X52660Y224266D01*
X52609Y224546D01*
X52584Y224851D01*
X52558Y225155D01*
Y225460D01*
X52584Y225739D01*
X52609Y226044D01*
X52660Y226349D01*
X52711Y226628D01*
X52787Y226933D01*
X52888Y227213D01*
X52990Y227492D01*
X53092Y227771D01*
X53219Y228051D01*
X53371Y228305D01*
X53523Y228559D01*
X53701Y228813D01*
X53879Y229042D01*
X54082Y229270D01*
X54285Y229499D01*
X54489Y229702D01*
X54717Y229905D01*
X54946Y230083D01*
X55200Y230261D01*
X55428Y230413D01*
X55708Y230565D01*
X55962Y230718D01*
X56241Y230819D01*
X56521Y230947D01*
X56800Y231048D01*
X57079Y231124D01*
X57384Y231175D01*
X57664Y231226D01*
X57968Y231277D01*
X58273Y231302D01*
X66858D01*
X67163Y231277D01*
D02*
G37*
G36*
X24364D02*
X24669Y231226D01*
X24948Y231175D01*
X25253Y231124D01*
X25533Y231048D01*
X25812Y230947D01*
X26091Y230819D01*
X26371Y230718D01*
X26650Y230565D01*
X26904Y230413D01*
X27158Y230261D01*
X27387Y230083D01*
X27615Y229905D01*
X27844Y229702D01*
X28073Y229499D01*
X28276Y229270D01*
X28454Y229042D01*
X28631Y228813D01*
X28809Y228559D01*
X28962Y228305D01*
X29114Y228051D01*
X29241Y227771D01*
X29343Y227492D01*
X29470Y227213D01*
X29546Y226933D01*
X29622Y226628D01*
X29673Y226349D01*
X29724Y226044D01*
X29749Y225739D01*
X29774Y225460D01*
Y225155D01*
X29749Y224851D01*
X29724Y224546D01*
X29673Y224266D01*
X29622Y223962D01*
X29546Y223682D01*
X29470Y223403D01*
X29343Y223098D01*
X29241Y222844D01*
X29114Y222565D01*
X28962Y222311D01*
X28809Y222057D01*
X28631Y221803D01*
X28454Y221574D01*
X28276Y221320D01*
X28073Y221117D01*
X27844Y220914D01*
X27615Y220710D01*
X27387Y220507D01*
X27158Y220355D01*
X26904Y220177D01*
X26650Y220025D01*
X26371Y219897D01*
X26091Y219771D01*
X25812Y219669D01*
X25533Y219567D01*
X25253Y219491D01*
X24948Y219415D01*
X24669Y219364D01*
X24364Y219339D01*
X24059Y219313D01*
X17481D01*
X17176Y219339D01*
X16871Y219364D01*
X16592Y219415D01*
X16287Y219491D01*
X16008Y219567D01*
X15728Y219669D01*
X15449Y219771D01*
X15169Y219897D01*
X14890Y220025D01*
X14636Y220177D01*
X14382Y220355D01*
X14153Y220507D01*
X13925Y220710D01*
X13696Y220914D01*
X13468Y221117D01*
X13264Y221320D01*
X13087Y221574D01*
X12909Y221803D01*
X12731Y222057D01*
X12579Y222311D01*
X12426Y222565D01*
X12299Y222844D01*
X12172Y223098D01*
X12071Y223403D01*
X11994Y223682D01*
X11918Y223962D01*
X11867Y224266D01*
X11817Y224546D01*
X11791Y224851D01*
X11766Y225155D01*
Y225460D01*
X11791Y225739D01*
X11817Y226044D01*
X11867Y226349D01*
X11918Y226628D01*
X11994Y226933D01*
X12071Y227213D01*
X12172Y227492D01*
X12299Y227771D01*
X12426Y228051D01*
X12579Y228305D01*
X12731Y228559D01*
X12909Y228813D01*
X13087Y229042D01*
X13264Y229270D01*
X13468Y229499D01*
X13696Y229702D01*
X13925Y229905D01*
X14153Y230083D01*
X14382Y230261D01*
X14636Y230413D01*
X14890Y230565D01*
X15169Y230718D01*
X15449Y230819D01*
X15728Y230947D01*
X16008Y231048D01*
X16287Y231124D01*
X16592Y231175D01*
X16871Y231226D01*
X17176Y231277D01*
X17481Y231302D01*
X24059D01*
X24364Y231277D01*
D02*
G37*
G36*
X300090Y215314D02*
X287086D01*
Y218311D01*
X300090D01*
Y215314D01*
D02*
G37*
G36*
X76739Y214056D02*
X76764D01*
Y211058D01*
X63760D01*
Y214056D01*
Y217053D01*
X76739D01*
Y214056D01*
D02*
G37*
G36*
X300090Y210310D02*
X287086D01*
Y213307D01*
X300090D01*
Y210310D01*
D02*
G37*
G36*
Y205306D02*
X287086D01*
Y208303D01*
X300090D01*
Y205306D01*
D02*
G37*
G36*
X76739Y206054D02*
Y203057D01*
X63760D01*
Y206054D01*
Y209052D01*
X76739D01*
Y206054D01*
D02*
G37*
G36*
X300090Y200328D02*
X287086D01*
Y203325D01*
X300090D01*
Y200328D01*
D02*
G37*
G36*
X76764Y198053D02*
X63760D01*
Y201051D01*
X76764D01*
Y198053D01*
D02*
G37*
G36*
X300090Y195324D02*
X287086D01*
Y198321D01*
X300090D01*
Y195324D01*
D02*
G37*
G36*
X76764Y193050D02*
X63760D01*
Y196047D01*
X76764D01*
Y193050D01*
D02*
G37*
G36*
X241192Y192959D02*
Y191029D01*
X240938Y190800D01*
X239033D01*
X238779Y191029D01*
Y192959D01*
X239033Y193188D01*
X240938D01*
X241192Y192959D01*
D02*
G37*
G36*
X234690D02*
Y191029D01*
X234461Y190800D01*
X232531D01*
X232277Y191029D01*
Y192959D01*
X232531Y193188D01*
X234461D01*
X234690Y192959D01*
D02*
G37*
G36*
X228188D02*
Y191029D01*
X227959Y190800D01*
X226029D01*
X225800Y191029D01*
Y192959D01*
X226029Y193188D01*
X227959D01*
X228188Y192959D01*
D02*
G37*
G36*
X221685D02*
Y191029D01*
X221457Y190800D01*
X219526D01*
X219298Y191029D01*
Y192959D01*
X219526Y193188D01*
X221457D01*
X221685Y192959D01*
D02*
G37*
G36*
X215183D02*
Y191029D01*
X214954Y190800D01*
X213024D01*
X212795Y191029D01*
Y192959D01*
X213024Y193188D01*
X214954D01*
X215183Y192959D01*
D02*
G37*
G36*
X208680D02*
Y191029D01*
X208452Y190800D01*
X206521D01*
X206293Y191029D01*
Y192959D01*
X206521Y193188D01*
X208452D01*
X208680Y192959D01*
D02*
G37*
G36*
X202178D02*
Y191029D01*
X201949Y190800D01*
X200019D01*
X199790Y191029D01*
Y192959D01*
X200019Y193188D01*
X201949D01*
X202178Y192959D01*
D02*
G37*
G36*
X195701D02*
Y191029D01*
X195447Y190800D01*
X193542D01*
X193288Y191029D01*
Y192959D01*
X193542Y193188D01*
X195447D01*
X195701Y192959D01*
D02*
G37*
G36*
X189199D02*
Y191029D01*
X188945Y190800D01*
X187040D01*
X186786Y191029D01*
Y192959D01*
X187040Y193188D01*
X188945D01*
X189199Y192959D01*
D02*
G37*
G36*
X182696D02*
Y191029D01*
X182442Y190800D01*
X180537D01*
X180283Y191029D01*
Y192959D01*
X180537Y193188D01*
X182442D01*
X182696Y192959D01*
D02*
G37*
G36*
X176194D02*
Y191029D01*
X175940Y190800D01*
X174035D01*
X173781Y191029D01*
Y192959D01*
X174035Y193188D01*
X175940D01*
X176194Y192959D01*
D02*
G37*
G36*
X169691D02*
Y191029D01*
X169437Y190800D01*
X167532D01*
X167278Y191029D01*
Y192959D01*
X167532Y193188D01*
X169437D01*
X169691Y192959D01*
D02*
G37*
G36*
X163189D02*
Y191029D01*
X162960Y190800D01*
X161030D01*
X160801Y191029D01*
Y192959D01*
X161030Y193188D01*
X162960D01*
X163189Y192959D01*
D02*
G37*
G36*
X156687D02*
Y191029D01*
X156458Y190800D01*
X154528D01*
X154299Y191029D01*
Y192959D01*
X154528Y193188D01*
X156458D01*
X156687Y192959D01*
D02*
G37*
G36*
X150184D02*
Y191029D01*
X149956Y190800D01*
X148025D01*
X147797Y191029D01*
Y192959D01*
X148025Y193188D01*
X149956D01*
X150184Y192959D01*
D02*
G37*
G36*
X143682D02*
Y191029D01*
X143453Y190800D01*
X141523D01*
X141294Y191029D01*
Y192959D01*
X141523Y193188D01*
X143453D01*
X143682Y192959D01*
D02*
G37*
G36*
X300090Y190320D02*
X287086D01*
Y193317D01*
X300090D01*
Y190320D01*
D02*
G37*
G36*
X76764Y188046D02*
X63760D01*
Y191043D01*
X76764D01*
Y188046D01*
D02*
G37*
G36*
X300090Y185316D02*
X287086D01*
Y188313D01*
X300090D01*
Y185316D01*
D02*
G37*
G36*
X241192Y186457D02*
Y184526D01*
X240938Y184298D01*
X239033D01*
X238779Y184526D01*
Y186457D01*
X239033Y186711D01*
X240938D01*
X241192Y186457D01*
D02*
G37*
G36*
X234690D02*
Y184526D01*
X234461Y184298D01*
X232531D01*
X232277Y184526D01*
Y186457D01*
X232531Y186711D01*
X234461D01*
X234690Y186457D01*
D02*
G37*
G36*
X228188D02*
Y184526D01*
X227959Y184298D01*
X226029D01*
X225800Y184526D01*
Y186457D01*
X226029Y186711D01*
X227959D01*
X228188Y186457D01*
D02*
G37*
G36*
X221685D02*
Y184526D01*
X221457Y184298D01*
X219526D01*
X219298Y184526D01*
Y186457D01*
X219526Y186711D01*
X221457D01*
X221685Y186457D01*
D02*
G37*
G36*
X215183D02*
Y184526D01*
X214954Y184298D01*
X213024D01*
X212795Y184526D01*
Y186457D01*
X213024Y186711D01*
X214954D01*
X215183Y186457D01*
D02*
G37*
G36*
X208680D02*
Y184526D01*
X208452Y184298D01*
X206521D01*
X206293Y184526D01*
Y186457D01*
X206521Y186711D01*
X208452D01*
X208680Y186457D01*
D02*
G37*
G36*
X202178D02*
Y184526D01*
X201949Y184298D01*
X200019D01*
X199790Y184526D01*
Y186457D01*
X200019Y186711D01*
X201949D01*
X202178Y186457D01*
D02*
G37*
G36*
X195701D02*
Y184526D01*
X195447Y184298D01*
X193542D01*
X193288Y184526D01*
Y186457D01*
X193542Y186711D01*
X195447D01*
X195701Y186457D01*
D02*
G37*
G36*
X189199D02*
Y184526D01*
X188945Y184298D01*
X187040D01*
X186786Y184526D01*
Y186457D01*
X187040Y186711D01*
X188945D01*
X189199Y186457D01*
D02*
G37*
G36*
X182696D02*
Y184526D01*
X182442Y184298D01*
X180537D01*
X180283Y184526D01*
Y186457D01*
X180537Y186711D01*
X182442D01*
X182696Y186457D01*
D02*
G37*
G36*
X176194D02*
Y184526D01*
X175940Y184298D01*
X174035D01*
X173781Y184526D01*
Y186457D01*
X174035Y186711D01*
X175940D01*
X176194Y186457D01*
D02*
G37*
G36*
X169691D02*
Y184526D01*
X169437Y184298D01*
X167532D01*
X167278Y184526D01*
Y186457D01*
X167532Y186711D01*
X169437D01*
X169691Y186457D01*
D02*
G37*
G36*
X163189D02*
Y184526D01*
X162960Y184298D01*
X161030D01*
X160801Y184526D01*
Y186457D01*
X161030Y186711D01*
X162960D01*
X163189Y186457D01*
D02*
G37*
G36*
X156687D02*
Y184526D01*
X156458Y184298D01*
X154528D01*
X154299Y184526D01*
Y186457D01*
X154528Y186711D01*
X156458D01*
X156687Y186457D01*
D02*
G37*
G36*
X150184D02*
Y184526D01*
X149956Y184298D01*
X148025D01*
X147797Y184526D01*
Y186457D01*
X148025Y186711D01*
X149956D01*
X150184Y186457D01*
D02*
G37*
G36*
X143682D02*
Y184526D01*
X143453Y184298D01*
X141523D01*
X141294Y184526D01*
Y186457D01*
X141523Y186711D01*
X143453D01*
X143682Y186457D01*
D02*
G37*
G36*
X76764Y183042D02*
X63760D01*
Y186039D01*
X76764D01*
Y183042D01*
D02*
G37*
G36*
Y178064D02*
X63760D01*
Y181061D01*
X76764D01*
Y178064D01*
D02*
G37*
G36*
X241192Y179954D02*
Y178049D01*
X240938Y177795D01*
X239033D01*
X238779Y178049D01*
Y179954D01*
X239033Y180208D01*
X240938D01*
X241192Y179954D01*
D02*
G37*
G36*
X234690D02*
Y178049D01*
X234461Y177795D01*
X232531D01*
X232277Y178049D01*
Y179954D01*
X232531Y180208D01*
X234461D01*
X234690Y179954D01*
D02*
G37*
G36*
X228188D02*
Y178049D01*
X227959Y177795D01*
X226029D01*
X225800Y178049D01*
Y179954D01*
X226029Y180208D01*
X227959D01*
X228188Y179954D01*
D02*
G37*
G36*
X221685D02*
Y178049D01*
X221457Y177795D01*
X219526D01*
X219298Y178049D01*
Y179954D01*
X219526Y180208D01*
X221457D01*
X221685Y179954D01*
D02*
G37*
G36*
X215183D02*
Y178049D01*
X214954Y177795D01*
X213024D01*
X212795Y178049D01*
Y179954D01*
X213024Y180208D01*
X214954D01*
X215183Y179954D01*
D02*
G37*
G36*
X208680D02*
Y178049D01*
X208452Y177795D01*
X206521D01*
X206293Y178049D01*
Y179954D01*
X206521Y180208D01*
X208452D01*
X208680Y179954D01*
D02*
G37*
G36*
X202178D02*
Y178049D01*
X201949Y177795D01*
X200019D01*
X199790Y178049D01*
Y179954D01*
X200019Y180208D01*
X201949D01*
X202178Y179954D01*
D02*
G37*
G36*
X195701D02*
Y178049D01*
X195447Y177795D01*
X193542D01*
X193288Y178049D01*
Y179954D01*
X193542Y180208D01*
X195447D01*
X195701Y179954D01*
D02*
G37*
G36*
X189199D02*
Y178049D01*
X188945Y177795D01*
X187040D01*
X186786Y178049D01*
Y179954D01*
X187040Y180208D01*
X188945D01*
X189199Y179954D01*
D02*
G37*
G36*
X182696D02*
Y178049D01*
X182442Y177795D01*
X180537D01*
X180283Y178049D01*
Y179954D01*
X180537Y180208D01*
X182442D01*
X182696Y179954D01*
D02*
G37*
G36*
X176194D02*
Y178049D01*
X175940Y177795D01*
X174035D01*
X173781Y178049D01*
Y179954D01*
X174035Y180208D01*
X175940D01*
X176194Y179954D01*
D02*
G37*
G36*
X169691D02*
Y178049D01*
X169437Y177795D01*
X167532D01*
X167278Y178049D01*
Y179954D01*
X167532Y180208D01*
X169437D01*
X169691Y179954D01*
D02*
G37*
G36*
X163189D02*
Y178049D01*
X162960Y177795D01*
X161030D01*
X160801Y178049D01*
Y179954D01*
X161030Y180208D01*
X162960D01*
X163189Y179954D01*
D02*
G37*
G36*
X156687D02*
Y178049D01*
X156458Y177795D01*
X154528D01*
X154299Y178049D01*
Y179954D01*
X154528Y180208D01*
X156458D01*
X156687Y179954D01*
D02*
G37*
G36*
X150184D02*
Y178049D01*
X149956Y177795D01*
X148025D01*
X147797Y178049D01*
Y179954D01*
X148025Y180208D01*
X149956D01*
X150184Y179954D01*
D02*
G37*
G36*
X143682D02*
Y178049D01*
X143453Y177795D01*
X141523D01*
X141294Y178049D01*
Y179954D01*
X141523Y180208D01*
X143453D01*
X143682Y179954D01*
D02*
G37*
G36*
X300090Y180312D02*
Y177315D01*
X287111D01*
Y180312D01*
Y183310D01*
X300090D01*
Y180312D01*
D02*
G37*
G36*
X76764Y173060D02*
X63760D01*
Y176057D01*
X76764D01*
Y173060D01*
D02*
G37*
G36*
X241192Y173452D02*
Y171547D01*
X240938Y171293D01*
X239033D01*
X238779Y171547D01*
Y173452D01*
X239033Y173706D01*
X240938D01*
X241192Y173452D01*
D02*
G37*
G36*
X234690D02*
Y171547D01*
X234461Y171293D01*
X232531D01*
X232277Y171547D01*
Y173452D01*
X232531Y173706D01*
X234461D01*
X234690Y173452D01*
D02*
G37*
G36*
X228188D02*
Y171547D01*
X227959Y171293D01*
X226029D01*
X225800Y171547D01*
Y173452D01*
X226029Y173706D01*
X227959D01*
X228188Y173452D01*
D02*
G37*
G36*
X221685D02*
Y171547D01*
X221457Y171293D01*
X219526D01*
X219298Y171547D01*
Y173452D01*
X219526Y173706D01*
X221457D01*
X221685Y173452D01*
D02*
G37*
G36*
X215183D02*
Y171547D01*
X214954Y171293D01*
X213024D01*
X212795Y171547D01*
Y173452D01*
X213024Y173706D01*
X214954D01*
X215183Y173452D01*
D02*
G37*
G36*
X208680D02*
Y171547D01*
X208452Y171293D01*
X206521D01*
X206293Y171547D01*
Y173452D01*
X206521Y173706D01*
X208452D01*
X208680Y173452D01*
D02*
G37*
G36*
X202178D02*
Y171547D01*
X201949Y171293D01*
X200019D01*
X199790Y171547D01*
Y173452D01*
X200019Y173706D01*
X201949D01*
X202178Y173452D01*
D02*
G37*
G36*
X195701D02*
Y171547D01*
X195447Y171293D01*
X193542D01*
X193288Y171547D01*
Y173452D01*
X193542Y173706D01*
X195447D01*
X195701Y173452D01*
D02*
G37*
G36*
X189199D02*
Y171547D01*
X188945Y171293D01*
X187040D01*
X186786Y171547D01*
Y173452D01*
X187040Y173706D01*
X188945D01*
X189199Y173452D01*
D02*
G37*
G36*
X182696D02*
Y171547D01*
X182442Y171293D01*
X180537D01*
X180283Y171547D01*
Y173452D01*
X180537Y173706D01*
X182442D01*
X182696Y173452D01*
D02*
G37*
G36*
X176194D02*
Y171547D01*
X175940Y171293D01*
X174035D01*
X173781Y171547D01*
Y173452D01*
X174035Y173706D01*
X175940D01*
X176194Y173452D01*
D02*
G37*
G36*
X169691D02*
Y171547D01*
X169437Y171293D01*
X167532D01*
X167278Y171547D01*
Y173452D01*
X167532Y173706D01*
X169437D01*
X169691Y173452D01*
D02*
G37*
G36*
X163189D02*
Y171547D01*
X162960Y171293D01*
X161030D01*
X160801Y171547D01*
Y173452D01*
X161030Y173706D01*
X162960D01*
X163189Y173452D01*
D02*
G37*
G36*
X156687D02*
Y171547D01*
X156458Y171293D01*
X154528D01*
X154299Y171547D01*
Y173452D01*
X154528Y173706D01*
X156458D01*
X156687Y173452D01*
D02*
G37*
G36*
X150184D02*
Y171547D01*
X149956Y171293D01*
X148025D01*
X147797Y171547D01*
Y173452D01*
X148025Y173706D01*
X149956D01*
X150184Y173452D01*
D02*
G37*
G36*
X143682D02*
Y171547D01*
X143453Y171293D01*
X141523D01*
X141294Y171547D01*
Y173452D01*
X141523Y173706D01*
X143453D01*
X143682Y173452D01*
D02*
G37*
G36*
X300090Y172311D02*
Y169314D01*
X287111D01*
Y172311D01*
X287086D01*
Y175309D01*
X300090D01*
Y172311D01*
D02*
G37*
G36*
X76764Y168056D02*
X63760D01*
Y171053D01*
X76764D01*
Y168056D01*
D02*
G37*
G36*
X241192Y166949D02*
Y165044D01*
X240938Y164790D01*
X239033D01*
X238779Y165044D01*
Y166949D01*
X239033Y167203D01*
X240938D01*
X241192Y166949D01*
D02*
G37*
G36*
X234690D02*
Y165044D01*
X234461Y164790D01*
X232531D01*
X232277Y165044D01*
Y166949D01*
X232531Y167203D01*
X234461D01*
X234690Y166949D01*
D02*
G37*
G36*
X228188D02*
Y165044D01*
X227959Y164790D01*
X226029D01*
X225800Y165044D01*
Y166949D01*
X226029Y167203D01*
X227959D01*
X228188Y166949D01*
D02*
G37*
G36*
X221685D02*
Y165044D01*
X221457Y164790D01*
X219526D01*
X219298Y165044D01*
Y166949D01*
X219526Y167203D01*
X221457D01*
X221685Y166949D01*
D02*
G37*
G36*
X215183D02*
Y165044D01*
X214954Y164790D01*
X213024D01*
X212795Y165044D01*
Y166949D01*
X213024Y167203D01*
X214954D01*
X215183Y166949D01*
D02*
G37*
G36*
X208680D02*
Y165044D01*
X208452Y164790D01*
X206521D01*
X206293Y165044D01*
Y166949D01*
X206521Y167203D01*
X208452D01*
X208680Y166949D01*
D02*
G37*
G36*
X202178D02*
Y165044D01*
X201949Y164790D01*
X200019D01*
X199790Y165044D01*
Y166949D01*
X200019Y167203D01*
X201949D01*
X202178Y166949D01*
D02*
G37*
G36*
X195701D02*
Y165044D01*
X195447Y164790D01*
X193542D01*
X193288Y165044D01*
Y166949D01*
X193542Y167203D01*
X195447D01*
X195701Y166949D01*
D02*
G37*
G36*
X189199D02*
Y165044D01*
X188945Y164790D01*
X187040D01*
X186786Y165044D01*
Y166949D01*
X187040Y167203D01*
X188945D01*
X189199Y166949D01*
D02*
G37*
G36*
X182696D02*
Y165044D01*
X182442Y164790D01*
X180537D01*
X180283Y165044D01*
Y166949D01*
X180537Y167203D01*
X182442D01*
X182696Y166949D01*
D02*
G37*
G36*
X176194D02*
Y165044D01*
X175940Y164790D01*
X174035D01*
X173781Y165044D01*
Y166949D01*
X174035Y167203D01*
X175940D01*
X176194Y166949D01*
D02*
G37*
G36*
X169691D02*
Y165044D01*
X169437Y164790D01*
X167532D01*
X167278Y165044D01*
Y166949D01*
X167532Y167203D01*
X169437D01*
X169691Y166949D01*
D02*
G37*
G36*
X163189D02*
Y165044D01*
X162960Y164790D01*
X161030D01*
X160801Y165044D01*
Y166949D01*
X161030Y167203D01*
X162960D01*
X163189Y166949D01*
D02*
G37*
G36*
X156687D02*
Y165044D01*
X156458Y164790D01*
X154528D01*
X154299Y165044D01*
Y166949D01*
X154528Y167203D01*
X156458D01*
X156687Y166949D01*
D02*
G37*
G36*
X150184D02*
Y165044D01*
X149956Y164790D01*
X148025D01*
X147797Y165044D01*
Y166949D01*
X148025Y167203D01*
X149956D01*
X150184Y166949D01*
D02*
G37*
G36*
X143682D02*
Y165044D01*
X143453Y164790D01*
X141523D01*
X141294Y165044D01*
Y166949D01*
X141523Y167203D01*
X143453D01*
X143682Y166949D01*
D02*
G37*
G36*
X76764Y163052D02*
X63760D01*
Y166049D01*
X76764D01*
Y163052D01*
D02*
G37*
G36*
X241192Y160447D02*
Y158542D01*
X240938Y158288D01*
X239033D01*
X238779Y158542D01*
Y160447D01*
X239033Y160701D01*
X240938D01*
X241192Y160447D01*
D02*
G37*
G36*
X234690D02*
Y158542D01*
X234461Y158288D01*
X232531D01*
X232277Y158542D01*
Y160447D01*
X232531Y160701D01*
X234461D01*
X234690Y160447D01*
D02*
G37*
G36*
X228188D02*
Y158542D01*
X227959Y158288D01*
X226029D01*
X225800Y158542D01*
Y160447D01*
X226029Y160701D01*
X227959D01*
X228188Y160447D01*
D02*
G37*
G36*
X221685D02*
Y158542D01*
X221457Y158288D01*
X219526D01*
X219298Y158542D01*
Y160447D01*
X219526Y160701D01*
X221457D01*
X221685Y160447D01*
D02*
G37*
G36*
X215183D02*
Y158542D01*
X214954Y158288D01*
X213024D01*
X212795Y158542D01*
Y160447D01*
X213024Y160701D01*
X214954D01*
X215183Y160447D01*
D02*
G37*
G36*
X208680D02*
Y158542D01*
X208452Y158288D01*
X206521D01*
X206293Y158542D01*
Y160447D01*
X206521Y160701D01*
X208452D01*
X208680Y160447D01*
D02*
G37*
G36*
X202178D02*
Y158542D01*
X201949Y158288D01*
X200019D01*
X199790Y158542D01*
Y160447D01*
X200019Y160701D01*
X201949D01*
X202178Y160447D01*
D02*
G37*
G36*
X195701D02*
Y158542D01*
X195447Y158288D01*
X193542D01*
X193288Y158542D01*
Y160447D01*
X193542Y160701D01*
X195447D01*
X195701Y160447D01*
D02*
G37*
G36*
X189199D02*
Y158542D01*
X188945Y158288D01*
X187040D01*
X186786Y158542D01*
Y160447D01*
X187040Y160701D01*
X188945D01*
X189199Y160447D01*
D02*
G37*
G36*
X182696D02*
Y158542D01*
X182442Y158288D01*
X180537D01*
X180283Y158542D01*
Y160447D01*
X180537Y160701D01*
X182442D01*
X182696Y160447D01*
D02*
G37*
G36*
X176194D02*
Y158542D01*
X175940Y158288D01*
X174035D01*
X173781Y158542D01*
Y160447D01*
X174035Y160701D01*
X175940D01*
X176194Y160447D01*
D02*
G37*
G36*
X169691D02*
Y158542D01*
X169437Y158288D01*
X167532D01*
X167278Y158542D01*
Y160447D01*
X167532Y160701D01*
X169437D01*
X169691Y160447D01*
D02*
G37*
G36*
X163189D02*
Y158542D01*
X162960Y158288D01*
X161030D01*
X160801Y158542D01*
Y160447D01*
X161030Y160701D01*
X162960D01*
X163189Y160447D01*
D02*
G37*
G36*
X156687D02*
Y158542D01*
X156458Y158288D01*
X154528D01*
X154299Y158542D01*
Y160447D01*
X154528Y160701D01*
X156458D01*
X156687Y160447D01*
D02*
G37*
G36*
X150184D02*
Y158542D01*
X149956Y158288D01*
X148025D01*
X147797Y158542D01*
Y160447D01*
X148025Y160701D01*
X149956D01*
X150184Y160447D01*
D02*
G37*
G36*
X143682D02*
Y158542D01*
X143453Y158288D01*
X141523D01*
X141294Y158542D01*
Y160447D01*
X141523Y160701D01*
X143453D01*
X143682Y160447D01*
D02*
G37*
G36*
X346674Y167028D02*
X346979Y167003D01*
X347258Y166952D01*
X347563Y166876D01*
X347842Y166800D01*
X348122Y166698D01*
X348401Y166596D01*
X348681Y166469D01*
X348960Y166342D01*
X349214Y166190D01*
X349468Y166012D01*
X349697Y165860D01*
X349925Y165657D01*
X350154Y165453D01*
X350382Y165250D01*
X350586Y165047D01*
X350763Y164793D01*
X350941Y164564D01*
X351119Y164310D01*
X351271Y164056D01*
X351424Y163802D01*
X351551Y163523D01*
X351678Y163269D01*
X351779Y162964D01*
X351856Y162685D01*
X351932Y162405D01*
X351983Y162101D01*
X352033Y161821D01*
X352059Y161516D01*
X352084Y161212D01*
Y160907D01*
X352059Y160627D01*
X352033Y160323D01*
X351983Y160018D01*
X351932Y159738D01*
X351856Y159434D01*
X351779Y159154D01*
X351678Y158875D01*
X351551Y158595D01*
X351424Y158316D01*
X351271Y158062D01*
X351119Y157808D01*
X350941Y157554D01*
X350763Y157325D01*
X350586Y157097D01*
X350382Y156868D01*
X350154Y156665D01*
X349925Y156462D01*
X349697Y156284D01*
X349468Y156106D01*
X349214Y155954D01*
X348960Y155801D01*
X348681Y155649D01*
X348401Y155547D01*
X348122Y155420D01*
X347842Y155319D01*
X347563Y155243D01*
X347258Y155192D01*
X346979Y155141D01*
X346674Y155090D01*
X346369Y155065D01*
X339791D01*
X339486Y155090D01*
X339181Y155141D01*
X338902Y155192D01*
X338597Y155243D01*
X338317Y155319D01*
X338038Y155420D01*
X337759Y155547D01*
X337479Y155649D01*
X337200Y155801D01*
X336946Y155954D01*
X336692Y156106D01*
X336463Y156284D01*
X336235Y156462D01*
X336006Y156665D01*
X335777Y156868D01*
X335574Y157097D01*
X335396Y157325D01*
X335219Y157554D01*
X335041Y157808D01*
X334888Y158062D01*
X334736Y158316D01*
X334609Y158595D01*
X334507Y158875D01*
X334380Y159154D01*
X334304Y159434D01*
X334228Y159738D01*
X334177Y160018D01*
X334126Y160323D01*
X334101Y160627D01*
X334076Y160907D01*
Y161212D01*
X334101Y161516D01*
X334126Y161821D01*
X334177Y162101D01*
X334228Y162405D01*
X334304Y162685D01*
X334380Y162964D01*
X334507Y163269D01*
X334609Y163523D01*
X334736Y163802D01*
X334888Y164056D01*
X335041Y164310D01*
X335219Y164564D01*
X335396Y164793D01*
X335574Y165047D01*
X335777Y165250D01*
X336006Y165453D01*
X336235Y165657D01*
X336463Y165860D01*
X336692Y166012D01*
X336946Y166190D01*
X337200Y166342D01*
X337479Y166469D01*
X337759Y166596D01*
X338038Y166698D01*
X338317Y166800D01*
X338597Y166876D01*
X338902Y166952D01*
X339181Y167003D01*
X339486Y167028D01*
X339791Y167054D01*
X346369D01*
X346674Y167028D01*
D02*
G37*
G36*
X305882D02*
X306186Y167003D01*
X306466Y166952D01*
X306771Y166876D01*
X307050Y166800D01*
X307329Y166698D01*
X307609Y166596D01*
X307888Y166469D01*
X308142Y166342D01*
X308422Y166190D01*
X308650Y166012D01*
X308904Y165860D01*
X309133Y165657D01*
X309361Y165453D01*
X309565Y165250D01*
X309768Y165047D01*
X309971Y164793D01*
X310149Y164564D01*
X310327Y164310D01*
X310479Y164056D01*
X310631Y163802D01*
X310758Y163523D01*
X310860Y163269D01*
X310962Y162964D01*
X311063Y162685D01*
X311139Y162405D01*
X311190Y162101D01*
X311241Y161821D01*
X311266Y161516D01*
X311292Y161212D01*
Y160907D01*
X311266Y160627D01*
X311241Y160323D01*
X311190Y160018D01*
X311139Y159738D01*
X311063Y159434D01*
X310962Y159154D01*
X310860Y158875D01*
X310758Y158595D01*
X310631Y158316D01*
X310479Y158062D01*
X310327Y157808D01*
X310149Y157554D01*
X309971Y157325D01*
X309768Y157097D01*
X309565Y156868D01*
X309361Y156665D01*
X309133Y156462D01*
X308904Y156284D01*
X308650Y156106D01*
X308422Y155954D01*
X308142Y155801D01*
X307888Y155649D01*
X307609Y155547D01*
X307329Y155420D01*
X307050Y155319D01*
X306771Y155243D01*
X306466Y155192D01*
X306186Y155141D01*
X305882Y155090D01*
X305577Y155065D01*
X296992D01*
X296687Y155090D01*
X296382Y155141D01*
X296103Y155192D01*
X295798Y155243D01*
X295518Y155319D01*
X295239Y155420D01*
X294960Y155547D01*
X294680Y155649D01*
X294401Y155801D01*
X294147Y155954D01*
X293893Y156106D01*
X293664Y156284D01*
X293436Y156462D01*
X293207Y156665D01*
X292978Y156868D01*
X292775Y157097D01*
X292597Y157325D01*
X292420Y157554D01*
X292242Y157808D01*
X292089Y158062D01*
X291937Y158316D01*
X291810Y158595D01*
X291708Y158875D01*
X291581Y159154D01*
X291505Y159434D01*
X291429Y159738D01*
X291378Y160018D01*
X291327Y160323D01*
X291302Y160627D01*
X291277Y160907D01*
Y161212D01*
X291302Y161516D01*
X291327Y161821D01*
X291378Y162101D01*
X291429Y162405D01*
X291505Y162685D01*
X291581Y162964D01*
X291708Y163269D01*
X291810Y163523D01*
X291937Y163802D01*
X292089Y164056D01*
X292242Y164310D01*
X292420Y164564D01*
X292597Y164793D01*
X292775Y165047D01*
X292978Y165250D01*
X293207Y165453D01*
X293436Y165657D01*
X293664Y165860D01*
X293893Y166012D01*
X294147Y166190D01*
X294401Y166342D01*
X294680Y166469D01*
X294960Y166596D01*
X295239Y166698D01*
X295518Y166800D01*
X295798Y166876D01*
X296103Y166952D01*
X296382Y167003D01*
X296687Y167028D01*
X296992Y167054D01*
X305577D01*
X305882Y167028D01*
D02*
G37*
G36*
X76764Y158048D02*
Y155051D01*
X63760D01*
Y158048D01*
Y161046D01*
X76764D01*
Y158048D01*
D02*
G37*
G36*
X241192Y153970D02*
Y152040D01*
X240938Y151811D01*
X239033D01*
X238779Y152040D01*
Y153970D01*
X239033Y154199D01*
X240938D01*
X241192Y153970D01*
D02*
G37*
G36*
X234690D02*
Y152040D01*
X234461Y151811D01*
X232531D01*
X232277Y152040D01*
Y153970D01*
X232531Y154199D01*
X234461D01*
X234690Y153970D01*
D02*
G37*
G36*
X228188D02*
Y152040D01*
X227959Y151811D01*
X226029D01*
X225800Y152040D01*
Y153970D01*
X226029Y154199D01*
X227959D01*
X228188Y153970D01*
D02*
G37*
G36*
X221685D02*
Y152040D01*
X221457Y151811D01*
X219526D01*
X219298Y152040D01*
Y153970D01*
X219526Y154199D01*
X221457D01*
X221685Y153970D01*
D02*
G37*
G36*
X215183D02*
Y152040D01*
X214954Y151811D01*
X213024D01*
X212795Y152040D01*
Y153970D01*
X213024Y154199D01*
X214954D01*
X215183Y153970D01*
D02*
G37*
G36*
X208680D02*
Y152040D01*
X208452Y151811D01*
X206521D01*
X206293Y152040D01*
Y153970D01*
X206521Y154199D01*
X208452D01*
X208680Y153970D01*
D02*
G37*
G36*
X202178D02*
Y152040D01*
X201949Y151811D01*
X200019D01*
X199790Y152040D01*
Y153970D01*
X200019Y154199D01*
X201949D01*
X202178Y153970D01*
D02*
G37*
G36*
X195701D02*
Y152040D01*
X195447Y151811D01*
X193542D01*
X193288Y152040D01*
Y153970D01*
X193542Y154199D01*
X195447D01*
X195701Y153970D01*
D02*
G37*
G36*
X189199D02*
Y152040D01*
X188945Y151811D01*
X187040D01*
X186786Y152040D01*
Y153970D01*
X187040Y154199D01*
X188945D01*
X189199Y153970D01*
D02*
G37*
G36*
X182696D02*
Y152040D01*
X182442Y151811D01*
X180537D01*
X180283Y152040D01*
Y153970D01*
X180537Y154199D01*
X182442D01*
X182696Y153970D01*
D02*
G37*
G36*
X176194D02*
Y152040D01*
X175940Y151811D01*
X174035D01*
X173781Y152040D01*
Y153970D01*
X174035Y154199D01*
X175940D01*
X176194Y153970D01*
D02*
G37*
G36*
X169691D02*
Y152040D01*
X169437Y151811D01*
X167532D01*
X167278Y152040D01*
Y153970D01*
X167532Y154199D01*
X169437D01*
X169691Y153970D01*
D02*
G37*
G36*
X163189D02*
Y152040D01*
X162960Y151811D01*
X161030D01*
X160801Y152040D01*
Y153970D01*
X161030Y154199D01*
X162960D01*
X163189Y153970D01*
D02*
G37*
G36*
X156687D02*
Y152040D01*
X156458Y151811D01*
X154528D01*
X154299Y152040D01*
Y153970D01*
X154528Y154199D01*
X156458D01*
X156687Y153970D01*
D02*
G37*
G36*
X150184D02*
Y152040D01*
X149956Y151811D01*
X148025D01*
X147797Y152040D01*
Y153970D01*
X148025Y154199D01*
X149956D01*
X150184Y153970D01*
D02*
G37*
G36*
X143682D02*
Y152040D01*
X143453Y151811D01*
X141523D01*
X141294Y152040D01*
Y153970D01*
X141523Y154199D01*
X143453D01*
X143682Y153970D01*
D02*
G37*
G36*
X76739Y150048D02*
Y147050D01*
X63760D01*
Y150048D01*
Y153045D01*
X76739D01*
Y150048D01*
D02*
G37*
G36*
X241192Y147468D02*
Y145537D01*
X240938Y145309D01*
X239033D01*
X238779Y145537D01*
Y147468D01*
X239033Y147696D01*
X240938D01*
X241192Y147468D01*
D02*
G37*
G36*
X234690D02*
Y145537D01*
X234461Y145309D01*
X232531D01*
X232277Y145537D01*
Y147468D01*
X232531Y147696D01*
X234461D01*
X234690Y147468D01*
D02*
G37*
G36*
X228188D02*
Y145537D01*
X227959Y145309D01*
X226029D01*
X225800Y145537D01*
Y147468D01*
X226029Y147696D01*
X227959D01*
X228188Y147468D01*
D02*
G37*
G36*
X221685D02*
Y145537D01*
X221457Y145309D01*
X219526D01*
X219298Y145537D01*
Y147468D01*
X219526Y147696D01*
X221457D01*
X221685Y147468D01*
D02*
G37*
G36*
X215183D02*
Y145537D01*
X214954Y145309D01*
X213024D01*
X212795Y145537D01*
Y147468D01*
X213024Y147696D01*
X214954D01*
X215183Y147468D01*
D02*
G37*
G36*
X208680D02*
Y145537D01*
X208452Y145309D01*
X206521D01*
X206293Y145537D01*
Y147468D01*
X206521Y147696D01*
X208452D01*
X208680Y147468D01*
D02*
G37*
G36*
X202178D02*
Y145537D01*
X201949Y145309D01*
X200019D01*
X199790Y145537D01*
Y147468D01*
X200019Y147696D01*
X201949D01*
X202178Y147468D01*
D02*
G37*
G36*
X195701D02*
Y145537D01*
X195447Y145309D01*
X193542D01*
X193288Y145537D01*
Y147468D01*
X193542Y147696D01*
X195447D01*
X195701Y147468D01*
D02*
G37*
G36*
X189199D02*
Y145537D01*
X188945Y145309D01*
X187040D01*
X186786Y145537D01*
Y147468D01*
X187040Y147696D01*
X188945D01*
X189199Y147468D01*
D02*
G37*
G36*
X182696D02*
Y145537D01*
X182442Y145309D01*
X180537D01*
X180283Y145537D01*
Y147468D01*
X180537Y147696D01*
X182442D01*
X182696Y147468D01*
D02*
G37*
G36*
X176194D02*
Y145537D01*
X175940Y145309D01*
X174035D01*
X173781Y145537D01*
Y147468D01*
X174035Y147696D01*
X175940D01*
X176194Y147468D01*
D02*
G37*
G36*
X169691D02*
Y145537D01*
X169437Y145309D01*
X167532D01*
X167278Y145537D01*
Y147468D01*
X167532Y147696D01*
X169437D01*
X169691Y147468D01*
D02*
G37*
G36*
X163189D02*
Y145537D01*
X162960Y145309D01*
X161030D01*
X160801Y145537D01*
Y147468D01*
X161030Y147696D01*
X162960D01*
X163189Y147468D01*
D02*
G37*
G36*
X156687D02*
Y145537D01*
X156458Y145309D01*
X154528D01*
X154299Y145537D01*
Y147468D01*
X154528Y147696D01*
X156458D01*
X156687Y147468D01*
D02*
G37*
G36*
X150184D02*
Y145537D01*
X149956Y145309D01*
X148025D01*
X147797Y145537D01*
Y147468D01*
X148025Y147696D01*
X149956D01*
X150184Y147468D01*
D02*
G37*
G36*
X143682D02*
Y145537D01*
X143453Y145309D01*
X141523D01*
X141294Y145537D01*
Y147468D01*
X141523Y147696D01*
X143453D01*
X143682Y147468D01*
D02*
G37*
G36*
X241192Y140965D02*
Y139035D01*
X240938Y138806D01*
X239033D01*
X238779Y139035D01*
Y140965D01*
X239033Y141194D01*
X240938D01*
X241192Y140965D01*
D02*
G37*
G36*
X234690D02*
Y139035D01*
X234461Y138806D01*
X232531D01*
X232277Y139035D01*
Y140965D01*
X232531Y141194D01*
X234461D01*
X234690Y140965D01*
D02*
G37*
G36*
X228188D02*
Y139035D01*
X227959Y138806D01*
X226029D01*
X225800Y139035D01*
Y140965D01*
X226029Y141194D01*
X227959D01*
X228188Y140965D01*
D02*
G37*
G36*
X221685D02*
Y139035D01*
X221457Y138806D01*
X219526D01*
X219298Y139035D01*
Y140965D01*
X219526Y141194D01*
X221457D01*
X221685Y140965D01*
D02*
G37*
G36*
X215183D02*
Y139035D01*
X214954Y138806D01*
X213024D01*
X212795Y139035D01*
Y140965D01*
X213024Y141194D01*
X214954D01*
X215183Y140965D01*
D02*
G37*
G36*
X208680D02*
Y139035D01*
X208452Y138806D01*
X206521D01*
X206293Y139035D01*
Y140965D01*
X206521Y141194D01*
X208452D01*
X208680Y140965D01*
D02*
G37*
G36*
X202178D02*
Y139035D01*
X201949Y138806D01*
X200019D01*
X199790Y139035D01*
Y140965D01*
X200019Y141194D01*
X201949D01*
X202178Y140965D01*
D02*
G37*
G36*
X195701D02*
Y139035D01*
X195447Y138806D01*
X193542D01*
X193288Y139035D01*
Y140965D01*
X193542Y141194D01*
X195447D01*
X195701Y140965D01*
D02*
G37*
G36*
X189199D02*
Y139035D01*
X188945Y138806D01*
X187040D01*
X186786Y139035D01*
Y140965D01*
X187040Y141194D01*
X188945D01*
X189199Y140965D01*
D02*
G37*
G36*
X182696D02*
Y139035D01*
X182442Y138806D01*
X180537D01*
X180283Y139035D01*
Y140965D01*
X180537Y141194D01*
X182442D01*
X182696Y140965D01*
D02*
G37*
G36*
X176194D02*
Y139035D01*
X175940Y138806D01*
X174035D01*
X173781Y139035D01*
Y140965D01*
X174035Y141194D01*
X175940D01*
X176194Y140965D01*
D02*
G37*
G36*
X169691D02*
Y139035D01*
X169437Y138806D01*
X167532D01*
X167278Y139035D01*
Y140965D01*
X167532Y141194D01*
X169437D01*
X169691Y140965D01*
D02*
G37*
G36*
X163189D02*
Y139035D01*
X162960Y138806D01*
X161030D01*
X160801Y139035D01*
Y140965D01*
X161030Y141194D01*
X162960D01*
X163189Y140965D01*
D02*
G37*
G36*
X156687D02*
Y139035D01*
X156458Y138806D01*
X154528D01*
X154299Y139035D01*
Y140965D01*
X154528Y141194D01*
X156458D01*
X156687Y140965D01*
D02*
G37*
G36*
X150184D02*
Y139035D01*
X149956Y138806D01*
X148025D01*
X147797Y139035D01*
Y140965D01*
X148025Y141194D01*
X149956D01*
X150184Y140965D01*
D02*
G37*
G36*
X143682D02*
Y139035D01*
X143453Y138806D01*
X141523D01*
X141294Y139035D01*
Y140965D01*
X141523Y141194D01*
X143453D01*
X143682Y140965D01*
D02*
G37*
G36*
X67163Y144764D02*
X67468Y144739D01*
X67747Y144688D01*
X68052Y144612D01*
X68332Y144536D01*
X68611Y144434D01*
X68890Y144333D01*
X69170Y144206D01*
X69449Y144079D01*
X69703Y143926D01*
X69957Y143748D01*
X70186Y143570D01*
X70414Y143393D01*
X70643Y143189D01*
X70872Y142986D01*
X71075Y142758D01*
X71253Y142529D01*
X71430Y142301D01*
X71608Y142046D01*
X71761Y141792D01*
X71913Y141538D01*
X72040Y141259D01*
X72142Y140980D01*
X72269Y140700D01*
X72345Y140421D01*
X72421Y140141D01*
X72472Y139837D01*
X72523Y139557D01*
X72548Y139253D01*
X72573Y138948D01*
Y138643D01*
X72548Y138364D01*
X72523Y138059D01*
X72472Y137754D01*
X72421Y137474D01*
X72345Y137170D01*
X72269Y136890D01*
X72142Y136611D01*
X72040Y136332D01*
X71913Y136052D01*
X71761Y135798D01*
X71608Y135544D01*
X71430Y135290D01*
X71253Y135062D01*
X71075Y134833D01*
X70872Y134604D01*
X70643Y134401D01*
X70414Y134198D01*
X70186Y134020D01*
X69957Y133842D01*
X69703Y133690D01*
X69449Y133538D01*
X69170Y133385D01*
X68890Y133284D01*
X68611Y133156D01*
X68332Y133055D01*
X68052Y132979D01*
X67747Y132928D01*
X67468Y132877D01*
X67163Y132826D01*
X66858Y132801D01*
X58273D01*
X57968Y132826D01*
X57664Y132877D01*
X57384Y132928D01*
X57079Y132979D01*
X56800Y133055D01*
X56521Y133156D01*
X56241Y133284D01*
X55962Y133385D01*
X55708Y133538D01*
X55428Y133690D01*
X55200Y133842D01*
X54946Y134020D01*
X54717Y134198D01*
X54489Y134401D01*
X54285Y134604D01*
X54082Y134833D01*
X53879Y135062D01*
X53701Y135290D01*
X53523Y135544D01*
X53371Y135798D01*
X53219Y136052D01*
X53092Y136332D01*
X52990Y136611D01*
X52888Y136890D01*
X52787Y137170D01*
X52711Y137474D01*
X52660Y137754D01*
X52609Y138059D01*
X52584Y138364D01*
X52558Y138643D01*
Y138948D01*
X52584Y139253D01*
X52609Y139557D01*
X52660Y139837D01*
X52711Y140141D01*
X52787Y140421D01*
X52888Y140700D01*
X52990Y140980D01*
X53092Y141259D01*
X53219Y141538D01*
X53371Y141792D01*
X53523Y142046D01*
X53701Y142301D01*
X53879Y142529D01*
X54082Y142758D01*
X54285Y142986D01*
X54489Y143189D01*
X54717Y143393D01*
X54946Y143570D01*
X55200Y143748D01*
X55428Y143926D01*
X55708Y144079D01*
X55962Y144206D01*
X56241Y144333D01*
X56521Y144434D01*
X56800Y144536D01*
X57079Y144612D01*
X57384Y144688D01*
X57664Y144739D01*
X57968Y144764D01*
X58273Y144790D01*
X66858D01*
X67163Y144764D01*
D02*
G37*
G36*
X24364D02*
X24669Y144739D01*
X24948Y144688D01*
X25253Y144612D01*
X25533Y144536D01*
X25812Y144434D01*
X26091Y144333D01*
X26371Y144206D01*
X26650Y144079D01*
X26904Y143926D01*
X27158Y143748D01*
X27387Y143570D01*
X27615Y143393D01*
X27844Y143189D01*
X28073Y142986D01*
X28276Y142758D01*
X28454Y142529D01*
X28631Y142301D01*
X28809Y142046D01*
X28962Y141792D01*
X29114Y141538D01*
X29241Y141259D01*
X29343Y140980D01*
X29470Y140700D01*
X29546Y140421D01*
X29622Y140141D01*
X29673Y139837D01*
X29724Y139557D01*
X29749Y139253D01*
X29774Y138948D01*
Y138643D01*
X29749Y138364D01*
X29724Y138059D01*
X29673Y137754D01*
X29622Y137474D01*
X29546Y137170D01*
X29470Y136890D01*
X29343Y136611D01*
X29241Y136332D01*
X29114Y136052D01*
X28962Y135798D01*
X28809Y135544D01*
X28631Y135290D01*
X28454Y135062D01*
X28276Y134833D01*
X28073Y134604D01*
X27844Y134401D01*
X27615Y134198D01*
X27387Y134020D01*
X27158Y133842D01*
X26904Y133690D01*
X26650Y133538D01*
X26371Y133385D01*
X26091Y133284D01*
X25812Y133156D01*
X25533Y133055D01*
X25253Y132979D01*
X24948Y132928D01*
X24669Y132877D01*
X24364Y132826D01*
X24059Y132801D01*
X17481D01*
X17176Y132826D01*
X16871Y132877D01*
X16592Y132928D01*
X16287Y132979D01*
X16008Y133055D01*
X15728Y133156D01*
X15449Y133284D01*
X15169Y133385D01*
X14890Y133538D01*
X14636Y133690D01*
X14382Y133842D01*
X14153Y134020D01*
X13925Y134198D01*
X13696Y134401D01*
X13468Y134604D01*
X13264Y134833D01*
X13087Y135062D01*
X12909Y135290D01*
X12731Y135544D01*
X12579Y135798D01*
X12426Y136052D01*
X12299Y136332D01*
X12172Y136611D01*
X12071Y136890D01*
X11994Y137170D01*
X11918Y137474D01*
X11867Y137754D01*
X11817Y138059D01*
X11791Y138364D01*
X11766Y138643D01*
Y138948D01*
X11791Y139253D01*
X11817Y139557D01*
X11867Y139837D01*
X11918Y140141D01*
X11994Y140421D01*
X12071Y140700D01*
X12172Y140980D01*
X12299Y141259D01*
X12426Y141538D01*
X12579Y141792D01*
X12731Y142046D01*
X12909Y142301D01*
X13087Y142529D01*
X13264Y142758D01*
X13468Y142986D01*
X13696Y143189D01*
X13925Y143393D01*
X14153Y143570D01*
X14382Y143748D01*
X14636Y143926D01*
X14890Y144079D01*
X15169Y144206D01*
X15449Y144333D01*
X15728Y144434D01*
X16008Y144536D01*
X16287Y144612D01*
X16592Y144688D01*
X16871Y144739D01*
X17176Y144764D01*
X17481Y144790D01*
X24059D01*
X24364Y144764D01*
D02*
G37*
G36*
X241192Y134463D02*
Y132532D01*
X240938Y132304D01*
X239033D01*
X238779Y132532D01*
Y134463D01*
X239033Y134691D01*
X240938D01*
X241192Y134463D01*
D02*
G37*
G36*
X234690D02*
Y132532D01*
X234461Y132304D01*
X232531D01*
X232277Y132532D01*
Y134463D01*
X232531Y134691D01*
X234461D01*
X234690Y134463D01*
D02*
G37*
G36*
X228188D02*
Y132532D01*
X227959Y132304D01*
X226029D01*
X225800Y132532D01*
Y134463D01*
X226029Y134691D01*
X227959D01*
X228188Y134463D01*
D02*
G37*
G36*
X221685D02*
Y132532D01*
X221457Y132304D01*
X219526D01*
X219298Y132532D01*
Y134463D01*
X219526Y134691D01*
X221457D01*
X221685Y134463D01*
D02*
G37*
G36*
X215183D02*
Y132532D01*
X214954Y132304D01*
X213024D01*
X212795Y132532D01*
Y134463D01*
X213024Y134691D01*
X214954D01*
X215183Y134463D01*
D02*
G37*
G36*
X208680D02*
Y132532D01*
X208452Y132304D01*
X206521D01*
X206293Y132532D01*
Y134463D01*
X206521Y134691D01*
X208452D01*
X208680Y134463D01*
D02*
G37*
G36*
X202178D02*
Y132532D01*
X201949Y132304D01*
X200019D01*
X199790Y132532D01*
Y134463D01*
X200019Y134691D01*
X201949D01*
X202178Y134463D01*
D02*
G37*
G36*
X195701D02*
Y132532D01*
X195447Y132304D01*
X193542D01*
X193288Y132532D01*
Y134463D01*
X193542Y134691D01*
X195447D01*
X195701Y134463D01*
D02*
G37*
G36*
X189199D02*
Y132532D01*
X188945Y132304D01*
X187040D01*
X186786Y132532D01*
Y134463D01*
X187040Y134691D01*
X188945D01*
X189199Y134463D01*
D02*
G37*
G36*
X182696D02*
Y132532D01*
X182442Y132304D01*
X180537D01*
X180283Y132532D01*
Y134463D01*
X180537Y134691D01*
X182442D01*
X182696Y134463D01*
D02*
G37*
G36*
X176194D02*
Y132532D01*
X175940Y132304D01*
X174035D01*
X173781Y132532D01*
Y134463D01*
X174035Y134691D01*
X175940D01*
X176194Y134463D01*
D02*
G37*
G36*
X169691D02*
Y132532D01*
X169437Y132304D01*
X167532D01*
X167278Y132532D01*
Y134463D01*
X167532Y134691D01*
X169437D01*
X169691Y134463D01*
D02*
G37*
G36*
X163189D02*
Y132532D01*
X162960Y132304D01*
X161030D01*
X160801Y132532D01*
Y134463D01*
X161030Y134691D01*
X162960D01*
X163189Y134463D01*
D02*
G37*
G36*
X156687D02*
Y132532D01*
X156458Y132304D01*
X154528D01*
X154299Y132532D01*
Y134463D01*
X154528Y134691D01*
X156458D01*
X156687Y134463D01*
D02*
G37*
G36*
X150184D02*
Y132532D01*
X149956Y132304D01*
X148025D01*
X147797Y132532D01*
Y134463D01*
X148025Y134691D01*
X149956D01*
X150184Y134463D01*
D02*
G37*
G36*
X143682D02*
Y132532D01*
X143453Y132304D01*
X141523D01*
X141294Y132532D01*
Y134463D01*
X141523Y134691D01*
X143453D01*
X143682Y134463D01*
D02*
G37*
G36*
X241192Y127960D02*
Y126030D01*
X240938Y125801D01*
X239033D01*
X238779Y126030D01*
Y127960D01*
X239033Y128189D01*
X240938D01*
X241192Y127960D01*
D02*
G37*
G36*
X234690D02*
Y126030D01*
X234461Y125801D01*
X232531D01*
X232277Y126030D01*
Y127960D01*
X232531Y128189D01*
X234461D01*
X234690Y127960D01*
D02*
G37*
G36*
X228188D02*
Y126030D01*
X227959Y125801D01*
X226029D01*
X225800Y126030D01*
Y127960D01*
X226029Y128189D01*
X227959D01*
X228188Y127960D01*
D02*
G37*
G36*
X221685D02*
Y126030D01*
X221457Y125801D01*
X219526D01*
X219298Y126030D01*
Y127960D01*
X219526Y128189D01*
X221457D01*
X221685Y127960D01*
D02*
G37*
G36*
X215183D02*
Y126030D01*
X214954Y125801D01*
X213024D01*
X212795Y126030D01*
Y127960D01*
X213024Y128189D01*
X214954D01*
X215183Y127960D01*
D02*
G37*
G36*
X208680D02*
Y126030D01*
X208452Y125801D01*
X206521D01*
X206293Y126030D01*
Y127960D01*
X206521Y128189D01*
X208452D01*
X208680Y127960D01*
D02*
G37*
G36*
X202178D02*
Y126030D01*
X201949Y125801D01*
X200019D01*
X199790Y126030D01*
Y127960D01*
X200019Y128189D01*
X201949D01*
X202178Y127960D01*
D02*
G37*
G36*
X195701D02*
Y126030D01*
X195447Y125801D01*
X193542D01*
X193288Y126030D01*
Y127960D01*
X193542Y128189D01*
X195447D01*
X195701Y127960D01*
D02*
G37*
G36*
X189199D02*
Y126030D01*
X188945Y125801D01*
X187040D01*
X186786Y126030D01*
Y127960D01*
X187040Y128189D01*
X188945D01*
X189199Y127960D01*
D02*
G37*
G36*
X182696D02*
Y126030D01*
X182442Y125801D01*
X180537D01*
X180283Y126030D01*
Y127960D01*
X180537Y128189D01*
X182442D01*
X182696Y127960D01*
D02*
G37*
G36*
X176194D02*
Y126030D01*
X175940Y125801D01*
X174035D01*
X173781Y126030D01*
Y127960D01*
X174035Y128189D01*
X175940D01*
X176194Y127960D01*
D02*
G37*
G36*
X169691D02*
Y126030D01*
X169437Y125801D01*
X167532D01*
X167278Y126030D01*
Y127960D01*
X167532Y128189D01*
X169437D01*
X169691Y127960D01*
D02*
G37*
G36*
X163189D02*
Y126030D01*
X162960Y125801D01*
X161030D01*
X160801Y126030D01*
Y127960D01*
X161030Y128189D01*
X162960D01*
X163189Y127960D01*
D02*
G37*
G36*
X156687D02*
Y126030D01*
X156458Y125801D01*
X154528D01*
X154299Y126030D01*
Y127960D01*
X154528Y128189D01*
X156458D01*
X156687Y127960D01*
D02*
G37*
G36*
X150184D02*
Y126030D01*
X149956Y125801D01*
X148025D01*
X147797Y126030D01*
Y127960D01*
X148025Y128189D01*
X149956D01*
X150184Y127960D01*
D02*
G37*
G36*
X143682D02*
Y126030D01*
X143453Y125801D01*
X141523D01*
X141294Y126030D01*
Y127960D01*
X141523Y128189D01*
X143453D01*
X143682Y127960D01*
D02*
G37*
G36*
X241192Y121458D02*
Y119528D01*
X240938Y119299D01*
X239033D01*
X238779Y119528D01*
Y121458D01*
X239033Y121687D01*
X240938D01*
X241192Y121458D01*
D02*
G37*
G36*
X234690D02*
Y119528D01*
X234461Y119299D01*
X232531D01*
X232277Y119528D01*
Y121458D01*
X232531Y121687D01*
X234461D01*
X234690Y121458D01*
D02*
G37*
G36*
X228188D02*
Y119528D01*
X227959Y119299D01*
X226029D01*
X225800Y119528D01*
Y121458D01*
X226029Y121687D01*
X227959D01*
X228188Y121458D01*
D02*
G37*
G36*
X221685D02*
Y119528D01*
X221457Y119299D01*
X219526D01*
X219298Y119528D01*
Y121458D01*
X219526Y121687D01*
X221457D01*
X221685Y121458D01*
D02*
G37*
G36*
X215183D02*
Y119528D01*
X214954Y119299D01*
X213024D01*
X212795Y119528D01*
Y121458D01*
X213024Y121687D01*
X214954D01*
X215183Y121458D01*
D02*
G37*
G36*
X208680D02*
Y119528D01*
X208452Y119299D01*
X206521D01*
X206293Y119528D01*
Y121458D01*
X206521Y121687D01*
X208452D01*
X208680Y121458D01*
D02*
G37*
G36*
X202178D02*
Y119528D01*
X201949Y119299D01*
X200019D01*
X199790Y119528D01*
Y121458D01*
X200019Y121687D01*
X201949D01*
X202178Y121458D01*
D02*
G37*
G36*
X195701D02*
Y119528D01*
X195447Y119299D01*
X193542D01*
X193288Y119528D01*
Y121458D01*
X193542Y121687D01*
X195447D01*
X195701Y121458D01*
D02*
G37*
G36*
X189199D02*
Y119528D01*
X188945Y119299D01*
X187040D01*
X186786Y119528D01*
Y121458D01*
X187040Y121687D01*
X188945D01*
X189199Y121458D01*
D02*
G37*
G36*
X182696D02*
Y119528D01*
X182442Y119299D01*
X180537D01*
X180283Y119528D01*
Y121458D01*
X180537Y121687D01*
X182442D01*
X182696Y121458D01*
D02*
G37*
G36*
X176194D02*
Y119528D01*
X175940Y119299D01*
X174035D01*
X173781Y119528D01*
Y121458D01*
X174035Y121687D01*
X175940D01*
X176194Y121458D01*
D02*
G37*
G36*
X169691D02*
Y119528D01*
X169437Y119299D01*
X167532D01*
X167278Y119528D01*
Y121458D01*
X167532Y121687D01*
X169437D01*
X169691Y121458D01*
D02*
G37*
G36*
X163189D02*
Y119528D01*
X162960Y119299D01*
X161030D01*
X160801Y119528D01*
Y121458D01*
X161030Y121687D01*
X162960D01*
X163189Y121458D01*
D02*
G37*
G36*
X156687D02*
Y119528D01*
X156458Y119299D01*
X154528D01*
X154299Y119528D01*
Y121458D01*
X154528Y121687D01*
X156458D01*
X156687Y121458D01*
D02*
G37*
G36*
X150184D02*
Y119528D01*
X149956Y119299D01*
X148025D01*
X147797Y119528D01*
Y121458D01*
X148025Y121687D01*
X149956D01*
X150184Y121458D01*
D02*
G37*
G36*
X143682D02*
Y119528D01*
X143453Y119299D01*
X141523D01*
X141294Y119528D01*
Y121458D01*
X141523Y121687D01*
X143453D01*
X143682Y121458D01*
D02*
G37*
G36*
X241192Y114956D02*
Y113051D01*
X240938Y112797D01*
X239033D01*
X238779Y113051D01*
Y114956D01*
X239033Y115210D01*
X240938D01*
X241192Y114956D01*
D02*
G37*
G36*
X234690D02*
Y113051D01*
X234461Y112797D01*
X232531D01*
X232277Y113051D01*
Y114956D01*
X232531Y115210D01*
X234461D01*
X234690Y114956D01*
D02*
G37*
G36*
X228188D02*
Y113051D01*
X227959Y112797D01*
X226029D01*
X225800Y113051D01*
Y114956D01*
X226029Y115210D01*
X227959D01*
X228188Y114956D01*
D02*
G37*
G36*
X221685D02*
Y113051D01*
X221457Y112797D01*
X219526D01*
X219298Y113051D01*
Y114956D01*
X219526Y115210D01*
X221457D01*
X221685Y114956D01*
D02*
G37*
G36*
X215183D02*
Y113051D01*
X214954Y112797D01*
X213024D01*
X212795Y113051D01*
Y114956D01*
X213024Y115210D01*
X214954D01*
X215183Y114956D01*
D02*
G37*
G36*
X208680D02*
Y113051D01*
X208452Y112797D01*
X206521D01*
X206293Y113051D01*
Y114956D01*
X206521Y115210D01*
X208452D01*
X208680Y114956D01*
D02*
G37*
G36*
X202178D02*
Y113051D01*
X201949Y112797D01*
X200019D01*
X199790Y113051D01*
Y114956D01*
X200019Y115210D01*
X201949D01*
X202178Y114956D01*
D02*
G37*
G36*
X195701D02*
Y113051D01*
X195447Y112797D01*
X193542D01*
X193288Y113051D01*
Y114956D01*
X193542Y115210D01*
X195447D01*
X195701Y114956D01*
D02*
G37*
G36*
X189199D02*
Y113051D01*
X188945Y112797D01*
X187040D01*
X186786Y113051D01*
Y114956D01*
X187040Y115210D01*
X188945D01*
X189199Y114956D01*
D02*
G37*
G36*
X182696D02*
Y113051D01*
X182442Y112797D01*
X180537D01*
X180283Y113051D01*
Y114956D01*
X180537Y115210D01*
X182442D01*
X182696Y114956D01*
D02*
G37*
G36*
X176194D02*
Y113051D01*
X175940Y112797D01*
X174035D01*
X173781Y113051D01*
Y114956D01*
X174035Y115210D01*
X175940D01*
X176194Y114956D01*
D02*
G37*
G36*
X169691D02*
Y113051D01*
X169437Y112797D01*
X167532D01*
X167278Y113051D01*
Y114956D01*
X167532Y115210D01*
X169437D01*
X169691Y114956D01*
D02*
G37*
G36*
X163189D02*
Y113051D01*
X162960Y112797D01*
X161030D01*
X160801Y113051D01*
Y114956D01*
X161030Y115210D01*
X162960D01*
X163189Y114956D01*
D02*
G37*
G36*
X156687D02*
Y113051D01*
X156458Y112797D01*
X154528D01*
X154299Y113051D01*
Y114956D01*
X154528Y115210D01*
X156458D01*
X156687Y114956D01*
D02*
G37*
G36*
X150184D02*
Y113051D01*
X149956Y112797D01*
X148025D01*
X147797Y113051D01*
Y114956D01*
X148025Y115210D01*
X149956D01*
X150184Y114956D01*
D02*
G37*
G36*
X143682D02*
Y113051D01*
X143453Y112797D01*
X141523D01*
X141294Y113051D01*
Y114956D01*
X141523Y115210D01*
X143453D01*
X143682Y114956D01*
D02*
G37*
G36*
X241192Y108453D02*
Y106548D01*
X240938Y106294D01*
X239033D01*
X238779Y106548D01*
Y108453D01*
X239033Y108707D01*
X240938D01*
X241192Y108453D01*
D02*
G37*
G36*
X234690D02*
Y106548D01*
X234461Y106294D01*
X232531D01*
X232277Y106548D01*
Y108453D01*
X232531Y108707D01*
X234461D01*
X234690Y108453D01*
D02*
G37*
G36*
X228188D02*
Y106548D01*
X227959Y106294D01*
X226029D01*
X225800Y106548D01*
Y108453D01*
X226029Y108707D01*
X227959D01*
X228188Y108453D01*
D02*
G37*
G36*
X221685D02*
Y106548D01*
X221457Y106294D01*
X219526D01*
X219298Y106548D01*
Y108453D01*
X219526Y108707D01*
X221457D01*
X221685Y108453D01*
D02*
G37*
G36*
X215183D02*
Y106548D01*
X214954Y106294D01*
X213024D01*
X212795Y106548D01*
Y108453D01*
X213024Y108707D01*
X214954D01*
X215183Y108453D01*
D02*
G37*
G36*
X208680D02*
Y106548D01*
X208452Y106294D01*
X206521D01*
X206293Y106548D01*
Y108453D01*
X206521Y108707D01*
X208452D01*
X208680Y108453D01*
D02*
G37*
G36*
X202178D02*
Y106548D01*
X201949Y106294D01*
X200019D01*
X199790Y106548D01*
Y108453D01*
X200019Y108707D01*
X201949D01*
X202178Y108453D01*
D02*
G37*
G36*
X195701D02*
Y106548D01*
X195447Y106294D01*
X193542D01*
X193288Y106548D01*
Y108453D01*
X193542Y108707D01*
X195447D01*
X195701Y108453D01*
D02*
G37*
G36*
X189199D02*
Y106548D01*
X188945Y106294D01*
X187040D01*
X186786Y106548D01*
Y108453D01*
X187040Y108707D01*
X188945D01*
X189199Y108453D01*
D02*
G37*
G36*
X182696D02*
Y106548D01*
X182442Y106294D01*
X180537D01*
X180283Y106548D01*
Y108453D01*
X180537Y108707D01*
X182442D01*
X182696Y108453D01*
D02*
G37*
G36*
X176194D02*
Y106548D01*
X175940Y106294D01*
X174035D01*
X173781Y106548D01*
Y108453D01*
X174035Y108707D01*
X175940D01*
X176194Y108453D01*
D02*
G37*
G36*
X169691D02*
Y106548D01*
X169437Y106294D01*
X167532D01*
X167278Y106548D01*
Y108453D01*
X167532Y108707D01*
X169437D01*
X169691Y108453D01*
D02*
G37*
G36*
X163189D02*
Y106548D01*
X162960Y106294D01*
X161030D01*
X160801Y106548D01*
Y108453D01*
X161030Y108707D01*
X162960D01*
X163189Y108453D01*
D02*
G37*
G36*
X156687D02*
Y106548D01*
X156458Y106294D01*
X154528D01*
X154299Y106548D01*
Y108453D01*
X154528Y108707D01*
X156458D01*
X156687Y108453D01*
D02*
G37*
G36*
X150184D02*
Y106548D01*
X149956Y106294D01*
X148025D01*
X147797Y106548D01*
Y108453D01*
X148025Y108707D01*
X149956D01*
X150184Y108453D01*
D02*
G37*
G36*
X143682D02*
Y106548D01*
X143453Y106294D01*
X141523D01*
X141294Y106548D01*
Y108453D01*
X141523Y108707D01*
X143453D01*
X143682Y108453D01*
D02*
G37*
G36*
X241192Y101951D02*
Y100046D01*
X240938Y99792D01*
X239033D01*
X238779Y100046D01*
Y101951D01*
X239033Y102205D01*
X240938D01*
X241192Y101951D01*
D02*
G37*
G36*
X234690D02*
Y100046D01*
X234461Y99792D01*
X232531D01*
X232277Y100046D01*
Y101951D01*
X232531Y102205D01*
X234461D01*
X234690Y101951D01*
D02*
G37*
G36*
X228188D02*
Y100046D01*
X227959Y99792D01*
X226029D01*
X225800Y100046D01*
Y101951D01*
X226029Y102205D01*
X227959D01*
X228188Y101951D01*
D02*
G37*
G36*
X221685D02*
Y100046D01*
X221457Y99792D01*
X219526D01*
X219298Y100046D01*
Y101951D01*
X219526Y102205D01*
X221457D01*
X221685Y101951D01*
D02*
G37*
G36*
X215183D02*
Y100046D01*
X214954Y99792D01*
X213024D01*
X212795Y100046D01*
Y101951D01*
X213024Y102205D01*
X214954D01*
X215183Y101951D01*
D02*
G37*
G36*
X208680D02*
Y100046D01*
X208452Y99792D01*
X206521D01*
X206293Y100046D01*
Y101951D01*
X206521Y102205D01*
X208452D01*
X208680Y101951D01*
D02*
G37*
G36*
X202178D02*
Y100046D01*
X201949Y99792D01*
X200019D01*
X199790Y100046D01*
Y101951D01*
X200019Y102205D01*
X201949D01*
X202178Y101951D01*
D02*
G37*
G36*
X195701D02*
Y100046D01*
X195447Y99792D01*
X193542D01*
X193288Y100046D01*
Y101951D01*
X193542Y102205D01*
X195447D01*
X195701Y101951D01*
D02*
G37*
G36*
X189199D02*
Y100046D01*
X188945Y99792D01*
X187040D01*
X186786Y100046D01*
Y101951D01*
X187040Y102205D01*
X188945D01*
X189199Y101951D01*
D02*
G37*
G36*
X182696D02*
Y100046D01*
X182442Y99792D01*
X180537D01*
X180283Y100046D01*
Y101951D01*
X180537Y102205D01*
X182442D01*
X182696Y101951D01*
D02*
G37*
G36*
X176194D02*
Y100046D01*
X175940Y99792D01*
X174035D01*
X173781Y100046D01*
Y101951D01*
X174035Y102205D01*
X175940D01*
X176194Y101951D01*
D02*
G37*
G36*
X169691D02*
Y100046D01*
X169437Y99792D01*
X167532D01*
X167278Y100046D01*
Y101951D01*
X167532Y102205D01*
X169437D01*
X169691Y101951D01*
D02*
G37*
G36*
X163189D02*
Y100046D01*
X162960Y99792D01*
X161030D01*
X160801Y100046D01*
Y101951D01*
X161030Y102205D01*
X162960D01*
X163189Y101951D01*
D02*
G37*
G36*
X156687D02*
Y100046D01*
X156458Y99792D01*
X154528D01*
X154299Y100046D01*
Y101951D01*
X154528Y102205D01*
X156458D01*
X156687Y101951D01*
D02*
G37*
G36*
X150184D02*
Y100046D01*
X149956Y99792D01*
X148025D01*
X147797Y100046D01*
Y101951D01*
X148025Y102205D01*
X149956D01*
X150184Y101951D01*
D02*
G37*
G36*
X143682D02*
Y100046D01*
X143453Y99792D01*
X141523D01*
X141294Y100046D01*
Y101951D01*
X141523Y102205D01*
X143453D01*
X143682Y101951D01*
D02*
G37*
G36*
X241192Y95448D02*
Y93543D01*
X240938Y93289D01*
X239033D01*
X238779Y93543D01*
Y95448D01*
X239033Y95702D01*
X240938D01*
X241192Y95448D01*
D02*
G37*
G36*
X234690D02*
Y93543D01*
X234461Y93289D01*
X232531D01*
X232277Y93543D01*
Y95448D01*
X232531Y95702D01*
X234461D01*
X234690Y95448D01*
D02*
G37*
G36*
X228188D02*
Y93543D01*
X227959Y93289D01*
X226029D01*
X225800Y93543D01*
Y95448D01*
X226029Y95702D01*
X227959D01*
X228188Y95448D01*
D02*
G37*
G36*
X221685D02*
Y93543D01*
X221457Y93289D01*
X219526D01*
X219298Y93543D01*
Y95448D01*
X219526Y95702D01*
X221457D01*
X221685Y95448D01*
D02*
G37*
G36*
X215183D02*
Y93543D01*
X214954Y93289D01*
X213024D01*
X212795Y93543D01*
Y95448D01*
X213024Y95702D01*
X214954D01*
X215183Y95448D01*
D02*
G37*
G36*
X208680D02*
Y93543D01*
X208452Y93289D01*
X206521D01*
X206293Y93543D01*
Y95448D01*
X206521Y95702D01*
X208452D01*
X208680Y95448D01*
D02*
G37*
G36*
X202178D02*
Y93543D01*
X201949Y93289D01*
X200019D01*
X199790Y93543D01*
Y95448D01*
X200019Y95702D01*
X201949D01*
X202178Y95448D01*
D02*
G37*
G36*
X195701D02*
Y93543D01*
X195447Y93289D01*
X193542D01*
X193288Y93543D01*
Y95448D01*
X193542Y95702D01*
X195447D01*
X195701Y95448D01*
D02*
G37*
G36*
X189199D02*
Y93543D01*
X188945Y93289D01*
X187040D01*
X186786Y93543D01*
Y95448D01*
X187040Y95702D01*
X188945D01*
X189199Y95448D01*
D02*
G37*
G36*
X182696D02*
Y93543D01*
X182442Y93289D01*
X180537D01*
X180283Y93543D01*
Y95448D01*
X180537Y95702D01*
X182442D01*
X182696Y95448D01*
D02*
G37*
G36*
X176194D02*
Y93543D01*
X175940Y93289D01*
X174035D01*
X173781Y93543D01*
Y95448D01*
X174035Y95702D01*
X175940D01*
X176194Y95448D01*
D02*
G37*
G36*
X169691D02*
Y93543D01*
X169437Y93289D01*
X167532D01*
X167278Y93543D01*
Y95448D01*
X167532Y95702D01*
X169437D01*
X169691Y95448D01*
D02*
G37*
G36*
X163189D02*
Y93543D01*
X162960Y93289D01*
X161030D01*
X160801Y93543D01*
Y95448D01*
X161030Y95702D01*
X162960D01*
X163189Y95448D01*
D02*
G37*
G36*
X156687D02*
Y93543D01*
X156458Y93289D01*
X154528D01*
X154299Y93543D01*
Y95448D01*
X154528Y95702D01*
X156458D01*
X156687Y95448D01*
D02*
G37*
G36*
X150184D02*
Y93543D01*
X149956Y93289D01*
X148025D01*
X147797Y93543D01*
Y95448D01*
X148025Y95702D01*
X149956D01*
X150184Y95448D01*
D02*
G37*
G36*
X143682D02*
Y93543D01*
X143453Y93289D01*
X141523D01*
X141294Y93543D01*
Y95448D01*
X141523Y95702D01*
X143453D01*
X143682Y95448D01*
D02*
G37*
G36*
X337054Y33404D02*
X337435Y33327D01*
X337816Y33226D01*
X338197Y33099D01*
X338578Y32972D01*
X338959Y32819D01*
X339314Y32642D01*
X339644Y32438D01*
X340000Y32235D01*
X340330Y32007D01*
X340635Y31778D01*
X340940Y31499D01*
X341219Y31245D01*
X341499Y30940D01*
X341753Y30635D01*
X342007Y30330D01*
X342235Y30000D01*
X342438Y29670D01*
X342642Y29314D01*
X342819Y28959D01*
X342972Y28578D01*
X343099Y28222D01*
X343226Y27841D01*
X343327Y27435D01*
X343404Y27054D01*
X343454Y26673D01*
X340559D01*
X340483Y26977D01*
X340381Y27282D01*
X340279Y27587D01*
X340152Y27892D01*
X340000Y28171D01*
X339822Y28451D01*
X339644Y28730D01*
X339441Y28984D01*
X339213Y29213D01*
X338959Y29441D01*
X338730Y29644D01*
X338451Y29822D01*
X338171Y30000D01*
X337892Y30152D01*
X337587Y30279D01*
X337282Y30406D01*
X336977Y30483D01*
X336647Y30559D01*
Y33454D01*
X337054Y33404D01*
D02*
G37*
G36*
X334666Y30559D02*
X334336Y30483D01*
X334031Y30406D01*
X333726Y30279D01*
X333421Y30152D01*
X333142Y30000D01*
X332863Y29822D01*
X332583Y29644D01*
X332355Y29441D01*
X332101Y29213D01*
X331872Y28984D01*
X331669Y28730D01*
X331491Y28451D01*
X331313Y28171D01*
X331161Y27892D01*
X331034Y27587D01*
X330932Y27282D01*
X330831Y26977D01*
X330754Y26673D01*
X327859D01*
X327910Y27054D01*
X327986Y27435D01*
X328087Y27841D01*
X328214Y28222D01*
X328341Y28578D01*
X328494Y28959D01*
X328672Y29314D01*
X328875Y29670D01*
X329078Y30000D01*
X329307Y30330D01*
X329561Y30635D01*
X329815Y30940D01*
X330094Y31245D01*
X330373Y31499D01*
X330678Y31778D01*
X330983Y32007D01*
X331313Y32235D01*
X331669Y32438D01*
X331999Y32642D01*
X332355Y32819D01*
X332736Y32972D01*
X333117Y33099D01*
X333498Y33226D01*
X333879Y33327D01*
X334260Y33404D01*
X334666Y33454D01*
Y30559D01*
D02*
G37*
G36*
X343404Y24260D02*
X343327Y23879D01*
X343226Y23498D01*
X343099Y23117D01*
X342972Y22736D01*
X342819Y22380D01*
X342642Y21999D01*
X342438Y21669D01*
X342235Y21313D01*
X342007Y20983D01*
X341753Y20678D01*
X341499Y20373D01*
X341219Y20094D01*
X340940Y19815D01*
X340635Y19561D01*
X340330Y19307D01*
X340000Y19078D01*
X339644Y18875D01*
X339314Y18672D01*
X338959Y18519D01*
X338578Y18341D01*
X338197Y18214D01*
X337816Y18087D01*
X337435Y17986D01*
X337054Y17910D01*
X336647Y17859D01*
Y20754D01*
X336977Y20831D01*
X337282Y20932D01*
X337587Y21034D01*
X337892Y21161D01*
X338171Y21313D01*
X338451Y21491D01*
X338730Y21694D01*
X338959Y21897D01*
X339213Y22101D01*
X339441Y22355D01*
X339644Y22609D01*
X339822Y22863D01*
X340000Y23142D01*
X340152Y23421D01*
X340279Y23726D01*
X340381Y24031D01*
X340483Y24336D01*
X340559Y24666D01*
X343454D01*
X343404Y24260D01*
D02*
G37*
G36*
X330831Y24336D02*
X330907Y24031D01*
X331034Y23726D01*
X331161Y23421D01*
X331313Y23142D01*
X331491Y22863D01*
X331669Y22609D01*
X331872Y22355D01*
X332101Y22101D01*
X332355Y21897D01*
X332583Y21694D01*
X332863Y21491D01*
X333142Y21313D01*
X333421Y21161D01*
X333726Y21034D01*
X334031Y20932D01*
X334336Y20831D01*
X334666Y20754D01*
Y17859D01*
X334260Y17910D01*
X333879Y18011D01*
X333472Y18087D01*
X333091Y18214D01*
X332736Y18341D01*
X332355Y18519D01*
X331999Y18672D01*
X331643Y18875D01*
X331313Y19078D01*
X330983Y19307D01*
X330678Y19561D01*
X330373Y19815D01*
X330094Y20094D01*
X329815Y20373D01*
X329561Y20678D01*
X329307Y21008D01*
X329078Y21313D01*
X328875Y21669D01*
X328672Y21999D01*
X328494Y22380D01*
X328341Y22736D01*
X328214Y23117D01*
X328087Y23498D01*
X327986Y23879D01*
X327910Y24260D01*
X327859Y24666D01*
X330754D01*
X330831Y24336D01*
D02*
G37*
D16*
X321000Y297500D02*
D03*
D17*
X46139Y74141D02*
D03*
D18*
X39788Y113130D02*
D03*
X52488D02*
D03*
X65188D02*
D03*
X27088D02*
D03*
X65188Y35127D02*
D03*
X27088D02*
D03*
X39788D02*
D03*
X52488D02*
D03*
D19*
X70262Y214056D02*
D03*
Y206054D02*
D03*
X293588Y172311D02*
D03*
Y180312D02*
D03*
D20*
X121856Y180244D02*
D03*
X122317Y196472D02*
D03*
D21*
X335000Y290000D02*
D03*
Y295000D02*
D03*
Y300000D02*
D03*
Y305000D02*
D03*
X307000D02*
D03*
Y300000D02*
D03*
Y295000D02*
D03*
Y290000D02*
D03*
D22*
X328500Y311500D02*
D03*
X323500D02*
D03*
X318500D02*
D03*
X313500D02*
D03*
Y283500D02*
D03*
X318500D02*
D03*
X323500D02*
D03*
X328500D02*
D03*
D23*
X340000Y21313D02*
D03*
X331313D02*
D03*
Y30000D02*
D03*
X340000D02*
D03*
D24*
X330907Y40439D02*
D03*
X340406D02*
D03*
D25*
X239999Y191994D02*
D03*
Y185491D02*
D03*
Y178989D02*
D03*
Y172487D02*
D03*
Y166010D02*
D03*
Y159507D02*
D03*
Y153005D02*
D03*
Y146502D02*
D03*
Y140000D02*
D03*
Y133498D02*
D03*
Y126995D02*
D03*
Y120493D02*
D03*
Y113990D02*
D03*
Y107488D02*
D03*
Y100986D02*
D03*
Y94509D02*
D03*
X233496Y191994D02*
D03*
Y185491D02*
D03*
Y178989D02*
D03*
Y172487D02*
D03*
Y166010D02*
D03*
Y159507D02*
D03*
Y153005D02*
D03*
Y146502D02*
D03*
Y140000D02*
D03*
Y133498D02*
D03*
Y126995D02*
D03*
Y120493D02*
D03*
Y113990D02*
D03*
Y107488D02*
D03*
Y100986D02*
D03*
Y94509D02*
D03*
X226994Y191994D02*
D03*
Y185491D02*
D03*
Y178989D02*
D03*
Y172487D02*
D03*
Y166010D02*
D03*
Y159507D02*
D03*
Y153005D02*
D03*
Y146502D02*
D03*
Y140000D02*
D03*
Y133498D02*
D03*
Y126995D02*
D03*
Y120493D02*
D03*
Y113990D02*
D03*
Y107488D02*
D03*
Y100986D02*
D03*
Y94509D02*
D03*
X220491Y191994D02*
D03*
Y185491D02*
D03*
Y178989D02*
D03*
Y172487D02*
D03*
Y166010D02*
D03*
Y159507D02*
D03*
Y153005D02*
D03*
Y146502D02*
D03*
Y140000D02*
D03*
Y133498D02*
D03*
Y126995D02*
D03*
Y120493D02*
D03*
Y113990D02*
D03*
Y107488D02*
D03*
Y100986D02*
D03*
Y94509D02*
D03*
X213989Y191994D02*
D03*
Y185491D02*
D03*
Y178989D02*
D03*
Y172487D02*
D03*
Y166010D02*
D03*
Y159507D02*
D03*
Y153005D02*
D03*
Y146502D02*
D03*
Y140000D02*
D03*
Y133498D02*
D03*
Y126995D02*
D03*
Y120493D02*
D03*
Y113990D02*
D03*
Y107488D02*
D03*
Y100986D02*
D03*
Y94509D02*
D03*
X207487Y191994D02*
D03*
Y185491D02*
D03*
Y178989D02*
D03*
Y172487D02*
D03*
Y166010D02*
D03*
Y159507D02*
D03*
Y153005D02*
D03*
Y146502D02*
D03*
Y140000D02*
D03*
Y133498D02*
D03*
Y126995D02*
D03*
Y120493D02*
D03*
Y113990D02*
D03*
Y107488D02*
D03*
Y100986D02*
D03*
Y94509D02*
D03*
X200984Y191994D02*
D03*
Y185491D02*
D03*
Y178989D02*
D03*
Y172487D02*
D03*
Y166010D02*
D03*
Y159507D02*
D03*
Y153005D02*
D03*
Y146502D02*
D03*
Y140000D02*
D03*
Y133498D02*
D03*
Y126995D02*
D03*
Y120493D02*
D03*
Y113990D02*
D03*
Y107488D02*
D03*
Y100986D02*
D03*
Y94509D02*
D03*
X194482Y191994D02*
D03*
Y185491D02*
D03*
Y178989D02*
D03*
Y172487D02*
D03*
Y166010D02*
D03*
Y159507D02*
D03*
Y153005D02*
D03*
Y146502D02*
D03*
Y140000D02*
D03*
Y133498D02*
D03*
Y126995D02*
D03*
Y120493D02*
D03*
Y113990D02*
D03*
Y107488D02*
D03*
Y100986D02*
D03*
Y94509D02*
D03*
X187979Y191994D02*
D03*
Y185491D02*
D03*
Y178989D02*
D03*
Y172487D02*
D03*
Y166010D02*
D03*
Y159507D02*
D03*
Y153005D02*
D03*
Y146502D02*
D03*
Y140000D02*
D03*
Y133498D02*
D03*
Y126995D02*
D03*
Y120493D02*
D03*
Y113990D02*
D03*
Y107488D02*
D03*
Y100986D02*
D03*
Y94509D02*
D03*
X181477Y191994D02*
D03*
Y185491D02*
D03*
Y178989D02*
D03*
Y172487D02*
D03*
Y166010D02*
D03*
Y159507D02*
D03*
Y153005D02*
D03*
Y146502D02*
D03*
Y140000D02*
D03*
Y133498D02*
D03*
Y126995D02*
D03*
Y120493D02*
D03*
Y113990D02*
D03*
Y107488D02*
D03*
Y100986D02*
D03*
Y94509D02*
D03*
X175000Y191994D02*
D03*
Y185491D02*
D03*
Y178989D02*
D03*
Y172487D02*
D03*
Y166010D02*
D03*
Y159507D02*
D03*
Y153005D02*
D03*
Y146502D02*
D03*
Y140000D02*
D03*
Y133498D02*
D03*
Y126995D02*
D03*
Y120493D02*
D03*
Y113990D02*
D03*
Y107488D02*
D03*
Y100986D02*
D03*
Y94509D02*
D03*
X168498Y191994D02*
D03*
Y185491D02*
D03*
Y178989D02*
D03*
Y172487D02*
D03*
Y166010D02*
D03*
Y159507D02*
D03*
Y153005D02*
D03*
Y146502D02*
D03*
Y140000D02*
D03*
Y133498D02*
D03*
Y126995D02*
D03*
Y120493D02*
D03*
Y113990D02*
D03*
Y107488D02*
D03*
Y100986D02*
D03*
Y94509D02*
D03*
X161995Y191994D02*
D03*
Y185491D02*
D03*
Y178989D02*
D03*
Y172487D02*
D03*
Y166010D02*
D03*
Y159507D02*
D03*
Y153005D02*
D03*
Y146502D02*
D03*
Y140000D02*
D03*
Y133498D02*
D03*
Y126995D02*
D03*
Y120493D02*
D03*
Y113990D02*
D03*
Y107488D02*
D03*
Y100986D02*
D03*
Y94509D02*
D03*
X155493Y191994D02*
D03*
Y185491D02*
D03*
Y178989D02*
D03*
Y172487D02*
D03*
Y166010D02*
D03*
Y159507D02*
D03*
Y153005D02*
D03*
Y146502D02*
D03*
Y140000D02*
D03*
Y133498D02*
D03*
Y126995D02*
D03*
Y120493D02*
D03*
Y113990D02*
D03*
Y107488D02*
D03*
Y100986D02*
D03*
Y94509D02*
D03*
X148990Y191994D02*
D03*
Y185491D02*
D03*
Y178989D02*
D03*
Y172487D02*
D03*
Y166010D02*
D03*
Y159507D02*
D03*
Y153005D02*
D03*
Y146502D02*
D03*
Y140000D02*
D03*
Y133498D02*
D03*
Y126995D02*
D03*
Y120493D02*
D03*
Y113990D02*
D03*
Y107488D02*
D03*
Y100986D02*
D03*
Y94509D02*
D03*
X142488Y191994D02*
D03*
Y185491D02*
D03*
Y178989D02*
D03*
Y172487D02*
D03*
Y166010D02*
D03*
Y159507D02*
D03*
Y153005D02*
D03*
Y146502D02*
D03*
Y140000D02*
D03*
Y133498D02*
D03*
Y126995D02*
D03*
Y120493D02*
D03*
Y113990D02*
D03*
Y107488D02*
D03*
Y100986D02*
D03*
Y94509D02*
D03*
D26*
X140442Y227616D02*
D03*
X153942D02*
D03*
Y237616D02*
D03*
X140442D02*
D03*
D27*
X265891Y199301D02*
D03*
Y204301D02*
D03*
Y209301D02*
D03*
X259142D02*
D03*
Y204301D02*
D03*
Y199301D02*
D03*
X98541Y187403D02*
D03*
Y182403D02*
D03*
Y177403D02*
D03*
X105291D02*
D03*
Y182403D02*
D03*
Y187403D02*
D03*
D28*
X106219Y367489D02*
D03*
Y348489D02*
D03*
X126219Y357989D02*
D03*
X175000Y260500D02*
D03*
Y279500D02*
D03*
X155000Y270000D02*
D03*
D29*
X134267Y260850D02*
D03*
D30*
Y279150D02*
D03*
X115733Y270000D02*
D03*
D31*
X207687Y355931D02*
D03*
Y389431D02*
D03*
X240296Y283477D02*
D03*
Y316977D02*
D03*
D32*
X315000Y27750D02*
D03*
Y22250D02*
D03*
D33*
X273994Y455000D02*
D03*
X286006D02*
D03*
X284806Y388030D02*
D03*
X296818D02*
D03*
X339933Y398908D02*
D03*
X351945D02*
D03*
X339068Y458865D02*
D03*
X351080D02*
D03*
X223994Y455000D02*
D03*
X236006D02*
D03*
D34*
X235000Y364743D02*
D03*
Y385257D02*
D03*
X266955Y290135D02*
D03*
Y310648D02*
D03*
D35*
X280000Y436759D02*
D03*
Y423241D02*
D03*
X339456Y366744D02*
D03*
Y380261D02*
D03*
X340190Y426794D02*
D03*
Y440311D02*
D03*
X290898Y370305D02*
D03*
Y356787D02*
D03*
X230000Y436759D02*
D03*
Y423241D02*
D03*
D36*
X319250Y136011D02*
D03*
Y122489D02*
D03*
X260732Y113299D02*
D03*
Y126821D02*
D03*
X261315Y180412D02*
D03*
Y166890D02*
D03*
D37*
X52500Y355000D02*
D03*
X77500D02*
D03*
X199232Y231466D02*
D03*
X174232D02*
D03*
D38*
X184176Y357881D02*
D03*
Y385897D02*
D03*
X216568Y285514D02*
D03*
Y313530D02*
D03*
D39*
X106535Y33501D02*
D03*
X244533D02*
D03*
D40*
X228048Y56996D02*
D03*
X223045D02*
D03*
X218041D02*
D03*
X213037D02*
D03*
X208033D02*
D03*
X203029D02*
D03*
X198051D02*
D03*
X193047D02*
D03*
X123045D02*
D03*
X128049D02*
D03*
X133027D02*
D03*
X138031D02*
D03*
X143035D02*
D03*
X148038D02*
D03*
X153042D02*
D03*
X158046D02*
D03*
X163050D02*
D03*
X168028D02*
D03*
X173032D02*
D03*
X178036D02*
D03*
X183040D02*
D03*
X188043D02*
D03*
D41*
X100348Y110188D02*
D03*
X105352D02*
D03*
X110356D02*
D03*
X115359D02*
D03*
X120363D02*
D03*
X100348Y152377D02*
D03*
X105352D02*
D03*
X110356D02*
D03*
X115359D02*
D03*
X120363D02*
D03*
D42*
X297033Y41262D02*
D03*
Y24762D02*
D03*
X275000Y41500D02*
D03*
Y25000D02*
D03*
D43*
X78928Y375162D02*
D03*
X71356D02*
D03*
X245865Y74877D02*
D03*
X238293D02*
D03*
X148794Y355039D02*
D03*
X141222D02*
D03*
X58039Y18778D02*
D03*
X65610D02*
D03*
X196206Y209961D02*
D03*
X203778D02*
D03*
X170208D02*
D03*
X177780D02*
D03*
X140105Y209834D02*
D03*
X132534D02*
D03*
X151182Y209755D02*
D03*
X158754D02*
D03*
X341916Y55693D02*
D03*
X349487D02*
D03*
X60550Y375206D02*
D03*
X52978D02*
D03*
X249965Y270061D02*
D03*
X257536D02*
D03*
X258383Y471172D02*
D03*
X250812D02*
D03*
X260678Y404714D02*
D03*
X253107D02*
D03*
X258821Y454939D02*
D03*
X251250D02*
D03*
X148935Y369022D02*
D03*
X141363D02*
D03*
X214158Y470979D02*
D03*
X221729D02*
D03*
X267821Y103189D02*
D03*
X260250D02*
D03*
X91175Y88558D02*
D03*
X83604D02*
D03*
X10643Y484977D02*
D03*
X18214D02*
D03*
X10481Y471402D02*
D03*
X18052D02*
D03*
X10372Y457937D02*
D03*
X17943D02*
D03*
X189214Y262561D02*
D03*
X196786D02*
D03*
X10482Y444471D02*
D03*
X18053D02*
D03*
X214415Y329964D02*
D03*
X221986D02*
D03*
X10591Y430951D02*
D03*
X18162D02*
D03*
D44*
X142215Y512170D02*
D03*
X133223D02*
D03*
X124206D02*
D03*
X115215D02*
D03*
X106223D02*
D03*
X97206D02*
D03*
X88215D02*
D03*
X79223D02*
D03*
X70206D02*
D03*
X61214D02*
D03*
X52223D02*
D03*
Y392180D02*
D03*
X61214D02*
D03*
X70206D02*
D03*
X79223D02*
D03*
X88215D02*
D03*
X97206D02*
D03*
X106223D02*
D03*
X115215D02*
D03*
X124206D02*
D03*
X133223D02*
D03*
X142215D02*
D03*
D45*
X37211Y497184D02*
D03*
Y488167D02*
D03*
Y479175D02*
D03*
Y470184D02*
D03*
Y461167D02*
D03*
Y452175D02*
D03*
Y443183D02*
D03*
Y434166D02*
D03*
Y425175D02*
D03*
Y416183D02*
D03*
Y407166D02*
D03*
X157201D02*
D03*
Y416183D02*
D03*
Y425175D02*
D03*
Y434166D02*
D03*
Y443183D02*
D03*
Y452175D02*
D03*
Y461167D02*
D03*
Y470184D02*
D03*
Y479175D02*
D03*
Y488167D02*
D03*
Y497184D02*
D03*
D46*
X85624Y477067D02*
D03*
D47*
X307250Y265000D02*
D03*
X322750D02*
D03*
X280070Y338002D02*
D03*
X295571D02*
D03*
X237750Y405000D02*
D03*
X222250D02*
D03*
X39313Y18105D02*
D03*
X23812D02*
D03*
X336874Y74736D02*
D03*
X352374D02*
D03*
X270879Y270176D02*
D03*
X286379D02*
D03*
X287750Y405000D02*
D03*
X272250D02*
D03*
X223413Y347766D02*
D03*
X238913D02*
D03*
D48*
X291497Y307300D02*
D03*
Y291800D02*
D03*
X335000Y327250D02*
D03*
Y342750D02*
D03*
X316034Y364823D02*
D03*
Y380322D02*
D03*
X316844Y426822D02*
D03*
Y442322D02*
D03*
D49*
X342000Y135256D02*
D03*
Y123244D02*
D03*
D50*
X181369Y461305D02*
D03*
Y468876D02*
D03*
X336449Y261411D02*
D03*
Y268982D02*
D03*
X181378Y444119D02*
D03*
Y451690D02*
D03*
X193932Y425003D02*
D03*
Y432575D02*
D03*
X180249Y425003D02*
D03*
Y432575D02*
D03*
X17764Y504886D02*
D03*
Y497315D02*
D03*
X197993Y444445D02*
D03*
Y452016D02*
D03*
X198101Y461277D02*
D03*
Y468848D02*
D03*
D51*
X133309Y512555D02*
D03*
M02*
