G04*
G04 #@! TF.GenerationSoftware,Altium Limited,Altium Designer Agile,26.0.0 (14)*
G04*
G04 Layer_Physical_Order=6*
G04 Layer_Color=16711680*
%FSLAX44Y44*%
%MOMM*%
G71*
G04*
G04 #@! TF.SameCoordinates,5996F74F-4EFE-4122-A10F-3413AC6DE766*
G04*
G04*
G04 #@! TF.FilePolarity,Positive*
G04*
G01*
G75*
%ADD12C,0.2540*%
%ADD14C,0.1524*%
%ADD27R,0.3250X0.2700*%
%ADD39R,1.9990X2.9997*%
%ADD40R,0.2997X1.3005*%
%ADD43R,0.5153X0.4725*%
%ADD47R,0.7500X0.9000*%
%ADD48R,0.9000X0.7500*%
%ADD50R,0.4725X0.5153*%
%ADD82C,0.4501*%
%ADD85C,0.5080*%
%ADD88C,0.3048*%
%ADD107O,1.8009X1.1989*%
%ADD108O,1.9990X1.1989*%
%ADD109C,1.2000*%
%ADD110R,1.2000X1.2000*%
%ADD111C,1.0000*%
%ADD112C,2.6000*%
%ADD113C,0.5000*%
G04:AMPARAMS|DCode=114|XSize=0.3mm|YSize=0.45mm|CornerRadius=0.0495mm|HoleSize=0mm|Usage=FLASHONLY|Rotation=270.000|XOffset=0mm|YOffset=0mm|HoleType=Round|Shape=RoundedRectangle|*
%AMROUNDEDRECTD114*
21,1,0.3000,0.3510,0,0,270.0*
21,1,0.2010,0.4500,0,0,270.0*
1,1,0.0990,-0.1755,-0.1005*
1,1,0.0990,-0.1755,0.1005*
1,1,0.0990,0.1755,0.1005*
1,1,0.0990,0.1755,-0.1005*
%
%ADD114ROUNDEDRECTD114*%
G04:AMPARAMS|DCode=115|XSize=1mm|YSize=1.6mm|CornerRadius=0.05mm|HoleSize=0mm|Usage=FLASHONLY|Rotation=0.000|XOffset=0mm|YOffset=0mm|HoleType=Round|Shape=RoundedRectangle|*
%AMROUNDEDRECTD115*
21,1,1.0000,1.5000,0,0,0.0*
21,1,0.9000,1.6000,0,0,0.0*
1,1,0.1000,0.4500,-0.7500*
1,1,0.1000,-0.4500,-0.7500*
1,1,0.1000,-0.4500,0.7500*
1,1,0.1000,0.4500,0.7500*
%
%ADD115ROUNDEDRECTD115*%
%ADD116R,0.8000X0.9000*%
%ADD117R,2.8000X1.0000*%
%ADD118R,1.7000X0.6000*%
%ADD119R,0.6096X0.4064*%
G04:AMPARAMS|DCode=120|XSize=0.55mm|YSize=0.25mm|CornerRadius=0.05mm|HoleSize=0mm|Usage=FLASHONLY|Rotation=180.000|XOffset=0mm|YOffset=0mm|HoleType=Round|Shape=RoundedRectangle|*
%AMROUNDEDRECTD120*
21,1,0.5500,0.1500,0,0,180.0*
21,1,0.4500,0.2500,0,0,180.0*
1,1,0.1000,-0.2250,0.0750*
1,1,0.1000,0.2250,0.0750*
1,1,0.1000,0.2250,-0.0750*
1,1,0.1000,-0.2250,-0.0750*
%
%ADD120ROUNDEDRECTD120*%
G04:AMPARAMS|DCode=121|XSize=0.9mm|YSize=0.25mm|CornerRadius=0.05mm|HoleSize=0mm|Usage=FLASHONLY|Rotation=0.000|XOffset=0mm|YOffset=0mm|HoleType=Round|Shape=RoundedRectangle|*
%AMROUNDEDRECTD121*
21,1,0.9000,0.1500,0,0,0.0*
21,1,0.8000,0.2500,0,0,0.0*
1,1,0.1000,0.4000,-0.0750*
1,1,0.1000,-0.4000,-0.0750*
1,1,0.1000,-0.4000,0.0750*
1,1,0.1000,0.4000,0.0750*
%
%ADD121ROUNDEDRECTD121*%
G04:AMPARAMS|DCode=122|XSize=1.3mm|YSize=0.25mm|CornerRadius=0.05mm|HoleSize=0mm|Usage=FLASHONLY|Rotation=0.000|XOffset=0mm|YOffset=0mm|HoleType=Round|Shape=RoundedRectangle|*
%AMROUNDEDRECTD122*
21,1,1.3000,0.1500,0,0,0.0*
21,1,1.2000,0.2500,0,0,0.0*
1,1,0.1000,0.6000,-0.0750*
1,1,0.1000,-0.6000,-0.0750*
1,1,0.1000,-0.6000,0.0750*
1,1,0.1000,0.6000,0.0750*
%
%ADD122ROUNDEDRECTD122*%
G04:AMPARAMS|DCode=123|XSize=0.6mm|YSize=0.25mm|CornerRadius=0.05mm|HoleSize=0mm|Usage=FLASHONLY|Rotation=0.000|XOffset=0mm|YOffset=0mm|HoleType=Round|Shape=RoundedRectangle|*
%AMROUNDEDRECTD123*
21,1,0.6000,0.1500,0,0,0.0*
21,1,0.5000,0.2500,0,0,0.0*
1,1,0.1000,0.2500,-0.0750*
1,1,0.1000,-0.2500,-0.0750*
1,1,0.1000,-0.2500,0.0750*
1,1,0.1000,0.2500,0.0750*
%
%ADD123ROUNDEDRECTD123*%
%ADD124R,0.3000X0.2800*%
%ADD125R,0.7493X0.5004*%
%ADD126R,0.2800X0.3000*%
%ADD127R,0.8500X0.8500*%
%ADD128C,0.1778*%
%ADD129C,0.3810*%
%ADD130R,0.6609X1.0940*%
%ADD131R,0.9463X0.6892*%
%ADD132R,0.8932X0.9243*%
%ADD133R,0.5467X0.8367*%
%ADD134R,0.5171X0.9019*%
%ADD135R,0.5029X0.6940*%
%ADD136R,0.5784X0.7651*%
%ADD137R,0.6121X0.2370*%
%ADD138R,0.8250X0.2500*%
%ADD139R,2.5190X0.6940*%
%ADD140R,1.6577X1.0453*%
%ADD141R,1.1930X1.0061*%
%ADD142R,0.6455X1.1212*%
%ADD143R,0.8643X0.4843*%
%ADD144R,0.8697X0.8150*%
G36*
X360000Y446002D02*
X358825Y444768D01*
X357384D01*
X357245Y444796D01*
X353752D01*
X353067Y445481D01*
X352478Y445874D01*
X351785Y446012D01*
X351182D01*
X350681Y446513D01*
Y447116D01*
X350543Y447810D01*
X350169Y448369D01*
Y452668D01*
X343633D01*
X342984Y452668D01*
Y452668D01*
X342146Y452579D01*
Y452579D01*
X340164D01*
X340088Y452646D01*
X339416Y454054D01*
X339416Y454104D01*
X341845Y456533D01*
X341845Y456533D01*
X342631Y457709D01*
X342907Y459096D01*
X342907Y459096D01*
Y462390D01*
X342631Y463777D01*
X341845Y464953D01*
X340668Y465739D01*
X339281Y466015D01*
X337893Y465739D01*
X336717Y464953D01*
X335931Y463777D01*
X335655Y462390D01*
Y460598D01*
X334630Y459573D01*
X334100D01*
X334100Y459573D01*
X332712Y459297D01*
X331536Y458511D01*
X328419Y455395D01*
X327633Y454218D01*
X327357Y452831D01*
X327357Y452831D01*
Y449325D01*
X327321Y449140D01*
X327357Y448955D01*
Y447149D01*
X325833Y446517D01*
X308188Y464162D01*
X308266Y464350D01*
Y465650D01*
X307769Y466850D01*
X306850Y467769D01*
X305650Y468266D01*
X304350D01*
X303150Y467769D01*
X302231Y466850D01*
X301734Y465650D01*
Y464350D01*
X302231Y463150D01*
X303150Y462231D01*
X304350Y461734D01*
X305490D01*
X328758Y438465D01*
X328182Y436886D01*
X327769Y436850D01*
X326850Y437769D01*
X325650Y438266D01*
X324350D01*
X323150Y437769D01*
X322231Y436850D01*
X321734Y435650D01*
Y434350D01*
X322231Y433150D01*
X322453Y432927D01*
X322113Y431136D01*
X322029Y431102D01*
X321110Y430183D01*
X320613Y428982D01*
Y427683D01*
X321110Y426482D01*
X322029Y425563D01*
X323230Y425066D01*
X323554D01*
X324651Y424669D01*
X324962Y423658D01*
Y423056D01*
X325442Y421896D01*
X326603Y421416D01*
X330787D01*
X331091Y420680D01*
X332010Y419761D01*
X333211Y419264D01*
X334510D01*
X335711Y419761D01*
X336090Y420140D01*
X337236Y420150D01*
X338462Y418897D01*
Y418056D01*
X338942Y416896D01*
X340103Y416416D01*
X344603D01*
X345763Y416896D01*
X346243Y418056D01*
Y419557D01*
X345763Y420717D01*
X344603Y421197D01*
X340316D01*
X339867Y421443D01*
X338971Y422379D01*
Y425234D01*
X340103Y426416D01*
X343469D01*
X343951Y425934D01*
X344539Y425541D01*
X344883Y425472D01*
X345449Y424907D01*
Y423898D01*
X345587Y423204D01*
X345980Y422616D01*
X348955Y419640D01*
X349543Y419247D01*
X350237Y419109D01*
X350371D01*
Y415316D01*
X357127D01*
Y418873D01*
X357852Y419195D01*
X358116Y419247D01*
X358406Y419441D01*
X358497Y419482D01*
X360000Y419046D01*
Y384637D01*
X358753Y383804D01*
X358476Y383751D01*
X357935Y383858D01*
X350983D01*
X349971Y384871D01*
Y390514D01*
X342785D01*
Y389110D01*
X341205D01*
Y390737D01*
X338148D01*
X337517Y392261D01*
X339157Y393900D01*
X345387D01*
X346165Y394222D01*
X346487Y395000D01*
Y405061D01*
X346165Y405839D01*
X345387Y406161D01*
X333458D01*
X332680Y405839D01*
X332358Y405061D01*
Y397571D01*
X331772Y397455D01*
X330596Y396669D01*
X327479Y393552D01*
X326693Y392376D01*
X326417Y390988D01*
X326417Y390988D01*
Y387482D01*
X326397Y387382D01*
X325726Y386940D01*
X324893Y386731D01*
X317311Y394313D01*
Y396171D01*
X317276Y396346D01*
Y398605D01*
X311229D01*
X310091Y398605D01*
X308567Y398605D01*
X306813D01*
Y405578D01*
X306850Y405594D01*
X307769Y406513D01*
X308266Y407713D01*
Y409013D01*
X307769Y410214D01*
X306850Y411132D01*
X305650Y411630D01*
X304350D01*
X303150Y411132D01*
X302231Y410214D01*
X301734Y409013D01*
Y407713D01*
X302231Y406513D01*
X303150Y405594D01*
X303187Y405578D01*
Y398605D01*
X302519D01*
Y391848D01*
X308567D01*
X309705Y391848D01*
X311229Y391848D01*
X314648D01*
X327238Y379258D01*
X326375Y377966D01*
X325650Y378266D01*
X324350D01*
X323150Y377769D01*
X322231Y376850D01*
X321734Y375650D01*
Y374350D01*
X322231Y373150D01*
X323150Y372231D01*
X324295Y371756D01*
X324801Y370388D01*
X324597Y370232D01*
X324309Y370112D01*
X323390Y369193D01*
X322893Y367993D01*
Y366693D01*
X323390Y365493D01*
X324309Y364574D01*
X324969Y364300D01*
X324511Y363196D01*
Y361696D01*
X324992Y360535D01*
X326152Y360055D01*
X327755D01*
X328638Y359879D01*
X330847D01*
X331143Y359583D01*
Y355029D01*
X331465Y354252D01*
X332243Y353929D01*
X333533D01*
X333706Y353757D01*
X334906Y353260D01*
X336206D01*
X337406Y353757D01*
X337579Y353929D01*
X337710D01*
X338487Y354252D01*
X339652Y355055D01*
X344152D01*
X345312Y355535D01*
X345793Y356696D01*
Y358196D01*
X345312Y359356D01*
X344152Y359837D01*
X339652D01*
X338810Y360400D01*
Y363397D01*
X338631Y363828D01*
X339560Y365093D01*
X339652Y365055D01*
X343019D01*
X343501Y364573D01*
X344089Y364180D01*
X344433Y364111D01*
X344998Y363546D01*
Y362537D01*
X345136Y361843D01*
X345529Y361255D01*
X348999Y357785D01*
X349587Y357392D01*
X350281Y357254D01*
X351288D01*
Y354366D01*
X358045D01*
Y356627D01*
X358556Y356805D01*
X360000Y355693D01*
Y308329D01*
X358476Y308026D01*
X357715Y309864D01*
X356022Y311556D01*
X353811Y312472D01*
X351418D01*
X349207Y311556D01*
X347515Y309864D01*
X346599Y307652D01*
Y305259D01*
X347515Y303048D01*
X349207Y301356D01*
X351418Y300440D01*
X353811D01*
X356022Y301356D01*
X357715Y303048D01*
X358476Y304886D01*
X360000Y304583D01*
Y278800D01*
X358476Y278497D01*
X357837Y280039D01*
X356145Y281731D01*
X353934Y282647D01*
X351541D01*
X349329Y281731D01*
X347637Y280039D01*
X346721Y277828D01*
Y275434D01*
X347637Y273223D01*
X349329Y271531D01*
X351541Y270615D01*
X353934D01*
X356145Y271531D01*
X357837Y273223D01*
X358476Y274765D01*
X360000Y274462D01*
Y5000D01*
X116588D01*
X115957Y6524D01*
X150258Y40825D01*
X150651Y41413D01*
X150789Y42107D01*
Y46599D01*
X150651Y47293D01*
X150563Y47424D01*
X150464Y48907D01*
X150464Y48907D01*
X150464Y48907D01*
Y63944D01*
X140431D01*
Y48907D01*
X140687D01*
Y46806D01*
X140825Y46112D01*
X141218Y45524D01*
X141552Y45190D01*
X141300Y44583D01*
Y43284D01*
X141798Y42083D01*
X142716Y41164D01*
X143139Y40989D01*
X143564Y39259D01*
X136391Y32085D01*
X134867Y32717D01*
Y48907D01*
X135452D01*
Y63944D01*
X134313D01*
Y70172D01*
X134594Y70453D01*
X134987Y71041D01*
X135125Y71735D01*
Y75616D01*
X135259Y76288D01*
Y80871D01*
X139076Y84687D01*
X140806Y84262D01*
X140981Y83839D01*
X141900Y82921D01*
X143100Y82423D01*
X144400D01*
X145600Y82921D01*
X146519Y83839D01*
X147016Y85040D01*
Y86340D01*
X146519Y87540D01*
X145600Y88459D01*
X145088Y88671D01*
X144310Y89549D01*
X144169Y90480D01*
X144177Y90521D01*
X145418Y91762D01*
X147968D01*
X148662Y91900D01*
X149250Y92293D01*
X150761Y93805D01*
X151011Y93822D01*
X152470Y93358D01*
X152740Y92707D01*
X153659Y91788D01*
X154859Y91290D01*
X156159D01*
X157359Y91788D01*
X158278Y92707D01*
X158776Y93907D01*
Y95207D01*
X158278Y96407D01*
X157359Y97326D01*
X156708Y97596D01*
X156244Y99055D01*
X156262Y99305D01*
X157234Y100278D01*
X157445Y100296D01*
X158943Y99831D01*
X159203Y99204D01*
X160122Y98285D01*
X161323Y97787D01*
X162622D01*
X163823Y98285D01*
X164240Y98702D01*
X165316Y98982D01*
X166164Y98654D01*
X166648Y98170D01*
X167848Y97673D01*
X169148D01*
X170348Y98170D01*
X170640Y98462D01*
X172224Y98420D01*
X172789Y97219D01*
X172613Y96737D01*
X172288Y96412D01*
X171791Y95211D01*
Y93912D01*
X172288Y92711D01*
X173207Y91792D01*
X174407Y91295D01*
X175707D01*
X176907Y91792D01*
X177364Y92249D01*
X178374Y92528D01*
X179275Y92227D01*
X179763Y91740D01*
X180963Y91242D01*
X182263D01*
X183463Y91740D01*
X184382Y92658D01*
X184879Y93859D01*
Y95158D01*
X184382Y96359D01*
X183904Y96837D01*
X183563Y97665D01*
X183846Y98769D01*
X184242Y99165D01*
X184739Y100366D01*
Y101665D01*
X184242Y102866D01*
X183323Y103785D01*
X182122Y104282D01*
X180823D01*
X179622Y103785D01*
X179177Y103339D01*
X178281Y102993D01*
X177237Y103307D01*
X176836Y103709D01*
X175635Y104206D01*
X174336D01*
X173135Y103709D01*
X172712Y103285D01*
X171742Y102952D01*
X170788Y103279D01*
X170472Y104148D01*
X170763Y105187D01*
X171191Y105615D01*
X171688Y106815D01*
Y108115D01*
X171191Y109315D01*
X170272Y110234D01*
X169071Y110731D01*
X167772D01*
X166571Y110234D01*
X166166Y109829D01*
X165700Y109650D01*
X165303Y109960D01*
X165062Y111384D01*
X165062D01*
Y112858D01*
X165262Y113341D01*
Y114640D01*
X165062Y115123D01*
Y116416D01*
X165039D01*
X164194Y117801D01*
X164330Y118208D01*
X164764Y118643D01*
X165262Y119843D01*
Y121143D01*
X164764Y122343D01*
X163846Y123262D01*
X162645Y123759D01*
X161346D01*
X160145Y123262D01*
X159764Y122881D01*
X159080D01*
Y121991D01*
X158729Y121143D01*
Y119843D01*
X159080Y118995D01*
Y117849D01*
X159095D01*
X159692Y116370D01*
X159660Y116275D01*
X159226Y115841D01*
X158729Y114640D01*
Y113341D01*
X159226Y112140D01*
X159640Y111727D01*
X159580Y110197D01*
X158288Y109599D01*
X157759Y109780D01*
X157335Y110204D01*
X156135Y110701D01*
X154835D01*
X153635Y110204D01*
X152716Y109285D01*
X152219Y108084D01*
Y106800D01*
X143727Y98309D01*
X143457D01*
X142763Y98171D01*
X142175Y97778D01*
X139573Y95176D01*
X137807Y95456D01*
X136888Y96374D01*
X135688Y96872D01*
X134388D01*
X133188Y96374D01*
X133043Y96230D01*
X132133Y95542D01*
X131052Y96230D01*
X130991Y96291D01*
X130972Y96299D01*
X130585Y97874D01*
X131405Y98856D01*
X131496D01*
X132189Y98995D01*
X132777Y99388D01*
X138238Y104848D01*
X138631Y105436D01*
X138769Y106130D01*
Y107441D01*
X143167Y111840D01*
X146406D01*
Y111227D01*
X147067D01*
X147086Y111208D01*
X148287Y110710D01*
X149586D01*
X150787Y111208D01*
X150807Y111227D01*
X151438D01*
Y111859D01*
X151706Y112127D01*
X152203Y113327D01*
Y114627D01*
X151706Y115827D01*
X151238Y116295D01*
X150954Y117273D01*
X151248Y118205D01*
X151728Y118686D01*
X152226Y119886D01*
Y121186D01*
X151728Y122386D01*
X150810Y123305D01*
X149609Y123802D01*
X148310D01*
X147109Y123305D01*
X146190Y122386D01*
X145693Y121186D01*
Y119886D01*
X146190Y118686D01*
X146658Y118218D01*
X146943Y117240D01*
X146648Y116308D01*
X146168Y115827D01*
X146018Y115465D01*
X142417D01*
X141723Y115327D01*
X141135Y114934D01*
X135674Y109474D01*
X135281Y108886D01*
X135143Y108192D01*
Y106881D01*
X130745Y102482D01*
X130052D01*
X129358Y102344D01*
X128770Y101951D01*
X123449Y96630D01*
X123414Y96577D01*
X116977D01*
Y85545D01*
X117021D01*
X117923Y84021D01*
X117734Y83563D01*
Y82264D01*
X118231Y81063D01*
X118783Y79796D01*
X117864Y78878D01*
X117441Y78179D01*
X115959Y78161D01*
X115745Y78375D01*
X114568Y79161D01*
X113181Y79437D01*
X111793Y79161D01*
X110617Y78375D01*
X110359Y77988D01*
X110140D01*
Y77660D01*
X109831Y77198D01*
X109555Y75811D01*
X109831Y74423D01*
X110140Y73962D01*
Y71231D01*
X110331D01*
Y67539D01*
X81882D01*
X81698Y67502D01*
X78192D01*
X76804Y67226D01*
X75628Y66440D01*
X75628Y66440D01*
X72402Y63215D01*
X71617Y62039D01*
X71340Y60651D01*
X71340Y60651D01*
Y41469D01*
X71340Y41469D01*
X71617Y40081D01*
X72402Y38905D01*
X75006Y36301D01*
X75006Y36301D01*
X76182Y35515D01*
X77570Y35239D01*
X78148D01*
Y31634D01*
X78131D01*
Y29513D01*
X78098Y29464D01*
X77822Y28077D01*
X78098Y26689D01*
X78131Y26641D01*
X78131Y24448D01*
X78131Y22924D01*
Y16877D01*
X82538D01*
X92891Y6524D01*
X92260Y5000D01*
X5000D01*
Y427600D01*
X5423Y427949D01*
X6524Y428432D01*
X7381Y428077D01*
X8680D01*
X9881Y428575D01*
X10800Y429493D01*
X11297Y430694D01*
Y431993D01*
X10800Y433194D01*
X9881Y434113D01*
X8680Y434610D01*
X7381D01*
X6524Y434255D01*
X5423Y434738D01*
X5000Y435088D01*
Y440160D01*
X6352Y441250D01*
X7651D01*
X8852Y441747D01*
X9771Y442666D01*
X10268Y443867D01*
Y445166D01*
X9771Y446367D01*
X8852Y447285D01*
X7651Y447783D01*
X6352D01*
X5000Y448872D01*
Y453903D01*
X6524Y454873D01*
X6866Y454731D01*
X8166D01*
X9366Y455229D01*
X10285Y456147D01*
X10782Y457348D01*
Y458647D01*
X10285Y459848D01*
X9366Y460767D01*
X8166Y461264D01*
X6866D01*
X6524Y461122D01*
X5000Y462092D01*
Y467486D01*
X5164Y467675D01*
X6524Y468379D01*
X7175Y468110D01*
X8475D01*
X9675Y468607D01*
X10594Y469526D01*
X11091Y470726D01*
Y472026D01*
X10594Y473226D01*
X9675Y474145D01*
X8475Y474642D01*
X7175D01*
X6524Y474373D01*
X5164Y475077D01*
X5000Y475266D01*
Y481289D01*
X6524Y482132D01*
X7084Y481900D01*
X8383D01*
X9584Y482397D01*
X10503Y483316D01*
X11000Y484516D01*
Y485816D01*
X10503Y487016D01*
X9584Y487935D01*
X8383Y488433D01*
X7084D01*
X6524Y488201D01*
X5000Y489043D01*
Y555360D01*
X360000D01*
Y446002D01*
D02*
G37*
G36*
X126996Y48319D02*
X127388Y47731D01*
X128320Y46799D01*
Y44648D01*
X126799Y43127D01*
X124648D01*
X122429Y45346D01*
Y46807D01*
X122314Y47383D01*
X122328Y47560D01*
X123184Y48907D01*
X126879D01*
X126996Y48319D01*
D02*
G37*
G36*
X114232Y48806D02*
X114820Y48413D01*
X115514Y48275D01*
X116584D01*
X118803Y46056D01*
Y44595D01*
X118941Y43902D01*
X119334Y43313D01*
X122615Y40032D01*
X123203Y39639D01*
X123897Y39501D01*
X127550D01*
X128244Y39639D01*
X128832Y40032D01*
X129833Y41034D01*
X131241Y40450D01*
Y32243D01*
X116584Y17585D01*
X96307D01*
X94410Y19482D01*
Y49107D01*
X94272Y49801D01*
X93879Y50389D01*
X92987Y51282D01*
X92399Y51675D01*
X91705Y51813D01*
X86473D01*
X85437Y52623D01*
X85372Y53005D01*
X86211Y54529D01*
X108509D01*
X114232Y48806D01*
D02*
G37*
%LPC*%
G36*
X73415Y515986D02*
X66230D01*
Y509229D01*
X73415D01*
Y515986D01*
D02*
G37*
G36*
X88786Y515498D02*
X87487D01*
X86286Y515001D01*
X85367Y514082D01*
X84870Y512881D01*
Y511582D01*
X85367Y510381D01*
X86286Y509463D01*
X87487Y508965D01*
X88786D01*
X89987Y509463D01*
X90906Y510381D01*
X91403Y511582D01*
Y512881D01*
X90906Y514082D01*
X89987Y515001D01*
X88786Y515498D01*
D02*
G37*
G36*
X97856Y515436D02*
X96556D01*
X95356Y514939D01*
X94437Y514020D01*
X93940Y512820D01*
Y511520D01*
X94437Y510320D01*
X95356Y509401D01*
X96556Y508903D01*
X97856D01*
X99056Y509401D01*
X99975Y510320D01*
X100473Y511520D01*
Y512820D01*
X99975Y514020D01*
X99056Y514939D01*
X97856Y515436D01*
D02*
G37*
G36*
X302516Y517016D02*
X288484D01*
Y502984D01*
X302516D01*
Y517016D01*
D02*
G37*
G36*
X18051Y508191D02*
X16751D01*
X15551Y507693D01*
X14632Y506775D01*
X14135Y505574D01*
Y504275D01*
X14632Y503074D01*
X15551Y502155D01*
X16751Y501658D01*
X18051D01*
X19251Y502155D01*
X20170Y503074D01*
X20668Y504275D01*
Y505574D01*
X20170Y506775D01*
X19251Y507693D01*
X18051Y508191D01*
D02*
G37*
G36*
X11150Y496516D02*
X9850D01*
X8650Y496019D01*
X7731Y495100D01*
X7234Y493900D01*
Y492600D01*
X7731Y491400D01*
X8650Y490481D01*
X9850Y489984D01*
X11150D01*
X12350Y490481D01*
X13269Y491400D01*
X13766Y492600D01*
Y493900D01*
X13269Y495100D01*
X12350Y496019D01*
X11150Y496516D01*
D02*
G37*
G36*
X52432Y503183D02*
X45675D01*
Y497136D01*
X45675Y495998D01*
X45675Y494474D01*
Y492699D01*
X44476Y492202D01*
X43557Y491284D01*
X43060Y490083D01*
Y488784D01*
X43557Y487583D01*
X44476Y486664D01*
X45676Y486167D01*
X46976D01*
X48176Y486664D01*
X49095Y487583D01*
X49444Y488426D01*
X52432D01*
Y494474D01*
X52432Y495612D01*
X52839Y496967D01*
X53337Y497465D01*
X53834Y498665D01*
Y499965D01*
X53337Y501165D01*
X52432Y502070D01*
Y503183D01*
D02*
G37*
G36*
X90027Y480779D02*
X88728D01*
X87527Y480281D01*
X86608Y479362D01*
X86111Y478162D01*
Y476862D01*
X86292Y476426D01*
X85647Y475543D01*
X85263Y475016D01*
X84872Y475016D01*
X66984D01*
Y466984D01*
X82143D01*
X82918Y465460D01*
X82595Y465016D01*
X66984D01*
Y456984D01*
X86016D01*
Y462452D01*
X90659Y467095D01*
X91052Y467683D01*
X91190Y468377D01*
Y474728D01*
X91228Y474743D01*
X92146Y475662D01*
X92162Y475699D01*
X96152D01*
Y473779D01*
X103337D01*
Y480535D01*
X96152D01*
Y479325D01*
X92162D01*
X92146Y479362D01*
X91228Y480281D01*
X90027Y480779D01*
D02*
G37*
G36*
X135650Y478266D02*
X134350D01*
X133150Y477769D01*
X132231Y476850D01*
X131734Y475650D01*
Y474350D01*
X132231Y473150D01*
X133150Y472231D01*
X134350Y471734D01*
X135650D01*
X136850Y472231D01*
X137769Y473150D01*
X138266Y474350D01*
Y475650D01*
X137769Y476850D01*
X136850Y477769D01*
X135650Y478266D01*
D02*
G37*
G36*
X251411Y474065D02*
X250112D01*
X248911Y473568D01*
X247992Y472649D01*
X247495Y471448D01*
Y470149D01*
X247992Y468948D01*
X248911Y468029D01*
X250112Y467532D01*
X251411D01*
X252612Y468029D01*
X253530Y468948D01*
X254028Y470149D01*
Y471448D01*
X253530Y472649D01*
X252612Y473568D01*
X251411Y474065D01*
D02*
G37*
G36*
X20900Y473766D02*
X19600D01*
X18400Y473269D01*
X17481Y472350D01*
X16984Y471150D01*
Y469850D01*
X17481Y468650D01*
X18400Y467731D01*
X19600Y467234D01*
X20900D01*
X22100Y467731D01*
X23019Y468650D01*
X23516Y469850D01*
Y471150D01*
X23019Y472350D01*
X22100Y473269D01*
X20900Y473766D01*
D02*
G37*
G36*
X121650Y470516D02*
X120350D01*
X119150Y470019D01*
X118231Y469100D01*
X117734Y467900D01*
Y466600D01*
X118231Y465400D01*
X119150Y464481D01*
X120350Y463984D01*
X121650D01*
X122850Y464481D01*
X123769Y465400D01*
X124267Y466600D01*
Y467900D01*
X123769Y469100D01*
X122850Y470019D01*
X121650Y470516D01*
D02*
G37*
G36*
X209400Y467267D02*
X208100D01*
X206900Y466769D01*
X205981Y465850D01*
X205484Y464650D01*
Y463350D01*
X205981Y462150D01*
X206900Y461231D01*
X208100Y460734D01*
X209400D01*
X210600Y461231D01*
X211519Y462150D01*
X212016Y463350D01*
Y464650D01*
X211519Y465850D01*
X210600Y466769D01*
X209400Y467267D01*
D02*
G37*
G36*
X30650Y464016D02*
X29350D01*
X28150Y463519D01*
X27231Y462600D01*
X26734Y461400D01*
Y460100D01*
X27231Y458900D01*
X28150Y457981D01*
X29350Y457484D01*
X30650D01*
X31850Y457981D01*
X32769Y458900D01*
X33266Y460100D01*
Y461400D01*
X32769Y462600D01*
X31850Y463519D01*
X30650Y464016D01*
D02*
G37*
G36*
X198596Y463238D02*
X197296D01*
X196096Y462741D01*
X195177Y461822D01*
X194679Y460621D01*
Y459322D01*
X195177Y458121D01*
X196096Y457202D01*
X197296Y456705D01*
X198596D01*
X199796Y457202D01*
X200715Y458121D01*
X201212Y459322D01*
Y460621D01*
X200715Y461822D01*
X199796Y462741D01*
X198596Y463238D01*
D02*
G37*
G36*
X50150Y450440D02*
X48850D01*
X47650Y449943D01*
X46731Y449024D01*
X46234Y447823D01*
Y446524D01*
X46731Y445323D01*
X47650Y444404D01*
X48850Y443907D01*
X50150D01*
X51350Y444404D01*
X52269Y445323D01*
X52766Y446524D01*
Y447823D01*
X52269Y449024D01*
X51350Y449943D01*
X50150Y450440D01*
D02*
G37*
G36*
X112292Y447575D02*
X110992D01*
X109792Y447078D01*
X108873Y446159D01*
X108376Y444958D01*
Y444412D01*
X107336Y443372D01*
X105402D01*
Y443925D01*
X100176D01*
X100120Y443925D01*
X98652D01*
X98596Y443925D01*
X93370D01*
Y443372D01*
X90587D01*
X89893Y443234D01*
X89432Y442926D01*
X86016D01*
Y445016D01*
X66984D01*
Y436984D01*
X86016D01*
Y439300D01*
X90141D01*
X90835Y439438D01*
X91295Y439746D01*
X93370D01*
Y439193D01*
X98596D01*
X98707Y439193D01*
X100120Y437669D01*
X100120Y433925D01*
X98652D01*
X98596Y433925D01*
X93370D01*
Y433372D01*
X86016D01*
Y435016D01*
X66984D01*
Y426984D01*
X86016D01*
Y429746D01*
X93370D01*
Y429193D01*
X98596D01*
X98652Y429193D01*
X100120D01*
X100176Y429193D01*
X101860D01*
X101981Y428902D01*
X102900Y427983D01*
X104100Y427486D01*
X105400D01*
X106600Y427983D01*
X107519Y428902D01*
X108016Y430103D01*
Y431402D01*
X107519Y432603D01*
X107476Y432646D01*
X107458Y432831D01*
X107923Y434355D01*
X108535Y434608D01*
X109454Y435527D01*
X109951Y436727D01*
Y438027D01*
X109454Y439227D01*
X109282Y439399D01*
X109369Y440277D01*
X110385Y441294D01*
X110992Y441042D01*
X112292D01*
X113492Y441540D01*
X114411Y442458D01*
X114908Y443659D01*
Y444958D01*
X114411Y446159D01*
X113492Y447078D01*
X112292Y447575D01*
D02*
G37*
G36*
X20900Y447766D02*
X19600D01*
X18400Y447269D01*
X17481Y446350D01*
X16984Y445150D01*
Y443850D01*
X17481Y442650D01*
X18400Y441731D01*
X19600Y441234D01*
X20900D01*
X22100Y441731D01*
X23019Y442650D01*
X23516Y443850D01*
Y445150D01*
X23019Y446350D01*
X22100Y447269D01*
X20900Y447766D01*
D02*
G37*
G36*
X182086Y455333D02*
X180786D01*
X179586Y454835D01*
X178667Y453917D01*
X178169Y452716D01*
Y451417D01*
X178667Y450216D01*
X179528Y449354D01*
X179585Y449297D01*
X180617Y448301D01*
X180648Y447858D01*
X179512Y446922D01*
X179480Y446909D01*
X178561Y445990D01*
X178064Y444789D01*
Y443490D01*
X178561Y442289D01*
X179480Y441370D01*
X180680Y440873D01*
X181980D01*
X183180Y441370D01*
X184099Y442289D01*
X184596Y443490D01*
Y444789D01*
X184099Y445990D01*
X183238Y446851D01*
X183180Y446909D01*
X182149Y447905D01*
X182117Y448348D01*
X183254Y449284D01*
X183286Y449297D01*
X184205Y450216D01*
X184702Y451417D01*
Y452716D01*
X184205Y453917D01*
X183286Y454835D01*
X182086Y455333D01*
D02*
G37*
G36*
X149289Y445868D02*
X147990D01*
X146789Y445371D01*
X145870Y444452D01*
X145373Y443251D01*
Y441952D01*
X145870Y440751D01*
X146789Y439832D01*
X147990Y439335D01*
X149289D01*
X150490Y439832D01*
X151409Y440751D01*
X151906Y441952D01*
Y443251D01*
X151409Y444452D01*
X150490Y445371D01*
X149289Y445868D01*
D02*
G37*
G36*
X130516Y442516D02*
X119484D01*
Y432984D01*
X130516D01*
Y442516D01*
D02*
G37*
G36*
X272029Y462495D02*
X270729D01*
X270288Y462312D01*
X268606D01*
X267828Y461990D01*
X267506Y461213D01*
Y455950D01*
X266529Y455298D01*
X266529Y455298D01*
X256453Y445222D01*
X254565D01*
Y443100D01*
X254533Y443052D01*
X254257Y441664D01*
X254533Y440277D01*
X254565Y440229D01*
X254565Y438036D01*
X254565Y436512D01*
Y430465D01*
X256131D01*
Y427871D01*
X252651D01*
Y420686D01*
X259408D01*
Y425704D01*
X259443Y425879D01*
Y426029D01*
X259618Y426292D01*
X259756Y426986D01*
Y430465D01*
X261322D01*
Y432280D01*
X263057D01*
X263750Y432418D01*
X264338Y432811D01*
X264714Y433187D01*
X267299D01*
X267340Y433090D01*
X268500Y432609D01*
X273500D01*
X274660Y433090D01*
X275026Y433972D01*
X276031Y434389D01*
X276665Y434488D01*
X277741Y433411D01*
X278918Y432625D01*
X279174Y432574D01*
X280225Y432139D01*
X281524D01*
X282725Y432636D01*
X282933Y432844D01*
X283500Y432609D01*
X291500D01*
X292660Y433090D01*
X293141Y434250D01*
Y435750D01*
X292660Y436910D01*
Y438090D01*
X292660Y438090D01*
X293141Y439250D01*
Y440750D01*
X292803Y441567D01*
Y444843D01*
X292481Y445621D01*
X291703Y445943D01*
X288438D01*
X288350Y446387D01*
X287564Y447564D01*
X279830Y455298D01*
X278654Y456084D01*
X277266Y456360D01*
X276160Y457314D01*
Y461213D01*
X275838Y461990D01*
X275060Y462312D01*
X272470D01*
X272029Y462495D01*
D02*
G37*
G36*
X222132Y463415D02*
X220833D01*
X219632Y462918D01*
X218917Y462203D01*
X218391D01*
X217613Y461881D01*
X217291Y461103D01*
Y456388D01*
X216308Y455404D01*
X215588Y454924D01*
X215588Y454924D01*
X206421Y445756D01*
X204533D01*
Y442893D01*
X204402Y442236D01*
X204533Y441579D01*
X204533Y438571D01*
X204533Y437047D01*
Y431000D01*
X204533D01*
X204871Y430184D01*
X204218Y429532D01*
X203825Y428944D01*
X203732Y428474D01*
X202134D01*
Y421288D01*
X208891D01*
Y428474D01*
X208891Y428474D01*
X209435Y429772D01*
X209525Y429907D01*
X209663Y430600D01*
Y431000D01*
X211290D01*
Y432815D01*
X212674D01*
X213367Y432953D01*
X213718Y433187D01*
X217299D01*
X217340Y433090D01*
X218500Y432609D01*
X223500D01*
X224660Y433090D01*
X225141Y434250D01*
Y434447D01*
X225812Y434846D01*
X226665Y435015D01*
X227491Y434189D01*
X227525Y434018D01*
X228311Y432842D01*
X229487Y432056D01*
X230875Y431780D01*
X232262Y432056D01*
X233247Y432714D01*
X233500Y432609D01*
X241500D01*
X242660Y433090D01*
X243141Y434250D01*
Y435750D01*
X242660Y436910D01*
Y438090D01*
X242660Y438090D01*
X243141Y439250D01*
Y440750D01*
X243135Y440765D01*
Y446157D01*
X242812Y446934D01*
X242035Y447256D01*
X237769D01*
X237564Y447564D01*
X230203Y454924D01*
X229027Y455710D01*
X227640Y455986D01*
X227640Y455986D01*
X226502D01*
X226100Y456388D01*
Y461103D01*
X225778Y461881D01*
X225000Y462203D01*
X224048D01*
X223333Y462918D01*
X222132Y463415D01*
D02*
G37*
G36*
X148831Y437362D02*
X147532D01*
X146331Y436865D01*
X145412Y435946D01*
X144915Y434745D01*
Y433446D01*
X145412Y432245D01*
X146331Y431326D01*
X147532Y430829D01*
X148831D01*
X150032Y431326D01*
X150951Y432245D01*
X151448Y433446D01*
Y434745D01*
X150951Y435946D01*
X150032Y436865D01*
X148831Y437362D01*
D02*
G37*
G36*
X183400Y434766D02*
X182100D01*
X180900Y434269D01*
X179981Y433350D01*
X179484Y432150D01*
Y430850D01*
X179981Y429650D01*
X180900Y428731D01*
X182100Y428234D01*
X183400D01*
X184600Y428731D01*
X185519Y429650D01*
X186016Y430850D01*
Y432150D01*
X185519Y433350D01*
X184600Y434269D01*
X183400Y434766D01*
D02*
G37*
G36*
X18837Y434212D02*
X17538D01*
X16337Y433714D01*
X15418Y432796D01*
X14921Y431595D01*
Y430296D01*
X15418Y429095D01*
X16337Y428176D01*
X17538Y427679D01*
X18837D01*
X20038Y428176D01*
X20957Y429095D01*
X21454Y430296D01*
Y431595D01*
X20957Y432796D01*
X20038Y433714D01*
X18837Y434212D01*
D02*
G37*
G36*
X135650Y433266D02*
X134350D01*
X133150Y432769D01*
X132231Y431850D01*
X131734Y430650D01*
Y429350D01*
X132231Y428150D01*
X133150Y427231D01*
X134350Y426734D01*
X135650D01*
X136850Y427231D01*
X137769Y428150D01*
X138266Y429350D01*
Y430650D01*
X137769Y431850D01*
X136850Y432769D01*
X135650Y433266D01*
D02*
G37*
G36*
X230629Y428117D02*
X229241Y427841D01*
X228065Y427055D01*
X225461Y424451D01*
X224675Y423275D01*
X224618Y422989D01*
X223500Y422391D01*
X218500D01*
X217340Y421910D01*
X217280Y421766D01*
X217172D01*
X215971Y421269D01*
X215052Y420350D01*
X214555Y419150D01*
Y417850D01*
X215052Y416650D01*
X215971Y415731D01*
X217172Y415234D01*
X218471D01*
X219672Y415731D01*
X220591Y416650D01*
X220988Y417609D01*
X223500D01*
X224497Y418022D01*
X224675Y417927D01*
X225461Y416751D01*
X226637Y415965D01*
X228025Y415689D01*
X229412Y415965D01*
X230588Y416751D01*
X231029Y417410D01*
X231970Y417898D01*
X232913Y417852D01*
X233500Y417609D01*
X241331D01*
X241936Y417004D01*
X243136Y416507D01*
X244436D01*
X245636Y417004D01*
X246555Y417923D01*
X247052Y419124D01*
Y420423D01*
X246555Y421624D01*
X245636Y422542D01*
X244436Y423040D01*
X244289D01*
X243141Y424250D01*
Y425750D01*
X242660Y426910D01*
X241500Y427391D01*
X233500D01*
X233000Y427184D01*
X232016Y427841D01*
X230629Y428117D01*
D02*
G37*
G36*
X280875Y428220D02*
X279487Y427944D01*
X278311Y427158D01*
X275979Y424826D01*
X275193Y423650D01*
X275136Y423363D01*
X273500Y422391D01*
X268500D01*
X267340Y421910D01*
X267330Y421887D01*
X266191D01*
X264991Y421390D01*
X264072Y420471D01*
X263575Y419270D01*
Y417971D01*
X264072Y416770D01*
X264991Y415851D01*
X266191Y415354D01*
X267491D01*
X268691Y415851D01*
X269610Y416770D01*
X269958Y417609D01*
X273500D01*
X273543Y417627D01*
X275193Y417147D01*
X275979Y415971D01*
X277155Y415185D01*
X278542Y414909D01*
X279930Y415185D01*
X281106Y415971D01*
X281892Y417147D01*
X283500Y417609D01*
X290894D01*
X291510Y416993D01*
X292711Y416495D01*
X294010D01*
X295211Y416993D01*
X296129Y417911D01*
X296627Y419112D01*
Y420411D01*
X296129Y421612D01*
X295211Y422531D01*
X294010Y423028D01*
X293141Y424250D01*
Y425750D01*
X292660Y426910D01*
X291500Y427391D01*
X283500D01*
X283247Y427286D01*
X282262Y427944D01*
X280875Y428220D01*
D02*
G37*
G36*
X186650Y418516D02*
X185350D01*
X184150Y418019D01*
X183231Y417100D01*
X182734Y415900D01*
Y414600D01*
X183231Y413400D01*
X184150Y412481D01*
X185350Y411984D01*
X186650D01*
X187850Y412481D01*
X188769Y413400D01*
X189266Y414600D01*
Y415900D01*
X188769Y417100D01*
X187850Y418019D01*
X186650Y418516D01*
D02*
G37*
G36*
X105400Y421766D02*
X104100D01*
X102900Y421269D01*
X101981Y420350D01*
X101484Y419150D01*
Y417850D01*
X101981Y416650D01*
X102413Y416217D01*
X102738Y415250D01*
X102413Y414283D01*
X101981Y413850D01*
X101484Y412650D01*
Y411350D01*
X101981Y410150D01*
X102900Y409231D01*
X104100Y408734D01*
X105400D01*
X106600Y409231D01*
X107519Y410150D01*
X108016Y411350D01*
Y412650D01*
X107519Y413850D01*
X107087Y414283D01*
X106762Y415250D01*
X107087Y416217D01*
X107519Y416650D01*
X108016Y417850D01*
Y419150D01*
X107519Y420350D01*
X106600Y421269D01*
X105400Y421766D01*
D02*
G37*
G36*
X39890Y410939D02*
X32704D01*
Y404183D01*
X39890D01*
Y406138D01*
X40253Y407016D01*
Y408315D01*
X39890Y409193D01*
Y410939D01*
D02*
G37*
G36*
X113831Y407095D02*
X112532D01*
X111331Y406598D01*
X110412Y405679D01*
X109915Y404478D01*
Y403179D01*
X110412Y401978D01*
X111331Y401059D01*
X112532Y400562D01*
X113831D01*
X115032Y401059D01*
X115950Y401978D01*
X116448Y403179D01*
Y404478D01*
X115950Y405679D01*
X115032Y406598D01*
X113831Y407095D01*
D02*
G37*
G36*
X290000Y393626D02*
X290000Y393626D01*
X281266D01*
X281266Y393626D01*
X279878Y393350D01*
X278702Y392564D01*
X278702Y392564D01*
X268624Y382485D01*
X266883D01*
X266354Y382380D01*
X263529D01*
Y380259D01*
X263497Y380210D01*
X263221Y378823D01*
X263497Y377435D01*
X263529Y377387D01*
Y375195D01*
X263529D01*
Y374809D01*
X263529D01*
Y367623D01*
X263683D01*
Y365467D01*
X260779D01*
Y358281D01*
X267536D01*
Y365467D01*
X267309D01*
Y367623D01*
X270286D01*
Y368349D01*
X275826D01*
X275866Y368251D01*
X277027Y367770D01*
X282027D01*
X282375Y367915D01*
X283799Y368459D01*
X284577Y368137D01*
X287211D01*
X287551Y367798D01*
X288752Y367300D01*
X290051D01*
X290706Y367572D01*
X296027D01*
X297018Y367769D01*
X297020Y367770D01*
X300027D01*
X301187Y368251D01*
X301668Y369411D01*
Y370911D01*
X301187Y372072D01*
Y373251D01*
X301187Y373251D01*
X301668Y374411D01*
Y375911D01*
X301243Y376936D01*
Y382348D01*
X300921Y383126D01*
X300144Y383448D01*
X297866D01*
Y385759D01*
X297867Y385759D01*
X297591Y387147D01*
X296805Y388323D01*
X296805Y388323D01*
X292564Y392564D01*
X291388Y393350D01*
X290000Y393626D01*
D02*
G37*
G36*
X80650Y413266D02*
X79350D01*
X78150Y412769D01*
X77231Y411850D01*
X76734Y410650D01*
Y409350D01*
X77231Y408150D01*
X78150Y407231D01*
X79350Y406734D01*
X80650D01*
X80687Y406749D01*
X88187Y399249D01*
Y383544D01*
X86663Y382670D01*
X86158Y382879D01*
X84858D01*
X83658Y382382D01*
X82739Y381463D01*
X82242Y380262D01*
Y378963D01*
X82739Y377762D01*
X83658Y376843D01*
X84858Y376346D01*
X86158D01*
X87358Y376843D01*
X87954Y377058D01*
X89301Y376052D01*
Y374692D01*
X89439Y373998D01*
X89832Y373410D01*
X90734Y372508D01*
X90483Y371901D01*
Y370601D01*
X90980Y369401D01*
X91899Y368482D01*
X93099Y367985D01*
X94399D01*
X95599Y368482D01*
X96518Y369401D01*
X97015Y370601D01*
Y371901D01*
X96518Y373101D01*
X95599Y374020D01*
X94399Y374517D01*
X93852D01*
X92927Y375442D01*
Y377501D01*
X92789Y378195D01*
X92396Y378783D01*
X91813Y379366D01*
Y400000D01*
X91675Y400694D01*
X91282Y401282D01*
X83251Y409313D01*
X83266Y409350D01*
Y410650D01*
X82769Y411850D01*
X81850Y412769D01*
X80650Y413266D01*
D02*
G37*
G36*
X103740Y383801D02*
X102440D01*
X101240Y383303D01*
X100321Y382385D01*
X99824Y381184D01*
Y379885D01*
X100321Y378684D01*
X101240Y377765D01*
X102440Y377268D01*
X103740D01*
X104940Y377765D01*
X105859Y378684D01*
X106356Y379885D01*
Y381184D01*
X105859Y382385D01*
X104940Y383303D01*
X103740Y383801D01*
D02*
G37*
G36*
X215900Y386016D02*
X214600D01*
X213400Y385519D01*
X212481Y384600D01*
X211984Y383400D01*
Y382100D01*
X212481Y380900D01*
X212566Y380815D01*
Y379125D01*
X213045Y377969D01*
X213241Y377887D01*
X213376Y377122D01*
X213353Y376192D01*
X212593Y375431D01*
X212095Y374230D01*
Y372931D01*
X212593Y371730D01*
X213283Y371040D01*
X213276Y369914D01*
X213121Y369324D01*
X213045Y369292D01*
X212566Y368135D01*
Y366125D01*
X213045Y364969D01*
X213495Y364782D01*
X213543Y364666D01*
X214462Y363747D01*
X215663Y363250D01*
X216962D01*
X217385Y363425D01*
X218909Y362502D01*
Y338551D01*
X214309Y333951D01*
X214272Y333966D01*
X212972D01*
X211772Y333469D01*
X210853Y332550D01*
X210355Y331349D01*
Y330050D01*
X210853Y328849D01*
X211772Y327931D01*
X212972Y327433D01*
X214272D01*
X215472Y327931D01*
X216391Y328849D01*
X216888Y330050D01*
Y331349D01*
X216873Y331387D01*
X222004Y336518D01*
X222397Y337106D01*
X222535Y337800D01*
Y369615D01*
X222397Y370308D01*
X222004Y370896D01*
X219347Y373554D01*
Y374635D01*
X218868Y375792D01*
X218820Y375812D01*
X219123Y377336D01*
X224233D01*
X224486Y377231D01*
X225785D01*
X226986Y377728D01*
X227904Y378647D01*
X228402Y379847D01*
Y381147D01*
X227904Y382347D01*
X226986Y383266D01*
X225785Y383764D01*
X224486D01*
X223347Y383292D01*
X218517D01*
Y383400D01*
X218019Y384600D01*
X217100Y385519D01*
X215900Y386016D01*
D02*
G37*
G36*
X149487Y372170D02*
X148188D01*
X146987Y371672D01*
X146069Y370754D01*
X145571Y369553D01*
Y368253D01*
X146069Y367053D01*
X146987Y366134D01*
X148188Y365637D01*
X149487D01*
X150688Y366134D01*
X151607Y367053D01*
X152104Y368253D01*
Y369553D01*
X151607Y370754D01*
X150688Y371672D01*
X149487Y372170D01*
D02*
G37*
G36*
X174951Y377957D02*
X168194D01*
Y370772D01*
X174951D01*
Y372775D01*
X178373D01*
X179598Y372053D01*
X179598Y371251D01*
Y361021D01*
X180988D01*
Y346985D01*
X180457Y346189D01*
X180393Y345869D01*
X179457Y345481D01*
X177765Y343789D01*
X176849Y341578D01*
Y339184D01*
X177765Y336973D01*
X179457Y335281D01*
X181668Y334365D01*
X184062D01*
X186273Y335281D01*
X187965Y336973D01*
X188881Y339184D01*
Y341578D01*
X187965Y343789D01*
X187791Y343963D01*
X187964Y344222D01*
X188240Y345609D01*
X188240Y345610D01*
Y361021D01*
X189630D01*
Y364541D01*
X194579D01*
X194701Y364490D01*
X198211D01*
X199368Y364969D01*
X199847Y366125D01*
Y368135D01*
X199368Y369292D01*
X198667Y369582D01*
Y371179D01*
X199368Y371469D01*
X199847Y372625D01*
Y374635D01*
X199368Y375792D01*
X198211Y376271D01*
X195403D01*
X194748Y376401D01*
X174951D01*
Y377957D01*
D02*
G37*
G36*
X126733Y359934D02*
X125434D01*
X124233Y359437D01*
X123314Y358518D01*
X122817Y357317D01*
Y356018D01*
X123314Y354817D01*
X124233Y353899D01*
X125434Y353401D01*
X126733D01*
X127934Y353899D01*
X128853Y354817D01*
X129350Y356018D01*
Y357317D01*
X128853Y358518D01*
X127934Y359437D01*
X126733Y359934D01*
D02*
G37*
G36*
X140650Y358266D02*
X139350D01*
X138150Y357769D01*
X137231Y356850D01*
X136734Y355650D01*
Y354350D01*
X137231Y353150D01*
X138150Y352231D01*
X139350Y351734D01*
X140650D01*
X141850Y352231D01*
X142769Y353150D01*
X143266Y354350D01*
Y355650D01*
X142769Y356850D01*
X141850Y357769D01*
X140650Y358266D01*
D02*
G37*
G36*
X289907Y363950D02*
X284124D01*
X283346Y363628D01*
X283024Y362850D01*
Y359509D01*
X282732Y359216D01*
X282234Y358016D01*
Y357691D01*
X282027Y357552D01*
X277027D01*
X275866Y357072D01*
X275396Y355936D01*
X275090D01*
X273890Y355439D01*
X272971Y354520D01*
X272474Y353320D01*
Y352020D01*
X272971Y350820D01*
X273710Y350080D01*
Y347160D01*
X274032Y346382D01*
X274810Y346060D01*
X300000D01*
X300778Y346382D01*
X301100Y347160D01*
Y353215D01*
X301187Y353251D01*
X301668Y354411D01*
Y355911D01*
X301187Y357072D01*
Y358251D01*
X301187Y358251D01*
X301668Y359411D01*
Y360911D01*
X301187Y362072D01*
X300027Y362552D01*
X297140D01*
X296776Y362796D01*
X295785Y362993D01*
X294293D01*
X293871Y363414D01*
X292671Y363911D01*
X291371D01*
X290686Y363627D01*
X290685Y363628D01*
X289907Y363950D01*
D02*
G37*
G36*
X131546Y339804D02*
X131546Y339804D01*
X120371D01*
X120371Y339804D01*
X118984Y339528D01*
X117807Y338742D01*
X117807Y338742D01*
X114215Y335150D01*
X113429Y333974D01*
X113153Y332587D01*
X113153Y332586D01*
Y325008D01*
X108193Y320047D01*
X106112D01*
Y317355D01*
X105925Y316419D01*
X106112Y315482D01*
X106111Y312861D01*
X106112Y311337D01*
Y305290D01*
X112868D01*
Y307209D01*
X121196D01*
Y305699D01*
X130721D01*
Y312734D01*
X121196D01*
Y310835D01*
X113946D01*
X112868Y311913D01*
X112868Y314468D01*
X119343Y320942D01*
X119343Y320942D01*
X120129Y322118D01*
X120405Y323506D01*
X120405Y323506D01*
Y324518D01*
X121196Y325714D01*
X130721D01*
Y329885D01*
X132129Y330468D01*
X134157Y328441D01*
Y323240D01*
X134157Y323239D01*
X134393Y322051D01*
Y318971D01*
X134157Y317782D01*
X134157Y317782D01*
Y303550D01*
X134157Y303550D01*
X134175Y303460D01*
Y296512D01*
X134172D01*
Y289755D01*
X136864D01*
X137800Y289569D01*
X138737Y289755D01*
X140219D01*
X141358Y289755D01*
Y289755D01*
X141743D01*
Y289755D01*
X148929D01*
Y296512D01*
X147184D01*
Y305699D01*
X150737D01*
Y312734D01*
X141408D01*
Y315599D01*
X145974D01*
X145974Y315598D01*
X146166Y315637D01*
X163381D01*
X163934Y315746D01*
X164280D01*
X164600Y315879D01*
X164769Y315913D01*
X164855Y315970D01*
X166752D01*
Y317983D01*
X166765Y318043D01*
X166897Y318363D01*
Y318709D01*
X167007Y319262D01*
X166752Y320541D01*
Y323156D01*
X159996D01*
Y322888D01*
X146012D01*
X145821Y322850D01*
X141644D01*
Y323003D01*
X141408Y324192D01*
Y325714D01*
X150737D01*
Y332750D01*
X141212D01*
X141212Y332750D01*
X139809Y333043D01*
X134110Y338742D01*
X132934Y339528D01*
X131546Y339804D01*
D02*
G37*
G36*
X200187Y346353D02*
X197793D01*
X195582Y345437D01*
X193890Y343745D01*
X192974Y341534D01*
Y339141D01*
X193890Y336929D01*
X195582Y335237D01*
X197793Y334321D01*
X200187D01*
X202398Y335237D01*
X204090Y336929D01*
X205006Y339141D01*
Y341534D01*
X204090Y343745D01*
X202398Y345437D01*
X200187Y346353D01*
D02*
G37*
G36*
X314875Y332440D02*
X313632Y332192D01*
X311282Y332192D01*
X309758Y332192D01*
X303711D01*
Y325436D01*
X303909D01*
Y318146D01*
X299143D01*
Y312050D01*
X307271D01*
Y313393D01*
X307396Y313580D01*
X307534Y314274D01*
Y325436D01*
X309828D01*
X311026Y325147D01*
X311472Y324150D01*
X311562Y323697D01*
X312348Y322520D01*
X312434Y322434D01*
X313611Y321648D01*
X314998Y321372D01*
X316385Y321648D01*
X317562Y322434D01*
X318348Y323611D01*
X318624Y324998D01*
X318538Y325431D01*
Y328777D01*
X318468Y329128D01*
Y332192D01*
X316119D01*
X314875Y332440D01*
D02*
G37*
G36*
X353607Y333991D02*
X351213D01*
X349002Y333075D01*
X347310Y331383D01*
X346394Y329172D01*
Y326779D01*
X347310Y324567D01*
X349002Y322875D01*
X351213Y321959D01*
X353607D01*
X355818Y322875D01*
X357510Y324567D01*
X358426Y326779D01*
Y329172D01*
X357510Y331383D01*
X355818Y333075D01*
X353607Y333991D01*
D02*
G37*
G36*
X101765Y326917D02*
X100465D01*
X99265Y326420D01*
X98346Y325501D01*
X97849Y324300D01*
Y323001D01*
X98346Y321800D01*
X99265Y320882D01*
X100465Y320384D01*
X101765D01*
X102965Y320882D01*
X103884Y321800D01*
X104381Y323001D01*
Y324300D01*
X103884Y325501D01*
X102965Y326420D01*
X101765Y326917D01*
D02*
G37*
G36*
X320432Y320853D02*
X319132D01*
X317931Y320356D01*
X317013Y319437D01*
X316515Y318236D01*
Y316937D01*
X317013Y315736D01*
X317365Y315384D01*
X317397Y315284D01*
X317231Y313628D01*
X317193Y313564D01*
X309551Y305922D01*
X309158Y305334D01*
X309020Y304640D01*
Y298048D01*
X307518Y296546D01*
X303229D01*
Y290499D01*
X303229Y289360D01*
X303229Y287836D01*
Y285321D01*
X302873Y284461D01*
Y283161D01*
X303229Y282301D01*
Y281789D01*
X303541D01*
X304289Y281042D01*
X305489Y280544D01*
X306789D01*
X307989Y281042D01*
X308737Y281789D01*
X309986D01*
Y287836D01*
X309986Y288975D01*
X309986Y290499D01*
Y293886D01*
X312115Y296015D01*
X312508Y296603D01*
X312646Y297297D01*
Y303889D01*
X319261Y310504D01*
X327354D01*
X327369Y310467D01*
X328288Y309548D01*
X329489Y309050D01*
X330788D01*
X331989Y309548D01*
X332908Y310467D01*
X333405Y311667D01*
Y312967D01*
X332908Y314167D01*
X331989Y315086D01*
X330788Y315583D01*
X329489D01*
X328288Y315086D01*
X327369Y314167D01*
X327354Y314130D01*
X323100D01*
X322468Y315654D01*
X322551Y315736D01*
X323048Y316937D01*
Y318236D01*
X322551Y319437D01*
X321632Y320356D01*
X320432Y320853D01*
D02*
G37*
G36*
X242628Y318508D02*
X241329D01*
X240128Y318011D01*
X239209Y317092D01*
X238712Y315891D01*
Y314592D01*
X239209Y313391D01*
X240128Y312472D01*
X241329Y311975D01*
X242628D01*
X242666Y311991D01*
X246449Y308207D01*
Y307721D01*
X246360Y307505D01*
Y305495D01*
X246838Y304338D01*
X247291Y304151D01*
X247419Y303860D01*
X247287Y302347D01*
X246838Y302162D01*
X246360Y301005D01*
Y298995D01*
X246838Y297838D01*
X247287Y297653D01*
X247419Y296140D01*
X247291Y295849D01*
X246838Y295662D01*
X246360Y294505D01*
Y293578D01*
X245575Y292793D01*
X245078Y291593D01*
Y290293D01*
X245575Y289093D01*
X246494Y288174D01*
X247694Y287677D01*
X248994D01*
X250194Y288174D01*
X250822Y288802D01*
X252185Y288433D01*
X252346Y288334D01*
Y274745D01*
X250772Y273171D01*
X250665Y273216D01*
X249365D01*
X248165Y272718D01*
X247246Y271799D01*
X246748Y270599D01*
Y269299D01*
X247246Y268099D01*
X248165Y267180D01*
X249365Y266683D01*
X250665D01*
X251865Y267180D01*
X252784Y268099D01*
X253281Y269299D01*
Y270553D01*
X255441Y272713D01*
X255834Y273301D01*
X255972Y273995D01*
Y296341D01*
X255834Y297035D01*
X255441Y297623D01*
X253141Y299923D01*
Y301005D01*
X252661Y302162D01*
X252213Y302347D01*
X252143Y303151D01*
X253365Y304443D01*
X255490D01*
X255607Y304161D01*
X256526Y303242D01*
X257726Y302745D01*
X259026D01*
X260226Y303242D01*
X261145Y304161D01*
X261642Y305361D01*
Y306661D01*
X261145Y307861D01*
X260226Y308780D01*
X259026Y309277D01*
X257726D01*
X256526Y308780D01*
X255814Y308068D01*
X252907D01*
X252661Y308661D01*
X251505Y309140D01*
X250039D01*
X249937Y309652D01*
X249544Y310240D01*
X245229Y314554D01*
X245245Y314592D01*
Y315891D01*
X244748Y317092D01*
X243829Y318011D01*
X242628Y318508D01*
D02*
G37*
G36*
X304533Y308631D02*
X303233D01*
X302290Y308240D01*
X299143D01*
Y302144D01*
X303122D01*
X303233Y302098D01*
X304533D01*
X304644Y302144D01*
X307271D01*
Y308240D01*
X305476D01*
X304533Y308631D01*
D02*
G37*
G36*
X205055Y313304D02*
X198298D01*
Y306119D01*
X202444D01*
X205866Y302697D01*
X206454Y302304D01*
X207148Y302166D01*
X220240D01*
X221182Y301019D01*
X220619Y299662D01*
X212043D01*
Y297771D01*
X201562D01*
X201016Y298317D01*
Y299071D01*
X200100Y301282D01*
X198408Y302974D01*
X196197Y303890D01*
X193803D01*
X191592Y302974D01*
X189900Y301282D01*
X188984Y299071D01*
Y296677D01*
X189900Y294466D01*
X191592Y292774D01*
X193803Y291858D01*
X196197D01*
X196920Y292158D01*
X197496Y291582D01*
X197496Y291582D01*
X198672Y290796D01*
X200060Y290520D01*
X200060Y290520D01*
X212043D01*
Y288630D01*
X222075D01*
Y290910D01*
X228373D01*
X228495Y290860D01*
X232005D01*
X233162Y291339D01*
X233640Y292495D01*
Y294505D01*
X233162Y295662D01*
X232461Y295951D01*
Y297549D01*
X233162Y297838D01*
X233640Y298995D01*
Y301005D01*
X233162Y302162D01*
X232005Y302640D01*
X228495D01*
X227339Y302162D01*
X227194Y301813D01*
X225751D01*
X222303Y305261D01*
X221715Y305653D01*
X221021Y305791D01*
X207899D01*
X205055Y308635D01*
Y313304D01*
D02*
G37*
G36*
X76752Y309025D02*
X62720D01*
Y294993D01*
X76752D01*
Y309025D01*
D02*
G37*
G36*
X332748Y286967D02*
X325991D01*
Y279782D01*
X332748D01*
Y282094D01*
X332887Y282430D01*
Y283729D01*
X332748Y284065D01*
Y286967D01*
D02*
G37*
G36*
X294688Y283367D02*
X287932D01*
Y276182D01*
X294688D01*
Y283367D01*
D02*
G37*
G36*
X196153Y287765D02*
X193759D01*
X191548Y286849D01*
X189856Y285157D01*
X188940Y282945D01*
Y280552D01*
X189856Y278341D01*
X191548Y276649D01*
X193759Y275733D01*
X196153D01*
X198364Y276649D01*
X200056Y278341D01*
X200972Y280552D01*
Y282945D01*
X200056Y285157D01*
X198364Y286849D01*
X196153Y287765D01*
D02*
G37*
G36*
X138783Y281816D02*
X137395Y281540D01*
X136219Y280754D01*
X132614Y277148D01*
X131828Y275972D01*
X131552Y274585D01*
X131552Y274585D01*
Y269679D01*
X131374Y268786D01*
X131650Y267398D01*
X131683Y267350D01*
X131683Y265157D01*
X131683Y263633D01*
Y257586D01*
X138439D01*
Y258764D01*
X138671Y258860D01*
X139590Y259779D01*
X140087Y260979D01*
Y262279D01*
X139590Y263479D01*
X139144Y263925D01*
X138591Y264893D01*
X138439Y265826D01*
X138439Y267303D01*
X138527Y267435D01*
X138803Y268822D01*
X138803Y268823D01*
Y273083D01*
X141347Y275626D01*
X142133Y276802D01*
X142409Y278190D01*
X142133Y279577D01*
X141347Y280754D01*
X140170Y281540D01*
X138783Y281816D01*
D02*
G37*
G36*
X196071Y263109D02*
X194772D01*
X193571Y262612D01*
X192652Y261693D01*
X192155Y260492D01*
Y259193D01*
X192652Y257992D01*
X193571Y257074D01*
X194772Y256576D01*
X196071D01*
X197272Y257074D01*
X198190Y257992D01*
X198688Y259193D01*
Y260492D01*
X198190Y261693D01*
X197272Y262612D01*
X196071Y263109D01*
D02*
G37*
G36*
X27995Y272600D02*
X24305D01*
X20740Y271644D01*
X17544Y269799D01*
X14934Y267190D01*
X13089Y263993D01*
X12134Y260429D01*
Y256738D01*
X13089Y253174D01*
X14934Y249977D01*
X17544Y247368D01*
X20740Y245523D01*
X24305Y244568D01*
X27995D01*
X31560Y245523D01*
X34756Y247368D01*
X37366Y249977D01*
X39211Y253174D01*
X40166Y256738D01*
Y260429D01*
X39211Y263993D01*
X37366Y267190D01*
X34756Y269799D01*
X31560Y271644D01*
X27995Y272600D01*
D02*
G37*
G36*
X296140Y237423D02*
X295378Y237321D01*
X295251Y237248D01*
X295105Y237249D01*
X294419Y236970D01*
X294325Y236876D01*
X294196Y236847D01*
X293586Y236415D01*
X293505Y236287D01*
X293371Y236216D01*
X292889Y235632D01*
X292848Y235498D01*
X292744Y235405D01*
X292414Y234720D01*
X292405Y234561D01*
X292320Y234426D01*
X292192Y233689D01*
X292223Y233554D01*
X292179Y233423D01*
X292230Y232687D01*
X292289Y232567D01*
X292277Y232433D01*
X292506Y231697D01*
X292604Y231578D01*
X292631Y231427D01*
X293038Y230792D01*
X293151Y230712D01*
X293208Y230585D01*
X293741Y230077D01*
X293884Y230022D01*
X293981Y229904D01*
X294641Y229548D01*
X294789Y229533D01*
X294908Y229446D01*
X295645Y229268D01*
X295780Y229289D01*
X295906Y229237D01*
X296668D01*
X296798Y229291D01*
X296938Y229270D01*
X297649Y229448D01*
X297764Y229533D01*
X297907Y229548D01*
X298567Y229904D01*
X298656Y230012D01*
X298789Y230060D01*
X299347Y230568D01*
X299412Y230705D01*
X299536Y230792D01*
X299943Y231427D01*
X299970Y231578D01*
X300068Y231697D01*
X300297Y232433D01*
X300285Y232567D01*
X300344Y232687D01*
X300395Y233423D01*
X300345Y233572D01*
X300375Y233726D01*
X300222Y234462D01*
X300152Y234565D01*
X300149Y234689D01*
X299844Y235375D01*
X299731Y235482D01*
X299685Y235632D01*
X299203Y236216D01*
X299069Y236287D01*
X298988Y236415D01*
X298378Y236847D01*
X298242Y236878D01*
X298142Y236975D01*
X297431Y237254D01*
X297294Y237252D01*
X297176Y237321D01*
X296439Y237422D01*
X296289Y237383D01*
X296140Y237423D01*
D02*
G37*
G36*
X238554Y244496D02*
X237255D01*
X236054Y243999D01*
X235135Y243080D01*
X234638Y241880D01*
Y240580D01*
X235135Y239380D01*
X235854Y238661D01*
X235906Y237551D01*
X235803Y236915D01*
X235011Y236123D01*
X234514Y234923D01*
Y233623D01*
X235011Y232423D01*
X235930Y231504D01*
X237130Y231007D01*
X238430D01*
X239630Y231504D01*
X240549Y232423D01*
X240687Y232754D01*
X241419Y232893D01*
X242386Y232874D01*
X243135Y232125D01*
X244336Y231628D01*
X245635D01*
X246836Y232125D01*
X247754Y233044D01*
X248252Y234244D01*
Y235544D01*
X247754Y236744D01*
X247495Y237004D01*
X246936Y237866D01*
X247495Y238995D01*
X247630Y239131D01*
X248127Y240332D01*
Y241631D01*
X247630Y242832D01*
X246711Y243750D01*
X245511Y244248D01*
X244211D01*
X243011Y243750D01*
X242328Y243068D01*
X240997Y243078D01*
X240583Y243171D01*
X239755Y243999D01*
X238554Y244496D01*
D02*
G37*
G36*
X292299Y225194D02*
X291000D01*
X289799Y224697D01*
X288881Y223778D01*
X288383Y222577D01*
Y221278D01*
X288881Y220077D01*
X289799Y219158D01*
X291000Y218661D01*
X292299D01*
X293500Y219158D01*
X294419Y220077D01*
X294434Y220115D01*
X296199D01*
Y218420D01*
X303384D01*
Y225177D01*
X296199D01*
Y223740D01*
X294434D01*
X294419Y223778D01*
X293500Y224697D01*
X292299Y225194D01*
D02*
G37*
G36*
X228163Y226620D02*
X226864D01*
X225663Y226123D01*
X224744Y225204D01*
X224247Y224003D01*
Y222704D01*
X224744Y221503D01*
X225444Y220804D01*
X225663Y220567D01*
X225594Y218964D01*
X225481Y218850D01*
X225214Y218206D01*
X224403Y218029D01*
X223576Y218002D01*
X222782Y218795D01*
X221581Y219293D01*
X220282D01*
X219081Y218795D01*
X218163Y217876D01*
X217665Y216676D01*
Y215376D01*
X218163Y214176D01*
X219081Y213257D01*
X220282Y212760D01*
X221581D01*
X222782Y213257D01*
X223701Y214176D01*
X223968Y214820D01*
X224778Y214997D01*
X225606Y215024D01*
X225913Y214717D01*
X226238Y213750D01*
X225913Y212783D01*
X225481Y212350D01*
X224984Y211150D01*
Y209850D01*
X225481Y208650D01*
X226400Y207731D01*
X227600Y207234D01*
X228900D01*
X230100Y207731D01*
X231019Y208650D01*
X231516Y209850D01*
Y211150D01*
X231019Y212350D01*
X230587Y212783D01*
X230262Y213750D01*
X230587Y214717D01*
X231019Y215150D01*
X231516Y216350D01*
Y217650D01*
X231019Y218850D01*
X230320Y219549D01*
X230101Y219786D01*
X230170Y221390D01*
X230283Y221503D01*
X230780Y222704D01*
Y224003D01*
X230283Y225204D01*
X229364Y226123D01*
X228163Y226620D01*
D02*
G37*
G36*
X67941Y215144D02*
X67179D01*
X67049Y215089D01*
X66909Y215110D01*
X66198Y214932D01*
X66070Y214837D01*
X65911Y214817D01*
X65251Y214436D01*
X65175Y214337D01*
X65058Y214295D01*
X64500Y213787D01*
X64435Y213650D01*
X64311Y213563D01*
X63905Y212929D01*
X63878Y212782D01*
X63782Y212669D01*
X63554Y211958D01*
X63565Y211817D01*
X63503Y211691D01*
X63452Y210929D01*
X63502Y210782D01*
X63473Y210630D01*
X63625Y209893D01*
X63695Y209790D01*
X63698Y209666D01*
X64003Y208981D01*
X64125Y208865D01*
X64177Y208705D01*
X64660Y208146D01*
X64771Y208090D01*
X64835Y207983D01*
X65444Y207526D01*
X65594Y207488D01*
X65705Y207380D01*
X66416Y207101D01*
X66572Y207104D01*
X66709Y207030D01*
X67446Y206954D01*
X67558Y206987D01*
X67671Y206953D01*
X68433Y207029D01*
X68578Y207107D01*
X68742Y207106D01*
X69428Y207386D01*
X69533Y207489D01*
X69676Y207526D01*
X70286Y207983D01*
X70349Y208090D01*
X70460Y208146D01*
X70943Y208705D01*
X70990Y208849D01*
X71103Y208950D01*
X71434Y209636D01*
X71442Y209795D01*
X71528Y209929D01*
X71655Y210666D01*
X71624Y210800D01*
X71668Y210929D01*
X71617Y211691D01*
X71555Y211817D01*
X71567Y211958D01*
X71338Y212669D01*
X71242Y212782D01*
X71216Y212929D01*
X70809Y213563D01*
X70696Y213643D01*
X70639Y213770D01*
X70106Y214278D01*
X69978Y214327D01*
X69895Y214436D01*
X69234Y214817D01*
X69071Y214838D01*
X68939Y214935D01*
X68202Y215112D01*
X68067Y215091D01*
X67941Y215144D01*
D02*
G37*
G36*
X259909Y213766D02*
X258609D01*
X257409Y213269D01*
X256490Y212350D01*
X255993Y211150D01*
Y209850D01*
X256490Y208650D01*
X257409Y207731D01*
X258609Y207234D01*
X259909D01*
X261109Y207731D01*
X262028Y208650D01*
X262525Y209850D01*
Y211150D01*
X262028Y212350D01*
X261109Y213269D01*
X259909Y213766D01*
D02*
G37*
G36*
X196648Y213267D02*
X195348D01*
X194148Y212769D01*
X193229Y211850D01*
X192732Y210650D01*
Y209350D01*
X193229Y208150D01*
X194148Y207231D01*
X195348Y206734D01*
X196648D01*
X197848Y207231D01*
X198767Y208150D01*
X199265Y209350D01*
Y210650D01*
X198767Y211850D01*
X197848Y212769D01*
X196648Y213267D01*
D02*
G37*
G36*
X151624Y213061D02*
X150324D01*
X149124Y212563D01*
X148205Y211645D01*
X147708Y210444D01*
Y209145D01*
X148205Y207944D01*
X149124Y207025D01*
X150324Y206528D01*
X151624D01*
X152824Y207025D01*
X153743Y207944D01*
X154241Y209145D01*
Y210444D01*
X153743Y211645D01*
X152824Y212563D01*
X151624Y213061D01*
D02*
G37*
G36*
X216015Y213685D02*
X208830D01*
Y206928D01*
X213505D01*
X213987Y206832D01*
X215347D01*
X216895Y205285D01*
X216551Y204400D01*
X216148Y203876D01*
X215047D01*
X214710Y203737D01*
X211985Y203737D01*
X210495Y203654D01*
X205115D01*
X203977Y203654D01*
X202453Y203654D01*
X200525D01*
X199650Y204016D01*
X198350D01*
X197475Y203654D01*
X196405D01*
Y202775D01*
X196231Y202600D01*
X195734Y201400D01*
Y200100D01*
X196231Y198900D01*
X196405Y198725D01*
Y196897D01*
X202453D01*
X203591Y196897D01*
X205115Y196897D01*
X210495D01*
X211162Y196897D01*
X212652Y196980D01*
X215977D01*
X216873Y195456D01*
X216553Y194880D01*
X215886Y194736D01*
X214685Y195233D01*
X213386D01*
X212185Y194736D01*
X211726Y194277D01*
X210741Y193987D01*
X209812Y194288D01*
X209337Y194763D01*
X208136Y195260D01*
X206837D01*
X205636Y194763D01*
X205436Y194562D01*
X204471D01*
Y193249D01*
X204220Y192644D01*
Y191344D01*
X204471Y190738D01*
Y189530D01*
X205331D01*
X205636Y189225D01*
X206837Y188727D01*
X208136D01*
X209337Y189225D01*
X209796Y189684D01*
X210335Y189842D01*
X210804Y189470D01*
X210986Y188021D01*
X210986D01*
Y186778D01*
X210723Y186141D01*
Y184842D01*
X210986Y184205D01*
Y182989D01*
X211872D01*
X212139Y182722D01*
X213339Y182225D01*
X214639D01*
X215839Y182722D01*
X216758Y183641D01*
X217255Y184842D01*
Y186141D01*
X216758Y187342D01*
X216357Y187743D01*
X216027Y188760D01*
X216376Y189688D01*
X216805Y190116D01*
X216825Y190166D01*
X218596Y190550D01*
X219797Y190053D01*
X221096D01*
X222297Y190550D01*
X223216Y191469D01*
X223713Y192669D01*
Y193969D01*
X223216Y195169D01*
X222929Y195456D01*
X223560Y196980D01*
X226742D01*
Y203737D01*
X223111D01*
X223045Y204067D01*
X222652Y204655D01*
X217380Y209927D01*
X216792Y210320D01*
X216098Y210458D01*
X216015D01*
Y213685D01*
D02*
G37*
G36*
X122809Y274829D02*
X121510D01*
X120309Y274332D01*
X119390Y273413D01*
X118947Y272343D01*
X116683D01*
Y266296D01*
X116683Y265157D01*
X116683Y263633D01*
Y257586D01*
X118187D01*
Y253322D01*
X117955Y253090D01*
X116683D01*
Y251475D01*
X114197Y248989D01*
X113804Y248401D01*
X113666Y247708D01*
Y222163D01*
X113804Y221469D01*
X114197Y220881D01*
X116227Y218851D01*
Y204921D01*
X115000Y203612D01*
X113612Y203336D01*
X112641Y202687D01*
X111756Y203080D01*
X111266Y203461D01*
Y204650D01*
X110769Y205850D01*
X109850Y206769D01*
X108650Y207266D01*
X107350D01*
X106150Y206769D01*
X105231Y205850D01*
X104734Y204650D01*
Y203350D01*
X105173Y202290D01*
X104923Y201597D01*
X104459Y200767D01*
X104100D01*
X102900Y200269D01*
X102467Y199837D01*
X101500Y199512D01*
X100533Y199837D01*
X100100Y200269D01*
X98900Y200767D01*
X97600D01*
X96400Y200269D01*
X95481Y199350D01*
X94984Y198150D01*
Y196850D01*
X95481Y195650D01*
X96400Y194731D01*
X97600Y194234D01*
X98900D01*
X100100Y194731D01*
X100533Y195163D01*
X101500Y195488D01*
X102467Y195163D01*
X102900Y194731D01*
X104100Y194234D01*
X105400D01*
X105465Y194261D01*
X106329Y192969D01*
X104277Y190917D01*
X103491Y189741D01*
X103215Y188353D01*
X103215Y188353D01*
Y183126D01*
X103215Y183126D01*
X103491Y181738D01*
X104277Y180562D01*
X105185Y179653D01*
X105255Y177951D01*
X105193Y177757D01*
X102187Y174751D01*
X102150Y174767D01*
X100850D01*
X99650Y174269D01*
X98731Y173350D01*
X98234Y172150D01*
Y170850D01*
X98731Y169650D01*
X99650Y168731D01*
X100850Y168234D01*
X102150D01*
X103350Y168731D01*
X104269Y169650D01*
X104766Y170850D01*
Y172150D01*
X104751Y172187D01*
X108776Y176213D01*
X109410Y176123D01*
X110300Y175674D01*
Y175056D01*
X110578Y174384D01*
X110589Y172738D01*
X109670Y171820D01*
X109172Y170619D01*
Y169320D01*
X109670Y168119D01*
X110589Y167200D01*
X111789Y166703D01*
X113089D01*
X113974Y167070D01*
X115036Y166616D01*
X115498Y166254D01*
Y149204D01*
X115636Y148510D01*
X116029Y147922D01*
X117503Y146448D01*
X118091Y146055D01*
X118785Y145918D01*
X127963D01*
X131447Y142433D01*
Y138899D01*
X130645Y138097D01*
X125976D01*
Y131340D01*
X126418D01*
Y131072D01*
X126916Y129872D01*
X127328Y129459D01*
X126697Y127935D01*
X125631Y127935D01*
X124107Y127935D01*
X118059D01*
Y121178D01*
X121191D01*
X121265Y121148D01*
X122564D01*
X122975Y120798D01*
X123140Y118901D01*
X119434Y115196D01*
X118649Y114019D01*
X118373Y112632D01*
X118266Y111217D01*
X118125D01*
Y109012D01*
X117883Y107800D01*
X118125Y106587D01*
Y104461D01*
X120106D01*
X120122Y104450D01*
X121509Y104174D01*
X122896Y104450D01*
X122912Y104461D01*
X125310D01*
Y106845D01*
X125348Y106902D01*
X125624Y108289D01*
X125624Y108289D01*
Y111130D01*
X131715Y117221D01*
X131715Y117221D01*
X132501Y118397D01*
X132777Y119785D01*
Y121178D01*
X132816D01*
Y127935D01*
X132816D01*
X132876Y129410D01*
X134678Y129567D01*
X135133Y129134D01*
X135314Y128953D01*
X136515Y128456D01*
X137814D01*
X139015Y128953D01*
X139933Y129872D01*
X140045Y130140D01*
X141261Y130140D01*
X142785Y130140D01*
X148832D01*
Y130160D01*
X149641D01*
X150841Y130657D01*
X151296Y131111D01*
X151775Y131291D01*
X151790Y131286D01*
X152480Y129989D01*
X152458Y129482D01*
X152458D01*
Y128205D01*
X152226Y127645D01*
Y126346D01*
X152458Y125786D01*
Y124450D01*
X153419D01*
X153643Y124226D01*
X154843Y123729D01*
X156143D01*
X157343Y124226D01*
X158262Y125145D01*
X158759Y126346D01*
Y127645D01*
X158262Y128846D01*
X157828Y129280D01*
X157697Y129670D01*
X158197Y131047D01*
X158197D01*
X158579Y132413D01*
X158759Y132848D01*
Y134147D01*
X158262Y135348D01*
X158197Y135413D01*
Y136079D01*
X157531D01*
X157343Y136267D01*
X156143Y136764D01*
X154843D01*
X153643Y136267D01*
X153535Y136194D01*
X153365Y136079D01*
D01*
X152453Y135724D01*
X151676Y136065D01*
X151146Y137175D01*
X151295Y137657D01*
X151767Y138128D01*
X152264Y139328D01*
Y140628D01*
X151767Y141828D01*
X152076Y143286D01*
X153600Y143776D01*
X153643Y143733D01*
X154843Y143236D01*
X156143D01*
X157343Y143733D01*
X157710Y144100D01*
X158212D01*
Y144602D01*
X158262Y144652D01*
X158759Y145853D01*
Y147152D01*
X158262Y148353D01*
X158212Y148403D01*
Y149132D01*
X157483D01*
X157343Y149271D01*
X156143Y149769D01*
X154843D01*
X153643Y149271D01*
X153600Y149229D01*
X153012Y149282D01*
X152878Y149336D01*
X152076Y149860D01*
Y150043D01*
X144890D01*
Y144177D01*
X143419Y143159D01*
X143068Y143305D01*
X141768D01*
X140568Y142808D01*
X139649Y141889D01*
X139151Y140688D01*
Y139389D01*
X139552Y138421D01*
X139186Y137497D01*
X138784Y136897D01*
X136256D01*
X135073Y138148D01*
Y143184D01*
X134935Y143878D01*
X134542Y144466D01*
X131482Y147526D01*
X132065Y148934D01*
X133359D01*
Y151590D01*
X133814Y152690D01*
Y153989D01*
X133359Y155089D01*
Y155691D01*
X132816D01*
X132398Y156109D01*
X131198Y156606D01*
X129898D01*
X128698Y156109D01*
X128280Y155691D01*
X126173D01*
X125820Y157069D01*
Y157792D01*
X126026Y159231D01*
X127344Y159231D01*
X133211D01*
Y161782D01*
X133347Y162109D01*
Y163408D01*
X133211Y163736D01*
Y165988D01*
X130819D01*
X130730Y166025D01*
X129430D01*
X129341Y165988D01*
X126026Y165988D01*
X125673Y167366D01*
Y169033D01*
X131684D01*
Y172663D01*
X150944D01*
X151638Y172801D01*
X152226Y173194D01*
X154823Y175792D01*
X154861Y175776D01*
X156160D01*
X157361Y176273D01*
X157757Y176670D01*
X158735Y177026D01*
X159713Y176670D01*
X160109Y176273D01*
X161310Y175776D01*
X162609D01*
X163810Y176273D01*
X164289Y176753D01*
X165313Y177004D01*
X166184Y176723D01*
X166706Y176201D01*
X167906Y175704D01*
X169206D01*
X170406Y176201D01*
X170808Y176602D01*
X171853Y176915D01*
X172747Y176570D01*
X173194Y176123D01*
X174394Y175626D01*
X175694D01*
X176894Y176123D01*
X177813Y177042D01*
X178311Y178243D01*
Y179542D01*
X177813Y180743D01*
X177298Y181258D01*
X177023Y182158D01*
X177279Y183151D01*
X177769Y183641D01*
X178266Y184842D01*
Y186141D01*
X177769Y187342D01*
X177335Y187776D01*
X177012Y188743D01*
X177335Y189709D01*
X177769Y190144D01*
X178266Y191344D01*
Y192644D01*
X178018Y193244D01*
X178479Y193931D01*
X179069Y194535D01*
X180183D01*
X181384Y195032D01*
X182303Y195951D01*
X182800Y197152D01*
Y198451D01*
X182303Y199652D01*
X181384Y200571D01*
X181125Y200678D01*
Y209233D01*
X182203Y210311D01*
X184046Y210311D01*
X190093D01*
Y217067D01*
X184046D01*
X182907Y217067D01*
X181383Y217067D01*
X175336D01*
Y210311D01*
X177499D01*
Y200387D01*
X176765Y199652D01*
X176267Y198451D01*
Y197152D01*
X176516Y196551D01*
X176055Y195864D01*
X175464Y195260D01*
X174350D01*
X173150Y194763D01*
X172949Y194562D01*
X172001D01*
Y193290D01*
X171734Y192644D01*
Y191344D01*
X171875Y191002D01*
X172001Y189531D01*
X172029Y188144D01*
X171946Y186654D01*
X171734Y186141D01*
Y184842D01*
X171850Y184561D01*
X172029Y183111D01*
X172029D01*
X172249Y182724D01*
X171776Y181275D01*
X171371Y181092D01*
X170853Y181292D01*
X170406Y181739D01*
X169206Y182236D01*
X167906D01*
X166706Y181739D01*
X166226Y181260D01*
X165202Y181009D01*
X164821Y181132D01*
X164099Y182683D01*
X164290Y183262D01*
X164734Y183706D01*
X165231Y184907D01*
Y186206D01*
X164734Y187407D01*
X163815Y188326D01*
X162615Y188823D01*
X161315D01*
X160115Y188326D01*
X159805Y188016D01*
X158245Y188064D01*
X157704Y189308D01*
X157891Y189788D01*
X158255Y190151D01*
X158752Y191352D01*
Y192652D01*
X158255Y193852D01*
X157336Y194771D01*
X157105Y194867D01*
Y197311D01*
X164093D01*
Y204067D01*
X158046D01*
X156908Y204067D01*
Y204067D01*
X156522D01*
Y204067D01*
X149336D01*
Y197311D01*
X153479D01*
Y194614D01*
X152717Y193852D01*
X152220Y192652D01*
Y191352D01*
X152717Y190151D01*
X153081Y189788D01*
X153289Y189254D01*
X152707Y188010D01*
X151166Y187945D01*
X150743Y188368D01*
X149543Y188865D01*
X148243D01*
X147043Y188368D01*
X146124Y187449D01*
X145627Y186248D01*
Y184949D01*
X146124Y183748D01*
X146592Y183281D01*
X146880Y182309D01*
X146585Y181369D01*
X146109Y180893D01*
X145611Y179692D01*
Y178393D01*
X145852Y177813D01*
X145021Y176289D01*
X133078D01*
X131684Y176604D01*
Y178739D01*
X131932Y179983D01*
X131684Y181226D01*
Y183790D01*
X124928D01*
Y183790D01*
X123404Y183632D01*
X123095Y183760D01*
X121795D01*
X121372Y183585D01*
X119848Y184508D01*
Y191549D01*
X120981Y192681D01*
X121374Y193269D01*
X121512Y193963D01*
Y201932D01*
X121374Y202626D01*
X120981Y203214D01*
X119852Y204343D01*
Y219602D01*
X119714Y220296D01*
X119321Y220884D01*
X117291Y222914D01*
Y245905D01*
X123439D01*
Y253090D01*
X121813D01*
Y257586D01*
X123439D01*
Y263633D01*
X123439Y264772D01*
X123439Y266296D01*
Y268557D01*
X124010Y268793D01*
X124929Y269712D01*
X125426Y270913D01*
Y272212D01*
X124929Y273413D01*
X124010Y274332D01*
X122809Y274829D01*
D02*
G37*
G36*
X259791Y202567D02*
X258492D01*
X257291Y202070D01*
X256372Y201151D01*
X255875Y199950D01*
Y198651D01*
X256372Y197450D01*
X257291Y196532D01*
X258492Y196034D01*
X259791D01*
X260992Y196532D01*
X261911Y197450D01*
X262408Y198651D01*
Y199950D01*
X261911Y201151D01*
X260992Y202070D01*
X259791Y202567D01*
D02*
G37*
G36*
X131684Y199496D02*
X124928D01*
Y192310D01*
X131684D01*
Y194938D01*
X131893Y195441D01*
Y196740D01*
X131684Y197243D01*
Y199496D01*
D02*
G37*
G36*
X191574Y196940D02*
X184817D01*
Y192958D01*
X184678Y192621D01*
Y191321D01*
X184817Y190984D01*
Y189755D01*
X185541D01*
X186094Y189202D01*
X187294Y188704D01*
X188594D01*
X189794Y189202D01*
X190347Y189755D01*
X191574D01*
Y196940D01*
D02*
G37*
G36*
X296220Y216152D02*
X294920D01*
X293720Y215655D01*
X292801Y214736D01*
X292304Y213535D01*
Y212236D01*
X292801Y211035D01*
X292917Y210919D01*
X292973Y209309D01*
X292763Y209082D01*
X292055Y208374D01*
X291557Y207173D01*
Y205874D01*
X292055Y204673D01*
X292973Y203754D01*
X294174Y203257D01*
X295473D01*
X295863Y203418D01*
X297097Y203256D01*
X297632Y202627D01*
X297884Y202017D01*
X298080Y201821D01*
X298103Y200227D01*
X297916Y199994D01*
X297185Y199262D01*
X296688Y198062D01*
Y196762D01*
X297185Y195562D01*
X297226Y195521D01*
X296595Y193997D01*
X295020D01*
Y193266D01*
X294350D01*
X293150Y192769D01*
X292231Y191850D01*
X291734Y190650D01*
Y189350D01*
X292231Y188150D01*
X293150Y187231D01*
X294350Y186734D01*
X295650D01*
X296850Y187231D01*
X296859Y187240D01*
X302205D01*
X302205Y193997D01*
X302543Y195381D01*
X302723Y195562D01*
X303221Y196762D01*
Y198062D01*
X302723Y199262D01*
X302527Y199459D01*
X302504Y201053D01*
X302691Y201286D01*
X303422Y202017D01*
X303920Y203218D01*
Y204517D01*
X303422Y205718D01*
X302504Y206637D01*
X301303Y207134D01*
X300003D01*
X299614Y206973D01*
X298380Y207135D01*
X297845Y207764D01*
X297593Y208374D01*
X297476Y208490D01*
X297421Y210100D01*
X297631Y210327D01*
X298339Y211035D01*
X298836Y212236D01*
Y213535D01*
X298339Y214736D01*
X297420Y215655D01*
X296220Y216152D01*
D02*
G37*
G36*
X247103Y199594D02*
X245803D01*
X244603Y199097D01*
X243684Y198178D01*
X243186Y196978D01*
Y195678D01*
X243684Y194478D01*
X244603Y193559D01*
X244760Y193494D01*
Y186929D01*
X244150Y186320D01*
X243653Y185119D01*
Y183820D01*
X244150Y182619D01*
X245069Y181700D01*
X246270Y181203D01*
X247569D01*
X248770Y181700D01*
X249689Y182619D01*
X250186Y183820D01*
Y185119D01*
X249689Y186320D01*
X248770Y187239D01*
X248386Y187398D01*
Y193641D01*
X249222Y194478D01*
X249719Y195678D01*
Y196978D01*
X249222Y198178D01*
X248303Y199097D01*
X247103Y199594D01*
D02*
G37*
G36*
X296176Y179414D02*
X295414Y179338D01*
X295269Y179260D01*
X295105Y179261D01*
X294419Y178981D01*
X294314Y178878D01*
X294171Y178841D01*
X293561Y178384D01*
X293498Y178277D01*
X293387Y178221D01*
X292904Y177662D01*
X292857Y177518D01*
X292744Y177417D01*
X292414Y176731D01*
X292405Y176572D01*
X292320Y176438D01*
X292192Y175701D01*
X292223Y175567D01*
X292179Y175438D01*
X292230Y174676D01*
X292292Y174550D01*
X292281Y174409D01*
X292509Y173698D01*
X292605Y173585D01*
X292631Y173438D01*
X293038Y172803D01*
X293151Y172724D01*
X293208Y172597D01*
X293741Y172089D01*
X293869Y172040D01*
X293953Y171931D01*
X294613Y171550D01*
X294776Y171529D01*
X294908Y171432D01*
X295645Y171254D01*
X295780Y171276D01*
X295906Y171223D01*
X296668D01*
X296798Y171277D01*
X296938Y171257D01*
X297649Y171434D01*
X297777Y171529D01*
X297936Y171550D01*
X298596Y171931D01*
X298672Y172030D01*
X298789Y172072D01*
X299347Y172580D01*
X299412Y172717D01*
X299536Y172803D01*
X299943Y173438D01*
X299969Y173585D01*
X300065Y173698D01*
X300293Y174409D01*
X300282Y174550D01*
X300344Y174676D01*
X300395Y175438D01*
X300345Y175585D01*
X300375Y175737D01*
X300222Y176474D01*
X300152Y176577D01*
X300149Y176701D01*
X299844Y177386D01*
X299722Y177502D01*
X299670Y177662D01*
X299187Y178221D01*
X299076Y178277D01*
X299012Y178384D01*
X298403Y178841D01*
X298253Y178879D01*
X298142Y178987D01*
X297431Y179266D01*
X297275Y179263D01*
X297138Y179337D01*
X296402Y179413D01*
X296289Y179380D01*
X296176Y179414D01*
D02*
G37*
G36*
X188629Y182255D02*
X187330D01*
X186129Y181758D01*
X185862Y181491D01*
X184993D01*
Y180316D01*
X184713Y179639D01*
Y178339D01*
X184993Y177662D01*
Y176459D01*
X185890D01*
X186129Y176220D01*
X187330Y175723D01*
X188629D01*
X189830Y176220D01*
X190749Y177139D01*
X191246Y178339D01*
Y179639D01*
X190749Y180839D01*
X189830Y181758D01*
X188629Y182255D01*
D02*
G37*
G36*
X262729Y186778D02*
X261429D01*
X260229Y186281D01*
X259310Y185362D01*
X258812Y184161D01*
Y182862D01*
X259310Y181661D01*
X260229Y180742D01*
X259586Y179552D01*
X259089Y178351D01*
Y177052D01*
X259586Y175851D01*
X260505Y174932D01*
X261706Y174435D01*
X263005D01*
X264206Y174932D01*
X265125Y175851D01*
X265622Y177052D01*
Y178351D01*
X265125Y179552D01*
X264206Y180471D01*
X264848Y181661D01*
X265345Y182862D01*
Y184161D01*
X264848Y185362D01*
X263929Y186281D01*
X262729Y186778D01*
D02*
G37*
G36*
X68064Y202464D02*
X66764D01*
X65564Y201967D01*
X64645Y201048D01*
X64481Y200652D01*
X63716D01*
X63716Y194420D01*
X63165Y193265D01*
X62738Y192776D01*
X62190Y192229D01*
X61693Y191028D01*
Y189729D01*
X62190Y188528D01*
X62519Y188199D01*
X62958Y187251D01*
X62519Y186208D01*
X62231Y185920D01*
X61734Y184719D01*
Y183420D01*
X62231Y182219D01*
X63150Y181300D01*
X64350Y180803D01*
X65650D01*
X66734Y179623D01*
X67231Y178422D01*
X67443Y178211D01*
X68115Y177441D01*
X67453Y176229D01*
X66955Y175029D01*
Y173729D01*
X67453Y172529D01*
X68371Y171610D01*
X69572Y171112D01*
X70871D01*
X72072Y171610D01*
X72991Y172529D01*
X73488Y173729D01*
Y175029D01*
X72991Y176229D01*
X72779Y176441D01*
X72106Y177211D01*
X72769Y178422D01*
X73267Y179623D01*
Y180922D01*
X72769Y182123D01*
X71850Y183042D01*
X70650Y183539D01*
X69350D01*
X68266Y184719D01*
X67769Y185920D01*
X67440Y186249D01*
X67001Y187197D01*
X67440Y188240D01*
X67729Y188528D01*
X68226Y189729D01*
Y191028D01*
X67729Y192229D01*
X67586Y192371D01*
X68218Y193895D01*
X70901D01*
Y200652D01*
X70347D01*
X70183Y201048D01*
X69264Y201967D01*
X68064Y202464D01*
D02*
G37*
G36*
X208092Y182264D02*
X206792D01*
X205592Y181767D01*
X204673Y180848D01*
X204176Y179648D01*
Y178348D01*
X204673Y177148D01*
X205147Y176673D01*
X205471Y175793D01*
X205181Y174750D01*
X204754Y174323D01*
X204257Y173122D01*
Y171823D01*
X204754Y170622D01*
X205673Y169703D01*
X206874Y169206D01*
X208173D01*
X209374Y169703D01*
X209740Y170069D01*
X210726Y170453D01*
X211713Y170069D01*
X212079Y169703D01*
X213280Y169206D01*
X214579D01*
X215780Y169703D01*
X216698Y170622D01*
X217196Y171823D01*
Y173122D01*
X216698Y174323D01*
X215780Y175242D01*
X214579Y175739D01*
X213280D01*
X212079Y175242D01*
X211713Y174876D01*
X211200Y174676D01*
X209897Y175244D01*
X209837Y176774D01*
X210211Y177148D01*
X210708Y178348D01*
Y179648D01*
X210211Y180848D01*
X209292Y181767D01*
X208092Y182264D01*
D02*
G37*
G36*
X197525Y174984D02*
X192693D01*
Y169952D01*
X193288D01*
Y167994D01*
X192407Y167328D01*
X190780Y167784D01*
X190749Y167860D01*
X190478Y168130D01*
Y169042D01*
X189194D01*
X188629Y169276D01*
X187330D01*
X186765Y169042D01*
X185446D01*
Y168096D01*
X185210Y167860D01*
X184713Y166659D01*
Y165360D01*
X185210Y164159D01*
X185637Y163732D01*
X185806Y163236D01*
X185731Y163070D01*
X184356Y162638D01*
X183866Y162859D01*
Y162859D01*
X179015D01*
X178834Y162859D01*
X178834Y162859D01*
X177594Y162609D01*
Y162609D01*
X176047D01*
X175650Y162774D01*
X174350D01*
X173953Y162609D01*
X172562D01*
Y161689D01*
X172231Y161357D01*
X171734Y160157D01*
Y158857D01*
X172231Y157657D01*
X173150Y156738D01*
X174350Y156241D01*
X175650D01*
X176850Y156738D01*
X177267Y157154D01*
X178239Y157493D01*
X179210Y157154D01*
X179627Y156738D01*
X180827Y156241D01*
X182127D01*
X183327Y156738D01*
X183764Y157175D01*
X184262Y157344D01*
X184712Y157139D01*
X185399Y155226D01*
X185313Y155047D01*
D01*
X185247Y154924D01*
X185210Y154855D01*
X184713Y153654D01*
X184713Y152355D01*
X185051Y151540D01*
X185050Y151153D01*
X184914Y150746D01*
X184330Y149938D01*
X184286Y149927D01*
X183637Y149805D01*
X183197Y149795D01*
X183031Y149795D01*
X179039D01*
X179038Y149795D01*
X177533Y149593D01*
X177324Y149711D01*
X177324Y149711D01*
X175790D01*
X175650Y149769D01*
X174350D01*
X174210Y149711D01*
X172292D01*
Y149711D01*
X172007Y149739D01*
X171624Y150471D01*
X171342Y151337D01*
X171764Y152355D01*
Y153654D01*
X171267Y154855D01*
X170777Y155344D01*
Y156088D01*
X169591D01*
X169147Y156271D01*
X167848D01*
X167404Y156088D01*
X165746D01*
X165203Y156423D01*
X164764Y157657D01*
X165262Y158857D01*
Y160157D01*
X164764Y161357D01*
X164330Y161792D01*
X164007Y162758D01*
X164330Y163725D01*
X164764Y164159D01*
X165262Y165360D01*
Y166659D01*
X164764Y167860D01*
X164507Y168117D01*
Y168987D01*
X163343D01*
X162645Y169276D01*
X161346D01*
X160647Y168987D01*
X159475D01*
Y168810D01*
X158069Y168314D01*
X157807Y168417D01*
X157412Y168812D01*
X156212Y169309D01*
X154912D01*
X153712Y168812D01*
X152793Y167893D01*
X152296Y166693D01*
Y165393D01*
X152793Y164193D01*
X153712Y163274D01*
X154912Y162776D01*
X156212D01*
X157412Y163274D01*
X157788Y163649D01*
X158268Y163820D01*
X158606Y163539D01*
X158729Y162066D01*
X158729D01*
Y160158D01*
X158729Y160157D01*
Y158857D01*
X158729Y158857D01*
Y157106D01*
X158729Y157034D01*
X158729D01*
X158731Y155582D01*
X158731D01*
Y153659D01*
X158729Y153654D01*
Y152355D01*
X158731Y152351D01*
Y150550D01*
X159830D01*
X160145Y150236D01*
X161346Y149738D01*
X162645D01*
X163846Y150236D01*
X164280Y150670D01*
X164679Y150803D01*
X165774Y150152D01*
X165909Y148533D01*
X165728Y148353D01*
X165231Y147152D01*
Y145853D01*
X165728Y144652D01*
X166163Y144218D01*
X166328Y143723D01*
X165782Y142388D01*
X164279Y142335D01*
X163846Y142769D01*
X162645Y143266D01*
X161346D01*
X160145Y142769D01*
X159931Y142555D01*
X158622D01*
Y137523D01*
X159853D01*
X160145Y137231D01*
X161346Y136734D01*
X162645D01*
X162764Y136783D01*
X165323Y134368D01*
X165231Y134147D01*
Y132848D01*
X165400Y132440D01*
Y128053D01*
X165231Y127645D01*
Y126346D01*
X165400Y125937D01*
Y125297D01*
X165616Y124776D01*
Y124431D01*
X165937D01*
X166500Y124197D01*
X166717D01*
X167848Y123729D01*
X169147D01*
X170278Y124197D01*
X171361D01*
X171995Y122936D01*
Y121774D01*
X171734Y121143D01*
Y119843D01*
X171995Y119212D01*
Y117904D01*
X172233D01*
X172734Y116482D01*
X172665Y116275D01*
X172231Y115841D01*
X171734Y114640D01*
Y113341D01*
X172231Y112140D01*
X172489Y111882D01*
Y110965D01*
X173769D01*
X174350Y110724D01*
X175650D01*
X176231Y110965D01*
X177521D01*
Y111892D01*
X177769Y112140D01*
X178266Y113341D01*
Y114640D01*
X177769Y115841D01*
X177335Y116275D01*
X177141Y116853D01*
X177739Y117596D01*
X179013Y117339D01*
Y117339D01*
X180555D01*
X180827Y117226D01*
X182127D01*
X182399Y117339D01*
X184045D01*
Y118441D01*
X184246Y118643D01*
X184743Y119843D01*
Y121143D01*
X184246Y122343D01*
X184915Y123791D01*
X185294Y124027D01*
X186787Y123954D01*
X187330Y123729D01*
X188629D01*
X188882Y123833D01*
X190326Y124027D01*
D01*
X190360Y124031D01*
X191874Y124054D01*
Y124054D01*
X193046D01*
X193832Y123729D01*
X195131D01*
X195460Y123865D01*
X196904Y124054D01*
X198297Y124029D01*
X198400Y124027D01*
X199879Y123917D01*
X200334Y123729D01*
X201634D01*
X201974Y123869D01*
X203432Y124027D01*
X204872Y124081D01*
X206336Y123936D01*
X206837Y123729D01*
X208136D01*
X208469Y123867D01*
X209904Y124081D01*
Y124081D01*
X210837Y124563D01*
X212209Y124111D01*
Y124111D01*
X212417D01*
X213339Y123729D01*
X214639D01*
X215561Y124111D01*
X215686Y124111D01*
X215686Y124111D01*
X215789Y124100D01*
X216869Y123940D01*
X217295Y123240D01*
X217413Y122444D01*
X217447Y122108D01*
X217357Y121461D01*
X217225Y121143D01*
X217225Y119843D01*
X217506Y119165D01*
Y117862D01*
X218503D01*
X218641Y117724D01*
X219842Y117226D01*
X221141D01*
X222342Y117724D01*
X223260Y118643D01*
X223758Y119843D01*
Y121143D01*
X223260Y122343D01*
X222342Y123262D01*
X221141Y123759D01*
X220202D01*
X219842Y123759D01*
X218794Y123325D01*
X218556Y123299D01*
X217193Y123893D01*
X217186Y123921D01*
X217041Y124630D01*
X217041Y125828D01*
X217255Y126346D01*
Y127645D01*
X217041Y128162D01*
Y129143D01*
X216461D01*
X215839Y129764D01*
X214639Y130262D01*
X213339D01*
X212139Y129764D01*
X211705Y129330D01*
X210738Y129007D01*
X209771Y129330D01*
X209337Y129764D01*
X208136Y130262D01*
X206837D01*
X205636Y129764D01*
X205202Y129330D01*
X204235Y129007D01*
X203269Y129330D01*
X202834Y129764D01*
X201634Y130262D01*
X200334D01*
X199134Y129764D01*
X198700Y129330D01*
X197733Y129007D01*
X196766Y129330D01*
X196332Y129764D01*
X195131Y130262D01*
X193832D01*
X192631Y129764D01*
X192197Y129330D01*
X191231Y129007D01*
X190264Y129330D01*
X189830Y129764D01*
X188629Y130262D01*
X187330D01*
X186129Y129764D01*
X185701Y129336D01*
X184177Y129968D01*
Y131578D01*
X184246Y131647D01*
X184743Y132848D01*
Y134147D01*
X184246Y135348D01*
X184177Y135417D01*
Y135750D01*
X183986Y136212D01*
Y136591D01*
X183702D01*
X183077Y136850D01*
X172591D01*
X171412Y137682D01*
Y138501D01*
X171764Y139350D01*
Y140650D01*
X171412Y141499D01*
Y142714D01*
X171412Y142714D01*
X171492Y143436D01*
X173067Y143816D01*
X173150Y143733D01*
X174350Y143236D01*
X175650D01*
X176850Y143733D01*
X177267Y144150D01*
X178239Y144488D01*
X179210Y144150D01*
X179627Y143733D01*
X180827Y143236D01*
X182127D01*
X183327Y143733D01*
X184246Y144652D01*
X184743Y145853D01*
Y147152D01*
X184246Y148353D01*
X184574Y149687D01*
X184637Y149845D01*
X184679Y149867D01*
X185137Y149982D01*
X185508Y150073D01*
X186250Y150077D01*
X186612Y150009D01*
X187330Y149738D01*
X188629Y149738D01*
X189779Y150215D01*
X190345D01*
X190345Y150215D01*
X191579Y150470D01*
X192027Y150284D01*
Y150284D01*
X193400Y149918D01*
X193832Y149738D01*
X195131D01*
X196332Y150236D01*
X197059Y150284D01*
X198553Y150231D01*
X198553Y150231D01*
X199940Y149902D01*
X200334Y149738D01*
X201634D01*
X202172Y149961D01*
X203585Y150231D01*
X203585D01*
X205054Y150241D01*
X205298Y150230D01*
D01*
X206650Y149816D01*
X206837Y149738D01*
X208136D01*
X208881Y150047D01*
X210329Y150230D01*
X211716Y150203D01*
X213090Y149842D01*
X213339Y149738D01*
X214639D01*
X215302Y150013D01*
X216747Y150203D01*
X217961Y150099D01*
X219410Y149917D01*
X219842Y149738D01*
X221141D01*
X222012Y150099D01*
X222993D01*
Y150887D01*
X223260Y151154D01*
X223758Y152355D01*
Y153654D01*
X223260Y154855D01*
X222826Y155289D01*
X222503Y156256D01*
X222826Y157223D01*
X223260Y157657D01*
X223758Y158857D01*
Y160157D01*
X223260Y161357D01*
X222972Y161646D01*
Y162510D01*
X221778D01*
X221141Y162774D01*
X219842D01*
X219205Y162510D01*
X217940D01*
Y161576D01*
X217722Y161357D01*
X217225Y160157D01*
Y158857D01*
X217722Y157657D01*
X218156Y157223D01*
X218359Y156617D01*
X217729Y155504D01*
X216162Y155451D01*
X215839Y155774D01*
X214639Y156271D01*
X213339D01*
X212139Y155774D01*
X211729Y155364D01*
X211548Y155325D01*
X210043Y156497D01*
X210050Y156938D01*
X210094Y157008D01*
X210836Y158120D01*
X211112Y159507D01*
X210836Y160895D01*
X210050Y162071D01*
X209920Y162158D01*
Y162397D01*
X209562D01*
X208874Y162857D01*
X207487Y163133D01*
X196314D01*
X195683Y164657D01*
X196382Y165356D01*
X196775Y165944D01*
X196913Y166638D01*
Y169952D01*
X197525D01*
Y174984D01*
D02*
G37*
G36*
X262729Y172909D02*
X261429D01*
X260229Y172412D01*
X259310Y171493D01*
X258812Y170292D01*
Y168993D01*
X259310Y167792D01*
X259546Y167556D01*
X260065Y166560D01*
X259546Y165565D01*
X259310Y165328D01*
X258812Y164128D01*
Y162828D01*
X259310Y161628D01*
X260229Y160709D01*
X261429Y160212D01*
X262729D01*
X263929Y160709D01*
X264848Y161628D01*
X265345Y162828D01*
Y164128D01*
X264848Y165328D01*
X264612Y165565D01*
X264093Y166560D01*
X264612Y167556D01*
X264848Y167792D01*
X265345Y168993D01*
Y170292D01*
X264848Y171493D01*
X263929Y172412D01*
X262729Y172909D01*
D02*
G37*
G36*
X70003Y167587D02*
X62818D01*
Y160830D01*
X63675D01*
X63692Y160789D01*
X64611Y159870D01*
X65812Y159373D01*
X67111D01*
X68312Y159870D01*
X69230Y160789D01*
X69247Y160830D01*
X70003D01*
Y167587D01*
D02*
G37*
G36*
X67941Y157130D02*
X67179D01*
X67049Y157076D01*
X66909Y157097D01*
X66198Y156919D01*
X66083Y156833D01*
X65940Y156819D01*
X65280Y156463D01*
X65191Y156355D01*
X65058Y156307D01*
X64500Y155799D01*
X64435Y155662D01*
X64311Y155575D01*
X63905Y154940D01*
X63877Y154789D01*
X63779Y154670D01*
X63550Y153933D01*
X63563Y153800D01*
X63503Y153680D01*
X63452Y152943D01*
X63502Y152795D01*
X63473Y152641D01*
X63625Y151905D01*
X63695Y151802D01*
X63698Y151678D01*
X64003Y150992D01*
X64116Y150885D01*
X64162Y150735D01*
X64644Y150151D01*
X64778Y150080D01*
X64859Y149952D01*
X65469Y149520D01*
X65605Y149489D01*
X65705Y149392D01*
X66416Y149113D01*
X66553Y149115D01*
X66671Y149046D01*
X67408Y148945D01*
X67558Y148984D01*
X67707Y148944D01*
X68469Y149045D01*
X68596Y149119D01*
X68742Y149118D01*
X69428Y149397D01*
X69522Y149490D01*
X69651Y149520D01*
X70261Y149952D01*
X70342Y150080D01*
X70476Y150151D01*
X70959Y150735D01*
X70999Y150869D01*
X71103Y150962D01*
X71434Y151647D01*
X71442Y151806D01*
X71528Y151941D01*
X71655Y152678D01*
X71624Y152812D01*
X71668Y152943D01*
X71617Y153680D01*
X71558Y153800D01*
X71570Y153934D01*
X71341Y154670D01*
X71243Y154789D01*
X71216Y154940D01*
X70809Y155575D01*
X70696Y155655D01*
X70639Y155781D01*
X70106Y156289D01*
X69963Y156345D01*
X69866Y156463D01*
X69206Y156819D01*
X69058Y156834D01*
X68939Y156921D01*
X68202Y157099D01*
X68067Y157078D01*
X67941Y157130D01*
D02*
G37*
G36*
X52265Y164979D02*
X50966D01*
X49765Y164482D01*
X48846Y163563D01*
X48349Y162363D01*
Y161308D01*
X44003D01*
Y155090D01*
X43295Y154797D01*
X42377Y153878D01*
X41879Y152677D01*
Y151378D01*
X42377Y150177D01*
X43295Y149258D01*
X44496Y148761D01*
X45795D01*
X46996Y149258D01*
X47915Y150177D01*
X48163Y150776D01*
X54535D01*
Y160226D01*
X54882Y161063D01*
Y162363D01*
X54385Y163563D01*
X53466Y164482D01*
X52265Y164979D01*
D02*
G37*
G36*
X19694Y164757D02*
X18395D01*
X17194Y164260D01*
X16275Y163341D01*
X15778Y162140D01*
Y161308D01*
X10503D01*
Y155054D01*
X9520Y154647D01*
X8601Y153728D01*
X8104Y152528D01*
Y151228D01*
X8601Y150028D01*
X9520Y149109D01*
X10721Y148612D01*
X12020D01*
X13221Y149109D01*
X14140Y150028D01*
X14450Y150776D01*
X21035D01*
Y158862D01*
X21814Y159640D01*
X22311Y160841D01*
Y162140D01*
X21814Y163341D01*
X20895Y164260D01*
X19694Y164757D01*
D02*
G37*
G36*
X221141Y143266D02*
X219842D01*
X218641Y142769D01*
X218207Y142335D01*
X217240Y142012D01*
X216273Y142335D01*
X215839Y142769D01*
X214639Y143266D01*
X213339D01*
X212139Y142769D01*
X211705Y142335D01*
X210738Y142012D01*
X209771Y142335D01*
X209337Y142769D01*
X208136Y143266D01*
X206837D01*
X205636Y142769D01*
X205202Y142335D01*
X204235Y142012D01*
X203269Y142335D01*
X202834Y142769D01*
X201634Y143266D01*
X200334D01*
X199134Y142769D01*
X198700Y142335D01*
X197733Y142012D01*
X196766Y142335D01*
X196332Y142769D01*
X195131Y143266D01*
X193832D01*
X192631Y142769D01*
X192197Y142335D01*
X191231Y142012D01*
X190264Y142335D01*
X189830Y142769D01*
X188629Y143266D01*
X187330D01*
X186129Y142769D01*
X185210Y141850D01*
X184713Y140650D01*
Y139350D01*
X185210Y138150D01*
X185557Y137803D01*
Y137083D01*
X186485D01*
X187330Y136734D01*
X188629D01*
X189125Y136939D01*
X190589Y137083D01*
X191975Y137069D01*
X193429Y136901D01*
X193832Y136734D01*
X195131D01*
X195550Y136907D01*
X196945Y137062D01*
X198307Y136987D01*
X198309Y136987D01*
Y136987D01*
X199722D01*
X200334Y136734D01*
X201634D01*
X201880Y136836D01*
X203342Y136987D01*
Y136987D01*
X203666Y137104D01*
X205026Y136987D01*
Y136987D01*
X206225D01*
X206837Y136734D01*
X208136D01*
X208565Y136911D01*
X210058Y136987D01*
X211552Y136933D01*
X213044Y136856D01*
X213339Y136734D01*
X214639D01*
X215120Y136933D01*
X216584D01*
Y137218D01*
X218013Y137730D01*
X218207Y137665D01*
X218641Y137231D01*
X219842Y136734D01*
X221141D01*
X222342Y137231D01*
X222642Y137532D01*
X223631D01*
Y139044D01*
X223758Y139350D01*
Y140650D01*
X223631Y140956D01*
Y142563D01*
X222547D01*
X222342Y142769D01*
X221141Y143266D01*
D02*
G37*
G36*
X323638Y143086D02*
X322339D01*
X321138Y142589D01*
X320220Y141670D01*
X319916Y140937D01*
X318607Y140485D01*
X318207Y140491D01*
X318124Y140574D01*
X316924Y141072D01*
X315624D01*
X314424Y140574D01*
X313505Y139655D01*
X313008Y138455D01*
Y137155D01*
X313505Y135955D01*
X314424Y135036D01*
X315624Y134539D01*
X316924D01*
X318124Y135036D01*
X319043Y135955D01*
X319346Y136687D01*
X320655Y137139D01*
X321055Y137133D01*
X321138Y137050D01*
X322339Y136553D01*
X323638D01*
X324839Y137050D01*
X325758Y137969D01*
X326255Y139170D01*
Y140469D01*
X325758Y141670D01*
X324839Y142589D01*
X323638Y143086D01*
D02*
G37*
G36*
X342504Y138624D02*
X341204D01*
X340003Y138127D01*
X339085Y137208D01*
X338587Y136008D01*
Y134708D01*
X339085Y133508D01*
X340003Y132589D01*
X341204Y132092D01*
X342504D01*
X343704Y132589D01*
X344623Y133508D01*
X345120Y134708D01*
Y136008D01*
X344623Y137208D01*
X343704Y138127D01*
X342504Y138624D01*
D02*
G37*
G36*
X95031Y143616D02*
X93732D01*
X92531Y143118D01*
X91613Y142199D01*
X91115Y140999D01*
Y139699D01*
X91613Y138499D01*
X92531Y137580D01*
X93732Y137083D01*
X94099Y136534D01*
X94001Y136297D01*
Y134997D01*
X94498Y133797D01*
X95417Y132878D01*
X96617Y132381D01*
X97917D01*
X99118Y132878D01*
X99144Y132904D01*
X100668Y132273D01*
Y130722D01*
X100670D01*
Y123380D01*
X100323D01*
Y116623D01*
X103584D01*
X103925Y116395D01*
X105312Y116119D01*
X106700Y116395D01*
X107041Y116623D01*
X107508D01*
Y116936D01*
X107876Y117181D01*
X108662Y118358D01*
X108938Y119745D01*
X108662Y121133D01*
X107922Y122241D01*
Y129329D01*
X107957Y129485D01*
X108326Y129686D01*
X109446Y129933D01*
X110127Y129251D01*
X111328Y128753D01*
X112628D01*
X113828Y129251D01*
X114747Y130170D01*
X114976Y130722D01*
X115424D01*
Y137478D01*
X109377D01*
X108239Y137478D01*
X105732Y137478D01*
X105683Y137510D01*
X104296Y137787D01*
X102908Y137510D01*
X102860Y137478D01*
X101552D01*
X100645Y137490D01*
X99411Y138123D01*
X99118Y138416D01*
X97917Y138913D01*
X97550Y139463D01*
X97648Y139699D01*
Y140999D01*
X97151Y142199D01*
X96232Y143118D01*
X95031Y143616D01*
D02*
G37*
G36*
X227687Y130251D02*
X226387D01*
X225187Y129753D01*
X224268Y128834D01*
X223771Y127634D01*
Y126334D01*
X224268Y125134D01*
X225187Y124215D01*
X226387Y123718D01*
X227687D01*
X228887Y124215D01*
X229242Y124570D01*
X229418Y124535D01*
X243513D01*
X244207Y124673D01*
X244332Y124757D01*
X245907D01*
X246158Y124150D01*
X247077Y123231D01*
X248278Y122734D01*
X249577D01*
X250778Y123231D01*
X251696Y124150D01*
X252194Y125350D01*
Y126650D01*
X251696Y127850D01*
X250778Y128769D01*
X249577Y129266D01*
X248278D01*
X247077Y128769D01*
X246690Y128382D01*
X243734D01*
X243041Y128244D01*
X242915Y128161D01*
X230085D01*
X229806Y128834D01*
X228887Y129753D01*
X227687Y130251D01*
D02*
G37*
G36*
X323062Y129183D02*
X321762D01*
X320562Y128686D01*
X319643Y127767D01*
X319146Y126566D01*
Y125267D01*
X319643Y124066D01*
X320562Y123148D01*
X321762Y122650D01*
X323062D01*
X324262Y123148D01*
X325181Y124066D01*
X325678Y125267D01*
Y126566D01*
X325181Y127767D01*
X324262Y128686D01*
X323062Y129183D01*
D02*
G37*
G36*
X301616Y134418D02*
X287584D01*
Y120386D01*
X301616D01*
Y134418D01*
D02*
G37*
G36*
X317534Y122599D02*
X316234D01*
X315034Y122102D01*
X314115Y121183D01*
X313618Y119982D01*
Y118683D01*
X314115Y117482D01*
X315034Y116564D01*
X316234Y116066D01*
X317534D01*
X318734Y116564D01*
X319653Y117482D01*
X320150Y118683D01*
Y119982D01*
X319653Y121183D01*
X318734Y122102D01*
X317534Y122599D01*
D02*
G37*
G36*
X208141Y117289D02*
X206841D01*
X205641Y116791D01*
X205194Y116345D01*
X204260Y116018D01*
X203262Y116332D01*
X202834Y116760D01*
X201634Y117257D01*
X200334D01*
X199134Y116760D01*
X198921Y116547D01*
X197962D01*
Y115229D01*
X197718Y114640D01*
Y113341D01*
X197962Y112752D01*
Y111515D01*
X198841D01*
X199134Y111221D01*
X200334Y110724D01*
X201634D01*
X202834Y111221D01*
X203281Y111668D01*
X203607Y111782D01*
X204888Y111412D01*
X204967Y111362D01*
Y111098D01*
X206015D01*
X206841Y110756D01*
X208141D01*
X208967Y111098D01*
X209998D01*
Y111105D01*
X211351Y111785D01*
X211698Y111662D01*
X212139Y111221D01*
X213339Y110724D01*
X214639D01*
X215839Y111221D01*
X216097Y111479D01*
X216997D01*
Y112718D01*
X217255Y113341D01*
Y114640D01*
X216997Y115263D01*
Y116511D01*
X216088D01*
X215839Y116760D01*
X214639Y117257D01*
X213339D01*
X212139Y116760D01*
X211717Y116338D01*
X210718Y116019D01*
X209782Y116351D01*
X209341Y116791D01*
X208141Y117289D01*
D02*
G37*
G36*
X265926Y139265D02*
X264627D01*
X263426Y138768D01*
X262507Y137849D01*
X262010Y136648D01*
Y135349D01*
X262281Y134696D01*
X261554Y133291D01*
X261422Y133172D01*
X260221Y132674D01*
X259303Y131756D01*
X258805Y130555D01*
Y129256D01*
X259303Y128055D01*
X260221Y127136D01*
X260852Y125730D01*
X260355Y124530D01*
Y123230D01*
X260852Y122030D01*
X261771Y121111D01*
X262971Y120614D01*
X264271D01*
X265471Y121111D01*
X266390Y122030D01*
X266888Y123230D01*
Y124530D01*
X266390Y125730D01*
X265471Y126649D01*
X264841Y128055D01*
X265338Y129256D01*
Y130555D01*
X266317Y131950D01*
X267164Y132112D01*
X268687Y130590D01*
Y115569D01*
X268260Y115234D01*
X266769Y114850D01*
X265850Y115769D01*
X264650Y116266D01*
X263350D01*
X262150Y115769D01*
X261717Y115337D01*
X260750Y115012D01*
X259783Y115337D01*
X259350Y115769D01*
X258150Y116266D01*
X256968D01*
X256755Y116349D01*
X255560Y117382D01*
Y118109D01*
X255063Y119309D01*
X254144Y120228D01*
X252944Y120725D01*
X251644D01*
X250444Y120228D01*
X249525Y119309D01*
X249028Y118109D01*
Y118062D01*
X247504Y117719D01*
X247359Y117864D01*
X246771Y118257D01*
X246077Y118394D01*
X229514D01*
X228820Y118257D01*
X228232Y117864D01*
X221123Y110754D01*
X221085Y110770D01*
X219786D01*
X218585Y110272D01*
X217666Y109353D01*
X217169Y108153D01*
Y106853D01*
X217666Y105653D01*
X218071Y105248D01*
X218015Y103698D01*
X216779Y103107D01*
X216260Y103285D01*
X215837Y103709D01*
X214636Y104206D01*
X213337D01*
X212136Y103709D01*
X211697Y103269D01*
X210697Y102968D01*
X209773Y103285D01*
X209311Y103747D01*
X208110Y104244D01*
X206811D01*
X205610Y103747D01*
X205198Y103334D01*
X204191Y103010D01*
X203258Y103350D01*
X202824Y103785D01*
X201623Y104282D01*
X200324D01*
X199123Y103785D01*
X198204Y102866D01*
X197707Y101665D01*
Y100366D01*
X198204Y99165D01*
X198587Y98783D01*
X198943Y97779D01*
X198576Y96824D01*
X198178Y96426D01*
X197681Y95225D01*
Y93926D01*
X198178Y92725D01*
X197453Y91624D01*
X196535Y90705D01*
X196037Y89505D01*
Y88205D01*
X196535Y87005D01*
X197453Y86086D01*
X198654Y85589D01*
X199953D01*
X201154Y86086D01*
X202073Y87005D01*
X202570Y88205D01*
Y89505D01*
X202073Y90705D01*
X202798Y91806D01*
X203717Y92725D01*
X204214Y93926D01*
Y95225D01*
X203717Y96426D01*
X203334Y96809D01*
X203166Y97283D01*
X203723Y98471D01*
X205306Y98512D01*
X205610Y98208D01*
X206811Y97711D01*
X208110D01*
X209311Y98208D01*
X209750Y98648D01*
X210751Y98949D01*
X211674Y98632D01*
X212136Y98170D01*
X213058Y97788D01*
X213344Y97664D01*
X214242Y96520D01*
X214242Y96265D01*
Y91694D01*
X212717Y90766D01*
X212305Y90937D01*
X211005D01*
X209805Y90439D01*
X208886Y89521D01*
X208388Y88320D01*
Y87021D01*
X208886Y85820D01*
X209805Y84901D01*
X211005Y84404D01*
X212305D01*
X213036Y84707D01*
X213899Y83415D01*
X201686Y71201D01*
X201293Y70613D01*
X201155Y69920D01*
Y63944D01*
X200425D01*
Y48907D01*
X210458D01*
Y63944D01*
X208845D01*
Y67485D01*
X221755Y80396D01*
X222148Y80984D01*
X222286Y81678D01*
Y86903D01*
X223810Y87206D01*
X224083Y86547D01*
X225002Y85629D01*
X226203Y85131D01*
X227464D01*
X227569Y85021D01*
X228300Y83812D01*
X216686Y72198D01*
X216293Y71610D01*
X216155Y70916D01*
Y63944D01*
X215437D01*
Y48907D01*
X225444D01*
Y63944D01*
X223845D01*
Y68482D01*
X231684Y76321D01*
X232976Y75458D01*
X232958Y75415D01*
Y74115D01*
X233455Y72915D01*
X234374Y71996D01*
X235574Y71499D01*
X236874D01*
X238074Y71996D01*
X238993Y72915D01*
X239491Y74115D01*
Y75415D01*
X238993Y76615D01*
X238074Y77534D01*
X236874Y78031D01*
X235574D01*
X235532Y78014D01*
X234668Y79306D01*
X243251Y87889D01*
X243645Y88477D01*
X243783Y89171D01*
Y92092D01*
X245345Y93654D01*
X245737Y94242D01*
X245875Y94936D01*
Y102669D01*
X245737Y103363D01*
X245345Y103951D01*
X244375Y104921D01*
X245006Y106445D01*
X265124D01*
X265818Y106582D01*
X266230Y106858D01*
X266520Y106916D01*
X267108Y107309D01*
X271782Y111982D01*
X272175Y112570D01*
X272313Y113264D01*
Y131341D01*
X272175Y132034D01*
X271782Y132622D01*
X268543Y135861D01*
Y136648D01*
X268046Y137849D01*
X267127Y138768D01*
X265926Y139265D01*
D02*
G37*
G36*
X188629Y117257D02*
X187330D01*
X186129Y116760D01*
X185210Y115841D01*
X184713Y114640D01*
Y113341D01*
X185210Y112140D01*
X185456Y111894D01*
Y110894D01*
X186918D01*
X187330Y110724D01*
X188629D01*
X189041Y110894D01*
X190488D01*
Y111880D01*
X190749Y112140D01*
X191246Y113341D01*
Y114640D01*
X190749Y115841D01*
X189830Y116760D01*
X188629Y117257D01*
D02*
G37*
G36*
X53400Y116266D02*
X52100D01*
X50900Y115769D01*
X49981Y114850D01*
X49484Y113650D01*
Y112350D01*
X49981Y111150D01*
X50900Y110231D01*
X52100Y109734D01*
X53400D01*
X54600Y110231D01*
X55519Y111150D01*
X56016Y112350D01*
Y113650D01*
X55519Y114850D01*
X54600Y115769D01*
X53400Y116266D01*
D02*
G37*
G36*
X40400D02*
X39100D01*
X37900Y115769D01*
X36981Y114850D01*
X36593Y113914D01*
X36311D01*
Y107867D01*
X36311Y106728D01*
X34948Y106340D01*
X29190D01*
X29190Y106340D01*
X27803Y106064D01*
X26626Y105278D01*
X26626Y105278D01*
X17686Y96338D01*
X16900Y95162D01*
X16624Y93774D01*
X16624Y93774D01*
Y51250D01*
X16624Y51250D01*
X16900Y49862D01*
X17686Y48686D01*
X26455Y39917D01*
X26448Y39296D01*
X26145Y38272D01*
X25238Y37896D01*
X24319Y36977D01*
X23822Y35777D01*
Y34477D01*
X24319Y33277D01*
X25238Y32358D01*
X26439Y31860D01*
X27738D01*
X28939Y32358D01*
X29858Y33277D01*
X30355Y34477D01*
Y35777D01*
X29858Y36977D01*
X29565Y37270D01*
X30196Y38794D01*
X50530D01*
X50728Y38743D01*
X51338Y37270D01*
X51059Y36991D01*
X50562Y35791D01*
Y34491D01*
X51059Y33291D01*
X51907Y32443D01*
Y31683D01*
X59093D01*
X59093Y31683D01*
X59479D01*
Y31683D01*
X60617Y31683D01*
X64185D01*
X65226Y31476D01*
X65291Y31463D01*
X66664Y31683D01*
Y31736D01*
X66679Y31739D01*
X67855Y32524D01*
X68641Y33701D01*
X68917Y35088D01*
X68641Y36476D01*
X68476Y36723D01*
Y36840D01*
X68476Y36840D01*
X68200Y38227D01*
X67414Y39404D01*
X67414Y39404D01*
X61834Y44984D01*
X60657Y45770D01*
X59270Y46046D01*
X59270Y46046D01*
X30582D01*
X23876Y52752D01*
Y92272D01*
X30692Y99089D01*
X39511D01*
X39778Y99142D01*
X39867Y99124D01*
X64761D01*
X64927Y99157D01*
X68317D01*
Y102400D01*
X68387Y102750D01*
X68317Y103100D01*
X68317Y106343D01*
X68317Y108225D01*
X68716Y109187D01*
Y110486D01*
X68317Y111448D01*
Y113914D01*
X61561D01*
X61561Y106728D01*
X60183Y106376D01*
X44445D01*
X43067Y106728D01*
X43067Y107900D01*
Y113914D01*
X42907D01*
X42519Y114850D01*
X41600Y115769D01*
X40400Y116266D01*
D02*
G37*
G36*
X167973Y95246D02*
X166673D01*
X165473Y94748D01*
X164554Y93829D01*
X164057Y92629D01*
Y91329D01*
X164554Y90129D01*
X165473Y89210D01*
X166673Y88713D01*
X167973D01*
X169173Y89210D01*
X170092Y90129D01*
X170590Y91329D01*
Y92629D01*
X170092Y93829D01*
X169173Y94748D01*
X167973Y95246D01*
D02*
G37*
G36*
X92629Y92179D02*
X91330D01*
X90129Y91682D01*
X89211Y90763D01*
X88713Y89563D01*
Y88263D01*
X89211Y87063D01*
X90129Y86144D01*
X91330Y85646D01*
X92629D01*
X93830Y86144D01*
X94749Y87063D01*
X95246Y88263D01*
Y89563D01*
X94749Y90763D01*
X93830Y91682D01*
X92629Y92179D01*
D02*
G37*
G36*
X180150Y74016D02*
X178850D01*
X177650Y73519D01*
X176731Y72600D01*
X176318Y71604D01*
X175365Y71158D01*
X174710Y70975D01*
X173650Y71414D01*
X172350D01*
X171150Y70917D01*
X170231Y69998D01*
X169734Y68797D01*
Y67498D01*
X170231Y66297D01*
X171061Y65468D01*
X171024Y65032D01*
X170631Y63944D01*
X170428D01*
Y48907D01*
X180461D01*
Y63944D01*
X175369D01*
X174975Y65032D01*
X174939Y65468D01*
X175769Y66297D01*
X176182Y67294D01*
X177135Y67740D01*
X177790Y67923D01*
X178850Y67484D01*
X180150D01*
X181350Y67981D01*
X182081Y68712D01*
X182981Y68628D01*
X183694Y68357D01*
X184103Y67370D01*
X185021Y66451D01*
X185587Y66217D01*
Y63944D01*
X185414D01*
Y48907D01*
X195447D01*
Y63944D01*
X194404D01*
Y67874D01*
X194442Y67889D01*
X195361Y68808D01*
X195858Y70009D01*
Y71308D01*
X195361Y72509D01*
X194442Y73428D01*
X193241Y73925D01*
X191942D01*
X190741Y73428D01*
X189822Y72509D01*
X189687Y72181D01*
X188722Y71989D01*
X187521Y72487D01*
X186222D01*
X185021Y71989D01*
X184290Y71258D01*
X183391Y71342D01*
X182678Y71613D01*
X182269Y72600D01*
X181350Y73519D01*
X180150Y74016D01*
D02*
G37*
G36*
X300674Y63281D02*
X300674Y63281D01*
X285990D01*
X285990Y63281D01*
X285811Y63246D01*
X270353D01*
X270353Y63246D01*
X270187Y63213D01*
X266974D01*
Y61684D01*
X266409Y60837D01*
X266133Y59450D01*
X266380Y58209D01*
X266310Y58124D01*
X265001Y57432D01*
X263800Y57930D01*
X262501D01*
X261300Y57432D01*
X261279Y57411D01*
X260828Y57415D01*
X259573Y57861D01*
X259258Y58623D01*
X258339Y59542D01*
X257139Y60039D01*
X255839D01*
X254639Y59542D01*
X253720Y58623D01*
X253222Y57422D01*
Y56123D01*
X253720Y54922D01*
X254639Y54003D01*
X255839Y53506D01*
X257139D01*
X258339Y54003D01*
X258360Y54025D01*
X258811Y54021D01*
X260066Y53575D01*
X260382Y52813D01*
X261300Y51894D01*
X262501Y51397D01*
X263800D01*
X265001Y51894D01*
X265157Y52050D01*
X266974D01*
Y48456D01*
X273731D01*
X273731Y55641D01*
X275109Y55994D01*
X281314D01*
X282255Y55598D01*
X282317Y55258D01*
X282409Y54041D01*
X281602Y53233D01*
X281105Y52033D01*
Y50733D01*
X281602Y49533D01*
X282521Y48614D01*
X282612Y48577D01*
Y48317D01*
X282612Y48262D01*
X282480Y46792D01*
X265597D01*
X265581Y46830D01*
X264663Y47749D01*
X263462Y48246D01*
X262163D01*
X260962Y47749D01*
X260043Y46830D01*
X259546Y45629D01*
Y44330D01*
X260043Y43129D01*
X260962Y42211D01*
X262163Y41713D01*
X263462D01*
X264663Y42211D01*
X265581Y43129D01*
X265597Y43167D01*
X294346D01*
X295040Y43305D01*
X295628Y43698D01*
X300068Y48138D01*
X304572D01*
Y54185D01*
X304572Y55324D01*
X304572Y58241D01*
X304789Y58767D01*
Y60066D01*
X304572Y60591D01*
Y62895D01*
X302226D01*
X302061Y63005D01*
X300674Y63281D01*
D02*
G37*
G36*
X323150Y54517D02*
X321850D01*
X320650Y54019D01*
X319731Y53100D01*
X319715Y53063D01*
X312285D01*
X312269Y53100D01*
X311350Y54019D01*
X310150Y54517D01*
X308850D01*
X307650Y54019D01*
X306731Y53100D01*
X306234Y51900D01*
Y50600D01*
X306731Y49400D01*
X307650Y48481D01*
X308850Y47984D01*
X310150D01*
X311350Y48481D01*
X312269Y49400D01*
X312285Y49437D01*
X319715D01*
X319731Y49400D01*
X320650Y48481D01*
X321850Y47984D01*
X323150D01*
X324350Y48481D01*
X325269Y49400D01*
X325766Y50600D01*
Y51900D01*
X325269Y53100D01*
X324350Y54019D01*
X323150Y54517D01*
D02*
G37*
G36*
X165450Y63944D02*
X155417D01*
Y48907D01*
X165450D01*
Y63944D01*
D02*
G37*
G36*
X283315Y41589D02*
X276130D01*
Y34832D01*
X283315D01*
Y41589D01*
D02*
G37*
G36*
X221865Y36588D02*
X220565D01*
X219365Y36091D01*
X218446Y35172D01*
X217949Y33971D01*
Y32672D01*
X218446Y31471D01*
X219365Y30552D01*
X220565Y30055D01*
X221865D01*
X223065Y30552D01*
X223984Y31471D01*
X224482Y32672D01*
Y33971D01*
X223984Y35172D01*
X223065Y36091D01*
X221865Y36588D01*
D02*
G37*
G36*
X335520Y29258D02*
X335397Y29213D01*
X335269Y29239D01*
X334608Y29112D01*
X334477Y29026D01*
X334320Y29015D01*
X333711Y28710D01*
X333591Y28571D01*
X333422Y28501D01*
X332939Y28019D01*
X332886Y27892D01*
X332775Y27810D01*
X332420Y27226D01*
X332398Y27091D01*
X332310Y26987D01*
X332107Y26351D01*
X332122Y26175D01*
X332054Y26012D01*
Y25326D01*
X332119Y25169D01*
X332103Y24999D01*
X332306Y24339D01*
X332397Y24228D01*
X332420Y24087D01*
X332775Y23503D01*
X332898Y23413D01*
X332960Y23273D01*
X333443Y22816D01*
X333584Y22762D01*
X333679Y22645D01*
X334288Y22315D01*
X334462Y22297D01*
X334608Y22201D01*
X335269Y22074D01*
X335417Y22104D01*
X335561Y22057D01*
X336247Y22108D01*
X336386Y22178D01*
X336542Y22171D01*
X337177Y22399D01*
X337284Y22497D01*
X337427Y22527D01*
X337986Y22908D01*
X338077Y23047D01*
X338224Y23127D01*
X338656Y23661D01*
X338699Y23807D01*
X338809Y23913D01*
X339089Y24548D01*
X339092Y24719D01*
X339176Y24869D01*
X339252Y25529D01*
X339216Y25654D01*
X339253Y25780D01*
X339176Y26465D01*
X339089Y26625D01*
X339082Y26806D01*
X338802Y27416D01*
X338697Y27514D01*
X338656Y27653D01*
X338224Y28186D01*
X338092Y28258D01*
X338013Y28386D01*
X337454Y28792D01*
X337297Y28830D01*
X337177Y28939D01*
X336542Y29168D01*
X336366Y29160D01*
X336206Y29233D01*
X335520Y29258D01*
D02*
G37*
%LPD*%
G36*
X231229Y98692D02*
X231636Y98285D01*
X232837Y97787D01*
X234136D01*
X235337Y98285D01*
X235543Y98490D01*
X237178Y98455D01*
X237790Y97272D01*
X237608Y96793D01*
X236624Y95808D01*
X236231Y95220D01*
X236093Y94527D01*
Y91605D01*
X231438Y86950D01*
X230229Y87681D01*
X230119Y87786D01*
Y89047D01*
X229621Y90248D01*
X228703Y91167D01*
X227502Y91664D01*
X226203D01*
X225002Y91167D01*
X224083Y90248D01*
X222485Y90372D01*
X222186Y91308D01*
X222342Y91740D01*
X223260Y92658D01*
X223758Y93859D01*
Y95158D01*
X223260Y96359D01*
X222872Y96748D01*
X222678Y97250D01*
X223238Y98526D01*
X224777Y98583D01*
X225144Y98216D01*
X226344Y97719D01*
X227644D01*
X228844Y98216D01*
X229291Y98664D01*
X230193Y99005D01*
X231229Y98692D01*
D02*
G37*
D12*
X328853Y423806D02*
X332054D01*
X333330Y422531D02*
X333860D01*
X332054Y423806D02*
X333330Y422531D01*
X231077Y435203D02*
X237297D01*
X105866Y436559D02*
X106685Y437377D01*
X102761Y436559D02*
X105866D01*
X281077Y435203D02*
X287297D01*
X281077Y424797D02*
X287297D01*
X168498Y146502D02*
X175000D01*
X168498D02*
Y153005D01*
X328638Y362210D02*
X333136D01*
X333372Y361974D01*
X230883Y424746D02*
X237246D01*
D14*
X187400Y59600D02*
X187500Y59500D01*
X187400Y59600D02*
Y68692D01*
X186872Y69220D02*
X187400Y68692D01*
X120616Y44595D02*
X123897Y41314D01*
X120616Y44595D02*
Y46807D01*
X115514Y50088D02*
X117335D01*
X123897Y41314D02*
X127550D01*
X117335Y50088D02*
X120616Y46807D01*
X109260Y56342D02*
X115514Y50088D01*
X81882Y56342D02*
X109260D01*
X127550Y41314D02*
X130133Y43897D01*
X92598Y18731D02*
X95556Y15772D01*
X92598Y18731D02*
Y49107D01*
X85576Y50000D02*
X91705D01*
X92598Y49107D01*
X133054Y31492D02*
Y58946D01*
X117335Y15772D02*
X133054Y31492D01*
X95556Y15772D02*
X117335D01*
X81774Y46197D02*
X85576Y50000D01*
X81509Y20470D02*
X94967Y7012D01*
X113881D01*
X148976Y42107D01*
X264756Y53863D02*
X268752D01*
X263956Y54663D02*
X264756Y53863D01*
X263151Y54663D02*
X263956D01*
X262812Y44980D02*
X294346D01*
X298284Y430005D02*
X298289Y430010D01*
X285505Y430005D02*
X298284D01*
X303340Y365147D02*
X303354Y365133D01*
X294041Y365147D02*
X303340D01*
X294027Y365161D02*
X294041Y365147D01*
X266343Y430591D02*
X266638Y430295D01*
X270705D02*
X271000Y430000D01*
X266638Y430295D02*
X270705D01*
X235500Y430000D02*
X245000D01*
X285500D02*
X285505Y430005D01*
X265000Y425000D02*
X271000D01*
X220705Y430295D02*
X221000Y430000D01*
X215145Y430295D02*
X220705D01*
X214850Y430591D02*
X215145Y430295D01*
X220914Y424915D02*
X221000Y425000D01*
X214986Y424915D02*
X220914D01*
X214900Y424829D02*
X214986Y424915D01*
X275005Y365287D02*
X279401D01*
X279527Y365161D01*
X274880Y365412D02*
X275005Y365287D01*
X188135Y200954D02*
X189336Y199753D01*
X192577D01*
X268752Y53863D02*
X270292Y52324D01*
Y52084D02*
Y52324D01*
X299318Y49952D02*
X299532D01*
X301132Y51552D01*
Y51766D01*
X294346Y44980D02*
X299318Y49952D01*
X128670Y49012D02*
X130133Y47550D01*
X128670Y49012D02*
Y51136D01*
X132500Y59500D02*
X133054Y58946D01*
X130133Y43897D02*
Y47550D01*
X126700Y53107D02*
X128670Y51136D01*
X147949Y47626D02*
Y59051D01*
Y47626D02*
X148976Y46599D01*
X147500Y59500D02*
X147949Y59051D01*
X148976Y42107D02*
Y46599D01*
X192591Y59592D02*
Y70658D01*
X192500Y59500D02*
X192591Y59592D01*
X220473Y81678D02*
Y90510D01*
X207032Y59968D02*
Y68236D01*
X220473Y81678D01*
X202968Y69920D02*
X216409Y83361D01*
Y88826D01*
X202968Y59968D02*
Y69920D01*
X129685Y131722D02*
Y134573D01*
X129792Y134680D01*
X129793Y134681D02*
X133260Y138148D01*
X129685Y134787D02*
X129792Y134680D01*
X325000Y374348D02*
Y375000D01*
X326902Y372446D02*
X328402D01*
X325000Y374348D02*
X326902Y372446D01*
X305000Y464787D02*
Y465000D01*
Y464787D02*
X332873Y436914D01*
X80000Y410000D02*
X90000Y400000D01*
Y378615D02*
Y400000D01*
X325000Y435000D02*
X325806D01*
X326511Y434295D01*
X328364D01*
X328853Y433806D01*
X213622Y330700D02*
X220722Y337800D01*
X110836Y444309D02*
X111642D01*
X108087Y441559D02*
X110836Y444309D01*
X102761Y441559D02*
X108087D01*
X76500Y441000D02*
X76613Y441113D01*
X90141D01*
X90587Y441559D02*
X96011D01*
X90141Y441113D02*
X90587Y441559D01*
X46636Y489433D02*
X48993Y491790D01*
X46326Y489433D02*
X46636D01*
X48993Y491790D02*
Y492055D01*
X333055Y422531D02*
X333860D01*
X332267Y423318D02*
X333055Y422531D01*
X333372Y361169D02*
Y361974D01*
X278599Y440240D02*
Y441045D01*
X280305Y435975D02*
X280875Y435406D01*
X237297Y435203D02*
X237500Y435000D01*
X103944Y431559D02*
X104750Y430753D01*
X102761Y431559D02*
X103944D01*
X179312Y198023D02*
X179534Y197801D01*
X179312Y198023D02*
Y213402D01*
X101500Y171500D02*
X107647Y177647D01*
Y181180D02*
X108217Y181749D01*
X107647Y177647D02*
Y181180D01*
X117311Y149204D02*
Y173917D01*
X117673Y174279D01*
Y177913D01*
X118035Y178275D02*
Y192299D01*
X117673Y177913D02*
X118035Y178275D01*
X128245Y172876D02*
X129846Y174476D01*
X128082Y172370D02*
X128245Y172533D01*
Y172876D01*
X115479Y222163D02*
X118040Y219602D01*
Y203592D02*
X119699Y201932D01*
X115479Y222163D02*
Y247708D01*
X118400Y250629D01*
X118040Y203592D02*
Y219602D01*
X119699Y193963D02*
Y201932D01*
X118400Y250629D02*
Y250971D01*
X118040Y192304D02*
X119699Y193963D01*
X118035Y192299D02*
X118040Y192304D01*
X118400Y250971D02*
X120000Y252571D01*
X250113Y269949D02*
X254159Y273995D01*
X250015Y269949D02*
X250113D01*
X244063Y94936D02*
Y102669D01*
X241970Y92843D02*
X244063Y94936D01*
X241682Y105050D02*
X244063Y102669D01*
X239999Y96620D02*
Y100986D01*
X243513Y126348D02*
X243734Y126570D01*
X227607Y126415D02*
X229352D01*
X243734Y126570D02*
X248358D01*
X227037Y126984D02*
X227607Y126415D01*
X229352D02*
X229418Y126348D01*
X243513D01*
X248358Y126570D02*
X248927Y126000D01*
X265124Y108257D02*
X265457Y108591D01*
X226999Y107465D02*
X227569Y108034D01*
X229158D01*
X229380Y108257D01*
X265124D01*
X234292Y101054D02*
X235560Y102321D01*
X235587D01*
X233487Y101054D02*
X234292D01*
X237906Y94527D02*
X239999Y96620D01*
X237906Y90854D02*
Y94527D01*
X235587Y102321D02*
X238315Y105050D01*
X241682D01*
X246996Y115663D02*
X249693D01*
X251488Y117459D01*
X252294D01*
X246077Y116582D02*
X246996Y115663D01*
X229514Y116582D02*
X246077D01*
X246573Y184816D02*
Y196208D01*
Y184816D02*
X246920Y184469D01*
X265842Y135999D02*
X270500Y131341D01*
Y113264D02*
Y131341D01*
X265277Y135999D02*
X265842D01*
X246453Y196328D02*
X246573Y196208D01*
X215603Y380483D02*
X215956Y380130D01*
X215603Y380483D02*
Y382397D01*
X215250Y382750D02*
X215603Y382397D01*
X291650Y221928D02*
X299403D01*
X265826Y108591D02*
X270500Y113264D01*
X265457Y108591D02*
X265826D01*
X220436Y107503D02*
X229514Y116582D01*
X241970Y89171D02*
Y92843D01*
X315498Y393562D02*
X332634Y376426D01*
X336422D01*
X340402Y372446D01*
X315498Y393562D02*
Y396171D01*
X315000Y396670D02*
X315498Y396171D01*
X287297Y435203D02*
X287500Y435000D01*
X332873Y436914D02*
X337745D01*
X340853Y433806D01*
X342352D01*
X359842Y423342D02*
Y441939D01*
X353002Y442983D02*
X357245D01*
X358825Y442955D02*
X359842Y441939D01*
X348868Y445762D02*
X350431Y444200D01*
X351785D01*
X357273Y442955D02*
X358825D01*
X351785Y444200D02*
X353002Y442983D01*
X357245D02*
X357273Y442955D01*
X357422Y420922D02*
X359842Y423342D01*
X350237Y420922D02*
X352578D01*
X356241D02*
X357422D01*
X355000Y419681D02*
X356241Y420922D01*
X344341Y428108D02*
X345233Y427215D01*
X344341Y428108D02*
Y428318D01*
X343853Y428806D02*
X344341Y428318D01*
X352578Y420922D02*
X355000Y418500D01*
X347262Y423898D02*
Y425658D01*
X355000Y418500D02*
Y419681D01*
X345233Y427215D02*
X345704D01*
X347262Y425658D01*
Y423898D02*
X350237Y420922D01*
X342352Y428806D02*
X343853D01*
X338517Y449140D02*
X346452D01*
X346541Y449229D01*
X346755D01*
X348868Y445762D02*
Y447116D01*
X346755Y449229D02*
X348868Y447116D01*
X305000Y395402D02*
Y408363D01*
X287297Y424797D02*
X287500Y425000D01*
X256029Y424278D02*
X257630Y425879D01*
Y426672D01*
X257943Y426986D02*
Y434058D01*
X257630Y426672D02*
X257943Y426986D01*
X207032Y59968D02*
X207500Y59500D01*
X220118Y94136D02*
X220491Y94509D01*
X220118Y90865D02*
X220473Y90510D01*
X220118Y90865D02*
Y94136D01*
X161827Y107434D02*
X161972D01*
X147968Y93575D02*
X161827Y107434D01*
X132500Y59500D02*
Y70923D01*
X133313Y71735D01*
X144667Y93575D02*
X147968D01*
X133313Y71735D02*
Y76155D01*
X142368Y91277D02*
X144667Y93575D01*
X133313Y76155D02*
X133446Y76288D01*
Y81622D01*
X142368Y90544D01*
Y91277D01*
X126762Y58762D02*
X127500Y59500D01*
X126762Y54431D02*
Y58762D01*
X126700Y54369D02*
X126762Y54431D01*
X126700Y53107D02*
Y54369D01*
X155416Y107434D02*
X155485D01*
X144478Y96496D02*
X155416Y107434D01*
X143457Y96496D02*
X144478D01*
X127500Y71628D02*
X130392Y74520D01*
X127500Y59500D02*
Y71628D01*
X130392Y74520D02*
Y77365D01*
X139447Y92486D02*
X143457Y96496D01*
X130392Y77365D02*
X130525Y77498D01*
X139447Y91754D02*
Y92486D01*
X130525Y82832D02*
X139447Y91754D01*
X130525Y77498D02*
Y82832D01*
X202500Y59500D02*
X202968Y59968D01*
X216054Y96520D02*
X220474Y100939D01*
X216054Y89182D02*
X216409Y88826D01*
X216054Y89182D02*
Y96520D01*
X222032Y59968D02*
X222500Y59500D01*
X222032Y59968D02*
Y69233D01*
X241970Y89171D01*
X142500Y46806D02*
Y59500D01*
Y46806D02*
X144567Y44739D01*
Y43933D02*
Y44739D01*
X217500Y59500D02*
X217968Y59968D01*
Y70916D01*
X237906Y90854D01*
X305722Y314274D02*
Y327232D01*
X118785Y147730D02*
X128714D01*
X117311Y149204D02*
X118785Y147730D01*
X254159Y273995D02*
Y296341D01*
X250500Y300000D02*
X254159Y296341D01*
X249750Y300000D02*
X250500D01*
X161995Y140000D02*
X168681Y133692D01*
X181591Y126973D02*
X181779Y120502D01*
X346811Y362537D02*
X350281Y359067D01*
X359944Y360733D02*
Y380036D01*
X358955Y359745D02*
X359944Y360733D01*
X356974Y359745D02*
X358955D01*
X355961Y358731D02*
X356974Y359745D01*
X355961Y356750D02*
Y358731D01*
X344783Y365855D02*
X345253D01*
X343890Y366747D02*
X344783Y365855D01*
X343402Y367446D02*
X343890Y366958D01*
X341902Y367446D02*
X343402D01*
X343890Y366747D02*
Y366958D01*
X346811Y362537D02*
Y364297D01*
X350281Y359067D02*
X353644D01*
X345253Y365855D02*
X346811Y364297D01*
X353644Y359067D02*
X355961Y356750D01*
X265496Y361876D02*
Y369901D01*
X266846Y371252D01*
X205500Y427145D02*
Y428250D01*
X207850Y430600D01*
Y434628D01*
X215362Y373581D02*
X216756D01*
X220722Y337800D02*
Y369615D01*
X222932Y200457D02*
X223253D01*
X91114Y374692D02*
X93749Y372057D01*
Y371251D02*
Y372057D01*
X91114Y374692D02*
Y377501D01*
X89377Y477512D02*
X99293D01*
X99709Y477096D01*
X129846Y174476D02*
X150944D01*
X128714Y147730D02*
X133260Y143184D01*
X216756Y373581D02*
X220722Y369615D01*
X217059Y294146D02*
X217704Y293500D01*
X90000Y378615D02*
X91114Y377501D01*
X136956Y108192D02*
X142417Y113652D01*
X124731Y95349D02*
X130052Y100669D01*
X124731Y94049D02*
Y95349D01*
X131496Y100669D02*
X136956Y106130D01*
X142417Y113652D02*
X148612D01*
X136956Y106130D02*
Y108192D01*
X130052Y100669D02*
X131496D01*
X121743Y91061D02*
X124731Y94049D01*
X309500Y51250D02*
X322500D01*
X133260Y138148D02*
Y143184D01*
X150944Y174476D02*
X155510Y179043D01*
X154779Y198935D02*
Y199150D01*
X155292Y192196D02*
X155486Y192002D01*
X154779Y198935D02*
X155292Y198423D01*
Y192196D02*
Y198423D01*
X148612Y113652D02*
X148937Y113977D01*
X175024Y125479D02*
X175162Y120734D01*
X187783Y126989D02*
X187783D01*
X187061Y126968D02*
X187783Y126989D01*
X181590Y126999D02*
X181591Y126973D01*
X182315Y126830D01*
X181477Y126995D02*
X181591Y126973D01*
X187979Y159517D02*
Y159650D01*
X192669Y164206D02*
X195100Y166638D01*
X192535Y164206D02*
X192669D01*
X187979Y159650D02*
X192535Y164206D01*
X195100Y166638D02*
Y172457D01*
X212387Y210245D02*
X213987Y208645D01*
X216098D01*
X221370Y203374D01*
Y202020D02*
Y203374D01*
Y202020D02*
X222932Y200457D01*
X152964Y200750D02*
X153179D01*
X154779Y199150D01*
X178964Y213750D02*
X179312Y213402D01*
X120000Y252571D02*
Y261214D01*
X298020Y190000D02*
X298577Y190557D01*
X295000Y190000D02*
X298020D01*
X318510Y312317D02*
X330139D01*
X310833Y304640D02*
X318510Y312317D01*
X310833Y297297D02*
Y304640D01*
X306668Y293132D02*
X310833Y297297D01*
X306668Y292918D02*
Y293132D01*
X305722Y327232D02*
X307304Y328814D01*
X340402Y372446D02*
X341902D01*
X350232Y382046D02*
X355465D01*
X348157Y384121D02*
Y385475D01*
X355465Y382046D02*
X357935D01*
X348157Y384121D02*
X350232Y382046D01*
X109726Y309022D02*
X125623D01*
X109551Y308847D02*
X109726Y309022D01*
X145372Y308356D02*
X146038Y309022D01*
X145372Y293195D02*
Y308356D01*
X195861Y373475D02*
X195882D01*
X194748Y374588D02*
X195861Y373475D01*
X171612Y374588D02*
X194748D01*
X225000Y300000D02*
X230250D01*
X207148Y303979D02*
X221021D01*
X225000Y300000D01*
X201639Y309487D02*
X207148Y303979D01*
X201638Y309487D02*
X201639D01*
X241978Y315242D02*
X248262Y308958D01*
Y307238D02*
Y308958D01*
Y307238D02*
X249000Y306500D01*
X249750D01*
X249995Y306255D01*
X258132D01*
X258376Y306011D01*
X182865Y364788D02*
X185207Y367130D01*
X76500Y461000D02*
X82000D01*
X89377Y468377D01*
Y477512D01*
X224952Y380314D02*
X225135Y380497D01*
X213046Y435000D02*
X221000D01*
X212674Y434628D02*
X213046Y435000D01*
X207850Y434628D02*
X212674D01*
X263964Y435000D02*
X271000D01*
X263057Y434093D02*
X263964Y435000D01*
X257882Y434093D02*
X263057D01*
X237246Y424746D02*
X237500Y425000D01*
X266846Y371252D02*
X267937Y370161D01*
X279527D01*
X357935Y382046D02*
X359944Y380036D01*
X346557Y387075D02*
X348157Y385475D01*
X346342Y387075D02*
X346557D01*
X346120Y387298D02*
X346342Y387075D01*
X337577Y387298D02*
X346120D01*
X328402Y362446D02*
X328638Y362210D01*
X77059Y431559D02*
X96011D01*
X76500Y431000D02*
X77059Y431559D01*
D27*
X102761D02*
D03*
Y436559D02*
D03*
Y441559D02*
D03*
X96011D02*
D03*
Y436559D02*
D03*
Y431559D02*
D03*
D39*
X106445Y32930D02*
D03*
X244444D02*
D03*
D40*
X162935Y56425D02*
D03*
X167939D02*
D03*
X172943D02*
D03*
X177946D02*
D03*
X182950D02*
D03*
X187929D02*
D03*
X192932D02*
D03*
X197936D02*
D03*
X202940D02*
D03*
X207944D02*
D03*
X212948D02*
D03*
X217951D02*
D03*
X222930D02*
D03*
X227934D02*
D03*
X157931D02*
D03*
X152927D02*
D03*
X147949D02*
D03*
X142945D02*
D03*
X137941D02*
D03*
X132938D02*
D03*
X127934D02*
D03*
X122930D02*
D03*
D43*
X129289Y107839D02*
D03*
X121717D02*
D03*
X103916Y120001D02*
D03*
X96344D02*
D03*
X113732Y74609D02*
D03*
X106161D02*
D03*
X36297Y407561D02*
D03*
X28726D02*
D03*
X69822Y512607D02*
D03*
X62251D02*
D03*
X129569Y134718D02*
D03*
X121997D02*
D03*
X279722Y38211D02*
D03*
X287294D02*
D03*
X67309Y197274D02*
D03*
X59738D02*
D03*
X121652Y124557D02*
D03*
X129223D02*
D03*
X298612Y190618D02*
D03*
X306184D02*
D03*
X160500Y200689D02*
D03*
X152929D02*
D03*
X299792Y221798D02*
D03*
X307363D02*
D03*
X111832Y134100D02*
D03*
X104260D02*
D03*
X66410Y164208D02*
D03*
X58839D02*
D03*
X314875Y328814D02*
D03*
X307304D02*
D03*
X129618Y162610D02*
D03*
X122047D02*
D03*
X330042Y387359D02*
D03*
X337613D02*
D03*
X330982Y449201D02*
D03*
X338553D02*
D03*
X346576Y449290D02*
D03*
X354148D02*
D03*
X223149Y200358D02*
D03*
X215578D02*
D03*
X99744Y477157D02*
D03*
X107316D02*
D03*
X55500Y35061D02*
D03*
X63071D02*
D03*
X186500Y213689D02*
D03*
X178929D02*
D03*
X204851Y210306D02*
D03*
X212422D02*
D03*
X207569Y200276D02*
D03*
X199998D02*
D03*
X346378Y387136D02*
D03*
X353949D02*
D03*
X306112Y395226D02*
D03*
X313683D02*
D03*
X122195Y152313D02*
D03*
X129766D02*
D03*
X140912Y146665D02*
D03*
X148483D02*
D03*
X137668Y133519D02*
D03*
X145239D02*
D03*
X145336Y293134D02*
D03*
X137765D02*
D03*
D47*
X106243Y91061D02*
D03*
X121743D02*
D03*
D48*
X125000Y422250D02*
D03*
Y437750D02*
D03*
D50*
X49054Y499590D02*
D03*
Y492019D02*
D03*
X354666Y365530D02*
D03*
Y357958D02*
D03*
X353749Y426480D02*
D03*
Y418909D02*
D03*
X201677Y309711D02*
D03*
Y317282D02*
D03*
X171572Y374364D02*
D03*
Y366793D02*
D03*
X163374Y327134D02*
D03*
Y319563D02*
D03*
X291310Y272203D02*
D03*
Y279774D02*
D03*
X329370Y283375D02*
D03*
Y290946D02*
D03*
X306607Y285382D02*
D03*
Y292953D02*
D03*
X81509Y28041D02*
D03*
Y20470D02*
D03*
X81713Y38351D02*
D03*
Y45922D02*
D03*
X81943Y63878D02*
D03*
Y56307D02*
D03*
X301193Y59302D02*
D03*
Y51731D02*
D03*
X285990Y59426D02*
D03*
Y51855D02*
D03*
X270353Y59620D02*
D03*
Y52049D02*
D03*
X266907Y378787D02*
D03*
Y371216D02*
D03*
X264158Y361874D02*
D03*
Y354303D02*
D03*
X128306Y203474D02*
D03*
Y195903D02*
D03*
X64939Y102750D02*
D03*
Y110321D02*
D03*
X39689Y102750D02*
D03*
Y110321D02*
D03*
X188196Y200919D02*
D03*
Y193347D02*
D03*
X207911Y442164D02*
D03*
Y434592D02*
D03*
X205512Y424881D02*
D03*
Y417310D02*
D03*
X257943Y441629D02*
D03*
Y434058D02*
D03*
X135061Y268750D02*
D03*
Y261179D02*
D03*
X120061Y268750D02*
D03*
Y261179D02*
D03*
X120061Y249497D02*
D03*
Y241926D02*
D03*
X128306Y180197D02*
D03*
Y172626D02*
D03*
X256029Y424278D02*
D03*
Y416707D02*
D03*
X109490Y308883D02*
D03*
Y316454D02*
D03*
D82*
X186872Y69220D02*
D03*
X192591Y70658D02*
D03*
X125723Y45724D02*
D03*
X87341Y45738D02*
D03*
Y40221D02*
D03*
X263151Y54663D02*
D03*
X262812Y44980D02*
D03*
X256489Y56772D02*
D03*
X221215Y33321D02*
D03*
X104362Y75159D02*
D03*
X213065Y48571D02*
D03*
X198066Y48539D02*
D03*
X183071Y48500D02*
D03*
X168038Y48584D02*
D03*
X153006Y48672D02*
D03*
X137998Y48487D02*
D03*
X110226Y143555D02*
D03*
X222056Y405419D02*
D03*
X259299Y418564D02*
D03*
X270119Y404807D02*
D03*
X286750Y454250D02*
D03*
X320000Y460000D02*
D03*
X190000Y483278D02*
D03*
X210000D02*
D03*
X230000D02*
D03*
X250000D02*
D03*
X270000D02*
D03*
X292322Y482313D02*
D03*
X143278Y420000D02*
D03*
X125480Y422363D02*
D03*
X198162Y468884D02*
D03*
X68358Y260000D02*
D03*
X50000Y320000D02*
D03*
X30000Y160000D02*
D03*
X80000Y260000D02*
D03*
X100000Y300000D02*
D03*
X210000Y240000D02*
D03*
X340000Y220000D02*
D03*
Y500000D02*
D03*
X310000Y40000D02*
D03*
X190000Y240000D02*
D03*
X30000Y280000D02*
D03*
X220000Y500000D02*
D03*
X230000Y320000D02*
D03*
X40000Y380000D02*
D03*
X250000Y320000D02*
D03*
X260000Y500000D02*
D03*
X180000D02*
D03*
X290000Y80000D02*
D03*
X280000Y500000D02*
D03*
X70000Y480000D02*
D03*
X330000D02*
D03*
X100000Y260000D02*
D03*
X320000Y500000D02*
D03*
X160000Y220000D02*
D03*
X80000Y340000D02*
D03*
Y420000D02*
D03*
X320000Y100000D02*
D03*
X340000D02*
D03*
X350000Y480000D02*
D03*
X110000Y280000D02*
D03*
X90000D02*
D03*
X330000Y120000D02*
D03*
X100000Y220000D02*
D03*
X150000Y400000D02*
D03*
X240000Y500000D02*
D03*
X340000Y180000D02*
D03*
X30000Y240000D02*
D03*
X40000Y340000D02*
D03*
X330000Y200000D02*
D03*
X310000Y80000D02*
D03*
X290000Y320000D02*
D03*
X90000D02*
D03*
X63201Y496800D02*
D03*
X200000Y500000D02*
D03*
X60000Y420000D02*
D03*
X350000Y160000D02*
D03*
X80000Y500000D02*
D03*
X350000Y40000D02*
D03*
Y240000D02*
D03*
X60000Y340000D02*
D03*
X350000Y200000D02*
D03*
X20000Y300000D02*
D03*
X240000Y60000D02*
D03*
X88315Y445523D02*
D03*
X46326Y425000D02*
D03*
X328250Y356497D02*
D03*
X164624Y330376D02*
D03*
X165422Y366661D02*
D03*
X355000Y550000D02*
D03*
X351019Y458696D02*
D03*
X354735Y449264D02*
D03*
X330000Y550000D02*
D03*
X345000D02*
D03*
X317085Y442665D02*
D03*
X351820Y398425D02*
D03*
X354097Y387263D02*
D03*
X327683Y417662D02*
D03*
X315363Y380016D02*
D03*
X300000Y550000D02*
D03*
X315000D02*
D03*
X285000D02*
D03*
X303354Y365133D02*
D03*
X298167Y429822D02*
D03*
X297971Y391498D02*
D03*
X335006Y307987D02*
D03*
X334371Y343050D02*
D03*
X323399Y307396D02*
D03*
X336402Y261322D02*
D03*
X323433Y278521D02*
D03*
X322176Y265123D02*
D03*
X313444Y316653D02*
D03*
X297921Y338514D02*
D03*
X291714Y291351D02*
D03*
X307885Y221846D02*
D03*
X291328Y272436D02*
D03*
X285737Y269840D02*
D03*
X270000Y550000D02*
D03*
X255000D02*
D03*
X258349Y471172D02*
D03*
X240000Y550000D02*
D03*
X235895Y454922D02*
D03*
X266343Y430591D02*
D03*
X265000Y425000D02*
D03*
X245000Y430000D02*
D03*
X225000Y550000D02*
D03*
X210000D02*
D03*
X214900Y424829D02*
D03*
X214850Y430591D02*
D03*
X205451Y417313D02*
D03*
X274880Y365412D02*
D03*
X274730Y359571D02*
D03*
X264251Y354455D02*
D03*
X257862Y269949D02*
D03*
X280846Y236295D02*
D03*
X238712Y348204D02*
D03*
X223927Y329740D02*
D03*
X196347Y380465D02*
D03*
X201770Y317460D02*
D03*
X229674Y306479D02*
D03*
X215644Y313721D02*
D03*
X203955Y209823D02*
D03*
X305946Y190829D02*
D03*
X286633Y171759D02*
D03*
X268934Y204121D02*
D03*
X227378Y178391D02*
D03*
X239999Y172487D02*
D03*
X341916Y122935D02*
D03*
X226994Y140000D02*
D03*
Y146502D02*
D03*
Y133498D02*
D03*
X220491Y146502D02*
D03*
Y166010D02*
D03*
Y133498D02*
D03*
Y126995D02*
D03*
Y113990D02*
D03*
X353258Y74372D02*
D03*
X349141Y55436D02*
D03*
X340420Y31329D02*
D03*
X296898Y40255D02*
D03*
X330720Y31046D02*
D03*
X340754Y20601D02*
D03*
X330772Y20343D02*
D03*
X265277Y98125D02*
D03*
X233496Y94509D02*
D03*
X250350Y39472D02*
D03*
X246073Y74838D02*
D03*
X207487Y185491D02*
D03*
Y166010D02*
D03*
X213989Y159507D02*
D03*
Y146502D02*
D03*
Y166010D02*
D03*
X207487Y146502D02*
D03*
X201066Y191889D02*
D03*
X201180Y179143D02*
D03*
X200984Y185491D02*
D03*
Y166010D02*
D03*
Y146502D02*
D03*
X200966Y172433D02*
D03*
X213989Y133498D02*
D03*
Y120493D02*
D03*
X207487D02*
D03*
X213989Y107488D02*
D03*
X207487D02*
D03*
Y133498D02*
D03*
X200984Y120493D02*
D03*
Y133498D02*
D03*
X195000Y550000D02*
D03*
X184552Y381654D02*
D03*
X181547Y468899D02*
D03*
X180000Y550000D02*
D03*
X175000Y279500D02*
D03*
X192577Y199753D02*
D03*
X181556Y191954D02*
D03*
X170208Y209961D02*
D03*
X165780Y550280D02*
D03*
X157487Y425322D02*
D03*
X153080Y550280D02*
D03*
X148794Y355039D02*
D03*
X158754Y209755D02*
D03*
X168498Y191994D02*
D03*
X152404Y227486D02*
D03*
X148998Y192075D02*
D03*
X194410Y185631D02*
D03*
Y178876D02*
D03*
X187979Y185491D02*
D03*
X181556Y185424D02*
D03*
X181477Y178989D02*
D03*
X187979Y172487D02*
D03*
X181477D02*
D03*
Y166010D02*
D03*
X168490Y185451D02*
D03*
X155493Y172487D02*
D03*
X161995D02*
D03*
X175000Y166010D02*
D03*
X168498D02*
D03*
X123506Y552911D02*
D03*
X102643Y553010D02*
D03*
X117347Y552911D02*
D03*
X142256Y517122D02*
D03*
X124234Y507515D02*
D03*
X142301D02*
D03*
X124234Y517191D02*
D03*
X112933Y544996D02*
D03*
X107497Y477006D02*
D03*
X96582Y552911D02*
D03*
X85000Y550000D02*
D03*
X95532Y544996D02*
D03*
X25000Y550000D02*
D03*
X40000D02*
D03*
X10000D02*
D03*
X70000D02*
D03*
X55000D02*
D03*
X17028Y478291D02*
D03*
X142215Y392180D02*
D03*
X131081Y320440D02*
D03*
X124316Y392283D02*
D03*
X105909Y347526D02*
D03*
X120061Y241926D02*
D03*
X140292Y237481D02*
D03*
X133102Y210123D02*
D03*
X127638Y203116D02*
D03*
X97091Y182403D02*
D03*
X52754Y375167D02*
D03*
X79136Y375123D02*
D03*
X17000Y418500D02*
D03*
X59912Y199198D02*
D03*
X194482Y146502D02*
D03*
X187979D02*
D03*
X181477Y153005D02*
D03*
X187979Y133498D02*
D03*
X194482D02*
D03*
X181477Y140000D02*
D03*
X175000Y153005D02*
D03*
Y140000D02*
D03*
X168498Y159507D02*
D03*
X161995Y146502D02*
D03*
Y133498D02*
D03*
Y126995D02*
D03*
X194482Y120493D02*
D03*
Y113990D02*
D03*
X187979Y120493D02*
D03*
X181477Y113990D02*
D03*
X187979Y107488D02*
D03*
X175000D02*
D03*
X168498Y120493D02*
D03*
Y113990D02*
D03*
X181477Y107488D02*
D03*
X155493Y140000D02*
D03*
Y120493D02*
D03*
X136057Y146916D02*
D03*
X155493Y113990D02*
D03*
X148990Y107488D02*
D03*
X142488D02*
D03*
X129583Y107447D02*
D03*
X81205Y149554D02*
D03*
X59022Y164215D02*
D03*
X95593Y119935D02*
D03*
X106132Y90870D02*
D03*
X27210Y113108D02*
D03*
X60679Y84859D02*
D03*
Y74858D02*
D03*
X45679D02*
D03*
X60679Y64858D02*
D03*
X45679D02*
D03*
Y84859D02*
D03*
X30679D02*
D03*
Y64858D02*
D03*
Y74858D02*
D03*
X99539Y40540D02*
D03*
X57518Y18778D02*
D03*
X23510Y18461D02*
D03*
X200947Y94576D02*
D03*
X179500Y70750D02*
D03*
X214035Y191967D02*
D03*
X284371Y51383D02*
D03*
X211655Y87670D02*
D03*
X213986Y100939D02*
D03*
X200973Y101016D02*
D03*
X173000Y68148D02*
D03*
X220446Y193319D02*
D03*
X113181Y75811D02*
D03*
X221583Y452360D02*
D03*
X221483Y460149D02*
D03*
X301523Y59416D02*
D03*
X105312Y119745D02*
D03*
X155493Y146502D02*
D03*
X220491Y159507D02*
D03*
X121509Y107800D02*
D03*
X175000Y113990D02*
D03*
X187979D02*
D03*
X220491Y140000D02*
D03*
X200984Y113990D02*
D03*
X155493Y133498D02*
D03*
X220491Y153005D02*
D03*
X236224Y74765D02*
D03*
X65291Y35088D02*
D03*
X195421Y259843D02*
D03*
X7734Y485166D02*
D03*
X7825Y471376D02*
D03*
X7516Y457998D02*
D03*
X7001Y444516D02*
D03*
X8031Y431344D02*
D03*
X182750Y431500D02*
D03*
X269758Y59450D02*
D03*
X199304Y88855D02*
D03*
X207461Y100978D02*
D03*
X207523Y172473D02*
D03*
X226994Y100986D02*
D03*
X226852Y88398D02*
D03*
X97267Y135647D02*
D03*
X94382Y140349D02*
D03*
X111978Y132020D02*
D03*
X142418Y140038D02*
D03*
X129685Y131722D02*
D03*
X137164D02*
D03*
X325000Y375000D02*
D03*
X271379Y459229D02*
D03*
X305000Y465000D02*
D03*
X135000Y430000D02*
D03*
X126083Y356668D02*
D03*
X140000Y355000D02*
D03*
X135000Y475000D02*
D03*
X125102Y438588D02*
D03*
X325000Y435000D02*
D03*
X213622Y330700D02*
D03*
X49500Y447174D02*
D03*
X111642Y444309D02*
D03*
X46326Y489433D02*
D03*
X336046Y428280D02*
D03*
X333860Y422531D02*
D03*
X292021Y360645D02*
D03*
X285501Y357366D02*
D03*
X285793Y375000D02*
D03*
X335556Y356526D02*
D03*
X278542Y418535D02*
D03*
X278599Y441045D02*
D03*
X228025Y419314D02*
D03*
X228024Y440889D02*
D03*
X322989Y139819D02*
D03*
X316274Y137805D02*
D03*
X104750Y430753D02*
D03*
X179534Y197801D02*
D03*
X113567Y175705D02*
D03*
X108217Y181749D02*
D03*
X128082Y172370D02*
D03*
X101500Y171500D02*
D03*
X250015Y269949D02*
D03*
X148838Y368903D02*
D03*
X315000Y325000D02*
D03*
X243786Y419773D02*
D03*
X239999Y100986D02*
D03*
X252294Y117459D02*
D03*
X257500Y113000D02*
D03*
X248927Y126000D02*
D03*
X246920Y184469D02*
D03*
X262072Y129905D02*
D03*
X262079Y183512D02*
D03*
Y169643D02*
D03*
Y163478D02*
D03*
X262356Y177702D02*
D03*
X265277Y135999D02*
D03*
X246453Y196328D02*
D03*
X197946Y459972D02*
D03*
X215250Y382750D02*
D03*
X148639Y442602D02*
D03*
X291650Y221928D02*
D03*
X186000Y415250D02*
D03*
X148182Y434095D02*
D03*
X104750Y418500D02*
D03*
X285000Y390000D02*
D03*
X230875Y435406D02*
D03*
X237780Y234273D02*
D03*
X227514Y223354D02*
D03*
X244985Y234894D02*
D03*
X237904Y241230D02*
D03*
X244861Y240981D02*
D03*
X220932Y216026D02*
D03*
X228250Y210500D02*
D03*
Y217000D02*
D03*
X300653Y203868D02*
D03*
X295570Y212885D02*
D03*
X15497Y156295D02*
D03*
X306139Y283811D02*
D03*
X115000Y199986D02*
D03*
X11371Y151878D02*
D03*
X19045Y161491D02*
D03*
X259259Y210500D02*
D03*
X148997Y139978D02*
D03*
X259142Y199301D02*
D03*
X299954Y197412D02*
D03*
X294824Y206523D02*
D03*
X263621Y123880D02*
D03*
X264000Y113000D02*
D03*
X341854Y135358D02*
D03*
X316884Y119333D02*
D03*
X322412Y125917D02*
D03*
X326159Y367343D02*
D03*
X280875Y435406D02*
D03*
X323880Y428333D02*
D03*
X293360Y419762D02*
D03*
X275740Y352670D02*
D03*
X216312Y366516D02*
D03*
X248344Y290943D02*
D03*
X138783Y278190D02*
D03*
X155562Y166043D02*
D03*
X267174Y440502D02*
D03*
X266841Y418620D02*
D03*
X305000Y408363D02*
D03*
X280875Y424595D02*
D03*
X217822Y418500D02*
D03*
X220491Y94509D02*
D03*
X161972Y107434D02*
D03*
X155485D02*
D03*
X220474Y100939D02*
D03*
X233487Y101054D02*
D03*
X144567Y43933D02*
D03*
X213929Y172473D02*
D03*
X51616Y161713D02*
D03*
X122159Y271563D02*
D03*
X354247Y426784D02*
D03*
X121000Y467250D02*
D03*
X208750Y464000D02*
D03*
X339281Y462390D02*
D03*
X45146Y152028D02*
D03*
X101115Y323651D02*
D03*
X93749Y371251D02*
D03*
X103090Y380534D02*
D03*
X104750Y412000D02*
D03*
X106685Y437377D02*
D03*
X109551Y308847D02*
D03*
X113181Y403829D02*
D03*
X71718Y471400D02*
D03*
X128626Y196091D02*
D03*
X130548Y153340D02*
D03*
X136821Y261629D02*
D03*
X167323Y91979D02*
D03*
X91980Y88913D02*
D03*
X181613Y94509D02*
D03*
X175057Y94561D02*
D03*
X161972Y101054D02*
D03*
X39750Y113000D02*
D03*
X52750D02*
D03*
X168498Y100939D02*
D03*
X135038Y93605D02*
D03*
X143750Y85690D02*
D03*
X215697Y200610D02*
D03*
X208017Y200260D02*
D03*
X186737Y213663D02*
D03*
X220436Y107503D02*
D03*
X215362Y373581D02*
D03*
X129141Y93522D02*
D03*
X126116Y79325D02*
D03*
X120633Y77027D02*
D03*
X121000Y82914D02*
D03*
X322500Y51250D02*
D03*
X309500D02*
D03*
X148959Y120536D02*
D03*
X121914Y124414D02*
D03*
X148893Y185599D02*
D03*
X148878Y179043D02*
D03*
X187944Y191971D02*
D03*
X155510Y179043D02*
D03*
X161959D02*
D03*
X155486Y192002D02*
D03*
X85508Y379613D02*
D03*
X155486Y185599D02*
D03*
X130080Y162759D02*
D03*
X30000Y460750D02*
D03*
X108000Y204000D02*
D03*
X20250Y470500D02*
D03*
X104750Y197500D02*
D03*
X18188Y430945D02*
D03*
X98250Y197500D02*
D03*
X20250Y444500D02*
D03*
X122445Y180494D02*
D03*
X10500Y493250D02*
D03*
X66461Y162639D02*
D03*
X112439Y169969D02*
D03*
X70000Y180273D02*
D03*
X70222Y174379D02*
D03*
X67414Y199198D02*
D03*
X64959Y190379D02*
D03*
X155509Y94557D02*
D03*
X148937Y113977D02*
D03*
X27088Y35127D02*
D03*
X161995Y159507D02*
D03*
X175000D02*
D03*
X181477D02*
D03*
X187979Y166010D02*
D03*
Y159517D02*
D03*
X194482Y159507D02*
D03*
X207487D02*
D03*
Y153005D02*
D03*
X200984D02*
D03*
X213989D02*
D03*
X200984Y159507D02*
D03*
X194482Y153005D02*
D03*
X161995D02*
D03*
X175000Y146502D02*
D03*
X148997Y146504D02*
D03*
X181477Y146502D02*
D03*
X168498Y153005D02*
D03*
X187979D02*
D03*
X168498Y146502D02*
D03*
X161995Y166010D02*
D03*
X199000Y200750D02*
D03*
X207442Y178998D02*
D03*
X213989Y185491D02*
D03*
X207487Y191994D02*
D03*
X295000Y190000D02*
D03*
X291371Y279685D02*
D03*
X195998Y210000D02*
D03*
X223253Y200457D02*
D03*
X303883Y305364D02*
D03*
X336596Y396467D02*
D03*
X336193Y402452D02*
D03*
X342572Y402630D02*
D03*
X336480Y456118D02*
D03*
X333372Y361974D02*
D03*
X319782Y317586D02*
D03*
X329621Y283080D02*
D03*
X330139Y312317D02*
D03*
X271888Y452734D02*
D03*
X230629Y424491D02*
D03*
X250761Y470798D02*
D03*
X289401Y370567D02*
D03*
X225135Y380497D02*
D03*
X241978Y315242D02*
D03*
X258376Y306011D02*
D03*
X150974Y209794D02*
D03*
X160000Y200750D02*
D03*
X175000Y191994D02*
D03*
X161965Y185556D02*
D03*
X175000Y185491D02*
D03*
X187979Y178989D02*
D03*
X168556Y178970D02*
D03*
X97206Y512170D02*
D03*
X125623Y309022D02*
D03*
X146038D02*
D03*
X163631Y319013D02*
D03*
X70109Y512655D02*
D03*
X89377Y477512D02*
D03*
X88137Y512232D02*
D03*
X50568Y499315D02*
D03*
X80000Y410000D02*
D03*
X181436Y452066D02*
D03*
X181330Y444140D02*
D03*
X65449Y109837D02*
D03*
X174985Y100939D02*
D03*
X168422Y107465D02*
D03*
X181473Y101016D02*
D03*
X181477Y133498D02*
D03*
X175000Y126995D02*
D03*
Y133498D02*
D03*
X168498Y126995D02*
D03*
X175000Y120493D02*
D03*
X181477D02*
D03*
Y126995D02*
D03*
X168498Y133498D02*
D03*
X187979Y126995D02*
D03*
X213989Y140000D02*
D03*
Y126995D02*
D03*
X220491Y120493D02*
D03*
X207491Y114022D02*
D03*
X213989Y113990D02*
D03*
X187979Y140000D02*
D03*
X194482D02*
D03*
X207487D02*
D03*
X168498D02*
D03*
X200984D02*
D03*
X207487Y126995D02*
D03*
X200984D02*
D03*
X194482D02*
D03*
X161995Y120493D02*
D03*
Y113990D02*
D03*
X148991Y133426D02*
D03*
X161995Y140000D02*
D03*
X155493Y126995D02*
D03*
X175044Y178892D02*
D03*
X249750Y300000D02*
D03*
X65000Y184069D02*
D03*
X48927Y156386D02*
D03*
X227037Y126984D02*
D03*
X226999Y107465D02*
D03*
X53828Y35141D02*
D03*
X17401Y504924D02*
D03*
X36987Y407666D02*
D03*
X279958Y38207D02*
D03*
D85*
X81774Y28261D02*
Y38315D01*
X81589Y28077D02*
X81774Y28261D01*
X81448Y28077D02*
X81589D01*
X113181Y75811D02*
X113732Y75259D01*
Y74609D02*
Y75259D01*
X20250Y51250D02*
X29080Y42420D01*
X29190Y102714D02*
X39511D01*
X29080Y42420D02*
X59270D01*
X39867Y102750D02*
X64761D01*
X59270Y42420D02*
X64850Y36840D01*
Y35529D02*
X65291Y35088D01*
X64850Y35529D02*
Y36840D01*
X74966Y41469D02*
X77570Y38865D01*
X81083D02*
X81633Y38315D01*
X74966Y41469D02*
Y60651D01*
X77570Y38865D02*
X81083D01*
X81633Y38315D02*
X81774D01*
X223260Y454069D02*
X223291D01*
X221583Y452360D02*
X221695Y452473D01*
X218152Y452360D02*
X218391D01*
X221695Y455633D02*
X223260Y454069D01*
X227640Y452360D02*
X235000Y445000D01*
X208028Y442236D02*
X218152Y452360D01*
X223291Y454069D02*
X225000Y452360D01*
X227640D01*
X218391D02*
X220100Y454069D01*
X104296Y120761D02*
X105312Y119745D01*
X104296Y120761D02*
Y134161D01*
X129151Y119785D02*
Y124459D01*
X121998Y108289D02*
Y112632D01*
X129151Y119785D01*
Y124459D02*
X129188Y124496D01*
X20250Y93774D02*
X29190Y102714D01*
X20250Y51250D02*
Y93774D01*
X121509Y107800D02*
X121998Y108289D01*
X74966Y60651D02*
X78192Y63877D01*
X81846D01*
X81882Y63913D01*
X112583D02*
X113956Y65287D01*
X81882Y63913D02*
X112583D01*
X113956Y65287D02*
X119243Y60000D01*
X300991Y59338D02*
X301132D01*
X300674Y59655D02*
X300991Y59338D01*
X113769Y72434D02*
Y74573D01*
X113956Y65287D02*
Y72247D01*
X113732Y74609D02*
X113769Y74573D01*
Y72434D02*
X113956Y72247D01*
X270183Y59450D02*
X270353Y59620D01*
X285990Y59655D02*
X300674D01*
X269758Y59450D02*
X270183D01*
X270353Y59620D02*
X285954D01*
X285990Y59655D01*
X266883Y378860D02*
X270125D01*
X266846Y378823D02*
X266883Y378860D01*
X146012Y319262D02*
X163381D01*
X278542Y422262D02*
X280875Y424595D01*
X278542Y418535D02*
Y422262D01*
X278599Y437681D02*
X280305Y435975D01*
X278599Y437681D02*
Y440240D01*
X228025Y419314D02*
Y421887D01*
X230629Y424491D01*
X229016Y437791D02*
Y439898D01*
Y437791D02*
X230875Y435933D01*
X228024Y440889D02*
X229016Y439898D01*
X230875Y435406D02*
Y435933D01*
X106841Y183126D02*
X108217Y181749D01*
X106841Y183126D02*
Y188353D01*
X125695Y179983D02*
X128306D01*
X122047Y176335D02*
X125695Y179983D01*
X122047Y162610D02*
Y176335D01*
Y162469D02*
Y162610D01*
Y162469D02*
X122195Y162321D01*
Y152313D02*
Y162321D01*
X314875Y328814D02*
X314912Y328777D01*
Y325084D02*
X314998Y324998D01*
X314912Y325084D02*
Y328777D01*
X285000Y390000D02*
X290000D01*
X281266D02*
X285000D01*
X270125Y378860D02*
X281266Y390000D01*
X115000Y196513D02*
Y199986D01*
X106841Y188353D02*
X115000Y196513D01*
X330043Y387334D02*
Y390988D01*
X330006Y387298D02*
X330043Y387261D01*
Y385663D02*
Y387261D01*
X330006Y387298D02*
X330043Y387334D01*
Y385663D02*
X330555Y385150D01*
X135178Y274585D02*
X138783Y278190D01*
X135178Y268822D02*
Y274585D01*
X135000Y268786D02*
X135141D01*
X135178Y268822D01*
X330946Y449140D02*
X330983Y449103D01*
X330946Y449140D02*
X330983Y449177D01*
Y445449D02*
X334820Y441613D01*
X330983Y449177D02*
Y452831D01*
Y445449D02*
Y449103D01*
X334820Y441613D02*
X344540D01*
X353481Y427148D02*
Y432672D01*
X344540Y441613D02*
X353481Y432672D01*
Y427148D02*
X353844Y426784D01*
X354247D01*
X348500Y376250D02*
X354705Y370045D01*
X347108Y377233D02*
X348500Y376250D01*
X344074Y380267D02*
X347108Y377233D01*
X341925Y380267D02*
X344074D01*
X354705Y365754D02*
Y370045D01*
X339764Y380490D02*
X341702D01*
X341925Y380267D01*
X336480Y456118D02*
Y456295D01*
X339281Y459096D01*
Y462390D01*
X336309Y455947D02*
X336480Y456118D01*
X116779Y323506D02*
Y332587D01*
X109551Y316419D02*
X109692D01*
X116779Y323506D01*
X138019Y318019D02*
Y323003D01*
Y318019D02*
X139224Y319224D01*
X137782Y317782D02*
X138019Y318019D01*
X137782Y303550D02*
Y317782D01*
Y323239D02*
X138019Y323003D01*
X195000Y297874D02*
X196331D01*
X200060Y294146D02*
X217059D01*
X196331Y297874D02*
X200060Y294146D01*
X137782Y323239D02*
Y329943D01*
X200984Y159507D02*
X207487D01*
X194482D02*
X200984D01*
X334100Y455947D02*
X336309D01*
X330983Y452831D02*
X334100Y455947D01*
X336193Y402452D02*
X336596Y402049D01*
Y396467D02*
Y402049D01*
X334234Y394105D02*
X336596Y396467D01*
X333159Y394105D02*
X334234D01*
X330043Y390988D02*
X333159Y394105D01*
X277266Y452734D02*
X285000Y445000D01*
X271888Y452734D02*
X277266D01*
X257882Y441664D02*
X258023D01*
X269093Y452734D02*
X271888D01*
X258023Y441664D02*
X269093Y452734D01*
X139224Y319224D02*
X145974D01*
X116779Y332587D02*
X120371Y336179D01*
X131546D01*
X137782Y329943D01*
X137800Y293195D02*
Y303532D01*
X137782Y303550D02*
X137800Y303532D01*
X145974Y319224D02*
X146012Y319262D01*
X183806Y344801D02*
X184614Y345609D01*
X182865Y340381D02*
X183806Y341323D01*
Y344801D01*
X184614Y345609D02*
Y366537D01*
X295776Y378273D02*
X295795D01*
X294241Y379808D02*
X295776Y378273D01*
X294241Y379808D02*
Y385759D01*
X290000Y390000D02*
X294241Y385759D01*
D88*
X292021Y361074D02*
Y361145D01*
Y361074D02*
X292692Y360403D01*
X295785D01*
X291743Y360367D02*
X292021Y360645D01*
X288358Y360367D02*
X291743D01*
X287016Y359025D02*
X288358Y360367D01*
X295785Y360403D02*
X296027Y360161D01*
X217704Y293500D02*
X230250D01*
X185207Y367130D02*
X196456D01*
X289807Y370161D02*
X296027D01*
D107*
X30756Y138795D02*
D03*
Y225308D02*
D03*
X333092Y247572D02*
D03*
Y161059D02*
D03*
D108*
X72564Y138795D02*
D03*
Y225308D02*
D03*
X291283Y247572D02*
D03*
Y161059D02*
D03*
D109*
X295500Y490000D02*
D03*
X294601Y107402D02*
D03*
X69736Y322009D02*
D03*
D110*
X295500Y510000D02*
D03*
X294601Y127402D02*
D03*
X69736Y302009D02*
D03*
D111*
X352693Y260506D02*
D03*
X352737Y276631D02*
D03*
X182865Y340381D02*
D03*
X198990Y340337D02*
D03*
X195000Y297874D02*
D03*
X194956Y281749D02*
D03*
X352454Y344100D02*
D03*
X352410Y327975D02*
D03*
X352571Y290331D02*
D03*
X352615Y306456D02*
D03*
D112*
X26150Y258584D02*
D03*
D113*
X206206Y368130D02*
D03*
Y379130D02*
D03*
X326000Y302500D02*
D03*
Y292500D02*
D03*
X316000D02*
D03*
Y302500D02*
D03*
X321000Y297500D02*
D03*
X240000Y294500D02*
D03*
Y305500D02*
D03*
D114*
X215956Y373630D02*
D03*
Y380130D02*
D03*
X196456Y373630D02*
D03*
Y367130D02*
D03*
X215956D02*
D03*
X196456Y380130D02*
D03*
X249750Y300000D02*
D03*
Y306500D02*
D03*
X230250Y300000D02*
D03*
Y293500D02*
D03*
X249750D02*
D03*
X230250Y306500D02*
D03*
D115*
X206206Y373630D02*
D03*
X240000Y300000D02*
D03*
D116*
X184614Y366537D02*
D03*
Y383537D02*
D03*
X217059Y294146D02*
D03*
Y311146D02*
D03*
D117*
X25000Y420000D02*
D03*
Y482000D02*
D03*
D118*
X76500Y471000D02*
D03*
Y461000D02*
D03*
Y451000D02*
D03*
Y441000D02*
D03*
Y431000D02*
D03*
D119*
X303207Y305192D02*
D03*
Y315098D02*
D03*
D120*
X328853Y433806D02*
D03*
Y428806D02*
D03*
Y423806D02*
D03*
Y418806D02*
D03*
X342352D02*
D03*
Y423806D02*
D03*
Y428806D02*
D03*
Y433806D02*
D03*
X328402Y372446D02*
D03*
Y367446D02*
D03*
Y362446D02*
D03*
Y357446D02*
D03*
X341902D02*
D03*
Y362446D02*
D03*
Y367446D02*
D03*
Y372446D02*
D03*
D121*
X287500Y420000D02*
D03*
Y425000D02*
D03*
Y435000D02*
D03*
Y440000D02*
D03*
X296027Y355161D02*
D03*
Y360161D02*
D03*
Y370161D02*
D03*
Y375161D02*
D03*
X237500Y420000D02*
D03*
Y425000D02*
D03*
Y435000D02*
D03*
Y440000D02*
D03*
D122*
X285500Y430000D02*
D03*
X294027Y365161D02*
D03*
X235500Y430000D02*
D03*
D123*
X271000Y440000D02*
D03*
Y435000D02*
D03*
Y430000D02*
D03*
Y425000D02*
D03*
Y420000D02*
D03*
X279527Y375161D02*
D03*
Y370161D02*
D03*
Y365161D02*
D03*
Y360161D02*
D03*
Y355161D02*
D03*
X221000Y440000D02*
D03*
Y435000D02*
D03*
Y430000D02*
D03*
Y425000D02*
D03*
Y420000D02*
D03*
D124*
X148922Y108343D02*
D03*
Y113643D02*
D03*
X175005Y108081D02*
D03*
Y113381D02*
D03*
X161991Y171871D02*
D03*
Y166571D02*
D03*
X220456Y165394D02*
D03*
Y160094D02*
D03*
X220477Y147215D02*
D03*
Y152515D02*
D03*
X207482Y108214D02*
D03*
Y113514D02*
D03*
X207404Y165281D02*
D03*
Y159981D02*
D03*
X200840Y165319D02*
D03*
Y160019D02*
D03*
X181350Y165743D02*
D03*
Y160443D02*
D03*
X187962Y171926D02*
D03*
Y166626D02*
D03*
X175078Y165493D02*
D03*
Y160193D02*
D03*
X200916Y121143D02*
D03*
Y126443D02*
D03*
X168261Y158972D02*
D03*
Y153672D02*
D03*
X187810Y121143D02*
D03*
Y126443D02*
D03*
X181529Y114455D02*
D03*
Y119755D02*
D03*
X181470Y139475D02*
D03*
Y134175D02*
D03*
X207388Y121197D02*
D03*
Y126497D02*
D03*
X194390Y121170D02*
D03*
Y126470D02*
D03*
X207542Y134103D02*
D03*
Y139403D02*
D03*
X200826Y134103D02*
D03*
Y139403D02*
D03*
X194491Y134185D02*
D03*
Y139485D02*
D03*
X188073Y134199D02*
D03*
Y139499D02*
D03*
X201069Y147347D02*
D03*
Y152647D02*
D03*
X207814Y147346D02*
D03*
Y152646D02*
D03*
X214068Y134049D02*
D03*
Y139349D02*
D03*
X181554Y152678D02*
D03*
Y147379D02*
D03*
X187829Y147331D02*
D03*
Y152631D02*
D03*
X194543Y147400D02*
D03*
Y152700D02*
D03*
X174808Y152595D02*
D03*
Y147295D02*
D03*
X214231Y147319D02*
D03*
Y152619D02*
D03*
X187972Y108011D02*
D03*
Y113310D02*
D03*
D125*
X125959Y309216D02*
D03*
X145974D02*
D03*
X125959Y319224D02*
D03*
X145974D02*
D03*
X125959Y329232D02*
D03*
X145974D02*
D03*
D126*
X155845Y159550D02*
D03*
X161145D02*
D03*
X219881Y113995D02*
D03*
X214581D02*
D03*
X226515Y140048D02*
D03*
X221215D02*
D03*
X219925Y126627D02*
D03*
X214625D02*
D03*
X214622Y120378D02*
D03*
X219922D02*
D03*
X200410Y172468D02*
D03*
X195109D02*
D03*
X182109Y178975D02*
D03*
X187409D02*
D03*
X208102Y185505D02*
D03*
X213402D02*
D03*
X169117Y192046D02*
D03*
X174417D02*
D03*
X169145Y185627D02*
D03*
X174445D02*
D03*
X201587Y192046D02*
D03*
X206887D02*
D03*
X161081Y133563D02*
D03*
X155781D02*
D03*
X161096Y146616D02*
D03*
X155796D02*
D03*
X155847Y153066D02*
D03*
X161147D02*
D03*
X167946Y113900D02*
D03*
X162646D02*
D03*
X156196Y120365D02*
D03*
X161496D02*
D03*
X149574Y126966D02*
D03*
X154874D02*
D03*
X174296Y140198D02*
D03*
X168996D02*
D03*
X169111Y120420D02*
D03*
X174411D02*
D03*
X162732Y126947D02*
D03*
X168032D02*
D03*
X155738Y140039D02*
D03*
X161038D02*
D03*
X195078Y114031D02*
D03*
X200378D02*
D03*
D127*
X49269Y156042D02*
D03*
X15769D02*
D03*
D128*
X181262Y153346D02*
X188054Y146554D01*
D129*
X334872Y380490D02*
X339764D01*
X330555Y384807D02*
X334872Y380490D01*
X330555Y384807D02*
Y385150D01*
X216140Y380314D02*
X224952D01*
D130*
X221695Y455633D02*
D03*
D131*
X237303Y442710D02*
D03*
D132*
X119466Y59622D02*
D03*
D133*
X334976Y359213D02*
D03*
D134*
X335286Y426443D02*
D03*
D135*
X287091Y372707D02*
D03*
D136*
X287016Y359025D02*
D03*
D137*
X326940Y428705D02*
D03*
D138*
X329718Y367380D02*
D03*
D139*
X287405Y350630D02*
D03*
D140*
X174789Y130524D02*
D03*
D141*
X339423Y400031D02*
D03*
D142*
X271833Y455606D02*
D03*
D143*
X287381Y442422D02*
D03*
D144*
X295795Y378273D02*
D03*
M02*
