G04*
G04 #@! TF.GenerationSoftware,Altium Limited,Altium Designer Agile,26.0.0 (14)*
G04*
G04 Layer_Color=8388736*
%FSLAX44Y44*%
%MOMM*%
G71*
G04*
G04 #@! TF.SameCoordinates,5506FD3C-BB93-427F-B73E-7CCE02F19091*
G04*
G04*
G04 #@! TF.FilePolarity,Negative*
G04*
G01*
G75*
%ADD20C,0.4500*%
%ADD28R,0.7500X0.7000*%
%ADD29R,0.3250X0.2700*%
%ADD30R,0.9000X0.8000*%
G04:AMPARAMS|DCode=31|XSize=1.3587mm|YSize=0.5868mm|CornerRadius=0.2934mm|HoleSize=0mm|Usage=FLASHONLY|Rotation=180.000|XOffset=0mm|YOffset=0mm|HoleType=Round|Shape=RoundedRectangle|*
%AMROUNDEDRECTD31*
21,1,1.3587,0.0000,0,0,180.0*
21,1,0.7719,0.5868,0,0,180.0*
1,1,0.5868,-0.3859,0.0000*
1,1,0.5868,0.3859,0.0000*
1,1,0.5868,0.3859,0.0000*
1,1,0.5868,-0.3859,0.0000*
%
%ADD31ROUNDEDRECTD31*%
%ADD32R,1.3587X0.5868*%
%ADD33R,0.8500X0.8500*%
%ADD34R,0.9051X0.9062*%
%ADD35R,2.2062X1.3549*%
%ADD36R,1.7062X1.1544*%
%ADD37R,0.9582X1.1061*%
%ADD38R,0.5725X0.6153*%
%ADD39R,1.1000X1.9000*%
%ADD40R,1.8062X1.3046*%
%ADD43R,0.5153X0.4725*%
%ADD47R,0.7500X0.9000*%
%ADD48R,0.9000X0.7500*%
%ADD49R,0.9062X0.9051*%
%ADD50R,0.4725X0.5153*%
%ADD52R,0.7010X1.1024*%
%ADD53R,4.4018X3.5027*%
%ADD54R,1.4021X0.4013*%
%ADD55C,0.5029*%
%ADD56R,1.4021X0.7010*%
G04:AMPARAMS|DCode=57|XSize=1.9032mm|YSize=1.9032mm|CornerRadius=0.1526mm|HoleSize=0mm|Usage=FLASHONLY|Rotation=180.000|XOffset=0mm|YOffset=0mm|HoleType=Round|Shape=RoundedRectangle|*
%AMROUNDEDRECTD57*
21,1,1.9032,1.5980,0,0,180.0*
21,1,1.5980,1.9032,0,0,180.0*
1,1,0.3052,-0.7990,0.7990*
1,1,0.3052,0.7990,0.7990*
1,1,0.3052,0.7990,-0.7990*
1,1,0.3052,-0.7990,-0.7990*
%
%ADD57ROUNDEDRECTD57*%
G04:AMPARAMS|DCode=58|XSize=0.4532mm|YSize=0.8032mm|CornerRadius=0.1516mm|HoleSize=0mm|Usage=FLASHONLY|Rotation=180.000|XOffset=0mm|YOffset=0mm|HoleType=Round|Shape=RoundedRectangle|*
%AMROUNDEDRECTD58*
21,1,0.4532,0.5000,0,0,180.0*
21,1,0.1500,0.8032,0,0,180.0*
1,1,0.3032,-0.0750,0.2500*
1,1,0.3032,0.0750,0.2500*
1,1,0.3032,0.0750,-0.2500*
1,1,0.3032,-0.0750,-0.2500*
%
%ADD58ROUNDEDRECTD58*%
G04:AMPARAMS|DCode=59|XSize=0.4532mm|YSize=0.8032mm|CornerRadius=0.1516mm|HoleSize=0mm|Usage=FLASHONLY|Rotation=270.000|XOffset=0mm|YOffset=0mm|HoleType=Round|Shape=RoundedRectangle|*
%AMROUNDEDRECTD59*
21,1,0.4532,0.5000,0,0,270.0*
21,1,0.1500,0.8032,0,0,270.0*
1,1,0.3032,-0.2500,-0.0750*
1,1,0.3032,-0.2500,0.0750*
1,1,0.3032,0.2500,0.0750*
1,1,0.3032,0.2500,-0.0750*
%
%ADD59ROUNDEDRECTD59*%
%ADD60R,0.5032X1.2032*%
%ADD61R,1.2032X1.2032*%
%ADD62C,0.3150*%
%ADD63R,0.8534X0.7493*%
%ADD64C,0.3739*%
%ADD65O,0.4826X1.8237*%
%ADD66R,1.6532X1.4532*%
%ADD67C,1.3005*%
%ADD68R,1.7018X0.7010*%
%ADD69R,0.7010X1.7018*%
%ADD70R,0.6990X1.7000*%
%ADD71O,1.9025X1.3005*%
%ADD72O,2.1006X1.3005*%
%ADD73C,1.4032*%
%ADD74R,1.4032X1.4032*%
%ADD75C,1.2032*%
%ADD76C,2.8032*%
%ADD77C,0.7032*%
G36*
X86837Y217553D02*
X86932Y217524D01*
X87021Y217477D01*
X87098Y217414D01*
X87162Y217336D01*
X87209Y217248D01*
X87238Y217152D01*
X87248Y217053D01*
Y214207D01*
X87263Y214155D01*
X87273Y214056D01*
Y211058D01*
X87263Y210959D01*
X87234Y210863D01*
X87187Y210775D01*
X87123Y210697D01*
X87046Y210634D01*
X86958Y210587D01*
X86862Y210558D01*
X86763Y210548D01*
X73758D01*
X73658Y210558D01*
X73562Y210587D01*
X73474Y210634D01*
X73397Y210697D01*
X73333Y210775D01*
X73286Y210863D01*
X73257Y210959D01*
X73247Y211058D01*
Y214056D01*
Y217053D01*
X73257Y217152D01*
X73286Y217248D01*
X73333Y217336D01*
X73397Y217414D01*
X73474Y217477D01*
X73562Y217524D01*
X73658Y217553D01*
X73758Y217563D01*
X86737D01*
X86837Y217553D01*
D02*
G37*
G36*
Y209552D02*
X86932Y209523D01*
X87021Y209476D01*
X87098Y209413D01*
X87162Y209335D01*
X87209Y209247D01*
X87238Y209151D01*
X87248Y209052D01*
Y206054D01*
Y203057D01*
X87238Y202958D01*
X87209Y202862D01*
X87162Y202774D01*
X87098Y202696D01*
X87021Y202633D01*
X86932Y202586D01*
X86837Y202557D01*
X86737Y202547D01*
X73758D01*
X73658Y202557D01*
X73562Y202586D01*
X73474Y202633D01*
X73397Y202696D01*
X73333Y202774D01*
X73286Y202862D01*
X73257Y202958D01*
X73247Y203057D01*
Y206054D01*
Y209052D01*
X73257Y209151D01*
X73286Y209247D01*
X73333Y209335D01*
X73397Y209413D01*
X73474Y209476D01*
X73562Y209523D01*
X73658Y209552D01*
X73758Y209562D01*
X86737D01*
X86837Y209552D01*
D02*
G37*
G36*
X290189Y183810D02*
X290285Y183781D01*
X290373Y183734D01*
X290450Y183671D01*
X290514Y183593D01*
X290561Y183505D01*
X290590Y183409D01*
X290600Y183310D01*
Y180312D01*
Y177315D01*
X290590Y177216D01*
X290561Y177120D01*
X290514Y177032D01*
X290450Y176954D01*
X290373Y176891D01*
X290285Y176844D01*
X290189Y176815D01*
X290089Y176805D01*
X277110D01*
X277010Y176815D01*
X276915Y176844D01*
X276826Y176891D01*
X276749Y176954D01*
X276686Y177032D01*
X276638Y177120D01*
X276609Y177216D01*
X276600Y177315D01*
Y180312D01*
Y183310D01*
X276609Y183409D01*
X276638Y183505D01*
X276686Y183593D01*
X276749Y183671D01*
X276826Y183734D01*
X276915Y183781D01*
X277010Y183810D01*
X277110Y183820D01*
X290089D01*
X290189Y183810D01*
D02*
G37*
G36*
Y175809D02*
X290285Y175780D01*
X290373Y175733D01*
X290450Y175670D01*
X290514Y175592D01*
X290561Y175504D01*
X290590Y175408D01*
X290600Y175309D01*
Y172311D01*
Y169314D01*
X290590Y169215D01*
X290561Y169119D01*
X290514Y169031D01*
X290450Y168953D01*
X290373Y168890D01*
X290285Y168843D01*
X290189Y168814D01*
X290089Y168804D01*
X277110D01*
X277010Y168814D01*
X276915Y168843D01*
X276826Y168890D01*
X276749Y168953D01*
X276686Y169031D01*
X276638Y169119D01*
X276609Y169215D01*
X276600Y169314D01*
Y172160D01*
X276584Y172212D01*
X276574Y172311D01*
Y175309D01*
X276584Y175408D01*
X276613Y175504D01*
X276660Y175592D01*
X276724Y175670D01*
X276801Y175733D01*
X276889Y175780D01*
X276985Y175809D01*
X277085Y175819D01*
X290089D01*
X290189Y175809D01*
D02*
G37*
G36*
X336679Y33962D02*
X336711Y33961D01*
X337117Y33910D01*
X337135Y33906D01*
X337154Y33904D01*
X337535Y33828D01*
X337550Y33823D01*
X337566Y33821D01*
X337947Y33719D01*
X337962Y33714D01*
X337977Y33710D01*
X338358Y33583D01*
X338358Y33583D01*
X338739Y33456D01*
X338753Y33450D01*
X338767Y33446D01*
X339148Y33293D01*
X339167Y33284D01*
X339187Y33276D01*
X339543Y33098D01*
X339562Y33086D01*
X339582Y33076D01*
X339905Y32877D01*
X340253Y32678D01*
X340271Y32666D01*
X340291Y32655D01*
X340621Y32426D01*
X340628Y32420D01*
X340636Y32415D01*
X340941Y32186D01*
X340960Y32169D01*
X340980Y32154D01*
X341283Y31876D01*
D01*
X341563Y31622D01*
X341578Y31605D01*
X341595Y31590D01*
X341875Y31285D01*
X341882Y31275D01*
X341891Y31267D01*
X342145Y30962D01*
X342145Y30962D01*
X342399Y30657D01*
X342412Y30638D01*
X342426Y30621D01*
X342655Y30291D01*
X342662Y30278D01*
X342670Y30268D01*
X342873Y29937D01*
X342877Y29930D01*
X342882Y29923D01*
X343085Y29567D01*
X343091Y29555D01*
X343098Y29543D01*
X343276Y29187D01*
X343284Y29167D01*
X343293Y29148D01*
X343446Y28767D01*
X343448Y28758D01*
X343452Y28749D01*
X343579Y28394D01*
X343581Y28389D01*
X343583Y28383D01*
X343710Y28002D01*
X343714Y27983D01*
X343721Y27965D01*
X343823Y27558D01*
X343824Y27546D01*
X343828Y27535D01*
X343904Y27154D01*
X343906Y27137D01*
X343910Y27121D01*
X343960Y26740D01*
X343962Y26706D01*
X343965Y26673D01*
X343963Y26656D01*
X343964Y26640D01*
X343958Y26607D01*
X343955Y26573D01*
X343950Y26557D01*
X343948Y26541D01*
X343936Y26509D01*
X343926Y26477D01*
X343918Y26463D01*
X343913Y26448D01*
X343895Y26419D01*
X343879Y26389D01*
X343869Y26377D01*
X343860Y26363D01*
X343837Y26338D01*
X343815Y26312D01*
X343803Y26301D01*
X343792Y26289D01*
X343764Y26270D01*
X343738Y26248D01*
X343724Y26240D01*
X343710Y26231D01*
X343680Y26217D01*
X343650Y26201D01*
X343634Y26196D01*
X343619Y26189D01*
X343586Y26182D01*
X343554Y26172D01*
X343538Y26170D01*
X343522Y26167D01*
X343488Y26165D01*
X343454Y26162D01*
X340559D01*
X340521Y26166D01*
X340484Y26168D01*
X340472Y26171D01*
X340459Y26172D01*
X340423Y26183D01*
X340387Y26192D01*
X340375Y26197D01*
X340364Y26201D01*
X340330Y26219D01*
X340296Y26235D01*
X340286Y26242D01*
X340275Y26248D01*
X340246Y26272D01*
X340216Y26295D01*
X340208Y26304D01*
X340198Y26312D01*
X340174Y26341D01*
X340149Y26369D01*
X340142Y26379D01*
X340134Y26389D01*
X340117Y26422D01*
X340097Y26455D01*
X340093Y26466D01*
X340087Y26477D01*
X340076Y26513D01*
X340064Y26549D01*
X339992Y26834D01*
X339897Y27121D01*
X339801Y27408D01*
X339692Y27671D01*
X339560Y27912D01*
X339392Y28177D01*
X339392Y28177D01*
X339229Y28433D01*
X339060Y28643D01*
X338861Y28842D01*
X338618Y29061D01*
X338421Y29236D01*
X338176Y29392D01*
X337911Y29560D01*
X337671Y29691D01*
X337391Y29808D01*
X337121Y29920D01*
X336858Y29986D01*
X336532Y30061D01*
X336492Y30075D01*
X336452Y30087D01*
X336445Y30091D01*
X336438Y30093D01*
X336401Y30115D01*
X336364Y30134D01*
X336358Y30139D01*
X336351Y30143D01*
X336319Y30171D01*
X336286Y30198D01*
X336281Y30204D01*
X336275Y30209D01*
X336250Y30243D01*
X336223Y30275D01*
X336219Y30282D01*
X336214Y30288D01*
X336195Y30327D01*
X336176Y30363D01*
X336173Y30371D01*
X336170Y30378D01*
X336159Y30419D01*
X336147Y30459D01*
X336146Y30467D01*
X336144Y30475D01*
X336141Y30517D01*
X336137Y30559D01*
Y33454D01*
X336140Y33486D01*
X336141Y33518D01*
X336145Y33536D01*
X336147Y33554D01*
X336156Y33584D01*
X336163Y33615D01*
X336170Y33632D01*
X336176Y33650D01*
X336190Y33677D01*
X336203Y33707D01*
X336214Y33722D01*
X336223Y33738D01*
X336243Y33762D01*
X336261Y33788D01*
X336275Y33801D01*
X336286Y33815D01*
X336311Y33835D01*
X336334Y33857D01*
X336349Y33867D01*
X336364Y33879D01*
X336391Y33894D01*
X336418Y33911D01*
X336436Y33917D01*
X336452Y33926D01*
X336482Y33935D01*
X336512Y33947D01*
X336530Y33950D01*
X336548Y33955D01*
X336579Y33958D01*
X336610Y33963D01*
X336629Y33963D01*
X336647Y33965D01*
X336679Y33962D01*
D02*
G37*
G36*
X258633Y48010D02*
X258763Y47983D01*
X258890Y47941D01*
X259009Y47882D01*
X259120Y47808D01*
X259220Y47720D01*
X259308Y47620D01*
X259382Y47509D01*
X259441Y47390D01*
X259483Y47263D01*
X259509Y47133D01*
X259518Y47000D01*
Y34000D01*
X259509Y33867D01*
X259483Y33737D01*
X259441Y33610D01*
X259382Y33491D01*
X259308Y33380D01*
X259220Y33280D01*
X259120Y33192D01*
X259009Y33118D01*
X258890Y33059D01*
X258763Y33017D01*
X258633Y32991D01*
X258500Y32982D01*
X242000D01*
X241867Y32991D01*
X241736Y33017D01*
X241610Y33059D01*
X241491Y33118D01*
X241380Y33192D01*
X241280Y33280D01*
X241192Y33380D01*
X241118Y33491D01*
X241059Y33610D01*
X241016Y33737D01*
X240991Y33867D01*
X240982Y34000D01*
Y47000D01*
X240991Y47133D01*
X241016Y47263D01*
X241059Y47390D01*
X241118Y47509D01*
X241192Y47620D01*
X241280Y47720D01*
X241380Y47808D01*
X241491Y47882D01*
X241610Y47941D01*
X241736Y47983D01*
X241867Y48010D01*
X242000Y48018D01*
X258500D01*
X258633Y48010D01*
D02*
G37*
G36*
X108133D02*
X108264Y47983D01*
X108390Y47941D01*
X108509Y47882D01*
X108620Y47808D01*
X108720Y47720D01*
X108808Y47620D01*
X108882Y47509D01*
X108941Y47390D01*
X108984Y47263D01*
X109010Y47133D01*
X109018Y47000D01*
Y34000D01*
X109010Y33867D01*
X108984Y33737D01*
X108941Y33610D01*
X108882Y33491D01*
X108808Y33380D01*
X108720Y33280D01*
X108620Y33192D01*
X108509Y33118D01*
X108390Y33059D01*
X108264Y33017D01*
X108133Y32991D01*
X108000Y32982D01*
X91500D01*
X91367Y32991D01*
X91237Y33017D01*
X91110Y33059D01*
X90991Y33118D01*
X90880Y33192D01*
X90780Y33280D01*
X90692Y33380D01*
X90618Y33491D01*
X90560Y33610D01*
X90517Y33737D01*
X90491Y33867D01*
X90482Y34000D01*
Y47000D01*
X90491Y47133D01*
X90517Y47263D01*
X90560Y47390D01*
X90618Y47509D01*
X90692Y47620D01*
X90780Y47720D01*
X90880Y47808D01*
X90991Y47882D01*
X91110Y47941D01*
X91237Y47983D01*
X91367Y48010D01*
X91500Y48018D01*
X108000D01*
X108133Y48010D01*
D02*
G37*
G36*
X334684Y33963D02*
X334703Y33963D01*
X334734Y33958D01*
X334766Y33955D01*
X334783Y33950D01*
X334801Y33947D01*
X334831Y33935D01*
X334861Y33926D01*
X334878Y33917D01*
X334895Y33911D01*
X334922Y33894D01*
X334950Y33879D01*
X334964Y33867D01*
X334979Y33857D01*
X335003Y33835D01*
X335027Y33815D01*
X335039Y33801D01*
X335052Y33788D01*
X335070Y33763D01*
X335090Y33738D01*
X335099Y33722D01*
X335110Y33707D01*
X335123Y33678D01*
X335138Y33650D01*
X335143Y33632D01*
X335150Y33615D01*
X335157Y33584D01*
X335167Y33554D01*
X335168Y33536D01*
X335173Y33518D01*
X335173Y33486D01*
X335177Y33454D01*
Y30559D01*
X335172Y30517D01*
X335169Y30475D01*
X335167Y30467D01*
X335167Y30459D01*
X335154Y30419D01*
X335143Y30378D01*
X335140Y30371D01*
X335138Y30363D01*
X335118Y30327D01*
X335099Y30288D01*
X335094Y30282D01*
X335090Y30275D01*
X335064Y30243D01*
X335038Y30209D01*
X335032Y30204D01*
X335027Y30198D01*
X334994Y30171D01*
X334962Y30143D01*
X334956Y30139D01*
X334950Y30134D01*
X334912Y30114D01*
X334876Y30093D01*
X334868Y30091D01*
X334861Y30087D01*
X334821Y30075D01*
X334781Y30061D01*
X334455Y29986D01*
X334192Y29920D01*
X333923Y29808D01*
X333642Y29692D01*
X333401Y29560D01*
X333137Y29392D01*
X333136Y29392D01*
X332892Y29236D01*
X332694Y29060D01*
X332694Y29060D01*
X332452Y28842D01*
X332253Y28643D01*
X332085Y28433D01*
X331922Y28177D01*
X331753Y27912D01*
X331622Y27671D01*
X331512Y27408D01*
X331417Y27121D01*
X331321Y26835D01*
X331250Y26549D01*
X331237Y26513D01*
X331226Y26477D01*
X331220Y26466D01*
X331216Y26455D01*
X331197Y26422D01*
X331179Y26389D01*
X331171Y26379D01*
X331165Y26369D01*
X331139Y26341D01*
X331115Y26312D01*
X331106Y26304D01*
X331097Y26295D01*
X331067Y26272D01*
X331038Y26248D01*
X331027Y26242D01*
X331017Y26235D01*
X330983Y26219D01*
X330950Y26201D01*
X330938Y26197D01*
X330927Y26192D01*
X330890Y26183D01*
X330854Y26172D01*
X330842Y26171D01*
X330830Y26168D01*
X330792Y26166D01*
X330754Y26162D01*
X327859D01*
X327825Y26165D01*
X327791Y26167D01*
X327775Y26170D01*
X327759Y26172D01*
X327727Y26182D01*
X327694Y26189D01*
X327679Y26196D01*
X327663Y26201D01*
X327634Y26217D01*
X327603Y26231D01*
X327590Y26240D01*
X327575Y26248D01*
X327549Y26270D01*
X327522Y26289D01*
X327510Y26301D01*
X327498Y26312D01*
X327477Y26338D01*
X327453Y26363D01*
X327445Y26377D01*
X327434Y26389D01*
X327419Y26419D01*
X327401Y26448D01*
X327395Y26463D01*
X327387Y26477D01*
X327377Y26509D01*
X327365Y26541D01*
X327363Y26557D01*
X327358Y26573D01*
X327355Y26607D01*
X327349Y26640D01*
X327350Y26656D01*
X327348Y26673D01*
X327352Y26706D01*
X327353Y26740D01*
X327404Y27121D01*
X327407Y27137D01*
X327409Y27154D01*
X327485Y27535D01*
X327489Y27546D01*
X327491Y27558D01*
X327592Y27965D01*
X327599Y27983D01*
X327603Y28002D01*
X327730Y28383D01*
X327732Y28389D01*
X327734Y28394D01*
X327861Y28749D01*
X327865Y28758D01*
X327868Y28767D01*
X328020Y29148D01*
X328030Y29167D01*
X328037Y29187D01*
X328215Y29543D01*
X328223Y29555D01*
X328228Y29567D01*
X328432Y29923D01*
X328436Y29930D01*
X328440Y29937D01*
X328643Y30268D01*
X328652Y30279D01*
X328658Y30291D01*
X328887Y30621D01*
X328902Y30638D01*
X328914Y30657D01*
X329169Y30962D01*
X329422Y31267D01*
X329431Y31275D01*
X329438Y31285D01*
X329718Y31590D01*
X329735Y31605D01*
X329751Y31622D01*
X330030Y31876D01*
X330030Y31876D01*
X330333Y32154D01*
X330353Y32169D01*
X330372Y32186D01*
X330677Y32415D01*
X330685Y32420D01*
X330692Y32426D01*
X331023Y32655D01*
X331042Y32666D01*
X331060Y32678D01*
X331409Y32878D01*
X331731Y33076D01*
X331752Y33086D01*
X331771Y33098D01*
X332126Y33276D01*
X332146Y33284D01*
X332165Y33293D01*
X332546Y33446D01*
X332561Y33450D01*
X332574Y33456D01*
X332955Y33583D01*
X333336Y33710D01*
X333352Y33714D01*
X333366Y33719D01*
X333747Y33821D01*
X333763Y33823D01*
X333778Y33828D01*
X334160Y33904D01*
X334178Y33906D01*
X334196Y33910D01*
X334603Y33961D01*
X334635Y33962D01*
X334666Y33965D01*
X334684Y33963D01*
D02*
G37*
G36*
X330797Y25172D02*
X330839Y25169D01*
X330846Y25167D01*
X330854Y25167D01*
X330894Y25154D01*
X330935Y25143D01*
X330942Y25140D01*
X330950Y25138D01*
X330987Y25118D01*
X331025Y25099D01*
X331031Y25094D01*
X331038Y25090D01*
X331071Y25064D01*
X331104Y25038D01*
X331109Y25032D01*
X331115Y25027D01*
X331142Y24994D01*
X331170Y24962D01*
X331174Y24956D01*
X331179Y24950D01*
X331199Y24912D01*
X331220Y24876D01*
X331222Y24868D01*
X331226Y24861D01*
X331238Y24821D01*
X331252Y24781D01*
X331327Y24455D01*
X331393Y24192D01*
X331505Y23923D01*
X331622Y23642D01*
X331753Y23402D01*
X331916Y23146D01*
X332078Y22915D01*
X332261Y22685D01*
X332452Y22473D01*
X332673Y22296D01*
X332683Y22287D01*
X332694Y22279D01*
X332904Y22092D01*
X333150Y21913D01*
X333402Y21753D01*
X333642Y21622D01*
X333905Y21512D01*
X334192Y21416D01*
X334474Y21323D01*
X334781Y21252D01*
X334821Y21238D01*
X334861Y21226D01*
X334868Y21222D01*
X334876Y21220D01*
X334913Y21199D01*
X334950Y21179D01*
X334956Y21174D01*
X334962Y21170D01*
X334994Y21142D01*
X335027Y21115D01*
X335032Y21109D01*
X335038Y21104D01*
X335064Y21070D01*
X335090Y21038D01*
X335094Y21031D01*
X335099Y21025D01*
X335118Y20986D01*
X335138Y20950D01*
X335140Y20942D01*
X335143Y20935D01*
X335154Y20894D01*
X335167Y20854D01*
X335167Y20846D01*
X335169Y20839D01*
X335172Y20796D01*
X335177Y20754D01*
Y17859D01*
X335173Y17827D01*
X335173Y17795D01*
X335168Y17778D01*
X335167Y17759D01*
X335158Y17729D01*
X335150Y17698D01*
X335143Y17681D01*
X335138Y17663D01*
X335123Y17636D01*
X335110Y17606D01*
X335099Y17591D01*
X335090Y17575D01*
X335070Y17551D01*
X335052Y17525D01*
X335039Y17512D01*
X335027Y17498D01*
X335003Y17478D01*
X334979Y17456D01*
X334964Y17446D01*
X334950Y17434D01*
X334922Y17420D01*
X334895Y17402D01*
X334878Y17396D01*
X334861Y17387D01*
X334831Y17378D01*
X334801Y17367D01*
X334783Y17364D01*
X334766Y17358D01*
X334734Y17355D01*
X334703Y17350D01*
X334684Y17350D01*
X334666Y17348D01*
X334634Y17351D01*
X334603Y17352D01*
X334196Y17403D01*
X334162Y17411D01*
X334128Y17416D01*
X333766Y17513D01*
X333378Y17586D01*
X333345Y17595D01*
X333311Y17603D01*
X332930Y17730D01*
X332925Y17732D01*
X332920Y17734D01*
X332564Y17861D01*
X332542Y17871D01*
X332520Y17879D01*
X332146Y18053D01*
X331798Y18202D01*
X331772Y18217D01*
X331746Y18228D01*
X331390Y18432D01*
X331383Y18436D01*
X331376Y18440D01*
X331046Y18643D01*
X331035Y18652D01*
X331023Y18658D01*
X330692Y18887D01*
X330675Y18902D01*
X330656Y18914D01*
X330351Y19168D01*
X330047Y19422D01*
X330030Y19439D01*
X330012Y19454D01*
X329733Y19733D01*
X329733Y19733D01*
X329454Y20012D01*
X329439Y20031D01*
X329422Y20047D01*
X329169Y20351D01*
X329163Y20360D01*
X329156Y20367D01*
X328902Y20697D01*
X328900Y20700D01*
X328898Y20702D01*
X328670Y21007D01*
X328653Y21034D01*
X328635Y21060D01*
X328436Y21408D01*
X328237Y21732D01*
X328224Y21758D01*
X328209Y21783D01*
X328031Y22164D01*
X328028Y22172D01*
X328025Y22179D01*
X327872Y22534D01*
X327866Y22555D01*
X327857Y22574D01*
X327730Y22955D01*
X327603Y23336D01*
X327600Y23352D01*
X327594Y23366D01*
X327493Y23747D01*
X327490Y23763D01*
X327485Y23779D01*
X327409Y24160D01*
X327407Y24178D01*
X327403Y24196D01*
X327352Y24603D01*
X327351Y24634D01*
X327348Y24666D01*
X327350Y24684D01*
X327350Y24703D01*
X327355Y24734D01*
X327358Y24766D01*
X327364Y24783D01*
X327367Y24801D01*
X327378Y24831D01*
X327387Y24861D01*
X327396Y24878D01*
X327402Y24895D01*
X327420Y24922D01*
X327434Y24950D01*
X327446Y24964D01*
X327456Y24979D01*
X327478Y25002D01*
X327498Y25027D01*
X327512Y25039D01*
X327525Y25052D01*
X327551Y25070D01*
X327575Y25090D01*
X327591Y25099D01*
X327607Y25110D01*
X327636Y25123D01*
X327663Y25138D01*
X327681Y25143D01*
X327698Y25150D01*
X327729Y25157D01*
X327759Y25167D01*
X327777Y25168D01*
X327795Y25173D01*
X327827Y25173D01*
X327859Y25176D01*
X330754D01*
X330797Y25172D01*
D02*
G37*
G36*
X343486Y25173D02*
X343518Y25173D01*
X343536Y25168D01*
X343554Y25167D01*
X343584Y25157D01*
X343615Y25150D01*
X343632Y25143D01*
X343650Y25138D01*
X343677Y25123D01*
X343707Y25110D01*
X343722Y25099D01*
X343738Y25090D01*
X343762Y25070D01*
X343788Y25052D01*
X343801Y25039D01*
X343815Y25027D01*
X343835Y25003D01*
X343857Y24979D01*
X343867Y24964D01*
X343879Y24950D01*
X343894Y24922D01*
X343911Y24895D01*
X343917Y24878D01*
X343926Y24861D01*
X343935Y24831D01*
X343947Y24801D01*
X343950Y24783D01*
X343955Y24766D01*
X343958Y24734D01*
X343964Y24703D01*
X343963Y24684D01*
X343965Y24666D01*
X343962Y24634D01*
X343961Y24603D01*
X343910Y24196D01*
X343906Y24178D01*
X343904Y24160D01*
X343828Y23779D01*
X343823Y23763D01*
X343821Y23747D01*
X343719Y23366D01*
X343714Y23352D01*
X343710Y23336D01*
X343583Y22955D01*
X343583Y22955D01*
X343456Y22574D01*
X343447Y22555D01*
X343441Y22534D01*
X343289Y22179D01*
X343285Y22172D01*
X343282Y22164D01*
X343104Y21783D01*
X343089Y21758D01*
X343076Y21732D01*
X342877Y21408D01*
X342678Y21060D01*
X342666Y21042D01*
X342655Y21023D01*
X342426Y20692D01*
X342412Y20675D01*
X342399Y20656D01*
X342145Y20351D01*
X341891Y20047D01*
X341874Y20030D01*
X341860Y20012D01*
X341580Y19733D01*
X341580Y19733D01*
X341301Y19454D01*
X341283Y19439D01*
X341267Y19422D01*
X340962Y19168D01*
X340962Y19168D01*
X340657Y18914D01*
X340638Y18902D01*
X340621Y18887D01*
X340291Y18658D01*
X340271Y18648D01*
X340253Y18635D01*
X339905Y18436D01*
X339582Y18237D01*
X339548Y18220D01*
X339515Y18202D01*
X339167Y18053D01*
X338793Y17879D01*
X338766Y17869D01*
X338739Y17857D01*
X338358Y17730D01*
X337977Y17603D01*
X337962Y17600D01*
X337947Y17594D01*
X337566Y17493D01*
X337550Y17490D01*
X337535Y17485D01*
X337154Y17409D01*
X337135Y17407D01*
X337117Y17403D01*
X336711Y17352D01*
X336679Y17351D01*
X336647Y17348D01*
X336629Y17350D01*
X336610Y17350D01*
X336579Y17355D01*
X336548Y17358D01*
X336530Y17364D01*
X336512Y17367D01*
X336482Y17378D01*
X336452Y17387D01*
X336436Y17396D01*
X336418Y17402D01*
X336391Y17419D01*
X336364Y17434D01*
X336349Y17446D01*
X336334Y17456D01*
X336311Y17478D01*
X336286Y17498D01*
X336274Y17512D01*
X336261Y17525D01*
X336243Y17551D01*
X336223Y17575D01*
X336214Y17591D01*
X336203Y17606D01*
X336190Y17636D01*
X336176Y17663D01*
X336170Y17681D01*
X336163Y17698D01*
X336156Y17729D01*
X336147Y17759D01*
X336145Y17778D01*
X336141Y17795D01*
X336140Y17827D01*
X336137Y17859D01*
Y20754D01*
X336141Y20796D01*
X336144Y20839D01*
X336146Y20846D01*
X336147Y20854D01*
X336159Y20894D01*
X336170Y20935D01*
X336173Y20942D01*
X336176Y20950D01*
X336195Y20986D01*
X336214Y21025D01*
X336219Y21031D01*
X336223Y21038D01*
X336249Y21070D01*
X336275Y21104D01*
X336281Y21109D01*
X336286Y21115D01*
X336319Y21142D01*
X336351Y21170D01*
X336358Y21174D01*
X336364Y21179D01*
X336401Y21199D01*
X336438Y21220D01*
X336445Y21222D01*
X336452Y21226D01*
X336493Y21238D01*
X336532Y21252D01*
X336839Y21323D01*
X337121Y21416D01*
X337408Y21512D01*
X337671Y21622D01*
X337912Y21753D01*
X338163Y21913D01*
X338410Y22092D01*
X338619Y22279D01*
X338630Y22287D01*
X338640Y22296D01*
X338861Y22473D01*
X339052Y22685D01*
X339235Y22915D01*
X339398Y23146D01*
X339560Y23402D01*
X339691Y23642D01*
X339801Y23905D01*
X339897Y24192D01*
X339991Y24474D01*
X340061Y24781D01*
X340075Y24821D01*
X340087Y24861D01*
X340091Y24868D01*
X340093Y24876D01*
X340115Y24913D01*
X340134Y24950D01*
X340139Y24956D01*
X340143Y24962D01*
X340171Y24994D01*
X340198Y25027D01*
X340204Y25032D01*
X340209Y25038D01*
X340243Y25064D01*
X340275Y25090D01*
X340282Y25094D01*
X340288Y25099D01*
X340327Y25118D01*
X340364Y25138D01*
X340371Y25140D01*
X340378Y25143D01*
X340419Y25154D01*
X340459Y25167D01*
X340467Y25167D01*
X340475Y25169D01*
X340517Y25172D01*
X340559Y25176D01*
X343454D01*
X343486Y25173D01*
D02*
G37*
D20*
X121856Y180244D02*
D03*
X122317Y196472D02*
D03*
D28*
X140442Y237616D02*
D03*
X153942D02*
D03*
Y227616D02*
D03*
X140442D02*
D03*
D29*
X259142Y199301D02*
D03*
Y204301D02*
D03*
Y209301D02*
D03*
X265891D02*
D03*
Y204301D02*
D03*
Y199301D02*
D03*
X105291Y187403D02*
D03*
Y182403D02*
D03*
Y177403D02*
D03*
X98541D02*
D03*
Y182403D02*
D03*
Y187403D02*
D03*
D30*
X126219Y357989D02*
D03*
X106219Y348489D02*
D03*
Y367489D02*
D03*
X155000Y270000D02*
D03*
X175000Y279500D02*
D03*
Y260500D02*
D03*
D31*
X115733Y270000D02*
D03*
X134267Y279150D02*
D03*
D32*
Y260850D02*
D03*
D33*
X207687Y389431D02*
D03*
Y355931D02*
D03*
X240296Y316977D02*
D03*
Y283477D02*
D03*
D34*
X286006Y455000D02*
D03*
X273994D02*
D03*
X296818Y388030D02*
D03*
X284806D02*
D03*
X351945Y398908D02*
D03*
X339933D02*
D03*
X351080Y458865D02*
D03*
X339068D02*
D03*
X236006Y455000D02*
D03*
X223994D02*
D03*
D35*
X235000Y385257D02*
D03*
Y364743D02*
D03*
X266955Y310648D02*
D03*
Y290135D02*
D03*
D36*
X280000Y423241D02*
D03*
Y436759D02*
D03*
X339456Y380261D02*
D03*
Y366744D02*
D03*
X340190Y440311D02*
D03*
Y426794D02*
D03*
X290898Y356787D02*
D03*
Y370305D02*
D03*
X230000Y423241D02*
D03*
Y436759D02*
D03*
D37*
X319250Y122489D02*
D03*
Y136011D02*
D03*
X260732Y126821D02*
D03*
Y113299D02*
D03*
X261315Y166890D02*
D03*
Y180412D02*
D03*
D38*
X315000Y20714D02*
D03*
Y29286D02*
D03*
D39*
X77500Y355000D02*
D03*
X52500D02*
D03*
X174232Y231466D02*
D03*
X199232D02*
D03*
D40*
X184176Y385897D02*
D03*
Y357881D02*
D03*
X216568Y313530D02*
D03*
Y285514D02*
D03*
D43*
X71356Y375162D02*
D03*
X78928D02*
D03*
X238293Y74877D02*
D03*
X245865D02*
D03*
X141222Y355039D02*
D03*
X148794D02*
D03*
X65610Y18778D02*
D03*
X58039D02*
D03*
X203778Y209961D02*
D03*
X196206D02*
D03*
X177780D02*
D03*
X170208D02*
D03*
X132534Y209834D02*
D03*
X140105D02*
D03*
X158754Y209755D02*
D03*
X151182D02*
D03*
X349487Y55693D02*
D03*
X341916D02*
D03*
X52978Y375206D02*
D03*
X60550D02*
D03*
X257536Y270061D02*
D03*
X249965D02*
D03*
X250812Y471172D02*
D03*
X258383D02*
D03*
X253107Y404714D02*
D03*
X260678D02*
D03*
X251250Y454939D02*
D03*
X258821D02*
D03*
X141363Y369022D02*
D03*
X148935D02*
D03*
X221729Y470979D02*
D03*
X214158D02*
D03*
X260250Y103189D02*
D03*
X267821D02*
D03*
X83604Y88558D02*
D03*
X91175D02*
D03*
X18214Y484977D02*
D03*
X10643D02*
D03*
X18052Y471402D02*
D03*
X10481D02*
D03*
X17943Y457937D02*
D03*
X10372D02*
D03*
X196786Y262561D02*
D03*
X189214D02*
D03*
X18053Y444471D02*
D03*
X10482D02*
D03*
X221986Y329964D02*
D03*
X214415D02*
D03*
X18162Y430951D02*
D03*
X10591D02*
D03*
D47*
X322750Y265000D02*
D03*
X307250D02*
D03*
X295571Y338002D02*
D03*
X280070D02*
D03*
X222250Y405000D02*
D03*
X237750D02*
D03*
X23812Y18105D02*
D03*
X39313D02*
D03*
X352374Y74736D02*
D03*
X336874D02*
D03*
X286379Y270176D02*
D03*
X270879D02*
D03*
X272250Y405000D02*
D03*
X287750D02*
D03*
X238913Y347766D02*
D03*
X223413D02*
D03*
D48*
X291497Y291800D02*
D03*
Y307300D02*
D03*
X335000Y342750D02*
D03*
Y327250D02*
D03*
X316034Y380322D02*
D03*
Y364823D02*
D03*
X316844Y442322D02*
D03*
Y426822D02*
D03*
D49*
X342000Y123244D02*
D03*
Y135256D02*
D03*
D50*
X181369Y468876D02*
D03*
Y461305D02*
D03*
X336449Y268982D02*
D03*
Y261411D02*
D03*
X181378Y451690D02*
D03*
Y444119D02*
D03*
X193932Y432575D02*
D03*
Y425003D02*
D03*
X180249Y432575D02*
D03*
Y425003D02*
D03*
X17764Y497315D02*
D03*
Y504886D02*
D03*
X197993Y452016D02*
D03*
Y444445D02*
D03*
X198101Y468848D02*
D03*
Y461277D02*
D03*
D52*
X52488Y35127D02*
D03*
X39788D02*
D03*
X27088D02*
D03*
X65188D02*
D03*
X27088Y113130D02*
D03*
X65188D02*
D03*
X52488D02*
D03*
X39788D02*
D03*
D53*
X46139Y74141D02*
D03*
D54*
X80260Y199552D02*
D03*
Y194548D02*
D03*
Y189545D02*
D03*
Y184541D02*
D03*
Y179562D02*
D03*
Y174559D02*
D03*
Y169555D02*
D03*
Y164551D02*
D03*
X283587Y186815D02*
D03*
Y191819D02*
D03*
Y196822D02*
D03*
Y201826D02*
D03*
Y206805D02*
D03*
Y211808D02*
D03*
Y216812D02*
D03*
Y221816D02*
D03*
D55*
X80260Y214056D02*
D03*
Y206054D02*
D03*
X283587Y172311D02*
D03*
Y180312D02*
D03*
D56*
X80260Y150048D02*
D03*
Y158048D02*
D03*
X283587Y236319D02*
D03*
Y228318D02*
D03*
D57*
X321000Y297500D02*
D03*
D58*
X328500Y283500D02*
D03*
X323500D02*
D03*
X318500D02*
D03*
X313500D02*
D03*
Y311500D02*
D03*
X318500D02*
D03*
X323500D02*
D03*
X328500D02*
D03*
D59*
X307000Y290000D02*
D03*
Y295000D02*
D03*
Y300000D02*
D03*
Y305000D02*
D03*
X335000D02*
D03*
Y300000D02*
D03*
Y295000D02*
D03*
Y290000D02*
D03*
D60*
X192500Y59500D02*
D03*
X157500D02*
D03*
X202500D02*
D03*
X147500D02*
D03*
X197500D02*
D03*
X137500D02*
D03*
X227500D02*
D03*
X212500D02*
D03*
X172500D02*
D03*
X122500D02*
D03*
X222500D02*
D03*
X127500D02*
D03*
X132500D02*
D03*
X217500D02*
D03*
X142500D02*
D03*
X207500D02*
D03*
X152500D02*
D03*
X187500D02*
D03*
X162500D02*
D03*
X177500D02*
D03*
X167500D02*
D03*
X182500D02*
D03*
D61*
X250250Y40500D02*
D03*
X99750D02*
D03*
D62*
X340000Y21313D02*
D03*
X331313D02*
D03*
Y30000D02*
D03*
X340000D02*
D03*
D63*
X330907Y40439D02*
D03*
X340406D02*
D03*
D64*
X142488Y94509D02*
D03*
Y100986D02*
D03*
Y107488D02*
D03*
Y113990D02*
D03*
Y120493D02*
D03*
Y126995D02*
D03*
Y133498D02*
D03*
Y140000D02*
D03*
Y146502D02*
D03*
Y153005D02*
D03*
Y159507D02*
D03*
Y166010D02*
D03*
Y172487D02*
D03*
Y178989D02*
D03*
Y185491D02*
D03*
Y191994D02*
D03*
X148990Y94509D02*
D03*
Y100986D02*
D03*
Y107488D02*
D03*
Y113990D02*
D03*
Y120493D02*
D03*
Y126995D02*
D03*
Y133498D02*
D03*
Y140000D02*
D03*
Y146502D02*
D03*
Y153005D02*
D03*
Y159507D02*
D03*
Y166010D02*
D03*
Y172487D02*
D03*
Y178989D02*
D03*
Y185491D02*
D03*
Y191994D02*
D03*
X155493Y94509D02*
D03*
Y100986D02*
D03*
Y107488D02*
D03*
Y113990D02*
D03*
Y120493D02*
D03*
Y126995D02*
D03*
Y133498D02*
D03*
Y140000D02*
D03*
Y146502D02*
D03*
Y153005D02*
D03*
Y159507D02*
D03*
Y166010D02*
D03*
Y172487D02*
D03*
Y178989D02*
D03*
Y185491D02*
D03*
Y191994D02*
D03*
X161995Y94509D02*
D03*
Y100986D02*
D03*
Y107488D02*
D03*
Y113990D02*
D03*
Y120493D02*
D03*
Y126995D02*
D03*
Y133498D02*
D03*
Y140000D02*
D03*
Y146502D02*
D03*
Y153005D02*
D03*
Y159507D02*
D03*
Y166010D02*
D03*
Y172487D02*
D03*
Y178989D02*
D03*
Y185491D02*
D03*
Y191994D02*
D03*
X168498Y94509D02*
D03*
Y100986D02*
D03*
Y107488D02*
D03*
Y113990D02*
D03*
Y120493D02*
D03*
Y126995D02*
D03*
Y133498D02*
D03*
Y140000D02*
D03*
Y146502D02*
D03*
Y153005D02*
D03*
Y159507D02*
D03*
Y166010D02*
D03*
Y172487D02*
D03*
Y178989D02*
D03*
Y185491D02*
D03*
Y191994D02*
D03*
X175000Y94509D02*
D03*
Y100986D02*
D03*
Y107488D02*
D03*
Y113990D02*
D03*
Y120493D02*
D03*
Y126995D02*
D03*
Y133498D02*
D03*
Y140000D02*
D03*
Y146502D02*
D03*
Y153005D02*
D03*
Y159507D02*
D03*
Y166010D02*
D03*
Y172487D02*
D03*
Y178989D02*
D03*
Y185491D02*
D03*
Y191994D02*
D03*
X181477Y94509D02*
D03*
Y100986D02*
D03*
Y107488D02*
D03*
Y113990D02*
D03*
Y120493D02*
D03*
Y126995D02*
D03*
Y133498D02*
D03*
Y140000D02*
D03*
Y146502D02*
D03*
Y153005D02*
D03*
Y159507D02*
D03*
Y166010D02*
D03*
Y172487D02*
D03*
Y178989D02*
D03*
Y185491D02*
D03*
Y191994D02*
D03*
X187979Y94509D02*
D03*
Y100986D02*
D03*
Y107488D02*
D03*
Y113990D02*
D03*
Y120493D02*
D03*
Y126995D02*
D03*
Y133498D02*
D03*
Y140000D02*
D03*
Y146502D02*
D03*
Y153005D02*
D03*
Y159507D02*
D03*
Y166010D02*
D03*
Y172487D02*
D03*
Y178989D02*
D03*
Y185491D02*
D03*
Y191994D02*
D03*
X194482Y94509D02*
D03*
Y100986D02*
D03*
Y107488D02*
D03*
Y113990D02*
D03*
Y120493D02*
D03*
Y126995D02*
D03*
Y133498D02*
D03*
Y140000D02*
D03*
Y146502D02*
D03*
Y153005D02*
D03*
Y159507D02*
D03*
Y166010D02*
D03*
Y172487D02*
D03*
Y178989D02*
D03*
Y185491D02*
D03*
Y191994D02*
D03*
X200984Y94509D02*
D03*
Y100986D02*
D03*
Y107488D02*
D03*
Y113990D02*
D03*
Y120493D02*
D03*
Y126995D02*
D03*
Y133498D02*
D03*
Y140000D02*
D03*
Y146502D02*
D03*
Y153005D02*
D03*
Y159507D02*
D03*
Y166010D02*
D03*
Y172487D02*
D03*
Y178989D02*
D03*
Y185491D02*
D03*
Y191994D02*
D03*
X207487Y94509D02*
D03*
Y100986D02*
D03*
Y107488D02*
D03*
Y113990D02*
D03*
Y120493D02*
D03*
Y126995D02*
D03*
Y133498D02*
D03*
Y140000D02*
D03*
Y146502D02*
D03*
Y153005D02*
D03*
Y159507D02*
D03*
Y166010D02*
D03*
Y172487D02*
D03*
Y178989D02*
D03*
Y185491D02*
D03*
Y191994D02*
D03*
X213989Y94509D02*
D03*
Y100986D02*
D03*
Y107488D02*
D03*
Y113990D02*
D03*
Y120493D02*
D03*
Y126995D02*
D03*
Y133498D02*
D03*
Y140000D02*
D03*
Y146502D02*
D03*
Y153005D02*
D03*
Y159507D02*
D03*
Y166010D02*
D03*
Y172487D02*
D03*
Y178989D02*
D03*
Y185491D02*
D03*
Y191994D02*
D03*
X220491Y94509D02*
D03*
Y100986D02*
D03*
Y107488D02*
D03*
Y113990D02*
D03*
Y120493D02*
D03*
Y126995D02*
D03*
Y133498D02*
D03*
Y140000D02*
D03*
Y146502D02*
D03*
Y153005D02*
D03*
Y159507D02*
D03*
Y166010D02*
D03*
Y172487D02*
D03*
Y178989D02*
D03*
Y185491D02*
D03*
Y191994D02*
D03*
X226994Y94509D02*
D03*
Y100986D02*
D03*
Y107488D02*
D03*
Y113990D02*
D03*
Y120493D02*
D03*
Y126995D02*
D03*
Y133498D02*
D03*
Y140000D02*
D03*
Y146502D02*
D03*
Y153005D02*
D03*
Y159507D02*
D03*
Y166010D02*
D03*
Y172487D02*
D03*
Y178989D02*
D03*
Y185491D02*
D03*
Y191994D02*
D03*
X233496Y94509D02*
D03*
Y100986D02*
D03*
Y107488D02*
D03*
Y113990D02*
D03*
Y120493D02*
D03*
Y126995D02*
D03*
Y133498D02*
D03*
Y140000D02*
D03*
Y146502D02*
D03*
Y153005D02*
D03*
Y159507D02*
D03*
Y166010D02*
D03*
Y172487D02*
D03*
Y178989D02*
D03*
Y185491D02*
D03*
Y191994D02*
D03*
X239999Y94509D02*
D03*
Y100986D02*
D03*
Y107488D02*
D03*
Y113990D02*
D03*
Y120493D02*
D03*
Y126995D02*
D03*
Y133498D02*
D03*
Y140000D02*
D03*
Y146502D02*
D03*
Y153005D02*
D03*
Y159507D02*
D03*
Y166010D02*
D03*
Y172487D02*
D03*
Y178989D02*
D03*
Y185491D02*
D03*
Y191994D02*
D03*
D65*
X120363Y152377D02*
D03*
X115359D02*
D03*
X110356D02*
D03*
X105352D02*
D03*
X100348D02*
D03*
X120363Y110188D02*
D03*
X115359D02*
D03*
X110356D02*
D03*
X105352D02*
D03*
X100348D02*
D03*
D66*
X297033Y24762D02*
D03*
Y41262D02*
D03*
X275000Y25000D02*
D03*
Y41500D02*
D03*
D67*
X85624Y477067D02*
D03*
D68*
X157201Y497184D02*
D03*
Y488167D02*
D03*
Y479175D02*
D03*
Y470184D02*
D03*
Y461167D02*
D03*
Y452175D02*
D03*
Y443183D02*
D03*
Y434166D02*
D03*
Y425175D02*
D03*
Y416183D02*
D03*
Y407166D02*
D03*
X37211D02*
D03*
Y416183D02*
D03*
Y425175D02*
D03*
Y434166D02*
D03*
Y443183D02*
D03*
Y452175D02*
D03*
Y461167D02*
D03*
Y470184D02*
D03*
Y479175D02*
D03*
Y488167D02*
D03*
Y497184D02*
D03*
D69*
X142215Y392180D02*
D03*
X133223D02*
D03*
X124206D02*
D03*
X115215D02*
D03*
X106223D02*
D03*
X97206D02*
D03*
X88215D02*
D03*
X79223D02*
D03*
X70206D02*
D03*
X61214D02*
D03*
X52223D02*
D03*
Y512170D02*
D03*
X61214D02*
D03*
X70206D02*
D03*
X79223D02*
D03*
X88215D02*
D03*
X97206D02*
D03*
X106223D02*
D03*
X115215D02*
D03*
X124206D02*
D03*
X133223D02*
D03*
X142215D02*
D03*
D70*
X133309Y512555D02*
D03*
D71*
X30756Y138795D02*
D03*
Y225308D02*
D03*
X333092Y247572D02*
D03*
Y161059D02*
D03*
D72*
X72564Y138795D02*
D03*
Y225308D02*
D03*
X291283Y247572D02*
D03*
Y161059D02*
D03*
D73*
X295500Y490000D02*
D03*
X294601Y107402D02*
D03*
X69736Y322009D02*
D03*
D74*
X295500Y510000D02*
D03*
X294601Y127402D02*
D03*
X69736Y302009D02*
D03*
D75*
X352693Y260506D02*
D03*
X352737Y276631D02*
D03*
X182865Y340381D02*
D03*
X198990Y340337D02*
D03*
X195000Y297874D02*
D03*
X194956Y281749D02*
D03*
X352454Y344100D02*
D03*
X352410Y327975D02*
D03*
X352571Y290331D02*
D03*
X352615Y306456D02*
D03*
D76*
X26150Y258584D02*
D03*
D77*
X206206Y368130D02*
D03*
Y379130D02*
D03*
X326000Y302500D02*
D03*
Y292500D02*
D03*
X316000D02*
D03*
Y302500D02*
D03*
X321000Y297500D02*
D03*
X240000Y294500D02*
D03*
Y305500D02*
D03*
M02*
