M48
;Layer_Color=9474304
;FILE_FORMAT=4:4
METRIC,LZ
;TYPE=PLATED
T01F00S00C0.3000
T02F00S00C0.6000
T03F00S00C0.7000
;TYPE=NON_PLATED
T05F00S00C0.5000
T06F00S00C2.6000
%
T01
X0004951Y0002
X00057518Y00018778
X00053828Y00035141
X00065291Y00035088
X00087341Y00040221
Y00045738
X00099539Y0004054
X00125723Y00045724
X00137998Y00048487
X00144567Y00043933
X00153006Y00048672
X00168038Y00048584
X00183071Y000485
X00192142Y00047227
X0019817Y00048568
X00188996Y00042695
X0017951Y0004
X0015951
X0016951Y0002
X0018951
X0020951
X00221215Y00033321
X00212166Y00046116
X00206056Y00066729
X0020054Y00066611
X0021909Y00066765
X00224598Y00067065
X00236558Y00074431
X00246073Y00074838
X00256489Y00056772
X00263151Y00054663
X00262812Y0004498
X0025035Y00039472
X00277765Y00040401
X00284371Y00051383
X00270503Y00059647
X0027951Y0008
X0029951
X0031951
X0032951Y001
X0034951
X00353258Y00074372
X00349141Y00055436
X003225Y0005125
X00310567Y00050183
X0030951Y0006
X00301523Y00059416
X00298768Y00038385
X0033072Y00031046
X0034042Y00031329
X00340754Y00020601
X0034951Y0002
X00330772Y00020343
X0030951Y001
X00316722Y00119333
X00323278Y00125917
X00322539Y0014024
X00315018Y00138134
X0028951Y0014
X00265277Y00135999
X00262072Y00129905
X00263621Y0012388
X00264Y00113
X00257711Y00113211
X00251685Y00116706
X00251688Y00126
X00227037Y00126984
X00226994Y00133498
Y0014
Y00146502
X00220491
X00213989
X00207487
X00200984
X00194482
X00187979
X00181477
X00175
Y00153005
X00181477
Y00159507
X00175
Y0016601
X00181477
Y00172487
Y00178989
X00187979
Y00185491
X00181556Y00185424
Y00191954
X00187944Y00191971
X00192577Y00199753
X00199Y0020075
X00208017Y0020026
X00215697Y0020061
X00223253Y00200457
X00220446Y00193319
X00214035Y00191967
X00213989Y00185491
X00207487
X00200984
X00201066Y00191889
X00207487Y00191994
X00207442Y00178998
X0020118Y00179143
X00200966Y00172433
X00200984Y0016601
X00207487
X00207523Y00172473
X00213929
X00213989Y0016601
X00220491
Y00159507
X00213989
X00207487
Y00153005
X00200984
Y00159507
X00194482
Y00153005
X00187979
Y00159517
Y0016601
Y00172487
X0019441Y00178876
Y00185631
X00175Y00185491
Y00191994
X00168498
X0016849Y00185451
X00168556Y0017897
X00175044Y00178892
X00161959Y00179043
X0015551
X00155493Y00172487
X00161995
Y0016601
X00155562Y00166043
X00168498Y0016601
Y00159507
X00161995
Y00153005
Y00146502
X00155493
X00148997Y00146504
Y00139978
X00155493Y0014
Y00133498
X00161995
Y00126995
X00168498
Y00120493
Y0011399
X00175
X00181477
Y00107488
X00181473Y00101016
X00174985Y00100939
X00175057Y00094561
X00181613Y00094509
X00167323Y00091979
X00168498Y00100939
X00168422Y00107465
X00161972Y00107434
Y00101054
X00155485Y00107434
X0014899Y00107488
X00142488
X00148937Y00113977
X00155493Y0011399
Y00120493
X00161995
Y0011399
X00175Y00107488
X00187979
Y0011399
X00194482
Y00120493
X00200984
X00207487
X00207491Y00114022
X00213989Y0011399
X00220491
Y00120493
Y00126995
Y00133498
X00213989
X00207487
X00200984
X00194482
X00187979
X00181477
X00175
Y0014
X00181477
X00187979
X00194482
X00200984
X00207487
X00213989
X00220491
Y00153005
X00213989
Y00126995
Y00120493
Y00107488
X00220436Y00107503
X00220474Y00100939
X00220397Y00094472
X00226852Y00088398
X00226994Y00100986
X00226999Y00107465
X00233487Y00101054
X00233496Y00094509
X00239999Y00100986
X00213651Y00101275
X00207461Y00100978
X00200973Y00101016
X00200947Y00094576
X00199304Y00088855
X0020922Y00088019
X00207487Y00107488
X00200984Y0011399
Y00126995
X00207487
X00194482
X00187979
Y00120493
X00181477
X00175
Y00126995
X00181477
X00168498Y00133498
Y0014
Y00146502
Y00153005
X00161995Y0014
X00155493Y00126995
X00148991Y00133426
X00148959Y00120536
X00137164Y00131722
X00129685
X00121914Y00124414
X00121509Y001078
X00129583Y00107447
X00129141Y00093522
X00135038Y00093605
X0014375Y0008569
X00155509Y00094557
X0017082Y00066686
X001795Y0007075
X00126116Y00079325
X00120633Y00077027
X00121Y00082914
X00113181Y00075811
X00104362Y00075159
X00106132Y0009087
X0009198Y00088913
X00095593Y00119935
X00105312Y00119745
X00111978Y0013202
X00110226Y00143555
X00094382Y00140349
X00097267Y00135647
X00081205Y00149554
X00057061Y00166924
X00050051Y0016864
X00049891Y00161267
X00045898Y00157055
X00041866Y00152541
X0005913Y00175516
X00058601Y00181007
X00053601Y001834
X00053362Y00188912
X0004954Y00194249
X00057304
X0009825Y001975
X0010475
X00108Y00204
X00115Y00199986
X00127638Y00203116
X00128626Y00196091
X00133102Y00210123
X00150974Y00209794
X00158754Y00209755
X0016Y0020075
X00155486Y00192002
X00155486Y00185599
X00161965Y00185556
X00148893Y00185599
X00148878Y00179043
X00148998Y00192075
X00179534Y00197801
X00170208Y00209961
X00186737Y00213663
X00195998Y0021
X00203955Y00209823
X0020951Y0022
X00220932Y00216026
X0022825Y00217
Y002105
X00227514Y00223354
X0023778Y00234273
X00237904Y0024123
X00244861Y00240981
X00244985Y00234894
X00259259Y002105
X00259142Y00199301
X00246453Y00196328
X0024692Y00184469
X00262079Y00183512
X00262356Y00177702
X00262079Y00169643
Y00163478
X00239999Y00172487
X00227378Y00178391
X00290569Y00172267
X00307948Y00190458
X00315561Y00190277
X00309265Y00197051
X00309964Y00203506
X00304134Y00206162
X00304881Y00212524
X00309181Y00221453
X00315998Y00221408
X0034951Y0022
X0033951Y002
X0034951Y0018
X00342342Y00135358
Y00122935
X0027951Y0012
X00265277Y00098125
X0027051Y00206643
X0026951Y0022
X0027951Y0024
X00289727Y00236184
X00285737Y0026984
X00291328Y00272436
X00291371Y00279685
X00291714Y00291351
X00306139Y00283811
X00316Y002925
X00326
Y003025
X00323399Y00307396
X00330139Y00312317
X00335006Y00307987
X00316Y003025
X00321Y002975
X00319782Y00317586
X00313444Y00316653
X00316518Y00325364
X0030951Y0034
X00297921Y00338514
X00292021Y00360645
X00285501Y00357366
X0027473Y00359571
X0027488Y00365412
X0027574Y0035267
X00264251Y00354455
X0026951Y0034
X00238712Y00348204
X00223927Y0032974
X00213622Y003307
X0020951Y0034
X0020177Y0031746
X00215644Y00313721
X00229674Y00306479
X0024Y003055
Y002945
X00248344Y00290943
X0024975Y003
X00258376Y00306011
X00241978Y00315242
X00250015Y00269949
X00257862
X0027951Y0028
X00323433Y00278521
X00329621Y0028308
X0033951Y0028
X00336402Y00261322
X00322176Y00265123
X00305Y00305
X00303354Y00365133
X00289401Y00370567
X00326159Y00367343
X00333372Y00361974
X00335556Y00356526
X0032825Y00356497
X00334371Y0034305
X00216312Y00366516
X00215362Y00373581
X00206206Y0036813
X00165422Y00366661
X00148838Y00368903
X00148794Y00355039
X0014Y00355
X00126083Y00356668
X00105909Y00347526
X0009951Y0036
X00093749Y00371251
X00101115Y00323651
X00109551Y00308847
X0010951Y003
X0008951
X0009951Y0028
X0010951Y0026
X00122159Y00271563
X00138783Y0027819
X00136821Y00261629
X00140292Y00237481
X00152404Y00227486
X00120061Y00241926
X0009951Y0024
X0006951Y0026
X0004951
X0003951Y0028
X0005951Y0032
X0006951Y0034
X0004951
X0003951Y0036
X00131081Y0032044
X00125623Y00309022
X00146038
X00163631Y00319013
X00164624Y00330376
X0017951Y0032
X00175Y002795
X00195421Y00259843
X00122445Y00180494
X00113567Y00175705
X00112439Y00169969
X001015Y001715
X00097091Y00182403
X00108217Y00181749
X00128082Y0017237
X0013008Y00162759
X00130548Y0015334
X00136057Y00146916
X00142418Y00140038
X0005951Y0012
X0005275Y00113
X0003975
X00065449Y00109837
X00060679Y00084859
Y00074858
Y00064858
X00045679
Y00074858
Y00084859
X00030679
Y00074858
Y00064858
X00027088Y00035127
X0002351Y00018461
X0002721Y00113108
X00008884Y00151879
X00012796Y00156754
X00016779Y00161272
X0002951Y0018
X00018188Y00430945
X00008031Y00431344
X00007001Y00444516
X0002025Y004445
Y004705
X00007825Y00471376
X00007516Y00457998
X0003Y0046075
X00007734Y00485166
X000105Y0049325
X00017401Y00504924
X0001Y0055
X00025
X0004
X00055
X0007
X00085
X00096582Y00552911
X00102643Y0055301
X00117347Y00552911
X00123506
X00112933Y00544996
X00095532
X00097206Y0051217
X00088137Y00512232
X00070109Y00512655
X00068383Y00491459
X00046326Y00489433
X00050568Y00499315
X000495Y00447174
X00068369Y00445904
X00088315Y00445523
X00111642Y00444309
X00106685Y00437377
X0010475Y00430753
Y004185
Y00412
X00113181Y00403829
X00124316Y00392283
X00142215Y0039218
X0014951Y0038
X0015951Y004
X00157487Y00425322
X00148182Y00434095
X00148639Y00442602
X00135Y0043
X0012548Y00422363
X00125102Y00438588
X00121501Y00464734
X00135Y00475
X00107927Y00477437
X00089368Y00477512
X00124234Y00507515
Y00517191
X00142256Y00517122
X00142301Y00507515
X0015308Y0055028
X0016578
X0018Y0055
X00195
X0021
X00225
X0024
X00255
X0027
X00285
X003
X00315
X0033
X00345
X00355
X0034951Y005
X0032951
X0033951Y0048
X00339281Y0046239
X0033648Y00456118
X00351019Y00458696
X00354735Y00449264
X00354247Y00426784
X00336046Y0042828
X0033386Y00422531
X00327683Y00417662
X0032388Y00428333
X00325Y00435
X00317085Y00442665
X0029951Y0044
X00298167Y00429822
X0029336Y00419762
X00278542Y00418535
X00280875Y00424595
Y00435406
X00278599Y00441045
X00267174Y00440502
X00266343Y00430591
X00265Y00425
X00266841Y0041862
X00259299Y00418564
X00243786Y00419773
X00245Y0043
X00230875Y00435406
X00228024Y00440889
X00221583Y0045236
X00221483Y00460149
X0020875Y00464
X00197946Y00459972
X00198162Y00468884
X00181547Y00468899
X00181436Y00452066
X0018133Y0044414
X0018275Y004315
X00186Y0041525
X00205451Y00417313
X00217822Y004185
X002149Y00424829
X0021485Y00430591
X00230629Y00424491
X00228025Y00419314
X00222056Y00405419
X00225135Y00380497
X0021525Y0038275
X00206206Y0037913
X00196347Y00380465
X00184552Y00381654
X0010309Y00380534
X00085508Y00379613
X00079136Y00375123
X00052754Y00375167
X0003951Y004
X00036987Y00407666
X00046326Y00425
X00081686Y00407756
X00270119Y00404807
X00285Y0039
X00297971Y00391498
X00305Y00408363
X0030951Y0042
X00336193Y00402452
X00336596Y00396467
X00342572Y0040263
X0035182Y00398425
X00354097Y00387263
X00325011Y00375
X00315363Y00380016
X00285793Y00375
X0028675Y0045425
X00271888Y00452734
X00271379Y00459229
X00258349Y00471172
X00250761Y00470798
X0024951Y005
X0026951
X0022951
X0020951
X0018951
X00235895Y00454922
X00305Y00465
X0029951Y0048
X0031951
T02
X00194956Y00281749
X00195Y00297874
X0019899Y00340337
X00182865Y00340381
X00352454Y003441
X0035241Y00327975
X00352589Y00310865
X00352545Y0029474
X00352469Y00279689
X00352425Y00263564
T03
X00069736Y00302009
Y00322009
X00294601Y00127402
Y00107402
X002955Y0049
Y0051
T05
X00335656Y00025626
T06
X0002615Y00258584
M30
