G04*
G04 #@! TF.GenerationSoftware,Altium Limited,Altium Designer,26.8.1 (31)*
G04*
G04 Layer_Color=128*
G04 Board_Origin=14173228|16535433*
%FSLAX44Y44*%
%MOMM*%
G71*
G04*
G04 #@! TF.SameCoordinates,787D18DD-F0E2-4AD7-92A2-126251623CEA*
G04*
G04*
G04 #@! TF.FilePolarity,Positive*
G04*
G01*
G75*
%ADD27R,0.3250X0.2700*%
%ADD37R,1.9990X2.9997*%
%ADD38R,0.2997X1.3005*%
%ADD42R,0.5153X0.4725*%
%ADD46R,0.4725X0.5153*%
%ADD47R,0.7500X0.9000*%
%ADD48R,0.9000X0.7500*%
%ADD115C,1.0000*%
G04:AMPARAMS|DCode=118|XSize=0.3mm|YSize=0.45mm|CornerRadius=0.0495mm|HoleSize=0mm|Usage=FLASHONLY|Rotation=270.000|XOffset=0mm|YOffset=0mm|HoleType=Round|Shape=RoundedRectangle|*
%AMROUNDEDRECTD118*
21,1,0.3000,0.3510,0,0,270.0*
21,1,0.2010,0.4500,0,0,270.0*
1,1,0.0990,-0.1755,-0.1005*
1,1,0.0990,-0.1755,0.1005*
1,1,0.0990,0.1755,0.1005*
1,1,0.0990,0.1755,-0.1005*
%
%ADD118ROUNDEDRECTD118*%
%ADD120R,0.8000X0.9000*%
%ADD121R,0.8000X0.8000*%
G04:AMPARAMS|DCode=122|XSize=0.55mm|YSize=0.25mm|CornerRadius=0.05mm|HoleSize=0mm|Usage=FLASHONLY|Rotation=180.000|XOffset=0mm|YOffset=0mm|HoleType=Round|Shape=RoundedRectangle|*
%AMROUNDEDRECTD122*
21,1,0.5500,0.1500,0,0,180.0*
21,1,0.4500,0.2500,0,0,180.0*
1,1,0.1000,-0.2250,0.0750*
1,1,0.1000,0.2250,0.0750*
1,1,0.1000,0.2250,-0.0750*
1,1,0.1000,-0.2250,-0.0750*
%
%ADD122ROUNDEDRECTD122*%
G04:AMPARAMS|DCode=123|XSize=0.6mm|YSize=0.25mm|CornerRadius=0.05mm|HoleSize=0mm|Usage=FLASHONLY|Rotation=0.000|XOffset=0mm|YOffset=0mm|HoleType=Round|Shape=RoundedRectangle|*
%AMROUNDEDRECTD123*
21,1,0.6000,0.1500,0,0,0.0*
21,1,0.5000,0.2500,0,0,0.0*
1,1,0.1000,0.2500,-0.0750*
1,1,0.1000,-0.2500,-0.0750*
1,1,0.1000,-0.2500,0.0750*
1,1,0.1000,0.2500,0.0750*
%
%ADD123ROUNDEDRECTD123*%
G04:AMPARAMS|DCode=124|XSize=0.9mm|YSize=0.25mm|CornerRadius=0.05mm|HoleSize=0mm|Usage=FLASHONLY|Rotation=0.000|XOffset=0mm|YOffset=0mm|HoleType=Round|Shape=RoundedRectangle|*
%AMROUNDEDRECTD124*
21,1,0.9000,0.1500,0,0,0.0*
21,1,0.8000,0.2500,0,0,0.0*
1,1,0.1000,0.4000,-0.0750*
1,1,0.1000,-0.4000,-0.0750*
1,1,0.1000,-0.4000,0.0750*
1,1,0.1000,0.4000,0.0750*
%
%ADD124ROUNDEDRECTD124*%
%ADD126R,0.3000X0.2800*%
%ADD127R,0.7493X0.5004*%
%ADD128R,0.2800X0.3000*%
%ADD129R,0.9500X1.1506*%
G04:AMPARAMS|DCode=151|XSize=1mm|YSize=0.7mm|CornerRadius=0.049mm|HoleSize=0mm|Usage=FLASHONLY|Rotation=0.000|XOffset=0mm|YOffset=0mm|HoleType=Round|Shape=RoundedRectangle|*
%AMROUNDEDRECTD151*
21,1,1.0000,0.6020,0,0,0.0*
21,1,0.9020,0.7000,0,0,0.0*
1,1,0.0980,0.4510,-0.3010*
1,1,0.0980,-0.4510,-0.3010*
1,1,0.0980,-0.4510,0.3010*
1,1,0.0980,0.4510,0.3010*
%
%ADD151ROUNDEDRECTD151*%
G36*
X229500Y431250D02*
X229401D01*
X229217Y431174D01*
X229076Y431033D01*
X229000Y430849D01*
Y430750D01*
D01*
Y429250D01*
Y429151D01*
X229076Y428967D01*
X229217Y428826D01*
X229401Y428750D01*
X229500D01*
D01*
X234000D01*
X234099D01*
X234283Y428826D01*
X234424Y428967D01*
X234500Y429151D01*
Y429250D01*
D01*
Y430750D01*
Y430849D01*
X234424Y431033D01*
X234283Y431174D01*
X234099Y431250D01*
X234000D01*
D01*
X229500D01*
D02*
G37*
G36*
X242000Y430750D02*
Y430849D01*
X241924Y431033D01*
X241783Y431174D01*
X241599Y431250D01*
X241500D01*
D01*
X237000D01*
X236901D01*
X236717Y431174D01*
X236576Y431033D01*
X236500Y430849D01*
Y430750D01*
D01*
Y429250D01*
Y429151D01*
X236576Y428967D01*
X236717Y428826D01*
X236901Y428750D01*
X237000D01*
D01*
X241500D01*
X241599D01*
X241783Y428826D01*
X241924Y428967D01*
X242000Y429151D01*
Y429250D01*
D01*
Y430750D01*
D02*
G37*
G36*
X279500Y431250D02*
X279401D01*
X279217Y431174D01*
X279076Y431033D01*
X279000Y430849D01*
Y430750D01*
D01*
Y429250D01*
Y429151D01*
X279076Y428967D01*
X279217Y428826D01*
X279401Y428750D01*
X279500D01*
D01*
X284000D01*
X284099D01*
X284283Y428826D01*
X284424Y428967D01*
X284500Y429151D01*
Y429250D01*
D01*
Y430750D01*
Y430849D01*
X284424Y431033D01*
X284283Y431174D01*
X284099Y431250D01*
X284000D01*
D01*
X279500D01*
D02*
G37*
G36*
X288027Y366411D02*
X287927D01*
X287743Y366335D01*
X287603Y366194D01*
X287527Y366011D01*
Y365911D01*
D01*
Y364411D01*
Y364312D01*
X287603Y364128D01*
X287743Y363987D01*
X287927Y363911D01*
X288027D01*
D01*
X292527D01*
X292626D01*
X292810Y363987D01*
X292951Y364128D01*
X293027Y364312D01*
Y364411D01*
D01*
Y365911D01*
Y366011D01*
X292951Y366194D01*
X292810Y366335D01*
X292626Y366411D01*
X292527D01*
D01*
X288027D01*
D02*
G37*
G36*
X300527Y365911D02*
Y366011D01*
X300451Y366194D01*
X300310Y366335D01*
X300126Y366411D01*
X300027D01*
D01*
X295527D01*
X295427D01*
X295243Y366335D01*
X295103Y366194D01*
X295027Y366011D01*
Y365911D01*
D01*
Y364411D01*
Y364312D01*
X295103Y364128D01*
X295243Y363987D01*
X295427Y363911D01*
X295527D01*
D01*
X300027D01*
X300126D01*
X300310Y363987D01*
X300451Y364128D01*
X300527Y364312D01*
Y364411D01*
D01*
Y365911D01*
D02*
G37*
G36*
X292000Y430750D02*
Y430849D01*
X291924Y431033D01*
X291783Y431174D01*
X291599Y431250D01*
X291500D01*
D01*
X287000D01*
X286901D01*
X286717Y431174D01*
X286576Y431033D01*
X286500Y430849D01*
Y430750D01*
D01*
Y429250D01*
Y429151D01*
X286576Y428967D01*
X286717Y428826D01*
X286901Y428750D01*
X287000D01*
D01*
X291500D01*
X291599D01*
X291783Y428826D01*
X291924Y428967D01*
X292000Y429151D01*
Y429250D01*
D01*
Y430750D01*
D02*
G37*
D27*
X102761Y431559D02*
D03*
X96011D02*
D03*
Y441559D02*
D03*
Y436559D02*
D03*
X102761D02*
D03*
Y441559D02*
D03*
D37*
X106445Y32930D02*
D03*
X244444D02*
D03*
D38*
X172943Y56425D02*
D03*
X182950D02*
D03*
X177946D02*
D03*
X207944D02*
D03*
X202940D02*
D03*
X187929D02*
D03*
X197936D02*
D03*
X192932D02*
D03*
X137941D02*
D03*
X122930D02*
D03*
X132938D02*
D03*
X127934D02*
D03*
X157931D02*
D03*
X167939D02*
D03*
X162935D02*
D03*
X142945D02*
D03*
X152927D02*
D03*
X147949D02*
D03*
X222930D02*
D03*
X227934D02*
D03*
X212948D02*
D03*
X217951D02*
D03*
D42*
X62251Y512607D02*
D03*
X69822D02*
D03*
X99744Y477157D02*
D03*
X107316D02*
D03*
X121717Y107839D02*
D03*
X129289D02*
D03*
X96344Y120001D02*
D03*
X103916D02*
D03*
X106161Y74609D02*
D03*
X113732D02*
D03*
X28726Y407561D02*
D03*
X36297D02*
D03*
X121997Y134718D02*
D03*
X129569D02*
D03*
X279722Y38211D02*
D03*
X287294D02*
D03*
X49577Y194309D02*
D03*
X57148D02*
D03*
X121652Y124557D02*
D03*
X129223D02*
D03*
X307923Y190257D02*
D03*
X315494D02*
D03*
X152929Y200689D02*
D03*
X160500D02*
D03*
X309102Y221437D02*
D03*
X316673D02*
D03*
X104260Y134100D02*
D03*
X111832D02*
D03*
X50262Y167617D02*
D03*
X57833D02*
D03*
X310000Y325000D02*
D03*
X317571D02*
D03*
X122047Y162610D02*
D03*
X129618D02*
D03*
X330042Y387359D02*
D03*
X337613D02*
D03*
X330982Y449201D02*
D03*
X338553D02*
D03*
X346576Y449290D02*
D03*
X354148D02*
D03*
X215578Y200358D02*
D03*
X223149D02*
D03*
X55500Y35061D02*
D03*
X63071D02*
D03*
X178929Y213689D02*
D03*
X186500D02*
D03*
X204851Y210306D02*
D03*
X212422D02*
D03*
X199998Y200276D02*
D03*
X207569D02*
D03*
X346378Y387136D02*
D03*
X353949D02*
D03*
X306112Y395226D02*
D03*
X313683D02*
D03*
X122195Y152313D02*
D03*
X129766D02*
D03*
X140912Y146665D02*
D03*
X148483D02*
D03*
X137668Y133519D02*
D03*
X145239D02*
D03*
X137765Y293134D02*
D03*
X145336D02*
D03*
D46*
X109490Y308883D02*
D03*
Y316454D02*
D03*
X49054Y492019D02*
D03*
Y499590D02*
D03*
X354666Y357958D02*
D03*
Y365530D02*
D03*
X353749Y418909D02*
D03*
Y426480D02*
D03*
X201677Y309711D02*
D03*
Y317282D02*
D03*
X171572Y366793D02*
D03*
Y374364D02*
D03*
X163374Y319563D02*
D03*
Y327134D02*
D03*
X291310Y272203D02*
D03*
Y279774D02*
D03*
X329370Y283375D02*
D03*
Y290946D02*
D03*
X306607Y285382D02*
D03*
Y292953D02*
D03*
X81509Y20470D02*
D03*
Y28041D02*
D03*
X81713Y38351D02*
D03*
Y45922D02*
D03*
X81943Y56307D02*
D03*
Y63878D02*
D03*
X301193Y51731D02*
D03*
Y59302D02*
D03*
X285990Y51855D02*
D03*
Y59426D02*
D03*
X270353Y52049D02*
D03*
Y59620D02*
D03*
X266907Y371216D02*
D03*
Y378787D02*
D03*
X264158Y354303D02*
D03*
Y361874D02*
D03*
X128306Y195903D02*
D03*
Y203474D02*
D03*
X64939Y102750D02*
D03*
Y110321D02*
D03*
X39689Y102750D02*
D03*
Y110321D02*
D03*
X188196Y193347D02*
D03*
Y200919D02*
D03*
X207911Y434592D02*
D03*
Y442164D02*
D03*
X205512Y417310D02*
D03*
Y424881D02*
D03*
X257943Y434058D02*
D03*
Y441629D02*
D03*
X135061Y261179D02*
D03*
Y268750D02*
D03*
X120061Y261179D02*
D03*
Y268750D02*
D03*
X120061Y241926D02*
D03*
Y249497D02*
D03*
X128306Y172626D02*
D03*
Y180197D02*
D03*
X256029Y416707D02*
D03*
Y424278D02*
D03*
D47*
X106243Y91061D02*
D03*
X121743D02*
D03*
D48*
X125000Y422250D02*
D03*
Y437750D02*
D03*
D115*
X68383Y471459D02*
D03*
Y491459D02*
D03*
Y411459D02*
D03*
Y451459D02*
D03*
Y431459D02*
D03*
D118*
X196456Y367130D02*
D03*
Y373630D02*
D03*
Y380130D02*
D03*
X215956Y367130D02*
D03*
Y373630D02*
D03*
Y380130D02*
D03*
X230250Y293500D02*
D03*
Y300000D02*
D03*
Y306500D02*
D03*
X249750Y293500D02*
D03*
Y300000D02*
D03*
Y306500D02*
D03*
D120*
X184614Y366537D02*
D03*
Y383537D02*
D03*
X217059Y294146D02*
D03*
Y311146D02*
D03*
D121*
X297581Y306237D02*
D03*
Y321237D02*
D03*
D122*
X328853Y418806D02*
D03*
Y423806D02*
D03*
Y433806D02*
D03*
Y428806D02*
D03*
X342352Y418806D02*
D03*
Y428806D02*
D03*
Y423806D02*
D03*
Y433806D02*
D03*
X328402Y357446D02*
D03*
Y362446D02*
D03*
Y372446D02*
D03*
Y367446D02*
D03*
X341902Y357446D02*
D03*
Y367446D02*
D03*
Y362446D02*
D03*
Y372446D02*
D03*
D123*
X271000Y435000D02*
D03*
Y430000D02*
D03*
Y440000D02*
D03*
Y425000D02*
D03*
Y420000D02*
D03*
X279527Y370161D02*
D03*
Y365161D02*
D03*
Y375161D02*
D03*
Y360161D02*
D03*
Y355161D02*
D03*
X221000Y435000D02*
D03*
Y430000D02*
D03*
Y440000D02*
D03*
Y425000D02*
D03*
Y420000D02*
D03*
D124*
X287500Y425000D02*
D03*
Y420000D02*
D03*
Y440000D02*
D03*
Y435000D02*
D03*
X296027Y360161D02*
D03*
Y355161D02*
D03*
Y375161D02*
D03*
Y370161D02*
D03*
X237500Y425000D02*
D03*
Y420000D02*
D03*
Y440000D02*
D03*
Y435000D02*
D03*
D126*
X148922Y113643D02*
D03*
Y108343D02*
D03*
X175005Y113381D02*
D03*
Y108081D02*
D03*
X161991Y171871D02*
D03*
Y166571D02*
D03*
X220456Y165394D02*
D03*
Y160094D02*
D03*
X220477Y152515D02*
D03*
Y147215D02*
D03*
X207482Y113514D02*
D03*
Y108214D02*
D03*
X207404Y165281D02*
D03*
Y159981D02*
D03*
X200840Y165319D02*
D03*
Y160019D02*
D03*
X181350Y165743D02*
D03*
Y160443D02*
D03*
X187962Y171926D02*
D03*
Y166626D02*
D03*
X175078Y165493D02*
D03*
Y160193D02*
D03*
X200916Y126443D02*
D03*
Y121143D02*
D03*
X168261Y158972D02*
D03*
Y153672D02*
D03*
X187810Y126443D02*
D03*
Y121143D02*
D03*
X181529Y119755D02*
D03*
Y114455D02*
D03*
X181470Y139475D02*
D03*
Y134175D02*
D03*
X207388Y126497D02*
D03*
Y121197D02*
D03*
X194390Y126470D02*
D03*
Y121170D02*
D03*
X207542Y139403D02*
D03*
Y134103D02*
D03*
X200826Y139403D02*
D03*
Y134103D02*
D03*
X194491Y139485D02*
D03*
Y134185D02*
D03*
X188073Y139499D02*
D03*
Y134199D02*
D03*
X201069Y152647D02*
D03*
Y147347D02*
D03*
X207814Y152646D02*
D03*
Y147346D02*
D03*
X214068Y139349D02*
D03*
Y134049D02*
D03*
X181554Y152678D02*
D03*
Y147379D02*
D03*
X187829Y152631D02*
D03*
Y147331D02*
D03*
X194543Y152700D02*
D03*
Y147400D02*
D03*
X174808Y152595D02*
D03*
Y147295D02*
D03*
X214231Y152619D02*
D03*
Y147319D02*
D03*
X187972Y113310D02*
D03*
Y108011D02*
D03*
D127*
X125959Y309216D02*
D03*
Y319224D02*
D03*
Y329232D02*
D03*
X145974Y319224D02*
D03*
Y309216D02*
D03*
Y329232D02*
D03*
D128*
X155845Y159550D02*
D03*
X161145D02*
D03*
X214581Y113995D02*
D03*
X219881D02*
D03*
X221215Y140048D02*
D03*
X226515D02*
D03*
X214625Y126627D02*
D03*
X219925D02*
D03*
X214622Y120378D02*
D03*
X219922D02*
D03*
X195109Y172468D02*
D03*
X200410D02*
D03*
X182109Y178975D02*
D03*
X187409D02*
D03*
X208102Y185505D02*
D03*
X213402D02*
D03*
X169117Y192046D02*
D03*
X174417D02*
D03*
X169145Y185627D02*
D03*
X174445D02*
D03*
X201587Y192046D02*
D03*
X206887D02*
D03*
X155781Y133563D02*
D03*
X161081D02*
D03*
X155796Y146616D02*
D03*
X161096D02*
D03*
X155847Y153066D02*
D03*
X161147D02*
D03*
X162646Y113900D02*
D03*
X167946D02*
D03*
X156196Y120365D02*
D03*
X161496D02*
D03*
X149574Y126966D02*
D03*
X154874D02*
D03*
X168996Y140198D02*
D03*
X174296D02*
D03*
X169111Y120420D02*
D03*
X174411D02*
D03*
X162732Y126947D02*
D03*
X168032D02*
D03*
X155738Y140039D02*
D03*
X161038D02*
D03*
X195078Y114031D02*
D03*
X200378D02*
D03*
D129*
X12236Y157418D02*
D03*
X46094D02*
D03*
D151*
X206206Y369130D02*
D03*
Y378130D02*
D03*
X240000Y295500D02*
D03*
Y304500D02*
D03*
M02*
