G04*
G04 #@! TF.GenerationSoftware,Altium Limited,Altium Designer,26.8.1 (31)*
G04*
G04 Layer_Color=8388736*
G04 Board_Origin=4724409|16535433*
%FSLAX44Y44*%
%MOMM*%
G71*
G04*
G04 #@! TF.SameCoordinates,EA54ECA8-3616-4646-993E-DC2F9F768069*
G04*
G04*
G04 #@! TF.FilePolarity,Negative*
G04*
G01*
G75*
%ADD25C,0.4500*%
%ADD33R,0.7500X0.7000*%
%ADD34R,0.3250X0.2700*%
%ADD35R,0.9000X0.8000*%
G04:AMPARAMS|DCode=36|XSize=1.3587mm|YSize=0.5868mm|CornerRadius=0.2934mm|HoleSize=0mm|Usage=FLASHONLY|Rotation=180.000|XOffset=0mm|YOffset=0mm|HoleType=Round|Shape=RoundedRectangle|*
%AMROUNDEDRECTD36*
21,1,1.3587,0.0000,0,0,180.0*
21,1,0.7719,0.5868,0,0,180.0*
1,1,0.5868,-0.3859,0.0000*
1,1,0.5868,0.3859,0.0000*
1,1,0.5868,0.3859,0.0000*
1,1,0.5868,-0.3859,0.0000*
%
%ADD36ROUNDEDRECTD36*%
%ADD37R,1.3587X0.5868*%
%ADD38R,0.9051X0.9062*%
%ADD39R,2.2062X1.3549*%
%ADD40R,1.7062X1.1544*%
%ADD41R,0.9582X1.1061*%
%ADD42R,1.1000X1.9000*%
%ADD43R,1.8062X1.3046*%
%ADD52R,0.5153X0.4725*%
%ADD53R,0.4725X0.5153*%
%ADD54R,0.7500X0.9000*%
%ADD55R,0.9000X0.7500*%
%ADD56R,0.9062X0.9051*%
%ADD58R,3.5027X0.9042*%
%ADD59R,3.5027X1.7043*%
%ADD60R,0.7010X1.1024*%
%ADD61R,4.1986X3.2995*%
%ADD62C,0.5029*%
%ADD63R,1.4021X0.7010*%
%ADD64R,1.4021X0.4013*%
G04:AMPARAMS|DCode=65|XSize=1.9032mm|YSize=1.9032mm|CornerRadius=0.1526mm|HoleSize=0mm|Usage=FLASHONLY|Rotation=180.000|XOffset=0mm|YOffset=0mm|HoleType=Round|Shape=RoundedRectangle|*
%AMROUNDEDRECTD65*
21,1,1.9032,1.5980,0,0,180.0*
21,1,1.5980,1.9032,0,0,180.0*
1,1,0.3052,-0.7990,0.7990*
1,1,0.3052,0.7990,0.7990*
1,1,0.3052,0.7990,-0.7990*
1,1,0.3052,-0.7990,-0.7990*
%
%ADD65ROUNDEDRECTD65*%
G04:AMPARAMS|DCode=66|XSize=0.4532mm|YSize=0.8032mm|CornerRadius=0.1516mm|HoleSize=0mm|Usage=FLASHONLY|Rotation=180.000|XOffset=0mm|YOffset=0mm|HoleType=Round|Shape=RoundedRectangle|*
%AMROUNDEDRECTD66*
21,1,0.4532,0.5000,0,0,180.0*
21,1,0.1500,0.8032,0,0,180.0*
1,1,0.3032,-0.0750,0.2500*
1,1,0.3032,0.0750,0.2500*
1,1,0.3032,0.0750,-0.2500*
1,1,0.3032,-0.0750,-0.2500*
%
%ADD66ROUNDEDRECTD66*%
G04:AMPARAMS|DCode=67|XSize=0.4532mm|YSize=0.8032mm|CornerRadius=0.1516mm|HoleSize=0mm|Usage=FLASHONLY|Rotation=270.000|XOffset=0mm|YOffset=0mm|HoleType=Round|Shape=RoundedRectangle|*
%AMROUNDEDRECTD67*
21,1,0.4532,0.5000,0,0,270.0*
21,1,0.1500,0.8032,0,0,270.0*
1,1,0.3032,-0.2500,-0.0750*
1,1,0.3032,-0.2500,0.0750*
1,1,0.3032,0.2500,0.0750*
1,1,0.3032,0.2500,-0.0750*
%
%ADD67ROUNDEDRECTD67*%
%ADD68R,0.8534X0.7493*%
%ADD69C,0.3150*%
%ADD70C,0.3739*%
%ADD71R,3.5027X0.7620*%
%ADD72R,3.5027X1.5037*%
%ADD73R,2.1006X3.1013*%
%ADD74R,0.4013X1.4021*%
%ADD75R,1.3538X1.1532*%
%ADD76O,0.4826X1.8237*%
%ADD77R,1.6532X1.4532*%
%ADD78C,1.3005*%
%ADD79R,1.7018X0.7010*%
%ADD80R,0.7010X1.7018*%
%ADD81R,0.6990X1.7000*%
%ADD82C,0.8032*%
%ADD83O,1.9025X1.3005*%
%ADD84O,2.1006X1.3005*%
%ADD85C,0.7032*%
%ADD86C,1.4032*%
%ADD87R,1.4032X1.4032*%
%ADD88C,1.2032*%
%ADD89C,2.8032*%
G36*
X316839Y209552D02*
X316934Y209523D01*
X317023Y209476D01*
X317100Y209413D01*
X317163Y209335D01*
X317211Y209247D01*
X317240Y209151D01*
X317250Y209052D01*
Y206054D01*
Y203057D01*
X317240Y202958D01*
X317211Y202862D01*
X317163Y202774D01*
X317100Y202696D01*
X317023Y202633D01*
X316934Y202586D01*
X316839Y202557D01*
X316739Y202547D01*
X303760D01*
X303660Y202557D01*
X303564Y202586D01*
X303476Y202633D01*
X303399Y202696D01*
X303335Y202774D01*
X303288Y202862D01*
X303259Y202958D01*
X303249Y203057D01*
Y206054D01*
Y209052D01*
X303259Y209151D01*
X303288Y209247D01*
X303335Y209335D01*
X303399Y209413D01*
X303476Y209476D01*
X303564Y209523D01*
X303660Y209552D01*
X303760Y209562D01*
X316739D01*
X316839Y209552D01*
D02*
G37*
G36*
Y217553D02*
X316934Y217524D01*
X317023Y217477D01*
X317100Y217414D01*
X317163Y217336D01*
X317211Y217248D01*
X317240Y217152D01*
X317250Y217053D01*
Y214207D01*
X317265Y214155D01*
X317275Y214056D01*
Y211058D01*
X317265Y210959D01*
X317236Y210863D01*
X317189Y210775D01*
X317125Y210697D01*
X317048Y210634D01*
X316960Y210587D01*
X316864Y210558D01*
X316764Y210548D01*
X303760D01*
X303660Y210558D01*
X303564Y210587D01*
X303476Y210634D01*
X303399Y210697D01*
X303335Y210775D01*
X303288Y210863D01*
X303259Y210959D01*
X303249Y211058D01*
Y214056D01*
Y217053D01*
X303259Y217152D01*
X303288Y217248D01*
X303335Y217336D01*
X303399Y217414D01*
X303476Y217477D01*
X303564Y217524D01*
X303660Y217553D01*
X303760Y217563D01*
X316739D01*
X316839Y217553D01*
D02*
G37*
G36*
X540190Y175809D02*
X540286Y175780D01*
X540374Y175733D01*
X540451Y175670D01*
X540515Y175592D01*
X540562Y175504D01*
X540591Y175408D01*
X540601Y175309D01*
Y172311D01*
Y169314D01*
X540591Y169215D01*
X540562Y169119D01*
X540515Y169031D01*
X540451Y168953D01*
X540374Y168890D01*
X540286Y168843D01*
X540190Y168814D01*
X540090Y168804D01*
X527111D01*
X527011Y168814D01*
X526916Y168843D01*
X526827Y168890D01*
X526750Y168953D01*
X526687Y169031D01*
X526639Y169119D01*
X526610Y169215D01*
X526600Y169314D01*
Y172160D01*
X526585Y172212D01*
X526575Y172311D01*
Y175309D01*
X526585Y175408D01*
X526614Y175504D01*
X526661Y175592D01*
X526725Y175670D01*
X526802Y175733D01*
X526890Y175780D01*
X526986Y175809D01*
X527086Y175819D01*
X540090D01*
X540190Y175809D01*
D02*
G37*
G36*
Y183810D02*
X540286Y183781D01*
X540374Y183734D01*
X540451Y183671D01*
X540515Y183593D01*
X540562Y183505D01*
X540591Y183409D01*
X540601Y183310D01*
Y180312D01*
Y177315D01*
X540591Y177216D01*
X540562Y177120D01*
X540515Y177032D01*
X540451Y176954D01*
X540374Y176891D01*
X540286Y176844D01*
X540190Y176815D01*
X540090Y176805D01*
X527111D01*
X527011Y176815D01*
X526916Y176844D01*
X526827Y176891D01*
X526750Y176954D01*
X526687Y177032D01*
X526639Y177120D01*
X526610Y177216D01*
X526600Y177315D01*
Y180312D01*
Y183310D01*
X526610Y183409D01*
X526639Y183505D01*
X526687Y183593D01*
X526750Y183671D01*
X526827Y183734D01*
X526916Y183781D01*
X527011Y183810D01*
X527111Y183820D01*
X540090D01*
X540190Y183810D01*
D02*
G37*
G36*
X570797Y25172D02*
X570839Y25169D01*
X570846Y25167D01*
X570854Y25167D01*
X570894Y25154D01*
X570935Y25143D01*
X570942Y25140D01*
X570950Y25138D01*
X570987Y25118D01*
X571025Y25099D01*
X571031Y25094D01*
X571038Y25090D01*
X571071Y25064D01*
X571104Y25038D01*
X571109Y25032D01*
X571115Y25027D01*
X571142Y24994D01*
X571170Y24962D01*
X571174Y24956D01*
X571179Y24950D01*
X571199Y24912D01*
X571220Y24876D01*
X571222Y24868D01*
X571226Y24861D01*
X571238Y24821D01*
X571252Y24781D01*
X571327Y24455D01*
X571393Y24192D01*
X571505Y23923D01*
X571622Y23642D01*
X571753Y23402D01*
X571916Y23146D01*
X572078Y22915D01*
X572261Y22685D01*
X572452Y22473D01*
X572673Y22296D01*
X572683Y22287D01*
X572694Y22279D01*
X572904Y22092D01*
X573150Y21913D01*
X573402Y21753D01*
X573642Y21622D01*
X573905Y21512D01*
X574192Y21416D01*
X574474Y21323D01*
X574781Y21252D01*
X574821Y21238D01*
X574861Y21226D01*
X574868Y21222D01*
X574876Y21220D01*
X574913Y21199D01*
X574950Y21179D01*
X574956Y21174D01*
X574962Y21170D01*
X574994Y21142D01*
X575027Y21115D01*
X575032Y21109D01*
X575038Y21104D01*
X575064Y21070D01*
X575090Y21038D01*
X575094Y21031D01*
X575099Y21025D01*
X575118Y20986D01*
X575138Y20950D01*
X575140Y20942D01*
X575143Y20935D01*
X575154Y20894D01*
X575167Y20854D01*
X575167Y20846D01*
X575169Y20839D01*
X575172Y20796D01*
X575177Y20754D01*
Y17859D01*
X575173Y17827D01*
X575173Y17795D01*
X575168Y17778D01*
X575167Y17759D01*
X575158Y17729D01*
X575150Y17698D01*
X575143Y17681D01*
X575138Y17663D01*
X575123Y17636D01*
X575110Y17606D01*
X575099Y17591D01*
X575090Y17575D01*
X575070Y17551D01*
X575052Y17525D01*
X575039Y17512D01*
X575027Y17498D01*
X575003Y17478D01*
X574979Y17456D01*
X574964Y17446D01*
X574950Y17434D01*
X574922Y17420D01*
X574895Y17402D01*
X574878Y17396D01*
X574861Y17387D01*
X574831Y17378D01*
X574801Y17367D01*
X574783Y17364D01*
X574766Y17358D01*
X574734Y17355D01*
X574703Y17350D01*
X574684Y17350D01*
X574666Y17348D01*
X574634Y17351D01*
X574603Y17352D01*
X574196Y17403D01*
X574162Y17411D01*
X574128Y17416D01*
X573766Y17513D01*
X573378Y17586D01*
X573345Y17595D01*
X573311Y17603D01*
X572930Y17730D01*
X572925Y17732D01*
X572920Y17734D01*
X572564Y17861D01*
X572542Y17871D01*
X572520Y17879D01*
X572146Y18053D01*
X571798Y18202D01*
X571772Y18217D01*
X571746Y18228D01*
X571390Y18432D01*
X571383Y18436D01*
X571376Y18440D01*
X571046Y18643D01*
X571035Y18652D01*
X571023Y18658D01*
X570692Y18887D01*
X570675Y18902D01*
X570656Y18914D01*
X570351Y19168D01*
X570047Y19422D01*
X570030Y19439D01*
X570012Y19454D01*
X569733Y19733D01*
X569733Y19733D01*
X569454Y20012D01*
X569439Y20031D01*
X569422Y20047D01*
X569169Y20351D01*
X569163Y20360D01*
X569156Y20367D01*
X568902Y20697D01*
X568900Y20700D01*
X568898Y20702D01*
X568670Y21007D01*
X568653Y21034D01*
X568635Y21060D01*
X568436Y21408D01*
X568237Y21732D01*
X568224Y21758D01*
X568209Y21783D01*
X568031Y22164D01*
X568028Y22172D01*
X568025Y22179D01*
X567872Y22534D01*
X567866Y22555D01*
X567857Y22574D01*
X567730Y22955D01*
X567603Y23336D01*
X567600Y23352D01*
X567594Y23366D01*
X567493Y23747D01*
X567490Y23763D01*
X567485Y23779D01*
X567409Y24160D01*
X567407Y24178D01*
X567403Y24196D01*
X567352Y24603D01*
X567351Y24634D01*
X567348Y24666D01*
X567350Y24684D01*
X567350Y24703D01*
X567355Y24734D01*
X567358Y24766D01*
X567364Y24783D01*
X567367Y24801D01*
X567378Y24831D01*
X567387Y24861D01*
X567396Y24878D01*
X567402Y24895D01*
X567420Y24922D01*
X567434Y24950D01*
X567446Y24964D01*
X567456Y24979D01*
X567478Y25002D01*
X567498Y25027D01*
X567512Y25039D01*
X567525Y25052D01*
X567551Y25070D01*
X567575Y25090D01*
X567591Y25099D01*
X567607Y25110D01*
X567636Y25123D01*
X567663Y25138D01*
X567681Y25143D01*
X567698Y25150D01*
X567729Y25157D01*
X567759Y25167D01*
X567777Y25168D01*
X567795Y25173D01*
X567827Y25173D01*
X567859Y25176D01*
X570754D01*
X570797Y25172D01*
D02*
G37*
G36*
X574684Y33963D02*
X574703Y33963D01*
X574734Y33958D01*
X574766Y33955D01*
X574783Y33950D01*
X574801Y33947D01*
X574831Y33935D01*
X574861Y33926D01*
X574878Y33917D01*
X574895Y33911D01*
X574922Y33894D01*
X574950Y33879D01*
X574964Y33867D01*
X574979Y33857D01*
X575003Y33835D01*
X575027Y33815D01*
X575039Y33801D01*
X575052Y33788D01*
X575070Y33763D01*
X575090Y33738D01*
X575099Y33722D01*
X575110Y33707D01*
X575123Y33678D01*
X575138Y33650D01*
X575143Y33632D01*
X575150Y33615D01*
X575157Y33584D01*
X575167Y33554D01*
X575168Y33536D01*
X575173Y33518D01*
X575173Y33486D01*
X575177Y33454D01*
Y30559D01*
X575172Y30517D01*
X575169Y30475D01*
X575167Y30467D01*
X575167Y30459D01*
X575154Y30419D01*
X575143Y30378D01*
X575140Y30371D01*
X575138Y30363D01*
X575118Y30327D01*
X575099Y30288D01*
X575094Y30282D01*
X575090Y30275D01*
X575064Y30243D01*
X575038Y30209D01*
X575032Y30204D01*
X575027Y30198D01*
X574994Y30171D01*
X574962Y30143D01*
X574956Y30139D01*
X574950Y30134D01*
X574912Y30114D01*
X574876Y30093D01*
X574868Y30091D01*
X574861Y30087D01*
X574821Y30075D01*
X574781Y30061D01*
X574455Y29986D01*
X574192Y29920D01*
X573923Y29808D01*
X573642Y29692D01*
X573401Y29560D01*
X573137Y29392D01*
X573136Y29392D01*
X572892Y29236D01*
X572694Y29060D01*
X572694Y29060D01*
X572452Y28842D01*
X572253Y28643D01*
X572085Y28433D01*
X571922Y28177D01*
X571753Y27912D01*
X571622Y27671D01*
X571512Y27408D01*
X571417Y27121D01*
X571321Y26835D01*
X571250Y26549D01*
X571237Y26513D01*
X571226Y26477D01*
X571220Y26466D01*
X571216Y26455D01*
X571197Y26422D01*
X571179Y26389D01*
X571171Y26379D01*
X571165Y26369D01*
X571139Y26341D01*
X571115Y26312D01*
X571106Y26304D01*
X571097Y26295D01*
X571067Y26272D01*
X571038Y26248D01*
X571027Y26242D01*
X571017Y26235D01*
X570983Y26219D01*
X570950Y26201D01*
X570938Y26197D01*
X570927Y26192D01*
X570890Y26183D01*
X570854Y26172D01*
X570842Y26171D01*
X570830Y26168D01*
X570792Y26166D01*
X570754Y26162D01*
X567859D01*
X567825Y26165D01*
X567791Y26167D01*
X567775Y26170D01*
X567759Y26172D01*
X567727Y26182D01*
X567694Y26189D01*
X567679Y26196D01*
X567663Y26201D01*
X567634Y26217D01*
X567603Y26231D01*
X567590Y26240D01*
X567575Y26248D01*
X567549Y26270D01*
X567522Y26289D01*
X567510Y26301D01*
X567498Y26312D01*
X567477Y26338D01*
X567453Y26363D01*
X567445Y26377D01*
X567434Y26389D01*
X567419Y26419D01*
X567401Y26448D01*
X567395Y26463D01*
X567387Y26477D01*
X567377Y26509D01*
X567365Y26541D01*
X567363Y26557D01*
X567358Y26573D01*
X567355Y26607D01*
X567349Y26640D01*
X567350Y26656D01*
X567348Y26673D01*
X567352Y26706D01*
X567353Y26740D01*
X567404Y27121D01*
X567407Y27137D01*
X567409Y27154D01*
X567485Y27535D01*
X567489Y27546D01*
X567491Y27558D01*
X567592Y27965D01*
X567599Y27983D01*
X567603Y28002D01*
X567730Y28383D01*
X567732Y28389D01*
X567734Y28394D01*
X567861Y28749D01*
X567865Y28758D01*
X567868Y28767D01*
X568020Y29148D01*
X568030Y29167D01*
X568037Y29187D01*
X568215Y29543D01*
X568223Y29555D01*
X568228Y29567D01*
X568432Y29923D01*
X568436Y29930D01*
X568440Y29937D01*
X568643Y30268D01*
X568652Y30279D01*
X568658Y30291D01*
X568887Y30621D01*
X568902Y30638D01*
X568914Y30657D01*
X569169Y30962D01*
X569422Y31267D01*
X569431Y31275D01*
X569438Y31285D01*
X569718Y31590D01*
X569735Y31605D01*
X569751Y31622D01*
X570030Y31876D01*
X570030Y31876D01*
X570333Y32154D01*
X570353Y32169D01*
X570372Y32186D01*
X570677Y32415D01*
X570685Y32420D01*
X570692Y32426D01*
X571023Y32655D01*
X571042Y32666D01*
X571060Y32678D01*
X571409Y32878D01*
X571731Y33076D01*
X571752Y33086D01*
X571771Y33098D01*
X572126Y33276D01*
X572146Y33284D01*
X572165Y33293D01*
X572546Y33446D01*
X572561Y33450D01*
X572574Y33456D01*
X572955Y33583D01*
X573336Y33710D01*
X573352Y33714D01*
X573366Y33719D01*
X573747Y33821D01*
X573763Y33823D01*
X573778Y33828D01*
X574160Y33904D01*
X574178Y33906D01*
X574196Y33910D01*
X574603Y33961D01*
X574635Y33962D01*
X574666Y33965D01*
X574684Y33963D01*
D02*
G37*
G36*
X583486Y25173D02*
X583518Y25173D01*
X583536Y25168D01*
X583554Y25167D01*
X583584Y25157D01*
X583615Y25150D01*
X583632Y25143D01*
X583650Y25138D01*
X583677Y25123D01*
X583707Y25110D01*
X583722Y25099D01*
X583738Y25090D01*
X583762Y25070D01*
X583788Y25052D01*
X583801Y25039D01*
X583815Y25027D01*
X583835Y25003D01*
X583857Y24979D01*
X583867Y24964D01*
X583879Y24950D01*
X583894Y24922D01*
X583911Y24895D01*
X583917Y24878D01*
X583926Y24861D01*
X583935Y24831D01*
X583947Y24801D01*
X583950Y24783D01*
X583955Y24766D01*
X583958Y24734D01*
X583964Y24703D01*
X583963Y24684D01*
X583965Y24666D01*
X583962Y24634D01*
X583961Y24603D01*
X583910Y24196D01*
X583906Y24178D01*
X583904Y24160D01*
X583828Y23779D01*
X583823Y23763D01*
X583821Y23747D01*
X583719Y23366D01*
X583714Y23352D01*
X583710Y23336D01*
X583583Y22955D01*
X583583Y22955D01*
X583456Y22574D01*
X583447Y22555D01*
X583441Y22534D01*
X583289Y22179D01*
X583285Y22172D01*
X583282Y22164D01*
X583104Y21783D01*
X583089Y21758D01*
X583076Y21732D01*
X582877Y21408D01*
X582678Y21060D01*
X582666Y21042D01*
X582655Y21023D01*
X582426Y20692D01*
X582412Y20675D01*
X582399Y20656D01*
X582145Y20351D01*
X581891Y20047D01*
X581874Y20030D01*
X581860Y20012D01*
X581580Y19733D01*
X581580Y19733D01*
X581301Y19454D01*
X581283Y19439D01*
X581267Y19422D01*
X580962Y19168D01*
X580962Y19168D01*
X580657Y18914D01*
X580638Y18902D01*
X580621Y18887D01*
X580291Y18658D01*
X580271Y18648D01*
X580253Y18635D01*
X579905Y18436D01*
X579582Y18237D01*
X579548Y18220D01*
X579515Y18202D01*
X579167Y18053D01*
X578793Y17879D01*
X578766Y17869D01*
X578739Y17857D01*
X578358Y17730D01*
X577977Y17603D01*
X577962Y17600D01*
X577947Y17594D01*
X577566Y17493D01*
X577550Y17490D01*
X577535Y17485D01*
X577154Y17409D01*
X577135Y17407D01*
X577117Y17403D01*
X576711Y17352D01*
X576679Y17351D01*
X576647Y17348D01*
X576629Y17350D01*
X576610Y17350D01*
X576579Y17355D01*
X576548Y17358D01*
X576530Y17364D01*
X576512Y17367D01*
X576482Y17378D01*
X576452Y17387D01*
X576436Y17396D01*
X576418Y17402D01*
X576391Y17419D01*
X576364Y17434D01*
X576349Y17446D01*
X576334Y17456D01*
X576311Y17478D01*
X576286Y17498D01*
X576274Y17512D01*
X576261Y17525D01*
X576243Y17551D01*
X576223Y17575D01*
X576214Y17591D01*
X576203Y17606D01*
X576190Y17636D01*
X576176Y17663D01*
X576170Y17681D01*
X576163Y17698D01*
X576156Y17729D01*
X576147Y17759D01*
X576145Y17778D01*
X576141Y17795D01*
X576140Y17827D01*
X576137Y17859D01*
Y20754D01*
X576141Y20796D01*
X576144Y20839D01*
X576146Y20846D01*
X576147Y20854D01*
X576159Y20894D01*
X576170Y20935D01*
X576173Y20942D01*
X576176Y20950D01*
X576195Y20986D01*
X576214Y21025D01*
X576219Y21031D01*
X576223Y21038D01*
X576249Y21070D01*
X576275Y21104D01*
X576281Y21109D01*
X576286Y21115D01*
X576319Y21142D01*
X576351Y21170D01*
X576358Y21174D01*
X576364Y21179D01*
X576401Y21199D01*
X576438Y21220D01*
X576445Y21222D01*
X576452Y21226D01*
X576493Y21238D01*
X576532Y21252D01*
X576839Y21323D01*
X577121Y21416D01*
X577408Y21512D01*
X577671Y21622D01*
X577912Y21753D01*
X578163Y21913D01*
X578410Y22092D01*
X578619Y22279D01*
X578630Y22287D01*
X578640Y22296D01*
X578861Y22473D01*
X579052Y22685D01*
X579235Y22915D01*
X579398Y23146D01*
X579560Y23402D01*
X579691Y23642D01*
X579801Y23905D01*
X579897Y24192D01*
X579991Y24474D01*
X580061Y24781D01*
X580075Y24821D01*
X580087Y24861D01*
X580091Y24868D01*
X580093Y24876D01*
X580115Y24913D01*
X580134Y24950D01*
X580139Y24956D01*
X580143Y24962D01*
X580171Y24994D01*
X580198Y25027D01*
X580204Y25032D01*
X580209Y25038D01*
X580243Y25064D01*
X580275Y25090D01*
X580282Y25094D01*
X580288Y25099D01*
X580327Y25118D01*
X580364Y25138D01*
X580371Y25140D01*
X580378Y25143D01*
X580419Y25154D01*
X580459Y25167D01*
X580467Y25167D01*
X580475Y25169D01*
X580517Y25172D01*
X580559Y25176D01*
X583454D01*
X583486Y25173D01*
D02*
G37*
G36*
X576679Y33962D02*
X576711Y33961D01*
X577117Y33910D01*
X577135Y33906D01*
X577154Y33904D01*
X577535Y33828D01*
X577550Y33823D01*
X577566Y33821D01*
X577947Y33719D01*
X577962Y33714D01*
X577977Y33710D01*
X578358Y33583D01*
X578358Y33583D01*
X578739Y33456D01*
X578753Y33450D01*
X578767Y33446D01*
X579148Y33293D01*
X579167Y33284D01*
X579187Y33276D01*
X579543Y33098D01*
X579562Y33086D01*
X579582Y33076D01*
X579905Y32877D01*
X580253Y32678D01*
X580271Y32666D01*
X580291Y32655D01*
X580621Y32426D01*
X580628Y32420D01*
X580636Y32415D01*
X580941Y32186D01*
X580960Y32169D01*
X580980Y32154D01*
X581283Y31876D01*
D01*
X581563Y31622D01*
X581578Y31605D01*
X581595Y31590D01*
X581875Y31285D01*
X581882Y31275D01*
X581891Y31267D01*
X582145Y30962D01*
X582145Y30962D01*
X582399Y30657D01*
X582412Y30638D01*
X582426Y30621D01*
X582655Y30291D01*
X582662Y30278D01*
X582670Y30268D01*
X582873Y29937D01*
X582877Y29930D01*
X582882Y29923D01*
X583085Y29567D01*
X583091Y29555D01*
X583098Y29543D01*
X583276Y29187D01*
X583284Y29167D01*
X583293Y29148D01*
X583446Y28767D01*
X583448Y28758D01*
X583452Y28749D01*
X583579Y28394D01*
X583581Y28389D01*
X583583Y28383D01*
X583710Y28002D01*
X583714Y27983D01*
X583721Y27965D01*
X583823Y27558D01*
X583824Y27546D01*
X583828Y27535D01*
X583904Y27154D01*
X583906Y27137D01*
X583910Y27121D01*
X583960Y26740D01*
X583962Y26706D01*
X583965Y26673D01*
X583963Y26656D01*
X583964Y26640D01*
X583958Y26607D01*
X583955Y26573D01*
X583950Y26557D01*
X583948Y26541D01*
X583936Y26509D01*
X583926Y26477D01*
X583918Y26463D01*
X583913Y26448D01*
X583895Y26419D01*
X583879Y26389D01*
X583869Y26377D01*
X583860Y26363D01*
X583837Y26338D01*
X583815Y26312D01*
X583803Y26301D01*
X583792Y26289D01*
X583764Y26270D01*
X583738Y26248D01*
X583724Y26240D01*
X583710Y26231D01*
X583680Y26217D01*
X583650Y26201D01*
X583634Y26196D01*
X583619Y26189D01*
X583586Y26182D01*
X583554Y26172D01*
X583538Y26170D01*
X583522Y26167D01*
X583488Y26165D01*
X583454Y26162D01*
X580559D01*
X580521Y26166D01*
X580484Y26168D01*
X580472Y26171D01*
X580459Y26172D01*
X580423Y26183D01*
X580387Y26192D01*
X580375Y26197D01*
X580364Y26201D01*
X580330Y26219D01*
X580296Y26235D01*
X580286Y26242D01*
X580275Y26248D01*
X580246Y26272D01*
X580216Y26295D01*
X580208Y26304D01*
X580198Y26312D01*
X580174Y26341D01*
X580149Y26369D01*
X580142Y26379D01*
X580134Y26389D01*
X580117Y26422D01*
X580097Y26455D01*
X580093Y26466D01*
X580087Y26477D01*
X580076Y26513D01*
X580064Y26549D01*
X579992Y26834D01*
X579897Y27121D01*
X579801Y27408D01*
X579692Y27671D01*
X579560Y27912D01*
X579392Y28177D01*
X579392Y28177D01*
X579229Y28433D01*
X579060Y28643D01*
X578861Y28842D01*
X578618Y29061D01*
X578421Y29236D01*
X578176Y29392D01*
X577911Y29560D01*
X577671Y29691D01*
X577391Y29808D01*
X577121Y29920D01*
X576858Y29986D01*
X576532Y30061D01*
X576492Y30075D01*
X576452Y30087D01*
X576445Y30091D01*
X576438Y30093D01*
X576401Y30115D01*
X576364Y30134D01*
X576358Y30139D01*
X576351Y30143D01*
X576319Y30171D01*
X576286Y30198D01*
X576281Y30204D01*
X576275Y30209D01*
X576250Y30243D01*
X576223Y30275D01*
X576219Y30282D01*
X576214Y30288D01*
X576195Y30327D01*
X576176Y30363D01*
X576173Y30371D01*
X576170Y30378D01*
X576159Y30419D01*
X576147Y30459D01*
X576146Y30467D01*
X576144Y30475D01*
X576141Y30517D01*
X576137Y30559D01*
Y33454D01*
X576140Y33486D01*
X576141Y33518D01*
X576145Y33536D01*
X576147Y33554D01*
X576156Y33584D01*
X576163Y33615D01*
X576170Y33632D01*
X576176Y33650D01*
X576190Y33677D01*
X576203Y33707D01*
X576214Y33722D01*
X576223Y33738D01*
X576243Y33762D01*
X576261Y33788D01*
X576275Y33801D01*
X576286Y33815D01*
X576311Y33835D01*
X576334Y33857D01*
X576349Y33867D01*
X576364Y33879D01*
X576391Y33894D01*
X576418Y33911D01*
X576436Y33917D01*
X576452Y33926D01*
X576482Y33935D01*
X576512Y33947D01*
X576530Y33950D01*
X576548Y33955D01*
X576579Y33958D01*
X576610Y33963D01*
X576629Y33963D01*
X576647Y33965D01*
X576679Y33962D01*
D02*
G37*
D25*
X361856Y180244D02*
D03*
X362317Y196472D02*
D03*
D33*
X380442Y237616D02*
D03*
X393942D02*
D03*
Y227616D02*
D03*
X380442D02*
D03*
D34*
X499142Y199301D02*
D03*
Y204301D02*
D03*
Y209301D02*
D03*
X505891D02*
D03*
Y204301D02*
D03*
Y199301D02*
D03*
X345291Y187403D02*
D03*
Y182403D02*
D03*
Y177403D02*
D03*
X338541D02*
D03*
Y182403D02*
D03*
Y187403D02*
D03*
D35*
X366219Y357989D02*
D03*
X346219Y348489D02*
D03*
Y367489D02*
D03*
X395000Y270000D02*
D03*
X415000Y279500D02*
D03*
Y260500D02*
D03*
D36*
X355733Y270000D02*
D03*
X374267Y279150D02*
D03*
D37*
Y260850D02*
D03*
D38*
X591945Y398908D02*
D03*
X579933D02*
D03*
X591080Y458865D02*
D03*
X579068D02*
D03*
X476006Y455000D02*
D03*
X463994D02*
D03*
X526006D02*
D03*
X513994D02*
D03*
X536818Y388030D02*
D03*
X524807D02*
D03*
D39*
X475000Y385257D02*
D03*
Y364743D02*
D03*
X506955Y310648D02*
D03*
Y290135D02*
D03*
D40*
X520000Y423241D02*
D03*
Y436759D02*
D03*
X579456Y380261D02*
D03*
Y366744D02*
D03*
X580190Y440311D02*
D03*
Y426794D02*
D03*
X530898Y356787D02*
D03*
Y370305D02*
D03*
X470000Y423241D02*
D03*
Y436759D02*
D03*
D41*
X555000Y18239D02*
D03*
Y31761D02*
D03*
X500732Y126821D02*
D03*
Y113299D02*
D03*
X501315Y166890D02*
D03*
Y180412D02*
D03*
X559250Y122489D02*
D03*
Y136011D02*
D03*
D42*
X317500Y355000D02*
D03*
X292500D02*
D03*
X414232Y231466D02*
D03*
X439232D02*
D03*
D43*
X424176Y385897D02*
D03*
Y357881D02*
D03*
X456568Y313530D02*
D03*
Y285514D02*
D03*
D52*
X373679Y531848D02*
D03*
X381251D02*
D03*
X258214Y484977D02*
D03*
X250643D02*
D03*
X490812Y471172D02*
D03*
X498383D02*
D03*
X461729Y470979D02*
D03*
X454158D02*
D03*
X258052Y471402D02*
D03*
X250481D02*
D03*
X491250Y454939D02*
D03*
X498821D02*
D03*
X257943Y457937D02*
D03*
X250372D02*
D03*
X478293Y74877D02*
D03*
X485864D02*
D03*
X381222Y355039D02*
D03*
X388794D02*
D03*
X305610Y18778D02*
D03*
X298039D02*
D03*
X443778Y209961D02*
D03*
X436207D02*
D03*
X417780D02*
D03*
X410208D02*
D03*
X372534Y209834D02*
D03*
X380105D02*
D03*
X398754Y209755D02*
D03*
X391182D02*
D03*
X589487Y55693D02*
D03*
X581916D02*
D03*
X292978Y375206D02*
D03*
X300550D02*
D03*
X311356Y375162D02*
D03*
X318928D02*
D03*
X497536Y270061D02*
D03*
X489964D02*
D03*
X493107Y404714D02*
D03*
X500678D02*
D03*
X381363Y369022D02*
D03*
X388935D02*
D03*
X500250Y103189D02*
D03*
X507821D02*
D03*
X323604Y88558D02*
D03*
X331175D02*
D03*
X436786Y262561D02*
D03*
X429215D02*
D03*
X258053Y444471D02*
D03*
X250482D02*
D03*
X461986Y329964D02*
D03*
X454415D02*
D03*
X258162Y430951D02*
D03*
X250591D02*
D03*
D53*
X547734Y501391D02*
D03*
Y508963D02*
D03*
X257764Y497315D02*
D03*
Y504886D02*
D03*
X545061Y481250D02*
D03*
Y488821D02*
D03*
X421369Y468876D02*
D03*
Y461305D02*
D03*
X438101Y468848D02*
D03*
Y461277D02*
D03*
X576449Y268982D02*
D03*
Y261411D02*
D03*
X421378Y451690D02*
D03*
Y444119D02*
D03*
X433932Y432575D02*
D03*
Y425003D02*
D03*
X420249Y432575D02*
D03*
Y425003D02*
D03*
X437993Y452016D02*
D03*
Y444445D02*
D03*
X545105Y130796D02*
D03*
Y123224D02*
D03*
X544939Y113750D02*
D03*
Y106179D02*
D03*
X324939Y313750D02*
D03*
Y306179D02*
D03*
X298769Y328944D02*
D03*
Y321372D02*
D03*
X519071Y121152D02*
D03*
Y113581D02*
D03*
D54*
X562750Y265000D02*
D03*
X547250D02*
D03*
X535570Y338002D02*
D03*
X520070D02*
D03*
X462250Y405000D02*
D03*
X477750D02*
D03*
X263813Y18105D02*
D03*
X279312D02*
D03*
X592374Y74736D02*
D03*
X576874D02*
D03*
X526379Y270176D02*
D03*
X510879D02*
D03*
X512250Y405000D02*
D03*
X527750D02*
D03*
X478913Y347766D02*
D03*
X463413D02*
D03*
D55*
X531497Y291800D02*
D03*
Y307300D02*
D03*
X575000Y342750D02*
D03*
Y327250D02*
D03*
X556034Y380322D02*
D03*
Y364823D02*
D03*
X556844Y442322D02*
D03*
Y426822D02*
D03*
D56*
X582000Y123244D02*
D03*
Y135256D02*
D03*
D58*
X205000Y297021D02*
D03*
Y323005D02*
D03*
X25000Y617021D02*
D03*
Y643005D02*
D03*
X85000Y617021D02*
D03*
Y643005D02*
D03*
X145000Y617021D02*
D03*
Y643005D02*
D03*
X205000Y617021D02*
D03*
Y643005D02*
D03*
X25000Y297021D02*
D03*
Y323005D02*
D03*
X85000Y297021D02*
D03*
Y323005D02*
D03*
X145000Y297021D02*
D03*
Y323005D02*
D03*
D59*
X205000Y310000D02*
D03*
X25000Y630000D02*
D03*
X85000D02*
D03*
X145000D02*
D03*
X205000Y630000D02*
D03*
X25000Y310000D02*
D03*
X85000Y310000D02*
D03*
X145000D02*
D03*
D60*
X292488Y35127D02*
D03*
X279788D02*
D03*
X267089D02*
D03*
X305189D02*
D03*
X267089Y113130D02*
D03*
X305189D02*
D03*
X292488D02*
D03*
X279788D02*
D03*
D61*
X286138Y74141D02*
D03*
D62*
X310262Y206054D02*
D03*
Y214056D02*
D03*
X533588Y180312D02*
D03*
Y172311D02*
D03*
D63*
X310262Y158048D02*
D03*
Y150048D02*
D03*
X533588Y228318D02*
D03*
Y236319D02*
D03*
D64*
X310262Y164551D02*
D03*
Y169555D02*
D03*
Y174559D02*
D03*
Y179562D02*
D03*
Y184541D02*
D03*
Y189545D02*
D03*
Y194548D02*
D03*
Y199552D02*
D03*
X533588Y221816D02*
D03*
Y216812D02*
D03*
Y211808D02*
D03*
Y206805D02*
D03*
Y201826D02*
D03*
Y196822D02*
D03*
Y191819D02*
D03*
Y186815D02*
D03*
D65*
X561000Y297500D02*
D03*
D66*
X568500Y283500D02*
D03*
X563500D02*
D03*
X558500D02*
D03*
X553500D02*
D03*
Y311500D02*
D03*
X558500D02*
D03*
X563500D02*
D03*
X568500D02*
D03*
D67*
X547000Y290000D02*
D03*
Y295000D02*
D03*
Y300000D02*
D03*
Y305000D02*
D03*
X575000D02*
D03*
Y300000D02*
D03*
Y295000D02*
D03*
Y290000D02*
D03*
D68*
X580406Y40439D02*
D03*
X570907D02*
D03*
D69*
X580000Y30000D02*
D03*
X571313D02*
D03*
Y21313D02*
D03*
X580000D02*
D03*
D70*
X382488Y94509D02*
D03*
Y100986D02*
D03*
Y107488D02*
D03*
Y113990D02*
D03*
Y120493D02*
D03*
Y126995D02*
D03*
Y133498D02*
D03*
Y140000D02*
D03*
Y146502D02*
D03*
Y153005D02*
D03*
Y159507D02*
D03*
Y166010D02*
D03*
Y172487D02*
D03*
Y178989D02*
D03*
Y185491D02*
D03*
Y191994D02*
D03*
X388990Y94509D02*
D03*
Y100986D02*
D03*
Y107488D02*
D03*
Y113990D02*
D03*
Y120493D02*
D03*
Y126995D02*
D03*
Y133498D02*
D03*
Y140000D02*
D03*
Y146502D02*
D03*
Y153005D02*
D03*
Y159507D02*
D03*
Y166010D02*
D03*
Y172487D02*
D03*
Y178989D02*
D03*
Y185491D02*
D03*
Y191994D02*
D03*
X395493Y94509D02*
D03*
Y100986D02*
D03*
Y107488D02*
D03*
Y113990D02*
D03*
Y120493D02*
D03*
Y126995D02*
D03*
Y133498D02*
D03*
Y140000D02*
D03*
Y146502D02*
D03*
Y153005D02*
D03*
Y159507D02*
D03*
Y166010D02*
D03*
Y172487D02*
D03*
Y178989D02*
D03*
Y185491D02*
D03*
Y191994D02*
D03*
X401995Y94509D02*
D03*
Y100986D02*
D03*
Y107488D02*
D03*
Y113990D02*
D03*
Y120493D02*
D03*
Y126995D02*
D03*
Y133498D02*
D03*
Y140000D02*
D03*
Y146502D02*
D03*
Y153005D02*
D03*
Y159507D02*
D03*
Y166010D02*
D03*
Y172487D02*
D03*
Y178989D02*
D03*
Y185491D02*
D03*
Y191994D02*
D03*
X408498Y94509D02*
D03*
Y100986D02*
D03*
Y107488D02*
D03*
Y113990D02*
D03*
Y120493D02*
D03*
Y126995D02*
D03*
Y133498D02*
D03*
Y140000D02*
D03*
Y146502D02*
D03*
Y153005D02*
D03*
Y159507D02*
D03*
Y166010D02*
D03*
Y172487D02*
D03*
Y178989D02*
D03*
Y185491D02*
D03*
Y191994D02*
D03*
X415000Y94509D02*
D03*
Y100986D02*
D03*
Y107488D02*
D03*
Y113990D02*
D03*
Y120493D02*
D03*
Y126995D02*
D03*
Y133498D02*
D03*
Y140000D02*
D03*
Y146502D02*
D03*
Y153005D02*
D03*
Y159507D02*
D03*
Y166010D02*
D03*
Y172487D02*
D03*
Y178989D02*
D03*
Y185491D02*
D03*
Y191994D02*
D03*
X421477Y94509D02*
D03*
Y100986D02*
D03*
Y107488D02*
D03*
Y113990D02*
D03*
Y120493D02*
D03*
Y126995D02*
D03*
Y133498D02*
D03*
Y140000D02*
D03*
Y146502D02*
D03*
Y153005D02*
D03*
Y159507D02*
D03*
Y166010D02*
D03*
Y172487D02*
D03*
Y178989D02*
D03*
Y185491D02*
D03*
Y191994D02*
D03*
X427979Y94509D02*
D03*
Y100986D02*
D03*
Y107488D02*
D03*
Y113990D02*
D03*
Y120493D02*
D03*
Y126995D02*
D03*
Y133498D02*
D03*
Y140000D02*
D03*
Y146502D02*
D03*
Y153005D02*
D03*
Y159507D02*
D03*
Y166010D02*
D03*
Y172487D02*
D03*
Y178989D02*
D03*
Y185491D02*
D03*
Y191994D02*
D03*
X434482Y94509D02*
D03*
Y100986D02*
D03*
Y107488D02*
D03*
Y113990D02*
D03*
Y120493D02*
D03*
Y126995D02*
D03*
Y133498D02*
D03*
Y140000D02*
D03*
Y146502D02*
D03*
Y153005D02*
D03*
Y159507D02*
D03*
Y166010D02*
D03*
Y172487D02*
D03*
Y178989D02*
D03*
Y185491D02*
D03*
Y191994D02*
D03*
X440984Y94509D02*
D03*
Y100986D02*
D03*
Y107488D02*
D03*
Y113990D02*
D03*
Y120493D02*
D03*
Y126995D02*
D03*
Y133498D02*
D03*
Y140000D02*
D03*
Y146502D02*
D03*
Y153005D02*
D03*
Y159507D02*
D03*
Y166010D02*
D03*
Y172487D02*
D03*
Y178989D02*
D03*
Y185491D02*
D03*
Y191994D02*
D03*
X447487Y94509D02*
D03*
Y100986D02*
D03*
Y107488D02*
D03*
Y113990D02*
D03*
Y120493D02*
D03*
Y126995D02*
D03*
Y133498D02*
D03*
Y140000D02*
D03*
Y146502D02*
D03*
Y153005D02*
D03*
Y159507D02*
D03*
Y166010D02*
D03*
Y172487D02*
D03*
Y178989D02*
D03*
Y185491D02*
D03*
Y191994D02*
D03*
X453989Y94509D02*
D03*
Y100986D02*
D03*
Y107488D02*
D03*
Y113990D02*
D03*
Y120493D02*
D03*
Y126995D02*
D03*
Y133498D02*
D03*
Y140000D02*
D03*
Y146502D02*
D03*
Y153005D02*
D03*
Y159507D02*
D03*
Y166010D02*
D03*
Y172487D02*
D03*
Y178989D02*
D03*
Y185491D02*
D03*
Y191994D02*
D03*
X460491Y94509D02*
D03*
Y100986D02*
D03*
Y107488D02*
D03*
Y113990D02*
D03*
Y120493D02*
D03*
Y126995D02*
D03*
Y133498D02*
D03*
Y140000D02*
D03*
Y146502D02*
D03*
Y153005D02*
D03*
Y159507D02*
D03*
Y166010D02*
D03*
Y172487D02*
D03*
Y178989D02*
D03*
Y185491D02*
D03*
Y191994D02*
D03*
X466994Y94509D02*
D03*
Y100986D02*
D03*
Y107488D02*
D03*
Y113990D02*
D03*
Y120493D02*
D03*
Y126995D02*
D03*
Y133498D02*
D03*
Y140000D02*
D03*
Y146502D02*
D03*
Y153005D02*
D03*
Y159507D02*
D03*
Y166010D02*
D03*
Y172487D02*
D03*
Y178989D02*
D03*
Y185491D02*
D03*
Y191994D02*
D03*
X473496Y94509D02*
D03*
Y100986D02*
D03*
Y107488D02*
D03*
Y113990D02*
D03*
Y120493D02*
D03*
Y126995D02*
D03*
Y133498D02*
D03*
Y140000D02*
D03*
Y146502D02*
D03*
Y153005D02*
D03*
Y159507D02*
D03*
Y166010D02*
D03*
Y172487D02*
D03*
Y178989D02*
D03*
Y185491D02*
D03*
Y191994D02*
D03*
X479999Y94509D02*
D03*
Y100986D02*
D03*
Y107488D02*
D03*
Y113990D02*
D03*
Y120493D02*
D03*
Y126995D02*
D03*
Y133498D02*
D03*
Y140000D02*
D03*
Y146502D02*
D03*
Y153005D02*
D03*
Y159507D02*
D03*
Y166010D02*
D03*
Y172487D02*
D03*
Y178989D02*
D03*
Y185491D02*
D03*
Y191994D02*
D03*
D71*
X205000Y345293D02*
D03*
Y374707D02*
D03*
X85000Y594707D02*
D03*
Y565293D02*
D03*
X145000Y594707D02*
D03*
Y565293D02*
D03*
X205000Y594707D02*
D03*
Y565293D02*
D03*
X25000Y594707D02*
D03*
Y565293D02*
D03*
Y345293D02*
D03*
Y374707D02*
D03*
X85000Y345293D02*
D03*
Y374707D02*
D03*
X145000Y345293D02*
D03*
Y374707D02*
D03*
D72*
X205000Y360000D02*
D03*
X85000Y580000D02*
D03*
X145000D02*
D03*
X205000D02*
D03*
X25000D02*
D03*
Y360000D02*
D03*
X85000Y360000D02*
D03*
X145000D02*
D03*
D73*
X484533Y33501D02*
D03*
X346535D02*
D03*
D74*
X428043Y56996D02*
D03*
X423040D02*
D03*
X418036D02*
D03*
X413032D02*
D03*
X408028D02*
D03*
X403050D02*
D03*
X398046D02*
D03*
X393042D02*
D03*
X388038D02*
D03*
X383035D02*
D03*
X378031D02*
D03*
X373027D02*
D03*
X368049D02*
D03*
X363045D02*
D03*
X433047D02*
D03*
X438051D02*
D03*
X443029D02*
D03*
X448033D02*
D03*
X453037D02*
D03*
X458041D02*
D03*
X463045D02*
D03*
X468048D02*
D03*
D75*
X448245Y355841D02*
D03*
Y389699D02*
D03*
X480854Y283387D02*
D03*
Y317245D02*
D03*
D76*
X360363Y152377D02*
D03*
X355359D02*
D03*
X350356D02*
D03*
X345352D02*
D03*
X340348D02*
D03*
X360363Y110188D02*
D03*
X355359D02*
D03*
X350356D02*
D03*
X345352D02*
D03*
X340348D02*
D03*
D77*
X537033Y24762D02*
D03*
Y41262D02*
D03*
X515000Y25000D02*
D03*
Y41500D02*
D03*
D78*
X325624Y477067D02*
D03*
D79*
X397201Y497184D02*
D03*
Y488167D02*
D03*
Y479175D02*
D03*
Y470184D02*
D03*
Y461167D02*
D03*
Y452175D02*
D03*
Y443183D02*
D03*
Y434166D02*
D03*
Y425175D02*
D03*
Y416183D02*
D03*
Y407166D02*
D03*
X277211D02*
D03*
Y416183D02*
D03*
Y425175D02*
D03*
Y434166D02*
D03*
Y443183D02*
D03*
Y452175D02*
D03*
Y461167D02*
D03*
Y470184D02*
D03*
Y479175D02*
D03*
Y488167D02*
D03*
Y497184D02*
D03*
D80*
X382215Y392180D02*
D03*
X373223D02*
D03*
X364206D02*
D03*
X355215D02*
D03*
X346223D02*
D03*
X337206D02*
D03*
X328215D02*
D03*
X319223D02*
D03*
X310206D02*
D03*
X301214D02*
D03*
X292223D02*
D03*
Y512170D02*
D03*
X301214D02*
D03*
X310206D02*
D03*
X319223D02*
D03*
X328215D02*
D03*
X337206D02*
D03*
X346223D02*
D03*
X355215D02*
D03*
X364206D02*
D03*
X373223D02*
D03*
X382215D02*
D03*
D81*
X373309Y512555D02*
D03*
D82*
X297507Y211142D02*
D03*
X297612Y153064D02*
D03*
X546343Y175224D02*
D03*
X546238Y233303D02*
D03*
D83*
X260757Y225308D02*
D03*
Y138795D02*
D03*
X583093Y161059D02*
D03*
Y247572D02*
D03*
D84*
X302566Y225308D02*
D03*
Y138795D02*
D03*
X541284Y161059D02*
D03*
Y247572D02*
D03*
D85*
X575656Y25626D02*
D03*
X446206Y368130D02*
D03*
Y379130D02*
D03*
X566000Y302500D02*
D03*
Y292500D02*
D03*
X556000D02*
D03*
Y302500D02*
D03*
X561000Y297500D02*
D03*
X480000Y294500D02*
D03*
Y305500D02*
D03*
D86*
X314500Y320000D02*
D03*
X530500Y490000D02*
D03*
X532222Y109333D02*
D03*
D87*
X314500Y300000D02*
D03*
X530500Y510000D02*
D03*
X532222Y129333D02*
D03*
D88*
X220044Y456251D02*
D03*
X220000Y440126D02*
D03*
X438990Y340337D02*
D03*
X422865Y340381D02*
D03*
X434956Y281749D02*
D03*
X435000Y297874D02*
D03*
X592410Y327975D02*
D03*
X592454Y344100D02*
D03*
X592589Y310865D02*
D03*
X592545Y294740D02*
D03*
X592469Y279689D02*
D03*
X592425Y263564D02*
D03*
X10041Y456251D02*
D03*
X9998Y440126D02*
D03*
X40044Y456251D02*
D03*
X40000Y440126D02*
D03*
X70041Y456251D02*
D03*
X69998Y440126D02*
D03*
X100044Y456251D02*
D03*
X100000Y440126D02*
D03*
X130044Y456251D02*
D03*
X130000Y440126D02*
D03*
X160044Y456251D02*
D03*
X160000Y440126D02*
D03*
X190044Y456251D02*
D03*
X190000Y440126D02*
D03*
D89*
X25000Y410000D02*
D03*
X85000D02*
D03*
X145000D02*
D03*
X205000D02*
D03*
X25000Y530000D02*
D03*
X85000D02*
D03*
X145000D02*
D03*
X205000D02*
D03*
X266150Y258584D02*
D03*
M02*
