M48
;Layer_Color=9474304
;FILE_FORMAT=4:4
METRIC,LZ
;TYPE=PLATED
T01F00S00C0.3000
T02F00S00C0.6000
T03F00S00C0.7000
;TYPE=NON_PLATED
T05F00S00C0.5000
T06F00S00C0.6000
T07F00S00C2.2000
T08F00S00C2.6000
%
T01
X00297518Y00018778
X00293828Y00035141
X00305291Y00035088
X00321774Y00033288
X00321713Y00045815
X00327992Y00046027
X00327815Y00051775
X00321047Y00057074
X00322388Y00063015
X00300679Y00064858
Y00074858
X00300612Y00084791
X00285679Y00084859
Y00074858
Y00064858
X00286748Y00098742
X00279714Y00102747
X0027975Y00113
X0029275
X00297655Y00104825
X00305065Y00102711
X00305449Y00109837
X00335Y00105
X0033Y00095
X0033198Y00088913
X00339527Y00084704
X00343789Y00094015
X00344657Y0007399
X00353181Y00075811
X00360633Y00077027
X00366116Y00079325
X00362393Y00066998
X00370917Y00066945
X00358046Y00059119
X00365481Y00043911
X00374551Y00046423
X00387849Y00046283
X00393138Y00048541
X0039Y00039205
X003825Y0003
X00375Y00015
X0036
X00325835Y00019292
X00340652Y00045375
X00408038Y00048584
X00423071Y000485
X00433111Y00045833
X0043817Y00048568
X0042998Y0004101
X00455257Y0004232
X00461215Y00033321
X0045Y00015
X00435
X0042
X00405
X00403562Y00066427
X00412723Y00066998
X00440508Y00066865
X00446238Y00067352
X00458848Y00066998
X00464598Y00067065
X00466675Y00078155
X00466078Y00088788
X00460397Y00094472
X00460474Y00100939
X00466994Y00100986
X00466999Y00107465
X00460436Y00107503
X00453989Y00107488
X00447487
X00447461Y00100978
X00453651Y00101275
X00440973Y00101016
X00440947Y00094576
X00439304Y00088855
X00449049Y00088174
X00447491Y00114022
X00447487Y00120493
X00453989
Y00126995
X00460491
Y00133498
X00466994
Y0014
Y00146502
X00460491
X00453989
X00447487
X00440984
X00434482
X00427979
X00421477
X00415
Y00153005
X00421477
Y00159507
X00415
Y0016601
X00421477
Y00172487
X00427979
Y0016601
Y00159517
X00434482Y00159507
X00440984
Y0016601
X00440966Y00172433
X00447523Y00172473
X00453929
X00453989Y0016601
X00460491
Y00159507
X00453989
X00447487
Y0016601
Y00153005
X00440984
X00434482
X00427979
Y0014
X00421477
X00415
Y00133498
X00421477
X00427979
X00434482
X00440984
X00447487
X00453989
Y0014
X00460491
Y00153005
X00453989
X00447487Y0014
X00440984
X00434482
Y00126995
Y00120493
X00440984
Y0011399
X00434482
X00427979
Y00120493
X00421477
X00415
X00408498
Y0011399
X00415
X00421477
Y00107488
X00421473Y00101016
X00421613Y00094509
X0041627Y00092735
X00414586Y00101339
X00408498Y00100939
X00408422Y00107465
X00401972Y00107434
Y00101054
X00395485Y00107434
X0038899Y00107488
X00382488
Y0011399
X00376571Y00113822
X00388937Y00113977
X00395493Y0011399
Y00120493
X00401995
Y00126995
Y00133498
X00395493
Y0014
Y00146502
X00388997Y00146504
Y00139978
X00388991Y00133426
X00388959Y00120536
X00395493Y00126995
X00408498
X00415
X00421477
X00427979
X00440984
X00447487
X00460491Y00120493
Y0011399
X00453989
X00467037Y00126984
X00491688Y00126
X00492003Y00116718
X00497711Y00113211
X00504Y00113
X00503621Y0012388
X00502552Y00130051
X00505277Y00135999
X00519058Y00121399
X005175Y0009
X005325
X005475
X005625
X00555Y00105
X0057
X00585
X00583202Y00122935
X005925Y0012
X00583202Y00135358
X0057Y00135
X00562539Y0014024
X00555018Y00138134
X00563278Y00125917
X00556722Y00119333
X00545079Y00113704
X00555Y00075
X0053323Y00069954
X00525Y00075
X0051
X00510503Y00059647
X00503151Y00054663
X00496489Y00056772
X00503076Y0004498
X0049035Y00039472
X00517765Y00040401
X00524371Y00051383
X00541523Y00059416
X00550567Y00050183
X00562788Y00051832
X0057072Y00031046
X0058042Y00031329
X00580754Y00020601
X00585Y00015
X00570772Y00020343
X005925Y0003
X00589141Y00055436
X00593258Y00074372
X00585Y00075
X005925Y0009
Y0018
X005775
X00585Y00195
X005925Y0021
X005775
X00585Y00225
X005925Y0024
X00576402Y00261322
X0057Y00255
X00562176Y00265123
X00563433Y00278521
X00569621Y0028308
X00566Y002925
X00561Y002975
X00556Y003025
Y002925
X0054725Y00282318
X00531371Y00279685
X00531328Y00272436
X00525737Y0026984
X00525Y00285
X00531714Y00291351
X00545Y00305
X00553444Y00316653
X00559782Y00317586
X00556518Y00325364
X00563399Y00307396
X00566Y003025
X00570139Y00312317
X00575006Y00307987
X00574371Y0034305
X00575556Y00356526
X00573652Y00361879
X0056825Y00356497
X00563482Y00367766
X00543354Y00365133
X005475Y0036
X00531743Y00360367
X00526027Y0036
X0051473Y00359571
X0051488Y00365412
X0051574Y0035267
X00504252Y00354455
X00478712Y00348204
X0045Y00345
X00453622Y003307
X00463927Y0032974
X00455644Y00313721
X00441769Y0031746
X00435Y00315
X004275Y0033
X00415523Y00328054
X00406555Y00318418
X004125Y003
X00415Y002795
X0039Y00285
X00378783Y0027819
X00376821Y00261629
X00360043Y0026113
X00362159Y00271563
X00345Y00285
X0033
X003075Y0027
X002925
X00285Y00285
Y00255
X0033396Y0024
X00349002Y00241624
X00349921Y00235743
X00360061Y00241926
X00370548Y00237002
X00366017Y0023164
X0036566Y00223116
X00372046Y00223107
X00373628Y00210791
X0036931Y00203116
X00368626Y00196091
X00353214Y00199986
X00344153Y00196936
X00344428Y00204274
X0034Y0021
X0034014Y00217002
X00336677Y00195927
X0033Y00195
X00337091Y00182403
X00347785Y00182285
X00353344Y0017579
X00350062Y00169969
X00339014Y001715
X00362824Y00163317
X00373713Y00163121
X0037Y0017
X00370491Y00154046
X00376057Y00146916
X00382418Y00140038
X00377349Y00131272
X0037Y00135
X00369223Y00124557
X00363447Y00120774
Y00111464
X00368393Y00107696
X00369547Y00094021
X0038192Y00084262
X00387541Y00085
X00400686Y00088353
X00395509Y00094557
X00401995Y0011399
X00415Y00107488
X00427979
X00408498Y00133498
Y0014
Y00146502
X00401995
Y00153005
Y00159507
X00408498
Y0016601
X00401995
X00395562Y00166043
X00395493Y00172487
X00401995
X00401959Y00179043
X0039551
X00388976Y00179051
X00388893Y00185599
X00388998Y00192075
X00395486Y00192002
X00395486Y00185599
X00401965Y00185556
X0040849Y00185451
X00408556Y0017897
X00415044Y00178892
X00421477Y00178989
X00427979
Y00185491
X00421556Y00185424
Y00191954
X00427944Y00191971
X00432577Y00199753
X00439Y0020075
X00448017Y0020026
X00455697Y0020061
X00463253Y00200457
X00460447Y00193319
X00454035Y00191967
X00453989Y00185491
X00447487
X00440984
X00441066Y00191889
X00447487Y00191994
X00447442Y00178998
X0044118Y00179143
X0043441Y00178876
Y00185631
X00415Y00185491
Y00191994
X00408498
X00419553Y00197738
X00409809Y00210028
X00398754Y00209755
X00390974Y00209794
X004Y0020075
X00405Y00225
X00392404Y00227486
X00380292Y00237481
X004275Y0024
X00426737Y00213663
X00435998Y0021
X00443955Y00209823
X0045Y00225
X00467514Y00223354
X0046825Y00217
Y002105
X00460932Y00216026
X0047778Y00234273
X00477904Y0024123
X00484861Y00240981
X00484985Y00234894
X005175Y0024
X00529727Y00236184
X00549181Y00221453
X00555998Y00221408
X00544881Y00212524
X00544134Y00206162
X00549964Y00203506
X00549265Y00197051
X00547948Y00190458
X00555561Y00190277
X00530569Y00172267
X00525Y00165
X00502079Y00163478
Y00169643
X00502356Y00177702
X00502079Y00183512
X0048692Y00184469
X00486453Y00196328
X00499142Y00199301
X00499259Y002105
X0051Y00205
X00479999Y00172487
X00467378Y00178391
X00473487Y00101054
X00473496Y00094509
X00479999Y00100986
X00505277Y00098125
X00486073Y00074838
X00538768Y00038385
X00401995Y0014
X00408498Y00153005
X00350198Y00144971
X00351978Y0013202
X00344273Y00132451
X00337661Y0013548
X00337779Y00128917
X00335593Y00119935
X00345312Y00119745
X00334631Y00140367
X0032967Y00144878
X00321205Y00149554
X00296957Y00166781
X00290051Y0016899
X00290422Y00160466
X00285898Y00157055
X00281866Y00152541
X00285Y00135
X00299152Y00175283
X00298601Y00181007
X0029314Y00182808
X00294041Y00188487
X00297453Y00194399
X0028954Y00194249
X00362445Y00180494
X00365623Y00309022
X00349551Y00308847
X00341115Y00323651
X003225Y0033
X003075
X00298718Y00328872
X002925Y0033
X002775
Y0036
X003075
X003375
X00333749Y00371251
X00345909Y00347526
X00366083Y00356668
X00380473Y00355
X00387299Y00356567
X00388838Y00368903
X00415098Y00367904
X00404939Y00353811
X00446206Y0036813
X00456312Y00366516
X00455362Y00373581
X00525956Y00373662
X00532855Y003703
X00537921Y00338514
X00498376Y00306011
X0048975Y003
X00489739Y00293484
X0048Y002945
Y003055
X00469674Y00306479
X00481978Y00315242
X00490015Y00269949
X00497862
X004725Y0027
X00435421Y00259843
X00386038Y00309022
X00371081Y0032044
X003Y00315
X002625Y003
X00255Y00285
X0027
X002625Y0024
X0027Y00195
Y00165
X00256779Y00161272
X00252796Y00156754
X00248884Y00151879
X002625Y0015
X0026721Y00113108
X00255Y00105
Y00075
X00270679Y00074858
Y00084859
Y00064858
X0027Y00045
X00267089Y00035127
X0026351Y00018461
X00255Y00015
Y00045
X00205Y00297021
Y00323005
Y00345293
X00145Y00345293
X00145Y00323005
Y00297021
X00085
Y00323005
Y00345293
X00025Y00345
Y00323005
Y00297021
Y00374707
X00085Y00374707
X00145
X00205Y00374707
X00255Y0042
X00258188Y00430945
X00259561Y00437811
X00259861Y00444111
X00246238Y00444516
Y00431344
Y00457998
Y00471376
Y00485166
X002505Y0049325
X00247389Y00498146
X00257401Y00504924
X00255Y00525
X0027
X00265Y00535
X0025
X0026025Y004705
X00265396Y00474935
X0027Y0046075
X00265Y00455
X0021Y0048
X0015
X0009
X0003
X00025Y00565293
Y00594707
Y00617021
Y00643005
X00085
Y00617021
Y00594707
Y00565293
X00145
Y00594707
Y00617021
Y00643005
X00205Y00643005
X00205287Y00617168
X00205Y00594707
Y00565293
X0028Y00535
X00295
X003Y00525
X00309649Y00530264
X00310109Y00512655
X00308383Y00491459
X003075Y0048
X00329368Y00477512
X0033Y00465
X00315Y0046
X00328315Y00444322
X0033Y00435
X0034475Y00430753
X00346874Y00437747
X0035231Y00445
X00365102Y00438588
X00365Y0042225
X00373854Y00429818
X00382667Y00436629
X0038821Y00434062
X00385578Y00445549
X003825Y0042
X00397487Y00425322
X00423124Y00431649
X0042133Y0044414
X00421436Y00452066
X004125Y0045
X0041Y00470529
X00421547Y00468005
X00438162
X00437946Y00459481
X0044875Y00464
X00461483Y00460149
X00461583Y0045236
X00475895Y00454922
X0048Y00465
X00490761Y00470798
X00498349Y00470529
X005025Y0048
X005175
X005325
X00545136Y00481332
X00545Y00465
X00555Y00465
X0057
X00579281Y0046239
X0057648Y00456118
X00591019Y00458696
X00594735Y00449264
X00594247Y00426784
X00576046Y0042828
X0057386Y00422531
X00567683Y00417662
X0056388Y00428333
X00565Y00435
X00557085Y00442665
X00538167Y00429822
X0053336Y00419762
X00518542Y00418535
X00520875Y00424595
Y00435406
X00518599Y00441045
X00507174Y00440502
X00506343Y00430591
X00505Y00425
X00506841Y0041862
X00500867Y00419227
X00483786Y00419773
X00485Y0043
X00470875Y00435406
X00468024Y00440889
X00470629Y00424491
X00468024Y00419314
X00457822Y004185
X004549Y00424829
X0045485Y00430591
X00445451Y00417313
X0045Y00405
X00462056Y00405419
X00435Y00405
X00426Y0041525
X00424552Y00381654
X00436347Y00380465
X00446206Y0037913
X0045525Y00382678
X00465135Y00380497
X00525Y0039
X00537971Y00391498
X00545Y00408363
X0051225Y00405
X00511888Y00452734
X00517043Y00458394
X0052675Y0045425
X0054Y00495
X00555
X0057
X00585
X005925Y0051
X005775
X005625
X00555Y00525
X00555Y00535
X0057
X0057Y00525
X00585
X00585Y00535
X00595
X0054
X0054Y00525
X00525
X00525Y00535
X0051
X0051Y00525
X00495
X00495Y00535
X0048
X0048Y00525
X00465
X00465Y00535
X0045
X0045Y00525
X00435
X00435Y00535
X0042
X0042Y00525
X00405
X0040578Y0053528
X0039308
X0039Y00525
X00382256Y00517122
X00382301Y00507515
X003975Y0051
X004125
X004275
X004425
X004575
X004725
X004875
X005025
X005175
X0051Y00495
X00495
X0048
X00465
X0045
X00435
X0042
X004275Y0048
X004425
X004575
X004725
X004875
X005625
X005775
X005925
X0059182Y00398425
X00594097Y00387263
X00576596Y00396467
X00576193Y00402452
X00582572Y0040263
X00565011Y00375
X00555363Y00380016
X00391344Y00379741
X00391209Y00387204
X00382215Y0039218
X00364316Y00392283
X00365Y00375
X00353181Y00403829
X0034475Y00412
Y004185
X00321686Y00407756
X00315Y00405
X003
X00276987Y00407666
X002775Y0039
X00292754Y00375167
X00319136Y00375123
X00287415Y00425
X00294428Y00444993
X00300178Y00445063
X0028751Y00489433
X00290568Y00499315
X00285Y00525
X0033
X00335532Y00529996
X00336582Y00537911
X00342643Y0053801
X00357347Y00537911
X00363507
X00352933Y00529996
X00345Y00525
X00364234Y00517191
Y00507515
X0036Y00495
X00375
X003825Y0048
X003675
X00375Y0047
X00361501Y00465354
X00347069Y00476579
X00345Y00495
X00325Y00535
T02
X00434956Y00281749
X00435Y00297874
X0043899Y00340337
X00422865Y00340381
X00592454Y003441
X0059241Y00327975
X00592589Y00310865
X00592545Y0029474
X00592469Y00279689
X00592425Y00263564
X0022Y00440126
X00220044Y00456251
X00190044
X0019Y00440126
X0016
X00160044Y00456251
X00130044
X0013Y00440126
X001
X00100044Y00456251
X00070041Y00456251
X00069998Y00440126
X0004Y00440126
X00040044Y00456251
X00010041
X00009998Y00440126
T03
X003145Y003
Y0032
X00532222Y00129333
Y00109333
X005305Y0049
Y0051
T05
X00575656Y00025626
T06
X00297612Y00153064
X00297507Y00211142
X00546238Y00233303
X00546343Y00175224
T07
X00025Y0041
X00085
X00145
X00205
Y0053
X00145
X00085
X00025
T08
X0026615Y00258584
M30
