G04*
G04 #@! TF.GenerationSoftware,Altium Limited,Altium Designer,26.8.1 (31)*
G04*
G04 Layer_Physical_Order=2*
G04 Layer_Color=36540*
G04 Board_Origin=4724409|16535433*
%FSLAX44Y44*%
%MOMM*%
G71*
G04*
G04 #@! TF.SameCoordinates,A4A71A40-5EFA-4F0F-B688-C996759E1867*
G04*
G04*
G04 #@! TF.FilePolarity,Positive*
G04*
G01*
G75*
%ADD25C,0.4500*%
%ADD132C,0.3500*%
%ADD134O,1.8009X1.1989*%
%ADD135O,1.9990X1.1989*%
%ADD136C,0.5000*%
%ADD139C,1.0000*%
G36*
X599503Y540000D02*
X599503Y3007D01*
X245000D01*
Y428609D01*
X245641Y428344D01*
X246835D01*
X247937Y428800D01*
X248781Y429644D01*
X249238Y430747D01*
Y431940D01*
X248781Y433043D01*
X247937Y433887D01*
X246835Y434344D01*
X245641D01*
X245000Y434078D01*
Y441782D01*
X245641Y441516D01*
X246835D01*
X247937Y441973D01*
X248781Y442817D01*
X249238Y443920D01*
Y445113D01*
X248781Y446216D01*
X247937Y447060D01*
X246835Y447516D01*
X245641D01*
X245000Y447251D01*
Y455263D01*
X245641Y454998D01*
X246835D01*
X247937Y455454D01*
X248781Y456298D01*
X249238Y457401D01*
Y458594D01*
X248781Y459697D01*
X247937Y460541D01*
X246835Y460998D01*
X245641D01*
X245000Y460732D01*
Y468642D01*
X245641Y468376D01*
X246835D01*
X247937Y468833D01*
X248781Y469677D01*
X249238Y470779D01*
Y471973D01*
X248781Y473075D01*
X247937Y473919D01*
X246835Y474376D01*
X245641D01*
X245000Y474110D01*
Y482432D01*
X245641Y482166D01*
X246835D01*
X247937Y482623D01*
X248781Y483467D01*
X249238Y484569D01*
Y485763D01*
X248781Y486866D01*
X247937Y487710D01*
X246835Y488166D01*
X245641D01*
X245000Y487901D01*
Y540000D01*
X599503Y540000D01*
D02*
G37*
%LPC*%
G36*
X310706Y515655D02*
X309512D01*
X308410Y515198D01*
X307566Y514354D01*
X307109Y513252D01*
Y512058D01*
X307566Y510956D01*
X308410Y510112D01*
X309512Y509655D01*
X310706D01*
X311808Y510112D01*
X312652Y510956D01*
X313109Y512058D01*
Y513252D01*
X312652Y514354D01*
X311808Y515198D01*
X310706Y515655D01*
D02*
G37*
G36*
X531594Y515500D02*
X529406D01*
X527384Y514663D01*
X525837Y513116D01*
X525000Y511094D01*
Y508906D01*
X525837Y506884D01*
X527384Y505337D01*
X529406Y504500D01*
X531594D01*
X533615Y505337D01*
X535163Y506884D01*
X536000Y508906D01*
Y511094D01*
X535163Y513116D01*
X533615Y514663D01*
X531594Y515500D01*
D02*
G37*
G36*
X257998Y507924D02*
X256804D01*
X255702Y507468D01*
X254858Y506624D01*
X254401Y505521D01*
Y504328D01*
X254858Y503225D01*
X255702Y502381D01*
X256804Y501924D01*
X257998D01*
X259100Y502381D01*
X259944Y503225D01*
X260401Y504328D01*
Y505521D01*
X259944Y506624D01*
X259100Y507468D01*
X257998Y507924D01*
D02*
G37*
G36*
X291164Y502315D02*
X289971D01*
X288868Y501858D01*
X288024Y501014D01*
X287568Y499912D01*
Y498718D01*
X288024Y497616D01*
X288868Y496772D01*
X289971Y496315D01*
X291164D01*
X292267Y496772D01*
X293111Y497616D01*
X293568Y498718D01*
Y499912D01*
X293111Y501014D01*
X292267Y501858D01*
X291164Y502315D01*
D02*
G37*
G36*
X251097Y496250D02*
X249903D01*
X248801Y495793D01*
X247957Y494949D01*
X247500Y493847D01*
Y492653D01*
X247957Y491551D01*
X248801Y490707D01*
X249903Y490250D01*
X251097D01*
X252199Y490707D01*
X253043Y491551D01*
X253500Y492653D01*
Y493847D01*
X253043Y494949D01*
X252199Y495793D01*
X251097Y496250D01*
D02*
G37*
G36*
X308980Y494459D02*
X307786D01*
X306684Y494002D01*
X305840Y493158D01*
X305383Y492055D01*
Y490862D01*
X305840Y489759D01*
X306684Y488915D01*
X307786Y488459D01*
X308980D01*
X310082Y488915D01*
X310926Y489759D01*
X311383Y490862D01*
Y492055D01*
X310926Y493158D01*
X310082Y494002D01*
X308980Y494459D01*
D02*
G37*
G36*
X288107Y492433D02*
X286913D01*
X285811Y491977D01*
X284967Y491133D01*
X284510Y490030D01*
Y488837D01*
X284967Y487734D01*
X285811Y486890D01*
X286913Y486433D01*
X288107D01*
X289209Y486890D01*
X290053Y487734D01*
X290510Y488837D01*
Y490030D01*
X290053Y491133D01*
X289209Y491977D01*
X288107Y492433D01*
D02*
G37*
G36*
X531594Y495500D02*
X529406D01*
X527384Y494663D01*
X525837Y493116D01*
X525000Y491094D01*
Y488906D01*
X525837Y486884D01*
X527384Y485337D01*
X529406Y484500D01*
X531594D01*
X533615Y485337D01*
X535163Y486884D01*
X536000Y488906D01*
Y491094D01*
X535163Y493116D01*
X533615Y494663D01*
X531594Y495500D01*
D02*
G37*
G36*
X329964Y480512D02*
X328771D01*
X327668Y480056D01*
X326824Y479212D01*
X326368Y478109D01*
Y476916D01*
X326824Y475813D01*
X327668Y474969D01*
X328771Y474512D01*
X329964D01*
X331067Y474969D01*
X331911Y475813D01*
X332368Y476916D01*
Y478109D01*
X331911Y479212D01*
X331067Y480056D01*
X329964Y480512D01*
D02*
G37*
G36*
X375638Y475791D02*
X374444D01*
X373342Y475334D01*
X372498Y474491D01*
X372041Y473388D01*
Y472194D01*
X372498Y471092D01*
X373342Y470248D01*
X374444Y469791D01*
X375638D01*
X376740Y470248D01*
X377584Y471092D01*
X378041Y472194D01*
Y473388D01*
X377584Y474491D01*
X376740Y475334D01*
X375638Y475791D01*
D02*
G37*
G36*
X411588Y475262D02*
X410394D01*
X409292Y474805D01*
X408448Y473961D01*
X407991Y472859D01*
Y471665D01*
X408448Y470563D01*
X409292Y469719D01*
X410394Y469262D01*
X411588D01*
X412690Y469719D01*
X413534Y470563D01*
X413991Y471665D01*
Y472859D01*
X413534Y473961D01*
X412690Y474805D01*
X411588Y475262D01*
D02*
G37*
G36*
X309774Y474459D02*
X308581D01*
X307478Y474002D01*
X306634Y473158D01*
X306178Y472055D01*
Y470862D01*
X306634Y469759D01*
X307478Y468915D01*
X308581Y468459D01*
X309774D01*
X310877Y468915D01*
X311721Y469759D01*
X312178Y470862D01*
Y472055D01*
X311721Y473158D01*
X310877Y474002D01*
X309774Y474459D01*
D02*
G37*
G36*
X491358Y473798D02*
X490164D01*
X489062Y473342D01*
X488218Y472498D01*
X487761Y471395D01*
Y470202D01*
X488218Y469099D01*
X489062Y468255D01*
X490164Y467798D01*
X491358D01*
X492461Y468255D01*
X493304Y469099D01*
X493761Y470202D01*
Y471395D01*
X493304Y472498D01*
X492461Y473342D01*
X491358Y473798D01*
D02*
G37*
G36*
X260847Y473500D02*
X259653D01*
X258551Y473043D01*
X257707Y472199D01*
X257250Y471097D01*
Y469903D01*
X257707Y468801D01*
X258551Y467957D01*
X259653Y467500D01*
X260847D01*
X261949Y467957D01*
X262793Y468801D01*
X263250Y469903D01*
Y471097D01*
X262793Y472199D01*
X261949Y473043D01*
X260847Y473500D01*
D02*
G37*
G36*
X362097Y472767D02*
X360904D01*
X359801Y472310D01*
X358957Y471466D01*
X358501Y470364D01*
Y469170D01*
X358957Y468068D01*
X359801Y467224D01*
X360904Y466767D01*
X362097D01*
X363200Y467224D01*
X364044Y468068D01*
X364501Y469170D01*
Y470364D01*
X364044Y471466D01*
X363200Y472310D01*
X362097Y472767D01*
D02*
G37*
G36*
X545597Y468000D02*
X544403D01*
X543301Y467543D01*
X542457Y466699D01*
X542000Y465597D01*
Y464403D01*
X542457Y463301D01*
X543301Y462457D01*
X544403Y462000D01*
X545597D01*
X546699Y462457D01*
X547543Y463301D01*
X548000Y464403D01*
Y465597D01*
X547543Y466699D01*
X546699Y467543D01*
X545597Y468000D01*
D02*
G37*
G36*
X449347Y467000D02*
X448153D01*
X447051Y466543D01*
X446207Y465699D01*
X445750Y464597D01*
Y463403D01*
X446207Y462301D01*
X447051Y461457D01*
X448153Y461000D01*
X449347D01*
X450449Y461457D01*
X451293Y462301D01*
X451750Y463403D01*
Y464597D01*
X451293Y465699D01*
X450449Y466543D01*
X449347Y467000D01*
D02*
G37*
G36*
X579878Y465390D02*
X578684D01*
X577582Y464933D01*
X576738Y464089D01*
X576281Y462986D01*
Y461793D01*
X576738Y460690D01*
X577582Y459846D01*
X578684Y459390D01*
X579878D01*
X580980Y459846D01*
X581824Y460690D01*
X582281Y461793D01*
Y462986D01*
X581824Y464089D01*
X580980Y464933D01*
X579878Y465390D01*
D02*
G37*
G36*
X270597Y463750D02*
X269403D01*
X268301Y463293D01*
X267457Y462449D01*
X267000Y461347D01*
Y460153D01*
X267457Y459051D01*
X268301Y458207D01*
X269403Y457750D01*
X270597D01*
X271699Y458207D01*
X272543Y459051D01*
X273000Y460153D01*
Y461347D01*
X272543Y462449D01*
X271699Y463293D01*
X270597Y463750D01*
D02*
G37*
G36*
X462080Y463149D02*
X460886D01*
X459783Y462692D01*
X458939Y461848D01*
X458483Y460745D01*
Y459552D01*
X458939Y458449D01*
X459783Y457605D01*
X460886Y457149D01*
X462080D01*
X463182Y457605D01*
X464026Y458449D01*
X464483Y459552D01*
Y460745D01*
X464026Y461848D01*
X463182Y462692D01*
X462080Y463149D01*
D02*
G37*
G36*
X315597Y463000D02*
X314403D01*
X313301Y462543D01*
X312457Y461699D01*
X312000Y460597D01*
Y459403D01*
X312457Y458301D01*
X313301Y457457D01*
X314403Y457000D01*
X315597D01*
X316699Y457457D01*
X317543Y458301D01*
X318000Y459403D01*
Y460597D01*
X317543Y461699D01*
X316699Y462543D01*
X315597Y463000D01*
D02*
G37*
G36*
X438543Y462481D02*
X437349D01*
X436246Y462024D01*
X435403Y461180D01*
X434946Y460078D01*
Y458884D01*
X435403Y457781D01*
X436246Y456937D01*
X437349Y456481D01*
X438543D01*
X439645Y456937D01*
X440489Y457781D01*
X440946Y458884D01*
Y460078D01*
X440489Y461180D01*
X439645Y462024D01*
X438543Y462481D01*
D02*
G37*
G36*
X517640Y461394D02*
X516446D01*
X515343Y460938D01*
X514500Y460094D01*
X514043Y458991D01*
Y457798D01*
X514500Y456695D01*
X515343Y455851D01*
X516446Y455394D01*
X517640D01*
X518742Y455851D01*
X519586Y456695D01*
X520043Y457798D01*
Y458991D01*
X519586Y460094D01*
X518742Y460938D01*
X517640Y461394D01*
D02*
G37*
G36*
X577076Y459118D02*
X575883D01*
X574780Y458661D01*
X573936Y457817D01*
X573480Y456715D01*
Y455521D01*
X573936Y454418D01*
X574780Y453574D01*
X575883Y453118D01*
X577076D01*
X578179Y453574D01*
X579023Y454418D01*
X579480Y455521D01*
Y456715D01*
X579023Y457817D01*
X578179Y458661D01*
X577076Y459118D01*
D02*
G37*
G36*
X512484Y455734D02*
X511291D01*
X510188Y455277D01*
X509344Y454433D01*
X508888Y453331D01*
Y452137D01*
X509344Y451035D01*
X510188Y450191D01*
X511291Y449734D01*
X512484D01*
X513587Y450191D01*
X514431Y451035D01*
X514888Y452137D01*
Y453331D01*
X514431Y454433D01*
X513587Y455277D01*
X512484Y455734D01*
D02*
G37*
G36*
X462179Y455360D02*
X460986D01*
X459883Y454903D01*
X459039Y454060D01*
X458583Y452957D01*
Y451763D01*
X459039Y450661D01*
X459883Y449817D01*
X460986Y449360D01*
X462179D01*
X463282Y449817D01*
X464126Y450661D01*
X464583Y451763D01*
Y452957D01*
X464126Y454060D01*
X463282Y454903D01*
X462179Y455360D01*
D02*
G37*
G36*
X422033Y455066D02*
X420839D01*
X419737Y454609D01*
X418893Y453766D01*
X418436Y452663D01*
Y451469D01*
X418893Y450367D01*
X419737Y449523D01*
X420839Y449066D01*
X422033D01*
X423135Y449523D01*
X423979Y450367D01*
X424436Y451469D01*
Y452663D01*
X423979Y453766D01*
X423135Y454609D01*
X422033Y455066D01*
D02*
G37*
G36*
X386175Y448549D02*
X384982D01*
X383879Y448092D01*
X383035Y447248D01*
X382578Y446145D01*
Y444952D01*
X383035Y443849D01*
X383879Y443005D01*
X384982Y442548D01*
X386175D01*
X387278Y443005D01*
X388122Y443849D01*
X388578Y444952D01*
Y446145D01*
X388122Y447248D01*
X387278Y448092D01*
X386175Y448549D01*
D02*
G37*
G36*
X352907Y448000D02*
X351713D01*
X350611Y447543D01*
X349767Y446699D01*
X349310Y445597D01*
Y444403D01*
X349767Y443301D01*
X350611Y442457D01*
X351713Y442000D01*
X352907D01*
X354009Y442457D01*
X354853Y443301D01*
X355310Y444403D01*
Y445597D01*
X354853Y446699D01*
X354009Y447543D01*
X352907Y448000D01*
D02*
G37*
G36*
X295025Y447993D02*
X293832D01*
X292729Y447536D01*
X291885Y446692D01*
X291428Y445590D01*
Y444396D01*
X291885Y443294D01*
X292729Y442450D01*
X293832Y441993D01*
X295025D01*
X296128Y442450D01*
X296972Y443294D01*
X297428Y444396D01*
Y445590D01*
X296972Y446692D01*
X296128Y447536D01*
X295025Y447993D01*
D02*
G37*
G36*
X421927Y447140D02*
X420733D01*
X419631Y446683D01*
X418787Y445839D01*
X418330Y444736D01*
Y443543D01*
X418787Y442440D01*
X419631Y441596D01*
X420733Y441139D01*
X421927D01*
X423029Y441596D01*
X423873Y442440D01*
X424330Y443543D01*
Y444736D01*
X423873Y445839D01*
X423029Y446683D01*
X421927Y447140D01*
D02*
G37*
G36*
X260458Y447111D02*
X259265D01*
X258162Y446655D01*
X257318Y445811D01*
X256861Y444708D01*
Y443515D01*
X257318Y442412D01*
X258162Y441568D01*
X259265Y441111D01*
X260458D01*
X261561Y441568D01*
X262405Y442412D01*
X262861Y443515D01*
Y444708D01*
X262405Y445811D01*
X261561Y446655D01*
X260458Y447111D01*
D02*
G37*
G36*
X336607Y444559D02*
X335414D01*
X334311Y444102D01*
X333467Y443258D01*
X333011Y442156D01*
Y440962D01*
X333467Y439860D01*
X334311Y439016D01*
X335414Y438559D01*
X336607D01*
X337710Y439016D01*
X338554Y439860D01*
X339011Y440962D01*
Y442156D01*
X338554Y443258D01*
X337710Y444102D01*
X336607Y444559D01*
D02*
G37*
G36*
X519195Y444045D02*
X518002D01*
X516899Y443589D01*
X516055Y442745D01*
X515599Y441642D01*
Y440449D01*
X516055Y439346D01*
X516899Y438502D01*
X518002Y438046D01*
X519195D01*
X520298Y438502D01*
X521142Y439346D01*
X521599Y440449D01*
Y441642D01*
X521142Y442745D01*
X520298Y443589D01*
X519195Y444045D01*
D02*
G37*
G36*
X468621Y443889D02*
X467428D01*
X466325Y443433D01*
X465481Y442589D01*
X465024Y441486D01*
Y440293D01*
X465481Y439190D01*
X466325Y438346D01*
X467428Y437889D01*
X468621D01*
X469724Y438346D01*
X470568Y439190D01*
X471024Y440293D01*
Y441486D01*
X470568Y442589D01*
X469724Y443433D01*
X468621Y443889D01*
D02*
G37*
G36*
X507771Y443502D02*
X506577D01*
X505475Y443046D01*
X504631Y442202D01*
X504174Y441099D01*
Y439906D01*
X504631Y438803D01*
X505475Y437959D01*
X506577Y437502D01*
X507771D01*
X508874Y437959D01*
X509717Y438803D01*
X510174Y439906D01*
Y441099D01*
X509717Y442202D01*
X508874Y443046D01*
X507771Y443502D01*
D02*
G37*
G36*
X365699Y442295D02*
X364505D01*
X363402Y441838D01*
X362559Y440994D01*
X362102Y439892D01*
Y438698D01*
X362559Y437595D01*
X363402Y436752D01*
X364505Y436295D01*
X365699D01*
X366801Y436752D01*
X367645Y437595D01*
X368102Y438698D01*
Y439892D01*
X367645Y440994D01*
X366801Y441838D01*
X365699Y442295D01*
D02*
G37*
G36*
X347470Y440747D02*
X346277D01*
X345174Y440291D01*
X344330Y439447D01*
X343874Y438344D01*
Y437151D01*
X344330Y436048D01*
X345174Y435204D01*
X346277Y434747D01*
X347470D01*
X348573Y435204D01*
X349417Y436048D01*
X349874Y437151D01*
Y438344D01*
X349417Y439447D01*
X348573Y440291D01*
X347470Y440747D01*
D02*
G37*
G36*
X521471Y438405D02*
X520278D01*
X519175Y437949D01*
X518331Y437105D01*
X517875Y436002D01*
Y434809D01*
X518331Y433706D01*
X519175Y432862D01*
X520278Y432406D01*
X521471D01*
X522574Y432862D01*
X523418Y433706D01*
X523875Y434809D01*
Y436002D01*
X523418Y437105D01*
X522574Y437949D01*
X521471Y438405D01*
D02*
G37*
G36*
X471471D02*
X470278D01*
X469175Y437949D01*
X468331Y437105D01*
X467875Y436002D01*
Y434809D01*
X468331Y433706D01*
X469175Y432862D01*
X470278Y432406D01*
X471471D01*
X472574Y432862D01*
X473418Y433706D01*
X473875Y434809D01*
Y436002D01*
X473418Y437105D01*
X472574Y437949D01*
X471471Y438405D01*
D02*
G37*
G36*
X565597Y438000D02*
X564403D01*
X563301Y437543D01*
X562457Y436699D01*
X562000Y435597D01*
Y434403D01*
X562457Y433301D01*
X563301Y432457D01*
X564403Y432000D01*
X565597D01*
X566699Y432457D01*
X567543Y433301D01*
X568000Y434403D01*
Y435597D01*
X567543Y436699D01*
X566699Y437543D01*
X565597Y438000D01*
D02*
G37*
G36*
X385249Y440375D02*
X384056D01*
X382953Y439918D01*
X382109Y439074D01*
X381652Y437971D01*
Y436778D01*
X382109Y435675D01*
X382953Y434831D01*
X384056Y434375D01*
X385249D01*
X385312Y434401D01*
Y433371D01*
X385769Y432268D01*
X386612Y431424D01*
X387715Y430967D01*
X388909D01*
X390011Y431424D01*
X390855Y432268D01*
X391312Y433371D01*
Y434564D01*
X390855Y435667D01*
X390011Y436511D01*
X388909Y436968D01*
X387715D01*
X387652Y436941D01*
Y437971D01*
X387196Y439074D01*
X386352Y439918D01*
X385249Y440375D01*
D02*
G37*
G36*
X423721Y434649D02*
X422527D01*
X421424Y434192D01*
X420580Y433348D01*
X420124Y432246D01*
Y431052D01*
X420580Y429949D01*
X421424Y429106D01*
X422527Y428649D01*
X423721D01*
X424823Y429106D01*
X425667Y429949D01*
X426124Y431052D01*
Y432246D01*
X425667Y433348D01*
X424823Y434192D01*
X423721Y434649D01*
D02*
G37*
G36*
X336607Y434559D02*
X335414D01*
X334311Y434102D01*
X333467Y433258D01*
X333011Y432156D01*
Y430962D01*
X333467Y429860D01*
X334311Y429016D01*
X335414Y428559D01*
X336607D01*
X337710Y429016D01*
X338554Y429860D01*
X339011Y430962D01*
Y432156D01*
X338554Y433258D01*
X337710Y434102D01*
X336607Y434559D01*
D02*
G37*
G36*
X308980Y434459D02*
X307786D01*
X306684Y434002D01*
X305840Y433158D01*
X305383Y432055D01*
Y430862D01*
X305840Y429759D01*
X306684Y428915D01*
X307786Y428459D01*
X308980D01*
X310082Y428915D01*
X310926Y429759D01*
X311383Y430862D01*
Y432055D01*
X310926Y433158D01*
X310082Y434002D01*
X308980Y434459D01*
D02*
G37*
G36*
X258784Y433945D02*
X257591D01*
X256488Y433489D01*
X255644Y432645D01*
X255188Y431542D01*
Y430349D01*
X255644Y429246D01*
X256488Y428402D01*
X257591Y427945D01*
X258784D01*
X259887Y428402D01*
X260731Y429246D01*
X261188Y430349D01*
Y431542D01*
X260731Y432645D01*
X259887Y433489D01*
X258784Y433945D01*
D02*
G37*
G36*
X345347Y433753D02*
X344153D01*
X343051Y433296D01*
X342207Y432452D01*
X341750Y431349D01*
Y430156D01*
X342207Y429053D01*
X343051Y428209D01*
X344153Y427753D01*
X345347D01*
X346449Y428209D01*
X347293Y429053D01*
X347750Y430156D01*
Y431349D01*
X347293Y432452D01*
X346449Y433296D01*
X345347Y433753D01*
D02*
G37*
G36*
X374605Y432664D02*
X373412D01*
X372309Y432207D01*
X371465Y431363D01*
X371008Y430261D01*
Y429067D01*
X371465Y427965D01*
X372309Y427121D01*
X373412Y426664D01*
X374605D01*
X375708Y427121D01*
X376552Y427965D01*
X377009Y429067D01*
Y430261D01*
X376552Y431363D01*
X375708Y432207D01*
X374605Y432664D01*
D02*
G37*
G36*
X564476Y431333D02*
X563283D01*
X562180Y430876D01*
X561336Y430032D01*
X560880Y428929D01*
Y427736D01*
X561336Y426633D01*
X562180Y425789D01*
X563283Y425333D01*
X564476D01*
X565579Y425789D01*
X566423Y426633D01*
X566880Y427736D01*
Y428929D01*
X566423Y430032D01*
X565579Y430876D01*
X564476Y431333D01*
D02*
G37*
G36*
X576643Y431280D02*
X575450D01*
X574347Y430824D01*
X573503Y429980D01*
X573046Y428877D01*
Y427683D01*
X573503Y426581D01*
X574347Y425737D01*
X575450Y425280D01*
X576643D01*
X577746Y425737D01*
X578590Y426581D01*
X579047Y427683D01*
Y428877D01*
X578590Y429980D01*
X577746Y430824D01*
X576643Y431280D01*
D02*
G37*
G36*
X594844Y429784D02*
X593650D01*
X592547Y429328D01*
X591704Y428484D01*
X591247Y427381D01*
Y426187D01*
X591704Y425085D01*
X592547Y424241D01*
X593650Y423784D01*
X594844D01*
X595946Y424241D01*
X596790Y425085D01*
X597247Y426187D01*
Y427381D01*
X596790Y428484D01*
X595946Y429328D01*
X594844Y429784D01*
D02*
G37*
G36*
X521471Y427594D02*
X520278D01*
X519175Y427138D01*
X518331Y426294D01*
X517875Y425191D01*
Y423998D01*
X518331Y422895D01*
X519175Y422051D01*
X520278Y421595D01*
X521471D01*
X522574Y422051D01*
X523418Y422895D01*
X523875Y423998D01*
Y425191D01*
X523418Y426294D01*
X522574Y427138D01*
X521471Y427594D01*
D02*
G37*
G36*
X574457Y425531D02*
X573264D01*
X572161Y425074D01*
X571317Y424230D01*
X570860Y423127D01*
Y421934D01*
X571317Y420831D01*
X572161Y419987D01*
X573264Y419530D01*
X574457D01*
X575560Y419987D01*
X576404Y420831D01*
X576860Y421934D01*
Y423127D01*
X576404Y424230D01*
X575560Y425074D01*
X574457Y425531D01*
D02*
G37*
G36*
X471636Y427710D02*
X470443D01*
X469340Y427253D01*
X468496Y426409D01*
X468040Y425307D01*
Y424113D01*
X468435Y423159D01*
X467443D01*
X466341Y422702D01*
X465497Y421858D01*
X465040Y420756D01*
Y419562D01*
X465497Y418460D01*
X466341Y417616D01*
X467443Y417159D01*
X468637D01*
X469739Y417616D01*
X470583Y418460D01*
X471040Y419562D01*
Y420756D01*
X470645Y421710D01*
X471636D01*
X472739Y422167D01*
X473583Y423011D01*
X474039Y424113D01*
Y425307D01*
X473583Y426409D01*
X472739Y427253D01*
X471636Y427710D01*
D02*
G37*
G36*
X484383Y422773D02*
X483189D01*
X482087Y422317D01*
X481243Y421473D01*
X480786Y420370D01*
Y419177D01*
X481243Y418074D01*
X482087Y417230D01*
X483189Y416773D01*
X484383D01*
X485485Y417230D01*
X486329Y418074D01*
X486786Y419177D01*
Y420370D01*
X486329Y421473D01*
X485485Y422317D01*
X484383Y422773D01*
D02*
G37*
G36*
X533957Y422762D02*
X532764D01*
X531661Y422305D01*
X530817Y421461D01*
X530360Y420359D01*
Y419165D01*
X530817Y418062D01*
X531661Y417219D01*
X532764Y416762D01*
X533957D01*
X535060Y417219D01*
X535904Y418062D01*
X536360Y419165D01*
Y420359D01*
X535904Y421461D01*
X535060Y422305D01*
X533957Y422762D01*
D02*
G37*
G36*
X507438Y421620D02*
X506244D01*
X505142Y421164D01*
X504298Y420320D01*
X503841Y419217D01*
Y418024D01*
X504298Y416921D01*
X505142Y416077D01*
X506244Y415620D01*
X507438D01*
X508540Y416077D01*
X509384Y416921D01*
X509841Y418024D01*
Y419217D01*
X509384Y420320D01*
X508540Y421164D01*
X507438Y421620D01*
D02*
G37*
G36*
X519139Y421535D02*
X517946D01*
X516843Y421078D01*
X515999Y420234D01*
X515542Y419132D01*
Y417938D01*
X515999Y416836D01*
X516843Y415992D01*
X517946Y415535D01*
X519139D01*
X520242Y415992D01*
X521086Y416836D01*
X521542Y417938D01*
Y419132D01*
X521086Y420234D01*
X520242Y421078D01*
X519139Y421535D01*
D02*
G37*
G36*
X458418Y421500D02*
X457225D01*
X456122Y421043D01*
X455278Y420199D01*
X454822Y419097D01*
Y417903D01*
X455278Y416801D01*
X456122Y415957D01*
X457225Y415500D01*
X458418D01*
X459521Y415957D01*
X460365Y416801D01*
X460821Y417903D01*
Y419097D01*
X460365Y420199D01*
X459521Y421043D01*
X458418Y421500D01*
D02*
G37*
G36*
X345347Y421397D02*
X344153D01*
X343051Y420941D01*
X342207Y420097D01*
X341750Y418994D01*
Y417801D01*
X342207Y416698D01*
X343051Y415854D01*
X344153Y415397D01*
X345347D01*
X346449Y415854D01*
X347293Y416698D01*
X347750Y417801D01*
Y418994D01*
X347293Y420097D01*
X346449Y420941D01*
X345347Y421397D01*
D02*
G37*
G36*
X426597Y418250D02*
X425403D01*
X424301Y417793D01*
X423457Y416949D01*
X423000Y415847D01*
Y414653D01*
X423457Y413551D01*
X424301Y412707D01*
X425403Y412250D01*
X426597D01*
X427699Y412707D01*
X428543Y413551D01*
X429000Y414653D01*
Y415847D01*
X428543Y416949D01*
X427699Y417793D01*
X426597Y418250D01*
D02*
G37*
G36*
X345347Y415000D02*
X344153D01*
X343051Y414543D01*
X342207Y413699D01*
X341750Y412597D01*
Y411403D01*
X342207Y410301D01*
X343051Y409457D01*
X344153Y409000D01*
X345347D01*
X346449Y409457D01*
X347293Y410301D01*
X347750Y411403D01*
Y412597D01*
X347293Y413699D01*
X346449Y414543D01*
X345347Y415000D01*
D02*
G37*
G36*
X308980Y414459D02*
X307786D01*
X306684Y414002D01*
X305840Y413158D01*
X305383Y412055D01*
Y410862D01*
X305840Y409759D01*
X306684Y408915D01*
X307786Y408459D01*
X308980D01*
X310082Y408915D01*
X310926Y409759D01*
X311383Y410862D01*
Y412055D01*
X310926Y413158D01*
X310082Y414002D01*
X308980Y414459D01*
D02*
G37*
G36*
X545597Y411363D02*
X544403D01*
X543301Y410906D01*
X542457Y410062D01*
X542000Y408960D01*
Y407766D01*
X542457Y406664D01*
X543301Y405820D01*
X544403Y405363D01*
X545597D01*
X546699Y405820D01*
X547543Y406664D01*
X548000Y407766D01*
Y408960D01*
X547543Y410062D01*
X546699Y410906D01*
X545597Y411363D01*
D02*
G37*
G36*
X322283Y410756D02*
X321089D01*
X319986Y410300D01*
X319143Y409456D01*
X318686Y408353D01*
Y407160D01*
X319143Y406057D01*
X319986Y405213D01*
X321089Y404756D01*
X322283D01*
X323385Y405213D01*
X324229Y406057D01*
X324686Y407160D01*
Y408353D01*
X324229Y409456D01*
X323385Y410300D01*
X322283Y410756D01*
D02*
G37*
G36*
X277583Y410666D02*
X276390D01*
X275287Y410209D01*
X274443Y409365D01*
X273987Y408262D01*
Y407069D01*
X274443Y405966D01*
X275287Y405122D01*
X276390Y404666D01*
X277583D01*
X278686Y405122D01*
X279530Y405966D01*
X279987Y407069D01*
Y408262D01*
X279530Y409365D01*
X278686Y410209D01*
X277583Y410666D01*
D02*
G37*
G36*
X353778Y406829D02*
X352585D01*
X351482Y406372D01*
X350638Y405528D01*
X350181Y404425D01*
Y403232D01*
X350638Y402129D01*
X351482Y401285D01*
X352585Y400829D01*
X353778D01*
X354881Y401285D01*
X355725Y402129D01*
X356181Y403232D01*
Y404425D01*
X355725Y405528D01*
X354881Y406372D01*
X353778Y406829D01*
D02*
G37*
G36*
X576582Y405804D02*
X575389D01*
X574286Y405347D01*
X573442Y404503D01*
X572986Y403400D01*
Y402207D01*
X573442Y401104D01*
X574286Y400261D01*
X575389Y399804D01*
X576582D01*
X576814Y399900D01*
Y398891D01*
X576825Y398863D01*
X576397Y399040D01*
X575204D01*
X574101Y398584D01*
X573257Y397740D01*
X572800Y396637D01*
Y395444D01*
X573257Y394341D01*
X574101Y393497D01*
X575204Y393040D01*
X576397D01*
X577500Y393497D01*
X578344Y394341D01*
X578800Y395444D01*
Y396637D01*
X578789Y396665D01*
X579217Y396488D01*
X580106D01*
Y395352D01*
X580563Y394250D01*
X581407Y393406D01*
X582509Y392949D01*
X583703D01*
X584805Y393406D01*
X585649Y394250D01*
X586106Y395352D01*
Y396546D01*
X585649Y397649D01*
X584805Y398492D01*
X583703Y398949D01*
X582814D01*
Y399771D01*
X582854Y399754D01*
X584048D01*
X585150Y400211D01*
X585994Y401055D01*
X586451Y402157D01*
Y403351D01*
X585994Y404453D01*
X585150Y405297D01*
X584048Y405754D01*
X582854D01*
X581752Y405297D01*
X580908Y404453D01*
X580451Y403351D01*
Y402471D01*
X580410Y402488D01*
X579217D01*
X578986Y402392D01*
Y403400D01*
X578529Y404503D01*
X577685Y405347D01*
X576582Y405804D01*
D02*
G37*
G36*
X525597Y392634D02*
X524403D01*
X523301Y392177D01*
X522457Y391333D01*
X522000Y390231D01*
Y389037D01*
X522457Y387935D01*
X523301Y387091D01*
X524403Y386634D01*
X525597D01*
X526699Y387091D01*
X527543Y387935D01*
X528000Y389037D01*
Y390231D01*
X527543Y391333D01*
X526699Y392177D01*
X525597Y392634D01*
D02*
G37*
G36*
X391806Y390204D02*
X390612D01*
X389510Y389748D01*
X388666Y388904D01*
X388209Y387801D01*
Y386608D01*
X388666Y385505D01*
X389510Y384661D01*
X390612Y384204D01*
X391806D01*
X392908Y384661D01*
X393752Y385505D01*
X394209Y386608D01*
Y387801D01*
X393752Y388904D01*
X392908Y389748D01*
X391806Y390204D01*
D02*
G37*
G36*
X455961Y383577D02*
X454767D01*
X453665Y383120D01*
X452821Y382276D01*
X452364Y381174D01*
Y379980D01*
X452821Y378877D01*
X453665Y378033D01*
X454767Y377577D01*
X455961D01*
X457063Y378033D01*
X457636Y378606D01*
X458307Y377935D01*
X459409Y377479D01*
X460603D01*
X461706Y377935D01*
X462550Y378779D01*
X463006Y379882D01*
Y381076D01*
X462550Y382178D01*
X461706Y383022D01*
X460603Y383479D01*
X459409D01*
X458307Y383022D01*
X457734Y382449D01*
X457063Y383120D01*
X455961Y383577D01*
D02*
G37*
G36*
X391941Y382741D02*
X390748D01*
X389645Y382284D01*
X388801Y381440D01*
X388344Y380338D01*
Y379144D01*
X388801Y378042D01*
X389645Y377198D01*
X390748Y376741D01*
X391941D01*
X393044Y377198D01*
X393888Y378042D01*
X394344Y379144D01*
Y380338D01*
X393888Y381440D01*
X393044Y382284D01*
X391941Y382741D01*
D02*
G37*
G36*
X565608Y378000D02*
X564414D01*
X563312Y377543D01*
X562468Y376699D01*
X562011Y375597D01*
Y374403D01*
X562468Y373301D01*
X563312Y372457D01*
X564414Y372000D01*
X565608D01*
X566710Y372457D01*
X567554Y373301D01*
X568011Y374403D01*
Y375597D01*
X567554Y376699D01*
X566710Y377543D01*
X565608Y378000D01*
D02*
G37*
G36*
X365597D02*
X364403D01*
X363301Y377543D01*
X362457Y376699D01*
X362000Y375597D01*
Y374403D01*
X362457Y373301D01*
X363301Y372457D01*
X364403Y372000D01*
X365597D01*
X366699Y372457D01*
X367543Y373301D01*
X368000Y374403D01*
Y375597D01*
X367543Y376699D01*
X366699Y377543D01*
X365597Y378000D01*
D02*
G37*
G36*
X412156Y377135D02*
X410963D01*
X409860Y376679D01*
X409016Y375835D01*
X408559Y374732D01*
Y373539D01*
X409016Y372436D01*
X409860Y371592D01*
X410963Y371135D01*
X412156D01*
X413259Y371592D01*
X414103Y372436D01*
X414560Y373539D01*
Y374732D01*
X414103Y375835D01*
X413259Y376679D01*
X412156Y377135D01*
D02*
G37*
G36*
X526553Y376662D02*
X525359D01*
X524257Y376205D01*
X523413Y375361D01*
X522956Y374259D01*
Y373065D01*
X523413Y371963D01*
X524257Y371119D01*
X525359Y370662D01*
X526553D01*
X527655Y371119D01*
X528499Y371963D01*
X528956Y373065D01*
Y374259D01*
X528499Y375361D01*
X527655Y376205D01*
X526553Y376662D01*
D02*
G37*
G36*
X455958Y376581D02*
X454765D01*
X453662Y376124D01*
X452818Y375280D01*
X452362Y374177D01*
Y372984D01*
X452818Y371881D01*
X453662Y371037D01*
X454765Y370581D01*
X455958D01*
X457061Y371037D01*
X457905Y371881D01*
X458362Y372984D01*
Y374177D01*
X457905Y375280D01*
X457061Y376124D01*
X455958Y376581D01*
D02*
G37*
G36*
X436893Y376494D02*
X435699D01*
X434597Y376038D01*
X433753Y375194D01*
X433296Y374091D01*
Y372898D01*
X433753Y371795D01*
X434597Y370951D01*
X435699Y370494D01*
X436893D01*
X437995Y370951D01*
X438839Y371795D01*
X439296Y372898D01*
Y374091D01*
X438839Y375194D01*
X437995Y376038D01*
X436893Y376494D01*
D02*
G37*
G36*
X334346Y374251D02*
X333152D01*
X332050Y373794D01*
X331206Y372950D01*
X330749Y371848D01*
Y370654D01*
X331206Y369552D01*
X332050Y368708D01*
X333152Y368251D01*
X334346D01*
X335448Y368708D01*
X336292Y369552D01*
X336749Y370654D01*
Y371848D01*
X336292Y372950D01*
X335448Y373794D01*
X334346Y374251D01*
D02*
G37*
G36*
X533452Y373300D02*
X532259D01*
X531156Y372844D01*
X530312Y372000D01*
X529855Y370897D01*
Y369704D01*
X530312Y368601D01*
X531156Y367757D01*
X532259Y367300D01*
X533452D01*
X534555Y367757D01*
X535399Y368601D01*
X535855Y369704D01*
Y370897D01*
X535399Y372000D01*
X534555Y372844D01*
X533452Y373300D01*
D02*
G37*
G36*
X320597Y372550D02*
X319403D01*
X318301Y372093D01*
X317457Y371249D01*
X317000Y370146D01*
Y368953D01*
X317457Y367850D01*
X318301Y367006D01*
X319403Y366549D01*
X320597D01*
X321699Y367006D01*
X322543Y367850D01*
X323000Y368953D01*
Y370146D01*
X322543Y371249D01*
X321699Y372093D01*
X320597Y372550D01*
D02*
G37*
G36*
X389435Y371903D02*
X388241D01*
X387138Y371446D01*
X386295Y370602D01*
X385838Y369500D01*
Y368306D01*
X386295Y367204D01*
X387138Y366360D01*
X388241Y365903D01*
X389435D01*
X390537Y366360D01*
X391381Y367204D01*
X391838Y368306D01*
Y369500D01*
X391381Y370602D01*
X390537Y371446D01*
X389435Y371903D01*
D02*
G37*
G36*
X564079Y370766D02*
X562886D01*
X561783Y370310D01*
X560939Y369466D01*
X560482Y368363D01*
Y367170D01*
X560939Y366067D01*
X561783Y365223D01*
X562886Y364766D01*
X564079D01*
X565182Y365223D01*
X566026Y366067D01*
X566482Y367170D01*
Y368363D01*
X566026Y369466D01*
X565182Y370310D01*
X564079Y370766D01*
D02*
G37*
G36*
X456909Y369516D02*
X455716D01*
X454613Y369059D01*
X453769Y368215D01*
X453312Y367113D01*
Y365919D01*
X453769Y364817D01*
X454613Y363973D01*
X455716Y363516D01*
X456909D01*
X458012Y363973D01*
X458856Y364817D01*
X459312Y365919D01*
Y367113D01*
X458856Y368215D01*
X458012Y369059D01*
X456909Y369516D01*
D02*
G37*
G36*
X532340Y363367D02*
X531147D01*
X530044Y362910D01*
X529200Y362066D01*
X528809Y361122D01*
X528570Y361699D01*
X527726Y362543D01*
X526623Y363000D01*
X525430D01*
X524327Y362543D01*
X523483Y361699D01*
X523027Y360597D01*
Y359403D01*
X523483Y358301D01*
X524327Y357457D01*
X525430Y357000D01*
X526623D01*
X527726Y357457D01*
X528570Y358301D01*
X528961Y359245D01*
X529200Y358667D01*
X530044Y357824D01*
X531147Y357367D01*
X532340D01*
X533443Y357824D01*
X534286Y358667D01*
X534743Y359770D01*
Y360964D01*
X534286Y362066D01*
X533443Y362910D01*
X532340Y363367D01*
D02*
G37*
G36*
X366680Y359668D02*
X365487D01*
X364384Y359211D01*
X363540Y358367D01*
X363083Y357264D01*
Y356071D01*
X363540Y354968D01*
X364384Y354124D01*
X365487Y353668D01*
X366680D01*
X367783Y354124D01*
X368627Y354968D01*
X369083Y356071D01*
Y357264D01*
X368627Y358367D01*
X367783Y359211D01*
X366680Y359668D01*
D02*
G37*
G36*
X574249Y364879D02*
X573055D01*
X571952Y364422D01*
X571109Y363579D01*
X570652Y362476D01*
Y361283D01*
X571109Y360180D01*
X571952Y359336D01*
X573055Y358879D01*
X573667D01*
X573013Y358226D01*
X572556Y357123D01*
Y355929D01*
X573013Y354827D01*
X573857Y353983D01*
X574959Y353526D01*
X576153D01*
X577256Y353983D01*
X578099Y354827D01*
X578556Y355929D01*
Y357123D01*
X578099Y358226D01*
X577256Y359069D01*
X576153Y359526D01*
X575541D01*
X576195Y360180D01*
X576652Y361283D01*
Y362476D01*
X576195Y363579D01*
X575351Y364422D01*
X574249Y364879D01*
D02*
G37*
G36*
X381070Y358000D02*
X379876D01*
X378774Y357543D01*
X377930Y356699D01*
X377473Y355597D01*
Y354403D01*
X377930Y353301D01*
X378774Y352457D01*
X379876Y352000D01*
X381070D01*
X382172Y352457D01*
X383016Y353301D01*
X383473Y354403D01*
Y355597D01*
X383016Y356699D01*
X382172Y357543D01*
X381070Y358000D01*
D02*
G37*
G36*
X405536Y356811D02*
X404342D01*
X403240Y356355D01*
X402396Y355511D01*
X401939Y354408D01*
Y353215D01*
X402396Y352112D01*
X403240Y351268D01*
X404342Y350812D01*
X405536D01*
X406638Y351268D01*
X407482Y352112D01*
X407939Y353215D01*
Y354408D01*
X407482Y355511D01*
X406638Y356355D01*
X405536Y356811D01*
D02*
G37*
G36*
X516337Y355670D02*
X515143D01*
X514041Y355213D01*
X513197Y354369D01*
X512740Y353266D01*
Y352073D01*
X513197Y350970D01*
X514041Y350126D01*
X515143Y349670D01*
X516337D01*
X517439Y350126D01*
X518283Y350970D01*
X518740Y352073D01*
Y353266D01*
X518283Y354369D01*
X517439Y355213D01*
X516337Y355670D01*
D02*
G37*
G36*
X424711Y345286D02*
X422721D01*
X420884Y344525D01*
X419477Y343119D01*
X418716Y341281D01*
Y339292D01*
X419477Y337454D01*
X420884Y336048D01*
X422721Y335286D01*
X424711D01*
X426548Y336048D01*
X427955Y337454D01*
X428716Y339292D01*
Y341281D01*
X427955Y343119D01*
X426548Y344525D01*
X424711Y345286D01*
D02*
G37*
G36*
X440836Y345243D02*
X438847D01*
X437009Y344481D01*
X435602Y343075D01*
X434841Y341237D01*
Y339248D01*
X435602Y337410D01*
X437009Y336004D01*
X438847Y335243D01*
X440836D01*
X442673Y336004D01*
X444080Y337410D01*
X444841Y339248D01*
Y341237D01*
X444080Y343075D01*
X442673Y344481D01*
X440836Y345243D01*
D02*
G37*
G36*
X454219Y333700D02*
X453025D01*
X451922Y333243D01*
X451079Y332399D01*
X450622Y331297D01*
Y330103D01*
X451079Y329000D01*
X451922Y328157D01*
X453025Y327700D01*
X454219D01*
X455321Y328157D01*
X456165Y329000D01*
X456622Y330103D01*
Y331297D01*
X456165Y332399D01*
X455321Y333243D01*
X454219Y333700D01*
D02*
G37*
G36*
X593405Y332975D02*
X591415D01*
X589578Y332214D01*
X588171Y330807D01*
X587410Y328970D01*
Y326981D01*
X588171Y325143D01*
X589578Y323736D01*
X591415Y322975D01*
X593405D01*
X595242Y323736D01*
X596649Y325143D01*
X597410Y326981D01*
Y328970D01*
X596649Y330807D01*
X595242Y332214D01*
X593405Y332975D01*
D02*
G37*
G36*
X557115Y328364D02*
X555922D01*
X554819Y327907D01*
X553975Y327063D01*
X553518Y325961D01*
Y324767D01*
X553975Y323665D01*
X554819Y322821D01*
X555922Y322364D01*
X557115D01*
X558218Y322821D01*
X559062Y323665D01*
X559518Y324767D01*
Y325961D01*
X559062Y327063D01*
X558218Y327907D01*
X557115Y328364D01*
D02*
G37*
G36*
X341712Y326651D02*
X340518D01*
X339416Y326194D01*
X338572Y325350D01*
X338115Y324247D01*
Y323054D01*
X338572Y321951D01*
X339416Y321107D01*
X340518Y320651D01*
X341712D01*
X342814Y321107D01*
X343658Y321951D01*
X344115Y323054D01*
Y324247D01*
X343658Y325350D01*
X342814Y326194D01*
X341712Y326651D01*
D02*
G37*
G36*
X560378Y320586D02*
X559185D01*
X558082Y320130D01*
X557239Y319286D01*
X556782Y318183D01*
Y316990D01*
X557239Y315887D01*
X558082Y315043D01*
X559185Y314586D01*
X560378D01*
X561481Y315043D01*
X562325Y315887D01*
X562782Y316990D01*
Y318183D01*
X562325Y319286D01*
X561481Y320130D01*
X560378Y320586D01*
D02*
G37*
G36*
X315594Y325500D02*
X313406D01*
X311385Y324663D01*
X309837Y323116D01*
X309000Y321094D01*
Y318906D01*
X309837Y316884D01*
X311385Y315337D01*
X313406Y314500D01*
X315594D01*
X317616Y315337D01*
X319163Y316884D01*
X320000Y318906D01*
Y321094D01*
X319163Y323116D01*
X317616Y324663D01*
X315594Y325500D01*
D02*
G37*
G36*
X570735Y315317D02*
X569542D01*
X568439Y314860D01*
X567595Y314016D01*
X567139Y312914D01*
Y311720D01*
X567595Y310618D01*
X568439Y309774D01*
X569542Y309317D01*
X570735D01*
X571838Y309774D01*
X572682Y310618D01*
X573139Y311720D01*
Y312914D01*
X572682Y314016D01*
X571838Y314860D01*
X570735Y315317D01*
D02*
G37*
G36*
X441653Y312283D02*
X440460D01*
X439357Y311827D01*
X438513Y310983D01*
X438056Y309880D01*
Y308687D01*
X438513Y307584D01*
X439357Y306740D01*
X440460Y306283D01*
X441653D01*
X442756Y306740D01*
X443600Y307584D01*
X444056Y308687D01*
Y309880D01*
X443600Y310983D01*
X442756Y311827D01*
X441653Y312283D01*
D02*
G37*
G36*
X386635Y312022D02*
X385442D01*
X384339Y311566D01*
X383495Y310722D01*
X383038Y309619D01*
Y308426D01*
X383495Y307323D01*
X384339Y306479D01*
X385442Y306022D01*
X386635D01*
X387738Y306479D01*
X388582Y307323D01*
X389038Y308426D01*
Y309619D01*
X388582Y310722D01*
X387738Y311566D01*
X386635Y312022D01*
D02*
G37*
G36*
X366220D02*
X365026D01*
X363923Y311566D01*
X363079Y310722D01*
X362623Y309619D01*
Y308426D01*
X363079Y307323D01*
X363923Y306479D01*
X365026Y306022D01*
X366220D01*
X367322Y306479D01*
X368166Y307323D01*
X368623Y308426D01*
Y309619D01*
X368166Y310722D01*
X367322Y311566D01*
X366220Y312022D01*
D02*
G37*
G36*
X593584Y315865D02*
X591595D01*
X589757Y315104D01*
X588350Y313697D01*
X587589Y311860D01*
Y309871D01*
X588350Y308033D01*
X589757Y306626D01*
X591595Y305865D01*
X593584D01*
X595421Y306626D01*
X596828Y308033D01*
X597589Y309871D01*
Y311860D01*
X596828Y313697D01*
X595421Y315104D01*
X593584Y315865D01*
D02*
G37*
G36*
X350148Y311847D02*
X348954D01*
X347852Y311391D01*
X347008Y310547D01*
X346551Y309444D01*
Y308251D01*
X347008Y307148D01*
X347852Y306304D01*
X348954Y305847D01*
X350148D01*
X351250Y306304D01*
X352094Y307148D01*
X352551Y308251D01*
Y309444D01*
X352094Y310547D01*
X351250Y311391D01*
X350148Y311847D01*
D02*
G37*
G36*
X488967Y311719D02*
X487773D01*
X486671Y311262D01*
X485827Y310419D01*
X485370Y309316D01*
Y308123D01*
X485827Y307020D01*
X486671Y306176D01*
X487773Y305719D01*
X488967D01*
X490070Y306176D01*
X490570Y306676D01*
X491183Y306063D01*
X492286Y305606D01*
X493479D01*
X494582Y306063D01*
X495426Y306906D01*
X495882Y308009D01*
Y309203D01*
X495426Y310305D01*
X494582Y311149D01*
X493479Y311606D01*
X492286D01*
X491183Y311149D01*
X490683Y310649D01*
X490070Y311262D01*
X488967Y311719D01*
D02*
G37*
G36*
X545597Y308000D02*
X544403D01*
X543301Y307543D01*
X542457Y306699D01*
X542000Y305597D01*
Y304403D01*
X542457Y303301D01*
X543301Y302457D01*
X544403Y302000D01*
X545597D01*
X546699Y302457D01*
X547543Y303301D01*
X548000Y304403D01*
Y305597D01*
X547543Y306699D01*
X546699Y307543D01*
X545597Y308000D01*
D02*
G37*
G36*
X490347Y303000D02*
X489153D01*
X488051Y302543D01*
X487207Y301699D01*
X486750Y300597D01*
Y299403D01*
X487207Y298301D01*
X488051Y297457D01*
X489153Y297000D01*
X490347D01*
X491449Y297457D01*
X492293Y298301D01*
X492750Y299403D01*
Y300597D01*
X492293Y301699D01*
X491449Y302543D01*
X490347Y303000D01*
D02*
G37*
G36*
X470847D02*
X469653D01*
X468551Y302543D01*
X467707Y301699D01*
X467250Y300597D01*
Y299403D01*
X467707Y298301D01*
X468551Y297457D01*
X469653Y297000D01*
X470847D01*
X471949Y297457D01*
X472793Y298301D01*
X473250Y299403D01*
Y300597D01*
X472793Y301699D01*
X471949Y302543D01*
X470847Y303000D01*
D02*
G37*
G36*
X315594Y305500D02*
X313406D01*
X311385Y304663D01*
X309837Y303116D01*
X309000Y301094D01*
Y298906D01*
X309837Y296884D01*
X311385Y295337D01*
X313406Y294500D01*
X315594D01*
X317616Y295337D01*
X319163Y296884D01*
X320000Y298906D01*
Y301094D01*
X319163Y303116D01*
X317616Y304663D01*
X315594Y305500D01*
D02*
G37*
G36*
X435995Y302874D02*
X434006D01*
X432168Y302113D01*
X430761Y300706D01*
X430000Y298869D01*
Y296879D01*
X430761Y295042D01*
X432168Y293635D01*
X434006Y292874D01*
X435995D01*
X437832Y293635D01*
X439239Y295042D01*
X440000Y296879D01*
Y298869D01*
X439239Y300706D01*
X437832Y302113D01*
X435995Y302874D01*
D02*
G37*
G36*
X490336Y296484D02*
X489142D01*
X488040Y296027D01*
X487196Y295183D01*
X486739Y294081D01*
Y292887D01*
X487196Y291784D01*
X488040Y290940D01*
X489142Y290484D01*
X490336D01*
X491439Y290940D01*
X492282Y291784D01*
X492739Y292887D01*
Y294081D01*
X492282Y295183D01*
X491439Y296027D01*
X490336Y296484D01*
D02*
G37*
G36*
X570218Y286080D02*
X569024D01*
X567921Y285623D01*
X567078Y284779D01*
X566621Y283676D01*
Y282483D01*
X567078Y281380D01*
X567921Y280536D01*
X569024Y280080D01*
X570218D01*
X571320Y280536D01*
X572164Y281380D01*
X572621Y282483D01*
Y283676D01*
X572164Y284779D01*
X571320Y285623D01*
X570218Y286080D01*
D02*
G37*
G36*
X547847Y285318D02*
X546653D01*
X545551Y284861D01*
X544707Y284018D01*
X544250Y282915D01*
Y281721D01*
X544707Y280619D01*
X545551Y279775D01*
X546653Y279318D01*
X547847D01*
X548949Y279775D01*
X549793Y280619D01*
X550250Y281721D01*
Y282915D01*
X549793Y284018D01*
X548949Y284861D01*
X547847Y285318D01*
D02*
G37*
G36*
X435951Y286749D02*
X433962D01*
X432124Y285988D01*
X430717Y284581D01*
X429956Y282743D01*
Y280754D01*
X430717Y278917D01*
X432124Y277510D01*
X433962Y276749D01*
X435951D01*
X437788Y277510D01*
X439195Y278917D01*
X439956Y280754D01*
Y282743D01*
X439195Y284581D01*
X437788Y285988D01*
X435951Y286749D01*
D02*
G37*
G36*
X531968Y282685D02*
X530774D01*
X529672Y282228D01*
X528828Y281384D01*
X528371Y280281D01*
Y279088D01*
X528828Y277985D01*
X529672Y277141D01*
X530774Y276685D01*
X531968D01*
X533071Y277141D01*
X533914Y277985D01*
X534371Y279088D01*
Y280281D01*
X533914Y281384D01*
X533071Y282228D01*
X531968Y282685D01*
D02*
G37*
G36*
X379380Y281190D02*
X378186D01*
X377083Y280733D01*
X376240Y279889D01*
X375783Y278787D01*
Y277593D01*
X376240Y276491D01*
X377083Y275647D01*
X378186Y275190D01*
X379380D01*
X380482Y275647D01*
X381326Y276491D01*
X381783Y277593D01*
Y278787D01*
X381326Y279889D01*
X380482Y280733D01*
X379380Y281190D01*
D02*
G37*
G36*
X593464Y284689D02*
X591474D01*
X589637Y283928D01*
X588230Y282521D01*
X587469Y280683D01*
Y278694D01*
X588230Y276857D01*
X589637Y275450D01*
X591474Y274689D01*
X593464D01*
X595301Y275450D01*
X596708Y276857D01*
X597469Y278694D01*
Y280683D01*
X596708Y282521D01*
X595301Y283928D01*
X593464Y284689D01*
D02*
G37*
G36*
X362756Y274562D02*
X361563D01*
X360460Y274106D01*
X359616Y273262D01*
X359160Y272159D01*
Y270966D01*
X359616Y269863D01*
X360460Y269019D01*
X361563Y268563D01*
X362756D01*
X363859Y269019D01*
X364703Y269863D01*
X365159Y270966D01*
Y272159D01*
X364703Y273262D01*
X363859Y274106D01*
X362756Y274562D01*
D02*
G37*
G36*
X490611Y272949D02*
X489418D01*
X488315Y272492D01*
X487472Y271648D01*
X487015Y270546D01*
Y269352D01*
X487472Y268250D01*
X488315Y267406D01*
X489418Y266949D01*
X490611D01*
X491714Y267406D01*
X492558Y268250D01*
X493015Y269352D01*
Y270546D01*
X492558Y271648D01*
X491714Y272492D01*
X490611Y272949D01*
D02*
G37*
G36*
X377417Y264629D02*
X376224D01*
X375121Y264172D01*
X374277Y263328D01*
X373821Y262226D01*
Y261032D01*
X374277Y259930D01*
X375121Y259086D01*
X376224Y258629D01*
X377417D01*
X378520Y259086D01*
X379364Y259930D01*
X379821Y261032D01*
Y262226D01*
X379364Y263328D01*
X378520Y264172D01*
X377417Y264629D01*
D02*
G37*
G36*
X360640Y264130D02*
X359446D01*
X358344Y263673D01*
X357500Y262829D01*
X357043Y261726D01*
Y260533D01*
X357500Y259430D01*
X358344Y258586D01*
X359446Y258130D01*
X360640D01*
X361742Y258586D01*
X362586Y259430D01*
X363043Y260533D01*
Y261726D01*
X362586Y262829D01*
X361742Y263673D01*
X360640Y264130D01*
D02*
G37*
G36*
X436018Y262843D02*
X434825D01*
X433722Y262386D01*
X432878Y261542D01*
X432421Y260440D01*
Y259246D01*
X432878Y258144D01*
X433722Y257299D01*
X434825Y256843D01*
X436018D01*
X437121Y257299D01*
X437965Y258144D01*
X438421Y259246D01*
Y260440D01*
X437965Y261542D01*
X437121Y262386D01*
X436018Y262843D01*
D02*
G37*
G36*
X267726Y274583D02*
X264574D01*
X261483Y273969D01*
X258571Y272763D01*
X255951Y271012D01*
X253722Y268783D01*
X251971Y266162D01*
X250765Y263251D01*
X250150Y260159D01*
Y257008D01*
X250765Y253916D01*
X251971Y251005D01*
X253722Y248384D01*
X255951Y246155D01*
X258571Y244405D01*
X261483Y243198D01*
X264574Y242584D01*
X267726D01*
X270817Y243198D01*
X273729Y244405D01*
X276349Y246155D01*
X278578Y248384D01*
X280329Y251005D01*
X281535Y253916D01*
X282150Y257008D01*
Y260159D01*
X281535Y263251D01*
X280329Y266162D01*
X278578Y268783D01*
X276349Y271012D01*
X273729Y272763D01*
X270817Y273969D01*
X267726Y274583D01*
D02*
G37*
G36*
X478501Y244230D02*
X477308D01*
X476205Y243773D01*
X475361Y242929D01*
X474904Y241827D01*
Y240633D01*
X475361Y239531D01*
X476205Y238687D01*
X477308Y238230D01*
X478501D01*
X479604Y238687D01*
X480448Y239531D01*
X480904Y240633D01*
Y241827D01*
X480448Y242929D01*
X479604Y243773D01*
X478501Y244230D01*
D02*
G37*
G36*
X485458Y243981D02*
X484264D01*
X483162Y243525D01*
X482318Y242681D01*
X481861Y241578D01*
Y240385D01*
X482318Y239282D01*
X483162Y238438D01*
X484264Y237981D01*
X485458D01*
X486560Y238438D01*
X487404Y239282D01*
X487861Y240385D01*
Y241578D01*
X487404Y242681D01*
X486560Y243525D01*
X485458Y243981D01*
D02*
G37*
G36*
X346961Y239596D02*
X345767D01*
X344665Y239139D01*
X343821Y238295D01*
X343364Y237193D01*
Y235999D01*
X343821Y234897D01*
X344665Y234053D01*
X345767Y233596D01*
X346961D01*
X348064Y234053D01*
X348907Y234897D01*
X349364Y235999D01*
Y237193D01*
X348907Y238295D01*
X348064Y239139D01*
X346961Y239596D01*
D02*
G37*
G36*
X485582Y237894D02*
X484389D01*
X483286Y237437D01*
X482442Y236594D01*
X481985Y235491D01*
Y234298D01*
X482442Y233195D01*
X483286Y232351D01*
X484389Y231894D01*
X485582D01*
X486685Y232351D01*
X487529Y233195D01*
X487985Y234298D01*
Y235491D01*
X487529Y236594D01*
X486685Y237437D01*
X485582Y237894D01*
D02*
G37*
G36*
X478377Y237273D02*
X477183D01*
X476081Y236816D01*
X475237Y235972D01*
X474780Y234870D01*
Y233676D01*
X475237Y232574D01*
X476081Y231730D01*
X477183Y231273D01*
X478377D01*
X479479Y231730D01*
X480323Y232574D01*
X480780Y233676D01*
Y234870D01*
X480323Y235972D01*
X479479Y236816D01*
X478377Y237273D01*
D02*
G37*
G36*
X367114Y234640D02*
X365920D01*
X364818Y234183D01*
X363974Y233339D01*
X363517Y232236D01*
Y231043D01*
X363974Y229940D01*
X364818Y229097D01*
X365920Y228640D01*
X367114D01*
X368216Y229097D01*
X369060Y229940D01*
X369517Y231043D01*
Y232236D01*
X369060Y233339D01*
X368216Y234183D01*
X367114Y234640D01*
D02*
G37*
G36*
X547233Y238303D02*
X545244D01*
X543406Y237542D01*
X542000Y236135D01*
X541238Y234298D01*
Y232309D01*
X542000Y230471D01*
X543406Y229064D01*
X545244Y228303D01*
X547233D01*
X549071Y229064D01*
X550477Y230471D01*
X551238Y232309D01*
Y234298D01*
X550477Y236135D01*
X549071Y237542D01*
X547233Y238303D01*
D02*
G37*
G36*
X366256Y226116D02*
X365063D01*
X363960Y225659D01*
X363116Y224815D01*
X362660Y223713D01*
Y222519D01*
X363116Y221416D01*
X363960Y220572D01*
X365063Y220116D01*
X366256D01*
X367359Y220572D01*
X368203Y221416D01*
X368660Y222519D01*
Y223713D01*
X368203Y224815D01*
X367359Y225659D01*
X366256Y226116D01*
D02*
G37*
G36*
X549778Y224454D02*
X548585D01*
X547482Y223997D01*
X546638Y223153D01*
X546181Y222050D01*
Y220857D01*
X546638Y219754D01*
X547482Y218910D01*
X548585Y218454D01*
X549778D01*
X550881Y218910D01*
X551725Y219754D01*
X552181Y220857D01*
Y222050D01*
X551725Y223153D01*
X550881Y223997D01*
X549778Y224454D01*
D02*
G37*
G36*
X463294Y223463D02*
X462100D01*
X460998Y223006D01*
X460154Y222162D01*
X459697Y221060D01*
Y219866D01*
X460154Y218764D01*
X460998Y217920D01*
X462100Y217463D01*
X463294D01*
X464377Y217912D01*
X464274Y217662D01*
Y216469D01*
X464293Y216424D01*
X463294Y216838D01*
X462100D01*
X460998Y216381D01*
X460154Y215537D01*
X459697Y214434D01*
Y213241D01*
X460154Y212138D01*
X460998Y211294D01*
X462100Y210838D01*
X463294D01*
X464397Y211294D01*
X465240Y212138D01*
X465697Y213241D01*
Y214434D01*
X465678Y214479D01*
X466677Y214066D01*
X467871D01*
X468974Y214522D01*
X469817Y215366D01*
X470274Y216469D01*
Y217662D01*
X470252Y217716D01*
X471021Y217397D01*
X472215D01*
X473318Y217854D01*
X474161Y218698D01*
X474618Y219801D01*
Y220994D01*
X474161Y222097D01*
X473318Y222941D01*
X472215Y223397D01*
X471021D01*
X469919Y222941D01*
X469075Y222097D01*
X468618Y220994D01*
Y219801D01*
X468641Y219747D01*
X467871Y220066D01*
X466677D01*
X465594Y219617D01*
X465697Y219866D01*
Y221060D01*
X465240Y222162D01*
X464397Y223006D01*
X463294Y223463D01*
D02*
G37*
G36*
X427334Y217519D02*
X426140D01*
X425038Y217063D01*
X424194Y216219D01*
X423737Y215116D01*
Y213923D01*
X424194Y212820D01*
X425038Y211976D01*
X426140Y211519D01*
X427334D01*
X428436Y211976D01*
X429280Y212820D01*
X429737Y213923D01*
Y215116D01*
X429280Y216219D01*
X428436Y217063D01*
X427334Y217519D01*
D02*
G37*
G36*
X545477Y215524D02*
X544284D01*
X543181Y215068D01*
X542337Y214224D01*
X541881Y213121D01*
Y211928D01*
X542337Y210825D01*
X543181Y209981D01*
X544284Y209524D01*
X545477D01*
X546580Y209981D01*
X547424Y210825D01*
X547881Y211928D01*
Y213121D01*
X547424Y214224D01*
X546580Y215068D01*
X545477Y215524D01*
D02*
G37*
G36*
X499856Y213500D02*
X498662D01*
X497560Y213043D01*
X496716Y212199D01*
X496259Y211097D01*
Y209903D01*
X496716Y208801D01*
X497560Y207957D01*
X498662Y207500D01*
X499856D01*
X500958Y207957D01*
X501802Y208801D01*
X502259Y209903D01*
Y211097D01*
X501802Y212199D01*
X500958Y213043D01*
X499856Y213500D01*
D02*
G37*
G36*
X436595Y213000D02*
X435401D01*
X434299Y212543D01*
X433455Y211699D01*
X432998Y210597D01*
Y209403D01*
X433455Y208301D01*
X434299Y207457D01*
X435401Y207000D01*
X436595D01*
X437698Y207457D01*
X438541Y208301D01*
X438998Y209403D01*
Y210597D01*
X438541Y211699D01*
X437698Y212543D01*
X436595Y213000D01*
D02*
G37*
G36*
X340597D02*
X339403D01*
X338301Y212543D01*
X337457Y211699D01*
X337000Y210597D01*
Y209403D01*
X337457Y208301D01*
X338301Y207457D01*
X339403Y207000D01*
X340597D01*
X341699Y207457D01*
X342543Y208301D01*
X343000Y209403D01*
Y210597D01*
X342543Y211699D01*
X341699Y212543D01*
X340597Y213000D01*
D02*
G37*
G36*
X391571Y212794D02*
X390377D01*
X389275Y212338D01*
X388431Y211494D01*
X387974Y210391D01*
Y209198D01*
X388431Y208095D01*
X389275Y207251D01*
X390377Y206794D01*
X391571D01*
X392673Y207251D01*
X393517Y208095D01*
X393974Y209198D01*
Y210391D01*
X393517Y211494D01*
X392673Y212338D01*
X391571Y212794D01*
D02*
G37*
G36*
X298502Y216142D02*
X296513D01*
X294675Y215381D01*
X293269Y213975D01*
X292507Y212137D01*
Y210148D01*
X293269Y208310D01*
X294675Y206904D01*
X296513Y206142D01*
X298502D01*
X300340Y206904D01*
X301746Y208310D01*
X302507Y210148D01*
Y212137D01*
X301746Y213975D01*
X300340Y215381D01*
X298502Y216142D01*
D02*
G37*
G36*
X428251Y209745D02*
X427057D01*
X425955Y209289D01*
X425111Y208445D01*
X424654Y207342D01*
Y206149D01*
X425111Y205046D01*
X425955Y204202D01*
X427057Y203745D01*
X428251D01*
X429354Y204202D01*
X430197Y205046D01*
X430654Y206149D01*
Y207342D01*
X430197Y208445D01*
X429354Y209289D01*
X428251Y209745D01*
D02*
G37*
G36*
X544731Y209162D02*
X543537D01*
X542435Y208705D01*
X541591Y207861D01*
X541134Y206759D01*
Y205565D01*
X541591Y204463D01*
X542435Y203619D01*
X543537Y203162D01*
X544731D01*
X545834Y203619D01*
X546678Y204463D01*
X547134Y205565D01*
Y206759D01*
X546678Y207861D01*
X545834Y208705D01*
X544731Y209162D01*
D02*
G37*
G36*
X550560Y206506D02*
X549367D01*
X548264Y206050D01*
X547420Y205206D01*
X546964Y204103D01*
Y202910D01*
X547420Y201807D01*
X548264Y200963D01*
X549367Y200506D01*
X550560D01*
X551663Y200963D01*
X552507Y201807D01*
X552964Y202910D01*
Y204103D01*
X552507Y205206D01*
X551663Y206050D01*
X550560Y206506D01*
D02*
G37*
G36*
X353311Y204773D02*
X352117D01*
X351015Y204317D01*
X350171Y203473D01*
X349714Y202370D01*
Y201177D01*
X350171Y200074D01*
X351015Y199230D01*
X352117Y198773D01*
X353311D01*
X354413Y199230D01*
X355257Y200074D01*
X355714Y201177D01*
Y202370D01*
X355257Y203473D01*
X354413Y204317D01*
X353311Y204773D01*
D02*
G37*
G36*
X448778Y203567D02*
X447783D01*
X446864Y203187D01*
X446161Y202484D01*
X445781Y201565D01*
Y200570D01*
X446161Y199651D01*
X446864Y198948D01*
X447783Y198567D01*
X448778D01*
X449697Y198948D01*
X450400Y199651D01*
X450781Y200570D01*
Y201565D01*
X450400Y202484D01*
X449697Y203187D01*
X448778Y203567D01*
D02*
G37*
G36*
X455852Y203452D02*
X454858D01*
X453939Y203072D01*
X453236Y202368D01*
X452855Y201450D01*
Y200455D01*
X453236Y199536D01*
X453939Y198833D01*
X454858Y198452D01*
X455852D01*
X456771Y198833D01*
X457474Y199536D01*
X457855Y200455D01*
Y201450D01*
X457474Y202368D01*
X456771Y203072D01*
X455852Y203452D01*
D02*
G37*
G36*
X439497Y203250D02*
X438503D01*
X437584Y202869D01*
X436881Y202166D01*
X436500Y201247D01*
Y200253D01*
X436881Y199334D01*
X437584Y198631D01*
X438503Y198250D01*
X439497D01*
X440416Y198631D01*
X441119Y199334D01*
X441500Y200253D01*
Y201247D01*
X441119Y202166D01*
X440416Y202869D01*
X439497Y203250D01*
D02*
G37*
G36*
X400497D02*
X399503D01*
X398584Y202869D01*
X397881Y202166D01*
X397500Y201247D01*
Y200253D01*
X397881Y199334D01*
X398584Y198631D01*
X399503Y198250D01*
X400497D01*
X401416Y198631D01*
X402119Y199334D01*
X402500Y200253D01*
Y201247D01*
X402119Y202166D01*
X401416Y202869D01*
X400497Y203250D01*
D02*
G37*
G36*
X463750Y202957D02*
X462756D01*
X461837Y202577D01*
X461134Y201873D01*
X460753Y200955D01*
Y199960D01*
X461134Y199041D01*
X461837Y198338D01*
X462756Y197957D01*
X463750D01*
X464669Y198338D01*
X465372Y199041D01*
X465753Y199960D01*
Y200955D01*
X465372Y201873D01*
X464669Y202577D01*
X463750Y202957D01*
D02*
G37*
G36*
X499738Y202301D02*
X498545D01*
X497442Y201844D01*
X496598Y201000D01*
X496142Y199897D01*
Y198704D01*
X496598Y197601D01*
X497442Y196757D01*
X498545Y196301D01*
X499738D01*
X500841Y196757D01*
X501685Y197601D01*
X502141Y198704D01*
Y199897D01*
X501685Y201000D01*
X500841Y201844D01*
X499738Y202301D01*
D02*
G37*
G36*
X486950Y199541D02*
X485956D01*
X485037Y199160D01*
X484334Y198457D01*
X483953Y197538D01*
Y196544D01*
X484334Y195625D01*
X485037Y194922D01*
X485956Y194541D01*
X486950D01*
X487869Y194922D01*
X488572Y195625D01*
X488953Y196544D01*
Y197538D01*
X488572Y198457D01*
X487869Y199160D01*
X486950Y199541D01*
D02*
G37*
G36*
X549861Y200051D02*
X548668D01*
X547565Y199594D01*
X546721Y198750D01*
X546265Y197648D01*
Y196454D01*
X546721Y195352D01*
X547565Y194508D01*
X548668Y194051D01*
X549861D01*
X550964Y194508D01*
X551808Y195352D01*
X552265Y196454D01*
Y197648D01*
X551808Y198750D01*
X550964Y199594D01*
X549861Y200051D01*
D02*
G37*
G36*
X344749Y199936D02*
X343556D01*
X342453Y199479D01*
X341609Y198635D01*
X341153Y197533D01*
Y196339D01*
X341609Y195237D01*
X342453Y194393D01*
X343556Y193936D01*
X344749D01*
X345852Y194393D01*
X346696Y195237D01*
X347152Y196339D01*
Y197533D01*
X346696Y198635D01*
X345852Y199479D01*
X344749Y199936D01*
D02*
G37*
G36*
X369223Y199091D02*
X368030D01*
X366927Y198634D01*
X366083Y197790D01*
X365626Y196687D01*
Y195494D01*
X366083Y194391D01*
X366927Y193547D01*
X368030Y193091D01*
X369223D01*
X370326Y193547D01*
X371170Y194391D01*
X371626Y195494D01*
Y196687D01*
X371170Y197790D01*
X370326Y198634D01*
X369223Y199091D01*
D02*
G37*
G36*
X337273Y198927D02*
X336080D01*
X334977Y198470D01*
X334133Y197626D01*
X333677Y196523D01*
Y195330D01*
X334133Y194227D01*
X334977Y193383D01*
X336080Y192927D01*
X337273D01*
X338376Y193383D01*
X339220Y194227D01*
X339677Y195330D01*
Y196523D01*
X339220Y197626D01*
X338376Y198470D01*
X337273Y198927D01*
D02*
G37*
G36*
X460944Y196515D02*
X459950D01*
X459031Y196134D01*
X458327Y195431D01*
X457947Y194512D01*
Y193517D01*
X458327Y192599D01*
X459031Y191895D01*
X459950Y191515D01*
X460944D01*
X461863Y191895D01*
X462566Y192599D01*
X462947Y193517D01*
Y194512D01*
X462566Y195431D01*
X461863Y196134D01*
X460944Y196515D01*
D02*
G37*
G36*
X298050Y197399D02*
X296856D01*
X295754Y196942D01*
X294910Y196098D01*
X294453Y194996D01*
Y193802D01*
X294910Y192700D01*
X295754Y191856D01*
X296856Y191399D01*
X298050D01*
X299152Y191856D01*
X299996Y192700D01*
X300453Y193802D01*
Y194996D01*
X299996Y196098D01*
X299152Y196942D01*
X298050Y197399D01*
D02*
G37*
G36*
X395983Y194502D02*
X394989D01*
X394070Y194121D01*
X393367Y193418D01*
X392986Y192499D01*
Y191504D01*
X393367Y190586D01*
X394070Y189882D01*
X394989Y189502D01*
X395983D01*
X396902Y189882D01*
X397606Y190586D01*
X397986Y191504D01*
Y192499D01*
X397606Y193418D01*
X396902Y194121D01*
X395983Y194502D01*
D02*
G37*
G36*
X447984Y194494D02*
X446989D01*
X446071Y194113D01*
X445367Y193410D01*
X444987Y192491D01*
Y191497D01*
X445367Y190578D01*
X446071Y189874D01*
X446989Y189494D01*
X447984D01*
X448903Y189874D01*
X449606Y190578D01*
X449987Y191497D01*
Y192491D01*
X449606Y193410D01*
X448903Y194113D01*
X447984Y194494D01*
D02*
G37*
G36*
X415497D02*
X414503D01*
X413584Y194113D01*
X412881Y193410D01*
X412500Y192491D01*
Y191497D01*
X412881Y190578D01*
X413584Y189874D01*
X414503Y189494D01*
X415497D01*
X416416Y189874D01*
X417119Y190578D01*
X417500Y191497D01*
Y192491D01*
X417119Y193410D01*
X416416Y194113D01*
X415497Y194494D01*
D02*
G37*
G36*
X428441Y194471D02*
X427447D01*
X426528Y194090D01*
X425825Y193387D01*
X425444Y192468D01*
Y191474D01*
X425825Y190555D01*
X426528Y189851D01*
X427447Y189471D01*
X428441D01*
X429360Y189851D01*
X430063Y190555D01*
X430444Y191474D01*
Y192468D01*
X430063Y193387D01*
X429360Y194090D01*
X428441Y194471D01*
D02*
G37*
G36*
X454533Y194467D02*
X453538D01*
X452619Y194086D01*
X451916Y193383D01*
X451535Y192464D01*
Y191469D01*
X451916Y190550D01*
X452619Y189847D01*
X453538Y189467D01*
X454533D01*
X455452Y189847D01*
X456155Y190550D01*
X456535Y191469D01*
Y192464D01*
X456155Y193383D01*
X455452Y194086D01*
X454533Y194467D01*
D02*
G37*
G36*
X548544Y193458D02*
X547351D01*
X546248Y193001D01*
X545404Y192157D01*
X544948Y191055D01*
Y189861D01*
X545404Y188758D01*
X546248Y187915D01*
X547351Y187458D01*
X548544D01*
X549647Y187915D01*
X550491Y188758D01*
X550947Y189861D01*
Y191055D01*
X550491Y192157D01*
X549647Y193001D01*
X548544Y193458D01*
D02*
G37*
G36*
X389390Y188583D02*
X388396D01*
X387477Y188202D01*
X386774Y187499D01*
X386393Y186580D01*
Y185585D01*
X386774Y184667D01*
X387477Y183963D01*
X388396Y183583D01*
X389390D01*
X390309Y183963D01*
X391012Y184667D01*
X391393Y185585D01*
Y186580D01*
X391012Y187499D01*
X390309Y188202D01*
X389390Y188583D01*
D02*
G37*
G36*
X395983Y188099D02*
X394989D01*
X394070Y187718D01*
X393367Y187015D01*
X392986Y186096D01*
Y185101D01*
X393367Y184182D01*
X394070Y183479D01*
X394989Y183099D01*
X395983D01*
X396902Y183479D01*
X397605Y184182D01*
X397986Y185101D01*
Y186096D01*
X397605Y187015D01*
X396902Y187718D01*
X395983Y188099D01*
D02*
G37*
G36*
X402462Y188056D02*
X401468D01*
X400549Y187676D01*
X399846Y186972D01*
X399465Y186054D01*
Y185059D01*
X399846Y184140D01*
X400549Y183437D01*
X401468Y183056D01*
X402462D01*
X403381Y183437D01*
X404085Y184140D01*
X404465Y185059D01*
Y186054D01*
X404085Y186972D01*
X403381Y187676D01*
X402462Y188056D01*
D02*
G37*
G36*
X454486Y187991D02*
X453492D01*
X452573Y187611D01*
X451870Y186908D01*
X451489Y185989D01*
Y184994D01*
X451870Y184075D01*
X452573Y183372D01*
X453492Y182991D01*
X454486D01*
X455405Y183372D01*
X456108Y184075D01*
X456489Y184994D01*
Y185989D01*
X456108Y186908D01*
X455405Y187611D01*
X454486Y187991D01*
D02*
G37*
G36*
X415497D02*
X414503D01*
X413584Y187611D01*
X412881Y186908D01*
X412500Y185989D01*
Y184994D01*
X412881Y184075D01*
X413584Y183372D01*
X414503Y182991D01*
X415497D01*
X416416Y183372D01*
X417119Y184075D01*
X417500Y184994D01*
Y185989D01*
X417119Y186908D01*
X416416Y187611D01*
X415497Y187991D01*
D02*
G37*
G36*
X487417Y186969D02*
X486422D01*
X485503Y186589D01*
X484800Y185886D01*
X484420Y184967D01*
Y183972D01*
X484800Y183053D01*
X485503Y182350D01*
X486422Y181969D01*
X487417D01*
X488336Y182350D01*
X489039Y183053D01*
X489420Y183972D01*
Y184967D01*
X489039Y185886D01*
X488336Y186589D01*
X487417Y186969D01*
D02*
G37*
G36*
X348313Y185217D02*
X347120D01*
X346017Y184760D01*
X345173Y183916D01*
X344716Y182813D01*
Y181620D01*
X345173Y180517D01*
X346017Y179673D01*
X347120Y179217D01*
X348313D01*
X349416Y179673D01*
X350260Y180517D01*
X350716Y181620D01*
Y182813D01*
X350260Y183916D01*
X349416Y184760D01*
X348313Y185217D01*
D02*
G37*
G36*
X396848Y182511D02*
X395854D01*
X394935Y182130D01*
X394232Y181427D01*
X393851Y180508D01*
Y179513D01*
X394232Y178594D01*
X394935Y177891D01*
X395854Y177511D01*
X396848D01*
X397767Y177891D01*
X398470Y178594D01*
X398851Y179513D01*
Y180508D01*
X398470Y181427D01*
X397767Y182130D01*
X396848Y182511D01*
D02*
G37*
G36*
X363042Y183494D02*
X361848D01*
X360746Y183037D01*
X359902Y182193D01*
X359445Y181090D01*
Y179897D01*
X359902Y178794D01*
X360746Y177950D01*
X361848Y177494D01*
X363042D01*
X364144Y177950D01*
X364988Y178794D01*
X365445Y179897D01*
Y181090D01*
X364988Y182193D01*
X364144Y183037D01*
X363042Y183494D01*
D02*
G37*
G36*
X402299Y182462D02*
X401305D01*
X400386Y182081D01*
X399682Y181378D01*
X399302Y180459D01*
Y179465D01*
X399682Y178546D01*
X400386Y177843D01*
X401305Y177462D01*
X402299D01*
X403218Y177843D01*
X403921Y178546D01*
X404302Y179465D01*
Y180459D01*
X403921Y181378D01*
X403218Y182081D01*
X402299Y182462D01*
D02*
G37*
G36*
X408100Y182379D02*
X407105D01*
X406186Y181999D01*
X405483Y181295D01*
X405103Y180376D01*
Y179382D01*
X405483Y178463D01*
X406186Y177760D01*
X407105Y177379D01*
X408100D01*
X409019Y177760D01*
X409722Y178463D01*
X410103Y179382D01*
Y180376D01*
X409722Y181295D01*
X409019Y181999D01*
X408100Y182379D01*
D02*
G37*
G36*
X448782Y182242D02*
X447787D01*
X446868Y181861D01*
X446165Y181158D01*
X445784Y180239D01*
Y179245D01*
X446165Y178326D01*
X446868Y177623D01*
X447787Y177242D01*
X448782D01*
X449700Y177623D01*
X450404Y178326D01*
X450784Y179245D01*
Y180239D01*
X450404Y181158D01*
X449700Y181861D01*
X448782Y182242D01*
D02*
G37*
G36*
X428477Y181489D02*
X427482D01*
X426563Y181108D01*
X425860Y180405D01*
X425479Y179486D01*
Y178492D01*
X425860Y177573D01*
X426563Y176870D01*
X427482Y176489D01*
X428477D01*
X429395Y176870D01*
X430099Y177573D01*
X430479Y178492D01*
Y179486D01*
X430099Y180405D01*
X429395Y181108D01*
X428477Y181489D01*
D02*
G37*
G36*
X415541Y181392D02*
X414547D01*
X413628Y181012D01*
X412925Y180308D01*
X412544Y179390D01*
Y178395D01*
X412925Y177476D01*
X413628Y176773D01*
X414547Y176392D01*
X415541D01*
X416460Y176773D01*
X417164Y177476D01*
X417544Y178395D01*
Y179390D01*
X417164Y180308D01*
X416460Y181012D01*
X415541Y181392D01*
D02*
G37*
G36*
X389473Y180959D02*
X388479D01*
X387560Y180578D01*
X386857Y179875D01*
X386476Y178956D01*
Y177962D01*
X386857Y177043D01*
X387560Y176340D01*
X388479Y175959D01*
X389473D01*
X390392Y176340D01*
X391095Y177043D01*
X391476Y177962D01*
Y178956D01*
X391095Y179875D01*
X390392Y180578D01*
X389473Y180959D01*
D02*
G37*
G36*
X502676Y186512D02*
X501482D01*
X500379Y186055D01*
X499536Y185211D01*
X499079Y184108D01*
Y182915D01*
X499536Y181812D01*
X500379Y180968D01*
X501391Y180549D01*
X500656Y180245D01*
X499812Y179401D01*
X499356Y178298D01*
Y177105D01*
X499812Y176002D01*
X500656Y175158D01*
X501759Y174702D01*
X502952D01*
X504055Y175158D01*
X504899Y176002D01*
X505356Y177105D01*
Y178298D01*
X504899Y179401D01*
X504055Y180245D01*
X503043Y180664D01*
X503778Y180968D01*
X504622Y181812D01*
X505079Y182915D01*
Y184108D01*
X504622Y185211D01*
X503778Y186055D01*
X502676Y186512D01*
D02*
G37*
G36*
X354254Y179509D02*
X353060D01*
X351958Y179052D01*
X351114Y178208D01*
X350657Y177106D01*
Y175912D01*
X351114Y174809D01*
X351958Y173966D01*
X353060Y173509D01*
X354254D01*
X355356Y173966D01*
X356200Y174809D01*
X356657Y175912D01*
Y177106D01*
X356200Y178208D01*
X355356Y179052D01*
X354254Y179509D01*
D02*
G37*
G36*
X294638Y191487D02*
X293444D01*
X292341Y191030D01*
X291497Y190186D01*
X291041Y189084D01*
Y187890D01*
X291497Y186788D01*
X292341Y185944D01*
X292670Y185808D01*
X292543D01*
X291440Y185351D01*
X290596Y184507D01*
X290140Y183404D01*
Y182211D01*
X290596Y181108D01*
X291440Y180264D01*
X292543Y179808D01*
X293736D01*
X294839Y180264D01*
X295601Y181026D01*
Y180411D01*
X296058Y179308D01*
X296902Y178464D01*
X297947Y178031D01*
X297453Y177827D01*
X296609Y176983D01*
X296152Y175880D01*
Y174687D01*
X296609Y173584D01*
X297453Y172740D01*
X298556Y172283D01*
X299749D01*
X300852Y172740D01*
X301696Y173584D01*
X302152Y174687D01*
Y175880D01*
X301696Y176983D01*
X300852Y177827D01*
X299807Y178260D01*
X300300Y178464D01*
X301144Y179308D01*
X301601Y180411D01*
Y181604D01*
X301144Y182707D01*
X300300Y183551D01*
X299198Y184007D01*
X298004D01*
X296902Y183551D01*
X296140Y182789D01*
Y183404D01*
X295683Y184507D01*
X294839Y185351D01*
X294511Y185487D01*
X294638D01*
X295740Y185944D01*
X296584Y186788D01*
X297041Y187890D01*
Y189084D01*
X296584Y190186D01*
X295740Y191030D01*
X294638Y191487D01*
D02*
G37*
G36*
X455275Y175900D02*
X454280D01*
X453361Y175520D01*
X452658Y174816D01*
X452277Y173897D01*
Y172903D01*
X452658Y171984D01*
X453361Y171281D01*
X454280Y170900D01*
X455275D01*
X456194Y171281D01*
X456897Y171984D01*
X457277Y172903D01*
Y173897D01*
X456897Y174816D01*
X456194Y175520D01*
X455275Y175900D01*
D02*
G37*
G36*
X547337Y180224D02*
X545348D01*
X543510Y179463D01*
X542104Y178057D01*
X541343Y176219D01*
Y174230D01*
X542104Y172392D01*
X543510Y170986D01*
X545348Y170224D01*
X547337D01*
X549175Y170986D01*
X550581Y172392D01*
X551343Y174230D01*
Y176219D01*
X550581Y178057D01*
X549175Y179463D01*
X547337Y180224D01*
D02*
G37*
G36*
X447261Y174466D02*
X446266D01*
X445347Y174086D01*
X444644Y173382D01*
X444263Y172463D01*
Y171469D01*
X444644Y170550D01*
X445347Y169847D01*
X446266Y169466D01*
X447261D01*
X448179Y169847D01*
X448883Y170550D01*
X449263Y171469D01*
Y172463D01*
X448883Y173382D01*
X448179Y174086D01*
X447261Y174466D01*
D02*
G37*
G36*
X339611Y174500D02*
X338418D01*
X337315Y174043D01*
X336471Y173199D01*
X336014Y172097D01*
Y170903D01*
X336471Y169801D01*
X337315Y168957D01*
X338418Y168500D01*
X339611D01*
X340714Y168957D01*
X341558Y169801D01*
X342014Y170903D01*
Y172097D01*
X341558Y173199D01*
X340714Y174043D01*
X339611Y174500D01*
D02*
G37*
G36*
X350691Y173355D02*
X349498D01*
X348395Y172898D01*
X347551Y172054D01*
X347094Y170952D01*
Y169758D01*
X347551Y168656D01*
X348395Y167812D01*
X349498Y167355D01*
X350691D01*
X351794Y167812D01*
X352638Y168656D01*
X353094Y169758D01*
Y170952D01*
X352638Y172054D01*
X351794Y172898D01*
X350691Y173355D01*
D02*
G37*
G36*
X502676Y172643D02*
X501482D01*
X500379Y172186D01*
X499536Y171342D01*
X499079Y170239D01*
Y169046D01*
X499536Y167943D01*
X500379Y167099D01*
X501482Y166643D01*
X502676D01*
X503778Y167099D01*
X504622Y167943D01*
X505079Y169046D01*
Y170239D01*
X504622Y171342D01*
X503778Y172186D01*
X502676Y172643D01*
D02*
G37*
G36*
X370066Y172470D02*
X368873D01*
X367770Y172013D01*
X366926Y171169D01*
X366470Y170066D01*
Y168873D01*
X366926Y167770D01*
X367770Y166926D01*
X368873Y166470D01*
X370066D01*
X371169Y166926D01*
X372013Y167770D01*
X372470Y168873D01*
Y170066D01*
X372013Y171169D01*
X371169Y172013D01*
X370066Y172470D01*
D02*
G37*
G36*
X401381Y169567D02*
X400387D01*
X399468Y169186D01*
X398765Y168483D01*
X398384Y167564D01*
Y166570D01*
X398765Y165651D01*
X399468Y164948D01*
X400387Y164567D01*
X401381D01*
X402300Y164948D01*
X403004Y165651D01*
X403384Y166570D01*
Y167564D01*
X403004Y168483D01*
X402300Y169186D01*
X401381Y169567D01*
D02*
G37*
G36*
X429369Y169341D02*
X428374D01*
X427456Y168961D01*
X426752Y168257D01*
X426372Y167339D01*
Y166344D01*
X426752Y165425D01*
X427456Y164722D01*
X428374Y164341D01*
X429369D01*
X430288Y164722D01*
X430991Y165425D01*
X431372Y166344D01*
Y167339D01*
X430991Y168257D01*
X430288Y168961D01*
X429369Y169341D01*
D02*
G37*
G36*
X297554Y169781D02*
X296360D01*
X295258Y169324D01*
X294414Y168480D01*
X293957Y167378D01*
Y166184D01*
X294414Y165082D01*
X295258Y164238D01*
X296360Y163781D01*
X297554D01*
X298657Y164238D01*
X299501Y165082D01*
X299957Y166184D01*
Y167378D01*
X299501Y168480D01*
X298657Y169324D01*
X297554Y169781D01*
D02*
G37*
G36*
X396059Y168543D02*
X395065D01*
X394146Y168162D01*
X393443Y167459D01*
X393062Y166540D01*
Y165546D01*
X393443Y164627D01*
X394146Y163923D01*
X395065Y163543D01*
X396059D01*
X396978Y163923D01*
X397681Y164627D01*
X398062Y165546D01*
Y166540D01*
X397681Y167459D01*
X396978Y168162D01*
X396059Y168543D01*
D02*
G37*
G36*
X502676Y166478D02*
X501482D01*
X500379Y166021D01*
X499536Y165177D01*
X499079Y164075D01*
Y162881D01*
X499536Y161779D01*
X500379Y160935D01*
X501482Y160478D01*
X502676D01*
X503778Y160935D01*
X504622Y161779D01*
X505079Y162881D01*
Y164075D01*
X504622Y165177D01*
X503778Y166021D01*
X502676Y166478D01*
D02*
G37*
G36*
X363421Y166317D02*
X362228D01*
X361125Y165860D01*
X360281Y165016D01*
X359824Y163913D01*
Y162720D01*
X360281Y161617D01*
X361125Y160773D01*
X362228Y160317D01*
X363421D01*
X364524Y160773D01*
X365368Y161617D01*
X365824Y162720D01*
Y163913D01*
X365368Y165016D01*
X364524Y165860D01*
X363421Y166317D01*
D02*
G37*
G36*
X374539Y165243D02*
X373545D01*
X372626Y164862D01*
X371922Y164159D01*
X371542Y163240D01*
Y162246D01*
X371922Y161327D01*
X372626Y160624D01*
X373545Y160243D01*
X374539D01*
X375458Y160624D01*
X376161Y161327D01*
X376542Y162246D01*
Y163240D01*
X376161Y164159D01*
X375458Y164862D01*
X374539Y165243D01*
D02*
G37*
G36*
X291019Y163466D02*
X289826D01*
X288723Y163010D01*
X287879Y162166D01*
X287423Y161063D01*
Y159870D01*
X287522Y159629D01*
X286495Y160055D01*
X285302D01*
X284199Y159598D01*
X283355Y158754D01*
X282898Y157651D01*
Y156458D01*
X283355Y155355D01*
X284199Y154511D01*
X285302Y154055D01*
X286495D01*
X287598Y154511D01*
X288442Y155355D01*
X288898Y156458D01*
Y157651D01*
X288799Y157892D01*
X289826Y157466D01*
X291019D01*
X292122Y157923D01*
X292966Y158767D01*
X293423Y159870D01*
Y161063D01*
X292966Y162166D01*
X292122Y163010D01*
X291019Y163466D01*
D02*
G37*
G36*
X257376Y164272D02*
X256182D01*
X255080Y163815D01*
X254236Y162971D01*
X253779Y161869D01*
Y160675D01*
X254236Y159573D01*
X255080Y158729D01*
X256182Y158272D01*
X257376D01*
X258479Y158729D01*
X259323Y159573D01*
X259779Y160675D01*
Y161869D01*
X259323Y162971D01*
X258479Y163815D01*
X257376Y164272D01*
D02*
G37*
G36*
X460068Y163030D02*
X459074D01*
X458155Y162650D01*
X457452Y161947D01*
X457071Y161028D01*
Y160033D01*
X457452Y159114D01*
X458155Y158411D01*
X459074Y158030D01*
X460068D01*
X460987Y158411D01*
X461690Y159114D01*
X462071Y160033D01*
Y161028D01*
X461690Y161947D01*
X460987Y162650D01*
X460068Y163030D01*
D02*
G37*
G36*
X428477Y162017D02*
X427482D01*
X426563Y161636D01*
X425860Y160933D01*
X425479Y160014D01*
Y159020D01*
X425860Y158101D01*
X426563Y157398D01*
X427482Y157017D01*
X428477D01*
X429395Y157398D01*
X430099Y158101D01*
X430479Y159020D01*
Y160014D01*
X430099Y160933D01*
X429395Y161636D01*
X428477Y162017D01*
D02*
G37*
G36*
X447984Y162007D02*
X446989D01*
X446071Y161627D01*
X445367Y160923D01*
X444987Y160005D01*
Y159010D01*
X445367Y158091D01*
X446071Y157388D01*
X446989Y157007D01*
X447984D01*
X448903Y157388D01*
X449606Y158091D01*
X449987Y159010D01*
Y160005D01*
X449606Y160923D01*
X448903Y161627D01*
X447984Y162007D01*
D02*
G37*
G36*
X441482D02*
X440487D01*
X439568Y161627D01*
X438865Y160923D01*
X438484Y160005D01*
Y159010D01*
X438865Y158091D01*
X439568Y157388D01*
X440487Y157007D01*
X441482D01*
X442400Y157388D01*
X443104Y158091D01*
X443484Y159010D01*
Y160005D01*
X443104Y160923D01*
X442400Y161627D01*
X441482Y162007D01*
D02*
G37*
G36*
X434979D02*
X433984D01*
X433066Y161627D01*
X432362Y160923D01*
X431982Y160005D01*
Y159010D01*
X432362Y158091D01*
X433066Y157388D01*
X433984Y157007D01*
X434979D01*
X435898Y157388D01*
X436601Y158091D01*
X436982Y159010D01*
Y160005D01*
X436601Y160923D01*
X435898Y161627D01*
X434979Y162007D01*
D02*
G37*
G36*
X421974D02*
X420980D01*
X420061Y161627D01*
X419358Y160923D01*
X418977Y160005D01*
Y159010D01*
X419358Y158091D01*
X420061Y157388D01*
X420980Y157007D01*
X421974D01*
X422893Y157388D01*
X423596Y158091D01*
X423977Y159010D01*
Y160005D01*
X423596Y160923D01*
X422893Y161627D01*
X421974Y162007D01*
D02*
G37*
G36*
X415497D02*
X414503D01*
X413584Y161627D01*
X412881Y160923D01*
X412500Y160005D01*
Y159010D01*
X412881Y158091D01*
X413584Y157388D01*
X414503Y157007D01*
X415497D01*
X416416Y157388D01*
X417119Y158091D01*
X417500Y159010D01*
Y160005D01*
X417119Y160923D01*
X416416Y161627D01*
X415497Y162007D01*
D02*
G37*
G36*
X403237Y161061D02*
X402242D01*
X401323Y160680D01*
X400620Y159977D01*
X400239Y159058D01*
Y158063D01*
X400620Y157145D01*
X401323Y156441D01*
X402242Y156061D01*
X403237D01*
X404155Y156441D01*
X404859Y157145D01*
X405239Y158063D01*
Y159058D01*
X404859Y159977D01*
X404155Y160680D01*
X403237Y161061D01*
D02*
G37*
G36*
X253393Y159754D02*
X252199D01*
X251097Y159297D01*
X250253Y158453D01*
X249796Y157350D01*
Y156157D01*
X250253Y155054D01*
X251097Y154210D01*
X252199Y153754D01*
X253393D01*
X254496Y154210D01*
X255339Y155054D01*
X255796Y156157D01*
Y157350D01*
X255339Y158453D01*
X254496Y159297D01*
X253393Y159754D01*
D02*
G37*
G36*
X371264Y157223D02*
X370071D01*
X368968Y156766D01*
X368124Y155922D01*
X367668Y154820D01*
Y153626D01*
X368124Y152523D01*
X368968Y151680D01*
X370071Y151223D01*
X371264D01*
X372367Y151680D01*
X373211Y152523D01*
X373668Y153626D01*
Y154820D01*
X373211Y155922D01*
X372367Y156766D01*
X371264Y157223D01*
D02*
G37*
G36*
X409787Y155977D02*
X408793D01*
X407874Y155597D01*
X407170Y154893D01*
X406790Y153975D01*
Y152980D01*
X407170Y152061D01*
X407874Y151358D01*
X408793Y150977D01*
X409787D01*
X410706Y151358D01*
X411409Y152061D01*
X411790Y152980D01*
Y153975D01*
X411409Y154893D01*
X410706Y155597D01*
X409787Y155977D01*
D02*
G37*
G36*
X454180Y155957D02*
X453185D01*
X452266Y155576D01*
X451563Y154873D01*
X451182Y153954D01*
Y152959D01*
X451563Y152040D01*
X452266Y151337D01*
X453185Y150957D01*
X454180D01*
X455098Y151337D01*
X455802Y152040D01*
X456182Y152959D01*
Y153954D01*
X455802Y154873D01*
X455098Y155576D01*
X454180Y155957D01*
D02*
G37*
G36*
X460989Y155505D02*
X459994D01*
X459075Y155124D01*
X458372Y154421D01*
X457991Y153502D01*
Y152507D01*
X458372Y151589D01*
X459075Y150885D01*
X459994Y150505D01*
X460989D01*
X461908Y150885D01*
X462611Y151589D01*
X462991Y152507D01*
Y153502D01*
X462611Y154421D01*
X461908Y155124D01*
X460989Y155505D01*
D02*
G37*
G36*
X447984D02*
X446989D01*
X446071Y155124D01*
X445367Y154421D01*
X444987Y153502D01*
Y152507D01*
X445367Y151589D01*
X446071Y150885D01*
X446989Y150505D01*
X447984D01*
X448903Y150885D01*
X449606Y151589D01*
X449987Y152507D01*
Y153502D01*
X449606Y154421D01*
X448903Y155124D01*
X447984Y155505D01*
D02*
G37*
G36*
X441482D02*
X440487D01*
X439568Y155124D01*
X438865Y154421D01*
X438484Y153502D01*
Y152507D01*
X438865Y151589D01*
X439568Y150885D01*
X440487Y150505D01*
X441482D01*
X442400Y150885D01*
X443104Y151589D01*
X443484Y152507D01*
Y153502D01*
X443104Y154421D01*
X442400Y155124D01*
X441482Y155505D01*
D02*
G37*
G36*
X434979D02*
X433984D01*
X433066Y155124D01*
X432362Y154421D01*
X431982Y153502D01*
Y152507D01*
X432362Y151589D01*
X433066Y150885D01*
X433984Y150505D01*
X434979D01*
X435898Y150885D01*
X436601Y151589D01*
X436982Y152507D01*
Y153502D01*
X436601Y154421D01*
X435898Y155124D01*
X434979Y155505D01*
D02*
G37*
G36*
X402492D02*
X401498D01*
X400579Y155124D01*
X399876Y154421D01*
X399495Y153502D01*
Y152507D01*
X399876Y151589D01*
X400579Y150885D01*
X401498Y150505D01*
X402492D01*
X403411Y150885D01*
X404115Y151589D01*
X404495Y152507D01*
Y153502D01*
X404115Y154421D01*
X403411Y155124D01*
X402492Y155505D01*
D02*
G37*
G36*
X429076Y154970D02*
X428082D01*
X427163Y154589D01*
X426460Y153886D01*
X426079Y152967D01*
Y151973D01*
X426460Y151054D01*
X427163Y150350D01*
X428082Y149970D01*
X429076D01*
X429995Y150350D01*
X430698Y151054D01*
X431079Y151973D01*
Y152967D01*
X430698Y153886D01*
X429995Y154589D01*
X429076Y154970D01*
D02*
G37*
G36*
X528972Y156623D02*
X527580D01*
X526293Y156090D01*
X525309Y155105D01*
X524776Y153819D01*
Y152426D01*
X525309Y151140D01*
X526293Y150155D01*
X527580Y149623D01*
X528972D01*
X530259Y150155D01*
X531243Y151140D01*
X531776Y152426D01*
Y153819D01*
X531243Y155105D01*
X530259Y156090D01*
X528972Y156623D01*
D02*
G37*
G36*
X282463Y155541D02*
X281269D01*
X280167Y155084D01*
X279323Y154240D01*
X278866Y153137D01*
Y151944D01*
X279323Y150841D01*
X280167Y149997D01*
X281269Y149541D01*
X282463D01*
X283565Y149997D01*
X284409Y150841D01*
X284866Y151944D01*
Y153137D01*
X284409Y154240D01*
X283565Y155084D01*
X282463Y155541D01*
D02*
G37*
G36*
X249481Y154879D02*
X248287D01*
X247185Y154422D01*
X246341Y153578D01*
X245884Y152475D01*
Y151282D01*
X246341Y150179D01*
X247185Y149335D01*
X248287Y148879D01*
X249481D01*
X250583Y149335D01*
X251427Y150179D01*
X251884Y151282D01*
Y152475D01*
X251427Y153578D01*
X250583Y154422D01*
X249481Y154879D01*
D02*
G37*
G36*
X298606Y158064D02*
X296617D01*
X294779Y157303D01*
X293373Y155896D01*
X292612Y154058D01*
Y152069D01*
X293373Y150232D01*
X294779Y148825D01*
X296617Y148064D01*
X298606D01*
X300444Y148825D01*
X301850Y150232D01*
X302612Y152069D01*
Y154058D01*
X301850Y155896D01*
X300444Y157303D01*
X298606Y158064D01*
D02*
G37*
G36*
X389495Y149004D02*
X388500D01*
X387581Y148623D01*
X386878Y147920D01*
X386497Y147001D01*
Y146006D01*
X386878Y145088D01*
X387581Y144384D01*
X388500Y144004D01*
X389495D01*
X390414Y144384D01*
X391117Y145088D01*
X391497Y146006D01*
Y147001D01*
X391117Y147920D01*
X390414Y148623D01*
X389495Y149004D01*
D02*
G37*
G36*
X421974Y149002D02*
X420980D01*
X420061Y148622D01*
X419358Y147919D01*
X418977Y147000D01*
Y146005D01*
X419358Y145086D01*
X420061Y144383D01*
X420980Y144002D01*
X421974D01*
X422893Y144383D01*
X423596Y145086D01*
X423977Y146005D01*
Y147000D01*
X423596Y147919D01*
X422893Y148622D01*
X421974Y149002D01*
D02*
G37*
G36*
X415497D02*
X414503D01*
X413584Y148622D01*
X412881Y147919D01*
X412500Y147000D01*
Y146005D01*
X412881Y145086D01*
X413584Y144383D01*
X414503Y144002D01*
X415497D01*
X416416Y144383D01*
X417119Y145086D01*
X417500Y146005D01*
Y147000D01*
X417119Y147919D01*
X416416Y148622D01*
X415497Y149002D01*
D02*
G37*
G36*
X408995D02*
X408000D01*
X407081Y148622D01*
X406378Y147919D01*
X405998Y147000D01*
Y146005D01*
X406378Y145086D01*
X407081Y144383D01*
X408000Y144002D01*
X408995D01*
X409914Y144383D01*
X410617Y145086D01*
X410998Y146005D01*
Y147000D01*
X410617Y147919D01*
X409914Y148622D01*
X408995Y149002D01*
D02*
G37*
G36*
X395990D02*
X394995D01*
X394077Y148622D01*
X393373Y147919D01*
X392993Y147000D01*
Y146005D01*
X393373Y145086D01*
X394077Y144383D01*
X394995Y144002D01*
X395990D01*
X396909Y144383D01*
X397612Y145086D01*
X397993Y146005D01*
Y147000D01*
X397612Y147919D01*
X396909Y148622D01*
X395990Y149002D01*
D02*
G37*
G36*
X403417Y143448D02*
X402422D01*
X401503Y143067D01*
X400800Y142364D01*
X400419Y141445D01*
Y140450D01*
X400800Y139531D01*
X401503Y138828D01*
X402422Y138448D01*
X403417D01*
X404335Y138828D01*
X405039Y139531D01*
X405419Y140450D01*
Y141445D01*
X405039Y142364D01*
X404335Y143067D01*
X403417Y143448D01*
D02*
G37*
G36*
X461749Y143199D02*
X460755D01*
X459836Y142818D01*
X459133Y142115D01*
X458752Y141196D01*
Y140202D01*
X459133Y139283D01*
X459836Y138580D01*
X460755Y138199D01*
X461749D01*
X462668Y138580D01*
X463372Y139283D01*
X463752Y140202D01*
Y141196D01*
X463372Y142115D01*
X462668Y142818D01*
X461749Y143199D01*
D02*
G37*
G36*
X382915Y142538D02*
X381921D01*
X381002Y142158D01*
X380298Y141454D01*
X379918Y140536D01*
Y139541D01*
X380298Y138622D01*
X381002Y137919D01*
X381921Y137538D01*
X382915D01*
X383834Y137919D01*
X384537Y138622D01*
X384918Y139541D01*
Y140536D01*
X384537Y141454D01*
X383834Y142158D01*
X382915Y142538D01*
D02*
G37*
G36*
X454486Y142500D02*
X453492D01*
X452573Y142119D01*
X451870Y141416D01*
X451489Y140497D01*
Y139503D01*
X451870Y138584D01*
X452573Y137881D01*
X453492Y137500D01*
X454486D01*
X455405Y137881D01*
X456108Y138584D01*
X456489Y139503D01*
Y140497D01*
X456108Y141416D01*
X455405Y142119D01*
X454486Y142500D01*
D02*
G37*
G36*
X447984D02*
X446989D01*
X446071Y142119D01*
X445367Y141416D01*
X444987Y140497D01*
Y139503D01*
X445367Y138584D01*
X446071Y137881D01*
X446989Y137500D01*
X447984D01*
X448903Y137881D01*
X449606Y138584D01*
X449987Y139503D01*
Y140497D01*
X449606Y141416D01*
X448903Y142119D01*
X447984Y142500D01*
D02*
G37*
G36*
X440497D02*
X439503D01*
X438584Y142119D01*
X437881Y141416D01*
X437500Y140497D01*
Y139503D01*
X437881Y138584D01*
X438584Y137881D01*
X439503Y137500D01*
X440497D01*
X441416Y137881D01*
X442119Y138584D01*
X442500Y139503D01*
Y140497D01*
X442119Y141416D01*
X441416Y142119D01*
X440497Y142500D01*
D02*
G37*
G36*
X434979D02*
X433984D01*
X433066Y142119D01*
X432362Y141416D01*
X431982Y140497D01*
Y139503D01*
X432362Y138584D01*
X433066Y137881D01*
X433984Y137500D01*
X434979D01*
X435898Y137881D01*
X436601Y138584D01*
X436982Y139503D01*
Y140497D01*
X436601Y141416D01*
X435898Y142119D01*
X434979Y142500D01*
D02*
G37*
G36*
X428477D02*
X427482D01*
X426563Y142119D01*
X425860Y141416D01*
X425479Y140497D01*
Y139503D01*
X425860Y138584D01*
X426563Y137881D01*
X427482Y137500D01*
X428477D01*
X429395Y137881D01*
X430099Y138584D01*
X430479Y139503D01*
Y140497D01*
X430099Y141416D01*
X429395Y142119D01*
X428477Y142500D01*
D02*
G37*
G36*
X408995D02*
X408000D01*
X407081Y142119D01*
X406378Y141416D01*
X405998Y140497D01*
Y139503D01*
X406378Y138584D01*
X407081Y137881D01*
X408000Y137500D01*
X408995D01*
X409914Y137881D01*
X410617Y138584D01*
X410998Y139503D01*
Y140497D01*
X410617Y141416D01*
X409914Y142119D01*
X408995Y142500D01*
D02*
G37*
G36*
X389495Y142478D02*
X388500D01*
X387581Y142098D01*
X386878Y141394D01*
X386497Y140476D01*
Y139481D01*
X386878Y138562D01*
X387581Y137859D01*
X388500Y137478D01*
X389495D01*
X390414Y137859D01*
X391117Y138562D01*
X391497Y139481D01*
Y140476D01*
X391117Y141394D01*
X390414Y142098D01*
X389495Y142478D01*
D02*
G37*
G36*
X562888Y142791D02*
X561694D01*
X560592Y142334D01*
X559748Y141490D01*
X559291Y140388D01*
Y139194D01*
X559748Y138092D01*
X560592Y137248D01*
X561694Y136791D01*
X562888D01*
X563991Y137248D01*
X564834Y138092D01*
X565291Y139194D01*
Y140388D01*
X564834Y141490D01*
X563991Y142334D01*
X562888Y142791D01*
D02*
G37*
G36*
X555615Y141134D02*
X554421D01*
X553318Y140677D01*
X552475Y139833D01*
X552018Y138731D01*
Y137537D01*
X552475Y136434D01*
X553318Y135590D01*
X554421Y135134D01*
X555615D01*
X556717Y135590D01*
X557561Y136434D01*
X558018Y137537D01*
Y138731D01*
X557561Y139833D01*
X556717Y140677D01*
X555615Y141134D01*
D02*
G37*
G36*
X505873Y138999D02*
X504680D01*
X503577Y138542D01*
X502733Y137698D01*
X502277Y136595D01*
Y135402D01*
X502733Y134299D01*
X503577Y133455D01*
X504680Y132999D01*
X505873D01*
X506976Y133455D01*
X507820Y134299D01*
X508277Y135402D01*
Y136595D01*
X507820Y137698D01*
X506976Y138542D01*
X505873Y138999D01*
D02*
G37*
G36*
X334892Y143031D02*
X333698D01*
X332595Y142575D01*
X331752Y141731D01*
X331295Y140628D01*
Y139435D01*
X331752Y138332D01*
X332595Y137488D01*
X333698Y137031D01*
X334892D01*
X335091Y137114D01*
X334661Y136077D01*
Y134883D01*
X335118Y133781D01*
X335962Y132937D01*
X337064Y132480D01*
X338258D01*
X339360Y132937D01*
X340204Y133781D01*
X340661Y134883D01*
Y136077D01*
X340204Y137179D01*
X339360Y138023D01*
X338258Y138480D01*
X337064D01*
X336865Y138398D01*
X337295Y139435D01*
Y140628D01*
X336838Y141731D01*
X335994Y142575D01*
X334892Y143031D01*
D02*
G37*
G36*
X585000Y138358D02*
X583806D01*
X582704Y137901D01*
X581860Y137057D01*
X581403Y135955D01*
Y134761D01*
X581860Y133659D01*
X582704Y132815D01*
X583806Y132358D01*
X585000D01*
X586102Y132815D01*
X586946Y133659D01*
X587403Y134761D01*
Y135955D01*
X586946Y137057D01*
X586102Y137901D01*
X585000Y138358D01*
D02*
G37*
G36*
X370310Y138119D02*
X369116D01*
X368014Y137662D01*
X367170Y136819D01*
X366713Y135716D01*
Y134522D01*
X367170Y133420D01*
X368014Y132576D01*
X369116Y132119D01*
X370310D01*
X371413Y132576D01*
X372256Y133420D01*
X372713Y134522D01*
Y135716D01*
X372256Y136819D01*
X371413Y137662D01*
X370310Y138119D01*
D02*
G37*
G36*
X421974Y135998D02*
X420980D01*
X420061Y135617D01*
X419358Y134914D01*
X418977Y133995D01*
Y133000D01*
X419358Y132081D01*
X420061Y131378D01*
X420980Y130998D01*
X421974D01*
X422893Y131378D01*
X423596Y132081D01*
X423977Y133000D01*
Y133995D01*
X423596Y134914D01*
X422893Y135617D01*
X421974Y135998D01*
D02*
G37*
G36*
X415497D02*
X414503D01*
X413584Y135617D01*
X412881Y134914D01*
X412500Y133995D01*
Y133000D01*
X412881Y132081D01*
X413584Y131378D01*
X414503Y130998D01*
X415497D01*
X416416Y131378D01*
X417119Y132081D01*
X417500Y133000D01*
Y133995D01*
X417119Y134914D01*
X416416Y135617D01*
X415497Y135998D01*
D02*
G37*
G36*
X408995D02*
X408000D01*
X407081Y135617D01*
X406378Y134914D01*
X405998Y133995D01*
Y133000D01*
X406378Y132081D01*
X407081Y131378D01*
X408000Y130998D01*
X408995D01*
X409914Y131378D01*
X410617Y132081D01*
X410998Y133000D01*
Y133995D01*
X410617Y134914D01*
X409914Y135617D01*
X408995Y135998D01*
D02*
G37*
G36*
X395990D02*
X394995D01*
X394077Y135617D01*
X393373Y134914D01*
X392993Y133995D01*
Y133000D01*
X393373Y132081D01*
X394077Y131378D01*
X394995Y130998D01*
X395990D01*
X396909Y131378D01*
X397612Y132081D01*
X397993Y133000D01*
Y133995D01*
X397612Y134914D01*
X396909Y135617D01*
X395990Y135998D01*
D02*
G37*
G36*
X389488Y135926D02*
X388494D01*
X387575Y135545D01*
X386872Y134842D01*
X386491Y133923D01*
Y132929D01*
X386872Y132010D01*
X387575Y131307D01*
X388494Y130926D01*
X389488D01*
X390407Y131307D01*
X391110Y132010D01*
X391491Y132929D01*
Y133923D01*
X391110Y134842D01*
X390407Y135545D01*
X389488Y135926D01*
D02*
G37*
G36*
X377678Y134522D02*
X376683D01*
X375764Y134141D01*
X375061Y133438D01*
X374680Y132519D01*
Y131525D01*
X375061Y130606D01*
X375764Y129903D01*
X376683Y129522D01*
X377678D01*
X378596Y129903D01*
X379300Y130606D01*
X379680Y131525D01*
Y132519D01*
X379300Y133438D01*
X378596Y134141D01*
X377678Y134522D01*
D02*
G37*
G36*
X344869Y135450D02*
X343676D01*
X342573Y134994D01*
X341730Y134150D01*
X341273Y133047D01*
Y131854D01*
X341730Y130751D01*
X342573Y129907D01*
X343676Y129451D01*
X344869D01*
X345972Y129907D01*
X346816Y130751D01*
X347273Y131854D01*
Y133047D01*
X346816Y134150D01*
X345972Y134994D01*
X344869Y135450D01*
D02*
G37*
G36*
X351835Y135020D02*
X350641D01*
X349539Y134563D01*
X348695Y133719D01*
X348238Y132617D01*
Y131423D01*
X348695Y130321D01*
X349539Y129477D01*
X350641Y129020D01*
X351835D01*
X352937Y129477D01*
X353781Y130321D01*
X354238Y131423D01*
Y132617D01*
X353781Y133719D01*
X352937Y134563D01*
X351835Y135020D01*
D02*
G37*
G36*
X493288Y133000D02*
X492095D01*
X490992Y132543D01*
X490148Y131699D01*
X489691Y130597D01*
Y129403D01*
X490148Y128301D01*
X490992Y127457D01*
X492095Y127000D01*
X493288D01*
X494391Y127457D01*
X495235Y128301D01*
X495691Y129403D01*
Y130597D01*
X495235Y131699D01*
X494391Y132543D01*
X493288Y133000D01*
D02*
G37*
G36*
X506585Y132991D02*
X505391D01*
X504289Y132535D01*
X503445Y131691D01*
X502988Y130588D01*
Y129395D01*
X503445Y128292D01*
X504289Y127448D01*
X505391Y126991D01*
X506585D01*
X507687Y127448D01*
X508531Y128292D01*
X508988Y129395D01*
Y130588D01*
X508531Y131691D01*
X507687Y132535D01*
X506585Y132991D01*
D02*
G37*
G36*
X396591Y130183D02*
X395596D01*
X394677Y129802D01*
X393974Y129099D01*
X393593Y128180D01*
Y127185D01*
X393974Y126266D01*
X394677Y125563D01*
X395596Y125183D01*
X396591D01*
X397510Y125563D01*
X398213Y126266D01*
X398593Y127185D01*
Y128180D01*
X398213Y129099D01*
X397510Y129802D01*
X396591Y130183D01*
D02*
G37*
G36*
X447561Y130086D02*
X446567D01*
X445648Y129705D01*
X444944Y129002D01*
X444564Y128083D01*
Y127088D01*
X444944Y126170D01*
X445648Y125466D01*
X446567Y125086D01*
X447561D01*
X448480Y125466D01*
X449183Y126170D01*
X449564Y127088D01*
Y128083D01*
X449183Y129002D01*
X448480Y129705D01*
X447561Y130086D01*
D02*
G37*
G36*
X434979Y129495D02*
X433984D01*
X433066Y129115D01*
X432362Y128411D01*
X431982Y127493D01*
Y126498D01*
X432362Y125579D01*
X433066Y124876D01*
X433984Y124495D01*
X434979D01*
X435898Y124876D01*
X436601Y125579D01*
X436982Y126498D01*
Y127493D01*
X436601Y128411D01*
X435898Y129115D01*
X434979Y129495D01*
D02*
G37*
G36*
X428477D02*
X427482D01*
X426563Y129115D01*
X425860Y128411D01*
X425479Y127493D01*
Y126498D01*
X425860Y125579D01*
X426563Y124876D01*
X427482Y124495D01*
X428477D01*
X429395Y124876D01*
X430099Y125579D01*
X430479Y126498D01*
Y127493D01*
X430099Y128411D01*
X429395Y129115D01*
X428477Y129495D01*
D02*
G37*
G36*
X421974D02*
X420980D01*
X420061Y129115D01*
X419358Y128411D01*
X418977Y127493D01*
Y126498D01*
X419358Y125579D01*
X420061Y124876D01*
X420980Y124495D01*
X421974D01*
X422893Y124876D01*
X423596Y125579D01*
X423977Y126498D01*
Y127493D01*
X423596Y128411D01*
X422893Y129115D01*
X421974Y129495D01*
D02*
G37*
G36*
X415497D02*
X414503D01*
X413584Y129115D01*
X412881Y128411D01*
X412500Y127493D01*
Y126498D01*
X412881Y125579D01*
X413584Y124876D01*
X414503Y124495D01*
X415497D01*
X416416Y124876D01*
X417119Y125579D01*
X417500Y126498D01*
Y127493D01*
X417119Y128411D01*
X416416Y129115D01*
X415497Y129495D01*
D02*
G37*
G36*
X408995D02*
X408000D01*
X407081Y129115D01*
X406378Y128411D01*
X405998Y127493D01*
Y126498D01*
X406378Y125579D01*
X407081Y124876D01*
X408000Y124495D01*
X408995D01*
X409914Y124876D01*
X410617Y125579D01*
X410998Y126498D01*
Y127493D01*
X410617Y128411D01*
X409914Y129115D01*
X408995Y129495D01*
D02*
G37*
G36*
X467534Y129484D02*
X466540D01*
X465621Y129104D01*
X464918Y128400D01*
X464537Y127481D01*
Y126487D01*
X464918Y125568D01*
X465621Y124865D01*
X466540Y124484D01*
X467534D01*
X468453Y124865D01*
X469156Y125568D01*
X469537Y126487D01*
Y127481D01*
X469156Y128400D01*
X468453Y129104D01*
X467534Y129484D01*
D02*
G37*
G36*
X440737Y129447D02*
X439742D01*
X438824Y129066D01*
X438120Y128363D01*
X437740Y127444D01*
Y126449D01*
X438120Y125531D01*
X438824Y124827D01*
X439742Y124447D01*
X440737D01*
X441656Y124827D01*
X442359Y125531D01*
X442740Y126449D01*
Y127444D01*
X442359Y128363D01*
X441656Y129066D01*
X440737Y129447D01*
D02*
G37*
G36*
X455153Y128849D02*
X454159D01*
X453240Y128468D01*
X452537Y127765D01*
X452156Y126846D01*
Y125851D01*
X452537Y124932D01*
X453240Y124229D01*
X454159Y123849D01*
X455153D01*
X456072Y124229D01*
X456776Y124932D01*
X457156Y125851D01*
Y126846D01*
X456776Y127765D01*
X456072Y128468D01*
X455153Y128849D01*
D02*
G37*
G36*
X533316Y134833D02*
X531128D01*
X529106Y133995D01*
X527559Y132448D01*
X526722Y130427D01*
Y128239D01*
X527559Y126217D01*
X529106Y124670D01*
X531128Y123833D01*
X533316D01*
X535337Y124670D01*
X536885Y126217D01*
X537722Y128239D01*
Y130427D01*
X536885Y132448D01*
X535337Y133995D01*
X533316Y134833D01*
D02*
G37*
G36*
X563875Y128917D02*
X562681D01*
X561579Y128460D01*
X560735Y127616D01*
X560278Y126514D01*
Y125320D01*
X560735Y124217D01*
X561579Y123373D01*
X562681Y122917D01*
X563875D01*
X564977Y123373D01*
X565821Y124217D01*
X566278Y125320D01*
Y126514D01*
X565821Y127616D01*
X564977Y128460D01*
X563875Y128917D01*
D02*
G37*
G36*
X369820Y127557D02*
X368627D01*
X367524Y127100D01*
X366680Y126256D01*
X366223Y125153D01*
Y123960D01*
X366680Y122857D01*
X367524Y122013D01*
X368627Y121557D01*
X369820D01*
X370923Y122013D01*
X371767Y122857D01*
X372223Y123960D01*
Y125153D01*
X371767Y126256D01*
X370923Y127100D01*
X369820Y127557D01*
D02*
G37*
G36*
X506585Y126820D02*
X505391D01*
X504289Y126363D01*
X503445Y125520D01*
X502988Y124417D01*
Y123223D01*
X503445Y122121D01*
X504289Y121277D01*
X505391Y120820D01*
X506585D01*
X507687Y121277D01*
X508531Y122121D01*
X508988Y123223D01*
Y124417D01*
X508531Y125520D01*
X507687Y126363D01*
X506585Y126820D01*
D02*
G37*
G36*
X403609Y124077D02*
X402614D01*
X401696Y123696D01*
X400992Y122993D01*
X400612Y122074D01*
Y121080D01*
X400992Y120161D01*
X401696Y119458D01*
X402614Y119077D01*
X403609D01*
X404528Y119458D01*
X405231Y120161D01*
X405612Y121080D01*
Y122074D01*
X405231Y122993D01*
X404528Y123696D01*
X403609Y124077D01*
D02*
G37*
G36*
X389258Y123517D02*
X388264D01*
X387345Y123136D01*
X386642Y122433D01*
X386261Y121514D01*
Y120520D01*
X386642Y119601D01*
X387345Y118897D01*
X388264Y118517D01*
X389258D01*
X390177Y118897D01*
X390881Y119601D01*
X391261Y120520D01*
Y121514D01*
X390881Y122433D01*
X390177Y123136D01*
X389258Y123517D01*
D02*
G37*
G36*
X502556Y119697D02*
X501362D01*
X500260Y119240D01*
X499455Y118436D01*
X498658Y119232D01*
X497556Y119689D01*
X496362D01*
X495260Y119232D01*
X494416Y118388D01*
X493959Y117286D01*
Y116092D01*
X494416Y114990D01*
X495260Y114146D01*
X496362Y113689D01*
X497556D01*
X498658Y114146D01*
X499463Y114950D01*
X500260Y114154D01*
X501362Y113697D01*
X502556D01*
X503534Y114102D01*
Y113835D01*
X503991Y112733D01*
X504834Y111889D01*
X505937Y111432D01*
X507131D01*
X508233Y111889D01*
X509077Y112733D01*
X509534Y113835D01*
Y115029D01*
X509077Y116131D01*
X508233Y116975D01*
X507131Y117432D01*
X505937D01*
X504959Y117027D01*
Y117294D01*
X504502Y118396D01*
X503658Y119240D01*
X502556Y119697D01*
D02*
G37*
G36*
X421974Y122993D02*
X420980D01*
X420061Y122612D01*
X419358Y121909D01*
X418977Y120990D01*
Y119995D01*
X419358Y119077D01*
X420061Y118373D01*
X420980Y117993D01*
X421974D01*
X422893Y118373D01*
X423596Y119077D01*
X423977Y119995D01*
Y120990D01*
X423596Y121909D01*
X422893Y122612D01*
X421974Y122993D01*
D02*
G37*
G36*
X415497D02*
X414503D01*
X413584Y122612D01*
X412881Y121909D01*
X412500Y120990D01*
Y119995D01*
X412881Y119077D01*
X413584Y118373D01*
X414503Y117993D01*
X415497D01*
X416416Y118373D01*
X417119Y119077D01*
X417500Y119995D01*
Y120990D01*
X417119Y121909D01*
X416416Y122612D01*
X415497Y122993D01*
D02*
G37*
G36*
X364044Y123774D02*
X362851D01*
X361748Y123318D01*
X360904Y122474D01*
X360448Y121371D01*
Y120178D01*
X360904Y119075D01*
X361748Y118231D01*
X362851Y117774D01*
X364044D01*
X365147Y118231D01*
X365991Y119075D01*
X366447Y120178D01*
Y121371D01*
X365991Y122474D01*
X365147Y123318D01*
X364044Y123774D01*
D02*
G37*
G36*
X462105Y121844D02*
X461111D01*
X460192Y121463D01*
X459488Y120760D01*
X459108Y119841D01*
Y118847D01*
X459488Y117928D01*
X460192Y117225D01*
X461111Y116844D01*
X462105D01*
X463024Y117225D01*
X463727Y117928D01*
X464108Y118847D01*
Y119841D01*
X463727Y120760D01*
X463024Y121463D01*
X462105Y121844D01*
D02*
G37*
G36*
X345909Y122745D02*
X344716D01*
X343613Y122288D01*
X342769Y121444D01*
X342312Y120342D01*
Y119148D01*
X342769Y118046D01*
X343613Y117202D01*
X344716Y116745D01*
X345909D01*
X347012Y117202D01*
X347856Y118046D01*
X348312Y119148D01*
Y120342D01*
X347856Y121444D01*
X347012Y122288D01*
X345909Y122745D01*
D02*
G37*
G36*
X557319Y122333D02*
X556125D01*
X555023Y121876D01*
X554179Y121032D01*
X553722Y119929D01*
Y118736D01*
X554179Y117633D01*
X555023Y116789D01*
X556125Y116333D01*
X557319D01*
X558421Y116789D01*
X559265Y117633D01*
X559722Y118736D01*
Y119929D01*
X559265Y121032D01*
X558421Y121876D01*
X557319Y122333D01*
D02*
G37*
G36*
X402492Y117458D02*
X401498D01*
X400579Y117078D01*
X399876Y116375D01*
X399495Y115456D01*
Y114461D01*
X399876Y113542D01*
X400579Y112839D01*
X401498Y112458D01*
X402492D01*
X403411Y112839D01*
X404115Y113542D01*
X404495Y114461D01*
Y115456D01*
X404115Y116375D01*
X403411Y117078D01*
X402492Y117458D01*
D02*
G37*
G36*
X447988Y116522D02*
X446994D01*
X446075Y116142D01*
X445372Y115438D01*
X444991Y114520D01*
Y113525D01*
X445372Y112606D01*
X446075Y111903D01*
X446994Y111522D01*
X447988D01*
X448907Y111903D01*
X449610Y112606D01*
X449991Y113525D01*
Y114520D01*
X449610Y115438D01*
X448907Y116142D01*
X447988Y116522D01*
D02*
G37*
G36*
X454486Y116490D02*
X453492D01*
X452573Y116110D01*
X451870Y115407D01*
X451489Y114488D01*
Y113493D01*
X451870Y112574D01*
X452573Y111871D01*
X453492Y111490D01*
X454486D01*
X455405Y111871D01*
X456108Y112574D01*
X456489Y113493D01*
Y114488D01*
X456108Y115407D01*
X455405Y116110D01*
X454486Y116490D01*
D02*
G37*
G36*
X441482D02*
X440487D01*
X439568Y116110D01*
X438865Y115407D01*
X438484Y114488D01*
Y113493D01*
X438865Y112574D01*
X439568Y111871D01*
X440487Y111490D01*
X441482D01*
X442400Y111871D01*
X443104Y112574D01*
X443484Y113493D01*
Y114488D01*
X443104Y115407D01*
X442400Y116110D01*
X441482Y116490D01*
D02*
G37*
G36*
X428477D02*
X427482D01*
X426563Y116110D01*
X425860Y115407D01*
X425479Y114488D01*
Y113493D01*
X425860Y112574D01*
X426563Y111871D01*
X427482Y111490D01*
X428477D01*
X429395Y111871D01*
X430099Y112574D01*
X430479Y113493D01*
Y114488D01*
X430099Y115407D01*
X429395Y116110D01*
X428477Y116490D01*
D02*
G37*
G36*
X415497D02*
X414503D01*
X413584Y116110D01*
X412881Y115407D01*
X412500Y114488D01*
Y113493D01*
X412881Y112574D01*
X413584Y111871D01*
X414503Y111490D01*
X415497D01*
X416416Y111871D01*
X417119Y112574D01*
X417500Y113493D01*
Y114488D01*
X417119Y115407D01*
X416416Y116110D01*
X415497Y116490D01*
D02*
G37*
G36*
X382985D02*
X381991D01*
X381072Y116110D01*
X380369Y115407D01*
X379988Y114488D01*
Y113493D01*
X380369Y112574D01*
X381072Y111871D01*
X381991Y111490D01*
X382985D01*
X383904Y111871D01*
X384607Y112574D01*
X384988Y113493D01*
Y114488D01*
X384607Y115407D01*
X383904Y116110D01*
X382985Y116490D01*
D02*
G37*
G36*
X388466Y115993D02*
X387472D01*
X386553Y115612D01*
X385849Y114909D01*
X385469Y113990D01*
Y112996D01*
X385849Y112077D01*
X386553Y111374D01*
X387472Y110993D01*
X388466D01*
X389385Y111374D01*
X390088Y112077D01*
X390469Y112996D01*
Y113990D01*
X390088Y114909D01*
X389385Y115612D01*
X388466Y115993D01*
D02*
G37*
G36*
X293347Y116000D02*
X292153D01*
X291051Y115543D01*
X290207Y114699D01*
X289750Y113597D01*
Y112403D01*
X290207Y111301D01*
X291051Y110457D01*
X292153Y110000D01*
X293347D01*
X294449Y110457D01*
X295293Y111301D01*
X295750Y112403D01*
Y113597D01*
X295293Y114699D01*
X294449Y115543D01*
X293347Y116000D01*
D02*
G37*
G36*
X280347D02*
X279153D01*
X278051Y115543D01*
X277207Y114699D01*
X276750Y113597D01*
Y112403D01*
X277207Y111301D01*
X278051Y110457D01*
X279153Y110000D01*
X280347D01*
X281449Y110457D01*
X282293Y111301D01*
X282750Y112403D01*
Y113597D01*
X282293Y114699D01*
X281449Y115543D01*
X280347Y116000D01*
D02*
G37*
G36*
X360960Y113188D02*
X359767D01*
X358664Y112731D01*
X357820Y111887D01*
X357363Y110785D01*
Y109591D01*
X357820Y108489D01*
X358664Y107645D01*
X359767Y107188D01*
X360960D01*
X362063Y107645D01*
X362906Y108489D01*
X363363Y109591D01*
Y110785D01*
X362906Y111887D01*
X362063Y112731D01*
X360960Y113188D01*
D02*
G37*
G36*
X306046Y112837D02*
X304853D01*
X303750Y112380D01*
X302906Y111536D01*
X302449Y110434D01*
Y109240D01*
X302906Y108137D01*
X303750Y107294D01*
X304853Y106837D01*
X306046D01*
X307149Y107294D01*
X307993Y108137D01*
X308449Y109240D01*
Y110434D01*
X307993Y111536D01*
X307149Y112380D01*
X306046Y112837D01*
D02*
G37*
G36*
X467497Y109965D02*
X466502D01*
X465583Y109584D01*
X464880Y108881D01*
X464499Y107962D01*
Y106968D01*
X464880Y106049D01*
X465583Y105346D01*
X466502Y104965D01*
X467497D01*
X468415Y105346D01*
X469119Y106049D01*
X469499Y106968D01*
Y107962D01*
X469119Y108881D01*
X468415Y109584D01*
X467497Y109965D01*
D02*
G37*
G36*
X408919D02*
X407924D01*
X407006Y109584D01*
X406302Y108881D01*
X405922Y107962D01*
Y106968D01*
X406302Y106049D01*
X407006Y105346D01*
X407924Y104965D01*
X408919D01*
X409838Y105346D01*
X410541Y106049D01*
X410922Y106968D01*
Y107962D01*
X410541Y108881D01*
X409838Y109584D01*
X408919Y109965D01*
D02*
G37*
G36*
X402470Y109934D02*
X401475D01*
X400556Y109554D01*
X399853Y108850D01*
X399472Y107932D01*
Y106937D01*
X399853Y106018D01*
X400556Y105315D01*
X401475Y104934D01*
X402470D01*
X403388Y105315D01*
X404092Y106018D01*
X404472Y106937D01*
Y107932D01*
X404092Y108850D01*
X403388Y109554D01*
X402470Y109934D01*
D02*
G37*
G36*
X394946Y108966D02*
X393951D01*
X393032Y108586D01*
X392329Y107882D01*
X391948Y106964D01*
Y105969D01*
X392329Y105050D01*
X393032Y104347D01*
X393951Y103966D01*
X394946D01*
X395864Y104347D01*
X396568Y105050D01*
X396948Y105969D01*
Y106964D01*
X396568Y107882D01*
X395864Y108586D01*
X394946Y108966D01*
D02*
G37*
G36*
X459872Y108839D02*
X458878D01*
X457959Y108459D01*
X457256Y107755D01*
X456875Y106837D01*
Y105842D01*
X457256Y104923D01*
X457959Y104220D01*
X458878Y103839D01*
X459872D01*
X460791Y104220D01*
X461494Y104923D01*
X461875Y105842D01*
Y106837D01*
X461494Y107755D01*
X460791Y108459D01*
X459872Y108839D01*
D02*
G37*
G36*
X533316Y114833D02*
X531128D01*
X529106Y113995D01*
X527559Y112448D01*
X526722Y110427D01*
Y108239D01*
X527559Y106217D01*
X529106Y104670D01*
X531128Y103833D01*
X533316D01*
X535337Y104670D01*
X536885Y106217D01*
X537722Y108239D01*
Y110427D01*
X536885Y112448D01*
X535337Y113995D01*
X533316Y114833D01*
D02*
G37*
G36*
X556999Y109259D02*
X555606D01*
X554320Y108726D01*
X553336Y107742D01*
X552803Y106455D01*
Y105063D01*
X553336Y103777D01*
X554320Y102792D01*
X555606Y102259D01*
X556999D01*
X558285Y102792D01*
X559270Y103777D01*
X559803Y105063D01*
Y106455D01*
X559270Y107742D01*
X558285Y108726D01*
X556999Y109259D01*
D02*
G37*
G36*
X280310Y105747D02*
X279117D01*
X278014Y105290D01*
X277170Y104446D01*
X276714Y103343D01*
Y102150D01*
X277170Y101047D01*
X278014Y100204D01*
X279117Y99747D01*
X280310D01*
X281413Y100204D01*
X282257Y101047D01*
X282714Y102150D01*
Y103343D01*
X282257Y104446D01*
X281413Y105290D01*
X280310Y105747D01*
D02*
G37*
G36*
X305662Y105711D02*
X304468D01*
X303366Y105254D01*
X302522Y104410D01*
X302065Y103308D01*
Y102114D01*
X302522Y101012D01*
X303366Y100168D01*
X304468Y99711D01*
X305662D01*
X306765Y100168D01*
X307609Y101012D01*
X308065Y102114D01*
Y103308D01*
X307609Y104410D01*
X306765Y105254D01*
X305662Y105711D01*
D02*
G37*
G36*
X415084Y103839D02*
X414089D01*
X413170Y103458D01*
X412467Y102755D01*
X412086Y101836D01*
Y100841D01*
X412467Y99923D01*
X413170Y99219D01*
X414089Y98839D01*
X415084D01*
X416002Y99219D01*
X416706Y99923D01*
X417086Y100841D01*
Y101836D01*
X416706Y102755D01*
X416002Y103458D01*
X415084Y103839D01*
D02*
G37*
G36*
X473984Y103554D02*
X472989D01*
X472071Y103173D01*
X471367Y102470D01*
X470987Y101551D01*
Y100557D01*
X471367Y99638D01*
X472071Y98934D01*
X472989Y98554D01*
X473984D01*
X474903Y98934D01*
X475606Y99638D01*
X475987Y100557D01*
Y101551D01*
X475606Y102470D01*
X474903Y103173D01*
X473984Y103554D01*
D02*
G37*
G36*
X441471Y103516D02*
X440476D01*
X439557Y103135D01*
X438854Y102432D01*
X438473Y101513D01*
Y100518D01*
X438854Y99600D01*
X439557Y98896D01*
X440476Y98516D01*
X441471D01*
X442389Y98896D01*
X443093Y99600D01*
X443473Y100518D01*
Y101513D01*
X443093Y102432D01*
X442389Y103135D01*
X441471Y103516D01*
D02*
G37*
G36*
X421970D02*
X420975D01*
X420057Y103135D01*
X419353Y102432D01*
X418973Y101513D01*
Y100518D01*
X419353Y99600D01*
X420057Y98896D01*
X420975Y98516D01*
X421970D01*
X422889Y98896D01*
X423592Y99600D01*
X423973Y100518D01*
Y101513D01*
X423592Y102432D01*
X422889Y103135D01*
X421970Y103516D01*
D02*
G37*
G36*
X480496Y103486D02*
X479501D01*
X478582Y103105D01*
X477879Y102402D01*
X477499Y101483D01*
Y100488D01*
X477879Y99570D01*
X478582Y98866D01*
X479501Y98486D01*
X480496D01*
X481415Y98866D01*
X482118Y99570D01*
X482499Y100488D01*
Y101483D01*
X482118Y102402D01*
X481415Y103105D01*
X480496Y103486D01*
D02*
G37*
G36*
X467491D02*
X466497D01*
X465578Y103105D01*
X464874Y102402D01*
X464494Y101483D01*
Y100488D01*
X464874Y99570D01*
X465578Y98866D01*
X466497Y98486D01*
X467491D01*
X468410Y98866D01*
X469113Y99570D01*
X469494Y100488D01*
Y101483D01*
X469113Y102402D01*
X468410Y103105D01*
X467491Y103486D01*
D02*
G37*
G36*
X454524Y103482D02*
X453530D01*
X452611Y103102D01*
X451908Y102399D01*
X451527Y101480D01*
Y100485D01*
X451908Y99566D01*
X452611Y98863D01*
X453530Y98482D01*
X454524D01*
X455443Y98863D01*
X456146Y99566D01*
X456527Y100485D01*
Y101480D01*
X456146Y102399D01*
X455443Y103102D01*
X454524Y103482D01*
D02*
G37*
G36*
X447958Y103478D02*
X446963D01*
X446045Y103097D01*
X445341Y102394D01*
X444961Y101475D01*
Y100480D01*
X445341Y99561D01*
X446045Y98858D01*
X446963Y98478D01*
X447958D01*
X448877Y98858D01*
X449580Y99561D01*
X449961Y100480D01*
Y101475D01*
X449580Y102394D01*
X448877Y103097D01*
X447958Y103478D01*
D02*
G37*
G36*
X460971Y103439D02*
X459977D01*
X459058Y103059D01*
X458354Y102355D01*
X457974Y101437D01*
Y100442D01*
X458354Y99523D01*
X459058Y98820D01*
X459977Y98439D01*
X460971D01*
X461890Y98820D01*
X462593Y99523D01*
X462974Y100442D01*
Y101437D01*
X462593Y102355D01*
X461890Y103059D01*
X460971Y103439D01*
D02*
G37*
G36*
X408995D02*
X408001D01*
X407082Y103059D01*
X406379Y102355D01*
X405998Y101437D01*
Y100442D01*
X406379Y99523D01*
X407082Y98820D01*
X408001Y98439D01*
X408995D01*
X409914Y98820D01*
X410617Y99523D01*
X410998Y100442D01*
Y101437D01*
X410617Y102355D01*
X409914Y103059D01*
X408995Y103439D01*
D02*
G37*
G36*
X402553Y102476D02*
X401558D01*
X400639Y102096D01*
X399936Y101392D01*
X399556Y100474D01*
Y99479D01*
X399936Y98560D01*
X400639Y97857D01*
X401558Y97476D01*
X402553D01*
X403472Y97857D01*
X404175Y98560D01*
X404556Y99479D01*
Y100474D01*
X404175Y101392D01*
X403472Y102096D01*
X402553Y102476D01*
D02*
G37*
G36*
X441445Y97076D02*
X440450D01*
X439531Y96695D01*
X438828Y95992D01*
X438447Y95073D01*
Y94078D01*
X438828Y93160D01*
X439531Y92456D01*
X440450Y92076D01*
X441445D01*
X442364Y92456D01*
X443067Y93160D01*
X443447Y94078D01*
Y95073D01*
X443067Y95992D01*
X442364Y96695D01*
X441445Y97076D01*
D02*
G37*
G36*
X396006Y97057D02*
X395012D01*
X394093Y96676D01*
X393390Y95973D01*
X393009Y95054D01*
Y94060D01*
X393390Y93141D01*
X394093Y92437D01*
X395012Y92057D01*
X396006D01*
X396925Y92437D01*
X397629Y93141D01*
X398009Y94060D01*
Y95054D01*
X397629Y95973D01*
X396925Y96676D01*
X396006Y97057D01*
D02*
G37*
G36*
X422110Y97009D02*
X421116D01*
X420197Y96628D01*
X419494Y95925D01*
X419113Y95006D01*
Y94011D01*
X419494Y93092D01*
X420197Y92389D01*
X421116Y92009D01*
X422110D01*
X423029Y92389D01*
X423732Y93092D01*
X424113Y94011D01*
Y95006D01*
X423732Y95925D01*
X423029Y96628D01*
X422110Y97009D01*
D02*
G37*
G36*
X460894Y96972D02*
X459900D01*
X458981Y96592D01*
X458278Y95888D01*
X457897Y94970D01*
Y93975D01*
X458278Y93056D01*
X458981Y92353D01*
X459900Y91972D01*
X460894D01*
X461813Y92353D01*
X462516Y93056D01*
X462897Y93975D01*
Y94970D01*
X462516Y95888D01*
X461813Y96592D01*
X460894Y96972D01*
D02*
G37*
G36*
X370143Y97021D02*
X368950D01*
X367847Y96564D01*
X367003Y95721D01*
X366547Y94618D01*
Y93424D01*
X367003Y92322D01*
X367847Y91478D01*
X368950Y91021D01*
X370143D01*
X371246Y91478D01*
X372090Y92322D01*
X372547Y93424D01*
Y94618D01*
X372090Y95721D01*
X371246Y96564D01*
X370143Y97021D01*
D02*
G37*
G36*
X415747Y92500D02*
X414753D01*
X413834Y92119D01*
X413131Y91416D01*
X412750Y90497D01*
Y89503D01*
X413131Y88584D01*
X413834Y87881D01*
X414753Y87500D01*
X415747D01*
X416666Y87881D01*
X417369Y88584D01*
X417750Y89503D01*
Y90497D01*
X417369Y91416D01*
X416666Y92119D01*
X415747Y92500D01*
D02*
G37*
G36*
X404949Y92055D02*
X403955D01*
X403036Y91674D01*
X402333Y90971D01*
X401952Y90052D01*
Y89058D01*
X402333Y88139D01*
X403036Y87436D01*
X403955Y87055D01*
X404949D01*
X405868Y87436D01*
X406571Y88139D01*
X406952Y89058D01*
Y90052D01*
X406571Y90971D01*
X405868Y91674D01*
X404949Y92055D01*
D02*
G37*
G36*
X439801Y91355D02*
X438806D01*
X437888Y90975D01*
X437184Y90271D01*
X436804Y89353D01*
Y88358D01*
X437184Y87439D01*
X437888Y86736D01*
X438806Y86355D01*
X439801D01*
X440720Y86736D01*
X441423Y87439D01*
X441804Y88358D01*
Y89353D01*
X441423Y90271D01*
X440720Y90975D01*
X439801Y91355D01*
D02*
G37*
G36*
X466576Y91288D02*
X465581D01*
X464662Y90907D01*
X463959Y90204D01*
X463578Y89285D01*
Y88291D01*
X463959Y87372D01*
X464662Y86669D01*
X465581Y86288D01*
X466576D01*
X467495Y86669D01*
X468198Y87372D01*
X468578Y88291D01*
Y89285D01*
X468198Y90204D01*
X467495Y90907D01*
X466576Y91288D01*
D02*
G37*
G36*
X332576Y91913D02*
X331383D01*
X330280Y91456D01*
X329436Y90612D01*
X328980Y89510D01*
Y88316D01*
X329436Y87213D01*
X330280Y86370D01*
X331383Y85913D01*
X332576D01*
X333679Y86370D01*
X334523Y87213D01*
X334980Y88316D01*
Y89510D01*
X334523Y90612D01*
X333679Y91456D01*
X332576Y91913D01*
D02*
G37*
G36*
X449546Y90674D02*
X448551D01*
X447633Y90293D01*
X446929Y89590D01*
X446549Y88671D01*
Y87676D01*
X446929Y86758D01*
X447633Y86054D01*
X448551Y85674D01*
X449546D01*
X450465Y86054D01*
X451168Y86758D01*
X451549Y87676D01*
Y88671D01*
X451168Y89590D01*
X450465Y90293D01*
X449546Y90674D01*
D02*
G37*
G36*
X340123Y87704D02*
X338930D01*
X337827Y87247D01*
X336983Y86403D01*
X336527Y85300D01*
Y84107D01*
X336983Y83004D01*
X337827Y82160D01*
X338930Y81704D01*
X340123D01*
X341226Y82160D01*
X342070Y83004D01*
X342527Y84107D01*
Y85300D01*
X342070Y86403D01*
X341226Y87247D01*
X340123Y87704D01*
D02*
G37*
G36*
X387938Y87620D02*
X386745D01*
X385642Y87163D01*
X384799Y86320D01*
X384342Y85217D01*
Y84024D01*
X384799Y82921D01*
X385642Y82077D01*
X386745Y81620D01*
X387938D01*
X389041Y82077D01*
X389885Y82921D01*
X390342Y84024D01*
Y85217D01*
X389885Y86320D01*
X389041Y87163D01*
X387938Y87620D01*
D02*
G37*
G36*
X366712Y82325D02*
X365519D01*
X364416Y81868D01*
X363572Y81024D01*
X363116Y79921D01*
Y78787D01*
X362332Y79570D01*
X361230Y80027D01*
X360036D01*
X358934Y79570D01*
X358090Y78727D01*
X357633Y77624D01*
Y76431D01*
X358090Y75328D01*
X358934Y74484D01*
X360036Y74027D01*
X361230D01*
X362332Y74484D01*
X363176Y75328D01*
X363633Y76431D01*
Y77565D01*
X364416Y76781D01*
X365519Y76325D01*
X366712D01*
X367815Y76781D01*
X368659Y77625D01*
X369116Y78728D01*
Y79921D01*
X368659Y81024D01*
X367815Y81868D01*
X366712Y82325D01*
D02*
G37*
G36*
X467272Y81155D02*
X466078D01*
X464976Y80698D01*
X464132Y79854D01*
X463675Y78752D01*
Y77558D01*
X464132Y76455D01*
X464976Y75612D01*
X466078Y75155D01*
X467272D01*
X468374Y75612D01*
X469218Y76455D01*
X469675Y77558D01*
Y78752D01*
X469218Y79854D01*
X468374Y80698D01*
X467272Y81155D01*
D02*
G37*
G36*
X353298Y80753D02*
X352105D01*
X351002Y80296D01*
X350158Y79453D01*
X349702Y78350D01*
Y77156D01*
X350158Y76054D01*
X351002Y75210D01*
X352105Y74753D01*
X353298D01*
X354401Y75210D01*
X355245Y76054D01*
X355702Y77156D01*
Y78350D01*
X355245Y79453D01*
X354401Y80296D01*
X353298Y80753D01*
D02*
G37*
G36*
X446835Y70352D02*
X445642D01*
X444539Y69895D01*
X443695Y69051D01*
X443272Y68031D01*
X443052Y68564D01*
X442208Y69408D01*
X441105Y69865D01*
X439912D01*
X438809Y69408D01*
X437965Y68564D01*
X437509Y67461D01*
Y66268D01*
X437965Y65165D01*
X438809Y64321D01*
X439912Y63864D01*
X441105D01*
X442208Y64321D01*
X443052Y65165D01*
X443474Y66185D01*
X443695Y65652D01*
X444539Y64809D01*
X445642Y64352D01*
X446835D01*
X447938Y64809D01*
X448782Y65652D01*
X449238Y66755D01*
Y67948D01*
X448782Y69051D01*
X447938Y69895D01*
X446835Y70352D01*
D02*
G37*
G36*
X465195Y70065D02*
X464002D01*
X462899Y69608D01*
X462055Y68765D01*
X461709Y67930D01*
X461391Y68698D01*
X460548Y69542D01*
X459445Y69998D01*
X458251D01*
X457149Y69542D01*
X456305Y68698D01*
X455848Y67595D01*
Y66402D01*
X456305Y65299D01*
X457149Y64455D01*
X458251Y63998D01*
X459445D01*
X460548Y64455D01*
X461391Y65299D01*
X461737Y66133D01*
X462055Y65366D01*
X462899Y64522D01*
X464002Y64065D01*
X465195D01*
X466298Y64522D01*
X467142Y65366D01*
X467598Y66469D01*
Y67662D01*
X467142Y68765D01*
X466298Y69608D01*
X465195Y70065D01*
D02*
G37*
G36*
X371418Y70040D02*
X370225D01*
X369122Y69584D01*
X368278Y68740D01*
X367822Y67637D01*
Y66444D01*
X368278Y65341D01*
X369122Y64497D01*
X370225Y64040D01*
X371418D01*
X372521Y64497D01*
X373365Y65341D01*
X373821Y66444D01*
Y67637D01*
X373365Y68740D01*
X372521Y69584D01*
X371418Y70040D01*
D02*
G37*
G36*
X362990Y69998D02*
X361797D01*
X360694Y69542D01*
X359850Y68698D01*
X359393Y67595D01*
Y66402D01*
X359850Y65299D01*
X360694Y64455D01*
X361797Y63998D01*
X362990D01*
X364093Y64455D01*
X364937Y65299D01*
X365393Y66402D01*
Y67595D01*
X364937Y68698D01*
X364093Y69542D01*
X362990Y69998D01*
D02*
G37*
G36*
X413320Y69748D02*
X412126D01*
X411024Y69292D01*
X410180Y68448D01*
X409723Y67345D01*
Y66152D01*
X410180Y65049D01*
X411024Y64205D01*
X412126Y63748D01*
X413320D01*
X414422Y64205D01*
X415266Y65049D01*
X415723Y66152D01*
Y67345D01*
X415266Y68448D01*
X414422Y69292D01*
X413320Y69748D01*
D02*
G37*
G36*
X405273Y69168D02*
X404080D01*
X402977Y68712D01*
X402133Y67868D01*
X401677Y66765D01*
Y65572D01*
X402133Y64469D01*
X402977Y63625D01*
X404080Y63168D01*
X405273D01*
X406376Y63625D01*
X407220Y64469D01*
X407677Y65572D01*
Y66765D01*
X407220Y67868D01*
X406376Y68712D01*
X405273Y69168D01*
D02*
G37*
G36*
X511100Y62647D02*
X509906D01*
X508803Y62190D01*
X507960Y61346D01*
X507503Y60244D01*
Y59050D01*
X507960Y57948D01*
X508803Y57104D01*
X509906Y56647D01*
X511100D01*
X512202Y57104D01*
X513046Y57948D01*
X513503Y59050D01*
Y60244D01*
X513046Y61346D01*
X512202Y62190D01*
X511100Y62647D01*
D02*
G37*
G36*
X542120Y62416D02*
X540926D01*
X539823Y61960D01*
X538980Y61116D01*
X538523Y60013D01*
Y58820D01*
X538980Y57717D01*
X539823Y56873D01*
X540926Y56416D01*
X542120D01*
X543222Y56873D01*
X544066Y57717D01*
X544523Y58820D01*
Y60013D01*
X544066Y61116D01*
X543222Y61960D01*
X542120Y62416D01*
D02*
G37*
G36*
X358643Y62119D02*
X357449D01*
X356347Y61662D01*
X355503Y60818D01*
X355046Y59716D01*
Y58522D01*
X355503Y57420D01*
X356347Y56576D01*
X357449Y56119D01*
X358643D01*
X359746Y56576D01*
X360589Y57420D01*
X361046Y58522D01*
Y59716D01*
X360589Y60818D01*
X359746Y61662D01*
X358643Y62119D01*
D02*
G37*
G36*
X322446Y65477D02*
X321253D01*
X320150Y65020D01*
X319306Y64176D01*
X318850Y63074D01*
Y61880D01*
X319306Y60777D01*
X320139Y59945D01*
X319347Y59617D01*
X318503Y58773D01*
X318047Y57671D01*
Y56477D01*
X318503Y55375D01*
X319347Y54531D01*
X320450Y54074D01*
X321643D01*
X322746Y54531D01*
X323590Y55375D01*
X324047Y56477D01*
Y57671D01*
X323590Y58773D01*
X322758Y59606D01*
X323549Y59934D01*
X324393Y60777D01*
X324849Y61880D01*
Y63074D01*
X324393Y64176D01*
X323549Y65020D01*
X322446Y65477D01*
D02*
G37*
G36*
X498124Y59039D02*
X496930D01*
X495827Y58583D01*
X494983Y57738D01*
X494527Y56636D01*
Y55442D01*
X494983Y54340D01*
X495827Y53496D01*
X496930Y53039D01*
X498124D01*
X499226Y53496D01*
X500070Y54340D01*
X500151Y54534D01*
Y54067D01*
X500607Y52964D01*
X501451Y52120D01*
X502554Y51663D01*
X503747D01*
X504850Y52120D01*
X505694Y52964D01*
X506151Y54067D01*
Y55260D01*
X505694Y56363D01*
X504850Y57207D01*
X503747Y57663D01*
X502554D01*
X501451Y57207D01*
X500607Y56363D01*
X500527Y56168D01*
Y56636D01*
X500070Y57738D01*
X499226Y58583D01*
X498124Y59039D01*
D02*
G37*
G36*
X328025Y54897D02*
X326831D01*
X325729Y54440D01*
X324885Y53597D01*
X324428Y52494D01*
Y51300D01*
X324885Y50198D01*
X325729Y49354D01*
X326831Y48897D01*
X328025D01*
X329127Y49354D01*
X329971Y50198D01*
X330428Y51300D01*
Y52494D01*
X329971Y53597D01*
X329127Y54440D01*
X328025Y54897D01*
D02*
G37*
G36*
X563385Y54832D02*
X562191D01*
X561089Y54376D01*
X560245Y53532D01*
X559788Y52429D01*
Y51236D01*
X560245Y50133D01*
X561089Y49289D01*
X562191Y48832D01*
X563385D01*
X564487Y49289D01*
X565331Y50133D01*
X565788Y51236D01*
Y52429D01*
X565331Y53532D01*
X564487Y54376D01*
X563385Y54832D01*
D02*
G37*
G36*
X524968Y54383D02*
X523775D01*
X522672Y53927D01*
X521828Y53083D01*
X521371Y51980D01*
Y50786D01*
X521828Y49684D01*
X522672Y48840D01*
X523775Y48383D01*
X524968D01*
X526071Y48840D01*
X526915Y49684D01*
X527371Y50786D01*
Y51980D01*
X526915Y53083D01*
X526071Y53927D01*
X524968Y54383D01*
D02*
G37*
G36*
X551163Y53183D02*
X549970D01*
X548867Y52727D01*
X548023Y51883D01*
X547567Y50780D01*
Y49587D01*
X548023Y48484D01*
X548867Y47640D01*
X549970Y47183D01*
X551163D01*
X552266Y47640D01*
X553110Y48484D01*
X553567Y49587D01*
Y50780D01*
X553110Y51883D01*
X552266Y52727D01*
X551163Y53183D01*
D02*
G37*
G36*
X433708Y48833D02*
X432514D01*
X431412Y48377D01*
X430568Y47533D01*
X430111Y46430D01*
Y45237D01*
X430568Y44134D01*
X430773Y43929D01*
X430577Y44010D01*
X429383D01*
X428281Y43553D01*
X427437Y42709D01*
X426980Y41607D01*
Y40413D01*
X427437Y39311D01*
X428281Y38467D01*
X429383Y38010D01*
X430577D01*
X431679Y38467D01*
X432523Y39311D01*
X432980Y40413D01*
Y41607D01*
X432523Y42709D01*
X432318Y42915D01*
X432514Y42833D01*
X433708D01*
X434810Y43290D01*
X435654Y44134D01*
X436111Y45237D01*
Y46430D01*
X435654Y47533D01*
X434810Y48377D01*
X433708Y48833D01*
D02*
G37*
G36*
X388446Y49283D02*
X387252D01*
X386149Y48827D01*
X385305Y47983D01*
X384849Y46880D01*
Y45686D01*
X385305Y44584D01*
X386149Y43740D01*
X387252Y43283D01*
X388446D01*
X389548Y43740D01*
X390392Y44584D01*
X390849Y45686D01*
Y46880D01*
X390392Y47983D01*
X389548Y48827D01*
X388446Y49283D01*
D02*
G37*
G36*
X322309Y48815D02*
X321116D01*
X320013Y48358D01*
X319169Y47514D01*
X318713Y46411D01*
Y45218D01*
X319169Y44115D01*
X320013Y43271D01*
X321116Y42815D01*
X322309D01*
X323412Y43271D01*
X324256Y44115D01*
X324713Y45218D01*
Y46411D01*
X324256Y47514D01*
X323412Y48358D01*
X322309Y48815D01*
D02*
G37*
G36*
X503673Y47980D02*
X502479D01*
X501376Y47523D01*
X500533Y46679D01*
X500076Y45577D01*
Y44383D01*
X500533Y43280D01*
X501376Y42436D01*
X502479Y41980D01*
X503673D01*
X504775Y42436D01*
X505619Y43280D01*
X506076Y44383D01*
Y45577D01*
X505619Y46679D01*
X504775Y47523D01*
X503673Y47980D01*
D02*
G37*
G36*
X327839Y45615D02*
X326645D01*
X325543Y45158D01*
X324699Y44314D01*
X324242Y43212D01*
Y42018D01*
X324699Y40916D01*
X325543Y40072D01*
X326645Y39615D01*
X327839D01*
X328941Y40072D01*
X329785Y40916D01*
X330242Y42018D01*
Y43212D01*
X329785Y44314D01*
X328941Y45158D01*
X327839Y45615D01*
D02*
G37*
G36*
X518362Y43401D02*
X517168D01*
X516065Y42944D01*
X515222Y42100D01*
X514765Y40997D01*
Y39804D01*
X515222Y38701D01*
X516065Y37857D01*
X517168Y37401D01*
X518362D01*
X519464Y37857D01*
X520308Y38701D01*
X520765Y39804D01*
Y40997D01*
X520308Y42100D01*
X519464Y42944D01*
X518362Y43401D01*
D02*
G37*
G36*
X390597Y42205D02*
X389403D01*
X388301Y41748D01*
X387457Y40904D01*
X387000Y39801D01*
Y38608D01*
X387457Y37505D01*
X388301Y36661D01*
X389403Y36205D01*
X390597D01*
X391699Y36661D01*
X392543Y37505D01*
X393000Y38608D01*
Y39801D01*
X392543Y40904D01*
X391699Y41748D01*
X390597Y42205D01*
D02*
G37*
G36*
X294425Y38141D02*
X293232D01*
X292129Y37684D01*
X291285Y36840D01*
X290828Y35738D01*
Y34544D01*
X291285Y33442D01*
X292129Y32598D01*
X293232Y32141D01*
X294425D01*
X295528Y32598D01*
X296372Y33442D01*
X296828Y34544D01*
Y35738D01*
X296372Y36840D01*
X295528Y37684D01*
X294425Y38141D01*
D02*
G37*
G36*
X267685Y38127D02*
X266492D01*
X265389Y37670D01*
X264545Y36826D01*
X264088Y35724D01*
Y34530D01*
X264545Y33428D01*
X265389Y32584D01*
X266492Y32127D01*
X267685D01*
X268788Y32584D01*
X269632Y33428D01*
X270089Y34530D01*
Y35724D01*
X269632Y36826D01*
X268788Y37670D01*
X267685Y38127D01*
D02*
G37*
G36*
X305888Y38088D02*
X304694D01*
X303592Y37631D01*
X302748Y36788D01*
X302291Y35685D01*
Y34492D01*
X302748Y33389D01*
X303592Y32545D01*
X304694Y32088D01*
X305888D01*
X306990Y32545D01*
X307834Y33389D01*
X308291Y34492D01*
Y35685D01*
X307834Y36788D01*
X306990Y37631D01*
X305888Y38088D01*
D02*
G37*
G36*
X461812Y36321D02*
X460618D01*
X459516Y35865D01*
X458672Y35021D01*
X458215Y33918D01*
Y32725D01*
X458672Y31622D01*
X459516Y30778D01*
X460618Y30321D01*
X461812D01*
X462915Y30778D01*
X463758Y31622D01*
X464215Y32725D01*
Y33918D01*
X463758Y35021D01*
X462915Y35865D01*
X461812Y36321D01*
D02*
G37*
G36*
X322370Y36288D02*
X321177D01*
X320074Y35831D01*
X319230Y34988D01*
X318774Y33885D01*
Y32692D01*
X319230Y31589D01*
X320074Y30745D01*
X321177Y30288D01*
X322370D01*
X323473Y30745D01*
X324317Y31589D01*
X324774Y32692D01*
Y33885D01*
X324317Y34988D01*
X323473Y35831D01*
X322370Y36288D01*
D02*
G37*
G36*
X576551Y30127D02*
X574761D01*
X573106Y29441D01*
X571841Y28176D01*
X571156Y26522D01*
Y24731D01*
X571841Y23077D01*
X573106Y21812D01*
X574761Y21126D01*
X576551D01*
X578205Y21812D01*
X579470Y23077D01*
X580156Y24731D01*
Y26522D01*
X579470Y28176D01*
X578205Y29441D01*
X576551Y30127D01*
D02*
G37*
G36*
X326432Y22292D02*
X325238D01*
X324136Y21835D01*
X323292Y20991D01*
X322835Y19889D01*
Y18695D01*
X323292Y17593D01*
X324136Y16749D01*
X325238Y16292D01*
X326432D01*
X327535Y16749D01*
X328378Y17593D01*
X328835Y18695D01*
Y19889D01*
X328378Y20991D01*
X327535Y21835D01*
X326432Y22292D01*
D02*
G37*
%LPD*%
D25*
X570738Y105177D02*
D03*
D132*
X454136Y134469D02*
D03*
X433054Y186650D02*
D03*
X422580Y180401D02*
D03*
X396455Y121547D02*
D03*
X402037Y172438D02*
D03*
X407411Y186421D02*
D03*
X396388Y141043D02*
D03*
X460202Y166678D02*
D03*
X446328Y146509D02*
D03*
X453995Y159520D02*
D03*
X461566Y133524D02*
D03*
X460491Y126995D02*
D03*
X466247Y140481D02*
D03*
X461268Y145984D02*
D03*
X466468Y146133D02*
D03*
X422541Y186166D02*
D03*
X427093Y186195D02*
D03*
X422524Y190977D02*
D03*
X433716Y179624D02*
D03*
X441934Y179807D02*
D03*
X446572Y186226D02*
D03*
X441805Y186369D02*
D03*
X388990Y107488D02*
D03*
X402746Y127800D02*
D03*
X409211Y165363D02*
D03*
X415664Y165341D02*
D03*
X407612Y192670D02*
D03*
X441576Y171942D02*
D03*
X446439Y166975D02*
D03*
X441753Y166793D02*
D03*
X454630Y165473D02*
D03*
X395493Y113990D02*
D03*
X409179Y121160D02*
D03*
X441545Y191439D02*
D03*
X376571Y113822D02*
D03*
X395493Y172487D02*
D03*
X286619Y98704D02*
D03*
X300250Y84430D02*
D03*
X369457Y203222D02*
D03*
X373628Y210791D02*
D03*
X330000Y461238D02*
D03*
X382500Y480000D02*
D03*
X427500D02*
D03*
X457500D02*
D03*
X442500D02*
D03*
X487500D02*
D03*
X472500D02*
D03*
X462056Y405419D02*
D03*
X454900Y424829D02*
D03*
X309663Y534972D02*
D03*
X433623Y121050D02*
D03*
X448985Y120492D02*
D03*
X439853Y120443D02*
D03*
X439778Y147582D02*
D03*
X422722Y171215D02*
D03*
X440518Y133478D02*
D03*
X284343Y284342D02*
D03*
X370579Y236984D02*
D03*
X343942Y204345D02*
D03*
X381868Y84564D02*
D03*
X454434Y119974D02*
D03*
X368393Y107696D02*
D03*
X573813Y129895D02*
D03*
X333960Y240000D02*
D03*
X349002Y241624D02*
D03*
X297655Y104825D02*
D03*
X265396Y474935D02*
D03*
X330000Y95000D02*
D03*
X329670Y144878D02*
D03*
X337779Y128917D02*
D03*
X300178Y445063D02*
D03*
X372046Y223107D02*
D03*
X330000Y195000D02*
D03*
X340140Y217002D02*
D03*
X255000Y420000D02*
D03*
X259561Y437811D02*
D03*
X265000Y455000D02*
D03*
X247389Y498146D02*
D03*
X585000Y525000D02*
D03*
X592500Y510000D02*
D03*
X585000Y495000D02*
D03*
X592500Y480000D02*
D03*
Y240000D02*
D03*
X585000Y225000D02*
D03*
X592500Y210000D02*
D03*
X585000Y195000D02*
D03*
X592500Y180000D02*
D03*
Y120000D02*
D03*
Y90000D02*
D03*
X585000Y75000D02*
D03*
X592500Y30000D02*
D03*
X585000Y15000D02*
D03*
X570000Y525000D02*
D03*
X577500Y510000D02*
D03*
X570000Y495000D02*
D03*
X577500Y480000D02*
D03*
X570000Y465000D02*
D03*
Y255000D02*
D03*
X577500Y210000D02*
D03*
Y180000D02*
D03*
X555000Y525000D02*
D03*
X562500Y510000D02*
D03*
X555000Y495000D02*
D03*
X562500Y480000D02*
D03*
X555000Y465000D02*
D03*
X562500Y90000D02*
D03*
X555000Y75000D02*
D03*
X540000Y525000D02*
D03*
Y495000D02*
D03*
X547500Y360000D02*
D03*
Y90000D02*
D03*
X525000Y525000D02*
D03*
X532500Y480000D02*
D03*
X525000Y285000D02*
D03*
Y165000D02*
D03*
X532500Y90000D02*
D03*
X525000Y75000D02*
D03*
X510000Y525000D02*
D03*
X517500Y510000D02*
D03*
X510000Y495000D02*
D03*
X517500Y480000D02*
D03*
Y240000D02*
D03*
Y90000D02*
D03*
X510000Y75000D02*
D03*
X495000Y525000D02*
D03*
X502500Y510000D02*
D03*
X495000Y495000D02*
D03*
X502500Y480000D02*
D03*
X480000Y525000D02*
D03*
X487500Y510000D02*
D03*
X480000Y495000D02*
D03*
Y465000D02*
D03*
X465000Y525000D02*
D03*
X472500Y510000D02*
D03*
X465000Y495000D02*
D03*
X472500Y270000D02*
D03*
X450000Y525000D02*
D03*
X457500Y510000D02*
D03*
X450000Y495000D02*
D03*
Y405000D02*
D03*
Y345000D02*
D03*
Y225000D02*
D03*
Y15000D02*
D03*
X435000Y525000D02*
D03*
X442500Y510000D02*
D03*
X435000Y495000D02*
D03*
Y405000D02*
D03*
Y315000D02*
D03*
Y15000D02*
D03*
X420000Y525000D02*
D03*
X427500Y510000D02*
D03*
X420000Y495000D02*
D03*
X427500Y330000D02*
D03*
Y240000D02*
D03*
X420000Y15000D02*
D03*
X405000Y525000D02*
D03*
X412500Y510000D02*
D03*
Y450000D02*
D03*
Y300000D02*
D03*
X405000Y225000D02*
D03*
Y15000D02*
D03*
X390000Y525000D02*
D03*
X397500Y510000D02*
D03*
X390000Y285000D02*
D03*
X375000Y495000D02*
D03*
X382500Y420000D02*
D03*
Y30000D02*
D03*
X375000Y15000D02*
D03*
X360000Y495000D02*
D03*
X367500Y480000D02*
D03*
X360000Y15000D02*
D03*
X345000Y525000D02*
D03*
Y495000D02*
D03*
Y285000D02*
D03*
X330000Y525000D02*
D03*
Y435000D02*
D03*
X337500Y360000D02*
D03*
X330000Y285000D02*
D03*
X315000Y405000D02*
D03*
X322500Y330000D02*
D03*
X300000Y525000D02*
D03*
X307500Y480000D02*
D03*
X300000Y405000D02*
D03*
X307500Y360000D02*
D03*
Y330000D02*
D03*
X300000Y315000D02*
D03*
X307500Y270000D02*
D03*
X285000Y525000D02*
D03*
X292500Y330000D02*
D03*
Y270000D02*
D03*
X285000Y255000D02*
D03*
Y135000D02*
D03*
X270000Y525000D02*
D03*
X277500Y390000D02*
D03*
Y360000D02*
D03*
Y330000D02*
D03*
X270000Y285000D02*
D03*
Y195000D02*
D03*
Y165000D02*
D03*
Y45000D02*
D03*
X255000Y525000D02*
D03*
X262500Y300000D02*
D03*
X255000Y285000D02*
D03*
X262500Y240000D02*
D03*
Y150000D02*
D03*
X255000Y105000D02*
D03*
Y75000D02*
D03*
Y45000D02*
D03*
Y15000D02*
D03*
X287415Y425000D02*
D03*
X292754Y375167D02*
D03*
X344657Y73990D02*
D03*
X340652Y45375D02*
D03*
X374551Y46423D02*
D03*
X365481Y43911D02*
D03*
X393138Y48541D02*
D03*
X387299Y356567D02*
D03*
X594097Y387263D02*
D03*
X498349Y470529D02*
D03*
X421547Y468005D02*
D03*
X438162D02*
D03*
X533230Y69954D02*
D03*
X519058Y121399D02*
D03*
X406555Y318418D02*
D03*
X371081Y320440D02*
D03*
X415523Y328054D02*
D03*
X415098Y367904D02*
D03*
X594735Y449264D02*
D03*
X591019Y458696D02*
D03*
X591820Y398425D02*
D03*
X567683Y417662D02*
D03*
X568250Y356497D02*
D03*
X557085Y442665D02*
D03*
X538167Y429822D02*
D03*
X555363Y380016D02*
D03*
X543354Y365133D02*
D03*
X537971Y391498D02*
D03*
X574371Y343050D02*
D03*
X575006Y307987D02*
D03*
X563399Y307396D02*
D03*
X563433Y278521D02*
D03*
X576402Y261322D02*
D03*
X562176Y265123D02*
D03*
X553444Y316653D02*
D03*
X537921Y338514D02*
D03*
X531714Y291351D02*
D03*
X555998Y221408D02*
D03*
X531328Y272436D02*
D03*
X529727Y236184D02*
D03*
X526750Y454250D02*
D03*
X506343Y430591D02*
D03*
X505000Y425000D02*
D03*
X485000Y430000D02*
D03*
X500867Y419227D02*
D03*
X475895Y454922D02*
D03*
X454850Y430591D02*
D03*
X445451Y417313D02*
D03*
X514880Y365412D02*
D03*
X514730Y359571D02*
D03*
X512250Y405000D02*
D03*
X504252Y354455D02*
D03*
X525737Y269840D02*
D03*
X497862Y269949D02*
D03*
X478712Y348204D02*
D03*
X463927Y329740D02*
D03*
X441769Y317460D02*
D03*
X469674Y306479D02*
D03*
X455644Y313721D02*
D03*
X555561Y190277D02*
D03*
X530569Y172267D02*
D03*
X583202Y122935D02*
D03*
X545079Y113704D02*
D03*
X510000Y205000D02*
D03*
X479999Y172487D02*
D03*
X467378Y178391D02*
D03*
X466994Y133498D02*
D03*
X593258Y74372D02*
D03*
X589141Y55436D02*
D03*
X580420Y31329D02*
D03*
X570720Y31046D02*
D03*
X580754Y20601D02*
D03*
X570772Y20343D02*
D03*
X505277Y98125D02*
D03*
X473496Y94509D02*
D03*
X486073Y74838D02*
D03*
X538768Y38385D02*
D03*
X490350Y39472D02*
D03*
X453989Y146502D02*
D03*
X443955Y209823D02*
D03*
X460491Y113990D02*
D03*
X453989Y107488D02*
D03*
X455257Y42320D02*
D03*
X447487Y133498D02*
D03*
Y107488D02*
D03*
X424552Y381654D02*
D03*
X436347Y380465D02*
D03*
X415000Y279500D02*
D03*
X409809Y210028D02*
D03*
X397487Y425322D02*
D03*
X392404Y227486D02*
D03*
X398754Y209755D02*
D03*
X382215Y392180D02*
D03*
X432577Y199753D02*
D03*
X427979Y172487D02*
D03*
X388998Y192075D02*
D03*
X365000Y422250D02*
D03*
X364316Y392283D02*
D03*
X328315Y444322D02*
D03*
X360061Y241926D02*
D03*
X345909Y347526D02*
D03*
X319136Y375123D02*
D03*
X380292Y237481D02*
D03*
X337091Y182403D02*
D03*
X298718Y328872D02*
D03*
X289540Y194249D02*
D03*
X290051Y168990D02*
D03*
X427979Y146502D02*
D03*
X421477Y153005D02*
D03*
X434482Y146502D02*
D03*
Y133498D02*
D03*
X421477Y140000D02*
D03*
X427979Y133498D02*
D03*
X421477Y166010D02*
D03*
X408498Y159507D02*
D03*
X415000Y153005D02*
D03*
Y140000D02*
D03*
X401995Y133498D02*
D03*
X434482Y113990D02*
D03*
X427979Y120493D02*
D03*
Y107488D02*
D03*
X438170Y48568D02*
D03*
X423071Y48500D02*
D03*
X421477Y113990D02*
D03*
X408498D02*
D03*
X415000Y107488D02*
D03*
X421477D02*
D03*
X408038Y48584D02*
D03*
X401995Y146502D02*
D03*
X382488Y107488D02*
D03*
X321205Y149554D02*
D03*
X376057Y146916D02*
D03*
X350198Y144971D02*
D03*
X335593Y119935D02*
D03*
X267210Y113108D02*
D03*
X300679Y74858D02*
D03*
X285679Y64858D02*
D03*
Y84859D02*
D03*
X270679Y74858D02*
D03*
Y84859D02*
D03*
X285679Y74858D02*
D03*
X270679Y64858D02*
D03*
X300679D02*
D03*
X297518Y18778D02*
D03*
X263510Y18461D02*
D03*
X347069Y476579D02*
D03*
X545136Y481332D02*
D03*
X382301Y507515D02*
D03*
X382256Y517122D02*
D03*
X364234Y517191D02*
D03*
Y507515D02*
D03*
X595000Y535000D02*
D03*
X585000D02*
D03*
X570000D02*
D03*
X555000D02*
D03*
X540000D02*
D03*
X510000D02*
D03*
X525000D02*
D03*
X495000D02*
D03*
X480000D02*
D03*
X465000D02*
D03*
X450000D02*
D03*
X435000D02*
D03*
X420000D02*
D03*
X405780Y535280D02*
D03*
X393080D02*
D03*
X363507Y537911D02*
D03*
X357347D02*
D03*
X342643Y538010D02*
D03*
X352933Y529996D02*
D03*
X336582Y537911D02*
D03*
X325000Y535000D02*
D03*
X335532Y529996D02*
D03*
X265000Y535000D02*
D03*
X280000D02*
D03*
X250000D02*
D03*
X295000D02*
D03*
X335000Y105000D02*
D03*
X343789Y94015D02*
D03*
D134*
X260757Y225308D02*
D03*
Y138795D02*
D03*
X583093Y161059D02*
D03*
Y247572D02*
D03*
D135*
X302566Y225308D02*
D03*
Y138795D02*
D03*
X541284Y161059D02*
D03*
Y247572D02*
D03*
D136*
X446206Y368130D02*
D03*
Y379130D02*
D03*
X566000Y302500D02*
D03*
Y292500D02*
D03*
X556000D02*
D03*
Y302500D02*
D03*
X561000Y297500D02*
D03*
X480000Y294500D02*
D03*
Y305500D02*
D03*
D139*
X592454Y344100D02*
D03*
X592545Y294740D02*
D03*
X592425Y263564D02*
D03*
M02*
