M48
;Layer_Color=9474304
;FILE_FORMAT=4:4
METRIC,LZ
;TYPE=PLATED
T01F00S00C0.2000
T02F00S00C0.6000
T03F00S00C0.7000
;TYPE=NON_PLATED
T05F00S00C0.5000
T06F00S00C0.6000
T07F00S00C2.2000
T08F00S00C2.6000
%
T01
X00297518Y00018778
X00293828Y00035141
X00305291Y00035088
X00321774Y00033288
X00321713Y00045815
X00327242Y00042615
X00327428Y00051897
X00321047Y00057074
X00321849Y00062477
X00300679Y00064858
Y00074858
X0030025Y0008443
X00285679Y00084859
Y00074858
Y00064858
X00286619Y00098704
X00279714Y00102747
X0027975Y00113
X0029275
X00297655Y00104825
X00305065Y00102711
X00305449Y00109837
X00335Y00105
X0033Y00095
X0033198Y00088913
X00339527Y00084704
X00343789Y00094015
X00344657Y0007399
X00352702Y00077753
X00360633Y00077027
X00366116Y00079325
X00362393Y00066998
X00370821Y0006704
X00358046Y00059119
X00365481Y00043911
X00374551Y00046423
X00387849Y00046283
X00393138Y00048541
X0039Y00039205
X003825Y0003
X00375Y00015
X0036
X00325835Y00019292
X00340652Y00045375
X00408038Y00048584
X00423071Y000485
X00433111Y00045833
X0043817Y00048568
X0042998Y0004101
X00455257Y0004232
X00461215Y00033321
X0045Y00015
X00435
X0042
X00405
X00404677Y00066168
X00412723Y00066748
X0041525Y0009
X00421613Y00094509
X00421473Y00101016
X00421477Y00107488
X00415
Y0011399
X00421477
X00427979
X00434482
X00440984
X00447491Y00114022
X00453989Y0011399
X00454434Y00119974
X00448985Y00120492
X00447064Y00127586
X00447487Y00133498
Y0014
X00453989
X00454136Y00134469
X00461566Y00133524
X00466994Y00133498
X00467037Y00126984
X00460491Y00126995
X00454656Y00126349
X00461608Y00119344
X00460491Y0011399
X00459375Y00106339
X00460474Y00100939
X00454027Y00100982
X00453989Y00107488
X00447487
X00447461Y00100978
X00440973Y00101016
X00440947Y00094576
X00439304Y00088855
X00449049Y00088174
X00466078Y00088788
X00466675Y00078155
X00464598Y00067065
X00458848Y00066998
X00446238Y00067352
X00440508Y00066865
X00460397Y00094472
X00466994Y00100986
X00466999Y00107465
X00473487Y00101054
X00473496Y00094509
X00479999Y00100986
X00505277Y00098125
X00506534Y00114432
X00501959Y00116697
X00496959Y00116689
X00505988Y0012382
Y00129991
X00505277Y00135999
X00492691Y0013
X00519058Y00121399
X005175Y0009
X005325
X005475
X005625
X00556303Y00105759
X00556722Y00119333
X00563278Y00125917
X00573813Y00129895
X00584403Y00135358
X00583202Y00122935
X005925Y0012
Y0009
X00593258Y00074372
X00585Y00075
X00589141Y00055436
X005925Y0003
X0058042Y00031329
X0057072Y00031046
X00570772Y00020343
X00580754Y00020601
X00585Y00015
X00562788Y00051832
X00550567Y00050183
X00541523Y00059416
X0053323Y00069954
X00525Y00075
X0051
X00510503Y00059647
X00503151Y00054663
X00497527Y00056039
X00503076Y0004498
X0049035Y00039472
X00517765Y00040401
X00524371Y00051383
X00538768Y00038385
X00555Y00075
X00570738Y00105177
X00545079Y00113704
X00555018Y00138134
X00562291Y00139791
X00528276Y00153123
X00525Y00165
X00530569Y00172267
X00502079Y00169643
Y00163478
X00502356Y00177702
X00502079Y00183512
X0048692Y00184469
X00486453Y00197041
X00499142Y00199301
X00499259Y002105
X0051Y00205
X00544134Y00206162
X00544881Y00212524
X00549181Y00221453
X00555998Y00221408
X00549964Y00203506
X00549265Y00197051
X00547948Y00190458
X00555561Y00190277
X005775Y0018
X005925
X00585Y00195
X005925Y0021
X005775
X00585Y00225
X005925Y0024
X00576402Y00261322
X0057Y00255
X00562176Y00265123
X00563433Y00278521
X00569621Y0028308
X00566Y002925
X00561Y002975
X00556Y003025
Y002925
X0054725Y00282318
X00531371Y00279685
X00531328Y00272436
X00525737Y0026984
X00525Y00285
X00531714Y00291351
X00545Y00305
X00553444Y00316653
X00559782Y00317586
X00556518Y00325364
X00563399Y00307396
X00566Y003025
X00570139Y00312317
X00575006Y00307987
X00574371Y0034305
X00575556Y00356526
X00573652Y00361879
X0056825Y00356497
X00563482Y00367766
X00543354Y00365133
X005475Y0036
X00531743Y00360367
X00526027Y0036
X0051473Y00359571
X0051488Y00365412
X0051574Y0035267
X00504252Y00354455
X00478712Y00348204
X0045Y00345
X00453622Y003307
X00463927Y0032974
X00455644Y00313721
X00441769Y0031746
X00441056Y00309284
X00435Y00315
X004275Y0033
X00415523Y00328054
X00406555Y00318418
X004125Y003
X00415Y002795
X0039Y00285
X00378783Y0027819
X00376821Y00261629
X00360043Y0026113
X00362159Y00271563
X00345Y00285
X0033
X003075Y0027
X002925
X00284343Y00284342
X00285Y00255
X0033396Y0024
X00346364Y00236596
X00349002Y00241624
X00360061Y00241926
X00370579Y00236984
X00366517Y0023164
X0036566Y00223116
X00372046Y00223107
X00373628Y00210791
X00369457Y00203222
X00368626Y00196091
X00352714Y00201773
X00343942Y00204345
X00344153Y00196936
X00336677Y00195927
X0033Y00195
X00337091Y00182403
X00347716Y00182217
X00353657Y00176509
X00350094Y00170355
X00339014Y001715
X00362824Y00163317
X00374042Y00162743
X0036947Y0016947
X00370668Y00154223
X00376057Y00146916
X00382418Y00140038
X00388997Y00139978
Y00146504
X00395493Y00146502
X00396388Y00141043
X00402919Y00140948
X00401995Y00146502
Y00153005
X00402739Y00158561
X00408498Y00159507
X00415
X00421477
Y00153005
X00415
X0040929Y00153477
X00408498Y00146502
X00415
X00421477
X00427979
X00434482
X00439778Y00147582
X00440984Y00153005
X00447487
Y00159507
X00440984
X00434482
Y00153005
X00428579Y0015247
X00427979Y00159517
X00428872Y00166841
X00427979Y00172487
Y00178989
X00433716Y00179624
X00433054Y0018665
X00427093Y00186195
X00422541Y00186166
X00422524Y00190977
X00427944Y00191971
X00432577Y00199753
X00439Y0020075
X00448281Y00201067
X00455355Y00200952
X00463253Y00200457
X00460447Y00194015
X00454035Y00191967
X00453989Y00185491
X00446572Y00186226
X00441805Y00186369
X00441545Y00191439
X00447487Y00191994
X00448284Y00179742
X00441934Y00179807
X00441576Y00171942
X00446763Y00171966
X00446439Y00166975
X00441753Y00166793
X0045463Y00165473
X00453995Y0015952
X00453682Y00153457
X00453989Y00146502
X00446328Y00146509
X0044Y0014
X00434482
Y00133498
X00440518Y00133478
X0044024Y00126947
X00434482Y00126995
X00427979
Y00133498
X00421477
X00415
Y0014
X00421477
X00427979
X00408498
Y00133498
X00401995
X00402746Y001278
X00408498Y00126995
X00415
X00421477
Y00120493
X00415
X00409179Y0012116
X00403112Y00121577
X00396455Y00121547
X00396093Y00127683
X00395493Y00133498
X00388991Y00133426
X00388761Y00121017
X00387969Y00113493
X00382488Y0011399
X00376571Y00113822
X00382488Y00107488
X0038899
X00394448Y00106466
X00401972Y00107434
X00408422Y00107465
X00408498Y0011399
X00401995Y00114958
X00395493Y0011399
X00395509Y00094557
X00402056Y00099976
X00408498Y00100939
X00414586Y00101339
X00427979Y00107488
Y00120493
X00433623Y0012105
X00439853Y00120443
X00461252Y00140699
X00466247Y00140481
X00466468Y00146133
X00461268Y00145984
X00460491Y00153005
X00459571Y0016053
X00460202Y00166678
X00454777Y001734
X00467378Y00178391
X00479999Y00172487
X00471618Y00220397
X00467274Y00217066
X00462697Y00213838
Y00220463
X0045Y00225
X00443955Y00209823
X00435998Y0021
X00427654Y00206745
X00426737Y00214519
X00409809Y00210028
X00398754Y00209755
X00390974Y00209794
X004Y0020075
X00395486Y00192002
X00395486Y00185599
X00396351Y00180011
X00401802Y00179962
X00401965Y00185556
X00407411Y00186421
X00407612Y0019267
X00415Y00191994
Y00185491
X00415044Y00178892
X00407603Y00179879
X00402037Y00172438
X00400884Y00167067
X00395562Y00166043
X00395493Y00172487
X00388976Y00178459
X00388893Y00186083
X00388998Y00192075
X00362445Y00180494
X00350198Y00144971
X00351238Y0013202
X00344273Y00132451
X00337661Y0013548
X00337779Y00128917
X00335593Y00119935
X00345312Y00119745
X00363447Y00120774
X00369223Y00124557
X00369713Y00135119
X0037718Y00132022
X00368393Y00107696
X00360363Y00110188
X00369547Y00094021
X00381868Y00084564
X00387342Y0008462
X00404452Y00089555
X00409211Y00165363
X00415664Y00165341
X00421477Y0016601
X00422722Y00171215
X0042258Y00180401
X00405Y00225
X00392404Y00227486
X00380292Y00237481
X004275Y0024
X00435421Y00259843
X004725Y0027
X00490015Y00269949
X00497862
X00489739Y00293484
X0048975Y003
X0048837Y00308719
X00492883Y00308606
X0048Y003055
Y002945
X0047025Y003
X00469674Y00306479
X00456312Y00366516
X00455362Y00373581
X00446206Y0036813
X00436296Y00373494
X00415098Y00367904
X00404939Y00353811
X00387299Y00356567
X00380473Y00355
X00366083Y00356668
X00345909Y00347526
X003375Y0036
X00333749Y00371251
X0032Y00369549
X003075Y0036
Y0033
X00298718Y00328872
X002925Y0033
X002775
Y0036
X003Y00315
X003225Y0033
X00341115Y00323651
X00349551Y00308847
X00365623Y00309022
X00371081Y0032044
X00386038Y00309022
X00388838Y00368903
X00525956Y00373662
X00532855Y003703
X00537921Y00338514
X00529727Y00236184
X005175Y0024
X00484861Y00240981
X00484985Y00234894
X0047778Y00234273
X00477904Y0024123
X0034014Y00217002
X0034Y0021
X00297453Y00194399
X0028954Y00194249
X00294041Y00188487
X0029314Y00182808
X00298601Y00181007
X00299152Y00175283
X00296957Y00166781
X00290051Y0016899
X00290422Y00160466
X00285898Y00157055
X00281866Y00152541
X00285Y00135
X00321205Y00149554
X0032967Y00144878
X00334295Y00140031
X00486073Y00074838
X00270679Y00074858
Y00084859
Y00064858
X0027Y00045
X00267089Y00035127
X0026351Y00018461
X00255Y00015
Y00045
Y00075
Y00105
X0026721Y00113108
X002625Y0015
X00248884Y00151879
X00252796Y00156754
X00256779Y00161272
X0027Y00165
Y00195
X002625Y0024
X00255Y00285
X0027
X002625Y003
X0021897Y0030492
Y0031
Y0031508
X00205
Y0031
Y0030492
Y00297021
X0019103Y0030492
Y0031
Y0031508
X00205Y00323005
Y00345293
Y0035619
Y0036381
X0019103
Y0035619
X0021897
X00219069Y00363558
X00159069Y00363558
X0015897Y0035619
X00145
Y0036381
X0013103
Y0035619
X00145Y00345293
X00145Y00323005
Y0031508
Y0031
Y0030492
Y00297021
X0015897Y0030492
Y0031
Y0031508
X0013103
Y0031
Y0030492
X0009897
Y0031
Y0031508
X00085
Y0031
Y0030492
Y00297021
X0007103Y0030492
Y0031
Y0031508
X00085Y00323005
Y00345293
Y0035619
Y0036381
X0007103
Y0035619
X0009897
X00099069Y00363558
X00039069Y00363558
X0003897Y0035619
X00025
Y0036381
X0001103
Y0035619
X00025Y00345
Y00323005
Y0031508
Y0031
Y0030492
Y00297021
X0003897Y0030492
Y0031
Y0031508
X0001103
Y0031
Y0030492
X00025Y00374707
X00085Y00374707
X00145
X00205Y00374707
X00255Y0042
X00258188Y00430945
X00259561Y00437811
X00259861Y00444111
X00246238Y00444516
Y00431344
Y00457998
Y00471376
Y00485166
X002505Y0049325
X00247389Y00498146
X00257401Y00504924
X00255Y00525
X0027
X00265Y00535
X0025
X0021897Y0057619
Y0058381
X00205
Y0057619
Y00565293
X00190931Y00576442
X0019103Y0058381
X00205Y00594707
X00205287Y00617168
X00205Y0062492
Y0063
Y0063508
Y00643005
X0021897Y0063508
Y0063
Y0062492
X0019103
Y0063
Y0063508
X0015897Y0063508
Y0063
Y0062492
X00145
Y0063
Y0063508
Y00643005
X0013103Y0063508
Y0063
Y0062492
X00145Y00617021
Y00594707
Y0058381
Y0057619
Y00565293
X0015897Y0057619
Y0058381
X0013103
X00130931Y00576442
X0009897Y0057619
Y0058381
X00085
Y0057619
Y00565293
X00070931Y00576442
X0007103Y0058381
X00085Y00594707
Y00617021
Y0062492
Y0063
Y0063508
Y00643005
X0009897Y0063508
Y0063
Y0062492
X0007103
Y0063
Y0063508
X0003897
Y0063
Y0062492
X00025
Y0063
Y0063508
Y00643005
X0001103Y0063508
Y0063
Y0062492
X00025Y00617021
Y00594707
Y0058381
Y0057619
Y00565293
X0003897Y0057619
Y0058381
X0001103
X00010931Y00576442
X0003Y0048
X0009
X0015
X0021
X0026025Y004705
X00265396Y00474935
X0027Y0046075
X00265Y00455
X00294428Y00444993
X00300178Y00445063
X00308383Y00431459
Y00411459
X00315Y00405
X00321686Y00407756
X003Y00405
X00276987Y00407666
X002775Y0039
X00292754Y00375167
X00319136Y00375123
X00365Y00375
X00364316Y00392283
X00382215Y0039218
X00391209Y00387204
X00391344Y00379741
X00411559Y00374135
X00424552Y00381654
X00436347Y00380465
X00446206Y0037913
X00455364Y00380577
X00460006Y00380479
X00462056Y00405419
X0045Y00405
X00435
X00426Y0041525
X00423124Y00431649
X0042133Y0044414
X00421436Y00452066
X004125Y0045
X00410991Y00472262
X00421547Y00468005
X00438162
X00437946Y00459481
X0044875Y00464
X00461483Y00460149
X00461583Y0045236
X00475895Y00454922
X0048Y00465
X00490761Y00470798
X00498349Y00470529
X005025Y0048
X004875
X004725
X004575
X004425
X004275
X0042Y00495
X00435
X0045
X00465
X0048
X00495
X0051
X005175Y0051
X005025
X004875
X004725
X004575
X004425
X004275
X004125
X003975
X00382301Y00507515
X00382256Y00517122
X0039Y00525
X0039308Y0053528
X0040578
X00405Y00525
X0042
X0042Y00535
X00435
X00435Y00525
X0045
X0045Y00535
X00465
X00465Y00525
X0048
X0048Y00535
X00495
X00495Y00525
X0051
X0051Y00535
X00525
X00525Y00525
X0054
X0054Y00535
X00555
X00555Y00525
X0057
X0057Y00535
X00585
X00595
X00585Y00525
X005925Y0051
X005775
X005625
X00555Y00495
X0057
X00585
X005925Y0048
X005775
X005625
X00545136Y00481332
X005325Y0048
X005175
X00517043Y00458394
X00511888Y00452734
X0052675Y0045425
X00518599Y00441045
X00520875Y00435406
Y00424595
X00518542Y00418535
X00506841Y0041862
X00500867Y00419227
X00505Y00425
X00506343Y00430591
X00507174Y00440502
X00485Y0043
X00483786Y00419773
X0046804Y00420159
X0047104Y0042471
X00470875Y00435406
X00468024Y00440889
X0045485Y00430591
X004549Y00424829
X00457822Y004185
X00445451Y00417313
X00397487Y00425322
X00388312Y00433968
X00384652Y00437375
X00385578Y00445549
X00365102Y00439295
X00365Y0042225
X00374008Y00429664
X003825Y0042
X0034475Y00418397
Y00412
X00353181Y00403829
X0034475Y00430753
X00346874Y00437747
X0035231Y00445
X00336011Y00441559
Y00431559
X0033Y00435
X00328315Y00444322
X0033Y00461238
X00315Y0046
X00309178Y00471459
X003075Y0048
X00308383Y00491459
X0028751Y00489433
X00290568Y00499315
X00285Y00525
X003
X00295Y00535
X00309663Y00534972
X00325Y00535
X00336582Y00537911
X00342643Y0053801
X00357347Y00537911
X00363507
X00352933Y00529996
X00345Y00525
X00335532Y00529996
X0033Y00525
X00310109Y00512655
X0028Y00535
X00364234Y00517191
Y00507515
X0036Y00495
X00375
X00375041Y00472791
X003825Y0048
X003675
X00361501Y00469767
X00347069Y00476579
X00329368Y00477512
X00345Y00495
X00287415Y00425
X0051225Y00405
X00525Y00389634
X00537971Y00391498
X00545Y00408363
X0053336Y00419762
X00538167Y00429822
X0056388Y00428333
X00565Y00435
X00557085Y00442665
X00555Y00465
X00545Y00465
X0057Y00465
X00579281Y0046239
X0057648Y00456118
X00591019Y00458696
X00594735Y00449264
X00594247Y00426784
X00576046Y0042828
X0057386Y00422531
X00567683Y00417662
X00575986Y00402804
X005758Y0039604
X00583106Y00395949
X00579814Y00399488
X00583451Y00402754
X0059182Y00398425
X00594097Y00387263
X00565011Y00375
X00555363Y00380016
X0054Y00495
T02
X00434956Y00281749
X00435Y00297874
X00439841Y00340243
X00423716Y00340286
X00592454Y003441
X0059241Y00327975
X00592589Y00310865
X00592545Y0029474
X00592469Y00279689
X00592425Y00263564
X0022Y00440126
X00220044Y00456251
X00190044
X0019Y00440126
X0016
X00160044Y00456251
X00130044
X0013Y00440126
X001
X00100044Y00456251
X00070041Y00456251
X00069998Y00440126
X0004Y00440126
X00040044Y00456251
X00010041
X00009998Y00440126
T03
X003145Y003
Y0032
X00532222Y00129333
Y00109333
X005305Y0049
Y0051
T05
X00575656Y00025626
T06
X00297612Y00153064
X00297507Y00211142
X00546238Y00233303
X00546343Y00175224
T07
X00025Y0041
X00085
X00145
X00205
Y0053
X00145
X00085
X00025
T08
X0026615Y00258584
M30
