G04*
G04 #@! TF.GenerationSoftware,Altium Limited,Altium Designer,26.8.1 (31)*
G04*
G04 Layer_Physical_Order=3*
G04 Layer_Color=16440176*
G04 Board_Origin=4724409|16535433*
%FSLAX44Y44*%
%MOMM*%
G71*
G04*
G04 #@! TF.SameCoordinates,9F142E4A-C4AE-4B97-A2BD-9400E08D3EDC*
G04*
G04*
G04 #@! TF.FilePolarity,Positive*
G04*
G01*
G75*
%ADD15C,0.1524*%
%ADD25C,0.4500*%
%ADD95C,0.4501*%
G36*
X591750Y462219D02*
X591715Y462196D01*
X590323D01*
X589036Y461663D01*
X588052Y460678D01*
X587519Y459392D01*
Y458000D01*
X588052Y456713D01*
X589036Y455729D01*
X590323Y455196D01*
X591715D01*
X591750Y455173D01*
Y451203D01*
X591235Y449960D01*
Y448568D01*
X591750Y447324D01*
Y441250D01*
X585250Y434750D01*
X569908D01*
X569000Y434750D01*
X568369Y436013D01*
X567967Y436983D01*
X566983Y437967D01*
X565696Y438500D01*
X564304D01*
X563017Y437967D01*
X562033Y436983D01*
X561500Y435696D01*
Y434304D01*
X562033Y433017D01*
X562041Y433009D01*
X561897Y431300D01*
X560912Y430315D01*
X560379Y429029D01*
Y427636D01*
X560821Y426571D01*
X546250Y412000D01*
X545912Y411774D01*
X545696Y411863D01*
X544304D01*
X543017Y411330D01*
X542033Y410346D01*
X541500Y409059D01*
Y407667D01*
X542033Y406381D01*
X543017Y405396D01*
X544304Y404863D01*
X545696D01*
X546250Y404493D01*
Y369179D01*
X544726Y368354D01*
X544051Y368633D01*
X542658D01*
X541372Y368100D01*
X540387Y367116D01*
X539854Y365830D01*
Y364437D01*
X540387Y363151D01*
X541372Y362166D01*
X542658Y361633D01*
X542738D01*
X544000Y360696D01*
Y359304D01*
X544533Y358017D01*
X545517Y357033D01*
X546250Y356729D01*
Y308870D01*
X545696Y308500D01*
X544304D01*
X543017Y307967D01*
X542033Y306983D01*
X541500Y305696D01*
Y304304D01*
X542033Y303017D01*
X543017Y302033D01*
X544304Y301500D01*
X545696D01*
X546250Y301130D01*
Y285692D01*
X545267Y285285D01*
X544283Y284301D01*
X543750Y283014D01*
Y281622D01*
X544283Y280336D01*
X545267Y279351D01*
X546250Y278944D01*
Y254600D01*
X545072Y253633D01*
X544789Y253690D01*
X537779D01*
X535438Y253224D01*
X533453Y251898D01*
X532127Y249913D01*
X531661Y247572D01*
X532127Y245230D01*
X533453Y243246D01*
X535438Y241919D01*
X537779Y241454D01*
X544789D01*
X545072Y241510D01*
X546250Y240543D01*
Y238303D01*
X545244D01*
X543406Y237542D01*
X542000Y236135D01*
X541238Y234298D01*
Y232309D01*
X542000Y230471D01*
X543406Y229064D01*
X545244Y228303D01*
X546250D01*
Y226750D01*
X512421Y207529D01*
X511983Y207967D01*
X510696Y208500D01*
X509304D01*
X508017Y207967D01*
X507033Y206983D01*
X506500Y205696D01*
Y204304D01*
X506547Y204192D01*
X501862Y201530D01*
X501124Y202268D01*
X499838Y202801D01*
X498445D01*
X497159Y202268D01*
X496174Y201283D01*
X495642Y199997D01*
Y198605D01*
X495846Y198112D01*
X492717Y196334D01*
X488953Y196355D01*
Y196825D01*
X488572Y197744D01*
X487869Y198447D01*
X486950Y198828D01*
X485956D01*
X485037Y198447D01*
X484334Y197744D01*
X483953Y196825D01*
X483511Y196385D01*
X475822Y196428D01*
X461750Y210500D01*
X455250D01*
Y217000D01*
X467673Y229423D01*
X492717D01*
Y246028D01*
X510500Y270500D01*
Y356015D01*
X512024Y356748D01*
X512674Y356256D01*
X512817Y354697D01*
X512773Y354652D01*
X512240Y353366D01*
Y351974D01*
X512773Y350687D01*
X513758Y349703D01*
X515044Y349170D01*
X516436D01*
X517723Y349703D01*
X518707Y350687D01*
X519240Y351974D01*
Y353366D01*
X518707Y354652D01*
X517723Y355637D01*
X517491Y357382D01*
X517697Y357588D01*
X518230Y358875D01*
Y360267D01*
X517775Y361366D01*
X517697Y361553D01*
X517771Y363354D01*
X517847Y363429D01*
X518380Y364716D01*
Y366108D01*
X517847Y367394D01*
X516862Y368379D01*
X515576Y368912D01*
X514184D01*
X512897Y368379D01*
X512024Y367506D01*
X511505Y367560D01*
X510500Y367967D01*
Y400796D01*
X511554Y401500D01*
X512946D01*
X514233Y402033D01*
X515217Y403017D01*
X515750Y404304D01*
Y405696D01*
X515217Y406983D01*
X514233Y407967D01*
X512946Y408500D01*
X511554D01*
X510500Y409204D01*
Y418500D01*
X515397Y423397D01*
X517020Y422975D01*
X517223Y421987D01*
X516802Y421602D01*
X516560Y421502D01*
X515575Y420518D01*
X515042Y419231D01*
Y417839D01*
X515575Y416552D01*
X516560Y415568D01*
X517846Y415035D01*
X519239D01*
X520525Y415568D01*
X521510Y416552D01*
X522042Y417839D01*
Y419231D01*
X521853Y419688D01*
X521659Y420654D01*
X522615Y421527D01*
X522857Y421627D01*
X523842Y422612D01*
X524375Y423898D01*
Y425291D01*
X523842Y426577D01*
X522857Y427562D01*
X522051Y427896D01*
X521596Y429228D01*
X521605Y429605D01*
X553735Y461735D01*
X554304Y461500D01*
X555696D01*
X556982Y462033D01*
X557967Y463017D01*
X558500Y464304D01*
Y465696D01*
X558264Y466264D01*
X565750Y473750D01*
X591750D01*
Y462219D01*
D02*
G37*
G36*
X523500Y455550D02*
X523250Y454946D01*
Y453554D01*
X523500Y452950D01*
Y447750D01*
X520003Y444253D01*
X519295Y444546D01*
X517902D01*
X516616Y444013D01*
X515631Y443028D01*
X515099Y441742D01*
Y440349D01*
X515392Y439642D01*
X510500Y434750D01*
Y420031D01*
X510178Y419709D01*
X509808Y420603D01*
X508824Y421588D01*
X507537Y422121D01*
X507070D01*
X507967Y423017D01*
X508500Y424304D01*
Y425696D01*
X507967Y426983D01*
X507619Y427331D01*
X508326Y427623D01*
X509310Y428608D01*
X509843Y429894D01*
Y431287D01*
X509310Y432573D01*
X508326Y433558D01*
X507039Y434090D01*
X505647D01*
X504361Y433558D01*
X503376Y432573D01*
X502843Y431287D01*
Y429894D01*
X503376Y428608D01*
X503724Y428260D01*
X503017Y427967D01*
X502033Y426983D01*
X501500Y425696D01*
Y424304D01*
X502033Y423017D01*
X503017Y422033D01*
X504304Y421500D01*
X504771D01*
X504023Y420752D01*
X503834Y421209D01*
X502849Y422194D01*
X501563Y422727D01*
X500171D01*
X498884Y422194D01*
X497900Y421209D01*
X497367Y419923D01*
Y418531D01*
X497900Y417244D01*
X498884Y416260D01*
X500171Y415727D01*
X501563D01*
X502849Y416260D01*
X503685Y417095D01*
X503874Y416638D01*
X504858Y415653D01*
X506145Y415121D01*
X507537D01*
X508824Y415653D01*
X509418Y416247D01*
Y409204D01*
X509460Y409102D01*
X509438Y408993D01*
X509614Y408731D01*
X509735Y408439D01*
X509837Y408396D01*
X509899Y408304D01*
X510351Y408002D01*
X510267Y407967D01*
X509283Y406983D01*
X508750Y405696D01*
Y404304D01*
X509283Y403017D01*
X510267Y402033D01*
X510351Y401998D01*
X509899Y401696D01*
X509837Y401604D01*
X509735Y401561D01*
X509614Y401270D01*
X509438Y401007D01*
X509460Y400898D01*
X509418Y400796D01*
Y367967D01*
X509501Y367764D01*
X509503Y367545D01*
X509654Y367397D01*
X509735Y367201D01*
X509937Y367118D01*
X510093Y366964D01*
X510500Y366799D01*
Y357216D01*
X510031Y356990D01*
X509907Y356851D01*
X509735Y356780D01*
X509641Y356555D01*
X509478Y356373D01*
X509489Y356187D01*
X509418Y356015D01*
Y270852D01*
X491841Y246664D01*
X491763Y246338D01*
X491635Y246028D01*
Y245515D01*
X491000Y244643D01*
Y231140D01*
X491635Y230506D01*
X467673D01*
Y268423D01*
X469000Y269750D01*
Y269304D01*
X469533Y268017D01*
X470517Y267033D01*
X471804Y266500D01*
X473196D01*
X474482Y267033D01*
X475467Y268017D01*
X476000Y269304D01*
Y270696D01*
X475467Y271982D01*
X474482Y272967D01*
X473196Y273500D01*
X472750D01*
X481250Y282000D01*
Y291229D01*
X481983Y291533D01*
X482967Y292517D01*
X483500Y293804D01*
Y295196D01*
X482967Y296483D01*
X481983Y297467D01*
X481250Y297771D01*
Y302229D01*
X481983Y302533D01*
X482967Y303517D01*
X483500Y304804D01*
Y306196D01*
X482967Y307483D01*
X481983Y308467D01*
X481250Y308771D01*
Y311755D01*
X481282Y311742D01*
X482674D01*
X483961Y312274D01*
X484945Y313259D01*
X485478Y314545D01*
Y315938D01*
X484945Y317224D01*
X483961Y318209D01*
X482674Y318741D01*
X481282D01*
X481250Y318728D01*
Y345793D01*
X481679Y346221D01*
X482212Y347508D01*
Y348900D01*
X481679Y350187D01*
X481250Y350615D01*
Y417360D01*
X481803Y416806D01*
X483090Y416273D01*
X484482D01*
X485769Y416806D01*
X486753Y417791D01*
X487286Y419077D01*
Y420470D01*
X486753Y421756D01*
X485769Y422741D01*
X484482Y423273D01*
X483090D01*
X481803Y422741D01*
X481250Y422187D01*
Y444500D01*
X504000Y467250D01*
X523500D01*
Y455550D01*
D02*
G37*
G36*
X247560Y495259D02*
X247533Y495233D01*
X247000Y493946D01*
Y492554D01*
X247533Y491267D01*
X248517Y490283D01*
X249804Y489750D01*
X251196D01*
X252483Y490283D01*
X253467Y491267D01*
X253856Y492207D01*
X313642Y463226D01*
X313017Y462967D01*
X312033Y461983D01*
X311500Y460696D01*
Y459304D01*
X312033Y458017D01*
X313017Y457033D01*
X314304Y456500D01*
X315696D01*
X316983Y457033D01*
X317967Y458017D01*
X318500Y459304D01*
Y460696D01*
X318409Y460915D01*
X318750Y460750D01*
X434683D01*
X434446Y460177D01*
Y458784D01*
X434979Y457498D01*
X435963Y456514D01*
X437250Y455981D01*
X438642D01*
X439929Y456514D01*
X440913Y457498D01*
X441446Y458784D01*
Y460177D01*
X441208Y460750D01*
X447450D01*
X448054Y460500D01*
X449446D01*
X450050Y460750D01*
X474750D01*
Y458236D01*
X473912Y457889D01*
X472928Y456905D01*
X472395Y455618D01*
Y454226D01*
X472928Y452939D01*
X473912Y451955D01*
X474750Y451608D01*
Y277031D01*
X471984Y274265D01*
X471667Y273500D01*
X471687Y273452D01*
X470517Y272967D01*
X469533Y271982D01*
X469048Y270812D01*
X469000Y270832D01*
X468459Y270608D01*
X468234Y270515D01*
X468234Y270515D01*
X466908Y269189D01*
X466591Y268423D01*
Y267341D01*
X465000Y265750D01*
Y230000D01*
X446864Y211864D01*
X445938Y212791D01*
X444652Y213323D01*
X443259D01*
X441973Y212791D01*
X440988Y211806D01*
X440456Y210520D01*
Y209127D01*
X440988Y207841D01*
X441915Y206915D01*
X441180Y206180D01*
Y202019D01*
X441119Y202166D01*
X440416Y202869D01*
X439497Y203250D01*
X438503D01*
X437584Y202869D01*
X436881Y202166D01*
X436500Y201247D01*
Y200253D01*
X436881Y199334D01*
X437584Y198631D01*
X438503Y198250D01*
X439497D01*
X440416Y198631D01*
X441119Y199334D01*
X441180Y199481D01*
Y194389D01*
X440569D01*
X439650Y194008D01*
X438946Y193305D01*
X438566Y192386D01*
Y191392D01*
X438946Y190473D01*
X439650Y189770D01*
X440569Y189389D01*
X441180D01*
Y187991D01*
X440487D01*
X439568Y187611D01*
X438865Y186908D01*
X438484Y185989D01*
Y184994D01*
X438865Y184075D01*
X439568Y183372D01*
X440487Y182991D01*
X441180D01*
Y181643D01*
X440683D01*
X439764Y181263D01*
X439061Y180559D01*
X438680Y179641D01*
Y178646D01*
X439061Y177727D01*
X439764Y177024D01*
X440683Y176643D01*
X440806D01*
X430196Y173761D01*
X430167Y173739D01*
X430099Y173903D01*
X429395Y174606D01*
X428477Y174987D01*
X427482D01*
X426563Y174606D01*
X425860Y173903D01*
X425479Y172984D01*
Y171989D01*
X425547Y171825D01*
X425235Y171696D01*
X424918Y170931D01*
Y167112D01*
X424729Y166656D01*
Y165363D01*
X424918Y164908D01*
Y161750D01*
X425071Y161379D01*
X423615Y160879D01*
X423596Y160923D01*
X422893Y161627D01*
X421974Y162007D01*
X420980D01*
X420061Y161627D01*
X419358Y160923D01*
X418977Y160005D01*
Y159287D01*
X418325Y159063D01*
X417500D01*
Y160005D01*
X417119Y160923D01*
X416416Y161627D01*
X415497Y162007D01*
X414503D01*
X413584Y161627D01*
X412881Y160923D01*
X412500Y160005D01*
Y159010D01*
X412674Y158590D01*
X412467Y158505D01*
X412467Y158505D01*
D01*
X410253Y156291D01*
X409599Y156067D01*
X409144Y156255D01*
X407851D01*
X406656Y155760D01*
X405742Y154846D01*
X405247Y153651D01*
Y152358D01*
X405612Y151477D01*
X405418Y151007D01*
Y147560D01*
X405247Y147149D01*
Y145856D01*
X405418Y145444D01*
Y142250D01*
X405735Y141485D01*
X406308Y141247D01*
X405998Y140497D01*
Y139503D01*
X406378Y138584D01*
X407081Y137881D01*
X407501Y137707D01*
X407415Y137500D01*
Y136567D01*
X406656Y136253D01*
X405742Y135339D01*
X405247Y134144D01*
Y132851D01*
X405742Y131656D01*
X406656Y130742D01*
X407415Y130428D01*
Y130065D01*
X406656Y129751D01*
X405742Y128836D01*
X405247Y127642D01*
Y126349D01*
X405742Y125154D01*
X406656Y124240D01*
X406782Y124188D01*
X407984Y122986D01*
X407081Y122612D01*
X406378Y121909D01*
X405998Y120990D01*
Y119995D01*
X406378Y119077D01*
X407081Y118373D01*
X408000Y117993D01*
X408995D01*
X409914Y118373D01*
X410617Y119077D01*
X410991Y119979D01*
X412022Y118947D01*
X412422Y117331D01*
X412596Y117097D01*
X412708Y116827D01*
X412834Y116775D01*
X412914Y116665D01*
X413203Y116621D01*
X413473Y116510D01*
X422715D01*
X423052Y116649D01*
X423400Y116754D01*
X424426Y117592D01*
X442879D01*
Y115296D01*
X442962Y115098D01*
Y114882D01*
X443152Y114422D01*
Y113559D01*
X442962Y113099D01*
Y112883D01*
X442879Y112684D01*
Y111324D01*
X443196Y110558D01*
X443899Y110267D01*
X443898Y109207D01*
X445658Y109195D01*
X445367Y108904D01*
X444987Y107985D01*
Y106991D01*
X445367Y106072D01*
X446071Y105369D01*
X446989Y104988D01*
X447984D01*
X448903Y105369D01*
X449606Y106072D01*
X449987Y106991D01*
Y107985D01*
X449606Y108904D01*
X449339Y109171D01*
X450183Y109166D01*
X451489Y107725D01*
Y106991D01*
X451870Y106072D01*
X452573Y105369D01*
X453492Y104988D01*
X453970D01*
X457974Y100571D01*
Y100442D01*
X458354Y99523D01*
X459058Y98820D01*
X459863Y98486D01*
X461441Y96746D01*
X460894Y96972D01*
X459900D01*
X458981Y96592D01*
X458278Y95888D01*
X457897Y94970D01*
Y93975D01*
X458278Y93056D01*
X458981Y92353D01*
X459900Y91972D01*
X460894D01*
X461813Y92353D01*
X462516Y93056D01*
X462897Y93975D01*
Y94970D01*
X462767Y95283D01*
X466388Y91288D01*
X465581D01*
X464662Y90907D01*
X463959Y90204D01*
X463578Y89285D01*
Y88291D01*
X463959Y87372D01*
X464662Y86669D01*
X465581Y86288D01*
X466576D01*
X467495Y86669D01*
X468198Y87372D01*
X468578Y88291D01*
Y88872D01*
X469050Y88352D01*
X477734Y82486D01*
X483252Y76967D01*
X483106Y76820D01*
X482573Y75534D01*
Y74141D01*
X483106Y72855D01*
X484090Y71870D01*
X485377Y71338D01*
X486769D01*
X488055Y71870D01*
X489040Y72855D01*
X489100Y73000D01*
X489100Y73000D01*
X489315Y73000D01*
X489514Y72918D01*
X492691D01*
X515419Y62023D01*
Y54500D01*
X516593Y47593D01*
X516239Y43557D01*
X515782Y43368D01*
X514798Y42383D01*
X514265Y41097D01*
Y39704D01*
X514798Y38418D01*
X515707Y37508D01*
X515419Y34221D01*
X464631D01*
X464182Y35304D01*
X463198Y36289D01*
X461911Y36821D01*
X460519D01*
X459233Y36289D01*
X458248Y35304D01*
X457799Y34221D01*
X297235D01*
X297328Y34445D01*
Y35837D01*
X296796Y37124D01*
X295811Y38108D01*
X294524Y38641D01*
X293132D01*
X291846Y38108D01*
X290861Y37124D01*
X290328Y35837D01*
Y34445D01*
X290421Y34221D01*
X270501D01*
X270588Y34431D01*
Y35823D01*
X270056Y37109D01*
X269071Y38094D01*
X267785Y38627D01*
X266392D01*
X265106Y38094D01*
X264121Y37109D01*
X263589Y35823D01*
Y34431D01*
X263676Y34221D01*
X244306D01*
X245704Y136489D01*
X245597Y150668D01*
X245917Y149896D01*
X246901Y148912D01*
X248188Y148379D01*
X249580D01*
X250867Y148912D01*
X251851Y149896D01*
X252384Y151182D01*
Y152575D01*
X252103Y153254D01*
X253492D01*
X254779Y153786D01*
X255763Y154771D01*
X256296Y156057D01*
Y157450D01*
X256163Y157772D01*
X257475D01*
X258762Y158305D01*
X259746Y159290D01*
X260279Y160576D01*
Y161968D01*
X259746Y163255D01*
X258762Y164239D01*
X257475Y164772D01*
X256083D01*
X254797Y164239D01*
X253812Y163255D01*
X253279Y161968D01*
Y160576D01*
X253413Y160254D01*
X252100D01*
X250814Y159721D01*
X249829Y158736D01*
X249296Y157450D01*
Y156057D01*
X249577Y155379D01*
X248188D01*
X246901Y154846D01*
X245917Y153861D01*
X245579Y153046D01*
X245027Y226432D01*
X245704Y297279D01*
X245000Y425575D01*
Y496500D01*
X247560Y495259D01*
D02*
G37*
G36*
X600000Y135750D02*
X573477D01*
X572967Y136982D01*
X571982Y137967D01*
X570696Y138500D01*
X569304D01*
X568017Y137967D01*
X567033Y136982D01*
X566522Y135750D01*
X508777D01*
Y136695D01*
X508244Y137981D01*
X507259Y138966D01*
X505973Y139499D01*
X504580D01*
X503294Y138966D01*
X502309Y137981D01*
X501777Y136695D01*
Y135750D01*
X468089D01*
X467491Y135998D01*
X466497D01*
X465899Y135750D01*
X461586D01*
X460989Y135998D01*
X459994D01*
X459396Y135750D01*
X458500D01*
X456489Y133739D01*
Y133995D01*
X456108Y134914D01*
X455405Y135617D01*
X454486Y135998D01*
X453492D01*
X452573Y135617D01*
X451870Y134914D01*
X451489Y133995D01*
Y133000D01*
X451853Y132121D01*
X451784Y132087D01*
X449467Y129470D01*
X449407Y129296D01*
X449277Y129166D01*
Y128920D01*
X449197Y128687D01*
X449277Y128522D01*
Y128338D01*
X449655Y127427D01*
Y126905D01*
X449169Y126419D01*
Y125611D01*
X448715Y125157D01*
X447918Y124827D01*
X447055D01*
X446259Y125157D01*
X445852Y125564D01*
X445637Y125653D01*
X445467Y125812D01*
X445269Y125805D01*
X445086Y125881D01*
X444871Y125792D01*
X444639Y125784D01*
X443514Y125274D01*
X443379Y125130D01*
X443196Y125054D01*
X443107Y124839D01*
X442948Y124669D01*
X442955Y124471D01*
X442879Y124289D01*
Y123744D01*
X430244D01*
X429039Y122760D01*
X428477Y122993D01*
X427482D01*
X426563Y122612D01*
X425860Y121909D01*
X425479Y120990D01*
Y119995D01*
X425524Y119887D01*
X422715Y117592D01*
X413473D01*
X413000Y119500D01*
X410635Y121865D01*
X410617Y121909D01*
X409914Y122612D01*
X409869Y122631D01*
X406500Y126000D01*
X408498Y127998D01*
Y137500D01*
X408995D01*
X409914Y137881D01*
X410617Y138584D01*
X410998Y139503D01*
Y140497D01*
X410617Y141416D01*
X409914Y142119D01*
X408995Y142500D01*
X408000D01*
X407397Y142250D01*
X406500D01*
Y151007D01*
X413232Y157739D01*
X413584Y157388D01*
X414503Y157007D01*
X415497D01*
X416416Y157388D01*
X417009Y157980D01*
X419468D01*
X420061Y157388D01*
X420980Y157007D01*
X421974D01*
X422893Y157388D01*
X423486Y157980D01*
X425981D01*
X426563Y157398D01*
X427482Y157017D01*
X428477D01*
X429395Y157398D01*
X429978Y157980D01*
X432473D01*
X433066Y157388D01*
X433984Y157007D01*
X434979D01*
X435898Y157388D01*
X436490Y157980D01*
X438976D01*
X439568Y157388D01*
X440487Y157007D01*
X441482D01*
X442400Y157388D01*
X442993Y157980D01*
X445478D01*
X446071Y157388D01*
X446989Y157007D01*
X447984D01*
X448903Y157388D01*
X449495Y157980D01*
X450638D01*
X451489Y159212D01*
Y159010D01*
X451870Y158091D01*
X452573Y157388D01*
X453492Y157007D01*
X454486D01*
X455405Y157388D01*
X456108Y158091D01*
X456489Y159010D01*
Y160005D01*
X456108Y160923D01*
X456025Y161007D01*
X456029Y161018D01*
X456061Y161034D01*
X458814Y164151D01*
X459075Y163890D01*
X459994Y163510D01*
X460989D01*
X461908Y163890D01*
X462611Y164594D01*
X462991Y165512D01*
Y166507D01*
X462860Y166824D01*
X488593Y167052D01*
X498579Y162854D01*
Y162782D01*
X499112Y161495D01*
X500096Y160511D01*
X501383Y159978D01*
X502775D01*
X504062Y160511D01*
X504299Y160748D01*
X504409Y160748D01*
X504564Y160901D01*
X504765Y160985D01*
X504847Y161181D01*
X504998Y161331D01*
X504999Y161448D01*
X505046Y161495D01*
X505579Y162782D01*
Y164174D01*
X505082Y165373D01*
Y167628D01*
X508185Y167594D01*
X507588Y184838D01*
X541203Y204144D01*
X542152Y203195D01*
X543438Y202662D01*
X544830D01*
X546117Y203195D01*
X546464Y203542D01*
Y202810D01*
X546996Y201524D01*
X547981Y200539D01*
X548261Y200423D01*
X547282Y200018D01*
X546298Y199034D01*
X545765Y197747D01*
Y196355D01*
X546298Y195068D01*
X547282Y194084D01*
X547586Y193958D01*
X547251D01*
X545965Y193425D01*
X544980Y192440D01*
X544448Y191154D01*
Y189762D01*
X544980Y188475D01*
X545965Y187491D01*
X547251Y186958D01*
X548644D01*
X549930Y187491D01*
X550915Y188475D01*
X551447Y189762D01*
Y191154D01*
X550915Y192440D01*
X549930Y193425D01*
X549626Y193551D01*
X549961D01*
X551247Y194084D01*
X552232Y195068D01*
X552765Y196355D01*
Y197747D01*
X552232Y199034D01*
X551247Y200018D01*
X550968Y200134D01*
X551946Y200539D01*
X552931Y201524D01*
X553464Y202810D01*
Y204203D01*
X552931Y205489D01*
X551946Y206474D01*
X550660Y207006D01*
X549268D01*
X547981Y206474D01*
X547634Y206127D01*
Y206858D01*
X547307Y207649D01*
X549500Y208909D01*
Y217953D01*
X549878D01*
X551164Y218486D01*
X552149Y219471D01*
X552580Y220513D01*
X553030Y219426D01*
X554015Y218441D01*
X555301Y217908D01*
X556694D01*
X557980Y218441D01*
X558965Y219426D01*
X559497Y220712D01*
Y222104D01*
X558965Y223391D01*
X557980Y224375D01*
X556694Y224908D01*
X555301D01*
X554015Y224375D01*
X553030Y223391D01*
X552599Y222349D01*
X552149Y223436D01*
X551164Y224421D01*
X549878Y224953D01*
X549500D01*
Y229494D01*
X550477Y230471D01*
X551238Y232309D01*
Y234298D01*
X550477Y236135D01*
X549500Y237113D01*
Y243821D01*
X550442Y245230D01*
X550908Y247572D01*
X550442Y249913D01*
X549500Y251322D01*
Y279618D01*
X550217Y280336D01*
X550750Y281622D01*
Y283014D01*
X550217Y284301D01*
X549500Y285018D01*
Y357050D01*
X550467Y358017D01*
X551000Y359304D01*
Y360696D01*
X550467Y361982D01*
X549500Y362949D01*
Y407042D01*
X600000D01*
X600000Y135750D01*
D02*
G37*
G36*
X504000Y171500D02*
Y161750D01*
X488807Y168136D01*
X462136Y167900D01*
X461908Y168129D01*
X460989Y168510D01*
X459994D01*
X459075Y168129D01*
X458372Y167426D01*
X457991Y166507D01*
Y165512D01*
X458177Y165065D01*
X455250Y161750D01*
X455107D01*
X454486Y162007D01*
X453492D01*
X452871Y161750D01*
X448605D01*
X447984Y162007D01*
X446989D01*
X446368Y161750D01*
X442102D01*
X441482Y162007D01*
X440487D01*
X439866Y161750D01*
X435600D01*
X434979Y162007D01*
X433984D01*
X433364Y161750D01*
X429121D01*
X428477Y162017D01*
X427482D01*
X426838Y161750D01*
X426000D01*
Y170931D01*
X426563Y170367D01*
X427482Y169987D01*
X428477D01*
X429395Y170367D01*
X430099Y171070D01*
X430479Y171989D01*
Y172717D01*
X445978Y176926D01*
X446026Y176879D01*
X446945Y176498D01*
X447939D01*
X448858Y176879D01*
X449561Y177582D01*
X449710Y177940D01*
X452719Y178757D01*
X464878D01*
Y177894D01*
X465259Y176975D01*
X465962Y176272D01*
X466881Y175891D01*
X467875D01*
X468794Y176272D01*
X469497Y176975D01*
X469878Y177894D01*
Y178757D01*
X486136D01*
X504000Y171500D01*
D02*
G37*
G36*
X494250Y129250D02*
X507250D01*
Y116250D01*
X505300D01*
X504696Y116500D01*
X503304D01*
X502700Y116250D01*
X499520D01*
X498407Y116711D01*
X497015D01*
X495902Y116250D01*
X495503D01*
Y117414D01*
X494970Y118701D01*
X493986Y119685D01*
X492699Y120218D01*
X491307D01*
X490021Y119685D01*
X489057Y118722D01*
X486664Y121456D01*
X486629Y121473D01*
X486615Y121509D01*
X486263Y121655D01*
X485921Y121824D01*
X485885Y121811D01*
X485849Y121826D01*
X463457D01*
X463247Y122334D01*
X462333Y123248D01*
X461138Y123743D01*
X459845D01*
X458650Y123248D01*
X457736Y122334D01*
X457525Y121826D01*
X456489D01*
X456194Y121704D01*
X456108Y121909D01*
X455405Y122612D01*
X454486Y122993D01*
X453492D01*
X452573Y122612D01*
X451870Y121909D01*
X451489Y120990D01*
Y119995D01*
X451552Y119843D01*
X451235Y119712D01*
X450918Y118946D01*
Y115069D01*
X450739Y114637D01*
Y113344D01*
X450918Y112912D01*
Y111324D01*
X443961D01*
Y112684D01*
X444235Y113344D01*
Y114637D01*
X443961Y115296D01*
Y119362D01*
Y124289D01*
X445086Y124799D01*
X445645Y124240D01*
X446840Y123745D01*
X448133D01*
X449328Y124240D01*
X450242Y125154D01*
X450737Y126349D01*
Y127642D01*
X450277Y128752D01*
X452594Y131369D01*
X453492Y130998D01*
X454486D01*
X455405Y131378D01*
X456108Y132081D01*
X456282Y132500D01*
X458199D01*
X458372Y132081D01*
X459075Y131378D01*
X459994Y130998D01*
X460989D01*
X461908Y131378D01*
X462611Y132081D01*
X462784Y132500D01*
X464701D01*
X464874Y132081D01*
X465578Y131378D01*
X466497Y130998D01*
X467491D01*
X468410Y131378D01*
X469113Y132081D01*
X469287Y132500D01*
X489917D01*
X494250Y129250D01*
D02*
G37*
G36*
X565750Y91299D02*
X565467Y91982D01*
X564482Y92967D01*
X563196Y93500D01*
X561804D01*
X560517Y92967D01*
X559533Y91982D01*
X559000Y90696D01*
Y89304D01*
X559533Y88017D01*
X560517Y87033D01*
X561804Y86500D01*
X563196D01*
X564482Y87033D01*
X565467Y88017D01*
X565750Y88701D01*
Y87000D01*
X556795Y78045D01*
X555696Y78500D01*
X554304D01*
X553017Y77967D01*
X552033Y76982D01*
X551500Y75696D01*
Y74304D01*
X551626Y74000D01*
X528374D01*
X528500Y74304D01*
Y75696D01*
X527967Y76982D01*
X526982Y77967D01*
X525696Y78500D01*
X524304D01*
X523017Y77967D01*
X522033Y76982D01*
X521500Y75696D01*
Y74304D01*
X521626Y74000D01*
X513374D01*
X513500Y74304D01*
Y75696D01*
X512967Y76982D01*
X511982Y77967D01*
X510696Y78500D01*
X509304D01*
X508017Y77967D01*
X507033Y76982D01*
X506500Y75696D01*
Y74304D01*
X506626Y74000D01*
X489514D01*
X489573Y74141D01*
Y75534D01*
X489040Y76820D01*
X488055Y77805D01*
X486769Y78338D01*
X485377D01*
X484090Y77805D01*
X484018Y77732D01*
X462410Y99340D01*
X462593Y99523D01*
X462974Y100442D01*
Y101437D01*
X462593Y102355D01*
X461890Y103059D01*
X460971Y103439D01*
X459977D01*
X459058Y103059D01*
X458874Y102876D01*
X455893Y105857D01*
X456108Y106072D01*
X456489Y106991D01*
Y107985D01*
X456108Y108904D01*
X455405Y109607D01*
X454486Y109988D01*
X453492D01*
X452573Y109607D01*
X452358Y109392D01*
X452000Y109750D01*
Y118946D01*
X452573Y118373D01*
X453492Y117993D01*
X454486D01*
X455405Y118373D01*
X456108Y119077D01*
X456489Y119995D01*
Y120744D01*
X485849D01*
X488587Y117615D01*
X488503Y117414D01*
Y116022D01*
X489036Y114735D01*
X490021Y113751D01*
X491307Y113218D01*
X492434D01*
X503161Y100959D01*
X502309Y100107D01*
X501777Y98821D01*
Y97428D01*
X502309Y96142D01*
X503294Y95157D01*
X504580Y94625D01*
X505973D01*
X507259Y95157D01*
X508244Y96142D01*
X508777Y97428D01*
Y98821D01*
X508288Y100000D01*
X523500D01*
X528638Y105138D01*
X529106Y104670D01*
X531128Y103833D01*
X533316D01*
X535337Y104670D01*
X536885Y106217D01*
X537722Y108239D01*
Y110427D01*
X536885Y112448D01*
X536416Y112916D01*
X552750Y129250D01*
X565750D01*
Y91299D01*
D02*
G37*
%LPC*%
G36*
X570696Y468500D02*
X569304D01*
X568017Y467967D01*
X567033Y466982D01*
X566500Y465696D01*
Y464304D01*
X567033Y463017D01*
X568017Y462033D01*
X569304Y461500D01*
X570696D01*
X571982Y462033D01*
X572967Y463017D01*
X573500Y464304D01*
Y465696D01*
X572967Y466982D01*
X571982Y467967D01*
X570696Y468500D01*
D02*
G37*
G36*
X557781Y446165D02*
X556389D01*
X555103Y445632D01*
X554118Y444647D01*
X553585Y443361D01*
Y441968D01*
X554118Y440682D01*
X555103Y439697D01*
X556389Y439165D01*
X557781D01*
X559068Y439697D01*
X560052Y440682D01*
X560585Y441968D01*
Y443361D01*
X560052Y444647D01*
X559068Y445632D01*
X557781Y446165D01*
D02*
G37*
G36*
X538863Y433322D02*
X537471D01*
X536184Y432789D01*
X535200Y431804D01*
X534667Y430518D01*
Y429126D01*
X535200Y427839D01*
X536184Y426855D01*
X537471Y426322D01*
X538863D01*
X540150Y426855D01*
X541134Y427839D01*
X541667Y429126D01*
Y430518D01*
X541134Y431804D01*
X540150Y432789D01*
X538863Y433322D01*
D02*
G37*
G36*
X534057Y423262D02*
X532664D01*
X531378Y422729D01*
X530393Y421744D01*
X529860Y420458D01*
Y419066D01*
X530393Y417779D01*
X531378Y416795D01*
X532664Y416262D01*
X534057D01*
X535343Y416795D01*
X536328Y417779D01*
X536860Y419066D01*
Y420458D01*
X536328Y421744D01*
X535343Y422729D01*
X534057Y423262D01*
D02*
G37*
G36*
X538667Y394998D02*
X537274D01*
X535988Y394465D01*
X535003Y393481D01*
X534470Y392195D01*
Y390802D01*
X535003Y389516D01*
X535988Y388531D01*
X537274Y387998D01*
X538667D01*
X539953Y388531D01*
X540938Y389516D01*
X541470Y390802D01*
Y392195D01*
X540938Y393481D01*
X539953Y394465D01*
X538667Y394998D01*
D02*
G37*
G36*
X525696Y393500D02*
X524304D01*
X523017Y392967D01*
X522033Y391983D01*
X521500Y390696D01*
Y389304D01*
X522033Y388017D01*
X523017Y387033D01*
X524304Y386500D01*
X525696D01*
X526983Y387033D01*
X527967Y388017D01*
X528500Y389304D01*
Y390696D01*
X527967Y391983D01*
X526983Y392967D01*
X525696Y393500D01*
D02*
G37*
G36*
X526652Y377162D02*
X525260D01*
X523973Y376629D01*
X522989Y375645D01*
X522456Y374358D01*
Y372966D01*
X522989Y371679D01*
X523973Y370695D01*
X525260Y370162D01*
X526652D01*
X527938Y370695D01*
X529355Y369957D01*
Y369604D01*
X529888Y368318D01*
X530873Y367333D01*
X532159Y366800D01*
X533551D01*
X534838Y367333D01*
X535822Y368318D01*
X536355Y369604D01*
Y370997D01*
X535822Y372283D01*
X534838Y373268D01*
X533551Y373800D01*
X532159D01*
X530873Y373268D01*
X529456Y374006D01*
Y374358D01*
X528923Y375645D01*
X527938Y376629D01*
X526652Y377162D01*
D02*
G37*
G36*
X532439Y363867D02*
X531047D01*
X529761Y363334D01*
X528776Y362350D01*
X528652Y362325D01*
X528009Y362967D01*
X526723Y363500D01*
X525331D01*
X524044Y362967D01*
X523060Y361983D01*
X522527Y360696D01*
Y359304D01*
X523060Y358017D01*
X524044Y357033D01*
X525331Y356500D01*
X526723D01*
X528009Y357033D01*
X528994Y358017D01*
X529118Y358042D01*
X529761Y357400D01*
X531047Y356867D01*
X532439D01*
X533726Y357400D01*
X534710Y358384D01*
X535243Y359671D01*
Y361063D01*
X534710Y362350D01*
X533726Y363334D01*
X532439Y363867D01*
D02*
G37*
G36*
X538617Y342014D02*
X537225D01*
X535938Y341481D01*
X534954Y340496D01*
X534421Y339210D01*
Y337817D01*
X534954Y336531D01*
X535938Y335546D01*
X537225Y335014D01*
X538617D01*
X539903Y335546D01*
X540888Y336531D01*
X541421Y337817D01*
Y339210D01*
X540888Y340496D01*
X539903Y341481D01*
X538617Y342014D01*
D02*
G37*
G36*
X532410Y294851D02*
X531018D01*
X529732Y294318D01*
X528747Y293333D01*
X528214Y292047D01*
Y290655D01*
X528747Y289368D01*
X529732Y288384D01*
X531018Y287851D01*
X532410D01*
X533697Y288384D01*
X534681Y289368D01*
X535214Y290655D01*
Y292047D01*
X534681Y293333D01*
X533697Y294318D01*
X532410Y294851D01*
D02*
G37*
G36*
X525696Y288500D02*
X524304D01*
X523017Y287967D01*
X522033Y286982D01*
X521500Y285696D01*
Y284304D01*
X522033Y283017D01*
X523017Y282033D01*
X524304Y281500D01*
X525696D01*
X526890Y281994D01*
X527214Y281835D01*
X528144Y281039D01*
X527871Y280381D01*
Y278988D01*
X528404Y277702D01*
X529139Y276967D01*
X529266Y276010D01*
X529121Y275179D01*
X528361Y274419D01*
X527828Y273132D01*
X526433Y273340D01*
X525041D01*
X523754Y272807D01*
X522770Y271822D01*
X522237Y270536D01*
Y269144D01*
X522770Y267857D01*
X523754Y266873D01*
X525041Y266340D01*
X526433D01*
X527719Y266873D01*
X528704Y267857D01*
X529237Y269144D01*
X530632Y268936D01*
X532025D01*
X533311Y269469D01*
X534296Y270453D01*
X534828Y271740D01*
Y273132D01*
X534296Y274419D01*
X533561Y275154D01*
X533434Y276111D01*
X533578Y276942D01*
X534338Y277702D01*
X534871Y278988D01*
Y280381D01*
X534338Y281667D01*
X533354Y282652D01*
X532067Y283185D01*
X530675D01*
X529481Y282690D01*
X529157Y282850D01*
X528227Y283646D01*
X528500Y284304D01*
Y285696D01*
X527967Y286982D01*
X526982Y287967D01*
X525696Y288500D01*
D02*
G37*
G36*
X518196Y243500D02*
X516804D01*
X515517Y242967D01*
X514533Y241982D01*
X514000Y240696D01*
Y239304D01*
X514533Y238017D01*
X515517Y237033D01*
X516804Y236500D01*
X518196D01*
X519482Y237033D01*
X520467Y238017D01*
X521000Y239304D01*
Y240696D01*
X520467Y241982D01*
X519482Y242967D01*
X518196Y243500D01*
D02*
G37*
G36*
X530423Y239684D02*
X529030D01*
X527744Y239151D01*
X526759Y238167D01*
X526227Y236880D01*
Y235488D01*
X526759Y234201D01*
X527744Y233217D01*
X529030Y232684D01*
X530423D01*
X531709Y233217D01*
X532694Y234201D01*
X533227Y235488D01*
Y236880D01*
X532694Y238167D01*
X531709Y239151D01*
X530423Y239684D01*
D02*
G37*
G36*
X499955Y214000D02*
X498563D01*
X497276Y213467D01*
X496292Y212483D01*
X495759Y211196D01*
Y209804D01*
X496292Y208517D01*
X497276Y207533D01*
X498563Y207000D01*
X499955D01*
X501241Y207533D01*
X502226Y208517D01*
X502759Y209804D01*
Y211196D01*
X502226Y212483D01*
X501241Y213467D01*
X499955Y214000D01*
D02*
G37*
G36*
X507870Y444002D02*
X506478D01*
X505192Y443470D01*
X504207Y442485D01*
X503674Y441199D01*
Y439806D01*
X504207Y438520D01*
X505192Y437535D01*
X506478Y437002D01*
X507870D01*
X509157Y437535D01*
X510141Y438520D01*
X510674Y439806D01*
Y441199D01*
X510141Y442485D01*
X509157Y443470D01*
X507870Y444002D01*
D02*
G37*
G36*
X485696Y433500D02*
X484304D01*
X483017Y432967D01*
X482033Y431983D01*
X481500Y430696D01*
Y429304D01*
X482033Y428017D01*
X483017Y427033D01*
X484304Y426500D01*
X485696D01*
X486983Y427033D01*
X487967Y428017D01*
X488500Y429304D01*
Y430696D01*
X487967Y431983D01*
X486983Y432967D01*
X485696Y433500D01*
D02*
G37*
G36*
X504948Y357955D02*
X503555D01*
X502269Y357422D01*
X501284Y356437D01*
X500752Y355151D01*
Y353758D01*
X501284Y352472D01*
X502269Y351488D01*
X503555Y350955D01*
X504948D01*
X506234Y351488D01*
X507219Y352472D01*
X507752Y353758D01*
Y355151D01*
X507219Y356437D01*
X506234Y357422D01*
X504948Y357955D01*
D02*
G37*
G36*
X499072Y309511D02*
X497680D01*
X496393Y308978D01*
X495409Y307994D01*
X494876Y306707D01*
Y305315D01*
X495409Y304028D01*
X496393Y303044D01*
X497680Y302511D01*
X499072D01*
X500359Y303044D01*
X501343Y304028D01*
X501876Y305315D01*
Y306707D01*
X501343Y307994D01*
X500359Y308978D01*
X499072Y309511D01*
D02*
G37*
G36*
X490446Y303500D02*
X489054D01*
X487767Y302967D01*
X486783Y301983D01*
X486250Y300696D01*
Y299304D01*
X486783Y298017D01*
X487767Y297033D01*
X488465Y296744D01*
X487757Y296451D01*
X486772Y295466D01*
X486239Y294180D01*
Y292787D01*
X486772Y291501D01*
X487757Y290517D01*
X489043Y289984D01*
X490435D01*
X491722Y290517D01*
X492706Y291501D01*
X493239Y292787D01*
Y294180D01*
X492706Y295466D01*
X491722Y296451D01*
X491025Y296740D01*
X491733Y297033D01*
X492717Y298017D01*
X493250Y299304D01*
Y300696D01*
X492717Y301983D01*
X491733Y302967D01*
X490446Y303500D01*
D02*
G37*
G36*
X498558Y273449D02*
X497166D01*
X495880Y272916D01*
X494895Y271932D01*
X494362Y270645D01*
Y269253D01*
X494895Y267966D01*
X495880Y266982D01*
X497166Y266449D01*
X498558D01*
X499845Y266982D01*
X500829Y267966D01*
X501362Y269253D01*
Y270645D01*
X500829Y271932D01*
X499845Y272916D01*
X498558Y273449D01*
D02*
G37*
G36*
X490711D02*
X489319D01*
X488032Y272916D01*
X487048Y271932D01*
X486515Y270645D01*
Y269253D01*
X487048Y267966D01*
X488032Y266982D01*
X489319Y266449D01*
X490711D01*
X491997Y266982D01*
X492982Y267966D01*
X493515Y269253D01*
Y270645D01*
X492982Y271932D01*
X491997Y272916D01*
X490711Y273449D01*
D02*
G37*
G36*
X260946Y474000D02*
X259554D01*
X258267Y473467D01*
X257283Y472483D01*
X256750Y471196D01*
Y469804D01*
X257283Y468517D01*
X258267Y467533D01*
X259554Y467000D01*
X260946D01*
X262233Y467533D01*
X263217Y468517D01*
X263750Y469804D01*
Y471196D01*
X263217Y472483D01*
X262233Y473467D01*
X260946Y474000D01*
D02*
G37*
G36*
X270696Y464250D02*
X269304D01*
X268017Y463717D01*
X267033Y462733D01*
X266500Y461446D01*
Y460054D01*
X267033Y458767D01*
X268017Y457783D01*
X269304Y457250D01*
X270696D01*
X271983Y457783D01*
X272967Y458767D01*
X273500Y460054D01*
Y461446D01*
X272967Y462733D01*
X271983Y463717D01*
X270696Y464250D01*
D02*
G37*
G36*
X422132Y455566D02*
X420740D01*
X419453Y455033D01*
X418469Y454049D01*
X417936Y452762D01*
Y451370D01*
X418469Y450084D01*
X419453Y449099D01*
X420740Y448566D01*
X422132D01*
X423419Y449099D01*
X424403Y450084D01*
X424936Y451370D01*
Y452762D01*
X424403Y454049D01*
X423419Y455033D01*
X422132Y455566D01*
D02*
G37*
G36*
X413196Y453500D02*
X411804D01*
X410517Y452967D01*
X409533Y451982D01*
X409000Y450696D01*
Y449304D01*
X409533Y448017D01*
X410517Y447033D01*
X411804Y446500D01*
X413196D01*
X414482Y447033D01*
X415467Y448017D01*
X416000Y449304D01*
Y450696D01*
X415467Y451982D01*
X414482Y452967D01*
X413196Y453500D01*
D02*
G37*
G36*
X386275Y449049D02*
X384882D01*
X383596Y448516D01*
X382611Y447531D01*
X382078Y446245D01*
Y444852D01*
X382611Y443566D01*
X383596Y442581D01*
X384882Y442048D01*
X386275D01*
X387561Y442581D01*
X388546Y443566D01*
X389078Y444852D01*
Y446245D01*
X388546Y447531D01*
X387561Y448516D01*
X386275Y449049D01*
D02*
G37*
G36*
X353006Y448500D02*
X351614D01*
X350327Y447967D01*
X349343Y446983D01*
X348810Y445696D01*
Y444304D01*
X349343Y443017D01*
X350327Y442033D01*
X351614Y441500D01*
X353006D01*
X354293Y442033D01*
X355277Y443017D01*
X355810Y444304D01*
Y445696D01*
X355277Y446983D01*
X354293Y447967D01*
X353006Y448500D01*
D02*
G37*
G36*
X295696D02*
X294304D01*
X293017Y447967D01*
X292033Y446983D01*
X291500Y445696D01*
Y444304D01*
X292033Y443017D01*
X293017Y442033D01*
X294304Y441500D01*
X295696D01*
X296983Y442033D01*
X297967Y443017D01*
X298500Y444304D01*
Y445696D01*
X297967Y446983D01*
X296983Y447967D01*
X295696Y448500D01*
D02*
G37*
G36*
X260946Y448000D02*
X259554D01*
X258267Y447467D01*
X257283Y446483D01*
X256750Y445196D01*
Y443804D01*
X257283Y442517D01*
X258267Y441533D01*
X259554Y441000D01*
X260946D01*
X262233Y441533D01*
X263217Y442517D01*
X263750Y443804D01*
Y445196D01*
X263217Y446483D01*
X262233Y447467D01*
X260946Y448000D01*
D02*
G37*
G36*
X329011Y447822D02*
X327618D01*
X326332Y447289D01*
X325347Y446305D01*
X324814Y445018D01*
Y443626D01*
X325347Y442339D01*
X326332Y441355D01*
X327618Y440822D01*
X329011D01*
X330297Y441355D01*
X331282Y442339D01*
X331814Y443626D01*
Y445018D01*
X331282Y446305D01*
X330297Y447289D01*
X329011Y447822D01*
D02*
G37*
G36*
X309066D02*
X307673D01*
X306387Y447289D01*
X305402Y446305D01*
X304869Y445018D01*
Y443626D01*
X305402Y442339D01*
X306387Y441355D01*
X307673Y440822D01*
X309066D01*
X310352Y441355D01*
X311337Y442339D01*
X311869Y443626D01*
Y445018D01*
X311337Y446305D01*
X310352Y447289D01*
X309066Y447822D01*
D02*
G37*
G36*
X422026Y447640D02*
X420634D01*
X419347Y447107D01*
X418363Y446122D01*
X417830Y444836D01*
Y443443D01*
X418363Y442157D01*
X419347Y441172D01*
X420634Y440639D01*
X422026D01*
X423313Y441172D01*
X424297Y442157D01*
X424830Y443443D01*
Y444836D01*
X424297Y446122D01*
X423313Y447107D01*
X422026Y447640D01*
D02*
G37*
G36*
X365798Y442088D02*
X364406D01*
X363119Y441555D01*
X362135Y440570D01*
X361602Y439284D01*
Y437892D01*
X362135Y436605D01*
X363119Y435621D01*
X364406Y435088D01*
X365798D01*
X367084Y435621D01*
X368069Y436605D01*
X368602Y437892D01*
Y439284D01*
X368069Y440570D01*
X367084Y441555D01*
X365798Y442088D01*
D02*
G37*
G36*
X347570Y441247D02*
X346177D01*
X344891Y440714D01*
X343906Y439730D01*
X343374Y438443D01*
Y437051D01*
X343906Y435765D01*
X344891Y434780D01*
X346177Y434247D01*
X347570D01*
X348856Y434780D01*
X349841Y435765D01*
X350374Y437051D01*
Y438443D01*
X349841Y439730D01*
X348856Y440714D01*
X347570Y441247D01*
D02*
G37*
G36*
X468721Y444389D02*
X467328D01*
X466042Y443857D01*
X465057Y442872D01*
X464524Y441586D01*
Y440193D01*
X465057Y438907D01*
X466042Y437922D01*
X467328Y437389D01*
X467909D01*
X467907Y437388D01*
X467375Y436102D01*
Y434709D01*
X467907Y433423D01*
X468892Y432438D01*
X470178Y431906D01*
X471571D01*
X472857Y432438D01*
X473842Y433423D01*
X474375Y434709D01*
Y436102D01*
X473842Y437388D01*
X472857Y438373D01*
X471571Y438905D01*
X470990D01*
X470992Y438907D01*
X471524Y440193D01*
Y441586D01*
X470992Y442872D01*
X470007Y443857D01*
X468721Y444389D01*
D02*
G37*
G36*
X330696Y438500D02*
X329304D01*
X328017Y437967D01*
X327033Y436982D01*
X326500Y435696D01*
Y434304D01*
X327033Y433017D01*
X328017Y432033D01*
X329304Y431500D01*
X330696D01*
X331982Y432033D01*
X332967Y433017D01*
X333500Y434304D01*
Y435696D01*
X332967Y436982D01*
X331982Y437967D01*
X330696Y438500D01*
D02*
G37*
G36*
X383363Y440129D02*
X381971D01*
X380685Y439596D01*
X379700Y438612D01*
X379167Y437326D01*
Y435933D01*
X379700Y434647D01*
X380685Y433662D01*
X381971Y433129D01*
X383363D01*
X384650Y433662D01*
X384710Y433723D01*
Y433366D01*
X385243Y432079D01*
X386228Y431095D01*
X387514Y430562D01*
X388907D01*
X390193Y431095D01*
X391178Y432079D01*
X391710Y433366D01*
Y434758D01*
X391178Y436045D01*
X390193Y437029D01*
X388907Y437562D01*
X387514D01*
X386228Y437029D01*
X386167Y436968D01*
Y437326D01*
X385634Y438612D01*
X384650Y439596D01*
X383363Y440129D01*
D02*
G37*
G36*
X258884Y434445D02*
X257491D01*
X256205Y433913D01*
X255221Y432928D01*
X254688Y431642D01*
Y430249D01*
X255221Y428963D01*
X256205Y427978D01*
X257491Y427445D01*
X258884D01*
X260170Y427978D01*
X261155Y428963D01*
X261688Y430249D01*
Y431642D01*
X261155Y432928D01*
X260170Y433913D01*
X258884Y434445D01*
D02*
G37*
G36*
X345446Y434253D02*
X344054D01*
X342767Y433720D01*
X341783Y432735D01*
X341250Y431449D01*
Y430056D01*
X341783Y428770D01*
X342767Y427785D01*
X344054Y427253D01*
X345446D01*
X346733Y427785D01*
X347717Y428770D01*
X348250Y430056D01*
Y431449D01*
X347717Y432735D01*
X346733Y433720D01*
X345446Y434253D01*
D02*
G37*
G36*
X374551Y433318D02*
X373158D01*
X371872Y432785D01*
X370887Y431801D01*
X370354Y430514D01*
Y429122D01*
X370887Y427836D01*
X371872Y426851D01*
X373158Y426318D01*
X374551D01*
X375837Y426851D01*
X376822Y427836D01*
X377354Y429122D01*
Y430514D01*
X376822Y431801D01*
X375837Y432785D01*
X374551Y433318D01*
D02*
G37*
G36*
X398184Y428822D02*
X396791D01*
X395505Y428289D01*
X394520Y427304D01*
X393987Y426018D01*
Y424626D01*
X394520Y423339D01*
X395505Y422355D01*
X396791Y421822D01*
X398184D01*
X399470Y422355D01*
X400454Y423339D01*
X400987Y424626D01*
Y426018D01*
X400454Y427304D01*
X399470Y428289D01*
X398184Y428822D01*
D02*
G37*
G36*
X288111Y428500D02*
X286719D01*
X285432Y427967D01*
X284448Y426983D01*
X283915Y425696D01*
Y424304D01*
X284448Y423017D01*
X285432Y422033D01*
X286719Y421500D01*
X288111D01*
X289398Y422033D01*
X290382Y423017D01*
X290915Y424304D01*
Y425696D01*
X290382Y426983D01*
X289398Y427967D01*
X288111Y428500D01*
D02*
G37*
G36*
X365696Y425750D02*
X364304D01*
X363017Y425217D01*
X362033Y424233D01*
X361500Y422946D01*
Y421554D01*
X362033Y420267D01*
X363017Y419283D01*
X364304Y418750D01*
X365696D01*
X366983Y419283D01*
X367967Y420267D01*
X368500Y421554D01*
Y422946D01*
X367967Y424233D01*
X366983Y425217D01*
X365696Y425750D01*
D02*
G37*
G36*
X383196Y423500D02*
X381804D01*
X380517Y422967D01*
X379533Y421982D01*
X379000Y420696D01*
Y419304D01*
X379533Y418017D01*
X380517Y417033D01*
X381804Y416500D01*
X383196D01*
X384482Y417033D01*
X385467Y418017D01*
X386000Y419304D01*
Y420696D01*
X385467Y421982D01*
X384482Y422967D01*
X383196Y423500D01*
D02*
G37*
G36*
X471325Y427991D02*
X469932D01*
X468646Y427458D01*
X467661Y426474D01*
X467129Y425187D01*
Y423795D01*
X467535Y422814D01*
X467328D01*
X466042Y422281D01*
X465057Y421297D01*
X464524Y420010D01*
Y418618D01*
X465057Y417332D01*
X466042Y416347D01*
X467328Y415814D01*
X468721D01*
X470007Y416347D01*
X470992Y417332D01*
X471525Y418618D01*
Y420010D01*
X471118Y420991D01*
X471325D01*
X472611Y421524D01*
X473596Y422509D01*
X474128Y423795D01*
Y425187D01*
X473596Y426474D01*
X472611Y427458D01*
X471325Y427991D01*
D02*
G37*
G36*
X455546Y434090D02*
X454154D01*
X452868Y433558D01*
X451883Y432573D01*
X451350Y431287D01*
Y429894D01*
X451883Y428608D01*
X452806Y427685D01*
X451933Y426812D01*
X451400Y425525D01*
Y424133D01*
X451933Y422846D01*
X452918Y421862D01*
X454204Y421329D01*
X455596D01*
X455775Y421403D01*
X454854Y420483D01*
X454322Y419196D01*
Y417804D01*
X454854Y416517D01*
X455839Y415533D01*
X457125Y415000D01*
X458518D01*
X459804Y415533D01*
X460789Y416517D01*
X461321Y417804D01*
Y419196D01*
X460789Y420483D01*
X459804Y421467D01*
X458518Y422000D01*
X457125D01*
X456947Y421926D01*
X457867Y422846D01*
X458400Y424133D01*
Y425525D01*
X457867Y426812D01*
X456944Y427735D01*
X457817Y428608D01*
X458350Y429894D01*
Y431287D01*
X457817Y432573D01*
X456833Y433558D01*
X455546Y434090D01*
D02*
G37*
G36*
X446147Y420813D02*
X444755D01*
X443469Y420280D01*
X442484Y419295D01*
X441951Y418009D01*
Y416616D01*
X442484Y415330D01*
X443469Y414346D01*
X444755Y413813D01*
X446147D01*
X447434Y414346D01*
X448419Y415330D01*
X448951Y416616D01*
Y418009D01*
X448419Y419295D01*
X447434Y420280D01*
X446147Y420813D01*
D02*
G37*
G36*
X426696Y418750D02*
X425304D01*
X424017Y418217D01*
X423033Y417233D01*
X422500Y415946D01*
Y414554D01*
X423033Y413267D01*
X424017Y412283D01*
X425304Y411750D01*
X426696D01*
X427983Y412283D01*
X428967Y413267D01*
X429500Y414554D01*
Y415946D01*
X428967Y417233D01*
X427983Y418217D01*
X426696Y418750D01*
D02*
G37*
G36*
X345446Y422000D02*
X344054D01*
X342767Y421467D01*
X341783Y420483D01*
X341250Y419196D01*
Y417804D01*
X341783Y416517D01*
X342767Y415533D01*
X343450Y415250D01*
X342767Y414967D01*
X341783Y413983D01*
X341250Y412696D01*
Y411304D01*
X341783Y410017D01*
X342767Y409033D01*
X344054Y408500D01*
X345446D01*
X346733Y409033D01*
X347717Y410017D01*
X348250Y411304D01*
Y412696D01*
X347717Y413983D01*
X346733Y414967D01*
X346050Y415250D01*
X346733Y415533D01*
X347717Y416517D01*
X348250Y417804D01*
Y419196D01*
X347717Y420483D01*
X346733Y421467D01*
X345446Y422000D01*
D02*
G37*
G36*
X322382Y411256D02*
X320990D01*
X319703Y410724D01*
X318719Y409739D01*
X318186Y408453D01*
Y407060D01*
X318719Y405774D01*
X319703Y404789D01*
X320990Y404256D01*
X322382D01*
X323669Y404789D01*
X324653Y405774D01*
X325186Y407060D01*
Y408453D01*
X324653Y409739D01*
X323669Y410724D01*
X322382Y411256D01*
D02*
G37*
G36*
X277683Y411166D02*
X276290D01*
X275004Y410633D01*
X274020Y409648D01*
X273487Y408362D01*
Y406969D01*
X274020Y405683D01*
X275004Y404698D01*
X276290Y404166D01*
X277683D01*
X278969Y404698D01*
X279954Y405683D01*
X280487Y406969D01*
Y408362D01*
X279954Y409648D01*
X278969Y410633D01*
X277683Y411166D01*
D02*
G37*
G36*
X462752Y408918D02*
X461360D01*
X460073Y408386D01*
X459089Y407401D01*
X458556Y406115D01*
Y404722D01*
X459089Y403436D01*
X460073Y402451D01*
X461360Y401918D01*
X462752D01*
X464038Y402451D01*
X465023Y403436D01*
X465556Y404722D01*
Y406115D01*
X465023Y407401D01*
X464038Y408386D01*
X462752Y408918D01*
D02*
G37*
G36*
X450696Y408500D02*
X449304D01*
X448017Y407967D01*
X447033Y406982D01*
X446500Y405696D01*
Y404304D01*
X447033Y403017D01*
X448017Y402033D01*
X449304Y401500D01*
X450696D01*
X451982Y402033D01*
X452967Y403017D01*
X453500Y404304D01*
Y405696D01*
X452967Y406982D01*
X451982Y407967D01*
X450696Y408500D01*
D02*
G37*
G36*
X435696D02*
X434304D01*
X433017Y407967D01*
X432033Y406982D01*
X431500Y405696D01*
Y404304D01*
X432033Y403017D01*
X433017Y402033D01*
X434304Y401500D01*
X435696D01*
X436982Y402033D01*
X437967Y403017D01*
X438500Y404304D01*
Y405696D01*
X437967Y406982D01*
X436982Y407967D01*
X435696Y408500D01*
D02*
G37*
G36*
X315696D02*
X314304D01*
X313017Y407967D01*
X312033Y406982D01*
X311500Y405696D01*
Y404304D01*
X312033Y403017D01*
X313017Y402033D01*
X314304Y401500D01*
X315696D01*
X316982Y402033D01*
X317967Y403017D01*
X318500Y404304D01*
Y405696D01*
X317967Y406982D01*
X316982Y407967D01*
X315696Y408500D01*
D02*
G37*
G36*
X300696D02*
X299304D01*
X298017Y407967D01*
X297033Y406982D01*
X296500Y405696D01*
Y404304D01*
X297033Y403017D01*
X298017Y402033D01*
X299304Y401500D01*
X300696D01*
X301982Y402033D01*
X302967Y403017D01*
X303500Y404304D01*
Y405696D01*
X302967Y406982D01*
X301982Y407967D01*
X300696Y408500D01*
D02*
G37*
G36*
X353877Y407329D02*
X352485D01*
X351199Y406796D01*
X350214Y405811D01*
X349681Y404525D01*
Y403133D01*
X350214Y401846D01*
X351199Y400862D01*
X352485Y400329D01*
X353877D01*
X355164Y400862D01*
X356148Y401846D01*
X356681Y403133D01*
Y404525D01*
X356148Y405811D01*
X355164Y406796D01*
X353877Y407329D01*
D02*
G37*
G36*
X365012Y395783D02*
X363619D01*
X362333Y395250D01*
X361348Y394266D01*
X360816Y392979D01*
Y391587D01*
X361348Y390300D01*
X362333Y389316D01*
X363619Y388783D01*
X365012D01*
X366298Y389316D01*
X367283Y390300D01*
X367816Y391587D01*
Y392979D01*
X367283Y394266D01*
X366298Y395250D01*
X365012Y395783D01*
D02*
G37*
G36*
X382911Y395680D02*
X381519D01*
X380232Y395147D01*
X379248Y394163D01*
X378715Y392876D01*
Y391484D01*
X379248Y390198D01*
X380232Y389213D01*
X381519Y388680D01*
X382911D01*
X384198Y389213D01*
X385182Y390198D01*
X385715Y391484D01*
Y392876D01*
X385182Y394163D01*
X384198Y395147D01*
X382911Y395680D01*
D02*
G37*
G36*
X278196Y393500D02*
X276804D01*
X275517Y392967D01*
X274533Y391982D01*
X274000Y390696D01*
Y389304D01*
X274533Y388017D01*
X275517Y387033D01*
X276804Y386500D01*
X278196D01*
X279482Y387033D01*
X280467Y388017D01*
X281000Y389304D01*
Y390696D01*
X280467Y391982D01*
X279482Y392967D01*
X278196Y393500D01*
D02*
G37*
G36*
X391905Y390704D02*
X390513D01*
X389226Y390171D01*
X388242Y389187D01*
X387709Y387900D01*
Y386508D01*
X388242Y385222D01*
X389226Y384237D01*
X390513Y383704D01*
X391905D01*
X393191Y384237D01*
X394176Y385222D01*
X394709Y386508D01*
Y387900D01*
X394176Y389187D01*
X393191Y390171D01*
X391905Y390704D01*
D02*
G37*
G36*
X455946Y386178D02*
X454554D01*
X453267Y385645D01*
X452283Y384661D01*
X451750Y383374D01*
Y381982D01*
X452283Y380696D01*
X453267Y379711D01*
X454554Y379178D01*
X455946D01*
X457233Y379711D01*
X458217Y380696D01*
X458750Y381982D01*
Y383374D01*
X458217Y384661D01*
X457233Y385645D01*
X455946Y386178D01*
D02*
G37*
G36*
X425248Y385154D02*
X423856D01*
X422570Y384621D01*
X421585Y383636D01*
X421052Y382350D01*
Y380957D01*
X421585Y379671D01*
X422570Y378686D01*
X423856Y378154D01*
X425248D01*
X426535Y378686D01*
X427519Y379671D01*
X428052Y380957D01*
Y382350D01*
X427519Y383636D01*
X426535Y384621D01*
X425248Y385154D01*
D02*
G37*
G36*
X465831Y383997D02*
X464439D01*
X463153Y383464D01*
X462168Y382480D01*
X461635Y381193D01*
Y379801D01*
X462168Y378515D01*
X463153Y377530D01*
X464439Y376997D01*
X465831D01*
X467118Y377530D01*
X468102Y378515D01*
X468635Y379801D01*
Y381193D01*
X468102Y382480D01*
X467118Y383464D01*
X465831Y383997D01*
D02*
G37*
G36*
X437043Y383965D02*
X435651D01*
X434364Y383432D01*
X433380Y382447D01*
X432847Y381161D01*
Y379768D01*
X433380Y378482D01*
X434364Y377497D01*
X435651Y376965D01*
X437043D01*
X438330Y377497D01*
X439314Y378482D01*
X439847Y379768D01*
Y381161D01*
X439314Y382447D01*
X438330Y383432D01*
X437043Y383965D01*
D02*
G37*
G36*
X392041Y383241D02*
X390648D01*
X389362Y382708D01*
X388377Y381724D01*
X387845Y380437D01*
Y379045D01*
X388377Y377758D01*
X389362Y376774D01*
X390648Y376241D01*
X392041D01*
X393327Y376774D01*
X394312Y377758D01*
X394845Y379045D01*
Y380437D01*
X394312Y381724D01*
X393327Y382708D01*
X392041Y383241D01*
D02*
G37*
G36*
X446902Y382630D02*
X445510D01*
X444224Y382098D01*
X443239Y381113D01*
X442706Y379827D01*
Y378434D01*
X443239Y377148D01*
X444224Y376163D01*
X445510Y375630D01*
X446902D01*
X448189Y376163D01*
X449173Y377148D01*
X449706Y378434D01*
Y379827D01*
X449173Y381113D01*
X448189Y382098D01*
X446902Y382630D01*
D02*
G37*
G36*
X293451Y378667D02*
X292058D01*
X290772Y378134D01*
X289787Y377150D01*
X289254Y375863D01*
Y374471D01*
X289787Y373185D01*
X290772Y372200D01*
X292058Y371667D01*
X293451D01*
X294737Y372200D01*
X295721Y373185D01*
X296254Y374471D01*
Y375863D01*
X295721Y377150D01*
X294737Y378134D01*
X293451Y378667D01*
D02*
G37*
G36*
X319832Y378623D02*
X318440D01*
X317153Y378090D01*
X316169Y377105D01*
X315636Y375819D01*
Y374426D01*
X316169Y373140D01*
X317153Y372156D01*
X318440Y371623D01*
X319832D01*
X321119Y372156D01*
X322103Y373140D01*
X322636Y374426D01*
Y375819D01*
X322103Y377105D01*
X321119Y378090D01*
X319832Y378623D01*
D02*
G37*
G36*
X365696Y378500D02*
X364304D01*
X363017Y377967D01*
X362033Y376983D01*
X361500Y375696D01*
Y374304D01*
X362033Y373017D01*
X363017Y372033D01*
X364304Y371500D01*
X365696D01*
X366983Y372033D01*
X367967Y373017D01*
X368500Y374304D01*
Y375696D01*
X367967Y376983D01*
X366983Y377967D01*
X365696Y378500D01*
D02*
G37*
G36*
X456058Y377081D02*
X454665D01*
X453379Y376548D01*
X452394Y375563D01*
X451862Y374277D01*
Y372884D01*
X452394Y371598D01*
X453379Y370614D01*
X454665Y370081D01*
X456058D01*
X457344Y370614D01*
X458329Y371598D01*
X458862Y372884D01*
Y374277D01*
X458329Y375563D01*
X457344Y376548D01*
X456058Y377081D01*
D02*
G37*
G36*
X334445Y374751D02*
X333053D01*
X331767Y374218D01*
X330782Y373233D01*
X330249Y371947D01*
Y370555D01*
X330782Y369268D01*
X331767Y368284D01*
X333053Y367751D01*
X334445D01*
X335732Y368284D01*
X336716Y369268D01*
X337249Y370555D01*
Y371947D01*
X336716Y373233D01*
X335732Y374218D01*
X334445Y374751D01*
D02*
G37*
G36*
X389534Y372403D02*
X388142D01*
X386855Y371870D01*
X385871Y370886D01*
X385338Y369599D01*
Y368207D01*
X385871Y366921D01*
X386855Y365936D01*
X388142Y365403D01*
X389534D01*
X390820Y365936D01*
X391805Y366921D01*
X392338Y368207D01*
Y369599D01*
X391805Y370886D01*
X390820Y371870D01*
X389534Y372403D01*
D02*
G37*
G36*
X446902Y371630D02*
X445510D01*
X444224Y371097D01*
X443239Y370113D01*
X442706Y368826D01*
Y367434D01*
X443239Y366148D01*
X444224Y365163D01*
X445510Y364630D01*
X446902D01*
X448189Y365163D01*
X449173Y366148D01*
X449706Y367434D01*
Y368826D01*
X449173Y370113D01*
X448189Y371097D01*
X446902Y371630D01*
D02*
G37*
G36*
X415794Y371404D02*
X414401D01*
X413115Y370871D01*
X412130Y369887D01*
X411598Y368600D01*
Y367208D01*
X412130Y365921D01*
X413115Y364937D01*
X414401Y364404D01*
X415794D01*
X417080Y364937D01*
X418065Y365921D01*
X418598Y367208D01*
Y368600D01*
X418065Y369887D01*
X417080Y370871D01*
X415794Y371404D01*
D02*
G37*
G36*
X457009Y370016D02*
X455616D01*
X454330Y369483D01*
X453345Y368499D01*
X452812Y367212D01*
Y365820D01*
X453345Y364534D01*
X454330Y363549D01*
X455616Y363016D01*
X457009D01*
X458295Y363549D01*
X459280Y364534D01*
X459812Y365820D01*
Y367212D01*
X459280Y368499D01*
X458295Y369483D01*
X457009Y370016D01*
D02*
G37*
G36*
X338196Y363500D02*
X336804D01*
X335517Y362967D01*
X334533Y361982D01*
X334000Y360696D01*
Y359304D01*
X334533Y358017D01*
X335517Y357033D01*
X336804Y356500D01*
X338196D01*
X339482Y357033D01*
X340467Y358017D01*
X341000Y359304D01*
Y360696D01*
X340467Y361982D01*
X339482Y362967D01*
X338196Y363500D01*
D02*
G37*
G36*
X308196D02*
X306804D01*
X305517Y362967D01*
X304533Y361982D01*
X304000Y360696D01*
Y359304D01*
X304533Y358017D01*
X305517Y357033D01*
X306804Y356500D01*
X308196D01*
X309482Y357033D01*
X310467Y358017D01*
X311000Y359304D01*
Y360696D01*
X310467Y361982D01*
X309482Y362967D01*
X308196Y363500D01*
D02*
G37*
G36*
X278196D02*
X276804D01*
X275517Y362967D01*
X274533Y361982D01*
X274000Y360696D01*
Y359304D01*
X274533Y358017D01*
X275517Y357033D01*
X276804Y356500D01*
X278196D01*
X279482Y357033D01*
X280467Y358017D01*
X281000Y359304D01*
Y360696D01*
X280467Y361982D01*
X279482Y362967D01*
X278196Y363500D01*
D02*
G37*
G36*
X387995Y360067D02*
X386603D01*
X385317Y359534D01*
X384332Y358549D01*
X383799Y357263D01*
Y356116D01*
X383440Y356983D01*
X382456Y357967D01*
X381169Y358500D01*
X379777D01*
X378490Y357967D01*
X377506Y356983D01*
X376973Y355696D01*
Y354304D01*
X377506Y353017D01*
X378490Y352033D01*
X379777Y351500D01*
X381169D01*
X382456Y352033D01*
X383440Y353017D01*
X383973Y354304D01*
Y355451D01*
X384332Y354584D01*
X385317Y353600D01*
X386603Y353067D01*
X387995D01*
X389282Y353600D01*
X390266Y354584D01*
X390799Y355871D01*
Y357263D01*
X390266Y358549D01*
X389282Y359534D01*
X387995Y360067D01*
D02*
G37*
G36*
X366780Y360168D02*
X365387D01*
X364101Y359635D01*
X363116Y358650D01*
X362583Y357364D01*
Y355971D01*
X363116Y354685D01*
X364101Y353700D01*
X365387Y353168D01*
X366780D01*
X368066Y353700D01*
X369050Y354685D01*
X369583Y355971D01*
Y357364D01*
X369050Y358650D01*
X368066Y359635D01*
X366780Y360168D01*
D02*
G37*
G36*
X405635Y357312D02*
X404243D01*
X402956Y356779D01*
X401972Y355794D01*
X401439Y354508D01*
Y353115D01*
X401972Y351829D01*
X402956Y350844D01*
X404243Y350312D01*
X405635D01*
X406922Y350844D01*
X407906Y351829D01*
X408439Y353115D01*
Y354508D01*
X407906Y355794D01*
X406922Y356779D01*
X405635Y357312D01*
D02*
G37*
G36*
X346606Y351026D02*
X345213D01*
X343927Y350493D01*
X342942Y349509D01*
X342409Y348222D01*
Y346830D01*
X342942Y345544D01*
X343927Y344559D01*
X345213Y344026D01*
X346606D01*
X347892Y344559D01*
X348877Y345544D01*
X349409Y346830D01*
Y348222D01*
X348877Y349509D01*
X347892Y350493D01*
X346606Y351026D01*
D02*
G37*
G36*
X450696Y348500D02*
X449304D01*
X448017Y347967D01*
X447033Y346982D01*
X446500Y345696D01*
Y344304D01*
X447033Y343017D01*
X448017Y342033D01*
X449304Y341500D01*
X450696D01*
X451982Y342033D01*
X452967Y343017D01*
X453500Y344304D01*
Y345696D01*
X452967Y346982D01*
X451982Y347967D01*
X450696Y348500D01*
D02*
G37*
G36*
X423859Y345381D02*
X421870D01*
X420033Y344620D01*
X418626Y343213D01*
X417865Y341376D01*
Y339386D01*
X418626Y337549D01*
X420033Y336142D01*
X421870Y335381D01*
X423859D01*
X425697Y336142D01*
X427104Y337549D01*
X427865Y339386D01*
Y341376D01*
X427104Y343213D01*
X425697Y344620D01*
X423859Y345381D01*
D02*
G37*
G36*
X439985Y345337D02*
X437995D01*
X436158Y344576D01*
X434751Y343170D01*
X433990Y341332D01*
Y339343D01*
X434751Y337505D01*
X436158Y336098D01*
X437995Y335337D01*
X439985D01*
X441822Y336098D01*
X443229Y337505D01*
X443990Y339343D01*
Y341332D01*
X443229Y343170D01*
X441822Y344576D01*
X439985Y345337D01*
D02*
G37*
G36*
X454318Y334200D02*
X452926D01*
X451639Y333667D01*
X450655Y332682D01*
X450122Y331396D01*
Y330004D01*
X450655Y328717D01*
X451639Y327733D01*
X452926Y327200D01*
X454318D01*
X455605Y327733D01*
X456589Y328717D01*
X457122Y330004D01*
Y331396D01*
X456589Y332682D01*
X455605Y333667D01*
X454318Y334200D01*
D02*
G37*
G36*
X428196Y333500D02*
X426804D01*
X425517Y332967D01*
X424533Y331982D01*
X424000Y330696D01*
Y329304D01*
X424533Y328017D01*
X425517Y327033D01*
X426804Y326500D01*
X428196D01*
X429482Y327033D01*
X430467Y328017D01*
X431000Y329304D01*
Y330696D01*
X430467Y331982D01*
X429482Y332967D01*
X428196Y333500D01*
D02*
G37*
G36*
X323196D02*
X321804D01*
X320517Y332967D01*
X319533Y331982D01*
X319000Y330696D01*
Y329304D01*
X319533Y328017D01*
X320517Y327033D01*
X321804Y326500D01*
X323196D01*
X324482Y327033D01*
X325467Y328017D01*
X326000Y329304D01*
Y330696D01*
X325467Y331982D01*
X324482Y332967D01*
X323196Y333500D01*
D02*
G37*
G36*
X308196D02*
X306804D01*
X305517Y332967D01*
X304533Y331982D01*
X304000Y330696D01*
Y329304D01*
X304533Y328017D01*
X305517Y327033D01*
X306804Y326500D01*
X308196D01*
X309482Y327033D01*
X310467Y328017D01*
X311000Y329304D01*
Y330696D01*
X310467Y331982D01*
X309482Y332967D01*
X308196Y333500D01*
D02*
G37*
G36*
X278196D02*
X276804D01*
X275517Y332967D01*
X274533Y331982D01*
X274000Y330696D01*
Y329304D01*
X274533Y328017D01*
X275517Y327033D01*
X276804Y326500D01*
X278196D01*
X279482Y327033D01*
X280467Y328017D01*
X281000Y329304D01*
Y330696D01*
X280467Y331982D01*
X279482Y332967D01*
X278196Y333500D01*
D02*
G37*
G36*
X464623Y333240D02*
X463230D01*
X461944Y332707D01*
X460959Y331722D01*
X460426Y330436D01*
Y329043D01*
X460959Y327757D01*
X461944Y326772D01*
X463230Y326240D01*
X464623D01*
X465909Y326772D01*
X466894Y327757D01*
X467426Y329043D01*
Y330436D01*
X466894Y331722D01*
X465909Y332707D01*
X464623Y333240D01*
D02*
G37*
G36*
X293196Y333500D02*
X291804D01*
X290517Y332967D01*
X289533Y331982D01*
X289000Y330696D01*
Y329304D01*
X289533Y328017D01*
X290517Y327033D01*
X291804Y326500D01*
X293196D01*
X294482Y327033D01*
X295338Y327888D01*
X295751Y326889D01*
X296736Y325905D01*
X298022Y325372D01*
X299415D01*
X300701Y325905D01*
X301685Y326889D01*
X302218Y328176D01*
Y329568D01*
X301685Y330854D01*
X300701Y331839D01*
X299415Y332372D01*
X298022D01*
X296736Y331839D01*
X295881Y330984D01*
X295467Y331982D01*
X294482Y332967D01*
X293196Y333500D01*
D02*
G37*
G36*
X416220Y331553D02*
X414827D01*
X413541Y331021D01*
X412556Y330036D01*
X412023Y328750D01*
Y327357D01*
X412556Y326071D01*
X413541Y325086D01*
X414827Y324553D01*
X416220D01*
X417506Y325086D01*
X418491Y326071D01*
X419023Y327357D01*
Y328750D01*
X418491Y330036D01*
X417506Y331021D01*
X416220Y331553D01*
D02*
G37*
G36*
X341811Y327151D02*
X340419D01*
X339132Y326618D01*
X338148Y325633D01*
X337615Y324347D01*
Y322954D01*
X338148Y321668D01*
X339132Y320683D01*
X340419Y320151D01*
X341811D01*
X343097Y320683D01*
X344082Y321668D01*
X344615Y322954D01*
Y324347D01*
X344082Y325633D01*
X343097Y326618D01*
X341811Y327151D01*
D02*
G37*
G36*
X371777Y323940D02*
X370385D01*
X369098Y323407D01*
X368114Y322423D01*
X367581Y321136D01*
Y319744D01*
X368114Y318457D01*
X369098Y317473D01*
X370385Y316940D01*
X371777D01*
X373064Y317473D01*
X374048Y318457D01*
X374581Y319744D01*
Y321136D01*
X374048Y322423D01*
X373064Y323407D01*
X371777Y323940D01*
D02*
G37*
G36*
X407252Y321918D02*
X405859D01*
X404573Y321385D01*
X403588Y320400D01*
X403055Y319114D01*
Y317722D01*
X403588Y316435D01*
X404573Y315450D01*
X405859Y314918D01*
X407252D01*
X408538Y315450D01*
X409523Y316435D01*
X410055Y317722D01*
Y319114D01*
X409523Y320400D01*
X408538Y321385D01*
X407252Y321918D01*
D02*
G37*
G36*
X315594Y325500D02*
X313406D01*
X311385Y324663D01*
X309837Y323116D01*
X309000Y321094D01*
Y318906D01*
X309837Y316884D01*
X311385Y315337D01*
X313406Y314500D01*
X315594D01*
X317616Y315337D01*
X319163Y316884D01*
X320000Y318906D01*
Y321094D01*
X319163Y323116D01*
X317616Y324663D01*
X315594Y325500D01*
D02*
G37*
G36*
X442466Y320960D02*
X441073D01*
X439787Y320427D01*
X438802Y319442D01*
X438270Y318156D01*
Y316764D01*
X438802Y315477D01*
X439787Y314493D01*
X441073Y313960D01*
X442466D01*
X443752Y314493D01*
X444737Y315477D01*
X445270Y316764D01*
Y318156D01*
X444737Y319442D01*
X443752Y320427D01*
X442466Y320960D01*
D02*
G37*
G36*
X435696Y318500D02*
X434304D01*
X433017Y317967D01*
X432033Y316982D01*
X431500Y315696D01*
Y314304D01*
X432033Y313017D01*
X433017Y312033D01*
X434304Y311500D01*
X435696D01*
X436982Y312033D01*
X437967Y313017D01*
X438500Y314304D01*
Y315696D01*
X437967Y316982D01*
X436982Y317967D01*
X435696Y318500D01*
D02*
G37*
G36*
X300696D02*
X299304D01*
X298017Y317967D01*
X297033Y316982D01*
X296500Y315696D01*
Y314304D01*
X297033Y313017D01*
X298017Y312033D01*
X299304Y311500D01*
X300696D01*
X301982Y312033D01*
X302967Y313017D01*
X303500Y314304D01*
Y315696D01*
X302967Y316982D01*
X301982Y317967D01*
X300696Y318500D01*
D02*
G37*
G36*
X456341Y317221D02*
X454948D01*
X453662Y316688D01*
X452677Y315704D01*
X452144Y314417D01*
Y313025D01*
X452677Y311738D01*
X453662Y310754D01*
X454948Y310221D01*
X456341D01*
X457627Y310754D01*
X458611Y311738D01*
X459144Y313025D01*
Y314417D01*
X458611Y315704D01*
X457627Y316688D01*
X456341Y317221D01*
D02*
G37*
G36*
X386735Y312522D02*
X385342D01*
X384056Y311989D01*
X383071Y311005D01*
X382538Y309718D01*
Y308326D01*
X383071Y307040D01*
X384056Y306055D01*
X385342Y305522D01*
X386735D01*
X388021Y306055D01*
X389006Y307040D01*
X389538Y308326D01*
Y309718D01*
X389006Y311005D01*
X388021Y311989D01*
X386735Y312522D01*
D02*
G37*
G36*
X366319D02*
X364927D01*
X363640Y311989D01*
X362656Y311005D01*
X362123Y309718D01*
Y308326D01*
X362656Y307040D01*
X363640Y306055D01*
X364927Y305522D01*
X366319D01*
X367605Y306055D01*
X368590Y307040D01*
X369123Y308326D01*
Y309718D01*
X368590Y311005D01*
X367605Y311989D01*
X366319Y312522D01*
D02*
G37*
G36*
X350247Y312347D02*
X348855D01*
X347568Y311814D01*
X346584Y310830D01*
X346051Y309543D01*
Y308151D01*
X346584Y306865D01*
X347568Y305880D01*
X348855Y305347D01*
X350247D01*
X351534Y305880D01*
X352518Y306865D01*
X353051Y308151D01*
Y309543D01*
X352518Y310830D01*
X351534Y311814D01*
X350247Y312347D01*
D02*
G37*
G36*
X470370Y309979D02*
X468978D01*
X467691Y309446D01*
X466707Y308462D01*
X466174Y307175D01*
Y305783D01*
X466707Y304496D01*
X467691Y303512D01*
X468978Y302979D01*
X470370D01*
X471656Y303512D01*
X472641Y304496D01*
X473174Y305783D01*
Y307175D01*
X472641Y308462D01*
X471656Y309446D01*
X470370Y309979D01*
D02*
G37*
G36*
X413196Y303500D02*
X411804D01*
X410517Y302967D01*
X409533Y301982D01*
X409000Y300696D01*
Y299304D01*
X409533Y298017D01*
X410517Y297033D01*
X411804Y296500D01*
X413196D01*
X414482Y297033D01*
X415467Y298017D01*
X416000Y299304D01*
Y300696D01*
X415467Y301982D01*
X414482Y302967D01*
X413196Y303500D01*
D02*
G37*
G36*
X263196D02*
X261804D01*
X260517Y302967D01*
X259533Y301982D01*
X259000Y300696D01*
Y299304D01*
X259533Y298017D01*
X260517Y297033D01*
X261804Y296500D01*
X263196D01*
X264482Y297033D01*
X265467Y298017D01*
X266000Y299304D01*
Y300696D01*
X265467Y301982D01*
X264482Y302967D01*
X263196Y303500D01*
D02*
G37*
G36*
X315594Y305500D02*
X313406D01*
X311385Y304663D01*
X309837Y303116D01*
X309000Y301094D01*
Y298906D01*
X309837Y296884D01*
X311385Y295337D01*
X313406Y294500D01*
X315594D01*
X317616Y295337D01*
X319163Y296884D01*
X320000Y298906D01*
Y301094D01*
X319163Y303116D01*
X317616Y304663D01*
X315594Y305500D01*
D02*
G37*
G36*
X435995Y302874D02*
X434006D01*
X432168Y302113D01*
X430761Y300706D01*
X430000Y298869D01*
Y296879D01*
X430761Y295042D01*
X432168Y293635D01*
X434006Y292874D01*
X435995D01*
X437832Y293635D01*
X439239Y295042D01*
X440000Y296879D01*
Y298869D01*
X439239Y300706D01*
X437832Y302113D01*
X435995Y302874D01*
D02*
G37*
G36*
X390696Y288500D02*
X389304D01*
X388017Y287967D01*
X387033Y286982D01*
X386500Y285696D01*
Y284304D01*
X387033Y283017D01*
X388017Y282033D01*
X389304Y281500D01*
X390696D01*
X391982Y282033D01*
X392967Y283017D01*
X393500Y284304D01*
Y285696D01*
X392967Y286982D01*
X391982Y287967D01*
X390696Y288500D01*
D02*
G37*
G36*
X345696D02*
X344304D01*
X343017Y287967D01*
X342033Y286982D01*
X341500Y285696D01*
Y284304D01*
X342033Y283017D01*
X343017Y282033D01*
X344304Y281500D01*
X345696D01*
X346982Y282033D01*
X347967Y283017D01*
X348500Y284304D01*
Y285696D01*
X347967Y286982D01*
X346982Y287967D01*
X345696Y288500D01*
D02*
G37*
G36*
X330696D02*
X329304D01*
X328017Y287967D01*
X327033Y286982D01*
X326500Y285696D01*
Y284304D01*
X327033Y283017D01*
X328017Y282033D01*
X329304Y281500D01*
X330696D01*
X331982Y282033D01*
X332967Y283017D01*
X333500Y284304D01*
Y285696D01*
X332967Y286982D01*
X331982Y287967D01*
X330696Y288500D01*
D02*
G37*
G36*
X285696D02*
X284304D01*
X283017Y287967D01*
X282033Y286982D01*
X281500Y285696D01*
Y284304D01*
X282033Y283017D01*
X283017Y282033D01*
X284304Y281500D01*
X285696D01*
X286982Y282033D01*
X287967Y283017D01*
X288500Y284304D01*
Y285696D01*
X287967Y286982D01*
X286982Y287967D01*
X285696Y288500D01*
D02*
G37*
G36*
X270696D02*
X269304D01*
X268017Y287967D01*
X267033Y286982D01*
X266500Y285696D01*
Y284304D01*
X267033Y283017D01*
X268017Y282033D01*
X269304Y281500D01*
X270696D01*
X271982Y282033D01*
X272967Y283017D01*
X273500Y284304D01*
Y285696D01*
X272967Y286982D01*
X271982Y287967D01*
X270696Y288500D01*
D02*
G37*
G36*
X255696D02*
X254304D01*
X253017Y287967D01*
X252033Y286982D01*
X251500Y285696D01*
Y284304D01*
X252033Y283017D01*
X253017Y282033D01*
X254304Y281500D01*
X255696D01*
X256982Y282033D01*
X257967Y283017D01*
X258500Y284304D01*
Y285696D01*
X257967Y286982D01*
X256982Y287967D01*
X255696Y288500D01*
D02*
G37*
G36*
X435951Y286749D02*
X433962D01*
X432124Y285988D01*
X430717Y284581D01*
X429956Y282743D01*
Y280754D01*
X430717Y278917D01*
X432124Y277510D01*
X433962Y276749D01*
X435951D01*
X437788Y277510D01*
X439195Y278917D01*
X439956Y280754D01*
Y282743D01*
X439195Y284581D01*
X437788Y285988D01*
X435951Y286749D01*
D02*
G37*
G36*
X415696Y283000D02*
X414304D01*
X413017Y282467D01*
X412033Y281483D01*
X411500Y280196D01*
Y278804D01*
X412033Y277517D01*
X413017Y276533D01*
X414304Y276000D01*
X415696D01*
X416983Y276533D01*
X417967Y277517D01*
X418500Y278804D01*
Y280196D01*
X417967Y281483D01*
X416983Y282467D01*
X415696Y283000D01*
D02*
G37*
G36*
X379479Y281690D02*
X378087D01*
X376800Y281157D01*
X375816Y280173D01*
X375283Y278886D01*
Y277494D01*
X375816Y276207D01*
X376800Y275223D01*
X378087Y274690D01*
X379479D01*
X380765Y275223D01*
X381750Y276207D01*
X382283Y277494D01*
Y278886D01*
X381750Y280173D01*
X380765Y281157D01*
X379479Y281690D01*
D02*
G37*
G36*
X362856Y275063D02*
X361463D01*
X360177Y274530D01*
X359192Y273545D01*
X358660Y272259D01*
Y270866D01*
X359192Y269580D01*
X360177Y268595D01*
X361463Y268063D01*
X362856D01*
X364142Y268595D01*
X365127Y269580D01*
X365659Y270866D01*
Y272259D01*
X365127Y273545D01*
X364142Y274530D01*
X362856Y275063D01*
D02*
G37*
G36*
X308196Y273500D02*
X306804D01*
X305517Y272967D01*
X304533Y271982D01*
X304000Y270696D01*
Y269304D01*
X304533Y268017D01*
X305517Y267033D01*
X306804Y266500D01*
X308196D01*
X309482Y267033D01*
X310467Y268017D01*
X311000Y269304D01*
Y270696D01*
X310467Y271982D01*
X309482Y272967D01*
X308196Y273500D01*
D02*
G37*
G36*
X293196D02*
X291804D01*
X290517Y272967D01*
X289533Y271982D01*
X289000Y270696D01*
Y269304D01*
X289533Y268017D01*
X290517Y267033D01*
X291804Y266500D01*
X293196D01*
X294482Y267033D01*
X295467Y268017D01*
X296000Y269304D01*
Y270696D01*
X295467Y271982D01*
X294482Y272967D01*
X293196Y273500D01*
D02*
G37*
G36*
X377517Y265129D02*
X376124D01*
X374838Y264596D01*
X373853Y263612D01*
X373321Y262325D01*
Y260933D01*
X373853Y259646D01*
X374838Y258662D01*
X376124Y258129D01*
X377517D01*
X378803Y258662D01*
X379788Y259646D01*
X380321Y260933D01*
Y262325D01*
X379788Y263612D01*
X378803Y264596D01*
X377517Y265129D01*
D02*
G37*
G36*
X360739Y264630D02*
X359347D01*
X358060Y264097D01*
X357076Y263112D01*
X356543Y261826D01*
Y260434D01*
X357076Y259147D01*
X358060Y258162D01*
X359347Y257630D01*
X360739D01*
X362026Y258162D01*
X363010Y259147D01*
X363543Y260434D01*
Y261826D01*
X363010Y263112D01*
X362026Y264097D01*
X360739Y264630D01*
D02*
G37*
G36*
X267726Y274583D02*
X264574D01*
X261483Y273969D01*
X258571Y272763D01*
X255951Y271012D01*
X253722Y268783D01*
X251971Y266162D01*
X250765Y263251D01*
X250150Y260159D01*
Y257008D01*
X250765Y253916D01*
X251971Y251005D01*
X253722Y248384D01*
X255951Y246155D01*
X258571Y244405D01*
X261280Y243283D01*
X260517Y242967D01*
X259533Y241982D01*
X259000Y240696D01*
Y239304D01*
X259533Y238017D01*
X260517Y237033D01*
X261804Y236500D01*
X263196D01*
X264482Y237033D01*
X265467Y238017D01*
X266000Y239304D01*
Y240696D01*
X265467Y241982D01*
X264866Y242584D01*
X267726D01*
X270817Y243198D01*
X273729Y244405D01*
X276349Y246155D01*
X278578Y248384D01*
X280329Y251005D01*
X281535Y253916D01*
X281576Y254121D01*
X282033Y253017D01*
X283017Y252033D01*
X284304Y251500D01*
X285696D01*
X286982Y252033D01*
X287967Y253017D01*
X288500Y254304D01*
Y255696D01*
X287967Y256982D01*
X286982Y257967D01*
X285696Y258500D01*
X284304D01*
X283017Y257967D01*
X282150Y257100D01*
Y260159D01*
X281535Y263251D01*
X280329Y266162D01*
X278578Y268783D01*
X276349Y271012D01*
X273729Y272763D01*
X270817Y273969D01*
X267726Y274583D01*
D02*
G37*
G36*
X360757Y245426D02*
X359365D01*
X358078Y244893D01*
X357094Y243909D01*
X356561Y242622D01*
Y241230D01*
X357094Y239943D01*
X358078Y238959D01*
X359365Y238426D01*
X360757D01*
X362043Y238959D01*
X363028Y239943D01*
X363561Y241230D01*
Y242622D01*
X363028Y243909D01*
X362043Y244893D01*
X360757Y245426D01*
D02*
G37*
G36*
X428196Y243500D02*
X426804D01*
X425517Y242967D01*
X424533Y241982D01*
X424000Y240696D01*
Y239304D01*
X424533Y238017D01*
X425517Y237033D01*
X426804Y236500D01*
X428196D01*
X429482Y237033D01*
X430467Y238017D01*
X431000Y239304D01*
Y240696D01*
X430467Y241982D01*
X429482Y242967D01*
X428196Y243500D01*
D02*
G37*
G36*
X338196D02*
X336804D01*
X335517Y242967D01*
X334533Y241982D01*
X334000Y240696D01*
Y239304D01*
X334533Y238017D01*
X335517Y237033D01*
X336804Y236500D01*
X338196D01*
X339482Y237033D01*
X340467Y238017D01*
X341000Y239304D01*
Y240696D01*
X340467Y241982D01*
X339482Y242967D01*
X338196Y243500D01*
D02*
G37*
G36*
X380988Y240982D02*
X379596D01*
X378309Y240449D01*
X377325Y239464D01*
X376792Y238178D01*
Y236785D01*
X377325Y235499D01*
X378309Y234514D01*
X379596Y233981D01*
X380988D01*
X382275Y234514D01*
X383259Y235499D01*
X383792Y236785D01*
Y238178D01*
X383259Y239464D01*
X382275Y240449D01*
X380988Y240982D01*
D02*
G37*
G36*
X350617Y239243D02*
X349225D01*
X347938Y238710D01*
X346954Y237726D01*
X346421Y236439D01*
Y235047D01*
X346954Y233761D01*
X347938Y232776D01*
X349225Y232243D01*
X350617D01*
X351904Y232776D01*
X352888Y233761D01*
X353421Y235047D01*
Y236439D01*
X352888Y237726D01*
X351904Y238710D01*
X350617Y239243D01*
D02*
G37*
G36*
X366713Y235140D02*
X365321D01*
X364034Y234607D01*
X363050Y233622D01*
X362517Y232336D01*
Y230944D01*
X363050Y229657D01*
X364034Y228673D01*
X365321Y228140D01*
X366713D01*
X368000Y228673D01*
X368984Y229657D01*
X369517Y230944D01*
Y232336D01*
X368984Y233622D01*
X368000Y234607D01*
X366713Y235140D01*
D02*
G37*
G36*
X393100Y230986D02*
X391708D01*
X390421Y230453D01*
X389437Y229468D01*
X388904Y228182D01*
Y226790D01*
X389437Y225503D01*
X390421Y224519D01*
X391708Y223986D01*
X393100D01*
X394387Y224519D01*
X395371Y225503D01*
X395904Y226790D01*
Y228182D01*
X395371Y229468D01*
X394387Y230453D01*
X393100Y230986D01*
D02*
G37*
G36*
X450696Y228500D02*
X449304D01*
X448017Y227967D01*
X447033Y226982D01*
X446500Y225696D01*
Y224304D01*
X447033Y223017D01*
X448017Y222033D01*
X449304Y221500D01*
X450696D01*
X451982Y222033D01*
X452967Y223017D01*
X453500Y224304D01*
Y225696D01*
X452967Y226982D01*
X451982Y227967D01*
X450696Y228500D01*
D02*
G37*
G36*
X405696D02*
X404304D01*
X403017Y227967D01*
X402033Y226982D01*
X401500Y225696D01*
Y224304D01*
X402033Y223017D01*
X403017Y222033D01*
X404304Y221500D01*
X405696D01*
X406982Y222033D01*
X407967Y223017D01*
X408500Y224304D01*
Y225696D01*
X407967Y226982D01*
X406982Y227967D01*
X405696Y228500D01*
D02*
G37*
G36*
X366356Y226616D02*
X364963D01*
X363677Y226083D01*
X362692Y225098D01*
X362160Y223812D01*
Y222420D01*
X362692Y221133D01*
X363677Y220149D01*
X364963Y219616D01*
X366356D01*
X367642Y220149D01*
X368627Y221133D01*
X369160Y222420D01*
Y223812D01*
X368627Y225098D01*
X367642Y226083D01*
X366356Y226616D01*
D02*
G37*
G36*
X306071Y231426D02*
X299061D01*
X296719Y230960D01*
X294734Y229634D01*
X293408Y227649D01*
X292943Y225308D01*
X293408Y222966D01*
X294734Y220982D01*
X296719Y219655D01*
X299061Y219190D01*
X306071D01*
X308412Y219655D01*
X310397Y220982D01*
X311723Y222966D01*
X312189Y225308D01*
X311723Y227649D01*
X310397Y229634D01*
X308412Y230960D01*
X306071Y231426D01*
D02*
G37*
G36*
X262751D02*
X258764D01*
X256422Y230960D01*
X254437Y229634D01*
X253111Y227649D01*
X252645Y225308D01*
X253111Y222966D01*
X254437Y220982D01*
X256422Y219655D01*
X258764Y219190D01*
X262751D01*
X265093Y219655D01*
X267077Y220982D01*
X268404Y222966D01*
X268869Y225308D01*
X268404Y227649D01*
X267077Y229634D01*
X265093Y230960D01*
X262751Y231426D01*
D02*
G37*
G36*
X427433Y217163D02*
X426041D01*
X424754Y216630D01*
X423770Y215645D01*
X423237Y214359D01*
Y212967D01*
X423770Y211680D01*
X424754Y210696D01*
X426041Y210163D01*
X427433D01*
X428719Y210696D01*
X429704Y211680D01*
X430237Y212967D01*
Y214359D01*
X429704Y215645D01*
X428719Y216630D01*
X427433Y217163D01*
D02*
G37*
G36*
X374324Y214291D02*
X372931D01*
X371645Y213758D01*
X370660Y212774D01*
X370127Y211487D01*
Y210095D01*
X370660Y208809D01*
X371645Y207824D01*
X372931Y207291D01*
X374324D01*
X375610Y207824D01*
X376595Y208809D01*
X377127Y210095D01*
Y211487D01*
X376595Y212774D01*
X375610Y213758D01*
X374324Y214291D01*
D02*
G37*
G36*
X410506Y213528D02*
X409113D01*
X407827Y212995D01*
X406842Y212010D01*
X406310Y210724D01*
Y209332D01*
X406842Y208045D01*
X407827Y207061D01*
X409113Y206528D01*
X410506D01*
X411792Y207061D01*
X412777Y208045D01*
X413310Y209332D01*
Y210724D01*
X412777Y212010D01*
X411792Y212995D01*
X410506Y213528D01*
D02*
G37*
G36*
X436694Y213500D02*
X435302D01*
X434016Y212967D01*
X433031Y211983D01*
X432498Y210696D01*
Y209304D01*
X433031Y208017D01*
X434016Y207033D01*
X435302Y206500D01*
X436694D01*
X437981Y207033D01*
X438965Y208017D01*
X439498Y209304D01*
Y210696D01*
X438965Y211983D01*
X437981Y212967D01*
X436694Y213500D01*
D02*
G37*
G36*
X353168Y213471D02*
X351775D01*
X350489Y212939D01*
X349504Y211954D01*
X348971Y210668D01*
Y209275D01*
X349504Y207989D01*
X350489Y207004D01*
X351775Y206471D01*
X353168D01*
X354454Y207004D01*
X355439Y207989D01*
X355971Y209275D01*
Y210668D01*
X355439Y211954D01*
X354454Y212939D01*
X353168Y213471D01*
D02*
G37*
G36*
X391670Y213294D02*
X390278D01*
X388992Y212761D01*
X388007Y211777D01*
X387474Y210491D01*
Y209098D01*
X388007Y207812D01*
X388992Y206827D01*
X390278Y206294D01*
X391670D01*
X392957Y206827D01*
X393941Y207812D01*
X394474Y209098D01*
Y210491D01*
X393941Y211777D01*
X392957Y212761D01*
X391670Y213294D01*
D02*
G37*
G36*
X399450Y213255D02*
X398057D01*
X396771Y212722D01*
X395786Y211738D01*
X395254Y210451D01*
Y209059D01*
X395786Y207773D01*
X396771Y206788D01*
X398057Y206255D01*
X399450D01*
X400736Y206788D01*
X401721Y207773D01*
X402254Y209059D01*
Y210451D01*
X401721Y211738D01*
X400736Y212722D01*
X399450Y213255D01*
D02*
G37*
G36*
X298502Y216142D02*
X296513D01*
X294675Y215381D01*
X293269Y213975D01*
X292507Y212137D01*
Y210148D01*
X293269Y208310D01*
X294675Y206904D01*
X296513Y206142D01*
X298502D01*
X300340Y206904D01*
X301746Y208310D01*
X302507Y210148D01*
Y212137D01*
X301746Y213975D01*
X300340Y215381D01*
X298502Y216142D01*
D02*
G37*
G36*
X370006Y206616D02*
X368614D01*
X367327Y206083D01*
X366343Y205098D01*
X365810Y203812D01*
Y202420D01*
X366343Y201133D01*
X367327Y200149D01*
X368614Y199616D01*
X370006D01*
X371293Y200149D01*
X372277Y201133D01*
X372810Y202420D01*
Y203812D01*
X372277Y205098D01*
X371293Y206083D01*
X370006Y206616D01*
D02*
G37*
G36*
X400497Y203250D02*
X399503D01*
X398584Y202869D01*
X397881Y202166D01*
X397500Y201247D01*
Y200253D01*
X397881Y199334D01*
X398584Y198631D01*
X399503Y198250D01*
X400497D01*
X401416Y198631D01*
X402119Y199334D01*
X402500Y200253D01*
Y201247D01*
X402119Y202166D01*
X401416Y202869D01*
X400497Y203250D01*
D02*
G37*
G36*
X433074Y202253D02*
X432080D01*
X431161Y201872D01*
X430457Y201169D01*
X430077Y200250D01*
Y199256D01*
X430457Y198337D01*
X431161Y197634D01*
X432080Y197253D01*
X433074D01*
X433993Y197634D01*
X434696Y198337D01*
X435077Y199256D01*
Y200250D01*
X434696Y201169D01*
X433993Y201872D01*
X433074Y202253D01*
D02*
G37*
G36*
X353910Y203486D02*
X352518D01*
X351231Y202953D01*
X350247Y201968D01*
X349714Y200682D01*
Y199290D01*
X350247Y198003D01*
X351231Y197019D01*
X352518Y196486D01*
X353910D01*
X355197Y197019D01*
X356181Y198003D01*
X356714Y199290D01*
Y200682D01*
X356181Y201968D01*
X355197Y202953D01*
X353910Y203486D01*
D02*
G37*
G36*
X337373Y199427D02*
X335980D01*
X334694Y198894D01*
X333709Y197909D01*
X333177Y196623D01*
Y196476D01*
X332967Y196982D01*
X331982Y197967D01*
X330696Y198500D01*
X329304D01*
X328017Y197967D01*
X327033Y196982D01*
X326500Y195696D01*
Y194304D01*
X327033Y193017D01*
X328017Y192033D01*
X329304Y191500D01*
X330696D01*
X331982Y192033D01*
X332967Y193017D01*
X333500Y194304D01*
Y194450D01*
X333709Y193944D01*
X334694Y192959D01*
X335980Y192427D01*
X337373D01*
X338659Y192959D01*
X339644Y193944D01*
X340177Y195231D01*
Y196623D01*
X339644Y197909D01*
X338659Y198894D01*
X337373Y199427D01*
D02*
G37*
G36*
X420050Y200238D02*
X419055D01*
X418137Y199857D01*
X417433Y199154D01*
X417053Y198235D01*
Y197240D01*
X417433Y196322D01*
X418137Y195618D01*
X419055Y195238D01*
X420050D01*
X420969Y195618D01*
X421672Y196322D01*
X422053Y197240D01*
Y198235D01*
X421672Y199154D01*
X420969Y199857D01*
X420050Y200238D01*
D02*
G37*
G36*
X342783Y206072D02*
X341390D01*
X340104Y205539D01*
X339119Y204554D01*
X338586Y203268D01*
Y201875D01*
X339119Y200589D01*
X340104Y199604D01*
X341353Y199087D01*
X341185Y198919D01*
X340653Y197632D01*
Y196240D01*
X341185Y194953D01*
X342170Y193969D01*
X343456Y193436D01*
X344849D01*
X346135Y193969D01*
X347120Y194953D01*
X347653Y196240D01*
Y197632D01*
X347120Y198919D01*
X346135Y199903D01*
X344885Y200421D01*
X345054Y200589D01*
X345586Y201875D01*
Y203268D01*
X345054Y204554D01*
X344069Y205539D01*
X342783Y206072D01*
D02*
G37*
G36*
X298149Y197899D02*
X296757D01*
X295470Y197366D01*
X294486Y196381D01*
X293953Y195095D01*
Y193703D01*
X294486Y192416D01*
X295041Y191861D01*
X294737Y191987D01*
X293344D01*
X292058Y191454D01*
X291074Y190469D01*
X290541Y189183D01*
Y187791D01*
X291074Y186504D01*
X291614Y185964D01*
X291157Y185775D01*
X290173Y184790D01*
X289640Y183504D01*
Y182111D01*
X290173Y180825D01*
X291157Y179841D01*
X292444Y179308D01*
X293836D01*
X295122Y179841D01*
X295245Y179963D01*
X295634Y179025D01*
X296618Y178040D01*
X296859Y177940D01*
X296185Y177266D01*
X295652Y175980D01*
Y174587D01*
X296185Y173301D01*
X297170Y172316D01*
X298456Y171783D01*
X299848D01*
X301135Y172316D01*
X302120Y173301D01*
X302652Y174587D01*
Y175980D01*
X302120Y177266D01*
X301135Y178251D01*
X300894Y178350D01*
X301568Y179025D01*
X302101Y180311D01*
Y181703D01*
X301568Y182990D01*
X300584Y183974D01*
X299297Y184507D01*
X297905D01*
X296618Y183974D01*
X296496Y183852D01*
X296107Y184790D01*
X295567Y185331D01*
X296023Y185520D01*
X297008Y186504D01*
X297541Y187791D01*
Y189183D01*
X297008Y190469D01*
X296452Y191025D01*
X296757Y190899D01*
X298149D01*
X299436Y191432D01*
X300420Y192416D01*
X300953Y193703D01*
Y195095D01*
X300420Y196381D01*
X299436Y197366D01*
X298149Y197899D01*
D02*
G37*
G36*
X270696Y198500D02*
X269304D01*
X268017Y197967D01*
X267033Y196982D01*
X266500Y195696D01*
Y194304D01*
X267033Y193017D01*
X268017Y192033D01*
X269304Y191500D01*
X270696D01*
X271982Y192033D01*
X272967Y193017D01*
X273500Y194304D01*
Y195696D01*
X272967Y196982D01*
X271982Y197967D01*
X270696Y198500D01*
D02*
G37*
G36*
X290236Y197750D02*
X288843D01*
X287557Y197217D01*
X286572Y196232D01*
X286040Y194946D01*
Y193553D01*
X286572Y192267D01*
X287557Y191282D01*
X288843Y190749D01*
X290236D01*
X291522Y191282D01*
X292507Y192267D01*
X293040Y193553D01*
Y194946D01*
X292507Y196232D01*
X291522Y197217D01*
X290236Y197750D01*
D02*
G37*
G36*
X389495Y194575D02*
X388500D01*
X387581Y194194D01*
X386878Y193491D01*
X386498Y192572D01*
Y191577D01*
X386878Y190658D01*
X387581Y189955D01*
X388500Y189575D01*
X389495D01*
X390414Y189955D01*
X391117Y190658D01*
X391498Y191577D01*
Y192572D01*
X391117Y193491D01*
X390414Y194194D01*
X389495Y194575D01*
D02*
G37*
G36*
X395983Y194502D02*
X394989D01*
X394070Y194121D01*
X393367Y193418D01*
X392986Y192499D01*
Y191504D01*
X393367Y190586D01*
X394070Y189882D01*
X394989Y189502D01*
X395983D01*
X396902Y189882D01*
X397606Y190586D01*
X397986Y191504D01*
Y192499D01*
X397606Y193418D01*
X396902Y194121D01*
X395983Y194502D01*
D02*
G37*
G36*
X415497Y194494D02*
X414503D01*
X413584Y194113D01*
X412881Y193410D01*
X412500Y192491D01*
Y191497D01*
X412881Y190578D01*
X413584Y189874D01*
X414503Y189494D01*
X415497D01*
X416416Y189874D01*
X417119Y190578D01*
X417500Y191497D01*
Y192491D01*
X417119Y193410D01*
X416416Y194113D01*
X415497Y194494D01*
D02*
G37*
G36*
X408995D02*
X408000D01*
X407081Y194113D01*
X406378Y193410D01*
X405998Y192491D01*
Y191497D01*
X406378Y190578D01*
X407081Y189874D01*
X408000Y189494D01*
X408995D01*
X409914Y189874D01*
X410617Y190578D01*
X410998Y191497D01*
Y192491D01*
X410617Y193410D01*
X409914Y194113D01*
X408995Y194494D01*
D02*
G37*
G36*
X428441Y194471D02*
X427447D01*
X426528Y194090D01*
X425825Y193387D01*
X425444Y192468D01*
Y191474D01*
X425825Y190555D01*
X426528Y189851D01*
X427447Y189471D01*
X428441D01*
X429360Y189851D01*
X430063Y190555D01*
X430444Y191474D01*
Y192468D01*
X430063Y193387D01*
X429360Y194090D01*
X428441Y194471D01*
D02*
G37*
G36*
X422053Y194454D02*
X421059D01*
X420140Y194073D01*
X419437Y193370D01*
X419056Y192451D01*
Y191457D01*
X419437Y190538D01*
X420140Y189834D01*
X421059Y189454D01*
X422053D01*
X422972Y189834D01*
X423675Y190538D01*
X424056Y191457D01*
Y192451D01*
X423675Y193370D01*
X422972Y194073D01*
X422053Y194454D01*
D02*
G37*
G36*
X434908Y188131D02*
X433913D01*
X432994Y187750D01*
X432291Y187047D01*
X431910Y186128D01*
Y185133D01*
X432291Y184214D01*
X432994Y183511D01*
X433913Y183131D01*
X434908D01*
X435826Y183511D01*
X436530Y184214D01*
X436910Y185133D01*
Y186128D01*
X436530Y187047D01*
X435826Y187750D01*
X434908Y188131D01*
D02*
G37*
G36*
X402462Y188056D02*
X401468D01*
X400549Y187676D01*
X399846Y186972D01*
X399465Y186054D01*
Y185059D01*
X399846Y184140D01*
X400549Y183437D01*
X401468Y183056D01*
X402462D01*
X403381Y183437D01*
X404085Y184140D01*
X404465Y185059D01*
Y186054D01*
X404085Y186972D01*
X403381Y187676D01*
X402462Y188056D01*
D02*
G37*
G36*
X428477Y187991D02*
X427482D01*
X426563Y187611D01*
X425860Y186908D01*
X425479Y185989D01*
Y184994D01*
X425860Y184075D01*
X426563Y183372D01*
X427482Y182991D01*
X428477D01*
X429395Y183372D01*
X430099Y184075D01*
X430479Y184994D01*
Y185989D01*
X430099Y186908D01*
X429395Y187611D01*
X428477Y187991D01*
D02*
G37*
G36*
X415497D02*
X414503D01*
X413584Y187611D01*
X412881Y186908D01*
X412500Y185989D01*
Y184994D01*
X412881Y184075D01*
X413584Y183372D01*
X414503Y182991D01*
X415497D01*
X416416Y183372D01*
X417119Y184075D01*
X417500Y184994D01*
Y185989D01*
X417119Y186908D01*
X416416Y187611D01*
X415497Y187991D01*
D02*
G37*
G36*
X408987Y187951D02*
X407993D01*
X407074Y187570D01*
X406371Y186867D01*
X405990Y185948D01*
Y184954D01*
X406371Y184035D01*
X407074Y183332D01*
X407993Y182951D01*
X408987D01*
X409906Y183332D01*
X410610Y184035D01*
X410990Y184954D01*
Y185948D01*
X410610Y186867D01*
X409906Y187570D01*
X408987Y187951D01*
D02*
G37*
G36*
X422053Y187924D02*
X421059D01*
X420140Y187543D01*
X419437Y186840D01*
X419056Y185921D01*
Y184926D01*
X419437Y184007D01*
X420140Y183304D01*
X421059Y182924D01*
X422053D01*
X422972Y183304D01*
X423675Y184007D01*
X424056Y184926D01*
Y185921D01*
X423675Y186840D01*
X422972Y187543D01*
X422053Y187924D01*
D02*
G37*
G36*
X369323Y199591D02*
X367930D01*
X366644Y199058D01*
X365659Y198073D01*
X365126Y196787D01*
Y195394D01*
X365659Y194108D01*
X366644Y193123D01*
X366830Y193046D01*
Y183374D01*
X366967Y182686D01*
X367356Y182103D01*
X368409Y181050D01*
X368992Y180661D01*
X369679Y180524D01*
X386913D01*
X386857Y180467D01*
X386476Y179548D01*
Y178554D01*
X386857Y177635D01*
X386931Y177561D01*
X380378D01*
X379690Y177424D01*
X379107Y177035D01*
X373286Y171213D01*
X372967Y171983D01*
X371983Y172967D01*
X370696Y173500D01*
X369304D01*
X368017Y172967D01*
X367033Y171983D01*
X366500Y170696D01*
Y169304D01*
X367033Y168017D01*
X368017Y167033D01*
X369304Y166500D01*
X370696D01*
X371917Y167006D01*
Y165896D01*
X371872Y165877D01*
X370958Y164963D01*
X370463Y163768D01*
Y162475D01*
X370958Y161280D01*
X371872Y160366D01*
X373067Y159871D01*
X374360D01*
X375554Y160366D01*
X376469Y161280D01*
X376964Y162475D01*
Y163768D01*
X376469Y164963D01*
X375554Y165877D01*
X375510Y165896D01*
Y168356D01*
X381122Y173968D01*
X393439D01*
X393373Y173903D01*
X392993Y172984D01*
Y171989D01*
X393373Y171070D01*
X394077Y170367D01*
X394995Y169987D01*
X395990D01*
X396909Y170367D01*
X397612Y171070D01*
X397993Y171989D01*
Y172984D01*
X397612Y173903D01*
X397547Y173968D01*
X398681D01*
X399369Y174105D01*
X399952Y174494D01*
X401268Y175811D01*
X401313Y175792D01*
X402606D01*
X403801Y176287D01*
X404715Y177201D01*
X405210Y178396D01*
Y179689D01*
X404715Y180884D01*
X403801Y181798D01*
X402606Y182293D01*
X401313D01*
X400118Y181798D01*
X399204Y180884D01*
X398709Y179689D01*
Y178396D01*
X398728Y178351D01*
X397937Y177561D01*
X397564D01*
X397630Y177626D01*
X398010Y178545D01*
Y179540D01*
X397630Y180459D01*
X396926Y181162D01*
X396008Y181543D01*
X395013D01*
X394094Y181162D01*
X393391Y180459D01*
X393010Y179540D01*
Y178545D01*
X393391Y177626D01*
X393456Y177561D01*
X391021D01*
X391095Y177635D01*
X391476Y178554D01*
Y179548D01*
X391095Y180467D01*
X391039Y180524D01*
X392208D01*
X392896Y180661D01*
X393478Y181050D01*
X394795Y182367D01*
X394840Y182348D01*
X396133D01*
X397327Y182843D01*
X398242Y183757D01*
X398736Y184952D01*
Y186245D01*
X398242Y187440D01*
X397327Y188354D01*
X396133Y188849D01*
X394840D01*
X393645Y188354D01*
X392730Y187440D01*
X392236Y186245D01*
Y184952D01*
X392254Y184907D01*
X391464Y184117D01*
X390947D01*
X391012Y184182D01*
X391393Y185101D01*
Y186096D01*
X391012Y187015D01*
X390309Y187718D01*
X389390Y188099D01*
X388396D01*
X387477Y187718D01*
X386774Y187015D01*
X386393Y186096D01*
Y185101D01*
X386774Y184182D01*
X386839Y184117D01*
X370424D01*
X370423Y184118D01*
Y193046D01*
X370609Y193123D01*
X371594Y194108D01*
X372126Y195394D01*
Y196787D01*
X371594Y198073D01*
X370609Y199058D01*
X369323Y199591D01*
D02*
G37*
G36*
X337787Y185903D02*
X336394D01*
X335108Y185370D01*
X334123Y184386D01*
X333591Y183099D01*
Y181707D01*
X334123Y180420D01*
X335108Y179436D01*
X336394Y178903D01*
X337787D01*
X339073Y179436D01*
X340058Y180420D01*
X340591Y181707D01*
Y183099D01*
X340058Y184386D01*
X339073Y185370D01*
X337787Y185903D01*
D02*
G37*
G36*
X348481Y185785D02*
X347089D01*
X345802Y185252D01*
X344818Y184268D01*
X344285Y182981D01*
Y181589D01*
X344818Y180302D01*
X345802Y179318D01*
X347089Y178785D01*
X348481D01*
X349767Y179318D01*
X350752Y180302D01*
X351285Y181589D01*
Y182981D01*
X350752Y184268D01*
X349767Y185252D01*
X348481Y185785D01*
D02*
G37*
G36*
X363141Y183994D02*
X361749D01*
X360462Y183461D01*
X359478Y182476D01*
X358945Y181190D01*
Y179797D01*
X359478Y178511D01*
X360462Y177526D01*
X361749Y176994D01*
X363141D01*
X364427Y177526D01*
X365412Y178511D01*
X365945Y179797D01*
Y181190D01*
X365412Y182476D01*
X364427Y183461D01*
X363141Y183994D01*
D02*
G37*
G36*
X428477Y181489D02*
X427482D01*
X426563Y181108D01*
X425860Y180405D01*
X425479Y179486D01*
Y178492D01*
X425860Y177573D01*
X426563Y176870D01*
X427482Y176489D01*
X428477D01*
X429395Y176870D01*
X430099Y177573D01*
X430479Y178492D01*
Y179486D01*
X430099Y180405D01*
X429395Y181108D01*
X428477Y181489D01*
D02*
G37*
G36*
X421974D02*
X420980D01*
X420061Y181108D01*
X419358Y180405D01*
X418977Y179486D01*
Y178492D01*
X419358Y177573D01*
X420061Y176870D01*
X420980Y176489D01*
X421974D01*
X422893Y176870D01*
X423596Y177573D01*
X423977Y178492D01*
Y179486D01*
X423596Y180405D01*
X422893Y181108D01*
X421974Y181489D01*
D02*
G37*
G36*
X409053Y181470D02*
X408059D01*
X407140Y181089D01*
X406437Y180386D01*
X406056Y179467D01*
Y178473D01*
X406437Y177554D01*
X407140Y176851D01*
X408059Y176470D01*
X409053D01*
X409972Y176851D01*
X410676Y177554D01*
X411056Y178473D01*
Y179467D01*
X410676Y180386D01*
X409972Y181089D01*
X409053Y181470D01*
D02*
G37*
G36*
X415541Y181392D02*
X414547D01*
X413628Y181012D01*
X412925Y180308D01*
X412544Y179390D01*
Y178395D01*
X412925Y177476D01*
X413628Y176773D01*
X414547Y176392D01*
X415541D01*
X416460Y176773D01*
X417164Y177476D01*
X417544Y178395D01*
Y179390D01*
X417164Y180308D01*
X416460Y181012D01*
X415541Y181392D01*
D02*
G37*
G36*
X434908Y181376D02*
X433913D01*
X432994Y180995D01*
X432291Y180292D01*
X431910Y179373D01*
Y178379D01*
X432291Y177460D01*
X432994Y176757D01*
X433913Y176376D01*
X434908D01*
X435826Y176757D01*
X436530Y177460D01*
X436910Y178379D01*
Y179373D01*
X436530Y180292D01*
X435826Y180995D01*
X434908Y181376D01*
D02*
G37*
G36*
X421974Y174987D02*
X420980D01*
X420061Y174606D01*
X419358Y173903D01*
X418977Y172984D01*
Y171989D01*
X419358Y171070D01*
X420061Y170367D01*
X420980Y169987D01*
X421974D01*
X422893Y170367D01*
X423596Y171070D01*
X423977Y171989D01*
Y172984D01*
X423596Y173903D01*
X422893Y174606D01*
X421974Y174987D01*
D02*
G37*
G36*
X402492D02*
X401498D01*
X400579Y174606D01*
X399876Y173903D01*
X399495Y172984D01*
Y171989D01*
X399876Y171070D01*
X400579Y170367D01*
X401498Y169987D01*
X402492D01*
X403411Y170367D01*
X404115Y171070D01*
X404495Y171989D01*
Y172984D01*
X404115Y173903D01*
X403411Y174606D01*
X402492Y174987D01*
D02*
G37*
G36*
X339711Y175000D02*
X338318D01*
X337032Y174467D01*
X336047Y173483D01*
X335514Y172196D01*
Y170804D01*
X336047Y169517D01*
X337032Y168533D01*
X338318Y168000D01*
X339711D01*
X340997Y168533D01*
X341982Y169517D01*
X342514Y170804D01*
Y172196D01*
X341982Y173483D01*
X340997Y174467D01*
X339711Y175000D01*
D02*
G37*
G36*
X354040Y179290D02*
X352648D01*
X351362Y178757D01*
X350377Y177772D01*
X349844Y176486D01*
Y175093D01*
X350377Y173807D01*
X350715Y173469D01*
X349366D01*
X348080Y172937D01*
X347095Y171952D01*
X346562Y170666D01*
Y169273D01*
X347095Y167987D01*
X348080Y167002D01*
X349366Y166469D01*
X350759D01*
X352045Y167002D01*
X353029Y167987D01*
X353562Y169273D01*
Y170666D01*
X353029Y171952D01*
X352692Y172290D01*
X354040D01*
X355327Y172822D01*
X356311Y173807D01*
X356844Y175093D01*
Y176486D01*
X356311Y177772D01*
X355327Y178757D01*
X354040Y179290D01*
D02*
G37*
G36*
X290747Y172490D02*
X289355D01*
X288068Y171957D01*
X287084Y170973D01*
X286551Y169687D01*
Y168294D01*
X287084Y167008D01*
X288068Y166023D01*
X289355Y165490D01*
X290747D01*
X292034Y166023D01*
X293018Y167008D01*
X293551Y168294D01*
Y169687D01*
X293018Y170973D01*
X292034Y171957D01*
X290747Y172490D01*
D02*
G37*
G36*
X396059Y168543D02*
X395065D01*
X394146Y168162D01*
X393443Y167459D01*
X393062Y166540D01*
Y165546D01*
X393443Y164627D01*
X394146Y163923D01*
X395065Y163543D01*
X396059D01*
X396978Y163923D01*
X397681Y164627D01*
X398062Y165546D01*
Y166540D01*
X397681Y167459D01*
X396978Y168162D01*
X396059Y168543D01*
D02*
G37*
G36*
X421974Y168510D02*
X420980D01*
X420061Y168129D01*
X419358Y167426D01*
X418977Y166507D01*
Y165512D01*
X419358Y164594D01*
X420061Y163890D01*
X420980Y163510D01*
X421974D01*
X422893Y163890D01*
X423596Y164594D01*
X423977Y165512D01*
Y166507D01*
X423596Y167426D01*
X422893Y168129D01*
X421974Y168510D01*
D02*
G37*
G36*
X415497D02*
X414503D01*
X413584Y168129D01*
X412881Y167426D01*
X412500Y166507D01*
Y165512D01*
X412881Y164594D01*
X413584Y163890D01*
X414503Y163510D01*
X415497D01*
X416416Y163890D01*
X417119Y164594D01*
X417500Y165512D01*
Y166507D01*
X417119Y167426D01*
X416416Y168129D01*
X415497Y168510D01*
D02*
G37*
G36*
X408995D02*
X408000D01*
X407081Y168129D01*
X406378Y167426D01*
X405998Y166507D01*
Y165512D01*
X406378Y164594D01*
X407081Y163890D01*
X408000Y163510D01*
X408995D01*
X409914Y163890D01*
X410617Y164594D01*
X410998Y165512D01*
Y166507D01*
X410617Y167426D01*
X409914Y168129D01*
X408995Y168510D01*
D02*
G37*
G36*
X402492D02*
X401498D01*
X400579Y168129D01*
X399876Y167426D01*
X399495Y166507D01*
Y165512D01*
X399876Y164594D01*
X400579Y163890D01*
X401498Y163510D01*
X402492D01*
X403411Y163890D01*
X404115Y164594D01*
X404495Y165512D01*
Y166507D01*
X404115Y167426D01*
X403411Y168129D01*
X402492Y168510D01*
D02*
G37*
G36*
X297653Y170281D02*
X296261D01*
X294975Y169748D01*
X293990Y168764D01*
X293457Y167477D01*
Y166085D01*
X293990Y164799D01*
X294975Y163814D01*
X296261Y163281D01*
X297653D01*
X298940Y163814D01*
X299924Y164799D01*
X300457Y166085D01*
Y167477D01*
X299924Y168764D01*
X298940Y169748D01*
X297653Y170281D01*
D02*
G37*
G36*
X270696Y168500D02*
X269304D01*
X268017Y167967D01*
X267033Y166982D01*
X266500Y165696D01*
Y164304D01*
X267033Y163017D01*
X268017Y162033D01*
X269304Y161500D01*
X270696D01*
X271982Y162033D01*
X272967Y163017D01*
X273500Y164304D01*
Y165696D01*
X272967Y166982D01*
X271982Y167967D01*
X270696Y168500D01*
D02*
G37*
G36*
X291119Y163966D02*
X289726D01*
X288440Y163433D01*
X287455Y162449D01*
X286922Y161163D01*
Y160419D01*
X286595Y160555D01*
X285202D01*
X283916Y160022D01*
X282931Y159037D01*
X282398Y157751D01*
Y156358D01*
X282530Y156041D01*
X281170D01*
X279883Y155508D01*
X278899Y154523D01*
X278366Y153237D01*
Y151845D01*
X278899Y150558D01*
X279883Y149573D01*
X281170Y149041D01*
X282562D01*
X283848Y149573D01*
X284833Y150558D01*
X285366Y151845D01*
Y153237D01*
X285234Y153555D01*
X286595D01*
X287881Y154087D01*
X288866Y155072D01*
X289398Y156358D01*
Y157102D01*
X289726Y156966D01*
X291119D01*
X292405Y157499D01*
X293390Y158484D01*
X293923Y159770D01*
Y161163D01*
X293390Y162449D01*
X292405Y163433D01*
X291119Y163966D01*
D02*
G37*
G36*
X363521Y166817D02*
X362128D01*
X360842Y166284D01*
X359857Y165299D01*
X359324Y164013D01*
Y162620D01*
X359857Y161334D01*
X360842Y160349D01*
X362128Y159817D01*
X363521D01*
X364807Y160349D01*
X365792Y161334D01*
X366324Y162620D01*
Y164013D01*
X365792Y165299D01*
X364807Y166284D01*
X363521Y166817D01*
D02*
G37*
G36*
X408995Y162007D02*
X408000D01*
X407081Y161627D01*
X406378Y160923D01*
X405998Y160005D01*
Y159010D01*
X406378Y158091D01*
X407081Y157388D01*
X408000Y157007D01*
X408995D01*
X409914Y157388D01*
X410617Y158091D01*
X410998Y159010D01*
Y160005D01*
X410617Y160923D01*
X409914Y161627D01*
X408995Y162007D01*
D02*
G37*
G36*
X402492D02*
X401498D01*
X400579Y161627D01*
X399876Y160923D01*
X399495Y160005D01*
Y159010D01*
X399876Y158091D01*
X400579Y157388D01*
X401498Y157007D01*
X402492D01*
X403411Y157388D01*
X404115Y158091D01*
X404495Y159010D01*
Y160005D01*
X404115Y160923D01*
X403411Y161627D01*
X402492Y162007D01*
D02*
G37*
G36*
X371187Y157546D02*
X369795D01*
X368508Y157013D01*
X367524Y156029D01*
X366991Y154742D01*
Y153350D01*
X367524Y152063D01*
X368508Y151079D01*
X369795Y150546D01*
X371187D01*
X372473Y151079D01*
X373458Y152063D01*
X373991Y153350D01*
Y154742D01*
X373458Y156029D01*
X372473Y157013D01*
X371187Y157546D01*
D02*
G37*
G36*
X402492Y155505D02*
X401498D01*
X400579Y155124D01*
X399876Y154421D01*
X399495Y153502D01*
Y152507D01*
X399876Y151589D01*
X400579Y150885D01*
X401498Y150505D01*
X402492D01*
X403411Y150885D01*
X404115Y151589D01*
X404495Y152507D01*
Y153502D01*
X404115Y154421D01*
X403411Y155124D01*
X402492Y155505D01*
D02*
G37*
G36*
X298606Y158064D02*
X296617D01*
X294779Y157303D01*
X293373Y155896D01*
X292612Y154058D01*
Y152069D01*
X293373Y150232D01*
X294779Y148825D01*
X296617Y148064D01*
X298606D01*
X300444Y148825D01*
X301850Y150232D01*
X302612Y152069D01*
Y154058D01*
X301850Y155896D01*
X300444Y157303D01*
X298606Y158064D01*
D02*
G37*
G36*
X263196Y153500D02*
X261804D01*
X260517Y152967D01*
X259533Y151982D01*
X259000Y150696D01*
Y149304D01*
X259533Y148017D01*
X260517Y147033D01*
X261804Y146500D01*
X263196D01*
X264482Y147033D01*
X265467Y148017D01*
X266000Y149304D01*
Y150696D01*
X265467Y151982D01*
X264482Y152967D01*
X263196Y153500D01*
D02*
G37*
G36*
X321901Y153054D02*
X320508D01*
X319222Y152521D01*
X318237Y151536D01*
X317705Y150250D01*
Y148857D01*
X318237Y147571D01*
X319222Y146587D01*
X320508Y146054D01*
X321901D01*
X323187Y146587D01*
X324172Y147571D01*
X324705Y148857D01*
Y150250D01*
X324172Y151536D01*
X323187Y152521D01*
X321901Y153054D01*
D02*
G37*
G36*
X350895Y148471D02*
X349502D01*
X348216Y147938D01*
X347231Y146954D01*
X346698Y145667D01*
Y144900D01*
X346372Y145118D01*
X345685Y145254D01*
X337956D01*
X337268Y145118D01*
X336685Y144728D01*
X335679Y143722D01*
X335327Y143867D01*
X333935D01*
X332648Y143335D01*
X331664Y142350D01*
X331131Y141064D01*
Y139671D01*
X331664Y138385D01*
X332648Y137400D01*
X333935Y136867D01*
X334447D01*
X334161Y136176D01*
Y134784D01*
X334694Y133497D01*
X335678Y132513D01*
X336965Y131980D01*
X338357D01*
X339644Y132513D01*
X340628Y133497D01*
X341161Y134784D01*
Y136176D01*
X341084Y136362D01*
X342319Y137597D01*
X343257D01*
X345479Y135375D01*
X346062Y134986D01*
X346750Y134849D01*
X349857D01*
X349011Y134003D01*
X348478Y132716D01*
Y131324D01*
X349011Y130037D01*
X349995Y129053D01*
X351282Y128520D01*
X352674D01*
X353960Y129053D01*
X354945Y130037D01*
X355478Y131324D01*
Y132716D01*
X354945Y134003D01*
X354099Y134849D01*
X359284D01*
X359971Y134986D01*
X360554Y135375D01*
X362645Y137465D01*
X367516D01*
X367033Y136983D01*
X366500Y135696D01*
Y134304D01*
X367033Y133017D01*
X368017Y132033D01*
X369304Y131500D01*
X370696D01*
X371983Y132033D01*
X372967Y133017D01*
X373500Y134304D01*
Y134987D01*
X374166Y134321D01*
X374748Y133932D01*
X375436Y133795D01*
X384611D01*
X385298Y133932D01*
X385881Y134321D01*
X388306Y136746D01*
X388351Y136728D01*
X389644D01*
X390839Y137223D01*
X391753Y138137D01*
X392248Y139332D01*
Y140625D01*
X391753Y141819D01*
X390839Y142734D01*
X389644Y143229D01*
X388351D01*
X387156Y142734D01*
X386242Y141819D01*
X385747Y140625D01*
Y139332D01*
X385766Y139287D01*
X385525Y139047D01*
X385668Y139392D01*
Y140685D01*
X385173Y141880D01*
X384259Y142794D01*
X383064Y143289D01*
X381771D01*
X380577Y142794D01*
X379662Y141880D01*
X379485Y141452D01*
X377864D01*
X374719Y144596D01*
X374136Y144986D01*
X373449Y145122D01*
X360217D01*
X359530Y144986D01*
X358947Y144596D01*
X356856Y142506D01*
X352683D01*
X353166Y142989D01*
X353698Y144275D01*
Y145667D01*
X353166Y146954D01*
X352181Y147938D01*
X350895Y148471D01*
D02*
G37*
G36*
X376554Y149416D02*
X375560D01*
X374641Y149035D01*
X373938Y148332D01*
X373557Y147413D01*
Y146419D01*
X373938Y145500D01*
X374641Y144797D01*
X375560Y144416D01*
X376554D01*
X377473Y144797D01*
X378176Y145500D01*
X378557Y146419D01*
Y147413D01*
X378176Y148332D01*
X377473Y149035D01*
X376554Y149416D01*
D02*
G37*
G36*
X389495Y149004D02*
X388500D01*
X387581Y148623D01*
X386878Y147920D01*
X386497Y147001D01*
Y146006D01*
X386878Y145088D01*
X387581Y144384D01*
X388500Y144004D01*
X389495D01*
X390414Y144384D01*
X391117Y145088D01*
X391497Y146006D01*
Y147001D01*
X391117Y147920D01*
X390414Y148623D01*
X389495Y149004D01*
D02*
G37*
G36*
X402492Y149002D02*
X401498D01*
X400579Y148622D01*
X399876Y147919D01*
X399495Y147000D01*
Y146005D01*
X399876Y145086D01*
X400579Y144383D01*
X401498Y144002D01*
X402492D01*
X403411Y144383D01*
X404115Y145086D01*
X404495Y146005D01*
Y147000D01*
X404115Y147919D01*
X403411Y148622D01*
X402492Y149002D01*
D02*
G37*
G36*
Y142500D02*
X401498D01*
X400579Y142119D01*
X399876Y141416D01*
X399495Y140497D01*
Y139503D01*
X399876Y138584D01*
X400579Y137881D01*
X401498Y137500D01*
X402492D01*
X403411Y137881D01*
X404115Y138584D01*
X404495Y139503D01*
Y140497D01*
X404115Y141416D01*
X403411Y142119D01*
X402492Y142500D01*
D02*
G37*
G36*
X395990D02*
X394995D01*
X394077Y142119D01*
X393373Y141416D01*
X392993Y140497D01*
Y139503D01*
X393373Y138584D01*
X394077Y137881D01*
X394995Y137500D01*
X395990D01*
X396909Y137881D01*
X397612Y138584D01*
X397993Y139503D01*
Y140497D01*
X397612Y141416D01*
X396909Y142119D01*
X395990Y142500D01*
D02*
G37*
G36*
X306071Y144913D02*
X299061D01*
X296719Y144448D01*
X294734Y143121D01*
X293408Y141137D01*
X292943Y138795D01*
X293408Y136454D01*
X294734Y134469D01*
X296719Y133143D01*
X299061Y132677D01*
X306071D01*
X308412Y133143D01*
X310397Y134469D01*
X311723Y136454D01*
X312189Y138795D01*
X311723Y141137D01*
X310397Y143121D01*
X308412Y144448D01*
X306071Y144913D01*
D02*
G37*
G36*
X262751D02*
X258764D01*
X256422Y144448D01*
X254437Y143121D01*
X253111Y141137D01*
X252645Y138795D01*
X253111Y136454D01*
X254437Y134469D01*
X256422Y133143D01*
X258764Y132677D01*
X262751D01*
X265093Y133143D01*
X267077Y134469D01*
X268404Y136454D01*
X268869Y138795D01*
X268404Y141137D01*
X267077Y143121D01*
X265093Y144448D01*
X262751Y144913D01*
D02*
G37*
G36*
X285696Y138500D02*
X284304D01*
X283017Y137967D01*
X282033Y136982D01*
X281500Y135696D01*
Y134304D01*
X282033Y133017D01*
X283017Y132033D01*
X284304Y131500D01*
X285696D01*
X286982Y132033D01*
X287967Y133017D01*
X288500Y134304D01*
Y135696D01*
X287967Y136982D01*
X286982Y137967D01*
X285696Y138500D01*
D02*
G37*
G36*
X402492Y135998D02*
X401498D01*
X400579Y135617D01*
X399876Y134914D01*
X399495Y133995D01*
Y133000D01*
X399876Y132081D01*
X400579Y131378D01*
X401498Y130998D01*
X402492D01*
X403411Y131378D01*
X404115Y132081D01*
X404495Y133000D01*
Y133995D01*
X404115Y134914D01*
X403411Y135617D01*
X402492Y135998D01*
D02*
G37*
G36*
X389488Y135926D02*
X388494D01*
X387575Y135545D01*
X386872Y134842D01*
X386491Y133923D01*
Y132929D01*
X386872Y132010D01*
X387575Y131307D01*
X388494Y130926D01*
X389488D01*
X390407Y131307D01*
X391110Y132010D01*
X391491Y132929D01*
Y133923D01*
X391110Y134842D01*
X390407Y135545D01*
X389488Y135926D01*
D02*
G37*
G36*
X377846Y133772D02*
X376851D01*
X375932Y133392D01*
X375229Y132689D01*
X374849Y131770D01*
Y130775D01*
X375229Y129856D01*
X375932Y129153D01*
X376851Y128772D01*
X377846D01*
X378765Y129153D01*
X379468Y129856D01*
X379849Y130775D01*
Y131770D01*
X379468Y132689D01*
X378765Y133392D01*
X377846Y133772D01*
D02*
G37*
G36*
X402492Y129495D02*
X401498D01*
X400579Y129115D01*
X399876Y128411D01*
X399495Y127493D01*
Y126498D01*
X399876Y125579D01*
X400579Y124876D01*
X401498Y124495D01*
X402492D01*
X403411Y124876D01*
X404115Y125579D01*
X404495Y126498D01*
Y127493D01*
X404115Y128411D01*
X403411Y129115D01*
X402492Y129495D01*
D02*
G37*
G36*
X395990D02*
X394995D01*
X394077Y129115D01*
X393373Y128411D01*
X392993Y127493D01*
Y126498D01*
X393373Y125579D01*
X394077Y124876D01*
X394995Y124495D01*
X395990D01*
X396909Y124876D01*
X397612Y125579D01*
X397993Y126498D01*
Y127493D01*
X397612Y128411D01*
X396909Y129115D01*
X395990Y129495D01*
D02*
G37*
G36*
X402492Y122993D02*
X401498D01*
X400579Y122612D01*
X399876Y121909D01*
X399495Y120990D01*
Y119995D01*
X399876Y119077D01*
X400579Y118373D01*
X401498Y117993D01*
X402492D01*
X403411Y118373D01*
X404115Y119077D01*
X404495Y119995D01*
Y120990D01*
X404115Y121909D01*
X403411Y122612D01*
X402492Y122993D01*
D02*
G37*
G36*
X395990D02*
X394995D01*
X394077Y122612D01*
X393373Y121909D01*
X392993Y120990D01*
Y119995D01*
X393373Y119077D01*
X394077Y118373D01*
X394995Y117993D01*
X395990D01*
X396909Y118373D01*
X397612Y119077D01*
X397993Y119995D01*
Y120990D01*
X397612Y121909D01*
X396909Y122612D01*
X395990Y122993D01*
D02*
G37*
G36*
X389606Y123786D02*
X388313D01*
X387118Y123291D01*
X386204Y122377D01*
X385709Y121182D01*
Y119889D01*
X385727Y119845D01*
X385682Y119799D01*
X375078D01*
X374391Y119662D01*
X373808Y119273D01*
X371535Y117000D01*
X371146Y116417D01*
X371009Y115730D01*
Y110600D01*
X371146Y109912D01*
X371184Y109856D01*
X370376Y110663D01*
X369089Y111196D01*
X367697D01*
X366410Y110663D01*
X365426Y109679D01*
X364893Y108392D01*
Y107000D01*
X365426Y105714D01*
X366410Y104729D01*
X367697Y104196D01*
X369089D01*
X370376Y104729D01*
X371360Y105714D01*
X371799Y106773D01*
Y105916D01*
X366992Y101109D01*
X363461Y97578D01*
X363071Y96995D01*
X362935Y96308D01*
Y91696D01*
X363071Y91008D01*
X363461Y90425D01*
X363938Y89948D01*
Y82097D01*
X363148Y81307D01*
X362616Y80021D01*
Y79994D01*
X361329Y80527D01*
X359937D01*
X358651Y79994D01*
X357666Y79010D01*
X357133Y77723D01*
Y76331D01*
X357666Y75045D01*
X358651Y74060D01*
X359937Y73527D01*
X361329D01*
X362616Y74060D01*
X363600Y75045D01*
X364133Y76331D01*
Y76357D01*
X365420Y75825D01*
X366812D01*
X368098Y76357D01*
X369083Y77342D01*
X369616Y78628D01*
Y80021D01*
X369083Y81307D01*
X368098Y82292D01*
X367531Y82527D01*
Y90692D01*
X367434Y91185D01*
X367564Y91054D01*
X368850Y90521D01*
X370243D01*
X371529Y91054D01*
X372514Y92039D01*
X373046Y93325D01*
Y94717D01*
X372514Y96004D01*
X371529Y96988D01*
X370243Y97521D01*
X368850D01*
X368227Y97263D01*
X369532Y98568D01*
X374866Y103902D01*
X375255Y104484D01*
X375392Y105172D01*
Y109810D01*
X375255Y110497D01*
X374866Y111080D01*
X374602Y111344D01*
Y112255D01*
X375155Y111702D01*
X376074Y111322D01*
X377069D01*
X377988Y111702D01*
X378691Y112406D01*
X379071Y113324D01*
Y114319D01*
X378691Y115238D01*
X377988Y115941D01*
X377348Y116206D01*
X381304D01*
X381072Y116110D01*
X380369Y115407D01*
X379988Y114488D01*
Y113493D01*
X380369Y112574D01*
X381072Y111871D01*
X381991Y111490D01*
X382985D01*
X383904Y111871D01*
X384607Y112574D01*
X384988Y113493D01*
Y114488D01*
X384607Y115407D01*
X383904Y116110D01*
X383672Y116206D01*
X386426D01*
X387113Y116343D01*
X387696Y116732D01*
X388268Y117304D01*
X388313Y117285D01*
X389606D01*
X390801Y117780D01*
X391715Y118694D01*
X392210Y119889D01*
Y121182D01*
X391715Y122377D01*
X390801Y123291D01*
X389606Y123786D01*
D02*
G37*
G36*
X364144Y124275D02*
X362751D01*
X361465Y123742D01*
X360480Y122757D01*
X359948Y121471D01*
Y120078D01*
X360480Y118792D01*
X361465Y117807D01*
X362751Y117275D01*
X364144D01*
X365430Y117807D01*
X366415Y118792D01*
X366948Y120078D01*
Y121471D01*
X366415Y122757D01*
X365430Y123742D01*
X364144Y124275D01*
D02*
G37*
G36*
X336289Y123435D02*
X334897D01*
X333611Y122902D01*
X332626Y121918D01*
X332093Y120631D01*
Y119239D01*
X332626Y117952D01*
X333611Y116968D01*
X334897Y116435D01*
X336289D01*
X337576Y116968D01*
X338560Y117952D01*
X339093Y119239D01*
Y120631D01*
X338560Y121918D01*
X337576Y122902D01*
X336289Y123435D01*
D02*
G37*
G36*
X434979Y116490D02*
X433984D01*
X433066Y116110D01*
X432362Y115407D01*
X431982Y114488D01*
Y113493D01*
X432362Y112574D01*
X433066Y111871D01*
X433984Y111490D01*
X434979D01*
X435898Y111871D01*
X436601Y112574D01*
X436982Y113493D01*
Y114488D01*
X436601Y115407D01*
X435898Y116110D01*
X434979Y116490D01*
D02*
G37*
G36*
X421974D02*
X420980D01*
X420061Y116110D01*
X419358Y115407D01*
X418977Y114488D01*
Y113493D01*
X419358Y112574D01*
X420061Y111871D01*
X420980Y111490D01*
X421974D01*
X422893Y111871D01*
X423596Y112574D01*
X423977Y113493D01*
Y114488D01*
X423596Y115407D01*
X422893Y116110D01*
X421974Y116490D01*
D02*
G37*
G36*
X408995D02*
X408000D01*
X407081Y116110D01*
X406378Y115407D01*
X405998Y114488D01*
Y113493D01*
X406378Y112574D01*
X407081Y111871D01*
X408000Y111490D01*
X408995D01*
X409914Y111871D01*
X410617Y112574D01*
X410998Y113493D01*
Y114488D01*
X410617Y115407D01*
X409914Y116110D01*
X408995Y116490D01*
D02*
G37*
G36*
X402492D02*
X401498D01*
X400579Y116110D01*
X399876Y115407D01*
X399495Y114488D01*
Y113493D01*
X399876Y112574D01*
X400579Y111871D01*
X401498Y111490D01*
X402492D01*
X403411Y111871D01*
X404115Y112574D01*
X404495Y113493D01*
Y114488D01*
X404115Y115407D01*
X403411Y116110D01*
X402492Y116490D01*
D02*
G37*
G36*
X395990D02*
X394995D01*
X394077Y116110D01*
X393373Y115407D01*
X392993Y114488D01*
Y113493D01*
X393373Y112574D01*
X394077Y111871D01*
X394995Y111490D01*
X395990D01*
X396909Y111871D01*
X397612Y112574D01*
X397993Y113493D01*
Y114488D01*
X397612Y115407D01*
X396909Y116110D01*
X395990Y116490D01*
D02*
G37*
G36*
X389434Y116477D02*
X388439D01*
X387521Y116096D01*
X386817Y115393D01*
X386437Y114474D01*
Y113480D01*
X386817Y112561D01*
X387521Y111858D01*
X388439Y111477D01*
X389434D01*
X390353Y111858D01*
X391056Y112561D01*
X391437Y113480D01*
Y114474D01*
X391056Y115393D01*
X390353Y116096D01*
X389434Y116477D01*
D02*
G37*
G36*
X267906Y116608D02*
X266514D01*
X265227Y116075D01*
X264243Y115090D01*
X263710Y113804D01*
Y112412D01*
X264243Y111125D01*
X265227Y110141D01*
X266514Y109608D01*
X267906D01*
X269193Y110141D01*
X270177Y111125D01*
X270710Y112412D01*
Y113804D01*
X270177Y115090D01*
X269193Y116075D01*
X267906Y116608D01*
D02*
G37*
G36*
X306146Y113337D02*
X304753D01*
X303467Y112804D01*
X302482Y111819D01*
X301949Y110533D01*
Y109141D01*
X302482Y107854D01*
X303467Y106870D01*
X304753Y106337D01*
X306146D01*
X307432Y106870D01*
X308417Y107854D01*
X308949Y109141D01*
Y110533D01*
X308417Y111819D01*
X307432Y112804D01*
X306146Y113337D01*
D02*
G37*
G36*
X428477Y109988D02*
X427482D01*
X426563Y109607D01*
X425860Y108904D01*
X425479Y107985D01*
Y106991D01*
X425860Y106072D01*
X426563Y105369D01*
X427482Y104988D01*
X428477D01*
X429395Y105369D01*
X430099Y106072D01*
X430479Y106991D01*
Y107985D01*
X430099Y108904D01*
X429395Y109607D01*
X428477Y109988D01*
D02*
G37*
G36*
X421974D02*
X420980D01*
X420061Y109607D01*
X419358Y108904D01*
X418977Y107985D01*
Y106991D01*
X419358Y106072D01*
X420061Y105369D01*
X420980Y104988D01*
X421974D01*
X422893Y105369D01*
X423596Y106072D01*
X423977Y106991D01*
Y107985D01*
X423596Y108904D01*
X422893Y109607D01*
X421974Y109988D01*
D02*
G37*
G36*
X415497D02*
X414503D01*
X413584Y109607D01*
X412881Y108904D01*
X412500Y107985D01*
Y106991D01*
X412881Y106072D01*
X413584Y105369D01*
X414503Y104988D01*
X415497D01*
X416416Y105369D01*
X417119Y106072D01*
X417500Y106991D01*
Y107985D01*
X417119Y108904D01*
X416416Y109607D01*
X415497Y109988D01*
D02*
G37*
G36*
X389488D02*
X388493D01*
X387574Y109607D01*
X386871Y108904D01*
X386490Y107985D01*
Y106991D01*
X386871Y106072D01*
X387574Y105369D01*
X388493Y104988D01*
X389488D01*
X390406Y105369D01*
X391110Y106072D01*
X391490Y106991D01*
Y107985D01*
X391110Y108904D01*
X390406Y109607D01*
X389488Y109988D01*
D02*
G37*
G36*
X382985D02*
X381991D01*
X381072Y109607D01*
X380369Y108904D01*
X379988Y107985D01*
Y106991D01*
X380369Y106072D01*
X381072Y105369D01*
X381991Y104988D01*
X382985D01*
X383904Y105369D01*
X384607Y106072D01*
X384988Y106991D01*
Y107985D01*
X384607Y108904D01*
X383904Y109607D01*
X382985Y109988D01*
D02*
G37*
G36*
X408919Y109965D02*
X407924D01*
X407006Y109584D01*
X406302Y108881D01*
X405922Y107962D01*
Y106968D01*
X406302Y106049D01*
X407006Y105346D01*
X407924Y104965D01*
X408919D01*
X409838Y105346D01*
X410541Y106049D01*
X410922Y106968D01*
Y107962D01*
X410541Y108881D01*
X409838Y109584D01*
X408919Y109965D01*
D02*
G37*
G36*
X293446Y116500D02*
X292054D01*
X290767Y115967D01*
X289783Y114983D01*
X289250Y113696D01*
Y112304D01*
X289783Y111017D01*
X290767Y110033D01*
X290954Y109956D01*
Y104337D01*
X283173Y112118D01*
X283250Y112304D01*
Y113696D01*
X282717Y114983D01*
X281733Y115967D01*
X280446Y116500D01*
X279054D01*
X277767Y115967D01*
X276783Y114983D01*
X276250Y113696D01*
Y112304D01*
X276783Y111017D01*
X277767Y110033D01*
X279054Y109500D01*
X280446D01*
X280632Y109577D01*
X302187Y88022D01*
X301375Y88358D01*
X299983D01*
X298696Y87826D01*
X297712Y86841D01*
X297179Y85555D01*
Y84162D01*
X297712Y82876D01*
X298696Y81891D01*
X299983Y81358D01*
X301375D01*
X302662Y81891D01*
X303646Y82876D01*
X304179Y84162D01*
Y85555D01*
X303843Y86367D01*
X336623Y53587D01*
X337206Y53197D01*
X337893Y53060D01*
X368588D01*
X369276Y53197D01*
X369859Y53587D01*
X381976Y65704D01*
X396710D01*
X397397Y65840D01*
X397980Y66230D01*
X415480Y83730D01*
X422314Y90563D01*
X422703Y91146D01*
X422767Y91468D01*
X423454Y91753D01*
X424369Y92667D01*
X424863Y93862D01*
Y95155D01*
X424369Y96350D01*
X423454Y97264D01*
X422260Y97759D01*
X420966D01*
X419772Y97264D01*
X418857Y96350D01*
X418387Y95215D01*
X418111Y95490D01*
X416917Y95985D01*
X415623D01*
X414429Y95490D01*
X413514Y94576D01*
X413019Y93381D01*
Y92831D01*
X411951Y91762D01*
X411546D01*
X410858Y91626D01*
X410275Y91236D01*
X391179Y72140D01*
X380505D01*
X379818Y72003D01*
X379235Y71614D01*
X374417Y66796D01*
Y67641D01*
X374388Y67712D01*
X380033Y73358D01*
X383722D01*
X384409Y73494D01*
X384992Y73884D01*
X392771Y81662D01*
X393160Y82245D01*
X393297Y82933D01*
Y93365D01*
X393390Y93141D01*
X394093Y92437D01*
X395012Y92057D01*
X396006D01*
X396925Y92437D01*
X397629Y93141D01*
X398009Y94060D01*
Y95054D01*
X397629Y95973D01*
X396925Y96676D01*
X396006Y97057D01*
X395012D01*
X394093Y96676D01*
X393390Y95973D01*
X393297Y95749D01*
Y96218D01*
X401281Y104202D01*
X401326Y104184D01*
X402619D01*
X403814Y104679D01*
X404728Y105593D01*
X405223Y106788D01*
Y108081D01*
X404728Y109276D01*
X403814Y110190D01*
X402619Y110685D01*
X401326D01*
X400131Y110190D01*
X399217Y109276D01*
X398729Y108097D01*
X398241Y109276D01*
X397326Y110190D01*
X396132Y110685D01*
X394838D01*
X393644Y110190D01*
X392729Y109276D01*
X392234Y108081D01*
Y106788D01*
X392253Y106743D01*
X387077Y101567D01*
X386687Y100984D01*
X386550Y100296D01*
Y91164D01*
X382183Y86797D01*
X380395D01*
X379707Y86660D01*
X379125Y86270D01*
X363276Y70421D01*
X363089Y70498D01*
X361697D01*
X360411Y69966D01*
X359426Y68981D01*
X358893Y67695D01*
Y66302D01*
X359359Y65177D01*
X334244D01*
X294547Y104875D01*
Y109956D01*
X294733Y110033D01*
X295717Y111017D01*
X296250Y112304D01*
Y113696D01*
X295717Y114983D01*
X294733Y115967D01*
X293446Y116500D01*
D02*
G37*
G36*
X335696Y108500D02*
X334304D01*
X333017Y107967D01*
X332033Y106983D01*
X331500Y105696D01*
Y104304D01*
X332033Y103017D01*
X333017Y102033D01*
X334304Y101500D01*
X335696D01*
X336983Y102033D01*
X337967Y103017D01*
X338500Y104304D01*
Y105696D01*
X337967Y106983D01*
X336983Y107967D01*
X335696Y108500D01*
D02*
G37*
G36*
X255696Y108500D02*
X254304D01*
X253017Y107967D01*
X252033Y106982D01*
X251500Y105696D01*
Y104304D01*
X252033Y103017D01*
X253017Y102033D01*
X254304Y101500D01*
X255696D01*
X256982Y102033D01*
X257967Y103017D01*
X258500Y104304D01*
Y105696D01*
X257967Y106982D01*
X256982Y107967D01*
X255696Y108500D01*
D02*
G37*
G36*
X415084Y103839D02*
X414089D01*
X413170Y103458D01*
X412467Y102755D01*
X412086Y101836D01*
Y100841D01*
X412467Y99923D01*
X413170Y99219D01*
X414089Y98839D01*
X415084D01*
X416002Y99219D01*
X416706Y99923D01*
X417086Y100841D01*
Y101836D01*
X416706Y102755D01*
X416002Y103458D01*
X415084Y103839D01*
D02*
G37*
G36*
X454148Y103775D02*
X453153D01*
X452234Y103395D01*
X451531Y102691D01*
X451151Y101772D01*
Y100778D01*
X451531Y99859D01*
X452234Y99156D01*
X453153Y98775D01*
X454148D01*
X455067Y99156D01*
X455770Y99859D01*
X456151Y100778D01*
Y101772D01*
X455770Y102691D01*
X455067Y103395D01*
X454148Y103775D01*
D02*
G37*
G36*
X402470Y103554D02*
X401475D01*
X400556Y103173D01*
X399853Y102470D01*
X399472Y101551D01*
Y100557D01*
X399853Y99638D01*
X400556Y98934D01*
X401475Y98554D01*
X402470D01*
X403388Y98934D01*
X404092Y99638D01*
X404472Y100557D01*
Y101551D01*
X404092Y102470D01*
X403388Y103173D01*
X402470Y103554D01*
D02*
G37*
G36*
X441471Y103516D02*
X440476D01*
X439557Y103135D01*
X438854Y102432D01*
X438473Y101513D01*
Y100518D01*
X438854Y99600D01*
X439557Y98896D01*
X440476Y98516D01*
X441471D01*
X442389Y98896D01*
X443093Y99600D01*
X443473Y100518D01*
Y101513D01*
X443093Y102432D01*
X442389Y103135D01*
X441471Y103516D01*
D02*
G37*
G36*
X421970D02*
X420975D01*
X420057Y103135D01*
X419353Y102432D01*
X418973Y101513D01*
Y100518D01*
X419353Y99600D01*
X420057Y98896D01*
X420975Y98516D01*
X421970D01*
X422889Y98896D01*
X423592Y99600D01*
X423973Y100518D01*
Y101513D01*
X423592Y102432D01*
X422889Y103135D01*
X421970Y103516D01*
D02*
G37*
G36*
X447958Y103478D02*
X446963D01*
X446045Y103097D01*
X445341Y102394D01*
X444961Y101475D01*
Y100480D01*
X445341Y99561D01*
X446045Y98858D01*
X446963Y98478D01*
X447958D01*
X448877Y98858D01*
X449580Y99561D01*
X449961Y100480D01*
Y101475D01*
X449580Y102394D01*
X448877Y103097D01*
X447958Y103478D01*
D02*
G37*
G36*
X408995Y103439D02*
X408001D01*
X407082Y103059D01*
X406379Y102355D01*
X405998Y101437D01*
Y100442D01*
X406379Y99523D01*
X407082Y98820D01*
X408001Y98439D01*
X408995D01*
X409914Y98820D01*
X410617Y99523D01*
X410998Y100442D01*
Y101437D01*
X410617Y102355D01*
X409914Y103059D01*
X408995Y103439D01*
D02*
G37*
G36*
X441445Y97076D02*
X440450D01*
X439531Y96695D01*
X438828Y95992D01*
X438447Y95073D01*
Y94078D01*
X438828Y93160D01*
X439531Y92456D01*
X440450Y92076D01*
X441445D01*
X442364Y92456D01*
X443067Y93160D01*
X443447Y94078D01*
Y95073D01*
X443067Y95992D01*
X442364Y96695D01*
X441445Y97076D01*
D02*
G37*
G36*
X344485Y97515D02*
X343092D01*
X341806Y96982D01*
X340822Y95998D01*
X340289Y94711D01*
Y93319D01*
X340822Y92032D01*
X341806Y91048D01*
X343092Y90515D01*
X344485D01*
X345771Y91048D01*
X346756Y92032D01*
X347289Y93319D01*
Y94711D01*
X346756Y95998D01*
X345771Y96982D01*
X344485Y97515D01*
D02*
G37*
G36*
X439801Y91355D02*
X438806D01*
X437888Y90975D01*
X437184Y90271D01*
X436804Y89353D01*
Y88358D01*
X437184Y87439D01*
X437888Y86736D01*
X438806Y86355D01*
X439801D01*
X440720Y86736D01*
X441423Y87439D01*
X441804Y88358D01*
Y89353D01*
X441423Y90271D01*
X440720Y90975D01*
X439801Y91355D01*
D02*
G37*
G36*
X401184Y90853D02*
X400189D01*
X399270Y90472D01*
X398567Y89769D01*
X398186Y88850D01*
Y87856D01*
X398567Y86937D01*
X399270Y86234D01*
X400189Y85853D01*
X401184D01*
X402102Y86234D01*
X402806Y86937D01*
X403186Y87856D01*
Y88850D01*
X402806Y89769D01*
X402102Y90472D01*
X401184Y90853D01*
D02*
G37*
G36*
X449546Y90674D02*
X448551D01*
X447633Y90293D01*
X446929Y89590D01*
X446549Y88671D01*
Y87676D01*
X446929Y86758D01*
X447633Y86054D01*
X448551Y85674D01*
X449546D01*
X450465Y86054D01*
X451168Y86758D01*
X451549Y87676D01*
Y88671D01*
X451168Y89590D01*
X450465Y90293D01*
X449546Y90674D01*
D02*
G37*
G36*
X332676Y92413D02*
X331283D01*
X329997Y91880D01*
X329012Y90896D01*
X328480Y89609D01*
Y88217D01*
X329012Y86930D01*
X329997Y85946D01*
X331283Y85413D01*
X332676D01*
X333962Y85946D01*
X334947Y86930D01*
X335480Y88217D01*
Y89609D01*
X334947Y90896D01*
X333962Y91880D01*
X332676Y92413D01*
D02*
G37*
G36*
X286375Y88358D02*
X284983D01*
X283696Y87826D01*
X282712Y86841D01*
X282179Y85555D01*
Y84162D01*
X282712Y82876D01*
X283696Y81891D01*
X284983Y81358D01*
X286375D01*
X287662Y81891D01*
X288646Y82876D01*
X289179Y84162D01*
Y85555D01*
X288646Y86841D01*
X287662Y87826D01*
X286375Y88358D01*
D02*
G37*
G36*
X271375D02*
X269983D01*
X268696Y87826D01*
X267712Y86841D01*
X267179Y85555D01*
Y84162D01*
X267712Y82876D01*
X268696Y81891D01*
X269983Y81358D01*
X271375D01*
X272662Y81891D01*
X273646Y82876D01*
X274179Y84162D01*
Y85555D01*
X273646Y86841D01*
X272662Y87826D01*
X271375Y88358D01*
D02*
G37*
G36*
X340223Y88204D02*
X338830D01*
X337544Y87671D01*
X336560Y86686D01*
X336027Y85400D01*
Y84008D01*
X336560Y82721D01*
X337544Y81736D01*
X338830Y81204D01*
X340223D01*
X341509Y81736D01*
X342494Y82721D01*
X343027Y84008D01*
Y85400D01*
X342494Y86686D01*
X341509Y87671D01*
X340223Y88204D01*
D02*
G37*
G36*
X255696Y78500D02*
X254304D01*
X253017Y77967D01*
X252033Y76982D01*
X251500Y75696D01*
Y74304D01*
X252033Y73017D01*
X253017Y72033D01*
X254304Y71500D01*
X255696D01*
X256982Y72033D01*
X257967Y73017D01*
X258500Y74304D01*
Y75696D01*
X257967Y76982D01*
X256982Y77967D01*
X255696Y78500D01*
D02*
G37*
G36*
X301375Y78358D02*
X299983D01*
X298696Y77826D01*
X297712Y76841D01*
X297179Y75555D01*
Y74162D01*
X297712Y72876D01*
X298696Y71891D01*
X299983Y71358D01*
X301375D01*
X302662Y71891D01*
X303646Y72876D01*
X304179Y74162D01*
Y75555D01*
X303646Y76841D01*
X302662Y77826D01*
X301375Y78358D01*
D02*
G37*
G36*
X286375D02*
X284983D01*
X283696Y77826D01*
X282712Y76841D01*
X282179Y75555D01*
Y74162D01*
X282712Y72876D01*
X283696Y71891D01*
X284983Y71358D01*
X286375D01*
X287662Y71891D01*
X288646Y72876D01*
X289179Y74162D01*
Y75555D01*
X288646Y76841D01*
X287662Y77826D01*
X286375Y78358D01*
D02*
G37*
G36*
X271375D02*
X269983D01*
X268696Y77826D01*
X267712Y76841D01*
X267179Y75555D01*
Y74162D01*
X267712Y72876D01*
X268696Y71891D01*
X269983Y71358D01*
X271375D01*
X272662Y71891D01*
X273646Y72876D01*
X274179Y74162D01*
Y75555D01*
X273646Y76841D01*
X272662Y77826D01*
X271375Y78358D01*
D02*
G37*
G36*
X345354Y77490D02*
X343961D01*
X342675Y76957D01*
X341690Y75972D01*
X341157Y74686D01*
Y73293D01*
X341690Y72007D01*
X342675Y71022D01*
X343961Y70490D01*
X345354D01*
X346640Y71022D01*
X347624Y72007D01*
X348157Y73293D01*
Y74686D01*
X347624Y75972D01*
X346640Y76957D01*
X345354Y77490D01*
D02*
G37*
G36*
X446934Y70852D02*
X445542D01*
X444256Y70319D01*
X443271Y69334D01*
X443188Y69134D01*
X442491Y69832D01*
X441205Y70364D01*
X439812D01*
X438526Y69832D01*
X437541Y68847D01*
X437009Y67561D01*
Y66168D01*
X437541Y64882D01*
X438526Y63897D01*
X439812Y63365D01*
X441205D01*
X442491Y63897D01*
X443476Y64882D01*
X443558Y65082D01*
X444256Y64385D01*
X445542Y63852D01*
X446934D01*
X448221Y64385D01*
X449205Y65369D01*
X449738Y66656D01*
Y68048D01*
X449205Y69334D01*
X448221Y70319D01*
X446934Y70852D01*
D02*
G37*
G36*
X465294Y70565D02*
X463902D01*
X462616Y70032D01*
X461690Y69107D01*
X460831Y69966D01*
X459544Y70498D01*
X458152D01*
X456866Y69966D01*
X455881Y68981D01*
X455348Y67695D01*
Y66302D01*
X455881Y65016D01*
X456866Y64031D01*
X458152Y63498D01*
X459544D01*
X460831Y64031D01*
X461757Y64957D01*
X462616Y64098D01*
X463902Y63565D01*
X465294D01*
X466581Y64098D01*
X467565Y65083D01*
X468098Y66369D01*
Y67762D01*
X467565Y69048D01*
X466581Y70032D01*
X465294Y70565D01*
D02*
G37*
G36*
X420196Y74250D02*
X418804D01*
X417517Y73717D01*
X416533Y72733D01*
X416000Y71446D01*
Y70054D01*
X416533Y68767D01*
X417517Y67783D01*
X418804Y67250D01*
X420196D01*
X421483Y67783D01*
X422467Y68767D01*
X423000Y70054D01*
Y71446D01*
X422467Y72733D01*
X421483Y73717D01*
X420196Y74250D01*
D02*
G37*
G36*
X412635Y70819D02*
X411243D01*
X409956Y70286D01*
X408972Y69302D01*
X408439Y68015D01*
Y66623D01*
X408972Y65336D01*
X409956Y64352D01*
X411243Y63819D01*
X412635D01*
X413922Y64352D01*
X414906Y65336D01*
X415439Y66623D01*
Y68015D01*
X414906Y69302D01*
X413922Y70286D01*
X412635Y70819D01*
D02*
G37*
G36*
X301375Y68358D02*
X299983D01*
X298696Y67826D01*
X297712Y66841D01*
X297179Y65555D01*
Y64162D01*
X297712Y62876D01*
X298696Y61891D01*
X299983Y61358D01*
X301375D01*
X302662Y61891D01*
X303646Y62876D01*
X304179Y64162D01*
Y65555D01*
X303646Y66841D01*
X302662Y67826D01*
X301375Y68358D01*
D02*
G37*
G36*
X286375D02*
X284983D01*
X283696Y67826D01*
X282712Y66841D01*
X282179Y65555D01*
Y64162D01*
X282712Y62876D01*
X283696Y61891D01*
X284983Y61358D01*
X286375D01*
X287662Y61891D01*
X288646Y62876D01*
X289179Y64162D01*
Y65555D01*
X288646Y66841D01*
X287662Y67826D01*
X286375Y68358D01*
D02*
G37*
G36*
X271375D02*
X269983D01*
X268696Y67826D01*
X267712Y66841D01*
X267179Y65555D01*
Y64162D01*
X267712Y62876D01*
X268696Y61891D01*
X269983Y61358D01*
X271375D01*
X272662Y61891D01*
X273646Y62876D01*
X274179Y64162D01*
Y65555D01*
X273646Y66841D01*
X272662Y67826D01*
X271375Y68358D01*
D02*
G37*
G36*
X321743Y60574D02*
X320350D01*
X319064Y60041D01*
X318080Y59057D01*
X317547Y57770D01*
Y56378D01*
X318080Y55091D01*
X319064Y54107D01*
X320350Y53574D01*
X321743D01*
X323029Y54107D01*
X324014Y55091D01*
X324547Y56378D01*
Y57770D01*
X324014Y59057D01*
X323029Y60041D01*
X321743Y60574D01*
D02*
G37*
G36*
X497185Y60272D02*
X495793D01*
X494506Y59740D01*
X493522Y58755D01*
X492989Y57469D01*
Y56076D01*
X493522Y54790D01*
X494506Y53805D01*
X495793Y53273D01*
X497185D01*
X498471Y53805D01*
X499456Y54790D01*
X499651Y55260D01*
Y53967D01*
X500183Y52681D01*
X501168Y51696D01*
X502454Y51163D01*
X503847D01*
X505133Y51696D01*
X506118Y52681D01*
X506651Y53967D01*
Y55360D01*
X506118Y56646D01*
X505133Y57631D01*
X503847Y58163D01*
X502454D01*
X501168Y57631D01*
X500183Y56646D01*
X499989Y56176D01*
Y57469D01*
X499456Y58755D01*
X498471Y59740D01*
X497185Y60272D01*
D02*
G37*
G36*
X393834Y52041D02*
X392441D01*
X391155Y51508D01*
X390170Y50523D01*
X389671Y49317D01*
X388545Y49783D01*
X387153D01*
X385866Y49250D01*
X384882Y48266D01*
X384349Y46979D01*
Y45587D01*
X384882Y44301D01*
X385866Y43316D01*
X387153Y42783D01*
X388545D01*
X389831Y43316D01*
X390816Y44301D01*
X391316Y45507D01*
X392441Y45041D01*
X393834D01*
X395120Y45574D01*
X396105Y46558D01*
X396638Y47845D01*
Y49237D01*
X396105Y50523D01*
X395120Y51508D01*
X393834Y52041D01*
D02*
G37*
G36*
X438866Y52068D02*
X437473D01*
X436187Y51535D01*
X435203Y50550D01*
X434670Y49264D01*
Y48976D01*
X433807Y49333D01*
X432415D01*
X431129Y48800D01*
X430144Y47816D01*
X429611Y46529D01*
Y45137D01*
X429871Y44510D01*
X429284D01*
X427997Y43977D01*
X427013Y42993D01*
X426480Y41706D01*
Y40314D01*
X427013Y39027D01*
X427997Y38043D01*
X429284Y37510D01*
X430676D01*
X431963Y38043D01*
X432947Y39027D01*
X433480Y40314D01*
Y41706D01*
X433220Y42333D01*
X433807D01*
X435094Y42866D01*
X436078Y43851D01*
X436611Y45137D01*
Y45425D01*
X437473Y45068D01*
X438866D01*
X440152Y45601D01*
X441137Y46585D01*
X441670Y47872D01*
Y49264D01*
X441137Y50550D01*
X440152Y51535D01*
X438866Y52068D01*
D02*
G37*
G36*
X328511Y55275D02*
X327119D01*
X325832Y54742D01*
X324848Y53758D01*
X324315Y52471D01*
Y51079D01*
X324848Y49792D01*
X325827Y48813D01*
X325025Y48010D01*
X324808Y47487D01*
X324680Y47797D01*
X323695Y48782D01*
X322409Y49315D01*
X321016D01*
X319730Y48782D01*
X318745Y47797D01*
X318213Y46511D01*
Y45118D01*
X318745Y43832D01*
X319730Y42848D01*
X321016Y42315D01*
X322409D01*
X323695Y42848D01*
X324680Y43832D01*
X324896Y44355D01*
X325025Y44045D01*
X326009Y43060D01*
X327296Y42527D01*
X328688D01*
X329975Y43060D01*
X330959Y44045D01*
X331492Y45331D01*
Y46723D01*
X330959Y48010D01*
X329979Y48990D01*
X330782Y49792D01*
X331315Y51079D01*
Y52471D01*
X330782Y53758D01*
X329797Y54742D01*
X328511Y55275D01*
D02*
G37*
G36*
X408735Y52084D02*
X407342D01*
X406056Y51551D01*
X405071Y50567D01*
X404538Y49280D01*
Y47888D01*
X405071Y46602D01*
X406056Y45617D01*
X407342Y45084D01*
X408735D01*
X410021Y45617D01*
X411006Y46602D01*
X411538Y47888D01*
Y49280D01*
X411006Y50567D01*
X410021Y51551D01*
X408735Y52084D01*
D02*
G37*
G36*
X423768Y52000D02*
X422375D01*
X421089Y51467D01*
X420104Y50483D01*
X419571Y49196D01*
Y47804D01*
X420104Y46518D01*
X421089Y45533D01*
X422375Y45000D01*
X423768D01*
X425054Y45533D01*
X426039Y46518D01*
X426571Y47804D01*
Y49196D01*
X426039Y50483D01*
X425054Y51467D01*
X423768Y52000D01*
D02*
G37*
G36*
X375247Y49923D02*
X373855D01*
X372569Y49390D01*
X371584Y48405D01*
X371051Y47119D01*
Y45726D01*
X371584Y44440D01*
X372569Y43456D01*
X373855Y42923D01*
X375247D01*
X376534Y43456D01*
X377518Y44440D01*
X378051Y45726D01*
Y47119D01*
X377518Y48405D01*
X376534Y49390D01*
X375247Y49923D01*
D02*
G37*
G36*
X341348Y48875D02*
X339956D01*
X338670Y48342D01*
X337685Y47358D01*
X337152Y46071D01*
Y44679D01*
X337685Y43393D01*
X338670Y42408D01*
X339956Y41875D01*
X341348D01*
X342635Y42408D01*
X343619Y43393D01*
X344152Y44679D01*
Y46071D01*
X343619Y47358D01*
X342635Y48342D01*
X341348Y48875D01*
D02*
G37*
G36*
X270696Y48500D02*
X269304D01*
X268017Y47967D01*
X267033Y46982D01*
X266500Y45696D01*
Y44304D01*
X267033Y43017D01*
X268017Y42033D01*
X269304Y41500D01*
X270696D01*
X271982Y42033D01*
X272967Y43017D01*
X273500Y44304D01*
Y45696D01*
X272967Y46982D01*
X271982Y47967D01*
X270696Y48500D01*
D02*
G37*
G36*
X255696D02*
X254304D01*
X253017Y47967D01*
X252033Y46982D01*
X251500Y45696D01*
Y44304D01*
X252033Y43017D01*
X253017Y42033D01*
X254304Y41500D01*
X255696D01*
X256982Y42033D01*
X257967Y43017D01*
X258500Y44304D01*
Y45696D01*
X257967Y46982D01*
X256982Y47967D01*
X255696Y48500D01*
D02*
G37*
G36*
X503772Y48480D02*
X502380D01*
X501093Y47947D01*
X500109Y46962D01*
X499576Y45676D01*
Y44283D01*
X500109Y42997D01*
X501093Y42013D01*
X502380Y41480D01*
X503772D01*
X505059Y42013D01*
X506043Y42997D01*
X506576Y44283D01*
Y45676D01*
X506043Y46962D01*
X505059Y47947D01*
X503772Y48480D01*
D02*
G37*
G36*
X366177Y47411D02*
X364785D01*
X363498Y46878D01*
X362514Y45894D01*
X361981Y44607D01*
Y43215D01*
X362514Y41928D01*
X363498Y40944D01*
X364785Y40411D01*
X366177D01*
X367463Y40944D01*
X368448Y41928D01*
X368981Y43215D01*
Y44607D01*
X368448Y45894D01*
X367463Y46878D01*
X366177Y47411D01*
D02*
G37*
G36*
X455953Y45820D02*
X454561D01*
X453274Y45287D01*
X452290Y44303D01*
X451757Y43016D01*
Y41624D01*
X452290Y40337D01*
X453274Y39353D01*
X454561Y38820D01*
X455953D01*
X457240Y39353D01*
X458224Y40337D01*
X458757Y41624D01*
Y43016D01*
X458224Y44303D01*
X457240Y45287D01*
X455953Y45820D01*
D02*
G37*
G36*
X491047Y42972D02*
X489654D01*
X488368Y42439D01*
X487383Y41454D01*
X486850Y40168D01*
Y38775D01*
X487383Y37489D01*
X488368Y36504D01*
X489654Y35972D01*
X491047D01*
X492333Y36504D01*
X493317Y37489D01*
X493850Y38775D01*
Y40168D01*
X493317Y41454D01*
X492333Y42439D01*
X491047Y42972D01*
D02*
G37*
G36*
X390696Y42705D02*
X389304D01*
X388017Y42172D01*
X387033Y41187D01*
X386500Y39901D01*
Y38508D01*
X387033Y37222D01*
X388017Y36237D01*
X389304Y35705D01*
X390696D01*
X391983Y36237D01*
X392967Y37222D01*
X393500Y38508D01*
Y39901D01*
X392967Y41187D01*
X391983Y42172D01*
X390696Y42705D01*
D02*
G37*
%LPD*%
G36*
X359240Y61412D02*
X359822Y61023D01*
X360510Y60886D01*
X372077D01*
X367844Y56653D01*
X338637D01*
X333706Y61584D01*
X359067D01*
X359240Y61412D01*
D02*
G37*
%LPC*%
G36*
X592516Y401925D02*
X591124D01*
X589838Y401392D01*
X588853Y400407D01*
X588320Y399121D01*
Y397728D01*
X588853Y396442D01*
X589838Y395457D01*
X591124Y394925D01*
X592516D01*
X593803Y395457D01*
X594787Y396442D01*
X595320Y397728D01*
Y399121D01*
X594787Y400407D01*
X593803Y401392D01*
X592516Y401925D01*
D02*
G37*
G36*
X594793Y390763D02*
X593400D01*
X592114Y390230D01*
X591129Y389246D01*
X590597Y387960D01*
Y386567D01*
X591129Y385281D01*
X592114Y384296D01*
X593400Y383763D01*
X594793D01*
X596079Y384296D01*
X597064Y385281D01*
X597597Y386567D01*
Y387960D01*
X597064Y389246D01*
X596079Y390230D01*
X594793Y390763D01*
D02*
G37*
G36*
X556059Y383516D02*
X554667D01*
X553380Y382983D01*
X552396Y381998D01*
X551863Y380712D01*
Y379319D01*
X552396Y378033D01*
X553380Y377048D01*
X554667Y376516D01*
X556059D01*
X557345Y377048D01*
X558330Y378033D01*
X558863Y379319D01*
Y380712D01*
X558330Y381998D01*
X557345Y382983D01*
X556059Y383516D01*
D02*
G37*
G36*
X565707Y378500D02*
X564315D01*
X563028Y377967D01*
X562044Y376983D01*
X561511Y375696D01*
Y374304D01*
X562044Y373017D01*
X563028Y372033D01*
X564315Y371500D01*
X565707D01*
X566993Y372033D01*
X567978Y373017D01*
X568511Y374304D01*
Y375696D01*
X567978Y376983D01*
X566993Y377967D01*
X565707Y378500D01*
D02*
G37*
G36*
X564179Y371266D02*
X562786D01*
X561500Y370733D01*
X560515Y369749D01*
X559982Y368463D01*
Y367070D01*
X560515Y365784D01*
X561500Y364799D01*
X562786Y364266D01*
X564179D01*
X565465Y364799D01*
X566450Y365784D01*
X566982Y367070D01*
Y368463D01*
X566450Y369749D01*
X565465Y370733D01*
X564179Y371266D01*
D02*
G37*
G36*
X574348Y365379D02*
X572956D01*
X571669Y364846D01*
X570685Y363862D01*
X570152Y362575D01*
Y361183D01*
X570685Y359897D01*
X571669Y358912D01*
X572605Y358525D01*
X572589Y358509D01*
X572056Y357222D01*
Y355830D01*
X572589Y354543D01*
X573573Y353559D01*
X574860Y353026D01*
X576252D01*
X577539Y353559D01*
X578523Y354543D01*
X579056Y355830D01*
Y357222D01*
X578523Y358509D01*
X577539Y359493D01*
X576603Y359881D01*
X576619Y359897D01*
X577152Y361183D01*
Y362575D01*
X576619Y363862D01*
X575634Y364846D01*
X574348Y365379D01*
D02*
G37*
G36*
X568946Y359997D02*
X567553D01*
X566267Y359464D01*
X565283Y358479D01*
X564750Y357193D01*
Y355801D01*
X565283Y354514D01*
X566267Y353530D01*
X567553Y352997D01*
X568946D01*
X570232Y353530D01*
X571217Y354514D01*
X571750Y355801D01*
Y357193D01*
X571217Y358479D01*
X570232Y359464D01*
X568946Y359997D01*
D02*
G37*
G36*
X575067Y346550D02*
X573674D01*
X572388Y346017D01*
X571403Y345033D01*
X570871Y343746D01*
Y342354D01*
X571403Y341067D01*
X572388Y340083D01*
X573674Y339550D01*
X575067D01*
X576353Y340083D01*
X577338Y341067D01*
X577871Y342354D01*
Y343746D01*
X577338Y345033D01*
X576353Y346017D01*
X575067Y346550D01*
D02*
G37*
G36*
X593448Y349100D02*
X591459D01*
X589622Y348339D01*
X588215Y346933D01*
X587454Y345095D01*
Y343106D01*
X588215Y341268D01*
X589622Y339862D01*
X591459Y339100D01*
X593448D01*
X595286Y339862D01*
X596693Y341268D01*
X597454Y343106D01*
Y345095D01*
X596693Y346933D01*
X595286Y348339D01*
X593448Y349100D01*
D02*
G37*
G36*
X593405Y332975D02*
X591415D01*
X589578Y332214D01*
X588171Y330807D01*
X587410Y328970D01*
Y326981D01*
X588171Y325143D01*
X589578Y323736D01*
X591415Y322975D01*
X593405D01*
X595242Y323736D01*
X596649Y325143D01*
X597410Y326981D01*
Y328970D01*
X596649Y330807D01*
X595242Y332214D01*
X593405Y332975D01*
D02*
G37*
G36*
X557215Y328864D02*
X555822D01*
X554536Y328331D01*
X553551Y327347D01*
X553018Y326060D01*
Y324668D01*
X553551Y323382D01*
X554536Y322397D01*
X555822Y321864D01*
X557215D01*
X558501Y322397D01*
X559486Y323382D01*
X560018Y324668D01*
Y326060D01*
X559486Y327347D01*
X558501Y328331D01*
X557215Y328864D01*
D02*
G37*
G36*
X560478Y321086D02*
X559086D01*
X557799Y320554D01*
X556815Y319569D01*
X556420Y318616D01*
X556411Y318635D01*
X555427Y319620D01*
X554141Y320153D01*
X552748D01*
X551462Y319620D01*
X550477Y318635D01*
X549944Y317349D01*
Y315957D01*
X550477Y314670D01*
X551462Y313686D01*
X552748Y313153D01*
X554141D01*
X555427Y313686D01*
X556411Y314670D01*
X556806Y315624D01*
X556815Y315604D01*
X557799Y314619D01*
X559086Y314086D01*
X560478D01*
X561764Y314619D01*
X562749Y315604D01*
X563282Y316890D01*
Y318283D01*
X562749Y319569D01*
X561764Y320554D01*
X560478Y321086D01*
D02*
G37*
G36*
X593584Y315865D02*
X591595D01*
X589757Y315104D01*
X588350Y313697D01*
X587589Y311860D01*
Y309871D01*
X588350Y308033D01*
X589757Y306626D01*
X591595Y305865D01*
X593584D01*
X595421Y306626D01*
X596828Y308033D01*
X597589Y309871D01*
Y311860D01*
X596828Y313697D01*
X595421Y315104D01*
X593584Y315865D01*
D02*
G37*
G36*
X570835Y315817D02*
X569442D01*
X568156Y315284D01*
X567171Y314299D01*
X566639Y313013D01*
Y311621D01*
X567171Y310334D01*
X568156Y309350D01*
X569442Y308817D01*
X570835D01*
X571712Y309180D01*
X571506Y308684D01*
Y307291D01*
X572039Y306005D01*
X573024Y305020D01*
X574310Y304487D01*
X575703D01*
X576989Y305020D01*
X577973Y306005D01*
X578506Y307291D01*
Y308684D01*
X577973Y309970D01*
X576989Y310955D01*
X575703Y311488D01*
X574310D01*
X573433Y311124D01*
X573639Y311621D01*
Y313013D01*
X573106Y314299D01*
X572121Y315284D01*
X570835Y315817D01*
D02*
G37*
G36*
X564095Y310896D02*
X562703D01*
X561416Y310363D01*
X560432Y309379D01*
X559899Y308092D01*
Y306700D01*
X560432Y305413D01*
X561416Y304429D01*
X562703Y303896D01*
X562790D01*
X562500Y303196D01*
Y301804D01*
X563033Y300517D01*
X564017Y299533D01*
X565304Y299000D01*
X566696D01*
X567983Y299533D01*
X568967Y300517D01*
X569500Y301804D01*
Y303196D01*
X568967Y304483D01*
X567983Y305467D01*
X566696Y306000D01*
X566609D01*
X566899Y306700D01*
Y308092D01*
X566366Y309379D01*
X565382Y310363D01*
X564095Y310896D01*
D02*
G37*
G36*
X556696Y306000D02*
X555304D01*
X554017Y305467D01*
X553033Y304483D01*
X552500Y303196D01*
Y301804D01*
X553033Y300517D01*
X554017Y299533D01*
X555304Y299000D01*
X556696D01*
X557983Y299533D01*
X558967Y300517D01*
X559500Y301804D01*
Y303196D01*
X558967Y304483D01*
X557983Y305467D01*
X556696Y306000D01*
D02*
G37*
G36*
X561696Y301000D02*
X560304D01*
X559017Y300467D01*
X558033Y299483D01*
X557500Y298196D01*
Y296804D01*
X558033Y295517D01*
X559017Y294533D01*
X560304Y294000D01*
X561696D01*
X562983Y294533D01*
X563967Y295517D01*
X564500Y296804D01*
Y298196D01*
X563967Y299483D01*
X562983Y300467D01*
X561696Y301000D01*
D02*
G37*
G36*
X593540Y299740D02*
X591551D01*
X589713Y298979D01*
X588307Y297572D01*
X587545Y295735D01*
Y293745D01*
X588307Y291908D01*
X589713Y290501D01*
X591551Y289740D01*
X593540D01*
X595378Y290501D01*
X596784Y291908D01*
X597545Y293745D01*
Y295735D01*
X596784Y297572D01*
X595378Y298979D01*
X593540Y299740D01*
D02*
G37*
G36*
X566696Y296000D02*
X565304D01*
X564017Y295467D01*
X563033Y294483D01*
X562500Y293196D01*
Y291804D01*
X563033Y290517D01*
X564017Y289533D01*
X565304Y289000D01*
X566696D01*
X567983Y289533D01*
X568967Y290517D01*
X569500Y291804D01*
Y293196D01*
X568967Y294483D01*
X567983Y295467D01*
X566696Y296000D01*
D02*
G37*
G36*
X556696D02*
X555304D01*
X554017Y295467D01*
X553033Y294483D01*
X552500Y293196D01*
Y291804D01*
X553033Y290517D01*
X554017Y289533D01*
X555304Y289000D01*
X556696D01*
X557983Y289533D01*
X558967Y290517D01*
X559500Y291804D01*
Y293196D01*
X558967Y294483D01*
X557983Y295467D01*
X556696Y296000D01*
D02*
G37*
G36*
X570317Y286580D02*
X568925D01*
X567638Y286047D01*
X566654Y285062D01*
X566121Y283776D01*
Y282383D01*
X566654Y281097D01*
X567638Y280112D01*
X568925Y279580D01*
X570317D01*
X571603Y280112D01*
X572588Y281097D01*
X573121Y282383D01*
Y283776D01*
X572588Y285062D01*
X571603Y286047D01*
X570317Y286580D01*
D02*
G37*
G36*
X564129Y282021D02*
X562737D01*
X561451Y281488D01*
X560466Y280504D01*
X559933Y279217D01*
Y277825D01*
X560466Y276538D01*
X561451Y275554D01*
X562737Y275021D01*
X564129D01*
X565416Y275554D01*
X566400Y276538D01*
X566933Y277825D01*
Y279217D01*
X566400Y280504D01*
X565416Y281488D01*
X564129Y282021D01*
D02*
G37*
G36*
X593464Y284689D02*
X591474D01*
X589637Y283928D01*
X588230Y282521D01*
X587469Y280683D01*
Y278694D01*
X588230Y276857D01*
X589637Y275450D01*
X591474Y274689D01*
X593464D01*
X595301Y275450D01*
X596708Y276857D01*
X597469Y278694D01*
Y280683D01*
X596708Y282521D01*
X595301Y283928D01*
X593464Y284689D01*
D02*
G37*
G36*
X562872Y268623D02*
X561480D01*
X560193Y268090D01*
X559209Y267106D01*
X558676Y265819D01*
Y264427D01*
X559209Y263141D01*
X560193Y262156D01*
X561480Y261623D01*
X562872D01*
X564159Y262156D01*
X565143Y263141D01*
X565676Y264427D01*
Y265819D01*
X565143Y267106D01*
X564159Y268090D01*
X562872Y268623D01*
D02*
G37*
G36*
X593420Y268564D02*
X591430D01*
X589593Y267803D01*
X588186Y266396D01*
X587425Y264558D01*
Y262569D01*
X588186Y260732D01*
X589593Y259325D01*
X591430Y258564D01*
X593420D01*
X595257Y259325D01*
X596664Y260732D01*
X597425Y262569D01*
Y264558D01*
X596664Y266396D01*
X595257Y267803D01*
X593420Y268564D01*
D02*
G37*
G36*
X577098Y264822D02*
X575705D01*
X574419Y264289D01*
X573434Y263305D01*
X572902Y262019D01*
Y260626D01*
X573434Y259340D01*
X574419Y258355D01*
X575705Y257822D01*
X577098D01*
X578384Y258355D01*
X579369Y259340D01*
X579902Y260626D01*
Y262019D01*
X579369Y263305D01*
X578384Y264289D01*
X577098Y264822D01*
D02*
G37*
G36*
X570696Y258500D02*
X569304D01*
X568017Y257967D01*
X567033Y256982D01*
X566500Y255696D01*
Y254304D01*
X567033Y253017D01*
X568017Y252033D01*
X569304Y251500D01*
X570696D01*
X571982Y252033D01*
X572967Y253017D01*
X573500Y254304D01*
Y255696D01*
X572967Y256982D01*
X571982Y257967D01*
X570696Y258500D01*
D02*
G37*
G36*
X585087Y253690D02*
X581099D01*
X578757Y253224D01*
X576773Y251898D01*
X575446Y249913D01*
X574981Y247572D01*
X575446Y245230D01*
X576773Y243246D01*
X578757Y241919D01*
X581099Y241454D01*
X585087D01*
X587428Y241919D01*
X589413Y243246D01*
X590739Y245230D01*
X591205Y247572D01*
X590739Y249913D01*
X589413Y251898D01*
X587428Y253224D01*
X585087Y253690D01*
D02*
G37*
G36*
X593196Y243500D02*
X591804D01*
X590517Y242967D01*
X589533Y241982D01*
X589000Y240696D01*
Y239304D01*
X589533Y238017D01*
X590517Y237033D01*
X591804Y236500D01*
X593196D01*
X594482Y237033D01*
X595467Y238017D01*
X596000Y239304D01*
Y240696D01*
X595467Y241982D01*
X594482Y242967D01*
X593196Y243500D01*
D02*
G37*
G36*
X585696Y228500D02*
X584304D01*
X583017Y227967D01*
X582033Y226982D01*
X581500Y225696D01*
Y224304D01*
X582033Y223017D01*
X583017Y222033D01*
X584304Y221500D01*
X585696D01*
X586982Y222033D01*
X587967Y223017D01*
X588500Y224304D01*
Y225696D01*
X587967Y226982D01*
X586982Y227967D01*
X585696Y228500D01*
D02*
G37*
G36*
X593196Y213500D02*
X591804D01*
X590517Y212967D01*
X589533Y211982D01*
X589000Y210696D01*
Y209304D01*
X589533Y208017D01*
X590517Y207033D01*
X591804Y206500D01*
X593196D01*
X594482Y207033D01*
X595467Y208017D01*
X596000Y209304D01*
Y210696D01*
X595467Y211982D01*
X594482Y212967D01*
X593196Y213500D01*
D02*
G37*
G36*
X578196D02*
X576804D01*
X575517Y212967D01*
X574533Y211982D01*
X574000Y210696D01*
Y209304D01*
X574533Y208017D01*
X575517Y207033D01*
X576804Y206500D01*
X578196D01*
X579482Y207033D01*
X580467Y208017D01*
X581000Y209304D01*
Y210696D01*
X580467Y211982D01*
X579482Y212967D01*
X578196Y213500D01*
D02*
G37*
G36*
X585696Y198500D02*
X584304D01*
X583017Y197967D01*
X582033Y196982D01*
X581500Y195696D01*
Y194304D01*
X582033Y193017D01*
X583017Y192033D01*
X584304Y191500D01*
X585696D01*
X586982Y192033D01*
X587967Y193017D01*
X588500Y194304D01*
Y195696D01*
X587967Y196982D01*
X586982Y197967D01*
X585696Y198500D01*
D02*
G37*
G36*
X556257Y193777D02*
X554865D01*
X553578Y193244D01*
X552594Y192260D01*
X552061Y190973D01*
Y189581D01*
X552594Y188295D01*
X553578Y187310D01*
X554865Y186777D01*
X556257D01*
X557544Y187310D01*
X558528Y188295D01*
X559061Y189581D01*
Y190973D01*
X558528Y192260D01*
X557544Y193244D01*
X556257Y193777D01*
D02*
G37*
G36*
X593196Y183500D02*
X591804D01*
X590517Y182967D01*
X589533Y181982D01*
X589000Y180696D01*
Y179304D01*
X589533Y178017D01*
X590517Y177033D01*
X591804Y176500D01*
X593196D01*
X594482Y177033D01*
X595467Y178017D01*
X596000Y179304D01*
Y180696D01*
X595467Y181982D01*
X594482Y182967D01*
X593196Y183500D01*
D02*
G37*
G36*
X578196D02*
X576804D01*
X575517Y182967D01*
X574533Y181982D01*
X574000Y180696D01*
Y179304D01*
X574533Y178017D01*
X575517Y177033D01*
X576804Y176500D01*
X578196D01*
X579482Y177033D01*
X580467Y178017D01*
X581000Y179304D01*
Y180696D01*
X580467Y181982D01*
X579482Y182967D01*
X578196Y183500D01*
D02*
G37*
G36*
X547337Y180224D02*
X545348D01*
X543510Y179463D01*
X542104Y178057D01*
X541343Y176219D01*
Y174230D01*
X542104Y172392D01*
X543510Y170986D01*
X545348Y170224D01*
X547337D01*
X549175Y170986D01*
X550581Y172392D01*
X551343Y174230D01*
Y176219D01*
X550581Y178057D01*
X549175Y179463D01*
X547337Y180224D01*
D02*
G37*
G36*
X531265Y175767D02*
X529873D01*
X528587Y175234D01*
X527602Y174249D01*
X527069Y172963D01*
Y171570D01*
X527602Y170284D01*
X528587Y169299D01*
X529873Y168766D01*
X531265D01*
X532552Y169299D01*
X533536Y170284D01*
X534069Y171570D01*
Y172963D01*
X533536Y174249D01*
X532552Y175234D01*
X531265Y175767D01*
D02*
G37*
G36*
X525696Y168500D02*
X524304D01*
X523017Y167967D01*
X522033Y166982D01*
X521500Y165696D01*
Y164304D01*
X522033Y163017D01*
X523017Y162033D01*
X524304Y161500D01*
X525696D01*
X526982Y162033D01*
X527967Y163017D01*
X528500Y164304D01*
Y165696D01*
X527967Y166982D01*
X526982Y167967D01*
X525696Y168500D01*
D02*
G37*
G36*
X460989Y162007D02*
X459994D01*
X459075Y161627D01*
X458372Y160923D01*
X457991Y160005D01*
Y159010D01*
X458372Y158091D01*
X459075Y157388D01*
X459994Y157007D01*
X460989D01*
X461908Y157388D01*
X462611Y158091D01*
X462991Y159010D01*
Y160005D01*
X462611Y160923D01*
X461908Y161627D01*
X460989Y162007D01*
D02*
G37*
G36*
X585087Y167177D02*
X581099D01*
X578757Y166712D01*
X576773Y165385D01*
X575446Y163400D01*
X574981Y161059D01*
X575446Y158718D01*
X576773Y156733D01*
X578757Y155407D01*
X581099Y154941D01*
X585087D01*
X587428Y155407D01*
X589413Y156733D01*
X590739Y158718D01*
X591205Y161059D01*
X590739Y163400D01*
X589413Y165385D01*
X587428Y166712D01*
X585087Y167177D01*
D02*
G37*
G36*
X544789D02*
X537779D01*
X535438Y166712D01*
X533453Y165385D01*
X532127Y163400D01*
X531661Y161059D01*
X532127Y158718D01*
X533453Y156733D01*
X535438Y155407D01*
X537779Y154941D01*
X544789D01*
X547131Y155407D01*
X549115Y156733D01*
X550442Y158718D01*
X550908Y161059D01*
X550442Y163400D01*
X549115Y165385D01*
X547131Y166712D01*
X544789Y167177D01*
D02*
G37*
G36*
X460989Y155505D02*
X459994D01*
X459075Y155124D01*
X458372Y154421D01*
X457991Y153502D01*
Y152507D01*
X458372Y151589D01*
X459075Y150885D01*
X459994Y150505D01*
X460989D01*
X461908Y150885D01*
X462611Y151589D01*
X462991Y152507D01*
Y153502D01*
X462611Y154421D01*
X461908Y155124D01*
X460989Y155505D01*
D02*
G37*
G36*
X421974D02*
X420980D01*
X420061Y155124D01*
X419358Y154421D01*
X418977Y153502D01*
Y152507D01*
X419358Y151589D01*
X420061Y150885D01*
X420980Y150505D01*
X421974D01*
X422893Y150885D01*
X423596Y151589D01*
X423977Y152507D01*
Y153502D01*
X423596Y154421D01*
X422893Y155124D01*
X421974Y155505D01*
D02*
G37*
G36*
X415497D02*
X414503D01*
X413584Y155124D01*
X412881Y154421D01*
X412500Y153502D01*
Y152507D01*
X412881Y151589D01*
X413584Y150885D01*
X414503Y150505D01*
X415497D01*
X416416Y150885D01*
X417119Y151589D01*
X417500Y152507D01*
Y153502D01*
X417119Y154421D01*
X416416Y155124D01*
X415497Y155505D01*
D02*
G37*
G36*
X467491Y149002D02*
X466497D01*
X465578Y148622D01*
X464874Y147919D01*
X464494Y147000D01*
Y146005D01*
X464874Y145086D01*
X465578Y144383D01*
X466497Y144002D01*
X467491D01*
X468410Y144383D01*
X469113Y145086D01*
X469494Y146005D01*
Y147000D01*
X469113Y147919D01*
X468410Y148622D01*
X467491Y149002D01*
D02*
G37*
G36*
X460989D02*
X459994D01*
X459075Y148622D01*
X458372Y147919D01*
X457991Y147000D01*
Y146005D01*
X458372Y145086D01*
X459075Y144383D01*
X459994Y144002D01*
X460989D01*
X461908Y144383D01*
X462611Y145086D01*
X462991Y146005D01*
Y147000D01*
X462611Y147919D01*
X461908Y148622D01*
X460989Y149002D01*
D02*
G37*
G36*
X454486D02*
X453492D01*
X452573Y148622D01*
X451870Y147919D01*
X451489Y147000D01*
Y146005D01*
X451870Y145086D01*
X452573Y144383D01*
X453492Y144002D01*
X454486D01*
X455405Y144383D01*
X456108Y145086D01*
X456489Y146005D01*
Y147000D01*
X456108Y147919D01*
X455405Y148622D01*
X454486Y149002D01*
D02*
G37*
G36*
X447984D02*
X446989D01*
X446071Y148622D01*
X445367Y147919D01*
X444987Y147000D01*
Y146005D01*
X445367Y145086D01*
X446071Y144383D01*
X446989Y144002D01*
X447984D01*
X448903Y144383D01*
X449606Y145086D01*
X449987Y146005D01*
Y147000D01*
X449606Y147919D01*
X448903Y148622D01*
X447984Y149002D01*
D02*
G37*
G36*
X441482D02*
X440487D01*
X439568Y148622D01*
X438865Y147919D01*
X438484Y147000D01*
Y146005D01*
X438865Y145086D01*
X439568Y144383D01*
X440487Y144002D01*
X441482D01*
X442400Y144383D01*
X443104Y145086D01*
X443484Y146005D01*
Y147000D01*
X443104Y147919D01*
X442400Y148622D01*
X441482Y149002D01*
D02*
G37*
G36*
X434979D02*
X433984D01*
X433066Y148622D01*
X432362Y147919D01*
X431982Y147000D01*
Y146005D01*
X432362Y145086D01*
X433066Y144383D01*
X433984Y144002D01*
X434979D01*
X435898Y144383D01*
X436601Y145086D01*
X436982Y146005D01*
Y147000D01*
X436601Y147919D01*
X435898Y148622D01*
X434979Y149002D01*
D02*
G37*
G36*
X428477D02*
X427482D01*
X426563Y148622D01*
X425860Y147919D01*
X425479Y147000D01*
Y146005D01*
X425860Y145086D01*
X426563Y144383D01*
X427482Y144002D01*
X428477D01*
X429395Y144383D01*
X430099Y145086D01*
X430479Y146005D01*
Y147000D01*
X430099Y147919D01*
X429395Y148622D01*
X428477Y149002D01*
D02*
G37*
G36*
X467491Y142500D02*
X466497D01*
X465578Y142119D01*
X464874Y141416D01*
X464494Y140497D01*
Y139503D01*
X464874Y138584D01*
X465578Y137881D01*
X466497Y137500D01*
X467491D01*
X468410Y137881D01*
X469113Y138584D01*
X469494Y139503D01*
Y140497D01*
X469113Y141416D01*
X468410Y142119D01*
X467491Y142500D01*
D02*
G37*
G36*
X460989D02*
X459994D01*
X459075Y142119D01*
X458372Y141416D01*
X457991Y140497D01*
Y139503D01*
X458372Y138584D01*
X459075Y137881D01*
X459994Y137500D01*
X460989D01*
X461908Y137881D01*
X462611Y138584D01*
X462991Y139503D01*
Y140497D01*
X462611Y141416D01*
X461908Y142119D01*
X460989Y142500D01*
D02*
G37*
G36*
X421974D02*
X420980D01*
X420061Y142119D01*
X419358Y141416D01*
X418977Y140497D01*
Y139503D01*
X419358Y138584D01*
X420061Y137881D01*
X420980Y137500D01*
X421974D01*
X422893Y137881D01*
X423596Y138584D01*
X423977Y139503D01*
Y140497D01*
X423596Y141416D01*
X422893Y142119D01*
X421974Y142500D01*
D02*
G37*
G36*
X415497D02*
X414503D01*
X413584Y142119D01*
X412881Y141416D01*
X412500Y140497D01*
Y139503D01*
X412881Y138584D01*
X413584Y137881D01*
X414503Y137500D01*
X415497D01*
X416416Y137881D01*
X417119Y138584D01*
X417500Y139503D01*
Y140497D01*
X417119Y141416D01*
X416416Y142119D01*
X415497Y142500D01*
D02*
G37*
G36*
X447984Y135998D02*
X446989D01*
X446071Y135617D01*
X445367Y134914D01*
X444987Y133995D01*
Y133000D01*
X445367Y132081D01*
X446071Y131378D01*
X446989Y130998D01*
X447984D01*
X448903Y131378D01*
X449606Y132081D01*
X449987Y133000D01*
Y133995D01*
X449606Y134914D01*
X448903Y135617D01*
X447984Y135998D01*
D02*
G37*
G36*
X441482D02*
X440487D01*
X439568Y135617D01*
X438865Y134914D01*
X438484Y133995D01*
Y133000D01*
X438865Y132081D01*
X439568Y131378D01*
X440487Y130998D01*
X441482D01*
X442400Y131378D01*
X443104Y132081D01*
X443484Y133000D01*
Y133995D01*
X443104Y134914D01*
X442400Y135617D01*
X441482Y135998D01*
D02*
G37*
G36*
X434979D02*
X433984D01*
X433066Y135617D01*
X432362Y134914D01*
X431982Y133995D01*
Y133000D01*
X432362Y132081D01*
X433066Y131378D01*
X433984Y130998D01*
X434979D01*
X435898Y131378D01*
X436601Y132081D01*
X436982Y133000D01*
Y133995D01*
X436601Y134914D01*
X435898Y135617D01*
X434979Y135998D01*
D02*
G37*
G36*
X428477D02*
X427482D01*
X426563Y135617D01*
X425860Y134914D01*
X425479Y133995D01*
Y133000D01*
X425860Y132081D01*
X426563Y131378D01*
X427482Y130998D01*
X428477D01*
X429395Y131378D01*
X430099Y132081D01*
X430479Y133000D01*
Y133995D01*
X430099Y134914D01*
X429395Y135617D01*
X428477Y135998D01*
D02*
G37*
G36*
X480496Y174987D02*
X479501D01*
X478582Y174606D01*
X477879Y173903D01*
X477499Y172984D01*
Y171989D01*
X477879Y171070D01*
X478582Y170367D01*
X479501Y169987D01*
X480496D01*
X481415Y170367D01*
X482118Y171070D01*
X482499Y171989D01*
Y172984D01*
X482118Y173903D01*
X481415Y174606D01*
X480496Y174987D01*
D02*
G37*
G36*
X454427Y174973D02*
X453432D01*
X452513Y174592D01*
X451810Y173889D01*
X451429Y172970D01*
Y171975D01*
X451810Y171056D01*
X452513Y170353D01*
X453432Y169973D01*
X454427D01*
X455345Y170353D01*
X456049Y171056D01*
X456429Y171975D01*
Y172970D01*
X456049Y173889D01*
X455345Y174592D01*
X454427Y174973D01*
D02*
G37*
G36*
X448021D02*
X447026D01*
X446107Y174592D01*
X445404Y173889D01*
X445023Y172970D01*
Y171975D01*
X445404Y171056D01*
X446107Y170353D01*
X447026Y169973D01*
X448021D01*
X448940Y170353D01*
X449643Y171056D01*
X450023Y171975D01*
Y172970D01*
X449643Y173889D01*
X448940Y174592D01*
X448021Y174973D01*
D02*
G37*
G36*
X441464Y174933D02*
X440469D01*
X439550Y174552D01*
X438847Y173849D01*
X438466Y172930D01*
Y171936D01*
X438847Y171017D01*
X439550Y170314D01*
X440469Y169933D01*
X441464D01*
X442383Y170314D01*
X443086Y171017D01*
X443466Y171936D01*
Y172930D01*
X443086Y173849D01*
X442383Y174552D01*
X441464Y174933D01*
D02*
G37*
G36*
X454486Y168510D02*
X453492D01*
X452573Y168129D01*
X451870Y167426D01*
X451489Y166507D01*
Y165512D01*
X451870Y164594D01*
X452573Y163890D01*
X453492Y163510D01*
X454486D01*
X455405Y163890D01*
X456108Y164594D01*
X456489Y165512D01*
Y166507D01*
X456108Y167426D01*
X455405Y168129D01*
X454486Y168510D01*
D02*
G37*
G36*
X447984D02*
X446989D01*
X446071Y168129D01*
X445367Y167426D01*
X444987Y166507D01*
Y165512D01*
X445367Y164594D01*
X446071Y163890D01*
X446989Y163510D01*
X447984D01*
X448903Y163890D01*
X449606Y164594D01*
X449987Y165512D01*
Y166507D01*
X449606Y167426D01*
X448903Y168129D01*
X447984Y168510D01*
D02*
G37*
G36*
X441482D02*
X440487D01*
X439568Y168129D01*
X438865Y167426D01*
X438484Y166507D01*
Y165512D01*
X438865Y164594D01*
X439568Y163890D01*
X440487Y163510D01*
X441482D01*
X442400Y163890D01*
X443104Y164594D01*
X443484Y165512D01*
Y166507D01*
X443104Y167426D01*
X442400Y168129D01*
X441482Y168510D01*
D02*
G37*
G36*
X460989Y129495D02*
X459994D01*
X459075Y129115D01*
X458372Y128411D01*
X457991Y127493D01*
Y126498D01*
X458372Y125579D01*
X459075Y124876D01*
X459994Y124495D01*
X460989D01*
X461908Y124876D01*
X462611Y125579D01*
X462991Y126498D01*
Y127493D01*
X462611Y128411D01*
X461908Y129115D01*
X460989Y129495D01*
D02*
G37*
G36*
X467534Y129484D02*
X466540D01*
X465621Y129104D01*
X464918Y128400D01*
X464537Y127481D01*
Y126487D01*
X464918Y125568D01*
X465621Y124865D01*
X466540Y124484D01*
X467534D01*
X468453Y124865D01*
X469156Y125568D01*
X469537Y126487D01*
Y127481D01*
X469156Y128400D01*
X468453Y129104D01*
X467534Y129484D01*
D02*
G37*
G36*
X492385Y129500D02*
X490992D01*
X489706Y128967D01*
X488721Y127983D01*
X488188Y126696D01*
Y125304D01*
X488721Y124017D01*
X489706Y123033D01*
X490992Y122500D01*
X492385D01*
X493671Y123033D01*
X494655Y124017D01*
X495188Y125304D01*
Y126696D01*
X494655Y127983D01*
X493671Y128967D01*
X492385Y129500D01*
D02*
G37*
G36*
X447984Y122993D02*
X446989D01*
X446071Y122612D01*
X445367Y121909D01*
X444987Y120990D01*
Y119995D01*
X445367Y119077D01*
X446071Y118373D01*
X446989Y117993D01*
X447984D01*
X448903Y118373D01*
X449606Y119077D01*
X449987Y119995D01*
Y120990D01*
X449606Y121909D01*
X448903Y122612D01*
X447984Y122993D01*
D02*
G37*
G36*
X460989Y116490D02*
X459994D01*
X459075Y116110D01*
X458372Y115407D01*
X457991Y114488D01*
Y113493D01*
X458372Y112574D01*
X459075Y111871D01*
X459994Y111490D01*
X460989D01*
X461908Y111871D01*
X462611Y112574D01*
X462991Y113493D01*
Y114488D01*
X462611Y115407D01*
X461908Y116110D01*
X460989Y116490D01*
D02*
G37*
G36*
X545775Y117204D02*
X544383D01*
X543096Y116671D01*
X542112Y115686D01*
X541579Y114400D01*
Y113007D01*
X542112Y111721D01*
X543096Y110737D01*
X544383Y110204D01*
X545775D01*
X547061Y110737D01*
X548046Y111721D01*
X548579Y113007D01*
Y114400D01*
X548046Y115686D01*
X547061Y116671D01*
X545775Y117204D01*
D02*
G37*
G36*
X460933Y110003D02*
X459938D01*
X459020Y109622D01*
X458316Y108919D01*
X457936Y108000D01*
Y107006D01*
X458316Y106087D01*
X459020Y105384D01*
X459938Y105003D01*
X460933D01*
X461852Y105384D01*
X462555Y106087D01*
X462936Y107006D01*
Y108000D01*
X462555Y108919D01*
X461852Y109622D01*
X460933Y110003D01*
D02*
G37*
G36*
X467497Y109965D02*
X466502D01*
X465583Y109584D01*
X464880Y108881D01*
X464499Y107962D01*
Y106968D01*
X464880Y106049D01*
X465583Y105346D01*
X466502Y104965D01*
X467497D01*
X468415Y105346D01*
X469119Y106049D01*
X469499Y106968D01*
Y107962D01*
X469119Y108881D01*
X468415Y109584D01*
X467497Y109965D01*
D02*
G37*
G36*
X555696Y108500D02*
X554304D01*
X553017Y107967D01*
X552033Y106982D01*
X551500Y105696D01*
Y104304D01*
X552033Y103017D01*
X553017Y102033D01*
X554304Y101500D01*
X555696D01*
X556982Y102033D01*
X557967Y103017D01*
X558500Y104304D01*
Y105696D01*
X557967Y106982D01*
X556982Y107967D01*
X555696Y108500D01*
D02*
G37*
G36*
X473984Y103554D02*
X472989D01*
X472071Y103173D01*
X471367Y102470D01*
X470987Y101551D01*
Y100557D01*
X471367Y99638D01*
X472071Y98934D01*
X472989Y98554D01*
X473984D01*
X474903Y98934D01*
X475606Y99638D01*
X475987Y100557D01*
Y101551D01*
X475606Y102470D01*
X474903Y103173D01*
X473984Y103554D01*
D02*
G37*
G36*
X480496Y103486D02*
X479501D01*
X478582Y103105D01*
X477879Y102402D01*
X477499Y101483D01*
Y100488D01*
X477879Y99570D01*
X478582Y98866D01*
X479501Y98486D01*
X480496D01*
X481415Y98866D01*
X482118Y99570D01*
X482499Y100488D01*
Y101483D01*
X482118Y102402D01*
X481415Y103105D01*
X480496Y103486D01*
D02*
G37*
G36*
X467491D02*
X466497D01*
X465578Y103105D01*
X464874Y102402D01*
X464494Y101483D01*
Y100488D01*
X464874Y99570D01*
X465578Y98866D01*
X466497Y98486D01*
X467491D01*
X468410Y98866D01*
X469113Y99570D01*
X469494Y100488D01*
Y101483D01*
X469113Y102402D01*
X468410Y103105D01*
X467491Y103486D01*
D02*
G37*
G36*
X473993Y97009D02*
X472999D01*
X472080Y96628D01*
X471377Y95925D01*
X470996Y95006D01*
Y94011D01*
X471377Y93092D01*
X472080Y92389D01*
X472999Y92009D01*
X473993D01*
X474912Y92389D01*
X475616Y93092D01*
X475996Y94011D01*
Y95006D01*
X475616Y95925D01*
X474912Y96628D01*
X473993Y97009D01*
D02*
G37*
G36*
X548196Y93500D02*
X546804D01*
X545517Y92967D01*
X544533Y91982D01*
X544000Y90696D01*
Y89304D01*
X544533Y88017D01*
X545517Y87033D01*
X546804Y86500D01*
X548196D01*
X549482Y87033D01*
X550467Y88017D01*
X551000Y89304D01*
Y90696D01*
X550467Y91982D01*
X549482Y92967D01*
X548196Y93500D01*
D02*
G37*
G36*
X533196D02*
X531804D01*
X530517Y92967D01*
X529533Y91982D01*
X529000Y90696D01*
Y89304D01*
X529533Y88017D01*
X530517Y87033D01*
X531804Y86500D01*
X533196D01*
X534482Y87033D01*
X535467Y88017D01*
X536000Y89304D01*
Y90696D01*
X535467Y91982D01*
X534482Y92967D01*
X533196Y93500D01*
D02*
G37*
G36*
X518196D02*
X516804D01*
X515517Y92967D01*
X514533Y91982D01*
X514000Y90696D01*
Y89304D01*
X514533Y88017D01*
X515517Y87033D01*
X516804Y86500D01*
X518196D01*
X519482Y87033D01*
X520467Y88017D01*
X521000Y89304D01*
Y90696D01*
X520467Y91982D01*
X519482Y92967D01*
X518196Y93500D01*
D02*
G37*
%LPD*%
D15*
X392208Y182321D02*
X395486Y185599D01*
X368626Y183374D02*
X369679Y182321D01*
X368626Y183374D02*
Y196091D01*
X369679Y182321D02*
X392208D01*
X292750Y104131D02*
X333500Y63381D01*
X337893Y54857D02*
X368588D01*
X279750Y113000D02*
X337893Y54857D01*
X333500Y63381D02*
X359812D01*
X292750Y104131D02*
Y113000D01*
X373713Y169100D02*
X380378Y175765D01*
X373713Y163121D02*
Y169100D01*
X380378Y175765D02*
X398681D01*
X386426Y118002D02*
X388959Y120536D01*
X372805Y110600D02*
Y115730D01*
X375078Y118002D02*
X386426D01*
X372805Y115730D02*
X375078Y118002D01*
X372845Y62683D02*
X380505Y70343D01*
X360510Y62683D02*
X372845D01*
X359812Y63381D02*
X360510Y62683D01*
X368588Y54857D02*
X381231Y67500D01*
X372805Y138222D02*
X375436Y135591D01*
X384611D02*
X388997Y139978D01*
X382035Y139655D02*
X382418Y140038D01*
X375436Y135591D02*
X384611D01*
X373449Y143326D02*
X377119Y139655D01*
X382035D01*
X337956Y143458D02*
X345685D01*
X346750Y136645D02*
X359284D01*
X371765Y139262D02*
X372805Y138222D01*
X357601Y140709D02*
X360217Y143326D01*
X372805D01*
X359284Y136645D02*
X361901Y139262D01*
X371765D01*
X348433Y140709D02*
X357601D01*
X372805Y143326D02*
X373449D01*
X344001Y139394D02*
X346750Y136645D01*
X345685Y143458D02*
X348433Y140709D01*
X414210Y85000D02*
X421043Y91834D01*
X412696Y89966D02*
X415464Y92735D01*
X421043Y93939D02*
X421613Y94509D01*
X396710Y67500D02*
X414210Y85000D01*
X391923Y70343D02*
X411546Y89966D01*
X415464Y92735D02*
X416270D01*
X381231Y67500D02*
X396710D01*
X421043Y91834D02*
Y93939D01*
X411546Y89966D02*
X412696D01*
X380505Y70343D02*
X391923D01*
X371079Y66945D02*
X379289Y75154D01*
X380395Y85000D02*
X382927D01*
X362393Y66998D02*
X380395Y85000D01*
X370917Y66945D02*
X371079D01*
X379289Y75154D02*
X383722D01*
X382927Y85000D02*
X388347Y90420D01*
X391501Y82933D02*
Y96962D01*
X388347Y90420D02*
Y100296D01*
X383722Y75154D02*
X391501Y82933D01*
X388347Y100296D02*
X395485Y107434D01*
X391501Y96962D02*
X401972Y107434D01*
X365735Y79705D02*
Y90692D01*
Y79705D02*
X366116Y79325D01*
X372805Y110600D02*
X373595Y109810D01*
X368262Y99838D02*
X373595Y105172D01*
Y109810D01*
X364731Y96308D02*
X368262Y99838D01*
X334631Y140367D02*
X334865D01*
X337956Y143458D01*
X337661Y135480D02*
X341575Y139394D01*
X344001D01*
X364731Y91696D02*
Y96308D01*
Y91696D02*
X365735Y90692D01*
X398681Y175765D02*
X401959Y179043D01*
D25*
X322726Y63353D02*
D03*
X369223Y124557D02*
D03*
X358046Y59119D02*
D03*
X344273Y132451D02*
D03*
X305065Y102711D02*
D03*
X279714Y102747D02*
D03*
X321774Y33288D02*
D03*
X362393Y66998D02*
D03*
X370917Y66945D02*
D03*
D95*
X368626Y196091D02*
D03*
X373713Y163121D02*
D03*
X353181Y75811D02*
D03*
X363447Y111464D02*
D03*
X416270Y92735D02*
D03*
X421613Y94509D02*
D03*
X366116Y79325D02*
D03*
X517043Y458394D02*
D03*
X334631Y140367D02*
D03*
X337661Y135480D02*
D03*
X583202Y135358D02*
D03*
X423124Y431649D02*
D03*
X466675Y78155D02*
D03*
X305291Y35088D02*
D03*
X502552Y130051D02*
D03*
X395485Y107434D02*
D03*
X401972D02*
D03*
X395486Y185599D02*
D03*
X562539Y140240D02*
D03*
X555018Y138134D02*
D03*
X510503Y59647D02*
D03*
X563278Y125917D02*
D03*
X556722Y119333D02*
D03*
X461583Y452360D02*
D03*
X345312Y119745D02*
D03*
X395493Y146502D02*
D03*
X415000Y113990D02*
D03*
X427979D02*
D03*
X440984D02*
D03*
X395493Y133498D02*
D03*
X435421Y259843D02*
D03*
X247001Y444516D02*
D03*
X248031Y431344D02*
D03*
X382418Y140038D02*
D03*
X502079Y169643D02*
D03*
Y163478D02*
D03*
X477780Y234273D02*
D03*
X467514Y223354D02*
D03*
X484985Y234894D02*
D03*
X477904Y241230D02*
D03*
X484861Y240981D02*
D03*
X460932Y216026D02*
D03*
X468250Y210500D02*
D03*
Y217000D02*
D03*
X388997Y139978D02*
D03*
X503621Y123880D02*
D03*
X279750Y113000D02*
D03*
X292750D02*
D03*
X388959Y120536D02*
D03*
X401959Y179043D02*
D03*
X427979Y166010D02*
D03*
X447487Y153005D02*
D03*
X440984D02*
D03*
X453989D02*
D03*
X434482D02*
D03*
X415000Y146502D02*
D03*
X421477D02*
D03*
X408498Y153005D02*
D03*
X427979D02*
D03*
X408498Y146502D02*
D03*
X576596Y396467D02*
D03*
X576193Y402452D02*
D03*
X582572Y402630D02*
D03*
X576480Y456118D02*
D03*
X511888Y452734D02*
D03*
X421477Y133498D02*
D03*
X415000Y126995D02*
D03*
Y133498D02*
D03*
X408498Y126995D02*
D03*
X415000Y120493D02*
D03*
X421477D02*
D03*
Y126995D02*
D03*
X408498Y133498D02*
D03*
X427979Y126995D02*
D03*
X453989Y140000D02*
D03*
Y126995D02*
D03*
X460491Y120493D02*
D03*
X447491Y114022D02*
D03*
X453989Y113990D02*
D03*
X427979Y140000D02*
D03*
X434482D02*
D03*
X447487D02*
D03*
X440984D02*
D03*
X447487Y126995D02*
D03*
X440984D02*
D03*
X434482D02*
D03*
X461483Y460149D02*
D03*
X247516Y457998D02*
D03*
X579281Y462390D02*
D03*
X247825Y471376D02*
D03*
X247734Y485166D02*
D03*
M02*
