G04*
G04 #@! TF.GenerationSoftware,Altium Limited,Altium Designer,26.8.1 (31)*
G04*
G04 Layer_Physical_Order=5*
G04 Layer_Color=16737945*
G04 Board_Origin=4724409|16535433*
%FSLAX44Y44*%
%MOMM*%
G71*
G04*
G04 #@! TF.SameCoordinates,47500F6B-AA3C-44C9-9B31-C918FA8A2740*
G04*
G04*
G04 #@! TF.FilePolarity,Positive*
G04*
G01*
G75*
%ADD15C,0.1524*%
%ADD25C,0.4500*%
%ADD96C,0.4501*%
%ADD101C,0.7620*%
%ADD106C,1.0160*%
D15*
X351302Y217169D02*
X357476Y210994D01*
X335760Y375476D02*
X353813Y357423D01*
X357476Y188955D02*
X357606Y188824D01*
X354183Y233279D02*
Y238207D01*
X351302Y217169D02*
Y230398D01*
X357476Y188955D02*
Y210994D01*
X351302Y230398D02*
X354183Y233279D01*
X359231Y235069D02*
X364323Y240161D01*
X366847Y239115D02*
Y246905D01*
X361755Y233980D02*
X365000Y237225D01*
X364323Y242892D02*
Y245860D01*
X359231Y229853D02*
Y235069D01*
X374810Y233783D02*
Y246058D01*
X365000Y237225D02*
Y237268D01*
X368405Y227378D02*
X374810Y233783D01*
X367572Y253297D02*
X374810Y246058D01*
X364323Y240161D02*
Y242892D01*
X365000Y237268D02*
X366847Y239115D01*
X353275D02*
X354183Y238207D01*
X349148Y235743D02*
X349921D01*
X335000Y249599D02*
Y310000D01*
X360000Y247892D02*
Y261087D01*
X357750Y269736D02*
X364305Y263181D01*
Y259364D02*
Y263181D01*
X362524Y247659D02*
X364323Y245860D01*
X335000Y249599D02*
X347248Y237351D01*
X270000Y326692D02*
X327639Y269053D01*
X360000Y261087D02*
X360043Y261130D01*
X356350Y226972D02*
X359231Y229853D01*
X327639Y217019D02*
Y269053D01*
X357750Y269736D02*
Y357617D01*
X353813Y298538D02*
Y357423D01*
X353826Y218214D02*
Y228018D01*
X347248Y237351D02*
X347540D01*
X353826Y228018D02*
X356707Y230899D01*
X362524Y257583D02*
X364305Y259364D01*
X327639Y217019D02*
X334658Y210000D01*
X356707Y230899D02*
Y239253D01*
X355799Y243691D02*
X360000Y247892D01*
X353275Y239115D02*
Y298000D01*
X355799Y240161D02*
X356707Y239253D01*
X361755Y228808D02*
Y233980D01*
X355799Y240161D02*
Y243691D01*
X338680Y376686D02*
X357750Y357617D01*
X353275Y298000D02*
X353813Y298538D01*
X362524Y247659D02*
Y257583D01*
X347540Y237351D02*
X349148Y235743D01*
X356350Y219259D02*
Y226972D01*
X324153Y58753D02*
X332398Y66998D01*
X321852Y57074D02*
X323531Y58753D01*
X324153D01*
X414586Y100533D02*
Y101339D01*
X406577Y85000D02*
X407223Y85646D01*
X411795Y97742D02*
X414586Y100533D01*
X411795Y96442D02*
Y97742D01*
X404699Y86691D02*
Y89346D01*
X411795Y96442D01*
X407223Y85646D02*
Y88301D01*
X419368Y100446D01*
X403008Y85000D02*
X404699Y86691D01*
X419368Y100446D02*
X420903D01*
X421473Y101016D01*
X415042Y69832D02*
X417718D01*
X403562Y66427D02*
X403730D01*
X411198Y73896D02*
X416035D01*
X417718Y69832D02*
X420992Y73105D01*
X412723Y66998D02*
Y67512D01*
X415042Y69832D01*
X416035Y73896D02*
X416928Y74789D01*
X403730Y66427D02*
X411198Y73896D01*
X420992Y73105D02*
Y80856D01*
X439873Y89425D02*
X443234D01*
X439304Y88855D02*
X439873Y89425D01*
X387541Y85000D02*
X387959Y85418D01*
X392077D01*
X400420Y93761D01*
X294428Y424383D02*
X295000Y423812D01*
Y404008D02*
Y423812D01*
X294428Y424383D02*
Y444993D01*
X334658Y210000D02*
X340000D01*
X250500Y323505D02*
X280397Y293608D01*
X250500Y323505D02*
Y493250D01*
X263829Y323040D02*
Y440586D01*
X260250Y449750D02*
X266750Y443250D01*
Y324250D02*
Y443250D01*
X260303Y444111D02*
X263829Y440586D01*
X259861Y444111D02*
X260303D01*
X260250Y449750D02*
Y470500D01*
X360274Y308344D02*
X361755Y306863D01*
X361398Y221350D02*
X367572Y215176D01*
X358874Y225927D02*
X361755Y228808D01*
X361398Y224881D02*
X363894Y227378D01*
X361755Y277994D02*
X366421Y273328D01*
X361755Y277994D02*
Y306863D01*
X363894Y227378D02*
X368405D01*
X365048Y199669D02*
Y214131D01*
X356350Y219259D02*
X362524Y213085D01*
X353826Y218214D02*
X360000Y212040D01*
X358874Y220305D02*
Y225927D01*
X371245Y217530D02*
X374984D01*
X360000Y190000D02*
Y212040D01*
X365660Y223116D02*
X371245Y217530D01*
X374984D02*
X380000Y212514D01*
X358874Y220305D02*
X365048Y214131D01*
X367572Y210819D02*
Y215176D01*
X361398Y221350D02*
Y224881D01*
X362524Y191045D02*
Y213085D01*
X366421Y271809D02*
X366829Y271401D01*
Y258319D02*
Y271401D01*
X356038Y148402D02*
X356240Y148201D01*
X366421Y271809D02*
Y273328D01*
X354965Y128980D02*
X356240Y130254D01*
X356038Y148402D02*
Y166349D01*
X356240Y130254D02*
Y148201D01*
X357606Y174121D02*
Y188824D01*
X354965Y103193D02*
Y128980D01*
X365048Y248704D02*
X366847Y246905D01*
X365048Y248704D02*
Y256538D01*
X288492Y397500D02*
X295000Y404008D01*
X288492Y356508D02*
Y397500D01*
Y356508D02*
X335000Y310000D01*
X270000Y326692D02*
Y460750D01*
X260579Y317019D02*
Y423292D01*
X334806Y385373D02*
X335760Y384420D01*
X332839Y376576D02*
Y382649D01*
X338680Y376686D02*
Y385069D01*
X331488Y383999D02*
X332839Y382649D01*
X335760Y375476D02*
Y384420D01*
X337330Y386419D02*
X338680Y385069D01*
X329340Y373077D02*
X332839Y376576D01*
X337330Y394214D02*
X353102Y409985D01*
X337330Y386419D02*
Y394214D01*
X334806Y385373D02*
Y395259D01*
X353102Y409985D02*
Y418236D01*
X326419Y331980D02*
X349551Y308847D01*
X326419Y331980D02*
Y374287D01*
X367572Y210819D02*
X371013Y207378D01*
X371075D02*
X374262Y204191D01*
X365048Y256538D02*
X366829Y258319D01*
X371013Y207378D02*
X371075D01*
X356848Y173364D02*
X357606Y174121D01*
X360000Y190000D02*
X364210Y185790D01*
X365048Y199669D02*
X368626Y196091D01*
X364210Y184756D02*
Y185790D01*
X374262Y201654D02*
Y204191D01*
X362524Y191045D02*
X368252Y185317D01*
X364210Y184756D02*
X366707Y182259D01*
X318596Y214008D02*
Y268273D01*
Y214008D02*
X336677Y195927D01*
X324718Y213913D02*
Y266282D01*
X266750Y324250D02*
X324718Y266282D01*
X343583Y197506D02*
X344153Y196936D01*
X341125Y197506D02*
X343583D01*
X324718Y213913D02*
X341125Y197506D01*
X374262Y182877D02*
Y201654D01*
Y182877D02*
X375048Y182091D01*
X380000Y188027D02*
Y212514D01*
Y188027D02*
X388976Y179051D01*
X373386Y167359D02*
Y176248D01*
X375048Y177909D02*
Y182091D01*
X363751Y317131D02*
X369885Y310996D01*
Y294611D02*
Y310996D01*
X368792Y185317D02*
X369977Y184132D01*
X368555Y274764D02*
X368945Y274373D01*
X368555Y293281D02*
X369885Y294611D01*
X368945Y272854D02*
Y274373D01*
Y272854D02*
X369353Y272447D01*
X368252Y185317D02*
X368792D01*
X369353Y257273D02*
Y272447D01*
X368555Y274764D02*
Y293281D01*
X367572Y255492D02*
X369353Y257273D01*
X366229Y157124D02*
X369610Y160506D01*
X367572Y253297D02*
Y255492D01*
X373386Y176248D02*
X375048Y177909D01*
X371027Y130000D02*
X374012Y132985D01*
X370000Y141027D02*
X374012Y137015D01*
Y132985D02*
Y137015D01*
X321047Y57074D02*
X321852D01*
X332398Y66998D02*
X362393D01*
X321713Y51713D02*
X333381Y63381D01*
X321713Y45815D02*
Y51713D01*
X327992Y46027D02*
X333973D01*
X333381Y63381D02*
X359983D01*
X327815Y51775D02*
X341519D01*
X370665Y154046D02*
X377686Y161066D01*
X372805Y166778D02*
X373386Y167359D01*
X371765Y165738D02*
X372805Y166778D01*
X367086Y161551D02*
Y166886D01*
X371717Y165738D02*
X371765D01*
X377686Y161066D02*
Y167793D01*
X369610Y163632D02*
X371717Y165738D01*
X369610Y160506D02*
Y163632D01*
X365408Y168564D02*
Y173860D01*
Y168564D02*
X367086Y166886D01*
X345316Y80442D02*
X348919Y76838D01*
Y74046D02*
X352181Y70784D01*
X348919Y74046D02*
Y76838D01*
X352181Y70784D02*
X356729D01*
X372805Y120624D02*
X381529D01*
X371318D02*
X372805D01*
X367129D02*
X367458Y120295D01*
X370989D01*
X371318Y120624D01*
X381529D02*
X384897Y117255D01*
X363598Y120624D02*
X367129D01*
X384897Y117255D02*
X390295D01*
X392215Y115335D01*
Y112633D02*
Y115335D01*
X363447Y120774D02*
X363598Y120624D01*
X359983Y63381D02*
X360628Y62736D01*
X366709D02*
X370917Y66945D01*
X360628Y62736D02*
X366709D01*
X354965Y103193D02*
X357247Y100910D01*
X360078Y103434D02*
X372947D01*
X359185Y104327D02*
Y124185D01*
Y104327D02*
X360078Y103434D01*
X359185Y124185D02*
X365000Y130000D01*
X357247Y100910D02*
X368262D01*
X365000Y130000D02*
X371027D01*
X368262Y100910D02*
X371901D01*
X349825Y169732D02*
X350062Y169969D01*
X345526Y169732D02*
X349825D01*
X343032Y167238D02*
X345526Y169732D01*
X369977Y177300D02*
Y184132D01*
X369084Y176407D02*
X369977Y177300D01*
X367955Y176407D02*
X369084D01*
X364210Y176232D02*
X366707Y178728D01*
Y182259D01*
X363286Y176232D02*
X364210D01*
X359372Y172318D02*
X363286Y176232D01*
X359372Y166113D02*
Y172318D01*
X358562Y165303D02*
X359372Y166113D01*
X358562Y161045D02*
Y165303D01*
Y161045D02*
X361086Y158521D01*
Y143914D02*
Y158521D01*
Y143914D02*
X370000Y135000D01*
X363705Y158170D02*
X367086Y161551D01*
X365408Y173860D02*
X367955Y176407D01*
X353914Y172145D02*
Y175220D01*
X353514Y164809D02*
Y167394D01*
X354324Y168204D02*
Y171735D01*
X356038Y166349D02*
X356848Y167159D01*
X348705Y160000D02*
X353514Y164809D01*
Y167394D02*
X354324Y168204D01*
X356848Y167159D02*
Y173364D01*
X353914Y172145D02*
X354324Y171735D01*
X353344Y175790D02*
X353914Y175220D01*
X370000Y141027D02*
Y144940D01*
X363705Y151235D02*
X370000Y144940D01*
X363705Y151235D02*
Y158170D01*
X371766Y148860D02*
X376540Y153635D01*
X366229Y152281D02*
X369649Y148860D01*
X366229Y152281D02*
Y157124D01*
X369649Y148860D02*
X371766D01*
X387849Y45710D02*
Y46283D01*
X361431Y19292D02*
X387849Y45710D01*
X390000Y38500D02*
X398500Y30000D01*
X390000Y38500D02*
Y39205D01*
X325835Y19292D02*
X361431D01*
X398500Y30000D02*
X450000D01*
X379197Y51374D02*
Y60275D01*
X403394Y81817D02*
X406577Y85000D01*
X379197Y60275D02*
X400739Y81817D01*
X384401Y72618D02*
X396783Y85000D01*
X400739Y81817D02*
X403394D01*
X399693Y84341D02*
X402348D01*
X403008Y85000D01*
X400136Y88353D02*
X400686D01*
X376540Y61188D02*
X399693Y84341D01*
X376540Y50461D02*
Y61188D01*
X333973Y46027D02*
X346688Y33312D01*
X371882D01*
X379197Y41471D02*
X381337Y43612D01*
X379197Y40627D02*
Y41471D01*
X376540Y42385D02*
X376673Y42517D01*
X371882Y33312D02*
X379197Y40627D01*
X376673Y50329D02*
X378813Y48188D01*
X381337Y43612D02*
Y49233D01*
X379197Y51374D02*
X381337Y49233D01*
X376540Y50461D02*
X376673Y50329D01*
X378813Y44657D02*
Y48188D01*
X376673Y42517D02*
X378813Y44657D01*
X376540Y41540D02*
Y42385D01*
X374649Y39649D02*
X376540Y41540D01*
X396783Y85000D02*
X400136Y88353D01*
X358563Y72618D02*
X384401D01*
X363364Y40000D02*
X363715Y39649D01*
X353294Y40000D02*
X363364D01*
X363715Y39649D02*
X374649D01*
X400420Y93761D02*
X401320D01*
X408498Y100939D01*
X374282Y98530D02*
X391536D01*
X395509Y94557D01*
X420992Y80856D02*
X425136Y85000D01*
X419389D02*
X434216Y99828D01*
X425136Y85000D02*
X435900Y95764D01*
X416928Y82539D02*
X419389Y85000D01*
X416928Y74789D02*
Y82539D01*
X341519Y51775D02*
X353294Y40000D01*
X353418Y80387D02*
X357273D01*
X360633Y77027D01*
X356729Y70784D02*
X358563Y72618D01*
X357895Y93975D02*
X369500D01*
X369547Y94021D01*
X371901Y100910D02*
X374282Y98530D01*
X372947Y103434D02*
X375327Y101054D01*
X331488Y383999D02*
Y398738D01*
X329340Y335426D02*
Y373077D01*
X331488Y398738D02*
X344750Y412000D01*
X329340Y335426D02*
X341115Y323651D01*
X372869Y358539D02*
X376211Y355197D01*
Y293237D02*
Y355197D01*
X372869Y358539D02*
Y402983D01*
X364214Y411638D02*
X372869Y402983D01*
X374000Y291026D02*
X376211Y293237D01*
X467258Y184469D02*
X486920D01*
X464621Y181832D02*
X467258Y184469D01*
X450276Y181832D02*
X464621D01*
X478722Y205205D02*
X486453Y196328D01*
X478722Y205205D02*
Y222778D01*
X429250Y272250D02*
X478722Y222778D01*
X377250Y272250D02*
X429250D01*
X374000Y275500D02*
X377250Y272250D01*
X374000Y275500D02*
Y291026D01*
X353181Y403829D02*
X360991Y411638D01*
X364214D01*
X447442Y178998D02*
X450276Y181832D01*
X361501Y465354D02*
X361884Y465738D01*
X404762D01*
X448493Y463743D02*
X448750Y464000D01*
X404762Y465738D02*
X406757Y463743D01*
X448493D01*
X387641Y434632D02*
X388210Y434062D01*
X349012Y417716D02*
X364280Y432984D01*
X349012Y409465D02*
Y417716D01*
X387641Y434632D02*
Y437683D01*
X367378Y432984D02*
X370706Y436312D01*
Y436370D01*
X364280Y432984D02*
X367378D01*
X370706Y436370D02*
X378153Y443817D01*
X334806Y395259D02*
X349012Y409465D01*
X378153Y443817D02*
X381282D01*
X384208Y440891D01*
X384433D01*
X387641Y437683D01*
X328567Y402317D02*
X344750Y418500D01*
X329917Y377786D02*
Y381439D01*
X328567Y382789D02*
X329917Y381439D01*
X326419Y374287D02*
X329917Y377786D01*
X328567Y382789D02*
Y402317D01*
X464350Y470798D02*
X490761D01*
X410000Y470529D02*
X418044D01*
X419782Y472267D01*
X462882D01*
X464350Y470798D01*
X392472Y397892D02*
Y438898D01*
X391200Y396620D02*
X392472Y397892D01*
X391200Y387213D02*
X391209Y387204D01*
X391200Y387213D02*
Y396620D01*
X385821Y445549D02*
X392472Y438898D01*
X385578Y445549D02*
X385821D01*
X530900Y398100D02*
X533092Y395908D01*
X430150Y398100D02*
X530900D01*
X416921Y411329D02*
X430150Y398100D01*
X429360Y438374D02*
X430702Y439716D01*
X416921Y411329D02*
Y415895D01*
X429360Y428334D01*
Y438374D01*
X559625Y369936D02*
Y382460D01*
X559220Y369532D02*
X559625Y369936D01*
X559220Y347345D02*
Y369532D01*
Y347345D02*
X560780Y345785D01*
X559782Y317586D02*
Y322600D01*
X560780Y323599D01*
X546177Y395908D02*
X559625Y382460D01*
X560780Y323599D02*
Y345785D01*
X533092Y395908D02*
X546177D01*
X430702Y439716D02*
Y445713D01*
X424354Y449953D02*
X426461D01*
X430702Y445713D01*
X422241Y452066D02*
X424354Y449953D01*
X421436Y452066D02*
X422241D01*
X412410Y461092D02*
X421436Y452066D01*
X347166Y461092D02*
X412410D01*
X315337Y460337D02*
X346411D01*
X347166Y461092D01*
X315000Y460000D02*
X315337Y460337D01*
X263829Y323040D02*
X318596Y268273D01*
X298744Y171021D02*
X302528Y167238D01*
X343032D01*
X295156Y173252D02*
X297387Y171021D01*
X279212Y174145D02*
X280105Y173252D01*
X279212Y174145D02*
Y215093D01*
X280105Y173252D02*
X295156D01*
X297387Y171021D02*
X298744D01*
X302540Y242540D02*
Y279052D01*
X260579Y317019D02*
X281450Y296148D01*
X285444D02*
X302540Y279052D01*
X281450Y296148D02*
X285444D01*
X284840Y220721D02*
Y224840D01*
X302540Y242540D01*
X279212Y215093D02*
X284840Y220721D01*
X258188Y425683D02*
X260579Y423292D01*
X258188Y425683D02*
Y430945D01*
X426000Y415250D02*
X437946Y427196D01*
Y459481D01*
X296916Y160000D02*
X348705D01*
X276672Y171870D02*
X283813Y164728D01*
X292188D02*
X296916Y160000D01*
X283813Y164728D02*
X292188D01*
X276672Y171870D02*
Y220264D01*
X296871Y240463D01*
Y281129D01*
X284392Y293608D02*
X296871Y281129D01*
X280397Y293608D02*
X284392D01*
X361709Y426843D02*
X364748D01*
X353102Y418236D02*
X361709Y426843D01*
X368469Y430460D02*
X373230Y435221D01*
Y435324D01*
X364748Y426843D02*
X368365Y430460D01*
X368469D01*
X382098Y437199D02*
X382667Y436629D01*
X379087Y441181D02*
X380349D01*
X382098Y439432D01*
X373230Y435324D02*
X379087Y441181D01*
X382098Y437199D02*
Y439432D01*
X375327Y101054D02*
X401972D01*
X337761Y80442D02*
X345316D01*
X335155Y83048D02*
X337761Y80442D01*
X331980Y88849D02*
X335155Y85673D01*
Y83048D02*
Y85673D01*
X331980Y88849D02*
Y88913D01*
X350628Y83177D02*
Y86708D01*
X357895Y93975D01*
X350628Y83177D02*
X353418Y80387D01*
X535209Y474791D02*
X540000Y470000D01*
X375000D02*
Y473898D01*
X360274Y308344D02*
Y370274D01*
X365000Y375000D01*
X373854Y429818D02*
X374558D01*
X377953Y390415D02*
Y426424D01*
X374558Y429818D02*
X377953Y426424D01*
X418278Y193289D02*
X418983Y193994D01*
X418278Y183278D02*
Y193289D01*
X418983Y197168D02*
X419553Y197738D01*
X418983Y193994D02*
Y197168D01*
X370491Y154046D02*
X370665D01*
X335641Y134265D02*
X336856Y135480D01*
X330812Y130064D02*
X331308D01*
X333563Y138494D02*
X334631Y139562D01*
X329624Y134128D02*
X333563Y138067D01*
X331308Y130064D02*
X335508Y134265D01*
X334631Y139562D02*
Y140367D01*
X329128Y134128D02*
X329624D01*
X336856Y135480D02*
X337661D01*
X335508Y134265D02*
X335641D01*
X333563Y138067D02*
Y138494D01*
X315657Y120657D02*
X329128Y134128D01*
X536683Y5936D02*
X578940Y48193D01*
X574876Y49876D02*
Y149527D01*
X568246Y156156D02*
X574876Y149527D01*
X535000Y10000D02*
X574876Y49876D01*
X572310Y157840D02*
X578940Y151210D01*
Y48193D02*
Y151210D01*
X380000Y355473D02*
X380473Y355000D01*
X380000Y355473D02*
Y388368D01*
X455000Y401517D02*
X455893Y400624D01*
X455000Y401517D02*
Y415678D01*
X549376Y400624D02*
X565000Y385000D01*
X506841Y400893D02*
X507110Y400624D01*
X455893D02*
X507110D01*
X549376D01*
X455000Y415678D02*
X457822Y418500D01*
X506841Y400893D02*
Y418620D01*
X377953Y390415D02*
X380000Y388368D01*
X480295Y80000D02*
X484063Y83768D01*
X474548Y80000D02*
X479999Y85451D01*
X468440Y73893D02*
X474548Y80000D01*
X470124Y69829D02*
X480295Y80000D01*
X458848Y67445D02*
X465296Y73893D01*
X484063Y83768D02*
Y102669D01*
X458848Y66998D02*
Y67445D01*
X465296Y73893D02*
X468440D01*
X466979Y69829D02*
X470124D01*
X479999Y85451D02*
Y100986D01*
X464598Y67448D02*
X466979Y69829D01*
X464598Y67065D02*
Y67448D01*
X454585Y60374D02*
Y72870D01*
X455968Y80000D02*
X458590Y82622D01*
X464649Y88788D02*
X466078D01*
X466332Y84724D02*
X467762D01*
X458590Y82729D02*
X464649Y88788D01*
X450521Y74553D02*
X455968Y80000D01*
X458590Y82622D02*
Y82729D01*
X461715Y80000D02*
X462654Y80939D01*
X450521Y58690D02*
Y74553D01*
X462654Y81046D02*
X466332Y84724D01*
X467762D02*
X470142Y87105D01*
X454585Y72870D02*
X461715Y80000D01*
X462654Y80939D02*
Y81046D01*
X470142Y87105D02*
Y91554D01*
X449220Y88345D02*
Y96039D01*
X452223Y79926D02*
X452297Y80000D01*
X452002Y85458D02*
X455877Y89333D01*
X452002Y85453D02*
Y85458D01*
X449049Y88174D02*
X449220Y88345D01*
X452297Y80000D02*
X456066Y83769D01*
Y83774D02*
X459941Y87649D01*
X455877Y89333D02*
Y96343D01*
X450540Y83990D02*
X452002Y85453D01*
X459941Y87649D02*
Y94016D01*
X448405Y79926D02*
X452223D01*
X446722Y83990D02*
X450540D01*
X466536Y95161D02*
X470142Y91554D01*
X456066Y83769D02*
Y83774D01*
X466536Y95161D02*
Y100528D01*
X572310Y157840D02*
Y163437D01*
X522289Y180936D02*
X543905D01*
X550697Y185051D02*
X572310Y163437D01*
X543956Y180986D02*
X549013D01*
X542272Y185051D02*
X550697D01*
X542222Y185000D02*
X542272Y185051D01*
X568246Y156156D02*
Y161754D01*
X523973Y185000D02*
X542222D01*
X543905Y180936D02*
X543956Y180986D01*
X549013D02*
X568246Y161754D01*
X309553Y19700D02*
Y100050D01*
X313617Y21383D02*
Y98366D01*
X309553Y100050D02*
X315657Y106153D01*
X313617Y98366D02*
X319721Y104470D01*
X313617Y21383D02*
X325000Y10000D01*
X309553Y19700D02*
X323317Y5936D01*
X503668Y205304D02*
X523973Y185000D01*
X499259Y210500D02*
X499828Y209930D01*
X499142Y199301D02*
X499947D01*
X499828Y207948D02*
Y209930D01*
X502472Y205304D02*
X503668D01*
X499828Y207948D02*
X502472Y205304D01*
X501087Y200440D02*
X502785D01*
X499947Y199301D02*
X501087Y200440D01*
X502785D02*
X522289Y180936D01*
X492003Y116718D02*
X498474Y123189D01*
X490000Y120717D02*
X490595Y121312D01*
X493028D01*
X495950Y124235D01*
X487673Y115021D02*
X490017Y112677D01*
X487673Y118390D02*
X490000Y120717D01*
X495145Y128570D02*
Y186933D01*
X487673Y115021D02*
Y118390D01*
X497669Y129616D02*
Y189950D01*
X498474Y123189D02*
Y128811D01*
X495145Y128570D02*
X495950Y127765D01*
Y124235D02*
Y127765D01*
X490247Y191831D02*
X495145Y186933D01*
X497669Y129616D02*
X498474Y128811D01*
X466536Y100528D02*
X466994Y100986D01*
X293709Y179872D02*
Y182238D01*
X296836Y176745D02*
X296885D01*
X293709Y179872D02*
X296836Y176745D01*
X298031Y181577D02*
X298601Y181007D01*
X298031Y181577D02*
Y184496D01*
X298347Y175283D02*
X299152D01*
X296885Y176745D02*
X298347Y175283D01*
X293140Y182808D02*
X293709Y182238D01*
X294041Y188487D02*
X298031Y184496D01*
X549262Y435893D02*
X550155Y435000D01*
X565000D01*
X505738Y452255D02*
X507174Y450818D01*
Y440502D02*
Y450818D01*
X444275Y43112D02*
X452713Y51550D01*
X456777Y49867D02*
Y58181D01*
X454585Y60374D02*
X456777Y58181D01*
X445958Y39048D02*
X456777Y49867D01*
X430550Y40440D02*
X433562D01*
X452713Y51550D02*
Y56498D01*
X434954Y39048D02*
X445958D01*
X429980Y41010D02*
X430550Y40440D01*
X433562D02*
X434954Y39048D01*
X436637Y43112D02*
X444275D01*
X433111Y45833D02*
X433917D01*
X436637Y43112D01*
X445669Y67921D02*
Y69470D01*
X440508Y66865D02*
X441078Y67434D01*
X445330Y73160D02*
X445405Y73084D01*
X441078Y67434D02*
Y68982D01*
X441341Y69246D01*
X445330Y73160D02*
Y76851D01*
X445405Y69733D02*
Y73084D01*
X455877Y96343D02*
X460474Y100939D01*
X445669Y67921D02*
X446238Y67352D01*
X441266Y78534D02*
X446722Y83990D01*
X441266Y71476D02*
Y78534D01*
Y71476D02*
X441341Y71401D01*
X445405Y69733D02*
X445669Y69470D01*
X441341Y69246D02*
Y71401D01*
X445330Y76851D02*
X448405Y79926D01*
X450521Y58690D02*
X452713Y56498D01*
X394135Y110712D02*
X403353D01*
X404895Y110992D02*
X408422Y107465D01*
X392215Y112633D02*
X394135Y110712D01*
X403632Y110992D02*
X404895D01*
X403353Y110712D02*
X403632Y110992D01*
X384080Y202901D02*
X390974Y209794D01*
X384080Y190038D02*
Y202901D01*
Y190038D02*
X388520Y185599D01*
X388893D01*
X363751Y317131D02*
Y334204D01*
X376540Y156329D02*
X386254Y166043D01*
X376540Y153635D02*
Y156329D01*
X386254Y166043D02*
X395562D01*
X366341Y347529D02*
X367500Y346369D01*
X363751Y334204D02*
X367500Y337954D01*
Y346369D01*
X366341Y347529D02*
Y356410D01*
X366083Y356668D02*
X366341Y356410D01*
X446891Y100408D02*
X447461Y100978D01*
X446891Y97302D02*
Y100408D01*
X443234Y89425D02*
X446680Y92871D01*
Y97091D01*
X446891Y97302D01*
X544881Y212524D02*
X545500D01*
X544690Y201626D02*
Y205606D01*
X544134Y206162D02*
X544690Y205606D01*
Y201626D02*
X549265Y197051D01*
X545500Y212524D02*
X549964Y208061D01*
Y203506D02*
Y208061D01*
X315657Y106153D02*
Y120657D01*
X319721Y104470D02*
Y118973D01*
X330812Y130064D01*
X325000Y10000D02*
X535000D01*
X323317Y5936D02*
X536683D01*
X565000Y375011D02*
Y385000D01*
Y375011D02*
X565011Y375000D01*
X449220Y96039D02*
X453651Y100470D01*
Y101275D01*
X434216Y99828D02*
X438980D01*
X440142Y94576D02*
X440947D01*
X438980Y99828D02*
X440168Y101016D01*
X435900Y95764D02*
X438954D01*
X440142Y94576D01*
X440168Y101016D02*
X440973D01*
X490528Y112677D02*
X498620Y104585D01*
X488994Y110137D02*
X496080Y103051D01*
X498620Y98880D02*
Y104585D01*
X493540Y96237D02*
X494250Y95527D01*
X493540Y96237D02*
Y101999D01*
X487942Y107597D02*
X493540Y101999D01*
X496080Y97289D02*
X497500Y95869D01*
X498620Y98880D02*
X500421Y97079D01*
X496080Y97289D02*
Y103051D01*
X491000Y63059D02*
Y100918D01*
X480037Y111881D02*
X491000Y100918D01*
X488965Y110137D02*
X488994D01*
X487913Y107597D02*
X487942D01*
X485117Y113985D02*
Y119426D01*
Y113985D02*
X488965Y110137D01*
X485117Y119426D02*
X488172Y122481D01*
X480037Y121530D02*
X482637Y124130D01*
X482577Y112933D02*
Y120478D01*
Y112933D02*
X487913Y107597D01*
X480037Y111881D02*
Y121530D01*
X490017Y112677D02*
X490528D01*
X482577Y120478D02*
X485632Y123533D01*
X481682Y105050D02*
X484063Y102669D01*
X475560Y102321D02*
X475587D01*
X474292Y101054D02*
X475560Y102321D01*
X475587D02*
X478315Y105050D01*
X473487Y101054D02*
X474292D01*
X478315Y105050D02*
X481682D01*
X488172Y154852D02*
X491329Y158009D01*
X459986Y176882D02*
X485632Y151236D01*
X488172Y122481D02*
Y154852D01*
X485632Y123533D02*
Y151236D01*
X482748Y149989D02*
X483083Y125229D01*
X460264Y172473D02*
X482748Y149989D01*
X483083Y124577D02*
Y125229D01*
X453929Y172473D02*
X460264D01*
X482637Y124130D02*
X483083Y124577D01*
X494250Y61403D02*
Y95527D01*
X459941Y94016D02*
X460397Y94472D01*
X458250Y38250D02*
X468923D01*
X450000Y30000D02*
X458250Y38250D01*
X503190Y54703D02*
Y75021D01*
X503151Y54663D02*
X503190Y54703D01*
X497500Y60522D02*
Y95869D01*
X497058Y60080D02*
X497500Y60522D01*
X497058Y57342D02*
Y60080D01*
X496489Y56772D02*
X497058Y57342D01*
X473071Y33321D02*
X475320Y35570D01*
X461215Y33321D02*
X473071D01*
X475320Y35570D02*
Y39424D01*
X475692Y39797D02*
Y42845D01*
X475320Y39424D02*
X475692Y39797D01*
X468923Y38250D02*
X472771Y42099D01*
X454035Y191967D02*
X458620Y188909D01*
X489056Y188891D01*
X491329Y186618D01*
Y158009D02*
Y186618D01*
X500421Y96744D02*
Y97079D01*
X501869Y76342D02*
Y95296D01*
X500421Y96744D02*
X501869Y95296D01*
X475711Y191831D02*
X490247D01*
X460447Y193319D02*
X474222D01*
X475711Y191831D01*
X501869Y76342D02*
X503190Y75021D01*
X475692Y42845D02*
X494250Y61403D01*
X447523Y172473D02*
X451933Y176882D01*
X459986D01*
X472771Y42099D02*
Y44831D01*
X491000Y63059D01*
X423262Y315012D02*
X438950Y330700D01*
X453622D01*
X490015Y247235D02*
Y269949D01*
X506765Y161067D02*
Y185061D01*
X490839Y196780D02*
X497669Y189950D01*
X503780Y187921D02*
X503905Y187921D01*
X504210Y187616D01*
X506765Y185061D01*
X503469Y188230D02*
X503780Y187921D01*
X500035Y191715D02*
X503469Y188230D01*
X505277Y159579D02*
X506765Y161067D01*
X505277Y135999D02*
Y159579D01*
X494250Y198131D02*
Y211727D01*
X490839Y196780D02*
Y214792D01*
X494250Y198131D02*
X494250Y197500D01*
X500035Y191715D01*
X423262Y282369D02*
X490839Y214792D01*
X423262Y282369D02*
Y315012D01*
X500750Y218227D02*
Y236500D01*
X490015Y247235D02*
X500750Y236500D01*
X460180Y200457D02*
X463253D01*
X456705Y196982D02*
X460180Y200457D01*
X441524Y196982D02*
X456705D01*
X437688Y193147D02*
X441524Y196982D01*
X437688Y176062D02*
Y193147D01*
X437062Y176062D02*
X437688D01*
X433074Y172074D02*
X437062Y176062D01*
X433074Y164612D02*
Y172074D01*
X427979Y159517D02*
X433074Y164612D01*
X494250Y211727D02*
X500750Y218227D01*
X418238Y182113D02*
Y183033D01*
X415044Y178919D02*
X418238Y182113D01*
X415044Y178892D02*
Y178919D01*
X394135Y175765D02*
X405351D01*
X408556Y178970D01*
X389870Y171500D02*
X394135Y175765D01*
X377686Y167793D02*
X381393Y171500D01*
X389870D01*
X401965Y195761D02*
X406954Y200750D01*
X415085D01*
X401965Y185556D02*
Y195761D01*
X421835Y207500D02*
X433498D01*
X415085Y200750D02*
X421835Y207500D01*
X433498D02*
X435998Y210000D01*
X549262Y435893D02*
Y466765D01*
X508973Y465000D02*
X545000D01*
X505738Y452255D02*
Y461765D01*
X508973Y465000D01*
X540000Y470000D02*
X546027D01*
X549262Y466765D01*
X492527Y475060D02*
X492796Y474791D01*
X376162Y475060D02*
X492527D01*
X492796Y474791D02*
X535209D01*
X375000Y473898D02*
X376162Y475060D01*
D25*
X365660Y223116D02*
D03*
X388976Y179051D02*
D03*
X321713Y45815D02*
D03*
X360043Y261130D02*
D03*
X321047Y57074D02*
D03*
X387849Y46283D02*
D03*
X325835Y19292D02*
D03*
X362393Y66998D02*
D03*
X370917Y66945D02*
D03*
X410000Y470529D02*
D03*
X391209Y387204D02*
D03*
X385578Y445549D02*
D03*
X365000Y375000D02*
D03*
D96*
X349921Y235743D02*
D03*
X412723Y66998D02*
D03*
X403562Y66427D02*
D03*
X439304Y88855D02*
D03*
X387541Y85000D02*
D03*
X294428Y444993D02*
D03*
X340000Y210000D02*
D03*
X259861Y444111D02*
D03*
X276987Y407666D02*
D03*
X336677Y195927D02*
D03*
X344153Y196936D02*
D03*
X368626Y196091D02*
D03*
X370000Y135000D02*
D03*
X327815Y51775D02*
D03*
X327992Y46027D02*
D03*
X363447Y120774D02*
D03*
X350062Y169969D02*
D03*
X353344Y175790D02*
D03*
X390000Y39205D02*
D03*
X400686Y88353D02*
D03*
X414586Y101339D02*
D03*
X395509Y94557D02*
D03*
X360633Y77027D02*
D03*
X369547Y94021D02*
D03*
X341115Y323651D02*
D03*
X344750Y412000D02*
D03*
X486920Y184469D02*
D03*
X486453Y196328D02*
D03*
X353181Y403829D02*
D03*
X447442Y178998D02*
D03*
X448750Y464000D02*
D03*
X361501Y465354D02*
D03*
X260250Y470500D02*
D03*
X270000Y460750D02*
D03*
X388210Y434062D02*
D03*
X344750Y418500D02*
D03*
X349551Y308847D02*
D03*
X490761Y470798D02*
D03*
X559782Y317586D02*
D03*
X421436Y452066D02*
D03*
X315000Y460000D02*
D03*
X258188Y430945D02*
D03*
X426000Y415250D02*
D03*
X437946Y459481D02*
D03*
X257401Y504924D02*
D03*
X310109Y512655D02*
D03*
X290568Y499315D02*
D03*
X346874Y437747D02*
D03*
X365102Y438588D02*
D03*
X421330Y444140D02*
D03*
X525000Y390000D02*
D03*
X404939Y353811D02*
D03*
X250500Y493250D02*
D03*
X401972Y101054D02*
D03*
X382667Y436629D02*
D03*
X375000Y470000D02*
D03*
X373854Y429818D02*
D03*
X419553Y197738D02*
D03*
X370491Y154046D02*
D03*
X334631Y140367D02*
D03*
X337661Y135480D02*
D03*
X380473Y355000D02*
D03*
X449049Y88174D02*
D03*
X492003Y116718D02*
D03*
X466078Y88788D02*
D03*
X464598Y67065D02*
D03*
X458848Y66998D02*
D03*
X298601Y181007D02*
D03*
X299152Y175283D02*
D03*
X293140Y182808D02*
D03*
X294041Y188487D02*
D03*
X433111Y45833D02*
D03*
X429980Y41010D02*
D03*
X440508Y66865D02*
D03*
X446238Y67352D02*
D03*
X408498Y100939D02*
D03*
X421473Y101016D02*
D03*
X408422Y107465D02*
D03*
X390974Y209794D02*
D03*
X388893Y185599D02*
D03*
X395562Y166043D02*
D03*
X565000Y435000D02*
D03*
X366083Y356668D02*
D03*
X447461Y100978D02*
D03*
X331980Y88913D02*
D03*
X549265Y197051D02*
D03*
X549964Y203506D02*
D03*
X544881Y212524D02*
D03*
X544134Y206162D02*
D03*
X565011Y375000D02*
D03*
X440947Y94576D02*
D03*
X453651Y101275D02*
D03*
X460397Y94472D02*
D03*
X473487Y101054D02*
D03*
X503151Y54663D02*
D03*
X496489Y56772D02*
D03*
X461215Y33321D02*
D03*
X454035Y191967D02*
D03*
X440973Y101016D02*
D03*
X460447Y193319D02*
D03*
X447523Y172473D02*
D03*
X466994Y100986D02*
D03*
X453622Y330700D02*
D03*
X490015Y269949D02*
D03*
X479999Y100986D02*
D03*
X505277Y135999D02*
D03*
X499259Y210500D02*
D03*
X499142Y199301D02*
D03*
X507174Y440502D02*
D03*
X506841Y418620D02*
D03*
X457822Y418500D02*
D03*
X460474Y100939D02*
D03*
X453929Y172473D02*
D03*
X427979Y159517D02*
D03*
X435998Y210000D02*
D03*
X463253Y200457D02*
D03*
X401965Y185556D02*
D03*
X408556Y178970D02*
D03*
X415044Y178892D02*
D03*
X545000Y465000D02*
D03*
D101*
X280105Y410784D02*
Y453916D01*
X276987Y407666D02*
X280105Y410784D01*
X280200Y453916D02*
X310747D01*
X280105D02*
X280200D01*
Y499800D01*
X257401Y504924D02*
X280000D01*
X280200Y499800D02*
X280685Y499315D01*
X280000Y500000D02*
Y504924D01*
Y500000D02*
X280200Y499800D01*
X296769Y499315D02*
X310109Y512655D01*
X280685Y499315D02*
X290568D01*
X296769D01*
X345000Y441972D02*
Y449250D01*
X346874Y437747D02*
Y440099D01*
X345000Y441972D02*
X346874Y440099D01*
X365102Y438588D02*
Y453102D01*
X366250Y454250D01*
X318028Y452690D02*
X319253Y453916D01*
X311972Y452690D02*
X318028D01*
X310747Y453916D02*
X311972Y452690D01*
X319253Y453916D02*
X349666D01*
D106*
X350000Y454250D01*
X366250D01*
X409682Y408331D02*
Y430340D01*
Y408331D02*
X420881Y397131D01*
X523742Y391258D02*
X525000Y390000D01*
X427293Y391258D02*
X523742D01*
X421420Y397131D02*
X427293Y391258D01*
X420881Y397131D02*
X421420D01*
X366250Y454250D02*
X389011D01*
X411120Y432141D01*
X409682Y430340D02*
X422055Y442714D01*
X404939Y381189D02*
X420881Y397131D01*
X404939Y353811D02*
Y381189D01*
M02*
