G04*
G04 #@! TF.GenerationSoftware,Altium Limited,Altium Designer Agile,26.0.0 (14)*
G04*
G04 Layer_Physical_Order=4*
G04 Layer_Color=6736896*
%FSLAX44Y44*%
%MOMM*%
G71*
G04*
G04 #@! TF.SameCoordinates,4FF2EC7E-CA27-4E83-9EAC-C24659388D2A*
G04*
G04*
G04 #@! TF.FilePolarity,Positive*
G04*
G01*
G75*
%ADD82C,0.4501*%
%ADD85C,0.5080*%
%ADD88C,1.0160*%
G36*
X226384Y180703D02*
X225953Y180524D01*
X225245Y179817D01*
X224862Y178892D01*
Y177891D01*
X225245Y176966D01*
X225896Y176315D01*
X225213Y170169D01*
X222629Y167425D01*
X222624Y167435D01*
X221917Y168143D01*
X220992Y168526D01*
X219991D01*
X219066Y168143D01*
X218358Y167435D01*
X217975Y166510D01*
Y165509D01*
X218358Y164584D01*
X219066Y163877D01*
X219225Y163811D01*
X216241Y160644D01*
X216122Y160932D01*
X215414Y161640D01*
X214489Y162023D01*
X213489D01*
X212564Y161640D01*
X211856Y160932D01*
X211473Y160008D01*
Y159007D01*
X211856Y158082D01*
X212564Y157374D01*
X212994Y157196D01*
X211161Y155250D01*
X208641D01*
X207987Y155521D01*
X206986D01*
X206332Y155250D01*
X202138D01*
X201485Y155521D01*
X200484D01*
X199830Y155250D01*
X195636D01*
X194982Y155521D01*
X193981D01*
X193328Y155250D01*
X189134D01*
X188480Y155521D01*
X187479D01*
X186825Y155250D01*
X182631D01*
X181978Y155521D01*
X180977D01*
X180323Y155250D01*
X176154D01*
X175501Y155521D01*
X174499D01*
X173846Y155250D01*
X169750D01*
Y157303D01*
X169923Y157374D01*
X170631Y158082D01*
X171014Y159007D01*
Y160008D01*
X170631Y160932D01*
X169923Y161640D01*
X169750Y161712D01*
Y161750D01*
X172784Y164784D01*
X172867Y164584D01*
X173575Y163877D01*
X174499Y163494D01*
X175501D01*
X176425Y163877D01*
X177133Y164584D01*
X177305Y165000D01*
X179172D01*
X179344Y164584D01*
X180052Y163877D01*
X180977Y163494D01*
X181978D01*
X182902Y163877D01*
X183610Y164584D01*
X183782Y165000D01*
X185674D01*
X185846Y164584D01*
X186554Y163877D01*
X187479Y163494D01*
X188480D01*
X189405Y163877D01*
X190112Y164584D01*
X190285Y165000D01*
X192500D01*
Y177228D01*
X192985Y176743D01*
X193910Y176360D01*
X194911D01*
X195835Y176743D01*
X196543Y177451D01*
X196926Y178376D01*
Y179377D01*
X196543Y180301D01*
X195835Y181009D01*
X194911Y181392D01*
X193910D01*
X192985Y181009D01*
X192500Y180524D01*
Y182361D01*
X172048D01*
X171560Y194535D01*
X171740D01*
X173724Y194929D01*
X174118Y195008D01*
X176135Y196355D01*
X177036Y197256D01*
X177401Y196376D01*
X178108Y195669D01*
X179033Y195285D01*
X180034D01*
X180959Y195669D01*
X181667Y196376D01*
X182050Y197301D01*
Y198302D01*
X181667Y199227D01*
X181437Y199456D01*
X202250Y207250D01*
X202644Y207644D01*
X203455Y207307D01*
X204456D01*
X205381Y207691D01*
X206088Y208398D01*
X206472Y209323D01*
Y210324D01*
X206135Y211135D01*
X221750Y226750D01*
X231500D01*
X226384Y180703D01*
D02*
G37*
G36*
X250955Y246734D02*
X250342Y244718D01*
X259243Y213016D01*
X258759D01*
X257834Y212633D01*
X257126Y211925D01*
X256743Y211000D01*
Y210000D01*
X257126Y209075D01*
X257834Y208367D01*
X258759Y207984D01*
X259759D01*
X260563Y208317D01*
X267250Y184500D01*
Y137583D01*
X266702Y138132D01*
X265777Y138515D01*
X264776D01*
X263851Y138132D01*
X263144Y137424D01*
X262761Y136499D01*
Y135498D01*
X263144Y134573D01*
X263851Y133866D01*
X264776Y133483D01*
X265777D01*
X266702Y133866D01*
X267250Y134414D01*
Y99709D01*
X266702Y100257D01*
X265777Y100640D01*
X264776D01*
X263851Y100257D01*
X263144Y99550D01*
X262761Y98625D01*
Y97624D01*
X263144Y96699D01*
X263851Y95991D01*
X264776Y95609D01*
X265777D01*
X266702Y95991D01*
X267250Y96540D01*
Y61000D01*
X242309D01*
X242133Y61425D01*
X241425Y62133D01*
X240501Y62516D01*
X239500D01*
X238575Y62133D01*
X237867Y61425D01*
X237691Y61000D01*
X194073D01*
X173119Y65662D01*
X173336Y66185D01*
Y67186D01*
X172953Y68111D01*
X172245Y68819D01*
X171320Y69202D01*
X170320D01*
X169395Y68819D01*
X168687Y68111D01*
X168304Y67186D01*
Y66733D01*
X149938Y70819D01*
X144534Y83291D01*
X145175Y83557D01*
X145883Y84264D01*
X146266Y85189D01*
Y86190D01*
X145883Y87115D01*
X145175Y87823D01*
X144250Y88206D01*
X143250D01*
X142533Y87909D01*
X134000Y107600D01*
Y138841D01*
X129018Y151312D01*
X129123Y151207D01*
X130047Y150824D01*
X131048D01*
X131973Y151207D01*
X132681Y151915D01*
X133064Y152839D01*
Y153840D01*
X132681Y154765D01*
X131973Y155473D01*
X131048Y155856D01*
X130047D01*
X129123Y155473D01*
X128415Y154765D01*
X128032Y153840D01*
Y153779D01*
X117682Y179686D01*
X118175Y184500D01*
X159541Y206715D01*
X165201Y203113D01*
X170930Y195373D01*
X170782Y195312D01*
X170773Y195290D01*
X170752Y195280D01*
X170613Y194904D01*
X170460Y194535D01*
X170469Y194513D01*
X170461Y194491D01*
X170499Y193551D01*
X169923Y194127D01*
X168998Y194510D01*
X167997D01*
X167072Y194127D01*
X166365Y193419D01*
X165982Y192494D01*
Y191493D01*
X166365Y190569D01*
X167072Y189861D01*
X167997Y189478D01*
X168998D01*
X169923Y189861D01*
X170619Y190557D01*
X170781Y186494D01*
X170623Y186876D01*
X169915Y187584D01*
X168990Y187967D01*
X167990D01*
X167065Y187584D01*
X166357Y186876D01*
X165974Y185951D01*
Y184951D01*
X166357Y184026D01*
X167065Y183318D01*
X167990Y182935D01*
X168990D01*
X169915Y183318D01*
X170623Y184026D01*
X170858Y184592D01*
X170949Y182317D01*
X171117Y181954D01*
X171270Y181584D01*
X171292Y181575D01*
X171302Y181553D01*
X171678Y181415D01*
X172048Y181262D01*
X174189D01*
X173619Y181025D01*
X172911Y180317D01*
X172528Y179393D01*
Y178392D01*
X172911Y177467D01*
X173619Y176759D01*
X174544Y176376D01*
X175545D01*
X176469Y176759D01*
X177177Y177467D01*
X177560Y178392D01*
Y179393D01*
X177177Y180317D01*
X176469Y181025D01*
X175899Y181262D01*
X180389D01*
X180052Y181122D01*
X179344Y180414D01*
X178961Y179489D01*
Y178489D01*
X179344Y177564D01*
X180052Y176856D01*
X180977Y176473D01*
X181978D01*
X182902Y176856D01*
X183610Y177564D01*
X183993Y178489D01*
Y179489D01*
X183610Y180414D01*
X182902Y181122D01*
X182565Y181262D01*
X190961D01*
Y166711D01*
X190495Y166245D01*
Y166510D01*
X190112Y167435D01*
X189405Y168143D01*
X188480Y168526D01*
X187479D01*
X186554Y168143D01*
X185846Y167435D01*
X185463Y166510D01*
Y166100D01*
X183993D01*
Y166510D01*
X183610Y167435D01*
X182902Y168143D01*
X181978Y168526D01*
X180977D01*
X180052Y168143D01*
X179344Y167435D01*
X178961Y166510D01*
Y166100D01*
X177516D01*
Y166510D01*
X177133Y167435D01*
X176425Y168143D01*
X175501Y168526D01*
X174499D01*
X173575Y168143D01*
X172867Y167435D01*
X172484Y166510D01*
Y165800D01*
X172363D01*
X172209Y165646D01*
X172007Y165562D01*
X168972Y162528D01*
X168862Y162260D01*
X168734Y162133D01*
Y162023D01*
X167997D01*
X167072Y161640D01*
X166365Y160932D01*
X165982Y160008D01*
Y159007D01*
X166365Y158082D01*
X167072Y157374D01*
X167997Y156991D01*
X168498D01*
Y155521D01*
X167997D01*
X167072Y155138D01*
X166365Y154430D01*
X165982Y153505D01*
Y152504D01*
X166365Y151580D01*
X167072Y150872D01*
X167997Y150489D01*
X168998D01*
X169923Y150872D01*
X170631Y151580D01*
X171014Y152504D01*
Y153505D01*
X170746Y154150D01*
X172751D01*
X172484Y153505D01*
Y152504D01*
X172867Y151580D01*
X173575Y150872D01*
X174499Y150489D01*
X175501D01*
X176425Y150872D01*
X177133Y151580D01*
X177516Y152504D01*
Y153505D01*
X177249Y154150D01*
X179228D01*
X178961Y153505D01*
Y152504D01*
X179344Y151580D01*
X180052Y150872D01*
X180977Y150489D01*
X181978D01*
X182902Y150872D01*
X183610Y151580D01*
X183993Y152504D01*
Y153505D01*
X183726Y154150D01*
X185731D01*
X185463Y153505D01*
Y152504D01*
X185846Y151580D01*
X186554Y150872D01*
X187479Y150489D01*
X188480D01*
X189405Y150872D01*
X190112Y151580D01*
X190495Y152504D01*
Y153505D01*
X190228Y154150D01*
X192233D01*
X191966Y153505D01*
Y152504D01*
X192349Y151580D01*
X193057Y150872D01*
X193981Y150489D01*
X194982D01*
X195907Y150872D01*
X196615Y151580D01*
X196998Y152504D01*
Y153505D01*
X196731Y154150D01*
X196850D01*
X198468Y152532D01*
Y152504D01*
X198851Y151580D01*
X198967Y151463D01*
X198736Y147649D01*
X198468Y147003D01*
Y146002D01*
X198615Y145648D01*
X197611Y129107D01*
X196744Y121606D01*
X196615Y121918D01*
X195907Y122626D01*
X194982Y123009D01*
X193981D01*
X193057Y122626D01*
X192349Y121918D01*
X191966Y120993D01*
Y119992D01*
X192349Y119068D01*
X193057Y118360D01*
X193981Y117977D01*
X194982D01*
X195907Y118360D01*
X196430Y118882D01*
X196090Y115941D01*
X195907Y116123D01*
X194982Y116506D01*
X193981D01*
X193057Y116123D01*
X192349Y115416D01*
X191966Y114491D01*
Y113490D01*
X192349Y112565D01*
X193057Y111857D01*
X193981Y111474D01*
X194982D01*
X195603Y111732D01*
X195593Y111638D01*
X203421Y107600D01*
X206296Y111794D01*
X206991Y111506D01*
X207992D01*
X208916Y111889D01*
X209624Y112597D01*
X210007Y113522D01*
Y114523D01*
X209624Y115448D01*
X209136Y115935D01*
X211640Y119588D01*
X211856Y119068D01*
X212564Y118360D01*
X213489Y117977D01*
X214489D01*
X215414Y118360D01*
X216122Y119068D01*
X216505Y119992D01*
Y120993D01*
X216122Y121918D01*
X215414Y122626D01*
X214489Y123009D01*
X213986D01*
X215194Y124771D01*
X215414Y124862D01*
X216122Y125570D01*
X216505Y126495D01*
Y126683D01*
X219571Y131155D01*
X219991Y130982D01*
X220992D01*
X221917Y131365D01*
X222624Y132072D01*
X223007Y132997D01*
Y133998D01*
X222624Y134923D01*
X222346Y135202D01*
X224785Y138759D01*
X224861Y138575D01*
X225569Y137867D01*
X226493Y137484D01*
X227494D01*
X228419Y137867D01*
X229127Y138575D01*
X229510Y139500D01*
Y140500D01*
X229127Y141425D01*
X228419Y142133D01*
X227494Y142516D01*
X226493D01*
X225569Y142133D01*
X224866Y141430D01*
X224900Y145038D01*
X225569Y144369D01*
X226493Y143986D01*
X227494D01*
X228419Y144369D01*
X229127Y145077D01*
X229510Y146002D01*
Y147003D01*
X229127Y147928D01*
X228419Y148635D01*
X227494Y149018D01*
X226493D01*
X225569Y148635D01*
X224928Y147994D01*
X225019Y157673D01*
X229307Y175496D01*
X229498Y176953D01*
X229511Y176966D01*
X229894Y177891D01*
Y178892D01*
X229786Y179153D01*
X233757Y209507D01*
X232999Y246734D01*
X236325Y246806D01*
X249211Y247084D01*
X250955Y246734D01*
D02*
G37*
G36*
X223971Y158015D02*
X223950Y157930D01*
X223971Y157802D01*
X223920Y157683D01*
X223828Y148005D01*
X223830Y148000D01*
X223828Y147994D01*
X223987Y147611D01*
X224143Y147224D01*
X224148Y147222D01*
X224150Y147217D01*
X224506Y147070D01*
X224478Y147003D01*
Y146002D01*
X224491Y145969D01*
X224130Y145823D01*
X224127Y145818D01*
X224122Y145816D01*
X223963Y145431D01*
X223800Y145049D01*
X223766Y141440D01*
X223768Y141435D01*
X223766Y141430D01*
X223925Y141046D01*
X224081Y140660D01*
X224086Y140658D01*
X224088Y140652D01*
X224472Y140493D01*
X224478Y140491D01*
Y139775D01*
X224364D01*
X224141Y139552D01*
X223878Y139381D01*
X221441Y135827D01*
X220992Y136014D01*
X219991D01*
X219066Y135631D01*
X218358Y134923D01*
X217975Y133998D01*
Y132997D01*
X218358Y132072D01*
X218660Y131771D01*
X216213Y128201D01*
X216122Y128420D01*
X215414Y129128D01*
X214489Y129511D01*
X213489D01*
X212564Y129128D01*
X211856Y128420D01*
X211473Y127496D01*
Y126495D01*
X211856Y125570D01*
X212564Y124862D01*
X213489Y124479D01*
X213661D01*
X213079Y123631D01*
X213011Y123311D01*
X212886Y123009D01*
X212920Y122926D01*
X212755Y122705D01*
X212564Y122626D01*
X211856Y121918D01*
X211473Y120993D01*
X211308Y120604D01*
X211220D01*
X210997Y120382D01*
X210733Y120210D01*
X208229Y116557D01*
X208206Y116449D01*
X207992Y116538D01*
X206991D01*
X206066Y116155D01*
X205358Y115448D01*
X204975Y114523D01*
Y113522D01*
X205358Y112597D01*
X205480Y112475D01*
X205480Y112475D01*
X205389Y112416D01*
X205320Y112315D01*
X202755Y109750D01*
X201651D01*
X196472Y112422D01*
X196615Y112565D01*
X196998Y113490D01*
Y114491D01*
X196756Y115074D01*
X196773Y115079D01*
X196805Y115137D01*
X196867Y115163D01*
X197006Y115498D01*
X197182Y115814D01*
X197522Y118756D01*
X197504Y118821D01*
X197529Y118882D01*
X197391Y119217D01*
X197291Y119566D01*
X197233Y119598D01*
X197207Y119660D01*
X196911Y119783D01*
X196998Y119992D01*
Y120589D01*
X197165D01*
X197276Y120701D01*
X197427Y120744D01*
X197563Y120987D01*
X197760Y121185D01*
Y121342D01*
X197837Y121479D01*
X198468Y126945D01*
Y126495D01*
X198851Y125570D01*
X199559Y124862D01*
X200484Y124479D01*
X201485D01*
X202409Y124862D01*
X203117Y125570D01*
X203500Y126495D01*
Y127496D01*
X203117Y128420D01*
X202409Y129128D01*
X201485Y129511D01*
X200484D01*
X199559Y129128D01*
X198851Y128420D01*
X198556Y127709D01*
X198703Y128981D01*
X198695Y129012D01*
X198709Y129041D01*
X198890Y132033D01*
X199559Y131365D01*
X200484Y130982D01*
X201485D01*
X202409Y131365D01*
X203117Y132072D01*
X203500Y132997D01*
Y133998D01*
X203117Y134923D01*
X202409Y135631D01*
X201485Y136014D01*
X200484D01*
X199559Y135631D01*
X199079Y135151D01*
X199262Y138164D01*
X199559Y137867D01*
X200484Y137484D01*
X201485D01*
X202409Y137867D01*
X203117Y138575D01*
X203500Y139500D01*
Y140500D01*
X203117Y141425D01*
X202409Y142133D01*
X201485Y142516D01*
X200484D01*
X199559Y142133D01*
X199499Y142073D01*
X199637Y144337D01*
X200484Y143986D01*
X201485D01*
X202409Y144369D01*
X203117Y145077D01*
X203500Y146002D01*
Y147003D01*
X203117Y147928D01*
X202409Y148635D01*
X201485Y149018D01*
X200484D01*
X199906Y148779D01*
X200022Y150680D01*
X200484Y150489D01*
X201485D01*
X202409Y150872D01*
X203117Y151580D01*
X203500Y152504D01*
Y153505D01*
X204971D01*
Y152504D01*
X205354Y151580D01*
X206061Y150872D01*
X206986Y150489D01*
X207987D01*
X208912Y150872D01*
X209620Y151580D01*
X210003Y152504D01*
Y153505D01*
X210177D01*
X210642Y154150D01*
X211161D01*
X211177Y154157D01*
X211194Y154151D01*
X211564Y154317D01*
X211870Y154444D01*
X211856Y154430D01*
X211473Y153505D01*
Y152504D01*
X211856Y151580D01*
X212564Y150872D01*
X213489Y150489D01*
X214489D01*
X215414Y150872D01*
X216122Y151580D01*
X216505Y152504D01*
Y153505D01*
X216122Y154430D01*
X215414Y155138D01*
X214489Y155521D01*
X213489D01*
X212567Y155139D01*
X213794Y156442D01*
X213866Y156632D01*
X214010Y156775D01*
Y156991D01*
X214489D01*
X215414Y157374D01*
X216122Y158082D01*
X216505Y159007D01*
Y159628D01*
X216662D01*
X216828Y159794D01*
X217042Y159890D01*
X219959Y162987D01*
X223971D01*
Y158015D01*
D02*
G37*
%LPC*%
G36*
X199501Y203266D02*
X198500D01*
X197575Y202883D01*
X196867Y202175D01*
X196484Y201250D01*
Y200250D01*
X196867Y199325D01*
X197575Y198617D01*
X198500Y198234D01*
X199501D01*
X200425Y198617D01*
X201133Y199325D01*
X201516Y200250D01*
Y201250D01*
X201133Y202175D01*
X200425Y202883D01*
X199501Y203266D01*
D02*
G37*
G36*
X223754Y202973D02*
X222752D01*
X221828Y202590D01*
X221120Y201883D01*
X220737Y200958D01*
Y199957D01*
X221120Y199032D01*
X221828Y198324D01*
X222752Y197941D01*
X223754D01*
X224678Y198324D01*
X225386Y199032D01*
X225769Y199957D01*
Y200958D01*
X225386Y201883D01*
X224678Y202590D01*
X223754Y202973D01*
D02*
G37*
G36*
X193077Y202269D02*
X192076D01*
X191152Y201886D01*
X190444Y201178D01*
X190061Y200254D01*
Y199253D01*
X190444Y198328D01*
X191152Y197620D01*
X192076Y197237D01*
X193077D01*
X194002Y197620D01*
X194710Y198328D01*
X195093Y199253D01*
Y200254D01*
X194710Y201178D01*
X194002Y201886D01*
X193077Y202269D01*
D02*
G37*
G36*
X220947Y195835D02*
X219946D01*
X219021Y195452D01*
X218314Y194744D01*
X217931Y193819D01*
Y192818D01*
X218314Y191894D01*
X219021Y191186D01*
X219946Y190803D01*
X220947D01*
X221872Y191186D01*
X222579Y191894D01*
X222962Y192818D01*
Y193819D01*
X222579Y194744D01*
X221872Y195452D01*
X220947Y195835D01*
D02*
G37*
G36*
X188444Y194487D02*
X187444D01*
X186519Y194104D01*
X185811Y193396D01*
X185428Y192471D01*
Y191470D01*
X185811Y190546D01*
X186519Y189838D01*
X187444Y189455D01*
X188444D01*
X189369Y189838D01*
X190077Y190546D01*
X190460Y191470D01*
Y192471D01*
X190077Y193396D01*
X189369Y194104D01*
X188444Y194487D01*
D02*
G37*
G36*
X214536Y194483D02*
X213535D01*
X212610Y194100D01*
X211903Y193392D01*
X211519Y192467D01*
Y191466D01*
X211903Y190541D01*
X212610Y189834D01*
X213535Y189451D01*
X214536D01*
X215461Y189834D01*
X216168Y190541D01*
X216551Y191466D01*
Y192467D01*
X216168Y193392D01*
X215461Y194100D01*
X214536Y194483D01*
D02*
G37*
G36*
X182057Y194470D02*
X181056D01*
X180131Y194087D01*
X179423Y193379D01*
X179040Y192454D01*
Y191453D01*
X179423Y190529D01*
X180131Y189821D01*
X181056Y189438D01*
X182057D01*
X182981Y189821D01*
X183689Y190529D01*
X184072Y191453D01*
Y192454D01*
X183689Y193379D01*
X182981Y194087D01*
X182057Y194470D01*
D02*
G37*
G36*
X201566Y194405D02*
X200565D01*
X199641Y194022D01*
X198933Y193314D01*
X198550Y192390D01*
Y191388D01*
X198933Y190464D01*
X199641Y189756D01*
X200565Y189373D01*
X201566D01*
X202491Y189756D01*
X203199Y190464D01*
X203582Y191388D01*
Y192390D01*
X203199Y193314D01*
X202491Y194022D01*
X201566Y194405D01*
D02*
G37*
G36*
X194911Y188147D02*
X193910D01*
X192985Y187764D01*
X192277Y187056D01*
X191894Y186131D01*
Y185130D01*
X192277Y184205D01*
X192985Y183498D01*
X193910Y183115D01*
X194911D01*
X195835Y183498D01*
X196543Y184205D01*
X196926Y185130D01*
Y186131D01*
X196543Y187056D01*
X195835Y187764D01*
X194911Y188147D01*
D02*
G37*
G36*
X207987Y188007D02*
X206986D01*
X206061Y187624D01*
X205354Y186917D01*
X204971Y185992D01*
Y184991D01*
X205354Y184066D01*
X206061Y183358D01*
X206986Y182975D01*
X207987D01*
X208912Y183358D01*
X209620Y184066D01*
X210003Y184991D01*
Y185992D01*
X209620Y186917D01*
X208912Y187624D01*
X207987Y188007D01*
D02*
G37*
G36*
X201485D02*
X200484D01*
X199559Y187624D01*
X198851Y186917D01*
X198468Y185992D01*
Y184991D01*
X198851Y184066D01*
X199559Y183358D01*
X200484Y182975D01*
X201485D01*
X202409Y183358D01*
X203117Y184066D01*
X203500Y184991D01*
Y185992D01*
X203117Y186917D01*
X202409Y187624D01*
X201485Y188007D01*
D02*
G37*
G36*
X188480D02*
X187479D01*
X186554Y187624D01*
X185846Y186917D01*
X185463Y185992D01*
Y184991D01*
X185846Y184066D01*
X186554Y183358D01*
X187479Y182975D01*
X188480D01*
X189405Y183358D01*
X190112Y184066D01*
X190495Y184991D01*
Y185992D01*
X190112Y186917D01*
X189405Y187624D01*
X188480Y188007D01*
D02*
G37*
G36*
X182057Y187939D02*
X181056D01*
X180131Y187556D01*
X179423Y186849D01*
X179040Y185924D01*
Y184923D01*
X179423Y183998D01*
X180131Y183291D01*
X181056Y182908D01*
X182057D01*
X182981Y183291D01*
X183689Y183998D01*
X184072Y184923D01*
Y185924D01*
X183689Y186849D01*
X182981Y187556D01*
X182057Y187939D01*
D02*
G37*
G36*
X201681Y181659D02*
X200680D01*
X199755Y181276D01*
X199047Y180568D01*
X198664Y179644D01*
Y178643D01*
X199047Y177718D01*
X199755Y177010D01*
X200680Y176627D01*
X201681D01*
X202605Y177010D01*
X203313Y177718D01*
X203696Y178643D01*
Y179644D01*
X203313Y180568D01*
X202605Y181276D01*
X201681Y181659D01*
D02*
G37*
G36*
X207943Y181514D02*
X206942D01*
X206017Y181131D01*
X205309Y180423D01*
X204926Y179499D01*
Y178498D01*
X205309Y177573D01*
X206017Y176865D01*
X206942Y176482D01*
X207943D01*
X208867Y176865D01*
X209575Y177573D01*
X209958Y178498D01*
Y179499D01*
X209575Y180423D01*
X208867Y181131D01*
X207943Y181514D01*
D02*
G37*
G36*
X214430Y174989D02*
X213429D01*
X212504Y174606D01*
X211796Y173898D01*
X211413Y172973D01*
Y171972D01*
X211796Y171047D01*
X212504Y170340D01*
X213429Y169957D01*
X214430D01*
X215355Y170340D01*
X216062Y171047D01*
X216445Y171972D01*
Y172973D01*
X216062Y173898D01*
X215355Y174606D01*
X214430Y174989D01*
D02*
G37*
G36*
X208024D02*
X207023D01*
X206098Y174606D01*
X205390Y173898D01*
X205007Y172973D01*
Y171972D01*
X205390Y171047D01*
X206098Y170340D01*
X207023Y169957D01*
X208024D01*
X208949Y170340D01*
X209657Y171047D01*
X210040Y171972D01*
Y172973D01*
X209657Y173898D01*
X208949Y174606D01*
X208024Y174989D01*
D02*
G37*
G36*
X201467Y174949D02*
X200466D01*
X199541Y174566D01*
X198833Y173858D01*
X198450Y172934D01*
Y171933D01*
X198833Y171008D01*
X199541Y170300D01*
X200466Y169917D01*
X201467D01*
X202391Y170300D01*
X203099Y171008D01*
X203482Y171933D01*
Y172934D01*
X203099Y173858D01*
X202391Y174566D01*
X201467Y174949D01*
D02*
G37*
G36*
X214489Y168526D02*
X213489D01*
X212564Y168143D01*
X211856Y167435D01*
X211473Y166510D01*
Y165509D01*
X211856Y164584D01*
X212564Y163877D01*
X213489Y163494D01*
X214489D01*
X215414Y163877D01*
X216122Y164584D01*
X216505Y165509D01*
Y166510D01*
X216122Y167435D01*
X215414Y168143D01*
X214489Y168526D01*
D02*
G37*
G36*
X207987D02*
X206986D01*
X206061Y168143D01*
X205354Y167435D01*
X204971Y166510D01*
Y165509D01*
X205354Y164584D01*
X206061Y163877D01*
X206986Y163494D01*
X207987D01*
X208912Y163877D01*
X209620Y164584D01*
X210003Y165509D01*
Y166510D01*
X209620Y167435D01*
X208912Y168143D01*
X207987Y168526D01*
D02*
G37*
G36*
X201485D02*
X200484D01*
X199559Y168143D01*
X198851Y167435D01*
X198468Y166510D01*
Y165509D01*
X198851Y164584D01*
X199559Y163877D01*
X200484Y163494D01*
X201485D01*
X202409Y163877D01*
X203117Y164584D01*
X203500Y165509D01*
Y166510D01*
X203117Y167435D01*
X202409Y168143D01*
X201485Y168526D01*
D02*
G37*
G36*
X188480Y162033D02*
X187479D01*
X186554Y161650D01*
X185846Y160942D01*
X185463Y160017D01*
Y159017D01*
X185846Y158092D01*
X186554Y157384D01*
X187479Y157001D01*
X188480D01*
X189405Y157384D01*
X190112Y158092D01*
X190495Y159017D01*
Y160017D01*
X190112Y160942D01*
X189405Y161650D01*
X188480Y162033D01*
D02*
G37*
G36*
X259642Y201817D02*
X258641D01*
X257716Y201434D01*
X257008Y200726D01*
X256625Y199801D01*
Y198800D01*
X257008Y197875D01*
X257716Y197168D01*
X258641Y196785D01*
X259642D01*
X260567Y197168D01*
X261275Y197875D01*
X261658Y198800D01*
Y199801D01*
X261275Y200726D01*
X260567Y201434D01*
X259642Y201817D01*
D02*
G37*
G36*
X246953Y198844D02*
X245952D01*
X245028Y198461D01*
X244320Y197753D01*
X243937Y196828D01*
Y195827D01*
X244320Y194903D01*
X245028Y194195D01*
X245952Y193812D01*
X246953D01*
X247878Y194195D01*
X248586Y194903D01*
X248969Y195827D01*
Y196828D01*
X248586Y197753D01*
X247878Y198461D01*
X246953Y198844D01*
D02*
G37*
G36*
X149498Y194591D02*
X148497D01*
X147572Y194208D01*
X146865Y193500D01*
X146482Y192575D01*
Y191574D01*
X146865Y190650D01*
X147572Y189942D01*
X148497Y189559D01*
X149498D01*
X150423Y189942D01*
X151131Y190650D01*
X151514Y191574D01*
Y192575D01*
X151131Y193500D01*
X150423Y194208D01*
X149498Y194591D01*
D02*
G37*
G36*
X155987Y194518D02*
X154986D01*
X154061Y194135D01*
X153353Y193427D01*
X152970Y192502D01*
Y191501D01*
X153353Y190576D01*
X154061Y189869D01*
X154986Y189486D01*
X155987D01*
X156911Y189869D01*
X157619Y190576D01*
X158002Y191501D01*
Y192502D01*
X157619Y193427D01*
X156911Y194135D01*
X155987Y194518D01*
D02*
G37*
G36*
X155986Y188115D02*
X154986D01*
X154061Y187732D01*
X153353Y187024D01*
X152970Y186099D01*
Y185098D01*
X153353Y184173D01*
X154061Y183466D01*
X154986Y183083D01*
X155986D01*
X156911Y183466D01*
X157619Y184173D01*
X158002Y185098D01*
Y186099D01*
X157619Y187024D01*
X156911Y187732D01*
X155986Y188115D01*
D02*
G37*
G36*
X149394D02*
X148393D01*
X147468Y187732D01*
X146760Y187024D01*
X146377Y186099D01*
Y185098D01*
X146760Y184173D01*
X147468Y183466D01*
X148393Y183083D01*
X149394D01*
X150318Y183466D01*
X151026Y184173D01*
X151409Y185098D01*
Y186099D01*
X151026Y187024D01*
X150318Y187732D01*
X149394Y188115D01*
D02*
G37*
G36*
X162465Y188072D02*
X161465D01*
X160540Y187689D01*
X159832Y186982D01*
X159449Y186057D01*
Y185056D01*
X159832Y184131D01*
X160540Y183423D01*
X161465Y183040D01*
X162465D01*
X163390Y183423D01*
X164098Y184131D01*
X164481Y185056D01*
Y186057D01*
X164098Y186982D01*
X163390Y187689D01*
X162465Y188072D01*
D02*
G37*
G36*
X247420Y186985D02*
X246419D01*
X245494Y186602D01*
X244787Y185895D01*
X244404Y184970D01*
Y183969D01*
X244787Y183044D01*
X245494Y182337D01*
X246419Y181953D01*
X247420D01*
X248345Y182337D01*
X249053Y183044D01*
X249436Y183969D01*
Y184970D01*
X249053Y185895D01*
X248345Y186602D01*
X247420Y186985D01*
D02*
G37*
G36*
X162460Y181559D02*
X161459D01*
X160534Y181176D01*
X159826Y180468D01*
X159444Y179543D01*
Y178542D01*
X159826Y177617D01*
X160534Y176910D01*
X161459Y176527D01*
X162460D01*
X163385Y176910D01*
X164093Y177617D01*
X164475Y178542D01*
Y179543D01*
X164093Y180468D01*
X163385Y181176D01*
X162460Y181559D01*
D02*
G37*
G36*
X156011D02*
X155010D01*
X154085Y181176D01*
X153377Y180468D01*
X152994Y179543D01*
Y178542D01*
X153377Y177617D01*
X154085Y176910D01*
X155010Y176527D01*
X156011D01*
X156936Y176910D01*
X157643Y177617D01*
X158026Y178542D01*
Y179543D01*
X157643Y180468D01*
X156936Y181176D01*
X156011Y181559D01*
D02*
G37*
G36*
X149378D02*
X148378D01*
X147453Y181176D01*
X146745Y180468D01*
X146362Y179543D01*
Y178542D01*
X146745Y177617D01*
X147453Y176910D01*
X148378Y176527D01*
X149378D01*
X150303Y176910D01*
X151011Y177617D01*
X151394Y178542D01*
Y179543D01*
X151011Y180468D01*
X150303Y181176D01*
X149378Y181559D01*
D02*
G37*
G36*
X169057Y181486D02*
X168056D01*
X167131Y181103D01*
X166423Y180395D01*
X166040Y179471D01*
Y178470D01*
X166423Y177545D01*
X167131Y176837D01*
X168056Y176454D01*
X169057D01*
X169981Y176837D01*
X170689Y177545D01*
X171072Y178470D01*
Y179471D01*
X170689Y180395D01*
X169981Y181103D01*
X169057Y181486D01*
D02*
G37*
G36*
X240499Y175003D02*
X239498D01*
X238573Y174620D01*
X237866Y173912D01*
X237483Y172987D01*
Y171986D01*
X237866Y171061D01*
X238573Y170354D01*
X239498Y169971D01*
X240499D01*
X241424Y170354D01*
X242132Y171061D01*
X242515Y171986D01*
Y172987D01*
X242132Y173912D01*
X241424Y174620D01*
X240499Y175003D01*
D02*
G37*
G36*
X188480D02*
X187479D01*
X186554Y174620D01*
X185846Y173912D01*
X185463Y172987D01*
Y171986D01*
X185846Y171061D01*
X186554Y170354D01*
X187479Y169971D01*
X188480D01*
X189405Y170354D01*
X190112Y171061D01*
X190495Y171986D01*
Y172987D01*
X190112Y173912D01*
X189405Y174620D01*
X188480Y175003D01*
D02*
G37*
G36*
X181978D02*
X180977D01*
X180052Y174620D01*
X179344Y173912D01*
X178961Y172987D01*
Y171986D01*
X179344Y171061D01*
X180052Y170354D01*
X180977Y169971D01*
X181978D01*
X182902Y170354D01*
X183610Y171061D01*
X183993Y171986D01*
Y172987D01*
X183610Y173912D01*
X182902Y174620D01*
X181978Y175003D01*
D02*
G37*
G36*
X162496D02*
X161495D01*
X160570Y174620D01*
X159862Y173912D01*
X159479Y172987D01*
Y171986D01*
X159862Y171061D01*
X160570Y170354D01*
X161495Y169971D01*
X162496D01*
X163420Y170354D01*
X164128Y171061D01*
X164511Y171986D01*
Y172987D01*
X164128Y173912D01*
X163420Y174620D01*
X162496Y175003D01*
D02*
G37*
G36*
X155993D02*
X154992D01*
X154068Y174620D01*
X153360Y173912D01*
X152977Y172987D01*
Y171986D01*
X153360Y171061D01*
X154068Y170354D01*
X154992Y169971D01*
X155993D01*
X156918Y170354D01*
X157626Y171061D01*
X158009Y171986D01*
Y172987D01*
X157626Y173912D01*
X156918Y174620D01*
X155993Y175003D01*
D02*
G37*
G36*
X128582Y174886D02*
X127582D01*
X126657Y174503D01*
X125949Y173795D01*
X125566Y172870D01*
Y171870D01*
X125949Y170945D01*
X126657Y170237D01*
X127582Y169854D01*
X128582D01*
X129507Y170237D01*
X130215Y170945D01*
X130598Y171870D01*
Y172870D01*
X130215Y173795D01*
X129507Y174503D01*
X128582Y174886D01*
D02*
G37*
G36*
X262579Y172159D02*
X261578D01*
X260654Y171776D01*
X259946Y171068D01*
X259563Y170143D01*
Y169142D01*
X259946Y168218D01*
X260654Y167510D01*
X261578Y167127D01*
X262579D01*
X263504Y167510D01*
X264212Y168218D01*
X264595Y169142D01*
Y170143D01*
X264212Y171068D01*
X263504Y171776D01*
X262579Y172159D01*
D02*
G37*
G36*
X156062Y168559D02*
X155062D01*
X154137Y168176D01*
X153429Y167468D01*
X153046Y166543D01*
Y165542D01*
X153429Y164618D01*
X154137Y163910D01*
X155062Y163527D01*
X156062D01*
X156987Y163910D01*
X157695Y164618D01*
X158078Y165542D01*
Y166543D01*
X157695Y167468D01*
X156987Y168176D01*
X156062Y168559D01*
D02*
G37*
G36*
X168998Y168526D02*
X167997D01*
X167072Y168143D01*
X166365Y167435D01*
X165982Y166510D01*
Y165509D01*
X166365Y164584D01*
X167072Y163877D01*
X167997Y163494D01*
X168998D01*
X169923Y163877D01*
X170631Y164584D01*
X171014Y165509D01*
Y166510D01*
X170631Y167435D01*
X169923Y168143D01*
X168998Y168526D01*
D02*
G37*
G36*
X262579Y165994D02*
X261578D01*
X260654Y165611D01*
X259946Y164903D01*
X259563Y163979D01*
Y162978D01*
X259946Y162053D01*
X260654Y161345D01*
X261578Y160962D01*
X262579D01*
X263504Y161345D01*
X264212Y162053D01*
X264595Y162978D01*
Y163979D01*
X264212Y164903D01*
X263504Y165611D01*
X262579Y165994D01*
D02*
G37*
G36*
X130581Y165275D02*
X129580D01*
X128655Y164891D01*
X127947Y164184D01*
X127564Y163259D01*
Y162258D01*
X127947Y161333D01*
X128655Y160626D01*
X129580Y160243D01*
X130581D01*
X131505Y160626D01*
X132213Y161333D01*
X132596Y162258D01*
Y163259D01*
X132213Y164184D01*
X131505Y164891D01*
X130581Y165275D01*
D02*
G37*
G36*
X136558Y149432D02*
X135557D01*
X134632Y149049D01*
X133924Y148341D01*
X133541Y147416D01*
Y146416D01*
X133924Y145491D01*
X134632Y144783D01*
X135557Y144400D01*
X136558D01*
X137482Y144783D01*
X138190Y145491D01*
X138573Y146416D01*
Y147416D01*
X138190Y148341D01*
X137482Y149049D01*
X136558Y149432D01*
D02*
G37*
G36*
X149498Y149020D02*
X148497D01*
X147572Y148637D01*
X146865Y147929D01*
X146482Y147004D01*
Y146003D01*
X146865Y145078D01*
X147572Y144371D01*
X148497Y143988D01*
X149498D01*
X150423Y144371D01*
X151131Y145078D01*
X151514Y146003D01*
Y147004D01*
X151131Y147929D01*
X150423Y148637D01*
X149498Y149020D01*
D02*
G37*
G36*
X194982Y149018D02*
X193981D01*
X193057Y148635D01*
X192349Y147928D01*
X191966Y147003D01*
Y146002D01*
X192349Y145077D01*
X193057Y144369D01*
X193981Y143986D01*
X194982D01*
X195907Y144369D01*
X196615Y145077D01*
X196998Y146002D01*
Y147003D01*
X196615Y147928D01*
X195907Y148635D01*
X194982Y149018D01*
D02*
G37*
G36*
X188480D02*
X187479D01*
X186554Y148635D01*
X185846Y147928D01*
X185463Y147003D01*
Y146002D01*
X185846Y145077D01*
X186554Y144369D01*
X187479Y143986D01*
X188480D01*
X189405Y144369D01*
X190112Y145077D01*
X190495Y146002D01*
Y147003D01*
X190112Y147928D01*
X189405Y148635D01*
X188480Y149018D01*
D02*
G37*
G36*
X181978D02*
X180977D01*
X180052Y148635D01*
X179344Y147928D01*
X178961Y147003D01*
Y146002D01*
X179344Y145077D01*
X180052Y144369D01*
X180977Y143986D01*
X181978D01*
X182902Y144369D01*
X183610Y145077D01*
X183993Y146002D01*
Y147003D01*
X183610Y147928D01*
X182902Y148635D01*
X181978Y149018D01*
D02*
G37*
G36*
X175501D02*
X174499D01*
X173575Y148635D01*
X172867Y147928D01*
X172484Y147003D01*
Y146002D01*
X172867Y145077D01*
X173575Y144369D01*
X174499Y143986D01*
X175501D01*
X176425Y144369D01*
X177133Y145077D01*
X177516Y146002D01*
Y147003D01*
X177133Y147928D01*
X176425Y148635D01*
X175501Y149018D01*
D02*
G37*
G36*
X168998D02*
X167997D01*
X167072Y148635D01*
X166365Y147928D01*
X165982Y147003D01*
Y146002D01*
X166365Y145077D01*
X167072Y144369D01*
X167997Y143986D01*
X168998D01*
X169923Y144369D01*
X170631Y145077D01*
X171014Y146002D01*
Y147003D01*
X170631Y147928D01*
X169923Y148635D01*
X168998Y149018D01*
D02*
G37*
G36*
X162496D02*
X161495D01*
X160570Y148635D01*
X159862Y147928D01*
X159479Y147003D01*
Y146002D01*
X159862Y145077D01*
X160570Y144369D01*
X161495Y143986D01*
X162496D01*
X163420Y144369D01*
X164128Y145077D01*
X164511Y146002D01*
Y147003D01*
X164128Y147928D01*
X163420Y148635D01*
X162496Y149018D01*
D02*
G37*
G36*
X155993D02*
X154992D01*
X154068Y148635D01*
X153360Y147928D01*
X152977Y147003D01*
Y146002D01*
X153360Y145077D01*
X154068Y144369D01*
X154992Y143986D01*
X155993D01*
X156918Y144369D01*
X157626Y145077D01*
X158009Y146002D01*
Y147003D01*
X157626Y147928D01*
X156918Y148635D01*
X155993Y149018D01*
D02*
G37*
G36*
X142918Y142554D02*
X141917D01*
X140993Y142171D01*
X140285Y141463D01*
X139902Y140539D01*
Y139538D01*
X140285Y138613D01*
X140993Y137905D01*
X141917Y137522D01*
X142918D01*
X143843Y137905D01*
X144551Y138613D01*
X144934Y139538D01*
Y140539D01*
X144551Y141463D01*
X143843Y142171D01*
X142918Y142554D01*
D02*
G37*
G36*
X194982Y142516D02*
X193981D01*
X193057Y142133D01*
X192349Y141425D01*
X191966Y140500D01*
Y139500D01*
X192349Y138575D01*
X193057Y137867D01*
X193981Y137484D01*
X194982D01*
X195907Y137867D01*
X196615Y138575D01*
X196998Y139500D01*
Y140500D01*
X196615Y141425D01*
X195907Y142133D01*
X194982Y142516D01*
D02*
G37*
G36*
X188480D02*
X187479D01*
X186554Y142133D01*
X185846Y141425D01*
X185463Y140500D01*
Y139500D01*
X185846Y138575D01*
X186554Y137867D01*
X187479Y137484D01*
X188480D01*
X189405Y137867D01*
X190112Y138575D01*
X190495Y139500D01*
Y140500D01*
X190112Y141425D01*
X189405Y142133D01*
X188480Y142516D01*
D02*
G37*
G36*
X181978D02*
X180977D01*
X180052Y142133D01*
X179344Y141425D01*
X178961Y140500D01*
Y139500D01*
X179344Y138575D01*
X180052Y137867D01*
X180977Y137484D01*
X181978D01*
X182902Y137867D01*
X183610Y138575D01*
X183993Y139500D01*
Y140500D01*
X183610Y141425D01*
X182902Y142133D01*
X181978Y142516D01*
D02*
G37*
G36*
X175501D02*
X174499D01*
X173575Y142133D01*
X172867Y141425D01*
X172484Y140500D01*
Y139500D01*
X172867Y138575D01*
X173575Y137867D01*
X174499Y137484D01*
X175501D01*
X176425Y137867D01*
X177133Y138575D01*
X177516Y139500D01*
Y140500D01*
X177133Y141425D01*
X176425Y142133D01*
X175501Y142516D01*
D02*
G37*
G36*
X162496D02*
X161495D01*
X160570Y142133D01*
X159862Y141425D01*
X159479Y140500D01*
Y139500D01*
X159862Y138575D01*
X160570Y137867D01*
X161495Y137484D01*
X162496D01*
X163420Y137867D01*
X164128Y138575D01*
X164511Y139500D01*
Y140500D01*
X164128Y141425D01*
X163420Y142133D01*
X162496Y142516D01*
D02*
G37*
G36*
X155993D02*
X154992D01*
X154068Y142133D01*
X153360Y141425D01*
X152977Y140500D01*
Y139500D01*
X153360Y138575D01*
X154068Y137867D01*
X154992Y137484D01*
X155993D01*
X156918Y137867D01*
X157626Y138575D01*
X158009Y139500D01*
Y140500D01*
X157626Y141425D01*
X156918Y142133D01*
X155993Y142516D01*
D02*
G37*
G36*
X149498Y142494D02*
X148497D01*
X147572Y142111D01*
X146865Y141403D01*
X146482Y140479D01*
Y139478D01*
X146865Y138553D01*
X147572Y137845D01*
X148497Y137462D01*
X149498D01*
X150423Y137845D01*
X151131Y138553D01*
X151514Y139478D01*
Y140479D01*
X151131Y141403D01*
X150423Y142111D01*
X149498Y142494D01*
D02*
G37*
G36*
X227494Y136014D02*
X226493D01*
X225569Y135631D01*
X224861Y134923D01*
X224478Y133998D01*
Y132997D01*
X224861Y132072D01*
X225569Y131365D01*
X226493Y130982D01*
X227494D01*
X228419Y131365D01*
X229127Y132072D01*
X229510Y132997D01*
Y133998D01*
X229127Y134923D01*
X228419Y135631D01*
X227494Y136014D01*
D02*
G37*
G36*
X194982D02*
X193981D01*
X193057Y135631D01*
X192349Y134923D01*
X191966Y133998D01*
Y132997D01*
X192349Y132072D01*
X193057Y131365D01*
X193981Y130982D01*
X194982D01*
X195907Y131365D01*
X196615Y132072D01*
X196998Y132997D01*
Y133998D01*
X196615Y134923D01*
X195907Y135631D01*
X194982Y136014D01*
D02*
G37*
G36*
X188480D02*
X187479D01*
X186554Y135631D01*
X185846Y134923D01*
X185463Y133998D01*
Y132997D01*
X185846Y132072D01*
X186554Y131365D01*
X187479Y130982D01*
X188480D01*
X189405Y131365D01*
X190112Y132072D01*
X190495Y132997D01*
Y133998D01*
X190112Y134923D01*
X189405Y135631D01*
X188480Y136014D01*
D02*
G37*
G36*
X181978D02*
X180977D01*
X180052Y135631D01*
X179344Y134923D01*
X178961Y133998D01*
Y132997D01*
X179344Y132072D01*
X180052Y131365D01*
X180977Y130982D01*
X181978D01*
X182902Y131365D01*
X183610Y132072D01*
X183993Y132997D01*
Y133998D01*
X183610Y134923D01*
X182902Y135631D01*
X181978Y136014D01*
D02*
G37*
G36*
X175501D02*
X174499D01*
X173575Y135631D01*
X172867Y134923D01*
X172484Y133998D01*
Y132997D01*
X172867Y132072D01*
X173575Y131365D01*
X174499Y130982D01*
X175501D01*
X176425Y131365D01*
X177133Y132072D01*
X177516Y132997D01*
Y133998D01*
X177133Y134923D01*
X176425Y135631D01*
X175501Y136014D01*
D02*
G37*
G36*
X168998D02*
X167997D01*
X167072Y135631D01*
X166365Y134923D01*
X165982Y133998D01*
Y132997D01*
X166365Y132072D01*
X167072Y131365D01*
X167997Y130982D01*
X168998D01*
X169923Y131365D01*
X170631Y132072D01*
X171014Y132997D01*
Y133998D01*
X170631Y134923D01*
X169923Y135631D01*
X168998Y136014D01*
D02*
G37*
G36*
X162496D02*
X161495D01*
X160570Y135631D01*
X159862Y134923D01*
X159479Y133998D01*
Y132997D01*
X159862Y132072D01*
X160570Y131365D01*
X161495Y130982D01*
X162496D01*
X163420Y131365D01*
X164128Y132072D01*
X164511Y132997D01*
Y133998D01*
X164128Y134923D01*
X163420Y135631D01*
X162496Y136014D01*
D02*
G37*
G36*
X155993D02*
X154992D01*
X154068Y135631D01*
X153360Y134923D01*
X152977Y133998D01*
Y132997D01*
X153360Y132072D01*
X154068Y131365D01*
X154992Y130982D01*
X155993D01*
X156918Y131365D01*
X157626Y132072D01*
X158009Y132997D01*
Y133998D01*
X157626Y134923D01*
X156918Y135631D01*
X155993Y136014D01*
D02*
G37*
G36*
X149492Y135942D02*
X148491D01*
X147566Y135559D01*
X146858Y134851D01*
X146475Y133926D01*
Y132926D01*
X146858Y132001D01*
X147566Y131293D01*
X148491Y130910D01*
X149492D01*
X150416Y131293D01*
X151124Y132001D01*
X151507Y132926D01*
Y133926D01*
X151124Y134851D01*
X150416Y135559D01*
X149492Y135942D01*
D02*
G37*
G36*
X137665Y134238D02*
X136664D01*
X135739Y133855D01*
X135031Y133147D01*
X134648Y132222D01*
Y131222D01*
X135031Y130297D01*
X135739Y129589D01*
X136664Y129206D01*
X137665D01*
X138589Y129589D01*
X139297Y130297D01*
X139680Y131222D01*
Y132222D01*
X139297Y133147D01*
X138589Y133855D01*
X137665Y134238D01*
D02*
G37*
G36*
X262572Y132421D02*
X261571D01*
X260646Y132038D01*
X259939Y131330D01*
X259556Y130406D01*
Y129405D01*
X259939Y128480D01*
X260646Y127772D01*
X261571Y127389D01*
X262572D01*
X263497Y127772D01*
X264205Y128480D01*
X264588Y129405D01*
Y130406D01*
X264205Y131330D01*
X263497Y132038D01*
X262572Y132421D01*
D02*
G37*
G36*
X220992Y129511D02*
X219991D01*
X219066Y129128D01*
X218358Y128420D01*
X217975Y127496D01*
Y126495D01*
X218358Y125570D01*
X219066Y124862D01*
X219991Y124479D01*
X220992D01*
X221917Y124862D01*
X222624Y125570D01*
X223007Y126495D01*
Y127496D01*
X222624Y128420D01*
X221917Y129128D01*
X220992Y129511D01*
D02*
G37*
G36*
X194982D02*
X193981D01*
X193057Y129128D01*
X192349Y128420D01*
X191966Y127496D01*
Y126495D01*
X192349Y125570D01*
X193057Y124862D01*
X193981Y124479D01*
X194982D01*
X195907Y124862D01*
X196615Y125570D01*
X196998Y126495D01*
Y127496D01*
X196615Y128420D01*
X195907Y129128D01*
X194982Y129511D01*
D02*
G37*
G36*
X188480D02*
X187479D01*
X186554Y129128D01*
X185846Y128420D01*
X185463Y127496D01*
Y126495D01*
X185846Y125570D01*
X186554Y124862D01*
X187479Y124479D01*
X188480D01*
X189405Y124862D01*
X190112Y125570D01*
X190495Y126495D01*
Y127496D01*
X190112Y128420D01*
X189405Y129128D01*
X188480Y129511D01*
D02*
G37*
G36*
X181978D02*
X180977D01*
X180052Y129128D01*
X179344Y128420D01*
X178961Y127496D01*
Y126495D01*
X179344Y125570D01*
X180052Y124862D01*
X180977Y124479D01*
X181978D01*
X182902Y124862D01*
X183610Y125570D01*
X183993Y126495D01*
Y127496D01*
X183610Y128420D01*
X182902Y129128D01*
X181978Y129511D01*
D02*
G37*
G36*
X175501D02*
X174499D01*
X173575Y129128D01*
X172867Y128420D01*
X172484Y127496D01*
Y126495D01*
X172867Y125570D01*
X173575Y124862D01*
X174499Y124479D01*
X175501D01*
X176425Y124862D01*
X177133Y125570D01*
X177516Y126495D01*
Y127496D01*
X177133Y128420D01*
X176425Y129128D01*
X175501Y129511D01*
D02*
G37*
G36*
X168998D02*
X167997D01*
X167072Y129128D01*
X166365Y128420D01*
X165982Y127496D01*
Y126495D01*
X166365Y125570D01*
X167072Y124862D01*
X167997Y124479D01*
X168998D01*
X169923Y124862D01*
X170631Y125570D01*
X171014Y126495D01*
Y127496D01*
X170631Y128420D01*
X169923Y129128D01*
X168998Y129511D01*
D02*
G37*
G36*
X162496D02*
X161495D01*
X160570Y129128D01*
X159862Y128420D01*
X159479Y127496D01*
Y126495D01*
X159862Y125570D01*
X160570Y124862D01*
X161495Y124479D01*
X162496D01*
X163420Y124862D01*
X164128Y125570D01*
X164511Y126495D01*
Y127496D01*
X164128Y128420D01*
X163420Y129128D01*
X162496Y129511D01*
D02*
G37*
G36*
X227538Y129500D02*
X226537D01*
X225612Y129117D01*
X224904Y128409D01*
X224521Y127485D01*
Y126484D01*
X224904Y125559D01*
X225612Y124851D01*
X226537Y124468D01*
X227538D01*
X228462Y124851D01*
X229170Y125559D01*
X229553Y126484D01*
Y127485D01*
X229170Y128409D01*
X228462Y129117D01*
X227538Y129500D01*
D02*
G37*
G36*
X252189Y128516D02*
X251188D01*
X250263Y128133D01*
X249555Y127425D01*
X249172Y126501D01*
Y125499D01*
X249555Y124575D01*
X250263Y123867D01*
X251188Y123484D01*
X252189D01*
X253114Y123867D01*
X253821Y124575D01*
X254204Y125499D01*
Y126501D01*
X253821Y127425D01*
X253114Y128133D01*
X252189Y128516D01*
D02*
G37*
G36*
X264122Y126396D02*
X263121D01*
X262196Y126013D01*
X261488Y125305D01*
X261105Y124381D01*
Y123380D01*
X261488Y122455D01*
X262196Y121747D01*
X263121Y121364D01*
X264122D01*
X265046Y121747D01*
X265754Y122455D01*
X266137Y123380D01*
Y124381D01*
X265754Y125305D01*
X265046Y126013D01*
X264122Y126396D01*
D02*
G37*
G36*
X149460Y123052D02*
X148459D01*
X147534Y122669D01*
X146826Y121961D01*
X146443Y121036D01*
Y120035D01*
X146826Y119111D01*
X147534Y118403D01*
X148459Y118020D01*
X149460D01*
X150385Y118403D01*
X151092Y119111D01*
X151475Y120035D01*
Y121036D01*
X151092Y121961D01*
X150385Y122669D01*
X149460Y123052D01*
D02*
G37*
G36*
X220992Y123009D02*
X219991D01*
X219066Y122626D01*
X218358Y121918D01*
X217975Y120993D01*
Y119992D01*
X218358Y119068D01*
X219066Y118360D01*
X219991Y117977D01*
X220992D01*
X221917Y118360D01*
X222624Y119068D01*
X223007Y119992D01*
Y120993D01*
X222624Y121918D01*
X221917Y122626D01*
X220992Y123009D01*
D02*
G37*
G36*
X188480D02*
X187479D01*
X186554Y122626D01*
X185846Y121918D01*
X185463Y120993D01*
Y119992D01*
X185846Y119068D01*
X186554Y118360D01*
X187479Y117977D01*
X188480D01*
X189405Y118360D01*
X190112Y119068D01*
X190495Y119992D01*
Y120993D01*
X190112Y121918D01*
X189405Y122626D01*
X188480Y123009D01*
D02*
G37*
G36*
X181978D02*
X180977D01*
X180052Y122626D01*
X179344Y121918D01*
X178961Y120993D01*
Y119992D01*
X179344Y119068D01*
X180052Y118360D01*
X180977Y117977D01*
X181978D01*
X182902Y118360D01*
X183610Y119068D01*
X183993Y119992D01*
Y120993D01*
X183610Y121918D01*
X182902Y122626D01*
X181978Y123009D01*
D02*
G37*
G36*
X175501D02*
X174499D01*
X173575Y122626D01*
X172867Y121918D01*
X172484Y120993D01*
Y119992D01*
X172867Y119068D01*
X173575Y118360D01*
X174499Y117977D01*
X175501D01*
X176425Y118360D01*
X177133Y119068D01*
X177516Y119992D01*
Y120993D01*
X177133Y121918D01*
X176425Y122626D01*
X175501Y123009D01*
D02*
G37*
G36*
X168998D02*
X167997D01*
X167072Y122626D01*
X166365Y121918D01*
X165982Y120993D01*
Y119992D01*
X166365Y119068D01*
X167072Y118360D01*
X167997Y117977D01*
X168998D01*
X169923Y118360D01*
X170631Y119068D01*
X171014Y119992D01*
Y120993D01*
X170631Y121918D01*
X169923Y122626D01*
X168998Y123009D01*
D02*
G37*
G36*
X155993D02*
X154992D01*
X154068Y122626D01*
X153360Y121918D01*
X152977Y120993D01*
Y119992D01*
X153360Y119068D01*
X154068Y118360D01*
X154992Y117977D01*
X155993D01*
X156918Y118360D01*
X157626Y119068D01*
X158009Y119992D01*
Y120993D01*
X157626Y121918D01*
X156918Y122626D01*
X155993Y123009D01*
D02*
G37*
G36*
X252186Y119221D02*
X251185D01*
X250260Y118838D01*
X249552Y118131D01*
X249169Y117206D01*
Y116205D01*
X249552Y115280D01*
X250260Y114572D01*
X251185Y114190D01*
X252186D01*
X253111Y114572D01*
X253818Y115280D01*
X254201Y116205D01*
Y117206D01*
X253818Y118131D01*
X253111Y118838D01*
X252186Y119221D01*
D02*
G37*
G36*
X220992Y116506D02*
X219991D01*
X219066Y116123D01*
X218358Y115416D01*
X217975Y114491D01*
Y113490D01*
X218358Y112565D01*
X219066Y111857D01*
X219991Y111474D01*
X220992D01*
X221917Y111857D01*
X222624Y112565D01*
X223007Y113490D01*
Y114491D01*
X222624Y115416D01*
X221917Y116123D01*
X220992Y116506D01*
D02*
G37*
G36*
X214489D02*
X213489D01*
X212564Y116123D01*
X211856Y115416D01*
X211473Y114491D01*
Y113490D01*
X211856Y112565D01*
X212564Y111857D01*
X213489Y111474D01*
X214489D01*
X215414Y111857D01*
X216122Y112565D01*
X216505Y113490D01*
Y114491D01*
X216122Y115416D01*
X215414Y116123D01*
X214489Y116506D01*
D02*
G37*
G36*
X188480D02*
X187479D01*
X186554Y116123D01*
X185846Y115416D01*
X185463Y114491D01*
Y113490D01*
X185846Y112565D01*
X186554Y111857D01*
X187479Y111474D01*
X188480D01*
X189405Y111857D01*
X190112Y112565D01*
X190495Y113490D01*
Y114491D01*
X190112Y115416D01*
X189405Y116123D01*
X188480Y116506D01*
D02*
G37*
G36*
X181978D02*
X180977D01*
X180052Y116123D01*
X179344Y115416D01*
X178961Y114491D01*
Y113490D01*
X179344Y112565D01*
X180052Y111857D01*
X180977Y111474D01*
X181978D01*
X182902Y111857D01*
X183610Y112565D01*
X183993Y113490D01*
Y114491D01*
X183610Y115416D01*
X182902Y116123D01*
X181978Y116506D01*
D02*
G37*
G36*
X175501D02*
X174499D01*
X173575Y116123D01*
X172867Y115416D01*
X172484Y114491D01*
Y113490D01*
X172867Y112565D01*
X173575Y111857D01*
X174499Y111474D01*
X175501D01*
X176425Y111857D01*
X177133Y112565D01*
X177516Y113490D01*
Y114491D01*
X177133Y115416D01*
X176425Y116123D01*
X175501Y116506D01*
D02*
G37*
G36*
X168998D02*
X167997D01*
X167072Y116123D01*
X166365Y115416D01*
X165982Y114491D01*
Y113490D01*
X166365Y112565D01*
X167072Y111857D01*
X167997Y111474D01*
X168998D01*
X169923Y111857D01*
X170631Y112565D01*
X171014Y113490D01*
Y114491D01*
X170631Y115416D01*
X169923Y116123D01*
X168998Y116506D01*
D02*
G37*
G36*
X155993D02*
X154992D01*
X154068Y116123D01*
X153360Y115416D01*
X152977Y114491D01*
Y113490D01*
X153360Y112565D01*
X154068Y111857D01*
X154992Y111474D01*
X155993D01*
X156918Y111857D01*
X157626Y112565D01*
X158009Y113490D01*
Y114491D01*
X157626Y115416D01*
X156918Y116123D01*
X155993Y116506D01*
D02*
G37*
G36*
X149437Y116493D02*
X148436D01*
X147512Y116110D01*
X146804Y115402D01*
X146421Y114477D01*
Y113476D01*
X146804Y112552D01*
X147512Y111844D01*
X148436Y111461D01*
X149437D01*
X150362Y111844D01*
X151070Y112552D01*
X151453Y113476D01*
Y114477D01*
X151070Y115402D01*
X150362Y116110D01*
X149437Y116493D01*
D02*
G37*
G36*
X220936Y110019D02*
X219935D01*
X219010Y109636D01*
X218303Y108928D01*
X217920Y108004D01*
Y107003D01*
X218303Y106078D01*
X219010Y105370D01*
X219935Y104987D01*
X220936D01*
X221861Y105370D01*
X222568Y106078D01*
X222952Y107003D01*
Y108004D01*
X222568Y108928D01*
X221861Y109636D01*
X220936Y110019D01*
D02*
G37*
G36*
X214489Y110004D02*
X213489D01*
X212564Y109621D01*
X211856Y108913D01*
X211473Y107989D01*
Y106987D01*
X211856Y106063D01*
X212564Y105355D01*
X213489Y104972D01*
X214489D01*
X215414Y105355D01*
X216122Y106063D01*
X216505Y106987D01*
Y107989D01*
X216122Y108913D01*
X215414Y109621D01*
X214489Y110004D01*
D02*
G37*
G36*
X207987D02*
X206986D01*
X206061Y109621D01*
X205354Y108913D01*
X204971Y107989D01*
Y106987D01*
X205354Y106063D01*
X206061Y105355D01*
X206986Y104972D01*
X207987D01*
X208912Y105355D01*
X209620Y106063D01*
X210003Y106987D01*
Y107989D01*
X209620Y108913D01*
X208912Y109621D01*
X207987Y110004D01*
D02*
G37*
G36*
X188480D02*
X187479D01*
X186554Y109621D01*
X185846Y108913D01*
X185463Y107989D01*
Y106987D01*
X185846Y106063D01*
X186554Y105355D01*
X187479Y104972D01*
X188480D01*
X189405Y105355D01*
X190112Y106063D01*
X190495Y106987D01*
Y107989D01*
X190112Y108913D01*
X189405Y109621D01*
X188480Y110004D01*
D02*
G37*
G36*
X181978D02*
X180977D01*
X180052Y109621D01*
X179344Y108913D01*
X178961Y107989D01*
Y106987D01*
X179344Y106063D01*
X180052Y105355D01*
X180977Y104972D01*
X181978D01*
X182902Y105355D01*
X183610Y106063D01*
X183993Y106987D01*
Y107989D01*
X183610Y108913D01*
X182902Y109621D01*
X181978Y110004D01*
D02*
G37*
G36*
X175501D02*
X174499D01*
X173575Y109621D01*
X172867Y108913D01*
X172484Y107989D01*
Y106987D01*
X172867Y106063D01*
X173575Y105355D01*
X174499Y104972D01*
X175501D01*
X176425Y105355D01*
X177133Y106063D01*
X177516Y106987D01*
Y107989D01*
X177133Y108913D01*
X176425Y109621D01*
X175501Y110004D01*
D02*
G37*
G36*
X149491D02*
X148490D01*
X147565Y109621D01*
X146857Y108913D01*
X146474Y107989D01*
Y106987D01*
X146857Y106063D01*
X147565Y105355D01*
X148490Y104972D01*
X149491D01*
X150416Y105355D01*
X151123Y106063D01*
X151506Y106987D01*
Y107989D01*
X151123Y108913D01*
X150416Y109621D01*
X149491Y110004D01*
D02*
G37*
G36*
X142989D02*
X141987D01*
X141063Y109621D01*
X140355Y108913D01*
X139972Y107989D01*
Y106987D01*
X140355Y106063D01*
X141063Y105355D01*
X141987Y104972D01*
X142989D01*
X143913Y105355D01*
X144621Y106063D01*
X145004Y106987D01*
Y107989D01*
X144621Y108913D01*
X143913Y109621D01*
X142989Y110004D01*
D02*
G37*
G36*
X227500Y109981D02*
X226499D01*
X225574Y109598D01*
X224866Y108890D01*
X224483Y107965D01*
Y106965D01*
X224866Y106040D01*
X225574Y105332D01*
X226499Y104949D01*
X227500D01*
X228424Y105332D01*
X229132Y106040D01*
X229515Y106965D01*
Y107965D01*
X229132Y108890D01*
X228424Y109598D01*
X227500Y109981D01*
D02*
G37*
G36*
X168922D02*
X167921D01*
X166996Y109598D01*
X166289Y108890D01*
X165906Y107965D01*
Y106965D01*
X166289Y106040D01*
X166996Y105332D01*
X167921Y104949D01*
X168922D01*
X169847Y105332D01*
X170555Y106040D01*
X170938Y106965D01*
Y107965D01*
X170555Y108890D01*
X169847Y109598D01*
X168922Y109981D01*
D02*
G37*
G36*
X162473Y109950D02*
X161472D01*
X160547Y109567D01*
X159839Y108860D01*
X159456Y107935D01*
Y106934D01*
X159839Y106009D01*
X160547Y105301D01*
X161472Y104918D01*
X162473D01*
X163398Y105301D01*
X164105Y106009D01*
X164488Y106934D01*
Y107935D01*
X164105Y108860D01*
X163398Y109567D01*
X162473Y109950D01*
D02*
G37*
G36*
X155985D02*
X154985D01*
X154060Y109567D01*
X153352Y108860D01*
X152969Y107935D01*
Y106934D01*
X153352Y106009D01*
X154060Y105301D01*
X154985Y104918D01*
X155985D01*
X156910Y105301D01*
X157618Y106009D01*
X158001Y106934D01*
Y107935D01*
X157618Y108860D01*
X156910Y109567D01*
X155985Y109950D01*
D02*
G37*
G36*
X214151Y103791D02*
X213150D01*
X212225Y103408D01*
X211518Y102700D01*
X211135Y101776D01*
Y100775D01*
X211518Y99850D01*
X212225Y99142D01*
X213150Y98759D01*
X214151D01*
X215076Y99142D01*
X215784Y99850D01*
X216166Y100775D01*
Y101776D01*
X215784Y102700D01*
X215076Y103408D01*
X214151Y103791D01*
D02*
G37*
G36*
X233987Y103570D02*
X232986D01*
X232062Y103187D01*
X231354Y102479D01*
X230971Y101554D01*
Y100553D01*
X231354Y99629D01*
X232062Y98921D01*
X232986Y98538D01*
X233987D01*
X234912Y98921D01*
X235620Y99629D01*
X236003Y100553D01*
Y101554D01*
X235620Y102479D01*
X234912Y103187D01*
X233987Y103570D01*
D02*
G37*
G36*
X162473D02*
X161472D01*
X160547Y103187D01*
X159839Y102479D01*
X159456Y101554D01*
Y100553D01*
X159839Y99629D01*
X160547Y98921D01*
X161472Y98538D01*
X162473D01*
X163398Y98921D01*
X164105Y99629D01*
X164488Y100553D01*
Y101554D01*
X164105Y102479D01*
X163398Y103187D01*
X162473Y103570D01*
D02*
G37*
G36*
X201474Y103532D02*
X200473D01*
X199548Y103149D01*
X198840Y102441D01*
X198457Y101516D01*
Y100515D01*
X198840Y99591D01*
X199548Y98883D01*
X200473Y98500D01*
X201474D01*
X202398Y98883D01*
X203106Y99591D01*
X203489Y100515D01*
Y101516D01*
X203106Y102441D01*
X202398Y103149D01*
X201474Y103532D01*
D02*
G37*
G36*
X181973D02*
X180972D01*
X180048Y103149D01*
X179340Y102441D01*
X178957Y101516D01*
Y100515D01*
X179340Y99591D01*
X180048Y98883D01*
X180972Y98500D01*
X181973D01*
X182898Y98883D01*
X183606Y99591D01*
X183989Y100515D01*
Y101516D01*
X183606Y102441D01*
X182898Y103149D01*
X181973Y103532D01*
D02*
G37*
G36*
X240499Y103502D02*
X239498D01*
X238573Y103119D01*
X237866Y102411D01*
X237483Y101486D01*
Y100485D01*
X237866Y99560D01*
X238573Y98853D01*
X239498Y98470D01*
X240499D01*
X241424Y98853D01*
X242132Y99560D01*
X242515Y100485D01*
Y101486D01*
X242132Y102411D01*
X241424Y103119D01*
X240499Y103502D01*
D02*
G37*
G36*
X227494D02*
X226493D01*
X225569Y103119D01*
X224861Y102411D01*
X224478Y101486D01*
Y100485D01*
X224861Y99560D01*
X225569Y98853D01*
X226493Y98470D01*
X227494D01*
X228419Y98853D01*
X229127Y99560D01*
X229510Y100485D01*
Y101486D01*
X229127Y102411D01*
X228419Y103119D01*
X227494Y103502D01*
D02*
G37*
G36*
X207961Y103494D02*
X206960D01*
X206035Y103111D01*
X205328Y102403D01*
X204945Y101478D01*
Y100477D01*
X205328Y99552D01*
X206035Y98845D01*
X206960Y98462D01*
X207961D01*
X208886Y98845D01*
X209594Y99552D01*
X209977Y100477D01*
Y101478D01*
X209594Y102403D01*
X208886Y103111D01*
X207961Y103494D01*
D02*
G37*
G36*
X220974Y103455D02*
X219973D01*
X219049Y103072D01*
X218341Y102365D01*
X217958Y101440D01*
Y100439D01*
X218341Y99514D01*
X219049Y98806D01*
X219973Y98423D01*
X220974D01*
X221899Y98806D01*
X222607Y99514D01*
X222990Y100439D01*
Y101440D01*
X222607Y102365D01*
X221899Y103072D01*
X220974Y103455D01*
D02*
G37*
G36*
X175486D02*
X174485D01*
X173560Y103072D01*
X172852Y102365D01*
X172469Y101440D01*
Y100439D01*
X172852Y99514D01*
X173560Y98806D01*
X174485Y98423D01*
X175486D01*
X176411Y98806D01*
X177118Y99514D01*
X177501Y100439D01*
Y101440D01*
X177118Y102365D01*
X176411Y103072D01*
X175486Y103455D01*
D02*
G37*
G36*
X168999D02*
X167998D01*
X167073Y103072D01*
X166365Y102365D01*
X165982Y101440D01*
Y100439D01*
X166365Y99514D01*
X167073Y98806D01*
X167998Y98423D01*
X168999D01*
X169923Y98806D01*
X170631Y99514D01*
X171014Y100439D01*
Y101440D01*
X170631Y102365D01*
X169923Y103072D01*
X168999Y103455D01*
D02*
G37*
G36*
X201448Y97092D02*
X200447D01*
X199522Y96709D01*
X198815Y96001D01*
X198431Y95076D01*
Y94075D01*
X198815Y93150D01*
X199522Y92443D01*
X200447Y92060D01*
X201448D01*
X202373Y92443D01*
X203081Y93150D01*
X203463Y94075D01*
Y95076D01*
X203081Y96001D01*
X202373Y96709D01*
X201448Y97092D01*
D02*
G37*
G36*
X175557Y97077D02*
X174557D01*
X173632Y96694D01*
X172924Y95986D01*
X172541Y95062D01*
Y94061D01*
X172924Y93136D01*
X173632Y92428D01*
X174557Y92045D01*
X175557D01*
X176482Y92428D01*
X177190Y93136D01*
X177573Y94061D01*
Y95062D01*
X177190Y95986D01*
X176482Y96694D01*
X175557Y97077D01*
D02*
G37*
G36*
X156010Y97073D02*
X155009D01*
X154084Y96690D01*
X153376Y95982D01*
X152993Y95057D01*
Y94056D01*
X153376Y93132D01*
X154084Y92424D01*
X155009Y92041D01*
X156010D01*
X156934Y92424D01*
X157642Y93132D01*
X158025Y94056D01*
Y95057D01*
X157642Y95982D01*
X156934Y96690D01*
X156010Y97073D01*
D02*
G37*
G36*
X233997Y97025D02*
X232996D01*
X232071Y96642D01*
X231363Y95934D01*
X230980Y95009D01*
Y94008D01*
X231363Y93083D01*
X232071Y92376D01*
X232996Y91993D01*
X233997D01*
X234921Y92376D01*
X235629Y93083D01*
X236012Y94008D01*
Y95009D01*
X235629Y95934D01*
X234921Y96642D01*
X233997Y97025D01*
D02*
G37*
G36*
X182113D02*
X181112D01*
X180188Y96642D01*
X179480Y95934D01*
X179097Y95009D01*
Y94008D01*
X179480Y93083D01*
X180188Y92376D01*
X181112Y91993D01*
X182113D01*
X183038Y92376D01*
X183746Y93083D01*
X184129Y94008D01*
Y95009D01*
X183746Y95934D01*
X183038Y96642D01*
X182113Y97025D01*
D02*
G37*
G36*
X220897Y96988D02*
X219897D01*
X218972Y96605D01*
X218264Y95897D01*
X217881Y94973D01*
Y93972D01*
X218264Y93047D01*
X218972Y92339D01*
X219897Y91956D01*
X220897D01*
X221822Y92339D01*
X222530Y93047D01*
X222913Y93972D01*
Y94973D01*
X222530Y95897D01*
X221822Y96605D01*
X220897Y96988D01*
D02*
G37*
G36*
X167824Y94495D02*
X166823D01*
X165898Y94112D01*
X165190Y93404D01*
X164807Y92480D01*
Y91479D01*
X165190Y90554D01*
X165898Y89846D01*
X166823Y89463D01*
X167824D01*
X168748Y89846D01*
X169456Y90554D01*
X169839Y91479D01*
Y92480D01*
X169456Y93404D01*
X168748Y94112D01*
X167824Y94495D01*
D02*
G37*
G36*
X199804Y91371D02*
X198803D01*
X197879Y90988D01*
X197171Y90280D01*
X196788Y89356D01*
Y88355D01*
X197171Y87430D01*
X197879Y86722D01*
X198803Y86339D01*
X199804D01*
X200729Y86722D01*
X201437Y87430D01*
X201820Y88355D01*
Y89356D01*
X201437Y90280D01*
X200729Y90988D01*
X199804Y91371D01*
D02*
G37*
G36*
X227353Y90914D02*
X226352D01*
X225427Y90531D01*
X224719Y89823D01*
X224336Y88898D01*
Y87897D01*
X224719Y86973D01*
X225427Y86265D01*
X226352Y85882D01*
X227353D01*
X228277Y86265D01*
X228985Y86973D01*
X229368Y87897D01*
Y88898D01*
X228985Y89823D01*
X228277Y90531D01*
X227353Y90914D01*
D02*
G37*
G36*
X209721Y90535D02*
X208720D01*
X207795Y90152D01*
X207087Y89444D01*
X206704Y88519D01*
Y87518D01*
X207087Y86594D01*
X207795Y85886D01*
X208720Y85503D01*
X209721D01*
X210645Y85886D01*
X211353Y86594D01*
X211736Y87518D01*
Y88519D01*
X211353Y89444D01*
X210645Y90152D01*
X209721Y90535D01*
D02*
G37*
G36*
X246573Y77354D02*
X245572D01*
X244648Y76971D01*
X243940Y76263D01*
X243557Y75338D01*
Y74337D01*
X243940Y73412D01*
X244648Y72705D01*
X245572Y72322D01*
X246573D01*
X247498Y72705D01*
X248206Y73412D01*
X248589Y74337D01*
Y75338D01*
X248206Y76263D01*
X247498Y76971D01*
X246573Y77354D01*
D02*
G37*
G36*
X237059Y76947D02*
X236058D01*
X235133Y76564D01*
X234425Y75856D01*
X234042Y74931D01*
Y73930D01*
X234425Y73006D01*
X235133Y72298D01*
X236058Y71915D01*
X237059D01*
X237983Y72298D01*
X238691Y73006D01*
X239074Y73930D01*
Y74931D01*
X238691Y75856D01*
X237983Y76564D01*
X237059Y76947D01*
D02*
G37*
G36*
X180000Y73266D02*
X179000D01*
X178075Y72883D01*
X177367Y72175D01*
X176984Y71251D01*
Y70250D01*
X177367Y69325D01*
X178075Y68617D01*
X179000Y68234D01*
X180000D01*
X180925Y68617D01*
X181633Y69325D01*
X182016Y70250D01*
Y71251D01*
X181633Y72175D01*
X180925Y72883D01*
X180000Y73266D01*
D02*
G37*
G36*
X225099Y69581D02*
X224098D01*
X223173Y69198D01*
X222465Y68491D01*
X222082Y67566D01*
Y66565D01*
X222465Y65640D01*
X223173Y64932D01*
X224098Y64549D01*
X225099D01*
X226024Y64932D01*
X226731Y65640D01*
X227114Y66565D01*
Y67566D01*
X226731Y68491D01*
X226024Y69198D01*
X225099Y69581D01*
D02*
G37*
G36*
X219590Y69281D02*
X218589D01*
X217664Y68898D01*
X216957Y68190D01*
X216574Y67265D01*
Y66264D01*
X216957Y65340D01*
X217664Y64632D01*
X218589Y64249D01*
X219590D01*
X220515Y64632D01*
X221223Y65340D01*
X221606Y66264D01*
Y67265D01*
X221223Y68190D01*
X220515Y68898D01*
X219590Y69281D01*
D02*
G37*
G36*
X206556Y69246D02*
X205555D01*
X204631Y68863D01*
X203923Y68155D01*
X203540Y67230D01*
Y66229D01*
X203923Y65304D01*
X204631Y64597D01*
X205555Y64214D01*
X206556D01*
X207481Y64597D01*
X208189Y65304D01*
X208572Y66229D01*
Y67230D01*
X208189Y68155D01*
X207481Y68863D01*
X206556Y69246D01*
D02*
G37*
G36*
X201041Y69127D02*
X200040D01*
X199115Y68744D01*
X198407Y68036D01*
X198024Y67111D01*
Y66111D01*
X198407Y65186D01*
X199115Y64478D01*
X200040Y64095D01*
X201041D01*
X201965Y64478D01*
X202673Y65186D01*
X203056Y66111D01*
Y67111D01*
X202673Y68036D01*
X201965Y68744D01*
X201041Y69127D01*
D02*
G37*
G36*
X220992Y149018D02*
X219991D01*
X219066Y148635D01*
X218358Y147928D01*
X217975Y147003D01*
Y146002D01*
X218358Y145077D01*
X219066Y144369D01*
X219991Y143986D01*
X220992D01*
X221917Y144369D01*
X222624Y145077D01*
X223007Y146002D01*
Y147003D01*
X222624Y147928D01*
X221917Y148635D01*
X220992Y149018D01*
D02*
G37*
G36*
X214489D02*
X213489D01*
X212564Y148635D01*
X211856Y147928D01*
X211473Y147003D01*
Y146002D01*
X211856Y145077D01*
X212564Y144369D01*
X213489Y143986D01*
X214489D01*
X215414Y144369D01*
X216122Y145077D01*
X216505Y146002D01*
Y147003D01*
X216122Y147928D01*
X215414Y148635D01*
X214489Y149018D01*
D02*
G37*
G36*
X207987D02*
X206986D01*
X206061Y148635D01*
X205354Y147928D01*
X204971Y147003D01*
Y146002D01*
X205354Y145077D01*
X206061Y144369D01*
X206986Y143986D01*
X207987D01*
X208912Y144369D01*
X209620Y145077D01*
X210003Y146002D01*
Y147003D01*
X209620Y147928D01*
X208912Y148635D01*
X207987Y149018D01*
D02*
G37*
G36*
X214489Y142516D02*
X213489D01*
X212564Y142133D01*
X211856Y141425D01*
X211473Y140500D01*
Y139500D01*
X211856Y138575D01*
X212564Y137867D01*
X213489Y137484D01*
X214489D01*
X215414Y137867D01*
X216122Y138575D01*
X216505Y139500D01*
Y140500D01*
X216122Y141425D01*
X215414Y142133D01*
X214489Y142516D01*
D02*
G37*
G36*
X207987D02*
X206986D01*
X206061Y142133D01*
X205354Y141425D01*
X204971Y140500D01*
Y139500D01*
X205354Y138575D01*
X206061Y137867D01*
X206986Y137484D01*
X207987D01*
X208912Y137867D01*
X209620Y138575D01*
X210003Y139500D01*
Y140500D01*
X209620Y141425D01*
X208912Y142133D01*
X207987Y142516D01*
D02*
G37*
G36*
X214489Y136014D02*
X213489D01*
X212564Y135631D01*
X211856Y134923D01*
X211473Y133998D01*
Y132997D01*
X211856Y132072D01*
X212564Y131365D01*
X213489Y130982D01*
X214489D01*
X215414Y131365D01*
X216122Y132072D01*
X216505Y132997D01*
Y133998D01*
X216122Y134923D01*
X215414Y135631D01*
X214489Y136014D01*
D02*
G37*
G36*
X207987D02*
X206986D01*
X206061Y135631D01*
X205354Y134923D01*
X204971Y133998D01*
Y132997D01*
X205354Y132072D01*
X206061Y131365D01*
X206986Y130982D01*
X207987D01*
X208912Y131365D01*
X209620Y132072D01*
X210003Y132997D01*
Y133998D01*
X209620Y134923D01*
X208912Y135631D01*
X207987Y136014D01*
D02*
G37*
G36*
Y129511D02*
X206986D01*
X206061Y129128D01*
X205354Y128420D01*
X204971Y127496D01*
Y126495D01*
X205354Y125570D01*
X206061Y124862D01*
X206986Y124479D01*
X207987D01*
X208912Y124862D01*
X209620Y125570D01*
X210003Y126495D01*
Y127496D01*
X209620Y128420D01*
X208912Y129128D01*
X207987Y129511D01*
D02*
G37*
G36*
Y123009D02*
X206986D01*
X206061Y122626D01*
X205354Y121918D01*
X204971Y120993D01*
Y119992D01*
X205354Y119068D01*
X206061Y118360D01*
X206986Y117977D01*
X207987D01*
X208912Y118360D01*
X209620Y119068D01*
X210003Y119992D01*
Y120993D01*
X209620Y121918D01*
X208912Y122626D01*
X207987Y123009D01*
D02*
G37*
G36*
X201485D02*
X200484D01*
X199559Y122626D01*
X198851Y121918D01*
X198468Y120993D01*
Y119992D01*
X198851Y119068D01*
X199559Y118360D01*
X200484Y117977D01*
X201485D01*
X202409Y118360D01*
X203117Y119068D01*
X203500Y119992D01*
Y120993D01*
X203117Y121918D01*
X202409Y122626D01*
X201485Y123009D01*
D02*
G37*
%LPD*%
D82*
X257711Y113211D02*
D03*
X220491Y159507D02*
D03*
Y140000D02*
D03*
X200984Y113990D02*
D03*
X220491Y153005D02*
D03*
X148838Y368903D02*
D03*
X262079Y183512D02*
D03*
X262356Y177702D02*
D03*
X237780Y234273D02*
D03*
X227514Y223354D02*
D03*
X244985Y234894D02*
D03*
X237904Y241230D02*
D03*
X244861Y240981D02*
D03*
X220932Y216026D02*
D03*
X228250Y210500D02*
D03*
Y217000D02*
D03*
X264000Y113000D02*
D03*
X215697Y200610D02*
D03*
X208017Y200260D02*
D03*
X186737Y213663D02*
D03*
X122445Y180494D02*
D03*
X161995Y159507D02*
D03*
X175000D02*
D03*
X181477D02*
D03*
X194482D02*
D03*
X207487D02*
D03*
X200984D02*
D03*
X161995Y153005D02*
D03*
Y166010D02*
D03*
X213989Y185491D02*
D03*
X207487Y191994D02*
D03*
X160000Y200750D02*
D03*
X175000Y191994D02*
D03*
Y185491D02*
D03*
X187979Y178989D02*
D03*
X168498Y140000D02*
D03*
X161995Y120493D02*
D03*
Y113990D02*
D03*
X155493Y126995D02*
D03*
D85*
X177804Y206814D02*
X184653Y213663D01*
X186737D01*
D88*
X155000Y310803D02*
X163250Y302553D01*
X155000Y334510D02*
X157140Y336650D01*
X155000Y310803D02*
Y334510D01*
X157140Y336650D02*
Y359610D01*
X150250Y366500D02*
X157140Y359610D01*
X160000Y200750D02*
X171740D01*
X177804Y206814D02*
Y247407D01*
X171740Y200750D02*
X177804Y206814D01*
X163250Y261961D02*
X177804Y247407D01*
X163250Y261961D02*
Y302553D01*
M02*
