G04*
G04 #@! TF.GenerationSoftware,Altium Limited,Altium Designer,26.8.1 (31)*
G04*
G04 Layer_Color=128*
G04 Board_Origin=4724409|16535433*
%FSLAX44Y44*%
%MOMM*%
G71*
G04*
G04 #@! TF.SameCoordinates,47500F6B-AA3C-44C9-9B31-C918FA8A2740*
G04*
G04*
G04 #@! TF.FilePolarity,Positive*
G04*
G01*
G75*
%ADD34R,0.3250X0.2700*%
%ADD44R,1.9990X2.9997*%
%ADD45R,0.2997X1.3005*%
%ADD52R,0.5153X0.4725*%
%ADD53R,0.4725X0.5153*%
%ADD54R,0.7500X0.9000*%
%ADD55R,0.9000X0.7500*%
%ADD128C,1.0000*%
G04:AMPARAMS|DCode=132|XSize=0.3mm|YSize=0.45mm|CornerRadius=0.0495mm|HoleSize=0mm|Usage=FLASHONLY|Rotation=270.000|XOffset=0mm|YOffset=0mm|HoleType=Round|Shape=RoundedRectangle|*
%AMROUNDEDRECTD132*
21,1,0.3000,0.3510,0,0,270.0*
21,1,0.2010,0.4500,0,0,270.0*
1,1,0.0990,-0.1755,-0.1005*
1,1,0.0990,-0.1755,0.1005*
1,1,0.0990,0.1755,0.1005*
1,1,0.0990,0.1755,-0.1005*
%
%ADD132ROUNDEDRECTD132*%
%ADD134R,0.8000X0.9000*%
%ADD135R,0.8000X0.8000*%
G04:AMPARAMS|DCode=136|XSize=0.55mm|YSize=0.25mm|CornerRadius=0.05mm|HoleSize=0mm|Usage=FLASHONLY|Rotation=180.000|XOffset=0mm|YOffset=0mm|HoleType=Round|Shape=RoundedRectangle|*
%AMROUNDEDRECTD136*
21,1,0.5500,0.1500,0,0,180.0*
21,1,0.4500,0.2500,0,0,180.0*
1,1,0.1000,-0.2250,0.0750*
1,1,0.1000,0.2250,0.0750*
1,1,0.1000,0.2250,-0.0750*
1,1,0.1000,-0.2250,-0.0750*
%
%ADD136ROUNDEDRECTD136*%
G04:AMPARAMS|DCode=137|XSize=0.9mm|YSize=0.25mm|CornerRadius=0.05mm|HoleSize=0mm|Usage=FLASHONLY|Rotation=0.000|XOffset=0mm|YOffset=0mm|HoleType=Round|Shape=RoundedRectangle|*
%AMROUNDEDRECTD137*
21,1,0.9000,0.1500,0,0,0.0*
21,1,0.8000,0.2500,0,0,0.0*
1,1,0.1000,0.4000,-0.0750*
1,1,0.1000,-0.4000,-0.0750*
1,1,0.1000,-0.4000,0.0750*
1,1,0.1000,0.4000,0.0750*
%
%ADD137ROUNDEDRECTD137*%
G04:AMPARAMS|DCode=139|XSize=0.6mm|YSize=0.25mm|CornerRadius=0.05mm|HoleSize=0mm|Usage=FLASHONLY|Rotation=0.000|XOffset=0mm|YOffset=0mm|HoleType=Round|Shape=RoundedRectangle|*
%AMROUNDEDRECTD139*
21,1,0.6000,0.1500,0,0,0.0*
21,1,0.5000,0.2500,0,0,0.0*
1,1,0.1000,0.2500,-0.0750*
1,1,0.1000,-0.2500,-0.0750*
1,1,0.1000,-0.2500,0.0750*
1,1,0.1000,0.2500,0.0750*
%
%ADD139ROUNDEDRECTD139*%
%ADD140R,0.2800X0.3000*%
%ADD141R,0.7493X0.5004*%
%ADD142R,0.3000X0.2800*%
%ADD143R,0.9500X1.1506*%
G04:AMPARAMS|DCode=165|XSize=1mm|YSize=0.7mm|CornerRadius=0.049mm|HoleSize=0mm|Usage=FLASHONLY|Rotation=0.000|XOffset=0mm|YOffset=0mm|HoleType=Round|Shape=RoundedRectangle|*
%AMROUNDEDRECTD165*
21,1,1.0000,0.6020,0,0,0.0*
21,1,0.9020,0.7000,0,0,0.0*
1,1,0.0980,0.4510,-0.3010*
1,1,0.0980,-0.4510,-0.3010*
1,1,0.0980,-0.4510,0.3010*
1,1,0.0980,0.4510,0.3010*
%
%ADD165ROUNDEDRECTD165*%
G36*
X469500Y431250D02*
X469400D01*
X469217Y431174D01*
X469076Y431033D01*
X469000Y430849D01*
Y430750D01*
D01*
Y429250D01*
Y429151D01*
X469076Y428967D01*
X469217Y428826D01*
X469400Y428750D01*
X469500D01*
D01*
X474000D01*
X474099D01*
X474283Y428826D01*
X474424Y428967D01*
X474500Y429151D01*
Y429250D01*
D01*
Y430750D01*
Y430849D01*
X474424Y431033D01*
X474283Y431174D01*
X474099Y431250D01*
X474000D01*
D01*
X469500D01*
D02*
G37*
G36*
X482000Y430750D02*
Y430849D01*
X481924Y431033D01*
X481783Y431174D01*
X481599Y431250D01*
X481500D01*
D01*
X477000D01*
X476900D01*
X476717Y431174D01*
X476576Y431033D01*
X476500Y430849D01*
Y430750D01*
D01*
Y429250D01*
Y429151D01*
X476576Y428967D01*
X476717Y428826D01*
X476900Y428750D01*
X477000D01*
D01*
X481500D01*
X481599D01*
X481783Y428826D01*
X481924Y428967D01*
X482000Y429151D01*
Y429250D01*
D01*
Y430750D01*
D02*
G37*
G36*
X519500Y431250D02*
X519400D01*
X519217Y431174D01*
X519076Y431033D01*
X519000Y430849D01*
Y430750D01*
D01*
Y429250D01*
Y429151D01*
X519076Y428967D01*
X519217Y428826D01*
X519400Y428750D01*
X519500D01*
D01*
X524000D01*
X524099D01*
X524283Y428826D01*
X524424Y428967D01*
X524500Y429151D01*
Y429250D01*
D01*
Y430750D01*
Y430849D01*
X524424Y431033D01*
X524283Y431174D01*
X524099Y431250D01*
X524000D01*
D01*
X519500D01*
D02*
G37*
G36*
X528027Y366411D02*
X527927D01*
X527743Y366335D01*
X527603Y366194D01*
X527527Y366011D01*
Y365911D01*
D01*
Y364411D01*
Y364312D01*
X527603Y364128D01*
X527743Y363987D01*
X527927Y363911D01*
X528027D01*
D01*
X532527D01*
X532626D01*
X532810Y363987D01*
X532951Y364128D01*
X533027Y364312D01*
Y364411D01*
D01*
Y365911D01*
Y366011D01*
X532951Y366194D01*
X532810Y366335D01*
X532626Y366411D01*
X532527D01*
D01*
X528027D01*
D02*
G37*
G36*
X540527Y365911D02*
Y366011D01*
X540451Y366194D01*
X540310Y366335D01*
X540126Y366411D01*
X540027D01*
D01*
X535527D01*
X535427D01*
X535243Y366335D01*
X535103Y366194D01*
X535027Y366011D01*
Y365911D01*
D01*
Y364411D01*
Y364312D01*
X535103Y364128D01*
X535243Y363987D01*
X535427Y363911D01*
X535527D01*
D01*
X540027D01*
X540126D01*
X540310Y363987D01*
X540451Y364128D01*
X540527Y364312D01*
Y364411D01*
D01*
Y365911D01*
D02*
G37*
G36*
X532000Y430750D02*
Y430849D01*
X531924Y431033D01*
X531783Y431174D01*
X531599Y431250D01*
X531500D01*
D01*
X527000D01*
X526900D01*
X526717Y431174D01*
X526576Y431033D01*
X526500Y430849D01*
Y430750D01*
D01*
Y429250D01*
Y429151D01*
X526576Y428967D01*
X526717Y428826D01*
X526900Y428750D01*
X527000D01*
D01*
X531500D01*
X531599D01*
X531783Y428826D01*
X531924Y428967D01*
X532000Y429151D01*
Y429250D01*
D01*
Y430750D01*
D02*
G37*
D34*
X342761Y431559D02*
D03*
Y436559D02*
D03*
Y441559D02*
D03*
X336011D02*
D03*
Y436559D02*
D03*
Y431559D02*
D03*
D44*
X346445Y32930D02*
D03*
X484444D02*
D03*
D45*
X402935Y56425D02*
D03*
X407939D02*
D03*
X412943D02*
D03*
X417946D02*
D03*
X422950D02*
D03*
X427929D02*
D03*
X432932D02*
D03*
X437936D02*
D03*
X442940D02*
D03*
X447944D02*
D03*
X452948D02*
D03*
X457951D02*
D03*
X462930D02*
D03*
X467934D02*
D03*
X397931D02*
D03*
X392927D02*
D03*
X387949D02*
D03*
X382945D02*
D03*
X377941D02*
D03*
X372938D02*
D03*
X367934D02*
D03*
X362930D02*
D03*
D52*
X406449Y318725D02*
D03*
X398878D02*
D03*
X339744Y477157D02*
D03*
X347316D02*
D03*
X369289Y107839D02*
D03*
X361717D02*
D03*
X343916Y120001D02*
D03*
X336344D02*
D03*
X353732Y74609D02*
D03*
X346161D02*
D03*
X276297Y407561D02*
D03*
X268725D02*
D03*
X369569Y134718D02*
D03*
X361997D02*
D03*
X519722Y38211D02*
D03*
X527294D02*
D03*
X297148Y194309D02*
D03*
X289577D02*
D03*
X361652Y124557D02*
D03*
X369223D02*
D03*
X547923Y190257D02*
D03*
X555494D02*
D03*
X400500Y200689D02*
D03*
X392929D02*
D03*
X549102Y221437D02*
D03*
X556673D02*
D03*
X351832Y134100D02*
D03*
X344260D02*
D03*
X297833Y167617D02*
D03*
X290262D02*
D03*
X557571Y325000D02*
D03*
X550000D02*
D03*
X369618Y162610D02*
D03*
X362047D02*
D03*
X570042Y387359D02*
D03*
X577613D02*
D03*
X570982Y449201D02*
D03*
X578553D02*
D03*
X586576Y449290D02*
D03*
X594148D02*
D03*
X463149Y200358D02*
D03*
X455578D02*
D03*
X295500Y35061D02*
D03*
X303071D02*
D03*
X426500Y213689D02*
D03*
X418929D02*
D03*
X444851Y210306D02*
D03*
X452422D02*
D03*
X447569Y200276D02*
D03*
X439998D02*
D03*
X586378Y387136D02*
D03*
X593949D02*
D03*
X546112Y395226D02*
D03*
X553684D02*
D03*
X362195Y152313D02*
D03*
X369766D02*
D03*
X380912Y146665D02*
D03*
X388483D02*
D03*
X377668Y133519D02*
D03*
X385239D02*
D03*
X385336Y293134D02*
D03*
X377765D02*
D03*
X533344Y70096D02*
D03*
X540915D02*
D03*
D53*
X365660Y230687D02*
D03*
Y223116D02*
D03*
X309649Y522692D02*
D03*
Y530264D02*
D03*
X289054Y499590D02*
D03*
Y492019D02*
D03*
X594666Y365530D02*
D03*
Y357958D02*
D03*
X593749Y426480D02*
D03*
Y418909D02*
D03*
X441677Y309711D02*
D03*
Y317282D02*
D03*
X411572Y374364D02*
D03*
Y366793D02*
D03*
X531310Y272203D02*
D03*
Y279774D02*
D03*
X569370Y283375D02*
D03*
Y290946D02*
D03*
X546607Y285382D02*
D03*
Y292953D02*
D03*
X321509Y28041D02*
D03*
Y20470D02*
D03*
X321713Y38351D02*
D03*
Y45922D02*
D03*
X321943Y63878D02*
D03*
Y56307D02*
D03*
X541193Y59302D02*
D03*
Y51731D02*
D03*
X525990Y59426D02*
D03*
Y51855D02*
D03*
X510353Y59620D02*
D03*
Y52049D02*
D03*
X506907Y378787D02*
D03*
Y371216D02*
D03*
X504157Y361874D02*
D03*
Y354303D02*
D03*
X368306Y203474D02*
D03*
Y195903D02*
D03*
X304939Y102750D02*
D03*
Y110321D02*
D03*
X279689Y102750D02*
D03*
Y110321D02*
D03*
X428196Y200919D02*
D03*
Y193347D02*
D03*
X447911Y442164D02*
D03*
Y434592D02*
D03*
X445512Y424881D02*
D03*
Y417310D02*
D03*
X497943Y441629D02*
D03*
Y434058D02*
D03*
X375061Y268750D02*
D03*
Y261179D02*
D03*
X360061Y268750D02*
D03*
Y261179D02*
D03*
X360061Y249497D02*
D03*
Y241926D02*
D03*
X368306Y180197D02*
D03*
Y172626D02*
D03*
X496029Y424278D02*
D03*
Y416707D02*
D03*
X349490Y308883D02*
D03*
Y316454D02*
D03*
X404939Y346240D02*
D03*
Y353811D02*
D03*
X391356Y387309D02*
D03*
Y379738D02*
D03*
D54*
X337750Y80000D02*
D03*
X322250D02*
D03*
X346243Y91061D02*
D03*
X361743D02*
D03*
X415556Y330997D02*
D03*
X400056D02*
D03*
D55*
X365000Y422250D02*
D03*
Y437750D02*
D03*
D128*
X308383Y511459D02*
D03*
Y411459D02*
D03*
Y431459D02*
D03*
Y451459D02*
D03*
Y471459D02*
D03*
Y491459D02*
D03*
D132*
X455956Y373630D02*
D03*
Y380130D02*
D03*
X436456Y373630D02*
D03*
Y367130D02*
D03*
X455956D02*
D03*
X436456Y380130D02*
D03*
X489750Y300000D02*
D03*
Y306500D02*
D03*
X470250Y300000D02*
D03*
Y293500D02*
D03*
X489750D02*
D03*
X470250Y306500D02*
D03*
D134*
X424614Y366537D02*
D03*
Y383537D02*
D03*
X457058Y294146D02*
D03*
Y311146D02*
D03*
D135*
X537581Y321237D02*
D03*
Y306237D02*
D03*
D136*
X568853Y433806D02*
D03*
Y428806D02*
D03*
Y423806D02*
D03*
Y418806D02*
D03*
X582352D02*
D03*
Y423806D02*
D03*
Y428806D02*
D03*
Y433806D02*
D03*
X568402Y372446D02*
D03*
Y367446D02*
D03*
Y362446D02*
D03*
Y357446D02*
D03*
X581902D02*
D03*
Y362446D02*
D03*
Y367446D02*
D03*
Y372446D02*
D03*
D137*
X527500Y420000D02*
D03*
Y425000D02*
D03*
Y435000D02*
D03*
Y440000D02*
D03*
X536027Y355161D02*
D03*
Y360161D02*
D03*
Y370161D02*
D03*
Y375161D02*
D03*
X477500Y420000D02*
D03*
Y425000D02*
D03*
Y435000D02*
D03*
Y440000D02*
D03*
D139*
X511000D02*
D03*
Y435000D02*
D03*
Y430000D02*
D03*
Y425000D02*
D03*
Y420000D02*
D03*
X519527Y375161D02*
D03*
Y370161D02*
D03*
Y365161D02*
D03*
Y360161D02*
D03*
Y355161D02*
D03*
X461000Y440000D02*
D03*
Y435000D02*
D03*
Y430000D02*
D03*
Y425000D02*
D03*
Y420000D02*
D03*
D140*
X381990Y113947D02*
D03*
X376689D02*
D03*
X395845Y159550D02*
D03*
X401145D02*
D03*
X459881Y113995D02*
D03*
X454581D02*
D03*
X466515Y140048D02*
D03*
X461215D02*
D03*
X459925Y126627D02*
D03*
X454625D02*
D03*
X454622Y120378D02*
D03*
X459922D02*
D03*
X440410Y172468D02*
D03*
X435109D02*
D03*
X422109Y178975D02*
D03*
X427410D02*
D03*
X448102Y185505D02*
D03*
X453402D02*
D03*
X409117Y192046D02*
D03*
X414417D02*
D03*
X409145Y185627D02*
D03*
X414445D02*
D03*
X441587Y192046D02*
D03*
X446887D02*
D03*
X401081Y133563D02*
D03*
X395781D02*
D03*
X401096Y146616D02*
D03*
X395796D02*
D03*
X395847Y153066D02*
D03*
X401147D02*
D03*
X407946Y113900D02*
D03*
X402646D02*
D03*
X396196Y120365D02*
D03*
X401496D02*
D03*
X389574Y126966D02*
D03*
X394874D02*
D03*
X414296Y140198D02*
D03*
X408996D02*
D03*
X409111Y120420D02*
D03*
X414411D02*
D03*
X402732Y126947D02*
D03*
X408032D02*
D03*
X395738Y140039D02*
D03*
X401038D02*
D03*
X435078Y114031D02*
D03*
X440378D02*
D03*
D141*
X365959Y309216D02*
D03*
X385974D02*
D03*
X365959Y319224D02*
D03*
X385974D02*
D03*
X365959Y329232D02*
D03*
X385974D02*
D03*
D142*
X415005Y108081D02*
D03*
Y113381D02*
D03*
X401991Y171871D02*
D03*
Y166571D02*
D03*
X460456Y165394D02*
D03*
Y160094D02*
D03*
X460477Y147215D02*
D03*
Y152515D02*
D03*
X447482Y108214D02*
D03*
Y113514D02*
D03*
X447404Y165281D02*
D03*
Y159981D02*
D03*
X440840Y165319D02*
D03*
Y160019D02*
D03*
X421350Y165743D02*
D03*
Y160443D02*
D03*
X427962Y171926D02*
D03*
Y166626D02*
D03*
X415078Y165493D02*
D03*
Y160193D02*
D03*
X440916Y121143D02*
D03*
Y126443D02*
D03*
X408261Y158972D02*
D03*
Y153672D02*
D03*
X427809Y121143D02*
D03*
Y126443D02*
D03*
X421529Y114455D02*
D03*
Y119755D02*
D03*
X421470Y139475D02*
D03*
Y134175D02*
D03*
X447388Y121197D02*
D03*
Y126497D02*
D03*
X434390Y121170D02*
D03*
Y126470D02*
D03*
X447542Y134103D02*
D03*
Y139403D02*
D03*
X440826Y134103D02*
D03*
Y139403D02*
D03*
X434491Y134185D02*
D03*
Y139485D02*
D03*
X428073Y134199D02*
D03*
Y139499D02*
D03*
X441069Y147347D02*
D03*
Y152647D02*
D03*
X447814Y147346D02*
D03*
Y152646D02*
D03*
X454068Y134049D02*
D03*
Y139349D02*
D03*
X421554Y152678D02*
D03*
Y147379D02*
D03*
X427829Y147331D02*
D03*
Y152631D02*
D03*
X434543Y147400D02*
D03*
Y152700D02*
D03*
X414808Y152595D02*
D03*
Y147295D02*
D03*
X454231Y147319D02*
D03*
Y152619D02*
D03*
X427972Y108011D02*
D03*
Y113310D02*
D03*
X388922Y108343D02*
D03*
Y113643D02*
D03*
D143*
X252236Y157418D02*
D03*
X286094D02*
D03*
D165*
X446206Y378130D02*
D03*
Y369130D02*
D03*
X480000Y304500D02*
D03*
Y295500D02*
D03*
M02*
