G04*
G04 #@! TF.GenerationSoftware,Altium Limited,Altium Designer,26.8.1 (31)*
G04*
G04 Layer_Color=32896*
G04 Board_Origin=4724409|16535433*
%FSLAX44Y44*%
%MOMM*%
G71*
G04*
G04 #@! TF.SameCoordinates,E0AC438D-F0EF-4517-8063-BA14263289D6*
G04*
G04*
G04 #@! TF.FilePolarity,Positive*
G04*
G01*
G75*
%ADD10C,0.2500*%
%ADD12C,0.2540*%
%ADD14C,0.2000*%
%ADD15C,0.1524*%
%ADD17C,0.2007*%
G36*
X381046Y326844D02*
Y331924D01*
X375966D01*
X381046Y326844D01*
D01*
D02*
G37*
D10*
X328766Y301849D02*
G03*
X328766Y301849I-1250J0D01*
G01*
X538831Y296487D02*
G03*
X538831Y296487I-1250J0D01*
G01*
X593102Y434057D02*
G03*
X593102Y434057I-1250J0D01*
G01*
X503250Y419500D02*
G03*
X503250Y419500I-1250J0D01*
G01*
X518970Y510160D02*
G03*
X518970Y510160I-1250J0D01*
G01*
X330136Y431559D02*
G03*
X330136Y431559I-1250J0D01*
G01*
X518071Y127562D02*
G03*
X518071Y127562I-1250J0D01*
G01*
X511777Y354661D02*
G03*
X511777Y354661I-1250J0D01*
G01*
X592652Y372696D02*
G03*
X592652Y372696I-1250J0D01*
G01*
X453250Y419500D02*
G03*
X453250Y419500I-1250J0D01*
G01*
D12*
X359456Y335734D02*
X392476D01*
X359456Y302714D02*
Y335734D01*
Y302714D02*
X392476D01*
Y335734D01*
X472582Y63436D02*
X472683Y63944D01*
X472963Y64350D01*
X473369Y64629D01*
X473852Y64706D01*
X474334Y64629D01*
X474766Y64350D01*
X475046Y63944D01*
X475122Y63436D01*
X475046Y62953D02*
X475122Y63436D01*
X474766Y62547D02*
X475046Y62953D01*
X474334Y62267D02*
X474766Y62547D01*
X473852Y62165D02*
X474334Y62267D01*
X473369D02*
X473852Y62165D01*
X472963Y62547D02*
X473369Y62267D01*
X472683Y62953D02*
X472963Y62547D01*
X472582Y63436D02*
X472683Y62953D01*
X357469Y55155D02*
X358891D01*
X471998D02*
X473420D01*
X498439Y10375D02*
Y21119D01*
X332450Y10375D02*
Y21119D01*
Y10375D02*
X498439D01*
D14*
X435706Y385630D02*
X438206D01*
X454206D02*
X456706D01*
X454206Y361630D02*
X456706D01*
X435706D02*
X444206D01*
X247237Y282508D02*
X323237D01*
Y292509D01*
X247237Y282508D02*
Y341509D01*
X247239Y341511D02*
X323239D01*
X323237Y331509D02*
Y341509D01*
X429114Y374787D02*
Y375287D01*
X420114Y374787D02*
Y375287D01*
X530281Y305530D02*
Y321530D01*
X545081Y305737D02*
Y321737D01*
X399806Y338997D02*
X415806D01*
X399806Y322997D02*
X415806D01*
X567682Y412457D02*
X583683D01*
X567603Y440056D02*
X583602D01*
X509500Y414500D02*
Y415000D01*
Y445000D02*
Y445500D01*
X530500D01*
Y414500D02*
Y415000D01*
Y445000D02*
Y445500D01*
X509500Y414500D02*
X530500D01*
X522000Y529501D02*
X598000D01*
X522000Y519500D02*
Y529501D01*
X598000Y470500D02*
Y529501D01*
X521997Y470498D02*
X597997D01*
X522000Y470500D02*
Y480500D01*
X345993Y83061D02*
X361993D01*
X345993Y99061D02*
X361993D01*
X334136Y446659D02*
X344636D01*
X334136Y426459D02*
X344636D01*
X461558Y302396D02*
Y302896D01*
X452559Y302396D02*
Y302896D01*
X521100Y146903D02*
X597100D01*
X521100Y136902D02*
Y146903D01*
X597100Y87903D02*
Y146903D01*
X521098Y87900D02*
X597098D01*
X521100Y87903D02*
Y97902D01*
X518027Y349661D02*
Y350161D01*
Y380161D02*
Y380661D01*
X539027D01*
Y349661D02*
Y350161D01*
Y380161D02*
Y380661D01*
X518027Y349661D02*
X539027D01*
X567232Y351096D02*
X583232D01*
X567152Y378696D02*
X583152D01*
X459500Y414500D02*
Y415000D01*
Y445000D02*
Y445500D01*
X480500D01*
Y414500D02*
Y415000D01*
Y445000D02*
Y445500D01*
X459500Y414500D02*
X480500D01*
X469500Y312000D02*
X472000D01*
X488000D02*
X490500D01*
X488000Y288000D02*
X490500D01*
X469500D02*
X478000D01*
X373000Y422000D02*
Y438000D01*
X357000Y422000D02*
Y438000D01*
D15*
X283224Y164403D02*
Y166080D01*
X255106D02*
X283224D01*
Y148757D02*
Y150434D01*
X255106Y148757D02*
X283224D01*
X259450D02*
Y166080D01*
X260898Y148757D02*
Y166080D01*
X255106Y148757D02*
Y149875D01*
Y164962D02*
Y166080D01*
X253354Y164962D02*
Y166080D01*
X255106D01*
X253354Y148757D02*
X255106D01*
X253354D02*
Y149875D01*
X255106D01*
X253354Y164962D02*
X255106D01*
X454802Y401687D02*
Y394916D01*
X453448Y393562D01*
X450739D01*
X449385Y394916D01*
Y401687D01*
X446677Y393562D02*
X443968D01*
X445322D01*
Y401687D01*
X446677Y400333D01*
X434489Y401687D02*
X439906D01*
Y397625D01*
X437197Y398979D01*
X435843D01*
X434489Y397625D01*
Y394916D01*
X435843Y393562D01*
X438551D01*
X439906Y394916D01*
X278646Y306309D02*
X277292Y304955D01*
X274583D01*
X273229Y306309D01*
Y307663D01*
X274583Y309018D01*
X277292D01*
X278646Y310372D01*
Y311726D01*
X277292Y313080D01*
X274583D01*
X273229Y311726D01*
X286771Y313080D02*
X281354D01*
X286771Y307663D01*
Y306309D01*
X285417Y304955D01*
X282708D01*
X281354Y306309D01*
X426813Y416334D02*
X418687D01*
Y412271D01*
X420042Y410917D01*
X422750D01*
X424104Y412271D01*
Y416334D01*
Y413625D02*
X426813Y410917D01*
X418687Y402791D02*
X420042Y405500D01*
X422750Y408209D01*
X425458D01*
X426813Y406854D01*
Y404146D01*
X425458Y402791D01*
X424104D01*
X422750Y404146D01*
Y408209D01*
X420042Y400083D02*
X418687Y398729D01*
Y396020D01*
X420042Y394666D01*
X421396D01*
X422750Y396020D01*
X424104Y394666D01*
X425458D01*
X426813Y396020D01*
Y398729D01*
X425458Y400083D01*
X424104D01*
X422750Y398729D01*
X421396Y400083D01*
X420042D01*
X422750Y398729D02*
Y396020D01*
X561771Y419063D02*
Y412292D01*
X560417Y410937D01*
X557709D01*
X556354Y412292D01*
Y419063D01*
X553646D02*
X548229D01*
Y417709D01*
X553646Y412292D01*
Y410937D01*
X289063Y464480D02*
X280937D01*
Y460417D01*
X282292Y459063D01*
X285000D01*
X286354Y460417D01*
Y464480D01*
X289063Y456354D02*
X280937D01*
Y452292D01*
X282292Y450937D01*
X285000D01*
X286354Y452292D01*
Y456354D01*
Y453646D02*
X289063Y450937D01*
Y448229D02*
Y445520D01*
Y446875D01*
X280937D01*
X282292Y448229D01*
X380126Y351649D02*
Y344878D01*
X378772Y343524D01*
X376063D01*
X374709Y344878D01*
Y351649D01*
X372001Y343524D02*
X369292D01*
X370646D01*
Y351649D01*
X372001Y350295D01*
X365229Y351649D02*
X359813D01*
Y350295D01*
X365229Y344878D01*
Y343524D01*
X314765Y534445D02*
X316119Y535799D01*
X318828D01*
X320182Y534445D01*
Y529028D01*
X318828Y527674D01*
X316119D01*
X314765Y529028D01*
X312057Y534445D02*
X310702Y535799D01*
X307994D01*
X306640Y534445D01*
Y533091D01*
X307994Y531737D01*
X306640Y530382D01*
Y529028D01*
X307994Y527674D01*
X310702D01*
X312057Y529028D01*
Y530382D01*
X310702Y531737D01*
X312057Y533091D01*
Y534445D01*
X310702Y531737D02*
X307994D01*
X303931Y534445D02*
X302577Y535799D01*
X299869D01*
X298514Y534445D01*
Y533091D01*
X299869Y531737D01*
X298514Y530382D01*
Y529028D01*
X299869Y527674D01*
X302577D01*
X303931Y529028D01*
Y530382D01*
X302577Y531737D01*
X303931Y533091D01*
Y534445D01*
X302577Y531737D02*
X299869D01*
X573646Y477291D02*
X572292Y475937D01*
X569583D01*
X568229Y477291D01*
Y478646D01*
X569583Y480000D01*
X572292D01*
X573646Y481354D01*
Y482708D01*
X572292Y484063D01*
X569583D01*
X568229Y482708D01*
X576354Y477291D02*
X577709Y475937D01*
X580417D01*
X581771Y477291D01*
Y478646D01*
X580417Y480000D01*
X579063D01*
X580417D01*
X581771Y481354D01*
Y482708D01*
X580417Y484063D01*
X577709D01*
X576354Y482708D01*
X358282Y491352D02*
Y499477D01*
X354219D01*
X352865Y498123D01*
Y495415D01*
X354219Y494061D01*
X358282D01*
X355574D02*
X352865Y491352D01*
X350157Y498123D02*
X348802Y499477D01*
X346094D01*
X344740Y498123D01*
Y496769D01*
X346094Y495415D01*
X347448D01*
X346094D01*
X344740Y494061D01*
Y492706D01*
X346094Y491352D01*
X348802D01*
X350157Y492706D01*
X336614Y499477D02*
X342031D01*
Y495415D01*
X339323Y496769D01*
X337969D01*
X336614Y495415D01*
Y492706D01*
X337969Y491352D01*
X340677D01*
X342031Y492706D01*
X328646Y72291D02*
X327291Y70937D01*
X324583D01*
X323229Y72291D01*
Y77709D01*
X324583Y79063D01*
X327291D01*
X328646Y77709D01*
X331354Y70937D02*
X336771D01*
Y72291D01*
X331354Y77709D01*
Y79063D01*
X427291Y328802D02*
X425937Y330157D01*
Y332865D01*
X427291Y334219D01*
X432708D01*
X434063Y332865D01*
Y330157D01*
X432708Y328802D01*
X434063Y326094D02*
Y323386D01*
Y324740D01*
X425937D01*
X427291Y326094D01*
Y319323D02*
X425937Y317969D01*
Y315260D01*
X427291Y313906D01*
X432708D01*
X434063Y315260D01*
Y317969D01*
X432708Y319323D01*
X427291D01*
Y311197D02*
X425937Y309843D01*
Y307135D01*
X427291Y305781D01*
X428646D01*
X430000Y307135D01*
Y308489D01*
Y307135D01*
X431354Y305781D01*
X432708D01*
X434063Y307135D01*
Y309843D01*
X432708Y311197D01*
X377291Y378802D02*
X375937Y380157D01*
Y382865D01*
X377291Y384219D01*
X382708D01*
X384063Y382865D01*
Y380157D01*
X382708Y378802D01*
X384063Y376094D02*
Y373386D01*
Y374740D01*
X375937D01*
X377291Y376094D01*
Y369323D02*
X375937Y367969D01*
Y365260D01*
X377291Y363906D01*
X382708D01*
X384063Y365260D01*
Y367969D01*
X382708Y369323D01*
X377291D01*
X375937Y361198D02*
Y355781D01*
X377291D01*
X382708Y361198D01*
X384063D01*
X277711Y161306D02*
Y153181D01*
X273648D01*
X272294Y154535D01*
Y159952D01*
X273648Y161306D01*
X277711D01*
X264168Y153181D02*
X269585D01*
X264168Y158597D01*
Y159952D01*
X265523Y161306D01*
X268231D01*
X269585Y159952D01*
X341518Y462393D02*
Y454268D01*
X337455D01*
X336101Y455622D01*
Y461039D01*
X337455Y462393D01*
X341518D01*
X329330Y454268D02*
Y462393D01*
X333393Y458331D01*
X327976D01*
X391354Y79063D02*
X394063D01*
X392709D01*
Y72291D01*
X394063Y70937D01*
X395417D01*
X396771Y72291D01*
X384583Y70937D02*
Y79063D01*
X388646Y75000D01*
X383229D01*
X300116Y206364D02*
Y214489D01*
X296053D01*
X294699Y213135D01*
Y210427D01*
X296053Y209072D01*
X300116D01*
X297408D02*
X294699Y206364D01*
X291991D02*
X289282D01*
X290636D01*
Y214489D01*
X291991Y213135D01*
X558434Y202300D02*
Y210425D01*
X554371D01*
X553017Y209071D01*
Y206363D01*
X554371Y205009D01*
X558434D01*
X555726D02*
X553017Y202300D01*
X546246D02*
Y210425D01*
X550309Y206363D01*
X544892D01*
X403494Y215000D02*
Y223125D01*
X399431D01*
X398077Y221771D01*
Y219063D01*
X399431Y217708D01*
X403494D01*
X400786D02*
X398077Y215000D01*
X389952Y223125D02*
X392660Y221771D01*
X395369Y219063D01*
Y216354D01*
X394014Y215000D01*
X391306D01*
X389952Y216354D01*
Y217708D01*
X391306Y219063D01*
X395369D01*
X567539Y218701D02*
Y210576D01*
X571602D01*
X572956Y211930D01*
Y214639D01*
X571602Y215993D01*
X567539D01*
X570248D02*
X572956Y218701D01*
X575665Y217347D02*
X577019Y218701D01*
X579728D01*
X581082Y217347D01*
Y211930D01*
X579728Y210576D01*
X577019D01*
X575665Y211930D01*
Y213285D01*
X577019Y214639D01*
X581082D01*
X323770Y163141D02*
Y171266D01*
X319708D01*
X318353Y169912D01*
Y167204D01*
X319708Y165849D01*
X323770D01*
X321062D02*
X318353Y163141D01*
X315645D02*
X312936D01*
X314291D01*
Y171266D01*
X315645Y169912D01*
X308874Y163141D02*
X306165D01*
X307519D01*
Y171266D01*
X308874Y169912D01*
X314063Y30157D02*
X305937D01*
Y26094D01*
X307292Y24740D01*
X310000D01*
X311354Y26094D01*
Y30157D01*
Y27448D02*
X314063Y24740D01*
Y22031D02*
Y19323D01*
Y20677D01*
X305937D01*
X307292Y22031D01*
Y15260D02*
X305937Y13906D01*
Y11198D01*
X307292Y9843D01*
X308646D01*
X310000Y11198D01*
Y12552D01*
Y11198D01*
X311354Y9843D01*
X312708D01*
X314063Y11198D01*
Y13906D01*
X312708Y15260D01*
X302942Y59961D02*
X311067D01*
Y64024D01*
X309713Y65378D01*
X307005D01*
X305651Y64024D01*
Y59961D01*
Y62670D02*
X302942Y65378D01*
Y68087D02*
Y70795D01*
Y69441D01*
X311067D01*
X309713Y68087D01*
X311067Y80275D02*
Y74858D01*
X307005D01*
X308359Y77566D01*
Y78920D01*
X307005Y80275D01*
X304296D01*
X302942Y78920D01*
Y76212D01*
X304296Y74858D01*
X514063Y45157D02*
X505937D01*
Y41094D01*
X507292Y39740D01*
X510000D01*
X511354Y41094D01*
Y45157D01*
Y42448D02*
X514063Y39740D01*
Y37031D02*
Y34323D01*
Y35677D01*
X505937D01*
X507292Y37031D01*
Y30260D02*
X505937Y28906D01*
Y26198D01*
X507292Y24843D01*
X508646D01*
X510000Y26198D01*
X511354Y24843D01*
X512709D01*
X514063Y26198D01*
Y28906D01*
X512709Y30260D01*
X511354D01*
X510000Y28906D01*
X508646Y30260D01*
X507292D01*
X510000Y28906D02*
Y26198D01*
X492579Y358630D02*
X484454D01*
Y354568D01*
X485808Y353214D01*
X488517D01*
X489871Y354568D01*
Y358630D01*
Y355922D02*
X492579Y353214D01*
Y345088D02*
Y350505D01*
X487163Y345088D01*
X485808D01*
X484454Y346442D01*
Y349151D01*
X485808Y350505D01*
X492579Y338317D02*
X484454D01*
X488517Y342380D01*
Y336963D01*
X540944Y454461D02*
Y446336D01*
X545007D01*
X546361Y447690D01*
Y450398D01*
X545007Y451753D01*
X540944D01*
X543653D02*
X546361Y454461D01*
X554487D02*
X549070D01*
X554487Y449044D01*
Y447690D01*
X553133Y446336D01*
X550424D01*
X549070Y447690D01*
X562612Y446336D02*
X559904Y447690D01*
X557195Y450398D01*
Y453107D01*
X558549Y454461D01*
X561258D01*
X562612Y453107D01*
Y451753D01*
X561258Y450398D01*
X557195D01*
X380888Y214746D02*
Y222871D01*
X376825D01*
X375471Y221517D01*
Y218809D01*
X376825Y217454D01*
X380888D01*
X378180D02*
X375471Y214746D01*
X372763Y221517D02*
X371408Y222871D01*
X368700D01*
X367346Y221517D01*
Y220163D01*
X368700Y218809D01*
X370054D01*
X368700D01*
X367346Y217454D01*
Y216100D01*
X368700Y214746D01*
X371408D01*
X372763Y216100D01*
X364637Y214746D02*
X361929D01*
X363283D01*
Y222871D01*
X364637Y221517D01*
X295290Y121528D02*
Y129653D01*
X291227D01*
X289873Y128299D01*
Y125591D01*
X291227Y124236D01*
X295290D01*
X292582D02*
X289873Y121528D01*
X283102D02*
Y129653D01*
X287165Y125591D01*
X281748D01*
X279039Y128299D02*
X277685Y129653D01*
X274977D01*
X273622Y128299D01*
Y122882D01*
X274977Y121528D01*
X277685D01*
X279039Y122882D01*
Y128299D01*
X308730Y43937D02*
Y52063D01*
X304667D01*
X303313Y50708D01*
Y48000D01*
X304667Y46646D01*
X308730D01*
X306021D02*
X303313Y43937D01*
X296542D02*
Y52063D01*
X300604Y48000D01*
X295187D01*
X292479Y43937D02*
X289770D01*
X291125D01*
Y52063D01*
X292479Y50708D01*
X434063Y455834D02*
X425937D01*
Y451771D01*
X427291Y450417D01*
X430000D01*
X431354Y451771D01*
Y455834D01*
Y453125D02*
X434063Y450417D01*
X425937Y442292D02*
Y447709D01*
X430000D01*
X428646Y445000D01*
Y443646D01*
X430000Y442292D01*
X432708D01*
X434063Y443646D01*
Y446354D01*
X432708Y447709D01*
X427291Y439583D02*
X425937Y438229D01*
Y435520D01*
X427291Y434166D01*
X432708D01*
X434063Y435520D01*
Y438229D01*
X432708Y439583D01*
X427291D01*
X499452Y508984D02*
X491327D01*
Y504921D01*
X492681Y503567D01*
X495390D01*
X496744Y504921D01*
Y508984D01*
Y506275D02*
X499452Y503567D01*
X491327Y495442D02*
Y500858D01*
X495390D01*
X494035Y498150D01*
Y496796D01*
X495390Y495442D01*
X498098D01*
X499452Y496796D01*
Y499504D01*
X498098Y500858D01*
X491327Y487316D02*
X492681Y490025D01*
X495390Y492733D01*
X498098D01*
X499452Y491379D01*
Y488670D01*
X498098Y487316D01*
X496744D01*
X495390Y488670D01*
Y492733D01*
X370937Y227482D02*
X379063D01*
Y231545D01*
X377708Y232899D01*
X375000D01*
X373646Y231545D01*
Y227482D01*
Y230190D02*
X370937Y232899D01*
X379063Y241024D02*
X377708Y238316D01*
X375000Y235607D01*
X372291D01*
X370937Y236961D01*
Y239670D01*
X372291Y241024D01*
X373646D01*
X375000Y239670D01*
Y235607D01*
X370937Y243733D02*
Y246441D01*
Y245087D01*
X379063D01*
X377708Y243733D01*
X356618Y190963D02*
X348492D01*
Y186901D01*
X349847Y185546D01*
X352555D01*
X353909Y186901D01*
Y190963D01*
Y188255D02*
X356618Y185546D01*
X348492Y177421D02*
X349847Y180130D01*
X352555Y182838D01*
X355264D01*
X356618Y181484D01*
Y178775D01*
X355264Y177421D01*
X353909D01*
X352555Y178775D01*
Y182838D01*
X356618Y170650D02*
X348492D01*
X352555Y174713D01*
Y169296D01*
X450261Y301045D02*
X442136D01*
Y296982D01*
X443490Y295628D01*
X446199D01*
X447553Y296982D01*
Y301045D01*
Y298337D02*
X450261Y295628D01*
X442136Y287503D02*
X443490Y290211D01*
X446199Y292920D01*
X448907D01*
X450261Y291565D01*
Y288857D01*
X448907Y287503D01*
X447553D01*
X446199Y288857D01*
Y292920D01*
X442136Y279377D02*
X443490Y282086D01*
X446199Y284794D01*
X448907D01*
X450261Y283440D01*
Y280732D01*
X448907Y279377D01*
X447553D01*
X446199Y280732D01*
Y284794D01*
X370050Y288915D02*
Y297040D01*
X365987D01*
X364633Y295686D01*
Y292978D01*
X365987Y291623D01*
X370050D01*
X367341D02*
X364633Y288915D01*
X361924Y297040D02*
X356507D01*
Y295686D01*
X361924Y290269D01*
Y288915D01*
X353799Y295686D02*
X352445Y297040D01*
X349736D01*
X348382Y295686D01*
Y294332D01*
X349736Y292978D01*
X351090D01*
X349736D01*
X348382Y291623D01*
Y290269D01*
X349736Y288915D01*
X352445D01*
X353799Y290269D01*
X354700Y345201D02*
X346574D01*
Y341138D01*
X347928Y339784D01*
X350637D01*
X351991Y341138D01*
Y345201D01*
Y342492D02*
X354700Y339784D01*
X346574Y337075D02*
Y331658D01*
X347928D01*
X353345Y337075D01*
X354700D01*
Y324887D02*
X346574D01*
X350637Y328950D01*
Y323533D01*
X565000Y112096D02*
X563646Y110742D01*
X560937D01*
X559583Y112096D01*
Y113450D01*
X560937Y114805D01*
X563646D01*
X565000Y116159D01*
Y117513D01*
X563646Y118867D01*
X560937D01*
X559583Y117513D01*
X567709Y118867D02*
X570417D01*
X569063D01*
Y110742D01*
X567709Y112096D01*
X540908Y397369D02*
Y390598D01*
X539554Y389244D01*
X536845D01*
X535491Y390598D01*
Y397369D01*
X527366D02*
X532783D01*
Y393307D01*
X530074Y394661D01*
X528720D01*
X527366Y393307D01*
Y390598D01*
X528720Y389244D01*
X531428D01*
X532783Y390598D01*
X467437Y379771D02*
X474208D01*
X475563Y378417D01*
Y375708D01*
X474208Y374354D01*
X467437D01*
X468792Y371646D02*
X467437Y370291D01*
Y367583D01*
X468792Y366229D01*
X470146D01*
X471500Y367583D01*
X472854Y366229D01*
X474208D01*
X475563Y367583D01*
Y370291D01*
X474208Y371646D01*
X472854D01*
X471500Y370291D01*
X470146Y371646D01*
X468792D01*
X471500Y370291D02*
Y367583D01*
X489694Y325657D02*
Y318886D01*
X488340Y317532D01*
X485631D01*
X484277Y318886D01*
Y325657D01*
X481568Y317532D02*
X478860D01*
X480214D01*
Y325657D01*
X481568Y324303D01*
X470735Y317532D02*
Y325657D01*
X474797Y321595D01*
X469380D01*
X579063Y330937D02*
Y328229D01*
Y329583D01*
X572292D01*
X570937Y328229D01*
Y326875D01*
X572292Y325520D01*
X579063Y333646D02*
X570937D01*
Y337708D01*
X572292Y339063D01*
X573646D01*
X575000Y337708D01*
Y333646D01*
Y337708D01*
X576354Y339063D01*
X577709D01*
X579063Y337708D01*
Y333646D01*
X570937Y341771D02*
Y344480D01*
Y343125D01*
X579063D01*
X577709Y341771D01*
X584198Y292221D02*
Y289512D01*
Y290867D01*
X577427D01*
X576073Y289512D01*
Y288158D01*
X577427Y286804D01*
X584198Y294929D02*
X576073D01*
Y298992D01*
X577427Y300346D01*
X578781D01*
X580135Y298992D01*
Y294929D01*
Y298992D01*
X581490Y300346D01*
X582844D01*
X584198Y298992D01*
Y294929D01*
X576073Y308472D02*
Y303055D01*
X581490Y308472D01*
X582844D01*
X584198Y307117D01*
Y304409D01*
X582844Y303055D01*
X584255Y267394D02*
Y264686D01*
Y266040D01*
X577483D01*
X576129Y264686D01*
Y263332D01*
X577483Y261978D01*
X584255Y270103D02*
Y275520D01*
Y272811D01*
X576129D01*
X367089Y456975D02*
X368443Y458329D01*
X371152D01*
X372506Y456975D01*
Y451558D01*
X371152Y450204D01*
X368443D01*
X367089Y451558D01*
X364381D02*
X363026Y450204D01*
X360318D01*
X358964Y451558D01*
Y456975D01*
X360318Y458329D01*
X363026D01*
X364381Y456975D01*
Y455621D01*
X363026Y454267D01*
X358964D01*
X356255Y456975D02*
X354901Y458329D01*
X352193D01*
X350838Y456975D01*
Y451558D01*
X352193Y450204D01*
X354901D01*
X356255Y451558D01*
Y456975D01*
X395232Y398418D02*
Y406036D01*
X391423D01*
X390153Y404766D01*
Y402227D01*
X391423Y400957D01*
X395232D01*
X392692D02*
X390153Y398418D01*
X387614Y406036D02*
Y398418D01*
X383805D01*
X382536Y399688D01*
Y400957D01*
X383805Y402227D01*
X387614D01*
X383805D01*
X382536Y403496D01*
Y404766D01*
X383805Y406036D01*
X387614D01*
X379996D02*
X374918D01*
X377457D01*
Y398418D01*
X372379D02*
X369840D01*
X371109D01*
Y406036D01*
X372379Y404766D01*
D17*
X379954Y324228D02*
X380056Y324660D01*
X380335Y325015D01*
X380742Y325193D01*
X381199D01*
X381580Y325015D01*
X381859Y324660D01*
X381961Y324228D01*
X381859Y323796D02*
X381961Y324228D01*
X381580Y323441D02*
X381859Y323796D01*
X381199Y323237D02*
X381580Y323441D01*
X380742Y323237D02*
X381199D01*
X380335Y323441D02*
X380742Y323237D01*
X380056Y323796D02*
X380335Y323441D01*
X379954Y324228D02*
X380056Y323796D01*
X369972Y324228D02*
X370074Y324660D01*
X370353Y325015D01*
X370734Y325193D01*
X371191D01*
X371598Y325015D01*
X371877Y324660D01*
X371979Y324228D01*
X371877Y323796D02*
X371979Y324228D01*
X371598Y323441D02*
X371877Y323796D01*
X371191Y323237D02*
X371598Y323441D01*
X370734Y323237D02*
X371191D01*
X370353Y323441D02*
X370734Y323237D01*
X370074Y323796D02*
X370353Y323441D01*
X369972Y324228D02*
X370074Y323796D01*
M02*
