G04*
G04 #@! TF.GenerationSoftware,Altium Limited,Altium Designer,26.8.1 (31)*
G04*
G04 Layer_Color=65535*
G04 Board_Origin=4724409|16535433*
%FSLAX44Y44*%
%MOMM*%
G71*
G04*
G04 #@! TF.SameCoordinates,EA54ECA8-3616-4646-993E-DC2F9F768069*
G04*
G04*
G04 #@! TF.FilePolarity,Positive*
G04*
G01*
G75*
%ADD10C,0.2500*%
%ADD11C,0.3988*%
%ADD12C,0.2540*%
%ADD13C,0.2997*%
%ADD14C,0.2000*%
%ADD15C,0.1524*%
%ADD16C,0.0991*%
%ADD17C,0.2007*%
%ADD18C,0.1499*%
G36*
X6001Y291052D02*
Y289070D01*
X8007Y287064D01*
X41002D01*
X41993D01*
X43999Y289070D01*
Y291052D01*
X6001D01*
D01*
D02*
G37*
G36*
X66001Y291052D02*
Y289070D01*
X68007Y287064D01*
X101002D01*
X101993D01*
X103999Y289070D01*
Y291052D01*
X66001D01*
D01*
D02*
G37*
G36*
X126001D02*
Y289070D01*
X128007Y287064D01*
X161002D01*
X161993D01*
X163999Y289070D01*
Y291052D01*
X126001D01*
D01*
D02*
G37*
G36*
X186001Y291052D02*
Y289070D01*
X188007Y287064D01*
X221002D01*
X221993D01*
X223999Y289070D01*
Y291052D01*
X186001D01*
D01*
D02*
G37*
G36*
X375478Y87498D02*
X380481D01*
X375478Y92477D01*
Y87498D01*
D01*
D02*
G37*
G36*
X6001Y611052D02*
Y609070D01*
X8007Y607064D01*
X41002D01*
X41993D01*
X43999Y609070D01*
Y611052D01*
X6001D01*
D01*
D02*
G37*
G36*
X66001D02*
Y609070D01*
X68007Y607064D01*
X101002D01*
X101993D01*
X103999Y609070D01*
Y611052D01*
X66001D01*
D01*
D02*
G37*
G36*
X126001D02*
Y609070D01*
X128007Y607064D01*
X161002D01*
X161993D01*
X163999Y609070D01*
Y611052D01*
X126001D01*
D01*
D02*
G37*
G36*
X223999Y609070D02*
X221993Y607064D01*
X188007D01*
X186001Y609070D01*
Y611052D01*
X223999D01*
Y609070D01*
D02*
G37*
G36*
X382926Y522660D02*
X379116Y526470D01*
X386736D01*
X382926Y522660D01*
D02*
G37*
G36*
X377973Y499952D02*
X379345Y499673D01*
X380640Y499190D01*
X381885Y498505D01*
X383002Y497666D01*
X383968Y496676D01*
X384806Y495558D01*
X385492Y494339D01*
X385974Y493044D01*
X386279Y491672D01*
X386381Y490275D01*
X386279Y488878D01*
X385974Y487506D01*
X385492Y486211D01*
X384806Y484992D01*
X383968Y483874D01*
X383002Y482884D01*
X381885Y482045D01*
X380640Y481360D01*
X379345Y480877D01*
X377973Y480598D01*
X376576Y480496D01*
X375179Y480598D01*
X373833Y480877D01*
X372512Y481360D01*
X371293Y482045D01*
X370175Y482884D01*
X369185Y483874D01*
X368347Y484992D01*
X367686Y486211D01*
X367178Y487506D01*
X366899Y488878D01*
X366797Y490275D01*
X366899Y491672D01*
X367178Y493044D01*
X367686Y494339D01*
X368347Y495558D01*
X369185Y496676D01*
X370175Y497666D01*
X371293Y498505D01*
X372512Y499190D01*
X373833Y499673D01*
X375179Y499952D01*
X376576Y500054D01*
X377973Y499952D01*
D02*
G37*
D10*
X584500Y283250D02*
G03*
X584500Y283250I-1250J0D01*
G01*
X372442Y227616D02*
G03*
X372442Y227616I-1250J0D01*
G01*
X514267Y199301D02*
G03*
X514267Y199301I-1250J0D01*
G01*
X332666Y187403D02*
G03*
X332666Y187403I-1250J0D01*
G01*
D11*
X178990Y327145D02*
X179600Y327247D01*
X178432Y326866D02*
X178990Y327145D01*
X177974Y326434D02*
X178432Y326866D01*
X177695Y325875D02*
X177974Y326434D01*
X177593Y325240D02*
X177695Y325875D01*
X177593Y325240D02*
X177695Y324630D01*
X177974Y324072D01*
X178432Y323640D01*
X178990Y323360D01*
X179600Y323259D01*
X180210Y323360D01*
X180768Y323640D01*
X181226Y324072D01*
X181505Y324630D01*
X181607Y325240D01*
X181505Y325875D02*
X181607Y325240D01*
X181226Y326434D02*
X181505Y325875D01*
X180768Y326866D02*
X181226Y326434D01*
X180210Y327145D02*
X180768Y326866D01*
X179600Y327247D02*
X180210Y327145D01*
X-1010Y647145D02*
X-400Y647247D01*
X-1568Y646866D02*
X-1010Y647145D01*
X-2026Y646434D02*
X-1568Y646866D01*
X-2305Y645875D02*
X-2026Y646434D01*
X-2407Y645240D02*
X-2305Y645875D01*
X-2407Y645240D02*
X-2305Y644630D01*
X-2026Y644072D01*
X-1568Y643640D01*
X-1010Y643360D01*
X-400Y643259D01*
X210Y643360D01*
X768Y643640D01*
X1226Y644072D01*
X1505Y644630D01*
X1607Y645240D01*
X1505Y645875D02*
X1607Y645240D01*
X1226Y646434D02*
X1505Y645875D01*
X768Y646866D02*
X1226Y646434D01*
X210Y647145D02*
X768Y646866D01*
X-400Y647247D02*
X210Y647145D01*
X58990D02*
X59600Y647247D01*
X58432Y646866D02*
X58990Y647145D01*
X57974Y646434D02*
X58432Y646866D01*
X57695Y645875D02*
X57974Y646434D01*
X57593Y645240D02*
X57695Y645875D01*
X57593Y645240D02*
X57695Y644630D01*
X57974Y644072D01*
X58432Y643640D01*
X58990Y643360D01*
X59600Y643259D01*
X60210Y643360D01*
X60768Y643640D01*
X61226Y644072D01*
X61505Y644630D01*
X61607Y645240D01*
X61505Y645875D02*
X61607Y645240D01*
X61226Y646434D02*
X61505Y645875D01*
X60768Y646866D02*
X61226Y646434D01*
X60210Y647145D02*
X60768Y646866D01*
X59600Y647247D02*
X60210Y647145D01*
X118990D02*
X119600Y647247D01*
X118432Y646866D02*
X118990Y647145D01*
X117974Y646434D02*
X118432Y646866D01*
X117695Y645875D02*
X117974Y646434D01*
X117593Y645240D02*
X117695Y645875D01*
X117593Y645240D02*
X117695Y644630D01*
X117974Y644072D01*
X118432Y643640D01*
X118990Y643360D01*
X119600Y643259D01*
X120210Y643360D01*
X120768Y643640D01*
X121226Y644072D01*
X121505Y644630D01*
X121607Y645240D01*
X121505Y645875D02*
X121607Y645240D01*
X121226Y646434D02*
X121505Y645875D01*
X120768Y646866D02*
X121226Y646434D01*
X120210Y647145D02*
X120768Y646866D01*
X119600Y647247D02*
X120210Y647145D01*
X178990Y647145D02*
X179600Y647247D01*
X178432Y646866D02*
X178990Y647145D01*
X177974Y646434D02*
X178432Y646866D01*
X177695Y645875D02*
X177974Y646434D01*
X177593Y645240D02*
X177695Y645875D01*
X177593Y645240D02*
X177695Y644630D01*
X177974Y644072D01*
X178432Y643640D01*
X178990Y643360D01*
X179600Y643259D01*
X180210Y643360D01*
X180768Y643640D01*
X181226Y644072D01*
X181505Y644630D01*
X181607Y645240D01*
X181505Y645875D02*
X181607Y645240D01*
X181226Y646434D02*
X181505Y645875D01*
X180768Y646866D02*
X181226Y646434D01*
X180210Y647145D02*
X180768Y646866D01*
X179600Y647247D02*
X180210Y647145D01*
X-1010Y327145D02*
X-400Y327247D01*
X-1568Y326866D02*
X-1010Y327145D01*
X-2026Y326434D02*
X-1568Y326866D01*
X-2305Y325875D02*
X-2026Y326434D01*
X-2407Y325240D02*
X-2305Y325875D01*
X-2407Y325240D02*
X-2305Y324630D01*
X-2026Y324072D01*
X-1568Y323640D01*
X-1010Y323360D01*
X-400Y323259D01*
X210Y323360D01*
X768Y323640D01*
X1226Y324072D01*
X1505Y324630D01*
X1607Y325240D01*
X1505Y325875D02*
X1607Y325240D01*
X1226Y326434D02*
X1505Y325875D01*
X768Y326866D02*
X1226Y326434D01*
X210Y327145D02*
X768Y326866D01*
X-400Y327247D02*
X210Y327145D01*
X58990Y327145D02*
X59600Y327247D01*
X58432Y326866D02*
X58990Y327145D01*
X57974Y326434D02*
X58432Y326866D01*
X57695Y325875D02*
X57974Y326434D01*
X57593Y325240D02*
X57695Y325875D01*
X57593Y325240D02*
X57695Y324630D01*
X57974Y324072D01*
X58432Y323640D01*
X58990Y323360D01*
X59600Y323259D01*
X60210Y323360D01*
X60768Y323640D01*
X61226Y324072D01*
X61505Y324630D01*
X61607Y325240D01*
X61505Y325875D02*
X61607Y325240D01*
X61226Y326434D02*
X61505Y325875D01*
X60768Y326866D02*
X61226Y326434D01*
X60210Y327145D02*
X60768Y326866D01*
X59600Y327247D02*
X60210Y327145D01*
X118990D02*
X119600Y327247D01*
X118432Y326866D02*
X118990Y327145D01*
X117974Y326434D02*
X118432Y326866D01*
X117695Y325875D02*
X117974Y326434D01*
X117593Y325240D02*
X117695Y325875D01*
X117593Y325240D02*
X117695Y324630D01*
X117974Y324072D01*
X118432Y323640D01*
X118990Y323360D01*
X119600Y323259D01*
X120210Y323360D01*
X120768Y323640D01*
X121226Y324072D01*
X121505Y324630D01*
X121607Y325240D01*
X121505Y325875D02*
X121607Y325240D01*
X121226Y326434D02*
X121505Y325875D01*
X120768Y326866D02*
X121226Y326434D01*
X120210Y327145D02*
X120768Y326866D01*
X119600Y327247D02*
X120210Y327145D01*
D12*
X185950Y291001D02*
Y329101D01*
X224050D01*
Y291001D02*
Y329101D01*
X185950Y291001D02*
X224050D01*
X223999Y289070D02*
Y291052D01*
X221993Y287064D02*
X223999Y289070D01*
X188007Y287064D02*
X221993D01*
X186001Y289070D02*
X188007Y287064D01*
X186001Y289070D02*
Y291052D01*
X185010Y282060D02*
X223999D01*
X310497Y34136D02*
X316136D01*
X297797D02*
X299880D01*
X285097D02*
X287180D01*
X272397D02*
X274480D01*
X256141Y114121D02*
X261780D01*
X256141Y34136D02*
Y114121D01*
Y34136D02*
X261780D01*
X272397Y114121D02*
X274480D01*
X285097D02*
X287180D01*
X297797D02*
X299880D01*
X316136Y34619D02*
Y114121D01*
X310497D02*
X316136D01*
X234570Y137347D02*
X249378D01*
X271756D02*
X290399D01*
X234570Y226730D02*
X249378D01*
X234570Y137347D02*
Y226730D01*
X271756D02*
X290374D01*
X565497Y15903D02*
Y45113D01*
Y15903D02*
X585817D01*
Y45113D01*
X565497D02*
X585817D01*
X358295Y64514D02*
X358397Y64006D01*
X358016Y64921D02*
X358295Y64514D01*
X357609Y65200D02*
X358016Y64921D01*
X357127Y65276D02*
X357609Y65200D01*
X356644D02*
X357127Y65276D01*
X356212Y64921D02*
X356644Y65200D01*
X355933Y64514D02*
X356212Y64921D01*
X355857Y64006D02*
X355933Y64514D01*
X355857Y64006D02*
X355933Y63524D01*
X356212Y63117D01*
X356644Y62838D01*
X357127Y62736D01*
X357609Y62838D01*
X358016Y63117D01*
X358295Y63524D01*
X358397Y64006D01*
X472087Y55726D02*
X473509D01*
X357558D02*
X358981D01*
X332539Y10946D02*
Y21690D01*
X498528Y10946D02*
Y21690D01*
X332539Y10946D02*
X498528D01*
X387524Y511865D02*
X396896D01*
Y502492D02*
Y511865D01*
X276246Y502492D02*
Y511865D01*
X286889D01*
X276246Y392485D02*
X286889D01*
X276246D02*
Y401858D01*
X396896Y392485D02*
Y401858D01*
X387524Y392485D02*
X396896D01*
Y502492D02*
Y502975D01*
X594472Y249019D02*
X609280D01*
X553451D02*
X572094D01*
X594472Y159637D02*
X609280D01*
Y249019D01*
X553476Y159637D02*
X572094D01*
X5950Y611001D02*
Y649101D01*
X44050D01*
Y611001D02*
Y649101D01*
X5950Y611001D02*
X44050D01*
X43999Y609070D02*
Y611052D01*
X41993Y607064D02*
X43999Y609070D01*
X8007Y607064D02*
X41993D01*
X6001Y609070D02*
X8007Y607064D01*
X6001Y609070D02*
Y611052D01*
X5010Y602060D02*
X43999D01*
X65950Y611001D02*
Y649101D01*
X104050D01*
Y611001D02*
Y649101D01*
X65950Y611001D02*
X104050D01*
X103999Y609070D02*
Y611052D01*
X101993Y607064D02*
X103999Y609070D01*
X68007Y607064D02*
X101993D01*
X66001Y609070D02*
X68007Y607064D01*
X66001Y609070D02*
Y611052D01*
X65010Y602060D02*
X103999D01*
X125950Y611001D02*
Y649101D01*
X164050D01*
Y611001D02*
Y649101D01*
X125950Y611001D02*
X164050D01*
X163999Y609070D02*
Y611052D01*
X161993Y607064D02*
X163999Y609070D01*
X128007Y607064D02*
X161993D01*
X126001Y609070D02*
X128007Y607064D01*
X126001Y609070D02*
Y611052D01*
X125010Y602060D02*
X163999D01*
X185950Y611001D02*
Y649101D01*
X224050D01*
Y611001D02*
Y649101D01*
X185950Y611001D02*
X224050D01*
X223999Y609070D02*
Y611052D01*
X221993Y607064D02*
X223999Y609070D01*
X188007Y607064D02*
X221993D01*
X186001Y609070D02*
X188007Y607064D01*
X186001Y609070D02*
Y611052D01*
X185010Y602060D02*
X223999D01*
X5950Y291001D02*
Y329101D01*
X44050D01*
Y291001D02*
Y329101D01*
X5950Y291001D02*
X44050D01*
X43999Y289070D02*
Y291052D01*
X41993Y287064D02*
X43999Y289070D01*
X8007Y287064D02*
X41993D01*
X6001Y289070D02*
X8007Y287064D01*
X6001Y289070D02*
Y291052D01*
X5010Y282060D02*
X43999D01*
X65950Y291001D02*
Y329101D01*
X104050D01*
Y291001D02*
Y329101D01*
X65950Y291001D02*
X104050D01*
X103999Y289070D02*
Y291052D01*
X101993Y287064D02*
X103999Y289070D01*
X68007Y287064D02*
X101993D01*
X66001Y289070D02*
X68007Y287064D01*
X66001Y289070D02*
Y291052D01*
X65010Y282060D02*
X103999D01*
X125950Y291001D02*
Y329101D01*
X164050D01*
Y291001D02*
Y329101D01*
X125950Y291001D02*
X164050D01*
X163999Y289070D02*
Y291052D01*
X161993Y287064D02*
X163999Y289070D01*
X128007Y287064D02*
X161993D01*
X126001Y289070D02*
X128007Y287064D01*
X126001Y289070D02*
Y291052D01*
X125010Y282060D02*
X163999D01*
X0Y270000D02*
X230000D01*
X0Y280000D02*
X230000D01*
Y0D02*
Y650000D01*
X0Y0D02*
Y650000D01*
X50000Y0D02*
Y650000D01*
X60000Y0D02*
Y650000D01*
X110000Y0D02*
Y650000D01*
X120000Y0D02*
Y650000D01*
X170000Y0D02*
Y650000D01*
X180000Y0D02*
Y650000D01*
X240000Y0D02*
Y650000D01*
D13*
X313139Y118134D02*
X313647Y118210D01*
X314104Y118490D01*
X314434Y118871D01*
X314612Y119379D01*
Y119887D01*
X314434Y120369D02*
X314612Y119887D01*
X314104Y120776D02*
X314434Y120369D01*
X313647Y121030D02*
X314104Y120776D01*
X313139Y121131D02*
X313647Y121030D01*
X312631D02*
X313139Y121131D01*
X312174Y120776D02*
X312631Y121030D01*
X311843Y120369D02*
X312174Y120776D01*
X311665Y119887D02*
X311843Y120369D01*
X311665Y119379D02*
Y119887D01*
Y119379D02*
X311843Y118871D01*
X312174Y118490D01*
X312631Y118210D01*
X313139Y118134D01*
X358865Y134470D02*
X358941Y134978D01*
X359195Y135436D01*
X359601Y135766D01*
X360084Y135944D01*
X360617D01*
X361100Y135766D01*
X361506Y135436D01*
X361760Y134978D01*
X361862Y134470D01*
X361760Y133962D02*
X361862Y134470D01*
X361506Y133505D02*
X361760Y133962D01*
X361100Y133175D02*
X361506Y133505D01*
X360617Y132997D02*
X361100Y133175D01*
X360084Y132997D02*
X360617D01*
X359601Y133175D02*
X360084Y132997D01*
X359195Y133505D02*
X359601Y133175D01*
X358941Y133962D02*
X359195Y133505D01*
X358865Y134470D02*
X358941Y133962D01*
X364783Y152377D02*
X364859Y152885D01*
X365138Y153343D01*
X365519Y153673D01*
X366027Y153851D01*
X366535D01*
X367018Y153673D01*
X367424Y153343D01*
X367678Y152885D01*
X367780Y152377D01*
X367678Y151869D02*
X367780Y152377D01*
X367424Y151412D02*
X367678Y151869D01*
X367018Y151082D02*
X367424Y151412D01*
X366535Y150904D02*
X367018Y151082D01*
X366027Y150904D02*
X366535D01*
X365519Y151082D02*
X366027Y150904D01*
X365138Y151412D02*
X365519Y151082D01*
X364859Y151869D02*
X365138Y151412D01*
X364783Y152377D02*
X364859Y151869D01*
D14*
X576750Y281750D02*
Y284600D01*
X573900Y281750D02*
X576750D01*
X545250D02*
X548100D01*
X545250D02*
Y284600D01*
Y310400D02*
Y313250D01*
X548100D01*
X576750Y310400D02*
Y313250D01*
X573900D02*
X576750D01*
X376692Y220366D02*
X397692D01*
X376692Y244866D02*
X397692D01*
X497267Y214401D02*
X507766D01*
X497267Y194201D02*
X507766D01*
X349219Y356239D02*
Y359739D01*
X354469Y342989D02*
X363219D01*
Y365739D02*
Y372989D01*
Y342989D02*
Y350239D01*
X354469Y372989D02*
X363219D01*
X358500Y284500D02*
X363723D01*
X358500Y255500D02*
Y263316D01*
Y276684D02*
Y284500D01*
Y255500D02*
X363723D01*
X575408Y407908D02*
X596470D01*
X575408Y389908D02*
X596470D01*
X459969Y357969D02*
Y392031D01*
X490031Y357969D02*
Y392031D01*
X533000Y417469D02*
Y442531D01*
X507000Y417469D02*
Y442531D01*
X563791Y12709D02*
Y37291D01*
X546209Y12709D02*
Y37291D01*
X301750Y347000D02*
X308250D01*
X301750Y363000D02*
X308250D01*
X415145Y367404D02*
Y376374D01*
X433207Y367404D02*
Y376374D01*
X574543Y467864D02*
X595605D01*
X574543Y449865D02*
X595605D01*
X459469Y464000D02*
X480531D01*
X459469Y446000D02*
X480531D01*
X509469Y464000D02*
X530531D01*
X509469Y446000D02*
X530531D01*
X447537Y295037D02*
Y304007D01*
X465599Y295037D02*
Y304007D01*
X547000Y257000D02*
X563000D01*
X547000Y273000D02*
X563000D01*
X523497Y291550D02*
Y307550D01*
X539497Y291550D02*
Y307550D01*
X583000Y327000D02*
Y343000D01*
X567000Y327000D02*
Y343000D01*
X520281Y397030D02*
X541343D01*
X520281Y379030D02*
X541343D01*
X519821Y330002D02*
X535821D01*
X519821Y346002D02*
X535821D01*
X564034Y364572D02*
Y380573D01*
X548034Y364572D02*
Y380573D01*
X591000Y118719D02*
Y139781D01*
X573000Y118719D02*
Y139781D01*
X564844Y426572D02*
Y442572D01*
X548844Y426572D02*
Y442572D01*
X462000Y413000D02*
X478000D01*
X462000Y397000D02*
X478000D01*
X263563Y26105D02*
X279562D01*
X263563Y10105D02*
X279562D01*
X576624Y66736D02*
X592624D01*
X576624Y82736D02*
X592624D01*
X510629Y262176D02*
X526629D01*
X510629Y278176D02*
X526629D01*
X512000Y413000D02*
X528000D01*
X512000Y397000D02*
X528000D01*
X463163Y339766D02*
X479163D01*
X463163Y355766D02*
X479163D01*
X336666Y172303D02*
X347166D01*
X336666Y192503D02*
X347166D01*
X491941Y107769D02*
Y132351D01*
X509524Y107769D02*
Y132351D01*
X510107Y161360D02*
Y185942D01*
X492524Y161360D02*
Y185942D01*
X568041Y116959D02*
Y141541D01*
X550459Y116959D02*
Y141541D01*
X566457Y360971D02*
Y386033D01*
X592457Y360971D02*
Y386033D01*
X567190Y421021D02*
Y446083D01*
X593190Y421021D02*
Y446083D01*
X543898Y351015D02*
Y376077D01*
X517898Y351015D02*
Y376077D01*
X483000Y417469D02*
Y442531D01*
X457000Y417469D02*
Y442531D01*
X491924Y283360D02*
Y317422D01*
X521986Y283360D02*
Y317422D01*
X412000Y268250D02*
Y271750D01*
X398000Y285000D02*
X406750D01*
X398000Y255000D02*
Y262250D01*
Y277750D02*
Y285000D01*
Y255000D02*
X406750D01*
X423482Y239466D02*
X429982D01*
X423482Y223466D02*
X429982D01*
D15*
X375478Y199004D02*
X487009D01*
Y87498D02*
Y199004D01*
X375478Y87498D02*
X487009D01*
X375478D02*
Y199004D01*
X373192Y85212D02*
Y92477D01*
Y85212D02*
X380481D01*
X455230Y386829D02*
X456907D01*
Y358711D02*
Y386829D01*
X439584D02*
X441260D01*
X439584Y358711D02*
Y386829D01*
Y363055D02*
X456907D01*
X439584Y364502D02*
X456907D01*
X439584Y358711D02*
X440701D01*
X455789D02*
X456907D01*
X455789Y356959D02*
X456907D01*
Y358711D01*
X439584Y356959D02*
Y358711D01*
Y356959D02*
X440701D01*
Y358711D01*
X455789Y356959D02*
Y358711D01*
X366129Y120577D02*
Y141989D01*
X334582Y120577D02*
X366129D01*
X334582D02*
Y141989D01*
X366129D01*
X487839Y314375D02*
X489516D01*
Y286257D02*
Y314375D01*
X472193D02*
X473869D01*
X472193Y286257D02*
Y314375D01*
Y290601D02*
X489516D01*
X472193Y292049D02*
X489516D01*
X472193Y286257D02*
X473311D01*
X488398D02*
X489516D01*
X488398Y284505D02*
X489516D01*
Y286257D01*
X472193Y284505D02*
Y286257D01*
Y284505D02*
X473311D01*
Y286257D01*
X488398Y284505D02*
Y286257D01*
X285843Y130063D02*
Y123292D01*
X287197Y121937D01*
X289906D01*
X291260Y123292D01*
Y130063D01*
X293969Y121937D02*
X296677D01*
X295323D01*
Y130063D01*
X293969Y128708D01*
X306157Y130063D02*
X303448Y128708D01*
X300740Y126000D01*
Y123292D01*
X302094Y121937D01*
X304802D01*
X306157Y123292D01*
Y124646D01*
X304802Y126000D01*
X300740D01*
X246043Y214063D02*
Y207292D01*
X247397Y205937D01*
X250105D01*
X251460Y207292D01*
Y214063D01*
X259585Y212708D02*
X258231Y214063D01*
X255522D01*
X254168Y212708D01*
Y211354D01*
X255522Y210000D01*
X258231D01*
X259585Y208646D01*
Y207292D01*
X258231Y205937D01*
X255522D01*
X254168Y207292D01*
X262293Y214063D02*
Y205937D01*
X266356D01*
X267710Y207292D01*
Y208646D01*
X266356Y210000D01*
X262293D01*
X266356D01*
X267710Y211354D01*
Y212708D01*
X266356Y214063D01*
X262293D01*
X275836Y212708D02*
X274482Y214063D01*
X271773D01*
X270419Y212708D01*
Y207292D01*
X271773Y205937D01*
X274482D01*
X275836Y207292D01*
X283961Y205937D02*
X278544D01*
X283961Y211354D01*
Y212708D01*
X282607Y214063D01*
X279898D01*
X278544Y212708D01*
X529583Y324063D02*
Y317292D01*
X530937Y315937D01*
X533646D01*
X535000Y317292D01*
Y324063D01*
X537709Y315937D02*
X540417D01*
X539063D01*
Y324063D01*
X537709Y322708D01*
X590937Y19843D02*
X597709D01*
X599063Y21198D01*
Y23906D01*
X597709Y25260D01*
X590937D01*
X599063Y27969D02*
Y30677D01*
Y29323D01*
X590937D01*
X592292Y27969D01*
Y34740D02*
X590937Y36094D01*
Y38802D01*
X592292Y40157D01*
X593646D01*
X595000Y38802D01*
Y37448D01*
Y38802D01*
X596354Y40157D01*
X597709D01*
X599063Y38802D01*
Y36094D01*
X597709Y34740D01*
X337437Y219979D02*
X344208D01*
X345563Y221333D01*
Y224042D01*
X344208Y225396D01*
X337437D01*
X338792Y228104D02*
X337437Y229459D01*
Y232167D01*
X338792Y233521D01*
X340146D01*
X341500Y232167D01*
Y230813D01*
Y232167D01*
X342854Y233521D01*
X344208D01*
X345563Y232167D01*
Y229459D01*
X344208Y228104D01*
X421458Y585937D02*
Y591354D01*
X424166Y594063D01*
X426875Y591354D01*
Y585937D01*
Y590000D01*
X421458D01*
X429583Y585937D02*
Y594063D01*
X435000Y585937D01*
Y594063D01*
X437709D02*
X443125D01*
X440417D01*
Y585937D01*
X445834D02*
X448542D01*
X447188D01*
Y594063D01*
X445834Y592709D01*
X350979Y237313D02*
Y235958D01*
X353687Y233250D01*
X356396Y235958D01*
Y237313D01*
X353687Y233250D02*
Y229187D01*
X364521D02*
X359104D01*
X364521Y234604D01*
Y235958D01*
X363167Y237313D01*
X360458D01*
X359104Y235958D01*
X496712Y230237D02*
Y222112D01*
X500775D01*
X502129Y223466D01*
Y228883D01*
X500775Y230237D01*
X496712D01*
X510254D02*
X504837D01*
Y226175D01*
X507546Y227529D01*
X508900D01*
X510254Y226175D01*
Y223466D01*
X508900Y222112D01*
X506192D01*
X504837Y223466D01*
X334275Y353686D02*
X328858D01*
X327504Y352332D01*
Y349623D01*
X328858Y348269D01*
X334275D01*
X335629Y349623D01*
Y352332D01*
X332920Y350978D02*
X335629Y353686D01*
Y352332D02*
X334275Y353686D01*
X335629Y360457D02*
X327504D01*
X331566Y356395D01*
Y361812D01*
X352269Y295856D02*
Y301273D01*
X350915Y302627D01*
X348206D01*
X346852Y301273D01*
Y295856D01*
X348206Y294502D01*
X350915D01*
X349561Y297211D02*
X352269Y294502D01*
X350915D02*
X352269Y295856D01*
X354977Y294502D02*
X357686D01*
X356332D01*
Y302627D01*
X354977Y301273D01*
X521063Y483771D02*
X512937D01*
Y478354D01*
X521063Y470229D02*
Y475646D01*
X517000D01*
X518354Y472937D01*
Y471583D01*
X517000Y470229D01*
X514292D01*
X512937Y471583D01*
Y474291D01*
X514292Y475646D01*
X523959Y14218D02*
X518542D01*
Y10156D01*
X521251D01*
X518542D01*
Y6093D01*
X526668Y14218D02*
Y6093D01*
X530730D01*
X532085Y7447D01*
Y8802D01*
X530730Y10156D01*
X526668D01*
X530730D01*
X532085Y11510D01*
Y12864D01*
X530730Y14218D01*
X526668D01*
X538856Y6093D02*
Y14218D01*
X534793Y10156D01*
X540210D01*
X268229Y359063D02*
Y357709D01*
X270937Y355000D01*
X273646Y357709D01*
Y359063D01*
X270937Y355000D02*
Y350937D01*
X276354Y357709D02*
X277708Y359063D01*
X280417D01*
X281771Y357709D01*
Y356354D01*
X280417Y355000D01*
X279063D01*
X280417D01*
X281771Y353646D01*
Y352291D01*
X280417Y350937D01*
X277708D01*
X276354Y352291D01*
X400541Y364198D02*
X399187Y362843D01*
Y360135D01*
X400541Y358781D01*
X405958D01*
X407313Y360135D01*
Y362843D01*
X405958Y364198D01*
X407313Y366906D02*
Y369614D01*
Y368260D01*
X399187D01*
X400541Y366906D01*
Y373677D02*
X399187Y375031D01*
Y377740D01*
X400541Y379094D01*
X405958D01*
X407313Y377740D01*
Y375031D01*
X405958Y373677D01*
X400541D01*
X407313Y385865D02*
X399187D01*
X403250Y381802D01*
Y387219D01*
X388646Y79063D02*
X385937D01*
X387292D01*
Y72291D01*
X385937Y70937D01*
X384583D01*
X383229Y72291D01*
X396771Y79063D02*
X391354D01*
Y75000D01*
X394063Y76354D01*
X395417D01*
X396771Y75000D01*
Y72291D01*
X395417Y70937D01*
X392709D01*
X391354Y72291D01*
X216191Y471430D02*
Y468891D01*
Y470161D01*
X222539D01*
X223809Y468891D01*
Y467622D01*
X222539Y466352D01*
X223809Y473970D02*
Y476509D01*
Y475239D01*
X216191D01*
X217461Y473970D01*
X223809Y485396D02*
Y480318D01*
X218730Y485396D01*
X217461D01*
X216191Y484126D01*
Y481587D01*
X217461Y480318D01*
X532709Y72448D02*
X534063Y73802D01*
Y76511D01*
X532709Y77865D01*
X527292D01*
X525937Y76511D01*
Y73802D01*
X527292Y72448D01*
X525937Y69740D02*
Y67031D01*
Y68386D01*
X534063D01*
X532709Y69740D01*
Y62969D02*
X534063Y61614D01*
Y58906D01*
X532709Y57552D01*
X527292D01*
X525937Y58906D01*
Y61614D01*
X527292Y62969D01*
X532709D01*
X525937Y54843D02*
Y52135D01*
Y53489D01*
X534063D01*
X532709Y54843D01*
X270144Y541133D02*
Y534362D01*
X271498Y533008D01*
X274207D01*
X275561Y534362D01*
Y541133D01*
X278269Y533008D02*
X280978D01*
X279624D01*
Y541133D01*
X278269Y539779D01*
X285040Y533008D02*
X287749D01*
X286395D01*
Y541133D01*
X285040Y539779D01*
X396798Y532881D02*
X395529Y534150D01*
X392990D01*
X391720Y532881D01*
Y527802D01*
X392990Y526533D01*
X395529D01*
X396798Y527802D01*
X399338Y534150D02*
X404416D01*
X401877D01*
Y526533D01*
X406955D02*
X409494D01*
X408225D01*
Y534150D01*
X406955Y532881D01*
X556191Y525157D02*
X563809D01*
Y521348D01*
X562539Y520078D01*
X560000D01*
X558730Y521348D01*
Y525157D01*
Y522617D02*
X556191Y520078D01*
X563809Y517539D02*
X556191D01*
Y513730D01*
X557461Y512461D01*
X558730D01*
X560000Y513730D01*
Y517539D01*
Y513730D01*
X561270Y512461D01*
X562539D01*
X563809Y513730D01*
Y517539D01*
Y504843D02*
Y509922D01*
X560000D01*
X561270Y507382D01*
Y506113D01*
X560000Y504843D01*
X557461D01*
X556191Y506113D01*
Y508652D01*
X557461Y509922D01*
X260753Y512959D02*
X252627D01*
Y517021D01*
X253981Y518376D01*
X256690D01*
X258044Y517021D01*
Y512959D01*
Y515667D02*
X260753Y518376D01*
X253981Y521084D02*
X252627Y522438D01*
Y525147D01*
X253981Y526501D01*
X255336D01*
X256690Y525147D01*
Y523792D01*
Y525147D01*
X258044Y526501D01*
X259398D01*
X260753Y525147D01*
Y522438D01*
X259398Y521084D01*
X253981Y529209D02*
X252627Y530564D01*
Y533272D01*
X253981Y534626D01*
X255336D01*
X256690Y533272D01*
X258044Y534626D01*
X259398D01*
X260753Y533272D01*
Y530564D01*
X259398Y529209D01*
X258044D01*
X256690Y530564D01*
X255336Y529209D01*
X253981D01*
X256690Y530564D02*
Y533272D01*
X566191Y500157D02*
X573809D01*
Y496348D01*
X572539Y495078D01*
X570000D01*
X568730Y496348D01*
Y500157D01*
Y497617D02*
X566191Y495078D01*
X573809Y492539D02*
X566191D01*
Y488730D01*
X567461Y487461D01*
X568730D01*
X570000Y488730D01*
Y492539D01*
Y488730D01*
X571270Y487461D01*
X572539D01*
X573809Y488730D01*
Y492539D01*
Y479843D02*
X572539Y482382D01*
X570000Y484922D01*
X567461D01*
X566191Y483652D01*
Y481113D01*
X567461Y479843D01*
X568730D01*
X570000Y481113D01*
Y484922D01*
X484093Y495687D02*
Y503813D01*
X488156D01*
X489510Y502458D01*
Y499750D01*
X488156Y498396D01*
X484093D01*
X486802D02*
X489510Y495687D01*
X492219D02*
X494927D01*
X493573D01*
Y503813D01*
X492219Y502458D01*
X498990Y497042D02*
X500344Y495687D01*
X503052D01*
X504407Y497042D01*
Y502458D01*
X503052Y503813D01*
X500344D01*
X498990Y502458D01*
Y501104D01*
X500344Y499750D01*
X504407D01*
X450916Y515187D02*
Y523313D01*
X454979D01*
X456333Y521958D01*
Y519250D01*
X454979Y517896D01*
X450916D01*
X453625D02*
X456333Y515187D01*
X459042Y521958D02*
X460396Y523313D01*
X463104D01*
X464459Y521958D01*
Y520604D01*
X463104Y519250D01*
X461750D01*
X463104D01*
X464459Y517896D01*
Y516541D01*
X463104Y515187D01*
X460396D01*
X459042Y516541D01*
X472584Y515187D02*
X467167D01*
X472584Y520604D01*
Y521958D01*
X471230Y523313D01*
X468521D01*
X467167Y521958D01*
X416791Y484448D02*
X415437Y483093D01*
Y480385D01*
X416791Y479031D01*
X422209D01*
X423563Y480385D01*
Y483093D01*
X422209Y484448D01*
X423563Y487156D02*
Y489864D01*
Y488510D01*
X415437D01*
X416791Y487156D01*
Y493927D02*
X415437Y495281D01*
Y497990D01*
X416791Y499344D01*
X422209D01*
X423563Y497990D01*
Y495281D01*
X422209Y493927D01*
X416791D01*
X422209Y502052D02*
X423563Y503407D01*
Y506115D01*
X422209Y507469D01*
X416791D01*
X415437Y506115D01*
Y503407D01*
X416791Y502052D01*
X418146D01*
X419500Y503407D01*
Y507469D01*
X443063Y485666D02*
X434937D01*
Y489729D01*
X436292Y491083D01*
X439000D01*
X440354Y489729D01*
Y485666D01*
Y488375D02*
X443063Y491083D01*
X434937Y493792D02*
Y499208D01*
X436292D01*
X441708Y493792D01*
X443063D01*
Y507334D02*
Y501917D01*
X437646Y507334D01*
X436292D01*
X434937Y505980D01*
Y503271D01*
X436292Y501917D01*
X552175Y463428D02*
X550821Y464782D01*
X548113D01*
X546758Y463428D01*
Y458011D01*
X548113Y456656D01*
X550821D01*
X552175Y458011D01*
X560301Y456656D02*
X554884D01*
X560301Y462073D01*
Y463428D01*
X558947Y464782D01*
X556238D01*
X554884Y463428D01*
X563009D02*
X564364Y464782D01*
X567072D01*
X568426Y463428D01*
Y458011D01*
X567072Y456656D01*
X564364D01*
X563009Y458011D01*
Y463428D01*
X462833Y508958D02*
X461479Y510313D01*
X458770D01*
X457416Y508958D01*
Y503541D01*
X458770Y502187D01*
X461479D01*
X462833Y503541D01*
X465542Y508958D02*
X466896Y510313D01*
X469604D01*
X470959Y508958D01*
Y507604D01*
X469604Y506250D01*
X470959Y504896D01*
Y503541D01*
X469604Y502187D01*
X466896D01*
X465542Y503541D01*
Y504896D01*
X466896Y506250D01*
X465542Y507604D01*
Y508958D01*
X466896Y506250D02*
X469604D01*
X473667Y510313D02*
X479084D01*
Y508958D01*
X473667Y503541D01*
Y502187D01*
X533892Y474636D02*
X532538Y475990D01*
X529830D01*
X528475Y474636D01*
Y469219D01*
X529830Y467865D01*
X532538D01*
X533892Y469219D01*
X536601Y474636D02*
X537955Y475990D01*
X540664D01*
X542018Y474636D01*
Y473282D01*
X540664Y471928D01*
X542018Y470574D01*
Y469219D01*
X540664Y467865D01*
X537955D01*
X536601Y469219D01*
Y470574D01*
X537955Y471928D01*
X536601Y473282D01*
Y474636D01*
X537955Y471928D02*
X540664D01*
X544726Y469219D02*
X546081Y467865D01*
X548789D01*
X550143Y469219D01*
Y474636D01*
X548789Y475990D01*
X546081D01*
X544726Y474636D01*
Y473282D01*
X546081Y471928D01*
X550143D01*
X483416Y482687D02*
Y490813D01*
X487479D01*
X488833Y489459D01*
Y486750D01*
X487479Y485396D01*
X483416D01*
X486125D02*
X488833Y482687D01*
X496959D02*
X491542D01*
X496959Y488104D01*
Y489459D01*
X495604Y490813D01*
X492896D01*
X491542Y489459D01*
X499667D02*
X501021Y490813D01*
X503730D01*
X505084Y489459D01*
Y488104D01*
X503730Y486750D01*
X505084Y485396D01*
Y484042D01*
X503730Y482687D01*
X501021D01*
X499667Y484042D01*
Y485396D01*
X501021Y486750D01*
X499667Y488104D01*
Y489459D01*
X501021Y486750D02*
X503730D01*
X551047Y243673D02*
X549693Y245027D01*
X546984D01*
X545630Y243673D01*
Y238256D01*
X546984Y236901D01*
X549693D01*
X551047Y238256D01*
X559173Y236901D02*
X553756D01*
X559173Y242318D01*
Y243673D01*
X557818Y245027D01*
X555110D01*
X553756Y243673D01*
X500717Y77546D02*
X499362Y78900D01*
X496654D01*
X495300Y77546D01*
Y72129D01*
X496654Y70775D01*
X499362D01*
X500717Y72129D01*
X503425Y77546D02*
X504779Y78900D01*
X507488D01*
X508842Y77546D01*
Y76192D01*
X507488Y74838D01*
X508842Y73483D01*
Y72129D01*
X507488Y70775D01*
X504779D01*
X503425Y72129D01*
Y73483D01*
X504779Y74838D01*
X503425Y76192D01*
Y77546D01*
X504779Y74838D02*
X507488D01*
X557292Y331614D02*
X555937Y330260D01*
Y327552D01*
X557292Y326198D01*
X562709D01*
X564063Y327552D01*
Y330260D01*
X562709Y331614D01*
X564063Y334323D02*
Y337031D01*
Y335677D01*
X555937D01*
X557292Y334323D01*
X564063Y341094D02*
Y343802D01*
Y342448D01*
X555937D01*
X557292Y341094D01*
X495321Y339886D02*
X493966Y341240D01*
X491258D01*
X489904Y339886D01*
Y334469D01*
X491258Y333115D01*
X493966D01*
X495321Y334469D01*
X498029Y333115D02*
X500737D01*
X499383D01*
Y341240D01*
X498029Y339886D01*
X510217Y341240D02*
X504800D01*
Y337178D01*
X507509Y338532D01*
X508863D01*
X510217Y337178D01*
Y334469D01*
X508863Y333115D01*
X506154D01*
X504800Y334469D01*
X584709Y107990D02*
X586063Y109344D01*
Y112052D01*
X584709Y113407D01*
X579292D01*
X577937Y112052D01*
Y109344D01*
X579292Y107990D01*
X577937Y105281D02*
Y102573D01*
Y103927D01*
X586063D01*
X584709Y105281D01*
X586063Y98510D02*
Y93093D01*
X584709D01*
X579292Y98510D01*
X577937D01*
X555215Y485561D02*
X553861Y484207D01*
Y481499D01*
X555215Y480145D01*
X560632D01*
X561986Y481499D01*
Y484207D01*
X560632Y485561D01*
X561986Y488270D02*
Y490978D01*
Y489624D01*
X553861D01*
X555215Y488270D01*
X560632Y495041D02*
X561986Y496395D01*
Y499104D01*
X560632Y500458D01*
X555215D01*
X553861Y499104D01*
Y496395D01*
X555215Y495041D01*
X556569D01*
X557923Y496395D01*
Y500458D01*
X379583Y342709D02*
X378229Y344063D01*
X375520D01*
X374166Y342709D01*
Y337292D01*
X375520Y335937D01*
X378229D01*
X379583Y337292D01*
X387709Y335937D02*
X382292D01*
X387709Y341354D01*
Y342709D01*
X386354Y344063D01*
X383646D01*
X382292Y342709D01*
X390417D02*
X391771Y344063D01*
X394480D01*
X395834Y342709D01*
Y341354D01*
X394480Y340000D01*
X393125D01*
X394480D01*
X395834Y338646D01*
Y337292D01*
X394480Y335937D01*
X391771D01*
X390417Y337292D01*
X436833Y408209D02*
X435479Y409563D01*
X432770D01*
X431416Y408209D01*
Y402791D01*
X432770Y401437D01*
X435479D01*
X436833Y402791D01*
X444958Y409563D02*
X439542D01*
Y405500D01*
X442250Y406854D01*
X443604D01*
X444958Y405500D01*
Y402791D01*
X443604Y401437D01*
X440896D01*
X439542Y402791D01*
X447667Y408209D02*
X449021Y409563D01*
X451730D01*
X453084Y408209D01*
Y402791D01*
X451730Y401437D01*
X449021D01*
X447667Y402791D01*
Y408209D01*
X557162Y65499D02*
X555808Y66853D01*
X553100D01*
X551745Y65499D01*
Y60082D01*
X553100Y58728D01*
X555808D01*
X557162Y60082D01*
X559871D02*
X561225Y58728D01*
X563933D01*
X565288Y60082D01*
Y65499D01*
X563933Y66853D01*
X561225D01*
X559871Y65499D01*
Y64145D01*
X561225Y62791D01*
X565288D01*
X573413Y66853D02*
X567996D01*
Y62791D01*
X570704Y64145D01*
X572059D01*
X573413Y62791D01*
Y60082D01*
X572059Y58728D01*
X569350D01*
X567996Y60082D01*
X551407Y79508D02*
X550053Y80862D01*
X547344D01*
X545990Y79508D01*
Y74091D01*
X547344Y72737D01*
X550053D01*
X551407Y74091D01*
X554115D02*
X555470Y72737D01*
X558178D01*
X559532Y74091D01*
Y79508D01*
X558178Y80862D01*
X555470D01*
X554115Y79508D01*
Y78153D01*
X555470Y76799D01*
X559532D01*
X567658Y80862D02*
X564949Y79508D01*
X562241Y76799D01*
Y74091D01*
X563595Y72737D01*
X566303D01*
X567658Y74091D01*
Y75445D01*
X566303Y76799D01*
X562241D01*
X519000Y73610D02*
X520354Y74964D01*
Y77673D01*
X519000Y79027D01*
X513583D01*
X512229Y77673D01*
Y74964D01*
X513583Y73610D01*
Y70902D02*
X512229Y69547D01*
Y66839D01*
X513583Y65485D01*
X519000D01*
X520354Y66839D01*
Y69547D01*
X519000Y70902D01*
X517646D01*
X516292Y69547D01*
Y65485D01*
X520354Y62776D02*
Y57359D01*
X519000D01*
X513583Y62776D01*
X512229D01*
X543698Y413033D02*
X542344Y414388D01*
X539636D01*
X538281Y413033D01*
Y407617D01*
X539636Y406262D01*
X542344D01*
X543698Y407617D01*
X546407Y406262D02*
X549115D01*
X547761D01*
Y414388D01*
X546407Y413033D01*
X553178D02*
X554532Y414388D01*
X557240D01*
X558595Y413033D01*
Y407617D01*
X557240Y406262D01*
X554532D01*
X553178Y407617D01*
Y413033D01*
X566720Y414388D02*
X561303D01*
Y410325D01*
X564012Y411679D01*
X565366D01*
X566720Y410325D01*
Y407617D01*
X565366Y406262D01*
X562657D01*
X561303Y407617D01*
X490389Y351397D02*
X489035Y352751D01*
X486326D01*
X484972Y351397D01*
Y345980D01*
X486326Y344626D01*
X489035D01*
X490389Y345980D01*
X493098Y344626D02*
X495806D01*
X494452D01*
Y352751D01*
X493098Y351397D01*
X499869D02*
X501223Y352751D01*
X503931D01*
X505286Y351397D01*
Y345980D01*
X503931Y344626D01*
X501223D01*
X499869Y345980D01*
Y351397D01*
X513411Y352751D02*
X510703Y351397D01*
X507994Y348688D01*
Y345980D01*
X509348Y344626D01*
X512057D01*
X513411Y345980D01*
Y347334D01*
X512057Y348688D01*
X507994D01*
X262896Y378185D02*
X261542Y379539D01*
X258833D01*
X257479Y378185D01*
Y372768D01*
X258833Y371414D01*
X261542D01*
X262896Y372768D01*
X265604Y371414D02*
X268313D01*
X266959D01*
Y379539D01*
X265604Y378185D01*
X272375Y371414D02*
X275084D01*
X273730D01*
Y379539D01*
X272375Y378185D01*
X279146Y371414D02*
X281855D01*
X280501D01*
Y379539D01*
X279146Y378185D01*
X330342Y208139D02*
Y200014D01*
X334405D01*
X335759Y201368D01*
Y206785D01*
X334405Y208139D01*
X330342D01*
X338467Y206785D02*
X339822Y208139D01*
X342530D01*
X343884Y206785D01*
Y205431D01*
X342530Y204077D01*
X341176D01*
X342530D01*
X343884Y202722D01*
Y201368D01*
X342530Y200014D01*
X339822D01*
X338467Y201368D01*
X472873Y335159D02*
Y327034D01*
X476936D01*
X478290Y328388D01*
Y333805D01*
X476936Y335159D01*
X472873D01*
X480999D02*
X486416D01*
Y333805D01*
X480999Y328388D01*
Y327034D01*
X504020Y359567D02*
X512145D01*
Y364984D01*
X505374Y367692D02*
X504020Y369047D01*
Y371755D01*
X505374Y373109D01*
X506728D01*
X508083Y371755D01*
Y370401D01*
Y371755D01*
X509437Y373109D01*
X510791D01*
X512145Y371755D01*
Y369047D01*
X510791Y367692D01*
X475563Y493521D02*
X467437D01*
Y488104D01*
Y481333D02*
X475563D01*
X471500Y485396D01*
Y479979D01*
X499588Y330815D02*
Y322690D01*
X505005D01*
X513130Y330815D02*
X510421Y329461D01*
X507713Y326753D01*
Y324044D01*
X509067Y322690D01*
X511776D01*
X513130Y324044D01*
Y325398D01*
X511776Y326753D01*
X507713D01*
X405146Y305292D02*
Y310708D01*
X403792Y312063D01*
X401083D01*
X399729Y310708D01*
Y305292D01*
X401083Y303937D01*
X403792D01*
X402437Y306646D02*
X405146Y303937D01*
X403792D02*
X405146Y305292D01*
X413271Y303937D02*
X407854D01*
X413271Y309354D01*
Y310708D01*
X411917Y312063D01*
X409208D01*
X407854Y310708D01*
X484229Y255187D02*
Y263313D01*
X488292D01*
X489646Y261959D01*
Y259250D01*
X488292Y257896D01*
X484229D01*
X486937D02*
X489646Y255187D01*
X492354Y261959D02*
X493708Y263313D01*
X496417D01*
X497771Y261959D01*
Y260604D01*
X496417Y259250D01*
X495063D01*
X496417D01*
X497771Y257896D01*
Y256542D01*
X496417Y255187D01*
X493708D01*
X492354Y256542D01*
X369063Y439166D02*
X360937D01*
Y443229D01*
X362291Y444583D01*
X365000D01*
X366354Y443229D01*
Y439166D01*
Y441875D02*
X369063Y444583D01*
Y452709D02*
Y447292D01*
X363646Y452709D01*
X362291D01*
X360937Y451354D01*
Y448646D01*
X362291Y447292D01*
Y455417D02*
X360937Y456771D01*
Y459480D01*
X362291Y460834D01*
X363646D01*
X365000Y459480D01*
Y458125D01*
Y459480D01*
X366354Y460834D01*
X367708D01*
X369063Y459480D01*
Y456771D01*
X367708Y455417D01*
X494548Y385726D02*
Y393852D01*
X498610D01*
X499964Y392497D01*
Y389789D01*
X498610Y388435D01*
X494548D01*
X497256D02*
X499964Y385726D01*
X508090D02*
X502673D01*
X508090Y391143D01*
Y392497D01*
X506736Y393852D01*
X504027D01*
X502673Y392497D01*
X510798Y393852D02*
X516215D01*
Y392497D01*
X510798Y387080D01*
Y385726D01*
X362226Y402486D02*
Y410611D01*
X366289D01*
X367643Y409257D01*
Y406548D01*
X366289Y405194D01*
X362226D01*
X364934D02*
X367643Y402486D01*
X370351Y409257D02*
X371706Y410611D01*
X374414D01*
X375768Y409257D01*
Y407902D01*
X374414Y406548D01*
X373060D01*
X374414D01*
X375768Y405194D01*
Y403840D01*
X374414Y402486D01*
X371706D01*
X370351Y403840D01*
X378477Y409257D02*
X379831Y410611D01*
X382539D01*
X383894Y409257D01*
Y403840D01*
X382539Y402486D01*
X379831D01*
X378477Y403840D01*
Y409257D01*
X375937Y435834D02*
X384063D01*
Y431771D01*
X382709Y430417D01*
X380000D01*
X378646Y431771D01*
Y435834D01*
Y433125D02*
X375937Y430417D01*
X382709Y427709D02*
X384063Y426354D01*
Y423646D01*
X382709Y422292D01*
X381354D01*
X380000Y423646D01*
Y425000D01*
Y423646D01*
X378646Y422292D01*
X377291D01*
X375937Y423646D01*
Y426354D01*
X377291Y427709D01*
X375937Y415520D02*
X384063D01*
X380000Y419583D01*
Y414166D01*
X360937Y435834D02*
X369063D01*
Y431771D01*
X367708Y430417D01*
X365000D01*
X363646Y431771D01*
Y435834D01*
Y433125D02*
X360937Y430417D01*
X367708Y427708D02*
X369063Y426354D01*
Y423646D01*
X367708Y422291D01*
X366354D01*
X365000Y423646D01*
Y425000D01*
Y423646D01*
X363646Y422291D01*
X362291D01*
X360937Y423646D01*
Y426354D01*
X362291Y427708D01*
X369063Y414166D02*
X367708Y416875D01*
X365000Y419583D01*
X362291D01*
X360937Y418229D01*
Y415520D01*
X362291Y414166D01*
X363646D01*
X365000Y415520D01*
Y419583D01*
X494458Y84791D02*
Y92916D01*
X498520D01*
X499874Y91562D01*
Y88854D01*
X498520Y87499D01*
X494458D01*
X497166D02*
X499874Y84791D01*
X502583Y91562D02*
X503937Y92916D01*
X506646D01*
X508000Y91562D01*
Y90208D01*
X506646Y88854D01*
X505291D01*
X506646D01*
X508000Y87499D01*
Y86145D01*
X506646Y84791D01*
X503937D01*
X502583Y86145D01*
X510708Y92916D02*
X516125D01*
Y91562D01*
X510708Y86145D01*
Y84791D01*
X447666Y261687D02*
Y269813D01*
X451729D01*
X453083Y268458D01*
Y265750D01*
X451729Y264396D01*
X447666D01*
X450375D02*
X453083Y261687D01*
X461208Y269813D02*
X458500Y268458D01*
X455792Y265750D01*
Y263041D01*
X457146Y261687D01*
X459854D01*
X461208Y263041D01*
Y264396D01*
X459854Y265750D01*
X455792D01*
X463917Y268458D02*
X465271Y269813D01*
X467980D01*
X469334Y268458D01*
Y263041D01*
X467980Y261687D01*
X465271D01*
X463917Y263041D01*
Y268458D01*
X420038Y323926D02*
Y332051D01*
X424100D01*
X425455Y330697D01*
Y327988D01*
X424100Y326634D01*
X420038D01*
X422746D02*
X425455Y323926D01*
X433580Y332051D02*
X430872Y330697D01*
X428163Y327988D01*
Y325280D01*
X429518Y323926D01*
X432226D01*
X433580Y325280D01*
Y326634D01*
X432226Y327988D01*
X428163D01*
X436289Y332051D02*
X441706D01*
Y330697D01*
X436289Y325280D01*
Y323926D01*
X384063Y440520D02*
X375937D01*
Y444583D01*
X377291Y445937D01*
X380000D01*
X381354Y444583D01*
Y440520D01*
Y443229D02*
X384063Y445937D01*
X375937Y448646D02*
Y454063D01*
X377291D01*
X382709Y448646D01*
X384063D01*
Y456771D02*
Y459480D01*
Y458125D01*
X375937D01*
X377291Y456771D01*
X557396Y234063D02*
Y227292D01*
X558750Y225937D01*
X561459D01*
X562813Y227292D01*
Y234063D01*
X570938Y232708D02*
X569584Y234063D01*
X566876D01*
X565521Y232708D01*
Y231354D01*
X566876Y230000D01*
X569584D01*
X570938Y228646D01*
Y227292D01*
X569584Y225937D01*
X566876D01*
X565521Y227292D01*
X573647Y234063D02*
Y225937D01*
X577710D01*
X579064Y227292D01*
Y228646D01*
X577710Y230000D01*
X573647D01*
X577710D01*
X579064Y231354D01*
Y232708D01*
X577710Y234063D01*
X573647D01*
X587189Y232708D02*
X585835Y234063D01*
X583126D01*
X581772Y232708D01*
Y227292D01*
X583126Y225937D01*
X585835D01*
X587189Y227292D01*
X589898Y225937D02*
X592606D01*
X591252D01*
Y234063D01*
X589898Y232708D01*
X427083Y253563D02*
Y252208D01*
X429792Y249500D01*
X432500Y252208D01*
Y253563D01*
X429792Y249500D02*
Y245437D01*
X435209D02*
X437917D01*
X436563D01*
Y253563D01*
X435209Y252208D01*
X403646Y344063D02*
X400937D01*
X402291D01*
Y337292D01*
X400937Y335937D01*
X399583D01*
X398229Y337292D01*
X411771Y335937D02*
X406354D01*
X411771Y341354D01*
Y342709D01*
X410417Y344063D01*
X407709D01*
X406354Y342709D01*
X415937Y290000D02*
Y287292D01*
Y288646D01*
X422709D01*
X424063Y287292D01*
Y285937D01*
X422709Y284583D01*
X424063Y292708D02*
Y295417D01*
Y294063D01*
X415937D01*
X417292Y292708D01*
X524639Y125995D02*
X517021D01*
Y129804D01*
X518291Y131073D01*
X520830D01*
X522100Y129804D01*
Y125995D01*
Y128534D02*
X524639Y131073D01*
X517021Y133613D02*
X524639D01*
Y137421D01*
X523369Y138691D01*
X522100D01*
X520830Y137421D01*
Y133613D01*
Y137421D01*
X519561Y138691D01*
X518291D01*
X517021Y137421D01*
Y133613D01*
X524639Y141230D02*
Y143769D01*
Y142500D01*
X517021D01*
X518291Y141230D01*
X562507Y91030D02*
X554890D01*
Y94839D01*
X556160Y96109D01*
X558699D01*
X559968Y94839D01*
Y91030D01*
Y93569D02*
X562507Y96109D01*
X554890Y98648D02*
X562507D01*
Y102457D01*
X561238Y103726D01*
X559968D01*
X558699Y102457D01*
Y98648D01*
Y102457D01*
X557429Y103726D01*
X556160D01*
X554890Y102457D01*
Y98648D01*
X562507Y111344D02*
Y106265D01*
X557429Y111344D01*
X556160D01*
X554890Y110074D01*
Y107535D01*
X556160Y106265D01*
X341121Y294407D02*
X333504D01*
Y298216D01*
X334773Y299485D01*
X337313D01*
X338582Y298216D01*
Y294407D01*
Y296946D02*
X341121Y299485D01*
X333504Y302024D02*
X341121D01*
Y305833D01*
X339852Y307103D01*
X338582D01*
X337313Y305833D01*
Y302024D01*
Y305833D01*
X336043Y307103D01*
X334773D01*
X333504Y305833D01*
Y302024D01*
X334773Y309642D02*
X333504Y310911D01*
Y313451D01*
X334773Y314720D01*
X336043D01*
X337313Y313451D01*
Y312181D01*
Y313451D01*
X338582Y314720D01*
X339852D01*
X341121Y313451D01*
Y310911D01*
X339852Y309642D01*
X286765Y318209D02*
X279147D01*
Y322017D01*
X280417Y323287D01*
X282956D01*
X284226Y322017D01*
Y318209D01*
Y320748D02*
X286765Y323287D01*
X279147Y325826D02*
X286765D01*
Y329635D01*
X285495Y330905D01*
X284226D01*
X282956Y329635D01*
Y325826D01*
Y329635D01*
X281686Y330905D01*
X280417D01*
X279147Y329635D01*
Y325826D01*
X286765Y337252D02*
X279147D01*
X282956Y333444D01*
Y338522D01*
X6191Y474604D02*
Y472065D01*
Y473335D01*
X12539D01*
X13809Y472065D01*
Y470795D01*
X12539Y469526D01*
X7461Y477143D02*
X6191Y478413D01*
Y480952D01*
X7461Y482222D01*
X8730D01*
X10000Y480952D01*
Y479683D01*
Y480952D01*
X11270Y482222D01*
X12539D01*
X13809Y480952D01*
Y478413D01*
X12539Y477143D01*
X36191Y471730D02*
Y469191D01*
Y470461D01*
X42539D01*
X43809Y469191D01*
Y467922D01*
X42539Y466652D01*
X36191Y479348D02*
X37461Y476809D01*
X40000Y474270D01*
X42539D01*
X43809Y475539D01*
Y478078D01*
X42539Y479348D01*
X41269D01*
X40000Y478078D01*
Y474270D01*
X66756Y472494D02*
Y469955D01*
Y471224D01*
X73104D01*
X74373Y469955D01*
Y468685D01*
X73104Y467415D01*
X66756Y475033D02*
Y480111D01*
X68025D01*
X73104Y475033D01*
X74373D01*
X96191Y471730D02*
Y469191D01*
Y470461D01*
X102539D01*
X103809Y469191D01*
Y467922D01*
X102539Y466652D01*
X97461Y474270D02*
X96191Y475539D01*
Y478078D01*
X97461Y479348D01*
X98730D01*
X100000Y478078D01*
X101270Y479348D01*
X102539D01*
X103809Y478078D01*
Y475539D01*
X102539Y474270D01*
X101270D01*
X100000Y475539D01*
X98730Y474270D01*
X97461D01*
X100000Y475539D02*
Y478078D01*
X125965Y474604D02*
Y472065D01*
Y473335D01*
X132313D01*
X133583Y472065D01*
Y470796D01*
X132313Y469526D01*
Y477144D02*
X133583Y478413D01*
Y480952D01*
X132313Y482222D01*
X127235D01*
X125965Y480952D01*
Y478413D01*
X127235Y477144D01*
X128504D01*
X129774Y478413D01*
Y482222D01*
X156233Y471430D02*
Y468891D01*
Y470161D01*
X162581D01*
X163850Y468891D01*
Y467621D01*
X162581Y466352D01*
X163850Y473969D02*
Y476509D01*
Y475239D01*
X156233D01*
X157502Y473969D01*
Y480317D02*
X156233Y481587D01*
Y484126D01*
X157502Y485396D01*
X162581D01*
X163850Y484126D01*
Y481587D01*
X162581Y480317D01*
X157502D01*
X186191Y474826D02*
Y472287D01*
Y473557D01*
X192539D01*
X193809Y472287D01*
Y471017D01*
X192539Y469748D01*
X193809Y477365D02*
Y479904D01*
Y478635D01*
X186191D01*
X187461Y477365D01*
X193809Y483713D02*
Y486252D01*
Y484983D01*
X186191D01*
X187461Y483713D01*
D16*
X382894Y82190D02*
X382996Y82494D01*
X382640Y82012D02*
X382894Y82190D01*
X382336Y82012D02*
X382640D01*
X382082Y82190D02*
X382336Y82012D01*
X381980Y82494D02*
X382082Y82190D01*
X381980Y82494D02*
X382082Y82774D01*
X382336Y82952D01*
X382640D01*
X382894Y82774D01*
X382996Y82494D01*
D17*
X225015Y337496D02*
Y382504D01*
X185213Y337496D02*
X225015D01*
X185213D02*
Y382504D01*
X225015D01*
X64985Y557496D02*
Y602504D01*
X104787D01*
Y557496D02*
Y602504D01*
X64985Y557496D02*
X104787D01*
X124985D02*
Y602504D01*
X164787D01*
Y557496D02*
Y602504D01*
X124985Y557496D02*
X164787D01*
X184985D02*
Y602504D01*
X224787D01*
Y557496D02*
Y602504D01*
X184985Y557496D02*
X224787D01*
X4985D02*
Y602504D01*
X44787D01*
Y557496D02*
Y602504D01*
X4985Y557496D02*
X44787D01*
X45015Y337496D02*
Y382504D01*
X5213Y337496D02*
X45015D01*
X5213D02*
Y382504D01*
X45015D01*
X105015Y337496D02*
Y382504D01*
X65213Y337496D02*
X105015D01*
X65213D02*
Y382504D01*
X105015D01*
X165015Y337496D02*
Y382504D01*
X125213Y337496D02*
X165015D01*
X125213D02*
Y382504D01*
X165015D01*
D18*
X205405Y393604D02*
Y386935D01*
X84595Y546396D02*
Y553065D01*
X144595Y546396D02*
Y553065D01*
X204595Y546396D02*
Y553065D01*
X24595Y546396D02*
Y553065D01*
X25405Y393604D02*
Y386935D01*
X85405Y393604D02*
Y386935D01*
X145405Y393604D02*
Y386935D01*
M02*
