G04*
G04 #@! TF.GenerationSoftware,Altium Limited,Altium Designer Agile,26.0.0 (14)*
G04*
G04 Layer_Physical_Order=3*
G04 Layer_Color=16440176*
%FSLAX44Y44*%
%MOMM*%
G71*
G04*
G04 #@! TF.SameCoordinates,76D54C1D-84BD-4F3E-98B7-B2EA44A665C6*
G04*
G04*
G04 #@! TF.FilePolarity,Positive*
G04*
G01*
G75*
%ADD14C,0.1524*%
%ADD82C,0.4501*%
G36*
X283500Y447750D02*
X279249Y443499D01*
X279099Y443562D01*
X278098D01*
X277174Y443178D01*
X276466Y442471D01*
X276083Y441546D01*
Y440545D01*
X276145Y440395D01*
X270500Y434750D01*
Y420055D01*
X269722Y419278D01*
X269400Y418500D01*
Y407323D01*
X269432Y407246D01*
X268694Y406940D01*
X267986Y406232D01*
X267603Y405308D01*
Y404307D01*
X267986Y403382D01*
X268694Y402674D01*
X269432Y402368D01*
X269400Y402291D01*
Y270857D01*
X251827Y246674D01*
X251748Y246343D01*
X251617Y246028D01*
Y245491D01*
X251000Y244643D01*
Y231140D01*
X251617Y230523D01*
X227673D01*
Y268423D01*
X241250Y282000D01*
Y292295D01*
X241425Y292367D01*
X242133Y293075D01*
X242516Y294000D01*
Y295000D01*
X242133Y295925D01*
X241425Y296633D01*
X241250Y296706D01*
Y303295D01*
X241425Y303367D01*
X242133Y304075D01*
X242516Y305000D01*
Y306000D01*
X242133Y306925D01*
X241425Y307633D01*
X241250Y307705D01*
Y312820D01*
X241478Y312726D01*
X242479D01*
X243403Y313109D01*
X244111Y313816D01*
X244494Y314741D01*
Y315742D01*
X244111Y316667D01*
X243403Y317374D01*
X242479Y317757D01*
X241478D01*
X241250Y317663D01*
Y444500D01*
X264000Y467250D01*
X283500D01*
Y447750D01*
D02*
G37*
G36*
X351750Y461366D02*
X351519Y461212D01*
X350519D01*
X349594Y460829D01*
X348886Y460121D01*
X348503Y459196D01*
Y458195D01*
X348886Y457271D01*
X349594Y456563D01*
X350519Y456180D01*
X351519D01*
X351750Y456026D01*
Y441250D01*
X345250Y434750D01*
X329040D01*
X329000Y434750D01*
X327516Y435421D01*
Y435500D01*
X327133Y436425D01*
X326425Y437133D01*
X325500Y437516D01*
X324500D01*
X323575Y437133D01*
X322867Y436425D01*
X322484Y435500D01*
Y434500D01*
X322867Y433575D01*
X323575Y432867D01*
X323813Y431119D01*
X323606Y430849D01*
X323379D01*
X322454Y430466D01*
X321746Y429758D01*
X321363Y428833D01*
Y427832D01*
X321574Y427324D01*
X306250Y412000D01*
Y411380D01*
X305500Y410879D01*
X304499D01*
X303575Y410496D01*
X302867Y409788D01*
X302484Y408864D01*
Y407863D01*
X302867Y406938D01*
X303575Y406230D01*
X304499Y405847D01*
X305500D01*
X306250Y405346D01*
Y367951D01*
X304780Y367266D01*
X303855Y367649D01*
X302854D01*
X301929Y367266D01*
X301221Y366558D01*
X300838Y365634D01*
Y364633D01*
X301221Y363708D01*
X301929Y363000D01*
X302854Y362617D01*
X303855D01*
X304780Y363000D01*
X306250Y362315D01*
Y308631D01*
X306124Y308480D01*
X304726Y307738D01*
X304383Y307880D01*
X303382D01*
X302458Y307497D01*
X301750Y306790D01*
X301367Y305865D01*
Y304864D01*
X301750Y303939D01*
X302458Y303231D01*
X303382Y302848D01*
X304383D01*
X304726Y302990D01*
X306124Y302249D01*
X306250Y302098D01*
Y286327D01*
X305639D01*
X304714Y285944D01*
X304006Y285236D01*
X303623Y284311D01*
Y283310D01*
X304006Y282386D01*
X304714Y281678D01*
X305639Y281295D01*
X306250D01*
Y226750D01*
X295487Y220635D01*
X294770Y221065D01*
X294166Y221637D01*
Y222428D01*
X293783Y223353D01*
X293075Y224060D01*
X292150Y224443D01*
X291149D01*
X290224Y224060D01*
X289517Y223353D01*
X289134Y222428D01*
Y221427D01*
X289517Y220502D01*
X290224Y219795D01*
X290629Y219627D01*
X290856Y218004D01*
X270253Y206297D01*
X269434Y206637D01*
X268433D01*
X267509Y206253D01*
X266801Y205546D01*
X266418Y204621D01*
Y204119D01*
X260975Y201026D01*
X260567Y201434D01*
X259642Y201817D01*
X258641D01*
X257716Y201434D01*
X257008Y200726D01*
X256625Y199801D01*
Y198800D01*
X256708Y198601D01*
X252717Y196334D01*
X248969Y196355D01*
Y196828D01*
X248586Y197753D01*
X247878Y198461D01*
X246953Y198844D01*
X245952D01*
X245028Y198461D01*
X244320Y197753D01*
X243937Y196828D01*
X243492Y196386D01*
X235822Y196428D01*
X221750Y210500D01*
X215250D01*
Y217000D01*
X227673Y229423D01*
X252717D01*
Y246028D01*
X270500Y270500D01*
Y402291D01*
X270620D01*
X271544Y402674D01*
X272252Y403382D01*
X272635Y404307D01*
Y405308D01*
X272252Y406232D01*
X271544Y406940D01*
X270620Y407323D01*
X270500D01*
Y418500D01*
X276835Y424835D01*
X278359Y424203D01*
Y424094D01*
X278742Y423169D01*
X279449Y422462D01*
X279454Y422453D01*
X279043Y421051D01*
X278042Y421051D01*
X277117Y420668D01*
X276409Y419960D01*
X276026Y419035D01*
Y418034D01*
X276409Y417110D01*
X277117Y416402D01*
X278042Y416019D01*
X279043D01*
X279967Y416402D01*
X280675Y417110D01*
X281058Y418034D01*
Y419035D01*
X280675Y419960D01*
X279968Y420668D01*
X279963Y420677D01*
X280374Y422079D01*
X281375Y422079D01*
X282300Y422462D01*
X283008Y423169D01*
X283391Y424094D01*
Y425095D01*
X283008Y426020D01*
X282300Y426727D01*
X281375Y427111D01*
X281266D01*
X280635Y428635D01*
X325750Y473750D01*
X351750D01*
Y461366D01*
D02*
G37*
G36*
X8497Y494805D02*
X8367Y494675D01*
X7984Y493750D01*
Y492749D01*
X8367Y491825D01*
X9075Y491117D01*
X9999Y490734D01*
X11000D01*
X11925Y491117D01*
X12633Y491825D01*
X12969Y492637D01*
X78750Y460750D01*
X195545D01*
X195430Y460472D01*
Y459471D01*
X195813Y458546D01*
X196521Y457839D01*
X197445Y457456D01*
X198446D01*
X199371Y457839D01*
X200079Y458546D01*
X200462Y459471D01*
Y460472D01*
X200347Y460750D01*
X234750D01*
Y457171D01*
X234470Y457055D01*
X233762Y456347D01*
X233379Y455423D01*
Y454422D01*
X233762Y453497D01*
X234470Y452789D01*
X234750Y452673D01*
Y277055D01*
X226896Y269201D01*
X226574Y268423D01*
Y267323D01*
X225000Y265750D01*
Y230000D01*
X206135Y211135D01*
X206088Y211249D01*
X205381Y211957D01*
X204456Y212339D01*
X203455D01*
X202530Y211957D01*
X201822Y211249D01*
X201439Y210324D01*
Y209323D01*
X201822Y208398D01*
X202530Y207691D01*
X202644Y207644D01*
X201180Y206180D01*
Y202061D01*
X201133Y202175D01*
X200425Y202883D01*
X199501Y203266D01*
X198500D01*
X197575Y202883D01*
X196867Y202175D01*
X196484Y201250D01*
Y200250D01*
X196867Y199325D01*
X197575Y198617D01*
X198500Y198234D01*
X199501D01*
X200425Y198617D01*
X201133Y199325D01*
X201180Y199439D01*
Y194405D01*
X200565D01*
X199641Y194022D01*
X198933Y193314D01*
X198550Y192390D01*
Y191388D01*
X198933Y190464D01*
X199641Y189756D01*
X200565Y189373D01*
X201180D01*
Y188007D01*
X200484D01*
X199559Y187624D01*
X198851Y186917D01*
X198468Y185992D01*
Y184991D01*
X198851Y184066D01*
X199559Y183358D01*
X200484Y182975D01*
X201180D01*
Y181659D01*
X200680D01*
X199755Y181276D01*
X199047Y180568D01*
X198664Y179644D01*
Y178643D01*
X199047Y177718D01*
X199755Y177010D01*
X200680Y176627D01*
X200681D01*
X190207Y173782D01*
X190176Y173758D01*
X190112Y173912D01*
X189405Y174620D01*
X188480Y175003D01*
X187479D01*
X186554Y174620D01*
X185846Y173912D01*
X185463Y172987D01*
Y171986D01*
X185534Y171815D01*
X185222Y171686D01*
X184900Y170908D01*
Y167112D01*
X184713Y166659D01*
Y165360D01*
X184900Y164908D01*
Y161750D01*
X185056Y161374D01*
X183630Y160884D01*
X183610Y160932D01*
X182902Y161640D01*
X181978Y162023D01*
X180977D01*
X180052Y161640D01*
X179344Y160932D01*
X178961Y160008D01*
Y159281D01*
X178375Y159080D01*
X177516D01*
Y160008D01*
X177133Y160932D01*
X176425Y161640D01*
X175501Y162023D01*
X174499D01*
X173575Y161640D01*
X172867Y160932D01*
X172484Y160008D01*
Y159007D01*
X172655Y158594D01*
X172443Y158506D01*
Y158506D01*
X172443D01*
X170216Y156278D01*
X169622Y156074D01*
X169147Y156271D01*
X167848D01*
X166647Y155774D01*
X165728Y154855D01*
X165231Y153654D01*
Y152355D01*
X165595Y151477D01*
X165400Y151007D01*
Y147560D01*
X165231Y147152D01*
Y145853D01*
X165400Y145444D01*
Y142250D01*
X165722Y141472D01*
X166287Y141238D01*
X165982Y140500D01*
Y139500D01*
X166365Y138575D01*
X167072Y137867D01*
X167486Y137696D01*
X167398Y137484D01*
Y136578D01*
X166647Y136267D01*
X165728Y135348D01*
X165231Y134147D01*
Y132848D01*
X165728Y131647D01*
X166647Y130729D01*
X167398Y130418D01*
Y130075D01*
X166647Y129764D01*
X165728Y128846D01*
X165231Y127645D01*
Y126346D01*
X165728Y125145D01*
X166647Y124226D01*
X166769Y124176D01*
X167954Y122991D01*
X167072Y122626D01*
X166365Y121918D01*
X165982Y120993D01*
Y119992D01*
X166365Y119068D01*
X167072Y118360D01*
X167997Y117977D01*
X168998D01*
X169923Y118360D01*
X170631Y119068D01*
X170996Y119949D01*
X172006Y118939D01*
X172406Y117327D01*
X172582Y117088D01*
X172696Y116814D01*
X172823Y116761D01*
X172906Y116650D01*
X173199Y116606D01*
X173473Y116492D01*
X180942D01*
X180052Y116123D01*
X179344Y115416D01*
X178961Y114491D01*
Y113490D01*
X179344Y112565D01*
X180052Y111857D01*
X180977Y111474D01*
X181978D01*
X182902Y111857D01*
X183610Y112565D01*
X183993Y113490D01*
Y114491D01*
X183610Y115416D01*
X182902Y116123D01*
X182012Y116492D01*
X182715D01*
X183057Y116634D01*
X183411Y116740D01*
X184453Y117592D01*
X202862D01*
Y115338D01*
X202945Y115136D01*
Y114917D01*
X203151Y114421D01*
Y113559D01*
X202945Y113063D01*
Y112845D01*
X202862Y112643D01*
Y111324D01*
X203184Y110546D01*
X203899Y110250D01*
X203898Y109207D01*
X205636Y109195D01*
X205354Y108913D01*
X204971Y107989D01*
Y106987D01*
X205354Y106063D01*
X206061Y105355D01*
X206986Y104972D01*
X207987D01*
X208912Y105355D01*
X209620Y106063D01*
X210003Y106987D01*
Y107989D01*
X209620Y108913D01*
X209362Y109171D01*
X210183Y109166D01*
X211473Y107743D01*
Y106987D01*
X211856Y106063D01*
X212564Y105355D01*
X213489Y104972D01*
X213984D01*
X217958Y100588D01*
Y100439D01*
X218341Y99514D01*
X219049Y98806D01*
X219888Y98459D01*
X221306Y96894D01*
X220992Y97025D01*
X219991D01*
X219066Y96642D01*
X218358Y95934D01*
X217975Y95009D01*
Y94008D01*
X218358Y93083D01*
X219066Y92376D01*
X219991Y91993D01*
X220992D01*
X221191Y92075D01*
X205929Y76813D01*
X190000D01*
X189306Y76675D01*
X188718Y76282D01*
X185498Y73062D01*
X185105Y72474D01*
X184967Y71780D01*
Y71057D01*
X184647Y70737D01*
X184264Y69812D01*
Y68811D01*
X184647Y67886D01*
X185355Y67179D01*
X186280Y66796D01*
X187281D01*
X188205Y67179D01*
X188913Y67886D01*
X189296Y68811D01*
Y69812D01*
X188913Y70737D01*
X188607Y71043D01*
X190751Y73187D01*
X191809D01*
X191075Y72883D01*
X190367Y72175D01*
X189984Y71251D01*
Y70250D01*
X190367Y69325D01*
X191075Y68617D01*
X192000Y68234D01*
X193001D01*
X193925Y68617D01*
X194245Y68937D01*
X209205D01*
X209898Y69075D01*
X210486Y69468D01*
X226900Y85882D01*
X227353D01*
X228277Y86265D01*
X228985Y86973D01*
X229368Y87897D01*
Y88137D01*
X237658Y82536D01*
X243937Y76257D01*
X243557Y75338D01*
Y74337D01*
X243940Y73412D01*
X244648Y72705D01*
X245572Y72322D01*
X246573D01*
X247498Y72705D01*
X247903Y73109D01*
X248028Y72984D01*
X248247D01*
X248449Y72900D01*
X252727D01*
X275418Y62023D01*
Y54500D01*
X276593Y47593D01*
X275418Y34221D01*
X237150D01*
X237266Y34499D01*
Y35501D01*
X236883Y36425D01*
X236175Y37133D01*
X235250Y37516D01*
X234249D01*
X233325Y37133D01*
X232617Y36425D01*
X232234Y35501D01*
Y34499D01*
X232350Y34221D01*
X56170D01*
X56344Y34641D01*
Y35642D01*
X55961Y36566D01*
X55254Y37274D01*
X54329Y37657D01*
X53328D01*
X52403Y37274D01*
X51695Y36566D01*
X51312Y35642D01*
Y34641D01*
X51486Y34221D01*
X29436D01*
X29604Y34627D01*
Y35627D01*
X29221Y36552D01*
X28514Y37260D01*
X27589Y37643D01*
X26588D01*
X25663Y37260D01*
X24955Y36552D01*
X24573Y35627D01*
Y34627D01*
X24741Y34221D01*
X5000D01*
Y496500D01*
X8497Y494805D01*
D02*
G37*
G36*
X360000Y135750D02*
X267793D01*
Y136499D01*
X267409Y137424D01*
X266702Y138132D01*
X265777Y138515D01*
X264776D01*
X263851Y138132D01*
X263144Y137424D01*
X262761Y136499D01*
Y135750D01*
X228131D01*
X227494Y136014D01*
X226493D01*
X225857Y135750D01*
X221628D01*
X220992Y136014D01*
X219991D01*
X219355Y135750D01*
X218500D01*
X216505Y133755D01*
Y133998D01*
X216122Y134923D01*
X215414Y135631D01*
X214489Y136014D01*
X213489D01*
X212564Y135631D01*
X211856Y134923D01*
X211473Y133998D01*
Y132997D01*
X211835Y132123D01*
X211759Y132086D01*
X209465Y129495D01*
X209405Y129318D01*
X209273Y129186D01*
Y128936D01*
X209191Y128699D01*
X209273Y128531D01*
Y128345D01*
X209653Y127426D01*
Y126903D01*
X209169Y126419D01*
Y125613D01*
X208714Y125158D01*
X207918Y124829D01*
X207056D01*
X206259Y125158D01*
X205848Y125569D01*
X205630Y125660D01*
X205458Y125821D01*
X205257Y125814D01*
X205071Y125891D01*
X204853Y125801D01*
X204617Y125793D01*
X203507Y125290D01*
X203370Y125143D01*
X203184Y125066D01*
X203093Y124848D01*
X202932Y124676D01*
X202939Y124474D01*
X202862Y124289D01*
Y123744D01*
X190244D01*
X189053Y122771D01*
X188480Y123009D01*
X187479D01*
X186554Y122626D01*
X185846Y121918D01*
X185463Y120993D01*
Y119992D01*
X185511Y119877D01*
X182715Y117592D01*
X173473D01*
X173000Y119500D01*
X170665Y121835D01*
X170631Y121918D01*
X169923Y122626D01*
X169840Y122660D01*
X166500Y126000D01*
X168498Y127998D01*
Y137484D01*
X168998D01*
X169923Y137867D01*
X170631Y138575D01*
X171014Y139500D01*
Y140500D01*
X170631Y141425D01*
X169923Y142133D01*
X168998Y142516D01*
X167997D01*
X167355Y142250D01*
X166500D01*
Y151007D01*
X173221Y157728D01*
X173575Y157374D01*
X174499Y156991D01*
X175501D01*
X176425Y157374D01*
X177031Y157980D01*
X179446D01*
X180052Y157374D01*
X180977Y156991D01*
X181978D01*
X182902Y157374D01*
X183508Y157980D01*
X185958D01*
X186554Y157384D01*
X187479Y157001D01*
X188480D01*
X189405Y157384D01*
X190001Y157980D01*
X192451D01*
X193057Y157374D01*
X193981Y156991D01*
X194982D01*
X195907Y157374D01*
X196513Y157980D01*
X198953D01*
X199559Y157374D01*
X200484Y156991D01*
X201485D01*
X202409Y157374D01*
X203015Y157980D01*
X205455D01*
X206061Y157374D01*
X206986Y156991D01*
X207987D01*
X208912Y157374D01*
X209518Y157980D01*
X210638D01*
X211473Y159189D01*
Y159007D01*
X211856Y158082D01*
X212564Y157374D01*
X213489Y156991D01*
X214489D01*
X215414Y157374D01*
X216122Y158082D01*
X216505Y159007D01*
Y160008D01*
X216122Y160932D01*
X216046Y161008D01*
X216074Y161022D01*
X218816Y164127D01*
X219066Y163877D01*
X219991Y163494D01*
X220992D01*
X221917Y163877D01*
X222624Y164584D01*
X223007Y165509D01*
Y166510D01*
X222884Y166807D01*
X248590Y167034D01*
X258858Y162718D01*
X259310Y161628D01*
X260229Y160709D01*
X261429Y160212D01*
X262729D01*
X263894Y160694D01*
X264000Y160650D01*
X264200Y160733D01*
X264416Y160732D01*
X264573Y160888D01*
X264778Y160972D01*
X264860Y161172D01*
X265014Y161324D01*
X265015Y161545D01*
X265100Y161750D01*
Y162235D01*
X265345Y162828D01*
Y164128D01*
X265100Y164721D01*
Y167627D01*
X268185Y167594D01*
X267588Y184838D01*
X298466Y202572D01*
X298520Y202442D01*
X299228Y201735D01*
X300153Y201352D01*
X301154D01*
X302078Y201735D01*
X302786Y202442D01*
X303169Y203367D01*
Y204368D01*
X302866Y205099D01*
X309500Y208909D01*
Y219903D01*
X310018Y220421D01*
X310401Y221346D01*
Y222347D01*
X310018Y223271D01*
X309500Y223790D01*
Y407042D01*
X360000D01*
X360000Y135750D01*
D02*
G37*
G36*
X264000Y171500D02*
Y161750D01*
X248807Y168136D01*
X222159Y167901D01*
X221917Y168143D01*
X220992Y168526D01*
X219991D01*
X219066Y168143D01*
X218358Y167435D01*
X217975Y166510D01*
Y165509D01*
X218165Y165051D01*
X215250Y161750D01*
X215149D01*
X214489Y162023D01*
X213489D01*
X212829Y161750D01*
X208647D01*
X207987Y162023D01*
X206986D01*
X206327Y161750D01*
X202144D01*
X201485Y162023D01*
X200484D01*
X199824Y161750D01*
X195642D01*
X194982Y162023D01*
X193981D01*
X193322Y161750D01*
X189163D01*
X188480Y162033D01*
X187479D01*
X186796Y161750D01*
X186000D01*
Y170908D01*
X186554Y170354D01*
X187479Y169971D01*
X188480D01*
X189405Y170354D01*
X190112Y171061D01*
X190495Y171986D01*
Y172721D01*
X205960Y176922D01*
X206017Y176865D01*
X206942Y176482D01*
X207943D01*
X208867Y176865D01*
X209575Y177573D01*
X209729Y177945D01*
X212719Y178757D01*
X224862D01*
Y177891D01*
X225245Y176966D01*
X225953Y176258D01*
X226878Y175875D01*
X227879D01*
X228803Y176258D01*
X229511Y176966D01*
X229894Y177891D01*
Y178757D01*
X246136D01*
X264000Y171500D01*
D02*
G37*
G36*
X254250Y129250D02*
X267250D01*
Y116250D01*
X254517D01*
X254810Y116958D01*
Y117959D01*
X254427Y118884D01*
X253719Y119592D01*
X252794Y119975D01*
X251793D01*
X250869Y119592D01*
X250161Y118884D01*
X249778Y117959D01*
Y117924D01*
X246677Y121468D01*
X246642Y121485D01*
X246627Y121521D01*
X246269Y121669D01*
X245923Y121841D01*
X245886Y121828D01*
X245849Y121843D01*
X223468D01*
X223260Y122343D01*
X222342Y123262D01*
X221141Y123759D01*
X219842D01*
X218641Y123262D01*
X217722Y122343D01*
X217515Y121843D01*
X216505D01*
X216204Y121719D01*
X216122Y121918D01*
X215414Y122626D01*
X214489Y123009D01*
X213489D01*
X212564Y122626D01*
X211856Y121918D01*
X211473Y120993D01*
Y119992D01*
X211539Y119832D01*
X211222Y119701D01*
X210900Y118924D01*
Y115069D01*
X210723Y114640D01*
Y113341D01*
X210900Y112912D01*
Y111324D01*
X203962D01*
Y112643D01*
X204251Y113341D01*
Y114640D01*
X203962Y115338D01*
Y119362D01*
Y124289D01*
X205071Y124792D01*
X205636Y124226D01*
X206837Y123729D01*
X208136D01*
X209337Y124226D01*
X210256Y125145D01*
X210753Y126346D01*
Y127645D01*
X210289Y128766D01*
X212583Y131357D01*
X213489Y130982D01*
X214489D01*
X215414Y131365D01*
X216122Y132072D01*
X216299Y132500D01*
X218181D01*
X218358Y132072D01*
X219066Y131365D01*
X219991Y130982D01*
X220992D01*
X221917Y131365D01*
X222624Y132072D01*
X222801Y132500D01*
X224684D01*
X224861Y132072D01*
X225569Y131365D01*
X226493Y130982D01*
X227494D01*
X228419Y131365D01*
X229127Y132072D01*
X229304Y132500D01*
X249917D01*
X254250Y129250D01*
D02*
G37*
G36*
X325750Y90250D02*
Y87000D01*
X312750Y74000D01*
X248449D01*
X248589Y74337D01*
Y75338D01*
X248206Y76263D01*
X247498Y76971D01*
X246573Y77354D01*
X245572D01*
X244741Y77009D01*
X227997Y93753D01*
X228276Y94032D01*
X228669Y94620D01*
X228807Y95314D01*
Y99240D01*
X229127Y99560D01*
X229510Y100485D01*
Y101486D01*
X229127Y102411D01*
X228419Y103119D01*
X227494Y103502D01*
X226493D01*
X225569Y103119D01*
X224861Y102411D01*
X224478Y101486D01*
Y100485D01*
X224861Y99560D01*
X225181Y99240D01*
Y96569D01*
X222421Y99329D01*
X222607Y99514D01*
X222990Y100439D01*
Y101440D01*
X222607Y102365D01*
X221899Y103072D01*
X220974Y103455D01*
X219973D01*
X219049Y103072D01*
X218863Y102887D01*
X215905Y105845D01*
X216122Y106063D01*
X216505Y106987D01*
Y107989D01*
X216122Y108913D01*
X215414Y109621D01*
X214489Y110004D01*
X213489D01*
X212564Y109621D01*
X212346Y109404D01*
X212000Y109750D01*
Y118924D01*
X212564Y118360D01*
X213489Y117977D01*
X214489D01*
X215414Y118360D01*
X216122Y119068D01*
X216505Y119992D01*
Y120744D01*
X245849D01*
X263811Y100217D01*
X263144Y99550D01*
X262761Y98625D01*
Y97624D01*
X263144Y96699D01*
X263851Y95991D01*
X264776Y95609D01*
X265777D01*
X266702Y95991D01*
X267409Y96699D01*
X267793Y97624D01*
Y98625D01*
X267409Y99550D01*
X266959Y100000D01*
X283500D01*
X290084Y106585D01*
Y106504D01*
X290772Y104844D01*
X292042Y103574D01*
X293702Y102886D01*
X295499D01*
X297159Y103574D01*
X298429Y104844D01*
X299116Y106504D01*
Y108301D01*
X298429Y109960D01*
X297159Y111231D01*
X295499Y111918D01*
X295418D01*
X312750Y129250D01*
X325750D01*
Y90250D01*
D02*
G37*
%LPC*%
G36*
X267675Y443018D02*
X266674D01*
X265749Y442635D01*
X265041Y441927D01*
X264658Y441003D01*
Y440002D01*
X265041Y439077D01*
X265749Y438369D01*
X266674Y437986D01*
X267675D01*
X268599Y438369D01*
X269307Y439077D01*
X269690Y440002D01*
Y441003D01*
X269307Y441927D01*
X268599Y442635D01*
X267675Y443018D01*
D02*
G37*
G36*
X266843Y433107D02*
X265843D01*
X264918Y432724D01*
X264210Y432016D01*
X263827Y431091D01*
Y430090D01*
X264210Y429165D01*
X264918Y428458D01*
X265843Y428075D01*
X266843D01*
X267768Y428458D01*
X268476Y429165D01*
X268859Y430090D01*
Y431091D01*
X268476Y432016D01*
X267768Y432724D01*
X266843Y433107D01*
D02*
G37*
G36*
X245501Y432516D02*
X244500D01*
X243575Y432133D01*
X242867Y431425D01*
X242484Y430500D01*
Y429500D01*
X242867Y428575D01*
X243575Y427867D01*
X244500Y427484D01*
X245501D01*
X246425Y427867D01*
X247133Y428575D01*
X247516Y429500D01*
Y430500D01*
X247133Y431425D01*
X246425Y432133D01*
X245501Y432516D01*
D02*
G37*
G36*
X265501Y427516D02*
X264499D01*
X263575Y427133D01*
X262867Y426425D01*
X262484Y425500D01*
Y424500D01*
X262867Y423575D01*
X263575Y422867D01*
X264499Y422484D01*
X265501D01*
X266425Y422867D01*
X267133Y423575D01*
X267516Y424500D01*
Y425500D01*
X267133Y426425D01*
X266425Y427133D01*
X265501Y427516D01*
D02*
G37*
G36*
X244286Y422289D02*
X243286D01*
X242361Y421906D01*
X241653Y421199D01*
X241270Y420274D01*
Y419273D01*
X241653Y418348D01*
X242361Y417640D01*
X243286Y417257D01*
X244286D01*
X245211Y417640D01*
X245919Y418348D01*
X246302Y419273D01*
Y420274D01*
X245919Y421199D01*
X245211Y421906D01*
X244286Y422289D01*
D02*
G37*
G36*
X267341Y421137D02*
X266341D01*
X265416Y420754D01*
X264708Y420046D01*
X264325Y419121D01*
Y418120D01*
X264708Y417195D01*
X265416Y416488D01*
X266341Y416105D01*
X267341D01*
X268266Y416488D01*
X268974Y417195D01*
X269357Y418120D01*
Y419121D01*
X268974Y420046D01*
X268266Y420754D01*
X267341Y421137D01*
D02*
G37*
G36*
X259800Y421080D02*
X258799D01*
X257874Y420697D01*
X257166Y419989D01*
X256783Y419064D01*
Y418063D01*
X257166Y417139D01*
X257874Y416431D01*
X258799Y416048D01*
X259800D01*
X260725Y416431D01*
X261432Y417139D01*
X261815Y418063D01*
Y419064D01*
X261432Y419989D01*
X260725Y420697D01*
X259800Y421080D01*
D02*
G37*
G36*
X264752Y356971D02*
X263751D01*
X262826Y356588D01*
X262119Y355880D01*
X261735Y354955D01*
Y353954D01*
X262119Y353029D01*
X262826Y352322D01*
X263751Y351939D01*
X264752D01*
X265677Y352322D01*
X266385Y353029D01*
X266768Y353954D01*
Y354955D01*
X266385Y355880D01*
X265677Y356588D01*
X264752Y356971D01*
D02*
G37*
G36*
X250501Y322516D02*
X249500D01*
X248575Y322133D01*
X247867Y321426D01*
X247484Y320501D01*
Y319500D01*
X247867Y318575D01*
X248575Y317867D01*
X249500Y317484D01*
X250501D01*
X251425Y317867D01*
X252133Y318575D01*
X252516Y319500D01*
Y320501D01*
X252133Y321426D01*
X251425Y322133D01*
X250501Y322516D01*
D02*
G37*
G36*
X258876Y308527D02*
X257875D01*
X256951Y308144D01*
X256243Y307436D01*
X255860Y306511D01*
Y305511D01*
X256243Y304586D01*
X256951Y303878D01*
X257875Y303495D01*
X258876D01*
X259801Y303878D01*
X260509Y304586D01*
X260892Y305511D01*
Y306511D01*
X260509Y307436D01*
X259801Y308144D01*
X258876Y308527D01*
D02*
G37*
G36*
X250250Y302516D02*
X249249D01*
X248325Y302133D01*
X247617Y301425D01*
X247234Y300501D01*
Y299500D01*
X247617Y298575D01*
X248325Y297867D01*
X249249Y297484D01*
X250250D01*
X251175Y297867D01*
X251883Y298575D01*
X252266Y299500D01*
Y300501D01*
X251883Y301425D01*
X251175Y302133D01*
X250250Y302516D01*
D02*
G37*
G36*
X248845Y293459D02*
X247844D01*
X246919Y293076D01*
X246211Y292368D01*
X245828Y291444D01*
Y290443D01*
X246211Y289518D01*
X246919Y288810D01*
X247844Y288427D01*
X248845D01*
X249769Y288810D01*
X250477Y289518D01*
X250860Y290443D01*
Y291444D01*
X250477Y292368D01*
X249769Y293076D01*
X248845Y293459D01*
D02*
G37*
G36*
X258363Y272465D02*
X257362D01*
X256437Y272082D01*
X255729Y271374D01*
X255346Y270450D01*
Y269449D01*
X255729Y268524D01*
X256437Y267816D01*
X257362Y267433D01*
X258363D01*
X259287Y267816D01*
X259995Y268524D01*
X260378Y269449D01*
Y270450D01*
X259995Y271374D01*
X259287Y272082D01*
X258363Y272465D01*
D02*
G37*
G36*
X250515D02*
X249514D01*
X248590Y272082D01*
X247882Y271374D01*
X247499Y270450D01*
Y269449D01*
X247882Y268524D01*
X248590Y267816D01*
X249514Y267433D01*
X250515D01*
X251440Y267816D01*
X252148Y268524D01*
X252531Y269449D01*
Y270450D01*
X252148Y271374D01*
X251440Y272082D01*
X250515Y272465D01*
D02*
G37*
G36*
X320501Y462517D02*
X319500D01*
X318575Y462133D01*
X317867Y461426D01*
X317484Y460501D01*
Y459500D01*
X317867Y458575D01*
X318575Y457868D01*
X319500Y457485D01*
X320501D01*
X321426Y457868D01*
X322133Y458575D01*
X322516Y459500D01*
Y460501D01*
X322133Y461426D01*
X321426Y462133D01*
X320501Y462517D01*
D02*
G37*
G36*
X317586Y445181D02*
X316585D01*
X315660Y444798D01*
X314952Y444090D01*
X314569Y443165D01*
Y442164D01*
X314952Y441239D01*
X315660Y440532D01*
X316585Y440149D01*
X317586D01*
X318510Y440532D01*
X319218Y441239D01*
X319601Y442164D01*
Y443165D01*
X319218Y444090D01*
X318510Y444798D01*
X317586Y445181D01*
D02*
G37*
G36*
X298667Y432338D02*
X297666D01*
X296742Y431955D01*
X296034Y431247D01*
X295651Y430322D01*
Y429321D01*
X296034Y428397D01*
X296742Y427689D01*
X297666Y427306D01*
X298667D01*
X299592Y427689D01*
X300300Y428397D01*
X300683Y429321D01*
Y430322D01*
X300300Y431247D01*
X299592Y431955D01*
X298667Y432338D01*
D02*
G37*
G36*
X293861Y422278D02*
X292860D01*
X291935Y421895D01*
X291227Y421187D01*
X290844Y420262D01*
Y419261D01*
X291227Y418337D01*
X291935Y417629D01*
X292860Y417246D01*
X293861D01*
X294786Y417629D01*
X295493Y418337D01*
X295876Y419261D01*
Y420262D01*
X295493Y421187D01*
X294786Y421895D01*
X293861Y422278D01*
D02*
G37*
G36*
X298471Y394014D02*
X297470D01*
X296545Y393631D01*
X295837Y392924D01*
X295455Y391999D01*
Y390998D01*
X295837Y390073D01*
X296545Y389365D01*
X297470Y388982D01*
X298471D01*
X299396Y389365D01*
X300103Y390073D01*
X300487Y390998D01*
Y391999D01*
X300103Y392924D01*
X299396Y393631D01*
X298471Y394014D01*
D02*
G37*
G36*
X285501Y392516D02*
X284500D01*
X283575Y392133D01*
X282867Y391425D01*
X282484Y390500D01*
Y389500D01*
X282867Y388575D01*
X283575Y387867D01*
X284500Y387484D01*
X285501D01*
X286425Y387867D01*
X287133Y388575D01*
X287516Y389500D01*
Y390500D01*
X287133Y391425D01*
X286425Y392133D01*
X285501Y392516D01*
D02*
G37*
G36*
X286294Y377516D02*
X285293D01*
X284368Y377133D01*
X283660Y376425D01*
X283277Y375500D01*
Y374500D01*
X283660Y373575D01*
X284368Y372867D01*
X285293Y372484D01*
X285823D01*
X286713Y371500D01*
X286891Y371082D01*
X286885Y371067D01*
Y370066D01*
X287268Y369142D01*
X287976Y368434D01*
X288901Y368051D01*
X289902D01*
X290826Y368434D01*
X291534Y369142D01*
X291917Y370066D01*
Y371067D01*
X291534Y371992D01*
X290826Y372700D01*
X289902Y373083D01*
X289372D01*
X288481Y374067D01*
X288303Y374485D01*
X288309Y374500D01*
Y375500D01*
X287926Y376425D01*
X287218Y377133D01*
X286294Y377516D01*
D02*
G37*
G36*
X292522Y363161D02*
X291521D01*
X290596Y362778D01*
X289888Y362070D01*
X289505Y361145D01*
Y360144D01*
X289888Y359220D01*
X290596Y358512D01*
X291521Y358129D01*
X292522D01*
X293446Y358512D01*
X294154Y359220D01*
X294537Y360144D01*
Y361145D01*
X294154Y362070D01*
X293446Y362778D01*
X292522Y363161D01*
D02*
G37*
G36*
X275380Y367928D02*
X274379D01*
X273454Y367545D01*
X272747Y366837D01*
X272364Y365912D01*
Y364911D01*
X272747Y363987D01*
X273358Y363375D01*
X273395Y362656D01*
X273305Y361704D01*
X272597Y360996D01*
X272214Y360071D01*
Y359070D01*
X272597Y358145D01*
X273305Y357438D01*
X274229Y357055D01*
X275230D01*
X276155Y357438D01*
X276863Y358145D01*
X277246Y359070D01*
Y360071D01*
X276863Y360996D01*
X276252Y361607D01*
X276214Y362327D01*
X276305Y363279D01*
X277013Y363987D01*
X277396Y364911D01*
Y365912D01*
X277013Y366837D01*
X276305Y367545D01*
X275380Y367928D01*
D02*
G37*
G36*
X286001Y359882D02*
X285000D01*
X284076Y359499D01*
X283368Y358791D01*
X282985Y357867D01*
Y356866D01*
X283368Y355941D01*
X284076Y355233D01*
X285000Y354850D01*
X286001D01*
X286926Y355233D01*
X287634Y355941D01*
X288017Y356866D01*
Y357867D01*
X287634Y358791D01*
X286926Y359499D01*
X286001Y359882D01*
D02*
G37*
G36*
X276241Y355186D02*
X275240D01*
X274315Y354803D01*
X273607Y354095D01*
X273224Y353170D01*
Y352169D01*
X273607Y351245D01*
X274315Y350537D01*
X275240Y350154D01*
X276241D01*
X277165Y350537D01*
X277873Y351245D01*
X278256Y352169D01*
Y353170D01*
X277873Y354095D01*
X277165Y354803D01*
X276241Y355186D01*
D02*
G37*
G36*
X298421Y341030D02*
X297420D01*
X296496Y340647D01*
X295788Y339939D01*
X295405Y339014D01*
Y338013D01*
X295788Y337088D01*
X296496Y336381D01*
X297420Y335998D01*
X298421D01*
X299346Y336381D01*
X300054Y337088D01*
X300437Y338013D01*
Y339014D01*
X300054Y339939D01*
X299346Y340647D01*
X298421Y341030D01*
D02*
G37*
G36*
X290501Y322516D02*
X289500D01*
X288575Y322133D01*
X287867Y321426D01*
X287484Y320501D01*
Y319500D01*
X287867Y318575D01*
X288575Y317867D01*
X289500Y317484D01*
X290501D01*
X291426Y317867D01*
X292133Y318575D01*
X292516Y319500D01*
Y320501D01*
X292133Y321426D01*
X291426Y322133D01*
X290501Y322516D01*
D02*
G37*
G36*
X292215Y293867D02*
X291214D01*
X290289Y293484D01*
X289581Y292776D01*
X289198Y291851D01*
Y290850D01*
X289581Y289926D01*
X290289Y289218D01*
X291214Y288835D01*
X292215D01*
X293139Y289218D01*
X293847Y289926D01*
X294230Y290850D01*
Y291851D01*
X293847Y292776D01*
X293139Y293484D01*
X292215Y293867D01*
D02*
G37*
G36*
X291872Y282201D02*
X290871D01*
X289946Y281818D01*
X289238Y281110D01*
X288855Y280185D01*
Y279184D01*
X289238Y278260D01*
X289946Y277552D01*
X290871Y277169D01*
X291872D01*
X292796Y277552D01*
X293504Y278260D01*
X293887Y279184D01*
Y280185D01*
X293504Y281110D01*
X292796Y281818D01*
X291872Y282201D01*
D02*
G37*
G36*
X291829Y274952D02*
X290828D01*
X289903Y274569D01*
X289195Y273861D01*
X288812Y272936D01*
Y272478D01*
X287351Y271784D01*
X287162Y271973D01*
X286237Y272356D01*
X285236D01*
X284312Y271973D01*
X283604Y271265D01*
X283221Y270340D01*
Y269339D01*
X283604Y268415D01*
X284312Y267707D01*
X285236Y267324D01*
X286237D01*
X287162Y267707D01*
X287870Y268415D01*
X288253Y269339D01*
Y269798D01*
X289714Y270492D01*
X289903Y270303D01*
X290828Y269920D01*
X291829D01*
X292754Y270303D01*
X293461Y271011D01*
X293844Y271936D01*
Y272936D01*
X293461Y273861D01*
X292754Y274569D01*
X291829Y274952D01*
D02*
G37*
G36*
X294788Y252686D02*
X287778D01*
X285821Y252297D01*
X284161Y251188D01*
X283053Y249529D01*
X282663Y247572D01*
X283053Y245614D01*
X284161Y243955D01*
X285821Y242846D01*
X287778Y242457D01*
X294788D01*
X296746Y242846D01*
X298405Y243955D01*
X299514Y245614D01*
X299903Y247572D01*
X299514Y249529D01*
X298405Y251188D01*
X296746Y252297D01*
X294788Y252686D01*
D02*
G37*
G36*
X296140Y237423D02*
X295378Y237321D01*
X295251Y237248D01*
X295105Y237249D01*
X294419Y236970D01*
X294325Y236876D01*
X294196Y236847D01*
X293586Y236415D01*
X293505Y236287D01*
X293371Y236216D01*
X292889Y235632D01*
X292848Y235498D01*
X292744Y235405D01*
X292414Y234720D01*
X292405Y234561D01*
X292320Y234426D01*
X292192Y233689D01*
X292223Y233554D01*
X292179Y233423D01*
X292230Y232687D01*
X292289Y232567D01*
X292277Y232433D01*
X292506Y231697D01*
X292604Y231578D01*
X292631Y231427D01*
X293038Y230792D01*
X293151Y230712D01*
X293208Y230585D01*
X293741Y230077D01*
X293884Y230022D01*
X293981Y229904D01*
X294641Y229548D01*
X294789Y229533D01*
X294908Y229446D01*
X295645Y229268D01*
X295780Y229289D01*
X295906Y229237D01*
X296668D01*
X296798Y229291D01*
X296938Y229270D01*
X297649Y229448D01*
X297764Y229533D01*
X297907Y229548D01*
X298567Y229904D01*
X298656Y230012D01*
X298789Y230060D01*
X299347Y230568D01*
X299412Y230705D01*
X299536Y230792D01*
X299943Y231427D01*
X299970Y231578D01*
X300068Y231697D01*
X300297Y232433D01*
X300285Y232567D01*
X300344Y232687D01*
X300395Y233423D01*
X300345Y233572D01*
X300375Y233726D01*
X300222Y234462D01*
X300152Y234565D01*
X300149Y234689D01*
X299844Y235375D01*
X299731Y235482D01*
X299685Y235632D01*
X299203Y236216D01*
X299069Y236287D01*
X298988Y236415D01*
X298378Y236847D01*
X298242Y236878D01*
X298142Y236975D01*
X297431Y237254D01*
X297294Y237252D01*
X297176Y237321D01*
X296439Y237422D01*
X296289Y237383D01*
X296140Y237423D01*
D02*
G37*
G36*
X281347Y238811D02*
X280346D01*
X279421Y238428D01*
X278713Y237720D01*
X278330Y236796D01*
Y235795D01*
X278713Y234870D01*
X279421Y234162D01*
X280346Y233779D01*
X281347D01*
X282272Y234162D01*
X282979Y234870D01*
X283362Y235795D01*
Y236796D01*
X282979Y237720D01*
X282272Y238428D01*
X281347Y238811D01*
D02*
G37*
G36*
X259759Y213016D02*
X258759D01*
X257834Y212633D01*
X257126Y211925D01*
X256743Y211000D01*
Y210000D01*
X257126Y209075D01*
X257834Y208367D01*
X258759Y207984D01*
X259759D01*
X260684Y208367D01*
X261392Y209075D01*
X261775Y210000D01*
Y211000D01*
X261392Y211925D01*
X260684Y212633D01*
X259759Y213016D01*
D02*
G37*
G36*
X17529Y480807D02*
X16528D01*
X15603Y480424D01*
X14895Y479716D01*
X14512Y478792D01*
Y477791D01*
X14895Y476866D01*
X15603Y476158D01*
X16528Y475775D01*
X17529D01*
X18453Y476158D01*
X19161Y476866D01*
X19544Y477791D01*
Y478792D01*
X19161Y479716D01*
X18453Y480424D01*
X17529Y480807D01*
D02*
G37*
G36*
X20751Y473016D02*
X19749D01*
X18825Y472633D01*
X18117Y471925D01*
X17734Y471001D01*
Y470000D01*
X18117Y469075D01*
X18825Y468367D01*
X19749Y467984D01*
X20751D01*
X21675Y468367D01*
X22383Y469075D01*
X22766Y470000D01*
Y471001D01*
X22383Y471925D01*
X21675Y472633D01*
X20751Y473016D01*
D02*
G37*
G36*
X30501Y463266D02*
X29500D01*
X28575Y462883D01*
X27867Y462175D01*
X27484Y461250D01*
Y460249D01*
X27867Y459325D01*
X28575Y458617D01*
X29500Y458234D01*
X30501D01*
X31425Y458617D01*
X32133Y459325D01*
X32516Y460249D01*
Y461250D01*
X32133Y462175D01*
X31425Y462883D01*
X30501Y463266D01*
D02*
G37*
G36*
X181936Y454582D02*
X180935D01*
X180011Y454199D01*
X179303Y453491D01*
X178920Y452567D01*
Y451566D01*
X179303Y450641D01*
X180011Y449933D01*
X180935Y449550D01*
X181936D01*
X182861Y449933D01*
X183569Y450641D01*
X183952Y451566D01*
Y452567D01*
X183569Y453491D01*
X182861Y454199D01*
X181936Y454582D01*
D02*
G37*
G36*
X50001Y449690D02*
X49000D01*
X48075Y449306D01*
X47367Y448599D01*
X46984Y447674D01*
Y446673D01*
X47367Y445748D01*
X48075Y445041D01*
X49000Y444658D01*
X50001D01*
X50925Y445041D01*
X51633Y445748D01*
X52016Y446673D01*
Y447674D01*
X51633Y448599D01*
X50925Y449306D01*
X50001Y449690D01*
D02*
G37*
G36*
X88815Y448039D02*
X87814D01*
X86889Y447655D01*
X86181Y446948D01*
X85799Y446023D01*
Y445022D01*
X86181Y444097D01*
X86889Y443390D01*
X87814Y443007D01*
X88815D01*
X89740Y443390D01*
X90447Y444097D01*
X90830Y445022D01*
Y446023D01*
X90447Y446948D01*
X89740Y447655D01*
X88815Y448039D01*
D02*
G37*
G36*
X20751Y447016D02*
X19749D01*
X18825Y446633D01*
X18117Y445925D01*
X17734Y445000D01*
Y443999D01*
X18117Y443075D01*
X18825Y442367D01*
X19749Y441984D01*
X20751D01*
X21675Y442367D01*
X22383Y443075D01*
X22766Y443999D01*
Y445000D01*
X22383Y445925D01*
X21675Y446633D01*
X20751Y447016D01*
D02*
G37*
G36*
X112142Y446825D02*
X111142D01*
X110217Y446442D01*
X109509Y445734D01*
X109126Y444809D01*
Y443808D01*
X109509Y442883D01*
X110217Y442176D01*
X111142Y441793D01*
X112142D01*
X113067Y442176D01*
X113775Y442883D01*
X114158Y443808D01*
Y444809D01*
X113775Y445734D01*
X113067Y446442D01*
X112142Y446825D01*
D02*
G37*
G36*
X181830Y446656D02*
X180830D01*
X179905Y446273D01*
X179197Y445565D01*
X178814Y444640D01*
Y443639D01*
X179197Y442714D01*
X179905Y442006D01*
X180830Y441623D01*
X181830D01*
X182755Y442006D01*
X183463Y442714D01*
X183846Y443639D01*
Y444640D01*
X183463Y445565D01*
X182755Y446273D01*
X181830Y446656D01*
D02*
G37*
G36*
X149140Y445118D02*
X148139D01*
X147214Y444734D01*
X146507Y444027D01*
X146124Y443102D01*
Y442101D01*
X146507Y441176D01*
X147214Y440469D01*
X148139Y440086D01*
X149140D01*
X150065Y440469D01*
X150772Y441176D01*
X151156Y442101D01*
Y443102D01*
X150772Y444027D01*
X150065Y444734D01*
X149140Y445118D01*
D02*
G37*
G36*
X228525Y443405D02*
X227524D01*
X226599Y443022D01*
X225891Y442314D01*
X225508Y441390D01*
Y440389D01*
X225891Y439464D01*
X226599Y438756D01*
X227524Y438373D01*
X228525D01*
X229450Y438756D01*
X230157Y439464D01*
X230540Y440389D01*
Y441390D01*
X230157Y442314D01*
X229450Y443022D01*
X228525Y443405D01*
D02*
G37*
G36*
X125602Y441104D02*
X124601D01*
X123677Y440721D01*
X122969Y440013D01*
X122586Y439088D01*
Y438087D01*
X122969Y437163D01*
X123677Y436455D01*
X124601Y436072D01*
X125602D01*
X126527Y436455D01*
X127235Y437163D01*
X127618Y438087D01*
Y439088D01*
X127235Y440013D01*
X126527Y440721D01*
X125602Y441104D01*
D02*
G37*
G36*
X107185Y439893D02*
X106184D01*
X105259Y439510D01*
X104551Y438802D01*
X104169Y437878D01*
Y436877D01*
X104551Y435952D01*
X105259Y435244D01*
X106184Y434861D01*
X107185D01*
X108110Y435244D01*
X108818Y435952D01*
X109200Y436877D01*
Y437878D01*
X108818Y438802D01*
X108110Y439510D01*
X107185Y439893D01*
D02*
G37*
G36*
X231375Y437921D02*
X230374D01*
X229449Y437538D01*
X228742Y436831D01*
X228359Y435906D01*
Y434905D01*
X228742Y433980D01*
X229449Y433273D01*
X230374Y432890D01*
X231375D01*
X232300Y433273D01*
X233008Y433980D01*
X233391Y434905D01*
Y435906D01*
X233008Y436831D01*
X232300Y437538D01*
X231375Y437921D01*
D02*
G37*
G36*
X148682Y436611D02*
X147681D01*
X146756Y436228D01*
X146049Y435521D01*
X145666Y434596D01*
Y433595D01*
X146049Y432670D01*
X146756Y431962D01*
X147681Y431579D01*
X148682D01*
X149607Y431962D01*
X150315Y432670D01*
X150698Y433595D01*
Y434596D01*
X150315Y435521D01*
X149607Y436228D01*
X148682Y436611D01*
D02*
G37*
G36*
X18688Y433461D02*
X17687D01*
X16762Y433078D01*
X16055Y432371D01*
X15672Y431446D01*
Y430445D01*
X16055Y429520D01*
X16762Y428812D01*
X17687Y428429D01*
X18688D01*
X19613Y428812D01*
X20321Y429520D01*
X20704Y430445D01*
Y431446D01*
X20321Y432371D01*
X19613Y433078D01*
X18688Y433461D01*
D02*
G37*
G36*
X105251Y433269D02*
X104250D01*
X103325Y432886D01*
X102617Y432178D01*
X102234Y431253D01*
Y430252D01*
X102617Y429327D01*
X103325Y428620D01*
X104250Y428237D01*
X105251D01*
X106175Y428620D01*
X106883Y429327D01*
X107266Y430252D01*
Y431253D01*
X106883Y432178D01*
X106175Y432886D01*
X105251Y433269D01*
D02*
G37*
G36*
X215351Y433107D02*
X214350D01*
X213425Y432724D01*
X212717Y432016D01*
X212334Y431091D01*
Y430090D01*
X212717Y429165D01*
X213425Y428458D01*
X214350Y428075D01*
X215351D01*
X216275Y428458D01*
X216983Y429165D01*
X217366Y430090D01*
Y431091D01*
X216983Y432016D01*
X216275Y432724D01*
X215351Y433107D01*
D02*
G37*
G36*
X135500Y432516D02*
X134500D01*
X133575Y432133D01*
X132867Y431425D01*
X132484Y430500D01*
Y429500D01*
X132867Y428575D01*
X133575Y427867D01*
X134500Y427484D01*
X135500D01*
X136425Y427867D01*
X137133Y428575D01*
X137516Y429500D01*
Y430500D01*
X137133Y431425D01*
X136425Y432133D01*
X135500Y432516D01*
D02*
G37*
G36*
X157988Y427838D02*
X156987D01*
X156062Y427455D01*
X155354Y426747D01*
X154971Y425822D01*
Y424822D01*
X155354Y423897D01*
X156062Y423189D01*
X156987Y422806D01*
X157988D01*
X158912Y423189D01*
X159620Y423897D01*
X160003Y424822D01*
Y425822D01*
X159620Y426747D01*
X158912Y427455D01*
X157988Y427838D01*
D02*
G37*
G36*
X46826Y427516D02*
X45826D01*
X44901Y427133D01*
X44193Y426425D01*
X43810Y425500D01*
Y424500D01*
X44193Y423575D01*
X44901Y422867D01*
X45826Y422484D01*
X46826D01*
X47751Y422867D01*
X48459Y423575D01*
X48842Y424500D01*
Y425500D01*
X48459Y426425D01*
X47751Y427133D01*
X46826Y427516D01*
D02*
G37*
G36*
X215401Y427345D02*
X214400D01*
X213475Y426962D01*
X212767Y426254D01*
X212384Y425330D01*
Y424329D01*
X212767Y423404D01*
X213475Y422696D01*
X214400Y422313D01*
X215401D01*
X216325Y422696D01*
X217033Y423404D01*
X217416Y424329D01*
Y425330D01*
X217033Y426254D01*
X216325Y426962D01*
X215401Y427345D01*
D02*
G37*
G36*
X231129Y427007D02*
X230128D01*
X229203Y426624D01*
X228496Y425916D01*
X228113Y424992D01*
Y423991D01*
X228496Y423066D01*
X229203Y422358D01*
X230128Y421975D01*
X231129D01*
X232054Y422358D01*
X232761Y423066D01*
X233144Y423991D01*
Y424992D01*
X232761Y425916D01*
X232054Y426624D01*
X231129Y427007D01*
D02*
G37*
G36*
X125980Y424879D02*
X124979D01*
X124055Y424496D01*
X123347Y423788D01*
X122964Y422864D01*
Y421863D01*
X123347Y420938D01*
X124055Y420230D01*
X124979Y419847D01*
X125980D01*
X126905Y420230D01*
X127613Y420938D01*
X127996Y421863D01*
Y422864D01*
X127613Y423788D01*
X126905Y424496D01*
X125980Y424879D01*
D02*
G37*
G36*
X143778Y422517D02*
X142778D01*
X141853Y422133D01*
X141145Y421426D01*
X140762Y420501D01*
Y419500D01*
X141145Y418575D01*
X141853Y417868D01*
X142778Y417485D01*
X143778D01*
X144703Y417868D01*
X145411Y418575D01*
X145794Y419500D01*
Y420501D01*
X145411Y421426D01*
X144703Y422133D01*
X143778Y422517D01*
D02*
G37*
G36*
X80501D02*
X79500D01*
X78575Y422133D01*
X77867Y421426D01*
X77484Y420501D01*
Y419500D01*
X77867Y418575D01*
X78575Y417868D01*
X79500Y417485D01*
X80501D01*
X81425Y417868D01*
X82133Y418575D01*
X82516Y419500D01*
Y420501D01*
X82133Y421426D01*
X81425Y422133D01*
X80501Y422517D01*
D02*
G37*
G36*
X60501D02*
X59500D01*
X58575Y422133D01*
X57867Y421426D01*
X57484Y420501D01*
Y419500D01*
X57867Y418575D01*
X58575Y417868D01*
X59500Y417485D01*
X60501D01*
X61425Y417868D01*
X62133Y418575D01*
X62516Y419500D01*
Y420501D01*
X62133Y421426D01*
X61425Y422133D01*
X60501Y422517D01*
D02*
G37*
G36*
X228525Y421830D02*
X227524D01*
X226599Y421447D01*
X225892Y420740D01*
X225508Y419815D01*
Y418814D01*
X225892Y417889D01*
X226599Y417181D01*
X227524Y416798D01*
X228525D01*
X229450Y417181D01*
X230158Y417889D01*
X230541Y418814D01*
Y419815D01*
X230158Y420740D01*
X229450Y421447D01*
X228525Y421830D01*
D02*
G37*
G36*
X218322Y421016D02*
X217321D01*
X216396Y420633D01*
X215689Y419925D01*
X215306Y419001D01*
Y417999D01*
X215689Y417075D01*
X216396Y416367D01*
X217321Y415984D01*
X218322D01*
X219247Y416367D01*
X219954Y417075D01*
X220338Y417999D01*
Y419001D01*
X219954Y419925D01*
X219247Y420633D01*
X218322Y421016D01*
D02*
G37*
G36*
X105251D02*
X104250D01*
X103325Y420633D01*
X102617Y419925D01*
X102234Y419001D01*
Y417999D01*
X102617Y417075D01*
X103325Y416367D01*
X104250Y415984D01*
X105251D01*
X106175Y416367D01*
X106883Y417075D01*
X107266Y417999D01*
Y419001D01*
X106883Y419925D01*
X106175Y420633D01*
X105251Y421016D01*
D02*
G37*
G36*
X17500D02*
X16500D01*
X15575Y420633D01*
X14867Y419925D01*
X14484Y419001D01*
Y417999D01*
X14867Y417075D01*
X15575Y416367D01*
X16500Y415984D01*
X17500D01*
X18425Y416367D01*
X19133Y417075D01*
X19516Y417999D01*
Y419001D01*
X19133Y419925D01*
X18425Y420633D01*
X17500Y421016D01*
D02*
G37*
G36*
X205952Y419829D02*
X204951D01*
X204026Y419446D01*
X203318Y418738D01*
X202935Y417813D01*
Y416812D01*
X203318Y415887D01*
X204026Y415180D01*
X204951Y414797D01*
X205952D01*
X206877Y415180D01*
X207584Y415887D01*
X207967Y416812D01*
Y417813D01*
X207584Y418738D01*
X206877Y419446D01*
X205952Y419829D01*
D02*
G37*
G36*
X186500Y417766D02*
X185500D01*
X184575Y417383D01*
X183867Y416675D01*
X183484Y415751D01*
Y414749D01*
X183867Y413825D01*
X184575Y413117D01*
X185500Y412734D01*
X186500D01*
X187425Y413117D01*
X188133Y413825D01*
X188516Y414749D01*
Y415751D01*
X188133Y416675D01*
X187425Y417383D01*
X186500Y417766D01*
D02*
G37*
G36*
X105251Y414516D02*
X104250D01*
X103325Y414133D01*
X102617Y413425D01*
X102234Y412500D01*
Y411500D01*
X102617Y410575D01*
X103325Y409867D01*
X104250Y409484D01*
X105251D01*
X106175Y409867D01*
X106883Y410575D01*
X107266Y411500D01*
Y412500D01*
X106883Y413425D01*
X106175Y414133D01*
X105251Y414516D01*
D02*
G37*
G36*
X80500Y412516D02*
X79500D01*
X78575Y412133D01*
X77867Y411425D01*
X77484Y410500D01*
Y409500D01*
X77867Y408575D01*
X78575Y407867D01*
X79500Y407484D01*
X80500D01*
X81425Y407867D01*
X82133Y408575D01*
X82516Y409500D01*
Y410500D01*
X82133Y411425D01*
X81425Y412133D01*
X80500Y412516D01*
D02*
G37*
G36*
X37487Y410182D02*
X36486D01*
X35561Y409799D01*
X34854Y409091D01*
X34471Y408166D01*
Y407165D01*
X34854Y406240D01*
X35561Y405533D01*
X36486Y405150D01*
X37487D01*
X38412Y405533D01*
X39120Y406240D01*
X39503Y407165D01*
Y408166D01*
X39120Y409091D01*
X38412Y409799D01*
X37487Y410182D01*
D02*
G37*
G36*
X222556Y407934D02*
X221555D01*
X220631Y407551D01*
X219923Y406844D01*
X219540Y405919D01*
Y404918D01*
X219923Y403993D01*
X220631Y403285D01*
X221555Y402902D01*
X222556D01*
X223481Y403285D01*
X224189Y403993D01*
X224572Y404918D01*
Y405919D01*
X224189Y406844D01*
X223481Y407551D01*
X222556Y407934D01*
D02*
G37*
G36*
X113682Y406345D02*
X112681D01*
X111756Y405962D01*
X111048Y405254D01*
X110665Y404329D01*
Y403328D01*
X111048Y402403D01*
X111756Y401696D01*
X112681Y401313D01*
X113682D01*
X114607Y401696D01*
X115314Y402403D01*
X115697Y403328D01*
Y404329D01*
X115314Y405254D01*
X114607Y405962D01*
X113682Y406345D01*
D02*
G37*
G36*
X150501Y402516D02*
X149500D01*
X148575Y402133D01*
X147867Y401426D01*
X147484Y400501D01*
Y399500D01*
X147867Y398575D01*
X148575Y397868D01*
X149500Y397484D01*
X150501D01*
X151426Y397868D01*
X152133Y398575D01*
X152516Y399500D01*
Y400501D01*
X152133Y401426D01*
X151426Y402133D01*
X150501Y402516D01*
D02*
G37*
G36*
X124816Y394799D02*
X123815D01*
X122891Y394416D01*
X122183Y393708D01*
X121800Y392783D01*
Y391782D01*
X122183Y390858D01*
X122891Y390150D01*
X123815Y389767D01*
X124816D01*
X125741Y390150D01*
X126449Y390858D01*
X126832Y391782D01*
Y392783D01*
X126449Y393708D01*
X125741Y394416D01*
X124816Y394799D01*
D02*
G37*
G36*
X142715Y394696D02*
X141714D01*
X140790Y394313D01*
X140082Y393605D01*
X139699Y392681D01*
Y391680D01*
X140082Y390755D01*
X140790Y390047D01*
X141714Y389664D01*
X142715D01*
X143640Y390047D01*
X144348Y390755D01*
X144731Y391680D01*
Y392681D01*
X144348Y393605D01*
X143640Y394313D01*
X142715Y394696D01*
D02*
G37*
G36*
X215751Y385266D02*
X214750D01*
X213825Y384883D01*
X213117Y384175D01*
X212734Y383251D01*
Y382250D01*
X213117Y381325D01*
X213825Y380617D01*
X214750Y380234D01*
X215751D01*
X216675Y380617D01*
X217383Y381325D01*
X217766Y382250D01*
Y383251D01*
X217383Y384175D01*
X216675Y384883D01*
X215751Y385266D01*
D02*
G37*
G36*
X185053Y384170D02*
X184052D01*
X183127Y383787D01*
X182419Y383079D01*
X182036Y382154D01*
Y381153D01*
X182419Y380228D01*
X183127Y379521D01*
X184052Y379138D01*
X185053D01*
X185977Y379521D01*
X186685Y380228D01*
X187068Y381153D01*
Y382154D01*
X186685Y383079D01*
X185977Y383787D01*
X185053Y384170D01*
D02*
G37*
G36*
X103590Y383050D02*
X102590D01*
X101665Y382667D01*
X100957Y381959D01*
X100574Y381035D01*
Y380034D01*
X100957Y379109D01*
X101665Y378401D01*
X102590Y378018D01*
X103590D01*
X104515Y378401D01*
X105223Y379109D01*
X105606Y380034D01*
Y381035D01*
X105223Y381959D01*
X104515Y382667D01*
X103590Y383050D01*
D02*
G37*
G36*
X225636Y383013D02*
X224635D01*
X223710Y382630D01*
X223002Y381922D01*
X222619Y380998D01*
Y379997D01*
X223002Y379072D01*
X223710Y378364D01*
X224635Y377981D01*
X225636D01*
X226560Y378364D01*
X227268Y379072D01*
X227651Y379997D01*
Y380998D01*
X227268Y381922D01*
X226560Y382630D01*
X225636Y383013D01*
D02*
G37*
G36*
X196847Y382981D02*
X195846D01*
X194922Y382598D01*
X194214Y381890D01*
X193831Y380965D01*
Y379964D01*
X194214Y379039D01*
X194922Y378332D01*
X195846Y377949D01*
X196847D01*
X197772Y378332D01*
X198480Y379039D01*
X198863Y379964D01*
Y380965D01*
X198480Y381890D01*
X197772Y382598D01*
X196847Y382981D01*
D02*
G37*
G36*
X40501Y382516D02*
X39500D01*
X38575Y382133D01*
X37867Y381426D01*
X37484Y380501D01*
Y379500D01*
X37867Y378575D01*
X38575Y377868D01*
X39500Y377484D01*
X40501D01*
X41425Y377868D01*
X42133Y378575D01*
X42516Y379500D01*
Y380501D01*
X42133Y381426D01*
X41425Y382133D01*
X40501Y382516D01*
D02*
G37*
G36*
X86009Y382129D02*
X85008D01*
X84083Y381746D01*
X83375Y381038D01*
X82992Y380113D01*
Y379112D01*
X83375Y378187D01*
X84083Y377480D01*
X85008Y377097D01*
X86009D01*
X86933Y377480D01*
X87641Y378187D01*
X88024Y379112D01*
Y380113D01*
X87641Y381038D01*
X86933Y381746D01*
X86009Y382129D01*
D02*
G37*
G36*
X206707Y381646D02*
X205706D01*
X204781Y381263D01*
X204073Y380555D01*
X203690Y379631D01*
Y378630D01*
X204073Y377705D01*
X204781Y376997D01*
X205706Y376614D01*
X206707D01*
X207631Y376997D01*
X208339Y377705D01*
X208722Y378630D01*
Y379631D01*
X208339Y380555D01*
X207631Y381263D01*
X206707Y381646D01*
D02*
G37*
G36*
X53255Y377683D02*
X52254D01*
X51329Y377300D01*
X50621Y376592D01*
X50238Y375668D01*
Y374667D01*
X50621Y373742D01*
X51329Y373034D01*
X52254Y372651D01*
X53255D01*
X54180Y373034D01*
X54887Y373742D01*
X55270Y374667D01*
Y375668D01*
X54887Y376592D01*
X54180Y377300D01*
X53255Y377683D01*
D02*
G37*
G36*
X79636Y377639D02*
X78635D01*
X77711Y377256D01*
X77003Y376548D01*
X76620Y375623D01*
Y374622D01*
X77003Y373698D01*
X77711Y372990D01*
X78635Y372607D01*
X79636D01*
X80561Y372990D01*
X81269Y373698D01*
X81652Y374622D01*
Y375623D01*
X81269Y376548D01*
X80561Y377256D01*
X79636Y377639D01*
D02*
G37*
G36*
X215862Y376097D02*
X214861D01*
X213936Y375714D01*
X213229Y375006D01*
X212846Y374081D01*
Y373080D01*
X213229Y372155D01*
X213936Y371448D01*
X214861Y371065D01*
X215862D01*
X216787Y371448D01*
X217495Y372155D01*
X217878Y373080D01*
Y374081D01*
X217495Y375006D01*
X216787Y375714D01*
X215862Y376097D01*
D02*
G37*
G36*
X94249Y373767D02*
X93249D01*
X92324Y373384D01*
X91616Y372676D01*
X91233Y371751D01*
Y370751D01*
X91616Y369826D01*
X92324Y369118D01*
X93249Y368735D01*
X94249D01*
X95174Y369118D01*
X95882Y369826D01*
X96265Y370751D01*
Y371751D01*
X95882Y372676D01*
X95174Y373384D01*
X94249Y373767D01*
D02*
G37*
G36*
X149338Y371419D02*
X148337D01*
X147413Y371036D01*
X146705Y370328D01*
X146322Y369404D01*
Y368403D01*
X146705Y367478D01*
X147413Y366770D01*
X148337Y366387D01*
X149338D01*
X150263Y366770D01*
X150971Y367478D01*
X151354Y368403D01*
Y369404D01*
X150971Y370328D01*
X150263Y371036D01*
X149338Y371419D01*
D02*
G37*
G36*
X206707Y370646D02*
X205706D01*
X204781Y370263D01*
X204073Y369556D01*
X203690Y368631D01*
Y367630D01*
X204073Y366705D01*
X204781Y365997D01*
X205706Y365614D01*
X206707D01*
X207631Y365997D01*
X208339Y366705D01*
X208722Y367630D01*
Y368631D01*
X208339Y369556D01*
X207631Y370263D01*
X206707Y370646D01*
D02*
G37*
G36*
X165923Y369177D02*
X164922D01*
X163997Y368794D01*
X163290Y368086D01*
X162906Y367161D01*
Y366161D01*
X163290Y365236D01*
X163997Y364528D01*
X164922Y364145D01*
X165923D01*
X166848Y364528D01*
X167555Y365236D01*
X167938Y366161D01*
Y367161D01*
X167555Y368086D01*
X166848Y368794D01*
X165923Y369177D01*
D02*
G37*
G36*
X216813Y369032D02*
X215812D01*
X214887Y368649D01*
X214179Y367941D01*
X213796Y367016D01*
Y366016D01*
X214179Y365091D01*
X214887Y364383D01*
X215812Y364000D01*
X216813D01*
X217738Y364383D01*
X218445Y365091D01*
X218828Y366016D01*
Y367016D01*
X218445Y367941D01*
X217738Y368649D01*
X216813Y369032D01*
D02*
G37*
G36*
X126584Y359184D02*
X125583D01*
X124658Y358801D01*
X123950Y358093D01*
X123567Y357168D01*
Y356167D01*
X123950Y355243D01*
X124658Y354535D01*
X125583Y354152D01*
X126584D01*
X127508Y354535D01*
X128216Y355243D01*
X128599Y356167D01*
Y357168D01*
X128216Y358093D01*
X127508Y358801D01*
X126584Y359184D01*
D02*
G37*
G36*
X149294Y357555D02*
X148293D01*
X147368Y357172D01*
X146661Y356464D01*
X146278Y355540D01*
Y354539D01*
X146661Y353614D01*
X147368Y352906D01*
X148293Y352523D01*
X149294D01*
X150219Y352906D01*
X150927Y353614D01*
X151310Y354539D01*
Y355540D01*
X150927Y356464D01*
X150219Y357172D01*
X149294Y357555D01*
D02*
G37*
G36*
X140500Y357516D02*
X139500D01*
X138575Y357133D01*
X137867Y356425D01*
X137484Y355500D01*
Y354500D01*
X137867Y353575D01*
X138575Y352867D01*
X139500Y352484D01*
X140500D01*
X141425Y352867D01*
X142133Y353575D01*
X142516Y354500D01*
Y355500D01*
X142133Y356425D01*
X141425Y357133D01*
X140500Y357516D01*
D02*
G37*
G36*
X106410Y350042D02*
X105409D01*
X104484Y349659D01*
X103777Y348951D01*
X103393Y348027D01*
Y347026D01*
X103777Y346101D01*
X104484Y345393D01*
X105409Y345010D01*
X106410D01*
X107335Y345393D01*
X108042Y346101D01*
X108425Y347026D01*
Y348027D01*
X108042Y348951D01*
X107335Y349659D01*
X106410Y350042D01*
D02*
G37*
G36*
X80501Y342516D02*
X79500D01*
X78575Y342133D01*
X77867Y341426D01*
X77484Y340501D01*
Y339500D01*
X77867Y338575D01*
X78575Y337867D01*
X79500Y337484D01*
X80501D01*
X81425Y337867D01*
X82133Y338575D01*
X82516Y339500D01*
Y340501D01*
X82133Y341426D01*
X81425Y342133D01*
X80501Y342516D01*
D02*
G37*
G36*
X60501D02*
X59500D01*
X58575Y342133D01*
X57867Y341426D01*
X57484Y340501D01*
Y339500D01*
X57867Y338575D01*
X58575Y337867D01*
X59500Y337484D01*
X60501D01*
X61425Y337867D01*
X62133Y338575D01*
X62516Y339500D01*
Y340501D01*
X62133Y341426D01*
X61425Y342133D01*
X60501Y342516D01*
D02*
G37*
G36*
X40501D02*
X39500D01*
X38575Y342133D01*
X37867Y341426D01*
X37484Y340501D01*
Y339500D01*
X37867Y338575D01*
X38575Y337867D01*
X39500Y337484D01*
X40501D01*
X41425Y337867D01*
X42133Y338575D01*
X42516Y339500D01*
Y340501D01*
X42133Y341426D01*
X41425Y342133D01*
X40501Y342516D01*
D02*
G37*
G36*
X183664Y344397D02*
X182066D01*
X180590Y343786D01*
X179460Y342656D01*
X178849Y341180D01*
Y339582D01*
X179460Y338106D01*
X180590Y336977D01*
X182066Y336365D01*
X183664D01*
X185140Y336977D01*
X186269Y338106D01*
X186881Y339582D01*
Y341180D01*
X186269Y342656D01*
X185140Y343786D01*
X183664Y344397D01*
D02*
G37*
G36*
X199789Y344353D02*
X198191D01*
X196715Y343742D01*
X195585Y342612D01*
X194974Y341136D01*
Y339538D01*
X195585Y338062D01*
X196715Y336933D01*
X198191Y336321D01*
X199789D01*
X201265Y336933D01*
X202395Y338062D01*
X203006Y339538D01*
Y341136D01*
X202395Y342612D01*
X201265Y343742D01*
X199789Y344353D01*
D02*
G37*
G36*
X214122Y333216D02*
X213121D01*
X212197Y332833D01*
X211489Y332125D01*
X211106Y331200D01*
Y330199D01*
X211489Y329275D01*
X212197Y328567D01*
X213121Y328184D01*
X214122D01*
X215047Y328567D01*
X215755Y329275D01*
X216138Y330199D01*
Y331200D01*
X215755Y332125D01*
X215047Y332833D01*
X214122Y333216D01*
D02*
G37*
G36*
X165125Y332892D02*
X164124D01*
X163199Y332509D01*
X162491Y331801D01*
X162108Y330876D01*
Y329875D01*
X162491Y328951D01*
X163199Y328243D01*
X164124Y327860D01*
X165125D01*
X166049Y328243D01*
X166757Y328951D01*
X167140Y329875D01*
Y330876D01*
X166757Y331801D01*
X166049Y332509D01*
X165125Y332892D01*
D02*
G37*
G36*
X224427Y332256D02*
X223426D01*
X222501Y331873D01*
X221793Y331165D01*
X221411Y330240D01*
Y329239D01*
X221793Y328314D01*
X222501Y327607D01*
X223426Y327224D01*
X224427D01*
X225352Y327607D01*
X226059Y328314D01*
X226443Y329239D01*
Y330240D01*
X226059Y331165D01*
X225352Y331873D01*
X224427Y332256D01*
D02*
G37*
G36*
X101615Y326167D02*
X100615D01*
X99690Y325784D01*
X98982Y325076D01*
X98599Y324151D01*
Y323150D01*
X98982Y322225D01*
X99690Y321518D01*
X100615Y321135D01*
X101615D01*
X102540Y321518D01*
X103248Y322225D01*
X103631Y323150D01*
Y324151D01*
X103248Y325076D01*
X102540Y325784D01*
X101615Y326167D01*
D02*
G37*
G36*
X131581Y322956D02*
X130581D01*
X129656Y322573D01*
X128948Y321865D01*
X128565Y320941D01*
Y319940D01*
X128948Y319015D01*
X129656Y318307D01*
X130581Y317924D01*
X131581D01*
X132506Y318307D01*
X133214Y319015D01*
X133597Y319940D01*
Y320941D01*
X133214Y321865D01*
X132506Y322573D01*
X131581Y322956D01*
D02*
G37*
G36*
X70635Y326525D02*
X68838D01*
X67178Y325837D01*
X65908Y324567D01*
X65220Y322907D01*
Y321110D01*
X65908Y319451D01*
X67178Y318180D01*
X68838Y317493D01*
X70635D01*
X72295Y318180D01*
X73565Y319451D01*
X74252Y321110D01*
Y322907D01*
X73565Y324567D01*
X72295Y325837D01*
X70635Y326525D01*
D02*
G37*
G36*
X230501Y322516D02*
X229500D01*
X228575Y322133D01*
X227867Y321426D01*
X227484Y320501D01*
Y319500D01*
X227867Y318575D01*
X228575Y317867D01*
X229500Y317484D01*
X230501D01*
X231425Y317867D01*
X232133Y318575D01*
X232516Y319500D01*
Y320501D01*
X232133Y321426D01*
X231425Y322133D01*
X230501Y322516D01*
D02*
G37*
G36*
X90501D02*
X89500D01*
X88575Y322133D01*
X87867Y321426D01*
X87484Y320501D01*
Y319500D01*
X87867Y318575D01*
X88575Y317867D01*
X89500Y317484D01*
X90501D01*
X91425Y317867D01*
X92133Y318575D01*
X92516Y319500D01*
Y320501D01*
X92133Y321426D01*
X91425Y322133D01*
X90501Y322516D01*
D02*
G37*
G36*
X50501D02*
X49500D01*
X48575Y322133D01*
X47867Y321426D01*
X47484Y320501D01*
Y319500D01*
X47867Y318575D01*
X48575Y317867D01*
X49500Y317484D01*
X50501D01*
X51425Y317867D01*
X52133Y318575D01*
X52516Y319500D01*
Y320501D01*
X52133Y321426D01*
X51425Y322133D01*
X50501Y322516D01*
D02*
G37*
G36*
X164131Y321529D02*
X163130D01*
X162205Y321146D01*
X161498Y320438D01*
X161115Y319513D01*
Y318512D01*
X161498Y317588D01*
X162205Y316880D01*
X163130Y316497D01*
X164131D01*
X165056Y316880D01*
X165763Y317588D01*
X166147Y318512D01*
Y319513D01*
X165763Y320438D01*
X165056Y321146D01*
X164131Y321529D01*
D02*
G37*
G36*
X202270Y319976D02*
X201269D01*
X200344Y319593D01*
X199636Y318885D01*
X199254Y317960D01*
Y316959D01*
X199636Y316035D01*
X200344Y315327D01*
X201269Y314944D01*
X202270D01*
X203195Y315327D01*
X203902Y316035D01*
X204286Y316959D01*
Y317960D01*
X203902Y318885D01*
X203195Y319593D01*
X202270Y319976D01*
D02*
G37*
G36*
X216145Y316237D02*
X215144D01*
X214219Y315854D01*
X213511Y315146D01*
X213128Y314222D01*
Y313221D01*
X213511Y312296D01*
X214219Y311588D01*
X215144Y311205D01*
X216145D01*
X217070Y311588D01*
X217777Y312296D01*
X218160Y313221D01*
Y314222D01*
X217777Y315146D01*
X217070Y315854D01*
X216145Y316237D01*
D02*
G37*
G36*
X146539Y311538D02*
X145538D01*
X144613Y311155D01*
X143905Y310448D01*
X143522Y309523D01*
Y308522D01*
X143905Y307597D01*
X144613Y306889D01*
X145538Y306506D01*
X146539D01*
X147464Y306889D01*
X148171Y307597D01*
X148554Y308522D01*
Y309523D01*
X148171Y310448D01*
X147464Y311155D01*
X146539Y311538D01*
D02*
G37*
G36*
X126123D02*
X125122D01*
X124198Y311155D01*
X123490Y310448D01*
X123107Y309523D01*
Y308522D01*
X123490Y307597D01*
X124198Y306889D01*
X125122Y306506D01*
X126123D01*
X127048Y306889D01*
X127756Y307597D01*
X128139Y308522D01*
Y309523D01*
X127756Y310448D01*
X127048Y311155D01*
X126123Y311538D01*
D02*
G37*
G36*
X110051Y311363D02*
X109051D01*
X108126Y310980D01*
X107418Y310273D01*
X107035Y309348D01*
Y308347D01*
X107418Y307422D01*
X108126Y306714D01*
X109051Y306331D01*
X110051D01*
X110976Y306714D01*
X111684Y307422D01*
X112067Y308347D01*
Y309348D01*
X111684Y310273D01*
X110976Y310980D01*
X110051Y311363D01*
D02*
G37*
G36*
X230174Y308995D02*
X229174D01*
X228249Y308612D01*
X227541Y307904D01*
X227158Y306979D01*
Y305979D01*
X227541Y305054D01*
X228249Y304346D01*
X229174Y303963D01*
X230174D01*
X231099Y304346D01*
X231807Y305054D01*
X232190Y305979D01*
Y306979D01*
X231807Y307904D01*
X231099Y308612D01*
X230174Y308995D01*
D02*
G37*
G36*
X70635Y306525D02*
X68838D01*
X67178Y305837D01*
X65908Y304567D01*
X65220Y302907D01*
Y301110D01*
X65908Y299451D01*
X67178Y298180D01*
X68838Y297493D01*
X70635D01*
X72295Y298180D01*
X73565Y299451D01*
X74252Y301110D01*
Y302907D01*
X73565Y304567D01*
X72295Y305837D01*
X70635Y306525D01*
D02*
G37*
G36*
X100501Y302516D02*
X99500D01*
X98575Y302133D01*
X97867Y301426D01*
X97484Y300501D01*
Y299500D01*
X97867Y298575D01*
X98575Y297867D01*
X99500Y297484D01*
X100501D01*
X101426Y297867D01*
X102133Y298575D01*
X102516Y299500D01*
Y300501D01*
X102133Y301426D01*
X101426Y302133D01*
X100501Y302516D01*
D02*
G37*
G36*
X20501D02*
X19500D01*
X18575Y302133D01*
X17867Y301426D01*
X17484Y300501D01*
Y299500D01*
X17867Y298575D01*
X18575Y297867D01*
X19500Y297484D01*
X20501D01*
X21425Y297867D01*
X22133Y298575D01*
X22516Y299500D01*
Y300501D01*
X22133Y301426D01*
X21425Y302133D01*
X20501Y302516D01*
D02*
G37*
G36*
X195799Y301890D02*
X194201D01*
X192725Y301279D01*
X191595Y300149D01*
X190984Y298673D01*
Y297075D01*
X191595Y295599D01*
X192725Y294469D01*
X194201Y293858D01*
X195799D01*
X197275Y294469D01*
X198405Y295599D01*
X199016Y297075D01*
Y298673D01*
X198405Y300149D01*
X197275Y301279D01*
X195799Y301890D01*
D02*
G37*
G36*
X195755Y285765D02*
X194157D01*
X192681Y285154D01*
X191551Y284024D01*
X190940Y282548D01*
Y280950D01*
X191551Y279474D01*
X192681Y278344D01*
X194157Y277733D01*
X195755D01*
X197231Y278344D01*
X198361Y279474D01*
X198972Y280950D01*
Y282548D01*
X198361Y284024D01*
X197231Y285154D01*
X195755Y285765D01*
D02*
G37*
G36*
X110501Y282516D02*
X109500D01*
X108575Y282133D01*
X107867Y281426D01*
X107484Y280501D01*
Y279500D01*
X107867Y278575D01*
X108575Y277867D01*
X109500Y277484D01*
X110501D01*
X111426Y277867D01*
X112133Y278575D01*
X112516Y279500D01*
Y280501D01*
X112133Y281426D01*
X111426Y282133D01*
X110501Y282516D01*
D02*
G37*
G36*
X90501D02*
X89500D01*
X88575Y282133D01*
X87867Y281426D01*
X87484Y280501D01*
Y279500D01*
X87867Y278575D01*
X88575Y277867D01*
X89500Y277484D01*
X90501D01*
X91425Y277867D01*
X92133Y278575D01*
X92516Y279500D01*
Y280501D01*
X92133Y281426D01*
X91425Y282133D01*
X90501Y282516D01*
D02*
G37*
G36*
X30501D02*
X29500D01*
X28575Y282133D01*
X27867Y281426D01*
X27484Y280501D01*
Y279500D01*
X27867Y278575D01*
X28575Y277867D01*
X29500Y277484D01*
X30501D01*
X31425Y277867D01*
X32133Y278575D01*
X32516Y279500D01*
Y280501D01*
X32133Y281426D01*
X31425Y282133D01*
X30501Y282516D01*
D02*
G37*
G36*
X175501Y282016D02*
X174499D01*
X173575Y281633D01*
X172867Y280925D01*
X172484Y280000D01*
Y279000D01*
X172867Y278075D01*
X173575Y277367D01*
X174499Y276984D01*
X175501D01*
X176425Y277367D01*
X177133Y278075D01*
X177516Y279000D01*
Y280000D01*
X177133Y280925D01*
X176425Y281633D01*
X175501Y282016D01*
D02*
G37*
G36*
X139283Y280706D02*
X138282D01*
X137358Y280323D01*
X136650Y279615D01*
X136267Y278690D01*
Y277689D01*
X136650Y276765D01*
X137358Y276057D01*
X138282Y275674D01*
X139283D01*
X140208Y276057D01*
X140916Y276765D01*
X141299Y277689D01*
Y278690D01*
X140916Y279615D01*
X140208Y280323D01*
X139283Y280706D01*
D02*
G37*
G36*
X122660Y274079D02*
X121659D01*
X120734Y273696D01*
X120027Y272988D01*
X119643Y272063D01*
Y271062D01*
X120027Y270137D01*
X120734Y269430D01*
X121659Y269047D01*
X122660D01*
X123585Y269430D01*
X124292Y270137D01*
X124675Y271062D01*
Y272063D01*
X124292Y272988D01*
X123585Y273696D01*
X122660Y274079D01*
D02*
G37*
G36*
X137321Y264145D02*
X136320D01*
X135395Y263762D01*
X134688Y263054D01*
X134305Y262129D01*
Y261129D01*
X134688Y260204D01*
X135395Y259496D01*
X136320Y259113D01*
X137321D01*
X138246Y259496D01*
X138954Y260204D01*
X139337Y261129D01*
Y262129D01*
X138954Y263054D01*
X138246Y263762D01*
X137321Y264145D01*
D02*
G37*
G36*
X100501Y262516D02*
X99500D01*
X98575Y262133D01*
X97867Y261426D01*
X97484Y260501D01*
Y259500D01*
X97867Y258575D01*
X98575Y257867D01*
X99500Y257484D01*
X100501D01*
X101426Y257867D01*
X102133Y258575D01*
X102516Y259500D01*
Y260501D01*
X102133Y261426D01*
X101426Y262133D01*
X100501Y262516D01*
D02*
G37*
G36*
X80501D02*
X79500D01*
X78575Y262133D01*
X77867Y261426D01*
X77484Y260501D01*
Y259500D01*
X77867Y258575D01*
X78575Y257867D01*
X79500Y257484D01*
X80501D01*
X81425Y257867D01*
X82133Y258575D01*
X82516Y259500D01*
Y260501D01*
X82133Y261426D01*
X81425Y262133D01*
X80501Y262516D01*
D02*
G37*
G36*
X68858D02*
X67857D01*
X66933Y262133D01*
X66225Y261426D01*
X65842Y260501D01*
Y259500D01*
X66225Y258575D01*
X66933Y257867D01*
X67857Y257484D01*
X68858D01*
X69783Y257867D01*
X70491Y258575D01*
X70874Y259500D01*
Y260501D01*
X70491Y261426D01*
X69783Y262133D01*
X68858Y262516D01*
D02*
G37*
G36*
X27995Y272600D02*
X24305D01*
X20740Y271644D01*
X17544Y269799D01*
X14934Y267190D01*
X13089Y263993D01*
X12134Y260429D01*
Y256738D01*
X13089Y253174D01*
X14934Y249977D01*
X17544Y247368D01*
X20740Y245523D01*
X24305Y244568D01*
X27995D01*
X31560Y245523D01*
X34756Y247368D01*
X37366Y249977D01*
X39211Y253174D01*
X40166Y256738D01*
Y260429D01*
X39211Y263993D01*
X37366Y267190D01*
X34756Y269799D01*
X31560Y271644D01*
X27995Y272600D01*
D02*
G37*
G36*
X120561Y244442D02*
X119560D01*
X118636Y244059D01*
X117928Y243351D01*
X117545Y242426D01*
Y241426D01*
X117928Y240501D01*
X118636Y239793D01*
X119560Y239410D01*
X120561D01*
X121486Y239793D01*
X122194Y240501D01*
X122577Y241426D01*
Y242426D01*
X122194Y243351D01*
X121486Y244059D01*
X120561Y244442D01*
D02*
G37*
G36*
X210501Y242516D02*
X209500D01*
X208575Y242133D01*
X207867Y241426D01*
X207484Y240501D01*
Y239500D01*
X207867Y238575D01*
X208575Y237867D01*
X209500Y237484D01*
X210501D01*
X211425Y237867D01*
X212133Y238575D01*
X212516Y239500D01*
Y240501D01*
X212133Y241426D01*
X211425Y242133D01*
X210501Y242516D01*
D02*
G37*
G36*
X190501D02*
X189500D01*
X188575Y242133D01*
X187867Y241426D01*
X187484Y240501D01*
Y239500D01*
X187867Y238575D01*
X188575Y237867D01*
X189500Y237484D01*
X190501D01*
X191425Y237867D01*
X192133Y238575D01*
X192516Y239500D01*
Y240501D01*
X192133Y241426D01*
X191425Y242133D01*
X190501Y242516D01*
D02*
G37*
G36*
X30501D02*
X29500D01*
X28575Y242133D01*
X27867Y241426D01*
X27484Y240501D01*
Y239500D01*
X27867Y238575D01*
X28575Y237867D01*
X29500Y237484D01*
X30501D01*
X31425Y237867D01*
X32133Y238575D01*
X32516Y239500D01*
Y240501D01*
X32133Y241426D01*
X31425Y242133D01*
X30501Y242516D01*
D02*
G37*
G36*
X140792Y239998D02*
X139791D01*
X138867Y239615D01*
X138159Y238907D01*
X137776Y237982D01*
Y236981D01*
X138159Y236056D01*
X138867Y235349D01*
X139791Y234965D01*
X140792D01*
X141717Y235349D01*
X142425Y236056D01*
X142808Y236981D01*
Y237982D01*
X142425Y238907D01*
X141717Y239615D01*
X140792Y239998D01*
D02*
G37*
G36*
X152905Y230002D02*
X151904D01*
X150979Y229619D01*
X150271Y228911D01*
X149888Y227986D01*
Y226985D01*
X150271Y226061D01*
X150979Y225353D01*
X151904Y224970D01*
X152905D01*
X153829Y225353D01*
X154537Y226061D01*
X154920Y226985D01*
Y227986D01*
X154537Y228911D01*
X153829Y229619D01*
X152905Y230002D01*
D02*
G37*
G36*
X76069Y230422D02*
X69059D01*
X67101Y230033D01*
X65442Y228924D01*
X64333Y227265D01*
X63944Y225308D01*
X64333Y223350D01*
X65442Y221691D01*
X67101Y220582D01*
X69059Y220193D01*
X76069D01*
X78026Y220582D01*
X79686Y221691D01*
X80795Y223350D01*
X81184Y225308D01*
X80795Y227265D01*
X79686Y228924D01*
X78026Y230033D01*
X76069Y230422D01*
D02*
G37*
G36*
X32749D02*
X28762D01*
X26804Y230033D01*
X25145Y228924D01*
X24036Y227265D01*
X23647Y225308D01*
X24036Y223350D01*
X25145Y221691D01*
X26804Y220582D01*
X28762Y220193D01*
X32749D01*
X34707Y220582D01*
X36366Y221691D01*
X37475Y223350D01*
X37864Y225308D01*
X37475Y227265D01*
X36366Y228924D01*
X34707Y230033D01*
X32749Y230422D01*
D02*
G37*
G36*
X160501Y222516D02*
X159500D01*
X158575Y222133D01*
X157867Y221425D01*
X157484Y220501D01*
Y219500D01*
X157867Y218575D01*
X158575Y217867D01*
X159500Y217484D01*
X160501D01*
X161425Y217867D01*
X162133Y218575D01*
X162516Y219500D01*
Y220501D01*
X162133Y221425D01*
X161425Y222133D01*
X160501Y222516D01*
D02*
G37*
G36*
X100501D02*
X99500D01*
X98575Y222133D01*
X97867Y221425D01*
X97484Y220501D01*
Y219500D01*
X97867Y218575D01*
X98575Y217867D01*
X99500Y217484D01*
X100501D01*
X101426Y217867D01*
X102133Y218575D01*
X102516Y219500D01*
Y220501D01*
X102133Y221425D01*
X101426Y222133D01*
X100501Y222516D01*
D02*
G37*
G36*
X67941Y215144D02*
X67179D01*
X67049Y215089D01*
X66909Y215110D01*
X66198Y214932D01*
X66070Y214837D01*
X65911Y214817D01*
X65251Y214436D01*
X65175Y214337D01*
X65058Y214295D01*
X64500Y213787D01*
X64435Y213650D01*
X64311Y213563D01*
X63905Y212929D01*
X63878Y212782D01*
X63782Y212669D01*
X63554Y211958D01*
X63565Y211817D01*
X63503Y211691D01*
X63452Y210929D01*
X63502Y210782D01*
X63473Y210630D01*
X63625Y209893D01*
X63695Y209790D01*
X63698Y209666D01*
X64003Y208981D01*
X64125Y208865D01*
X64177Y208705D01*
X64660Y208146D01*
X64771Y208090D01*
X64835Y207983D01*
X65444Y207526D01*
X65594Y207488D01*
X65705Y207380D01*
X66416Y207101D01*
X66572Y207104D01*
X66709Y207030D01*
X67446Y206954D01*
X67558Y206987D01*
X67671Y206953D01*
X68433Y207029D01*
X68578Y207107D01*
X68742Y207106D01*
X69428Y207386D01*
X69533Y207489D01*
X69676Y207526D01*
X70286Y207983D01*
X70349Y208090D01*
X70460Y208146D01*
X70943Y208705D01*
X70990Y208849D01*
X71103Y208950D01*
X71434Y209636D01*
X71442Y209795D01*
X71528Y209929D01*
X71655Y210666D01*
X71624Y210800D01*
X71668Y210929D01*
X71617Y211691D01*
X71555Y211817D01*
X71567Y211958D01*
X71338Y212669D01*
X71242Y212782D01*
X71216Y212929D01*
X70809Y213563D01*
X70696Y213643D01*
X70639Y213770D01*
X70106Y214278D01*
X69978Y214327D01*
X69895Y214436D01*
X69234Y214817D01*
X69071Y214838D01*
X68939Y214935D01*
X68202Y215112D01*
X68067Y215091D01*
X67941Y215144D01*
D02*
G37*
G36*
X187237Y216179D02*
X186236D01*
X185312Y215796D01*
X184604Y215088D01*
X184221Y214163D01*
Y213162D01*
X184604Y212238D01*
X185312Y211530D01*
X186236Y211147D01*
X187237D01*
X188162Y211530D01*
X188870Y212238D01*
X189253Y213162D01*
Y214163D01*
X188870Y215088D01*
X188162Y215796D01*
X187237Y216179D01*
D02*
G37*
G36*
X133603Y212639D02*
X132602D01*
X131677Y212256D01*
X130969Y211549D01*
X130586Y210624D01*
Y209623D01*
X130969Y208698D01*
X131677Y207990D01*
X132602Y207607D01*
X133603D01*
X134527Y207990D01*
X135235Y208698D01*
X135618Y209623D01*
Y210624D01*
X135235Y211549D01*
X134527Y212256D01*
X133603Y212639D01*
D02*
G37*
G36*
X196499Y212516D02*
X195498D01*
X194573Y212133D01*
X193865Y211425D01*
X193482Y210501D01*
Y209500D01*
X193865Y208575D01*
X194573Y207867D01*
X195498Y207484D01*
X196499D01*
X197423Y207867D01*
X198131Y208575D01*
X198514Y209500D01*
Y210501D01*
X198131Y211425D01*
X197423Y212133D01*
X196499Y212516D01*
D02*
G37*
G36*
X170709Y212477D02*
X169708D01*
X168783Y212094D01*
X168075Y211386D01*
X167692Y210461D01*
Y209460D01*
X168075Y208536D01*
X168783Y207828D01*
X169708Y207445D01*
X170709D01*
X171633Y207828D01*
X172341Y208536D01*
X172724Y209460D01*
Y210461D01*
X172341Y211386D01*
X171633Y212094D01*
X170709Y212477D01*
D02*
G37*
G36*
X151475Y212310D02*
X150474D01*
X149549Y211927D01*
X148841Y211220D01*
X148458Y210295D01*
Y209294D01*
X148841Y208369D01*
X149549Y207661D01*
X150474Y207278D01*
X151475D01*
X152399Y207661D01*
X153107Y208369D01*
X153490Y209294D01*
Y210295D01*
X153107Y211220D01*
X152399Y211927D01*
X151475Y212310D01*
D02*
G37*
G36*
X159254Y212271D02*
X158253D01*
X157328Y211888D01*
X156621Y211180D01*
X156238Y210256D01*
Y209255D01*
X156621Y208330D01*
X157328Y207622D01*
X158253Y207239D01*
X159254D01*
X160179Y207622D01*
X160886Y208330D01*
X161270Y209255D01*
Y210256D01*
X160886Y211180D01*
X160179Y211888D01*
X159254Y212271D01*
D02*
G37*
G36*
X108500Y206516D02*
X107500D01*
X106575Y206133D01*
X105867Y205425D01*
X105484Y204501D01*
Y203500D01*
X105867Y202575D01*
X106575Y201867D01*
X107500Y201484D01*
X108500D01*
X109425Y201867D01*
X110133Y202575D01*
X110516Y203500D01*
Y204501D01*
X110133Y205425D01*
X109425Y206133D01*
X108500Y206516D01*
D02*
G37*
G36*
X128138Y205632D02*
X127137D01*
X126213Y205249D01*
X125505Y204541D01*
X125122Y203616D01*
Y202615D01*
X125505Y201691D01*
X126213Y200983D01*
X127137Y200600D01*
X128138D01*
X129063Y200983D01*
X129771Y201691D01*
X130154Y202615D01*
Y203616D01*
X129771Y204541D01*
X129063Y205249D01*
X128138Y205632D01*
D02*
G37*
G36*
X160501Y203266D02*
X159500D01*
X158575Y202883D01*
X157867Y202175D01*
X157484Y201250D01*
Y200250D01*
X157867Y199325D01*
X158575Y198617D01*
X159500Y198234D01*
X160501D01*
X161425Y198617D01*
X162133Y199325D01*
X162516Y200250D01*
Y201250D01*
X162133Y202175D01*
X161425Y202883D01*
X160501Y203266D01*
D02*
G37*
G36*
X115500Y202502D02*
X114500D01*
X113575Y202119D01*
X112867Y201411D01*
X112484Y200486D01*
Y199485D01*
X112867Y198561D01*
X113575Y197853D01*
X114500Y197470D01*
X115500D01*
X116425Y197853D01*
X117133Y198561D01*
X117516Y199485D01*
Y200486D01*
X117133Y201411D01*
X116425Y202119D01*
X115500Y202502D01*
D02*
G37*
G36*
X193077Y202269D02*
X192076D01*
X191152Y201886D01*
X190444Y201178D01*
X190061Y200254D01*
Y199253D01*
X190444Y198328D01*
X191152Y197620D01*
X192076Y197237D01*
X193077D01*
X194002Y197620D01*
X194710Y198328D01*
X195093Y199253D01*
Y200254D01*
X194710Y201178D01*
X194002Y201886D01*
X193077Y202269D01*
D02*
G37*
G36*
X67914Y201714D02*
X66913D01*
X65989Y201330D01*
X65281Y200623D01*
X64898Y199698D01*
Y198697D01*
X65281Y197772D01*
X65989Y197064D01*
X66913Y196681D01*
X67914D01*
X68839Y197064D01*
X69547Y197772D01*
X69930Y198697D01*
Y199698D01*
X69547Y200623D01*
X68839Y201330D01*
X67914Y201714D01*
D02*
G37*
G36*
X60412D02*
X59412D01*
X58487Y201330D01*
X57779Y200623D01*
X57396Y199698D01*
Y198697D01*
X57779Y197772D01*
X58487Y197064D01*
X59412Y196681D01*
X60412D01*
X61337Y197064D01*
X62045Y197772D01*
X62428Y198697D01*
Y199698D01*
X62045Y200623D01*
X61337Y201330D01*
X60412Y201714D01*
D02*
G37*
G36*
X180034Y200317D02*
X179033D01*
X178108Y199934D01*
X177401Y199227D01*
X177018Y198302D01*
Y197301D01*
X177401Y196376D01*
X178108Y195669D01*
X179033Y195285D01*
X180034D01*
X180959Y195669D01*
X181667Y196376D01*
X182050Y197301D01*
Y198302D01*
X181667Y199227D01*
X180959Y199934D01*
X180034Y200317D01*
D02*
G37*
G36*
X105251Y200016D02*
X104250D01*
X103325Y199633D01*
X102617Y198925D01*
X102234Y198001D01*
Y197000D01*
X102617Y196075D01*
X103325Y195367D01*
X104250Y194984D01*
X105251D01*
X106175Y195367D01*
X106883Y196075D01*
X107266Y197000D01*
Y198001D01*
X106883Y198925D01*
X106175Y199633D01*
X105251Y200016D01*
D02*
G37*
G36*
X98750D02*
X97750D01*
X96825Y199633D01*
X96117Y198925D01*
X95734Y198001D01*
Y197000D01*
X96117Y196075D01*
X96825Y195367D01*
X97750Y194984D01*
X98750D01*
X99675Y195367D01*
X100383Y196075D01*
X100766Y197000D01*
Y198001D01*
X100383Y198925D01*
X99675Y199633D01*
X98750Y200016D01*
D02*
G37*
G36*
X149498Y194591D02*
X148497D01*
X147572Y194208D01*
X146865Y193500D01*
X146482Y192575D01*
Y191574D01*
X146865Y190650D01*
X147572Y189942D01*
X148497Y189559D01*
X149498D01*
X150423Y189942D01*
X151131Y190650D01*
X151514Y191574D01*
Y192575D01*
X151131Y193500D01*
X150423Y194208D01*
X149498Y194591D01*
D02*
G37*
G36*
X155987Y194518D02*
X154986D01*
X154061Y194135D01*
X153353Y193427D01*
X152970Y192502D01*
Y191501D01*
X153353Y190576D01*
X154061Y189869D01*
X154986Y189486D01*
X155987D01*
X156911Y189869D01*
X157619Y190576D01*
X158002Y191501D01*
Y192502D01*
X157619Y193427D01*
X156911Y194135D01*
X155987Y194518D01*
D02*
G37*
G36*
X175501Y194510D02*
X174499D01*
X173575Y194127D01*
X172867Y193419D01*
X172484Y192494D01*
Y191493D01*
X172867Y190569D01*
X173575Y189861D01*
X174499Y189478D01*
X175501D01*
X176425Y189861D01*
X177133Y190569D01*
X177516Y191493D01*
Y192494D01*
X177133Y193419D01*
X176425Y194127D01*
X175501Y194510D01*
D02*
G37*
G36*
X168998D02*
X167997D01*
X167072Y194127D01*
X166365Y193419D01*
X165982Y192494D01*
Y191493D01*
X166365Y190569D01*
X167072Y189861D01*
X167997Y189478D01*
X168998D01*
X169923Y189861D01*
X170631Y190569D01*
X171014Y191493D01*
Y192494D01*
X170631Y193419D01*
X169923Y194127D01*
X168998Y194510D01*
D02*
G37*
G36*
X188444Y194487D02*
X187444D01*
X186519Y194104D01*
X185811Y193396D01*
X185428Y192471D01*
Y191470D01*
X185811Y190546D01*
X186519Y189838D01*
X187444Y189455D01*
X188444D01*
X189369Y189838D01*
X190077Y190546D01*
X190460Y191470D01*
Y192471D01*
X190077Y193396D01*
X189369Y194104D01*
X188444Y194487D01*
D02*
G37*
G36*
X182057Y194470D02*
X181056D01*
X180131Y194087D01*
X179423Y193379D01*
X179040Y192454D01*
Y191453D01*
X179423Y190529D01*
X180131Y189821D01*
X181056Y189438D01*
X182057D01*
X182981Y189821D01*
X183689Y190529D01*
X184072Y191453D01*
Y192454D01*
X183689Y193379D01*
X182981Y194087D01*
X182057Y194470D01*
D02*
G37*
G36*
X65460Y192895D02*
X64459D01*
X63534Y192512D01*
X62826Y191804D01*
X62443Y190879D01*
Y189878D01*
X62826Y188953D01*
X63534Y188246D01*
X64459Y187863D01*
X65460D01*
X66385Y188246D01*
X67092Y188953D01*
X67475Y189878D01*
Y190879D01*
X67092Y191804D01*
X66385Y192512D01*
X65460Y192895D01*
D02*
G37*
G36*
X194911Y188147D02*
X193910D01*
X192985Y187764D01*
X192277Y187056D01*
X191894Y186131D01*
Y185130D01*
X192277Y184205D01*
X192985Y183498D01*
X193910Y183115D01*
X194911D01*
X195835Y183498D01*
X196543Y184205D01*
X196926Y185130D01*
Y186131D01*
X196543Y187056D01*
X195835Y187764D01*
X194911Y188147D01*
D02*
G37*
G36*
X162465Y188072D02*
X161465D01*
X160540Y187689D01*
X159832Y186982D01*
X159449Y186057D01*
Y185056D01*
X159832Y184131D01*
X160540Y183423D01*
X161465Y183040D01*
X162465D01*
X163390Y183423D01*
X164098Y184131D01*
X164481Y185056D01*
Y186057D01*
X164098Y186982D01*
X163390Y187689D01*
X162465Y188072D01*
D02*
G37*
G36*
X188480Y188007D02*
X187479D01*
X186554Y187624D01*
X185846Y186917D01*
X185463Y185992D01*
Y184991D01*
X185846Y184066D01*
X186554Y183358D01*
X187479Y182975D01*
X188480D01*
X189405Y183358D01*
X190112Y184066D01*
X190495Y184991D01*
Y185992D01*
X190112Y186917D01*
X189405Y187624D01*
X188480Y188007D01*
D02*
G37*
G36*
X175501D02*
X174499D01*
X173575Y187624D01*
X172867Y186917D01*
X172484Y185992D01*
Y184991D01*
X172867Y184066D01*
X173575Y183358D01*
X174499Y182975D01*
X175501D01*
X176425Y183358D01*
X177133Y184066D01*
X177516Y184991D01*
Y185992D01*
X177133Y186917D01*
X176425Y187624D01*
X175501Y188007D01*
D02*
G37*
G36*
X168990Y187967D02*
X167990D01*
X167065Y187584D01*
X166357Y186876D01*
X165974Y185951D01*
Y184951D01*
X166357Y184026D01*
X167065Y183318D01*
X167990Y182935D01*
X168990D01*
X169915Y183318D01*
X170623Y184026D01*
X171006Y184951D01*
Y185951D01*
X170623Y186876D01*
X169915Y187584D01*
X168990Y187967D01*
D02*
G37*
G36*
X182057Y187939D02*
X181056D01*
X180131Y187556D01*
X179423Y186849D01*
X179040Y185924D01*
Y184923D01*
X179423Y183998D01*
X180131Y183291D01*
X181056Y182908D01*
X182057D01*
X182981Y183291D01*
X183689Y183998D01*
X184072Y184923D01*
Y185924D01*
X183689Y186849D01*
X182981Y187556D01*
X182057Y187939D01*
D02*
G37*
G36*
X129276Y199357D02*
X127977D01*
X126776Y198860D01*
X125857Y197941D01*
X125360Y196740D01*
Y195441D01*
X125857Y194240D01*
X126776Y193321D01*
X126813Y193306D01*
Y183374D01*
X126952Y182680D01*
X127345Y182092D01*
X128398Y181039D01*
X128986Y180646D01*
X129679Y180508D01*
X146785D01*
X146745Y180468D01*
X146362Y179543D01*
Y178542D01*
X146745Y177617D01*
X146785Y177577D01*
X137174D01*
X136480Y177439D01*
X135892Y177047D01*
X130515Y171670D01*
X130598Y171870D01*
Y172870D01*
X130215Y173795D01*
X129507Y174503D01*
X128582Y174886D01*
X127582D01*
X126657Y174503D01*
X125949Y173795D01*
X125566Y172870D01*
Y171870D01*
X125949Y170945D01*
X126657Y170237D01*
X127582Y169854D01*
X128582D01*
X128790Y169940D01*
X128405Y169365D01*
X128267Y168671D01*
Y165543D01*
X128230Y165528D01*
X127311Y164609D01*
X126814Y163408D01*
Y162109D01*
X127311Y160908D01*
X128230Y159989D01*
X129430Y159492D01*
X130730D01*
X131930Y159989D01*
X132849Y160908D01*
X133347Y162109D01*
Y163408D01*
X132849Y164609D01*
X131930Y165528D01*
X131893Y165543D01*
Y167920D01*
X137925Y173952D01*
X153400D01*
X153360Y173912D01*
X152977Y172987D01*
Y171986D01*
X153360Y171061D01*
X154068Y170354D01*
X154992Y169971D01*
X155993D01*
X156918Y170354D01*
X157626Y171061D01*
X158009Y171986D01*
Y172987D01*
X157626Y173912D01*
X157586Y173952D01*
X158681D01*
X159375Y174090D01*
X159963Y174483D01*
X161272Y175792D01*
X161310Y175776D01*
X162609D01*
X163810Y176273D01*
X164729Y177192D01*
X165226Y178393D01*
Y179692D01*
X164729Y180893D01*
X163810Y181812D01*
X162609Y182309D01*
X161310D01*
X160109Y181812D01*
X159190Y180893D01*
X158693Y179692D01*
Y178393D01*
X158709Y178355D01*
X157931Y177577D01*
X157603D01*
X157643Y177617D01*
X158026Y178542D01*
Y179543D01*
X157643Y180468D01*
X156936Y181176D01*
X156011Y181559D01*
X155010D01*
X154085Y181176D01*
X153377Y180468D01*
X152994Y179543D01*
Y178542D01*
X153377Y177617D01*
X153417Y177577D01*
X150971D01*
X151011Y177617D01*
X151394Y178542D01*
Y179543D01*
X151011Y180468D01*
X150971Y180508D01*
X152208D01*
X152902Y180646D01*
X153490Y181039D01*
X154799Y182348D01*
X154836Y182332D01*
X156136D01*
X157336Y182829D01*
X158255Y183748D01*
X158752Y184949D01*
Y186248D01*
X158255Y187449D01*
X157336Y188368D01*
X156136Y188865D01*
X154836D01*
X153636Y188368D01*
X152717Y187449D01*
X152220Y186248D01*
Y184949D01*
X152235Y184911D01*
X151457Y184133D01*
X150986D01*
X151026Y184173D01*
X151409Y185098D01*
Y186099D01*
X151026Y187024D01*
X150318Y187732D01*
X149394Y188115D01*
X148393D01*
X147468Y187732D01*
X146760Y187024D01*
X146377Y186099D01*
Y185098D01*
X146760Y184173D01*
X146800Y184133D01*
X130439D01*
Y193306D01*
X130477Y193321D01*
X131396Y194240D01*
X131893Y195441D01*
Y196740D01*
X131396Y197941D01*
X130477Y198860D01*
X129276Y199357D01*
D02*
G37*
G36*
X65500Y186585D02*
X64500D01*
X63575Y186202D01*
X62867Y185494D01*
X62484Y184570D01*
Y183569D01*
X62867Y182644D01*
X63575Y181936D01*
X64500Y181553D01*
X65500D01*
X66425Y181936D01*
X67133Y182644D01*
X67516Y183569D01*
Y184570D01*
X67133Y185494D01*
X66425Y186202D01*
X65500Y186585D01*
D02*
G37*
G36*
X97591Y184919D02*
X96590D01*
X95665Y184536D01*
X94958Y183828D01*
X94575Y182903D01*
Y181903D01*
X94958Y180978D01*
X95665Y180270D01*
X96590Y179887D01*
X97591D01*
X98516Y180270D01*
X99223Y180978D01*
X99607Y181903D01*
Y182903D01*
X99223Y183828D01*
X98516Y184536D01*
X97591Y184919D01*
D02*
G37*
G36*
X108717Y184265D02*
X107716D01*
X106792Y183882D01*
X106084Y183175D01*
X105701Y182250D01*
Y181249D01*
X106084Y180324D01*
X106792Y179617D01*
X107716Y179233D01*
X108717D01*
X109642Y179617D01*
X110350Y180324D01*
X110733Y181249D01*
Y182250D01*
X110350Y183175D01*
X109642Y183882D01*
X108717Y184265D01*
D02*
G37*
G36*
X122945Y183010D02*
X121944D01*
X121020Y182627D01*
X120312Y181919D01*
X119929Y180994D01*
Y179993D01*
X120312Y179069D01*
X121020Y178361D01*
X121944Y177978D01*
X122945D01*
X123870Y178361D01*
X124578Y179069D01*
X124961Y179993D01*
Y180994D01*
X124578Y181919D01*
X123870Y182627D01*
X122945Y183010D01*
D02*
G37*
G36*
X70500Y182789D02*
X69500D01*
X68575Y182406D01*
X67867Y181698D01*
X67484Y180773D01*
Y179772D01*
X67867Y178848D01*
X68575Y178140D01*
X69500Y177757D01*
X70500D01*
X71425Y178140D01*
X72133Y178848D01*
X72516Y179772D01*
Y180773D01*
X72133Y181698D01*
X71425Y182406D01*
X70500Y182789D01*
D02*
G37*
G36*
X188480Y181505D02*
X187479D01*
X186554Y181122D01*
X185846Y180414D01*
X185463Y179489D01*
Y178489D01*
X185846Y177564D01*
X186554Y176856D01*
X187479Y176473D01*
X188480D01*
X189405Y176856D01*
X190112Y177564D01*
X190495Y178489D01*
Y179489D01*
X190112Y180414D01*
X189405Y181122D01*
X188480Y181505D01*
D02*
G37*
G36*
X181978D02*
X180977D01*
X180052Y181122D01*
X179344Y180414D01*
X178961Y179489D01*
Y178489D01*
X179344Y177564D01*
X180052Y176856D01*
X180977Y176473D01*
X181978D01*
X182902Y176856D01*
X183610Y177564D01*
X183993Y178489D01*
Y179489D01*
X183610Y180414D01*
X182902Y181122D01*
X181978Y181505D01*
D02*
G37*
G36*
X169057Y181486D02*
X168056D01*
X167131Y181103D01*
X166423Y180395D01*
X166040Y179471D01*
Y178470D01*
X166423Y177545D01*
X167131Y176837D01*
X168056Y176454D01*
X169057D01*
X169981Y176837D01*
X170689Y177545D01*
X171072Y178470D01*
Y179471D01*
X170689Y180395D01*
X169981Y181103D01*
X169057Y181486D01*
D02*
G37*
G36*
X175545Y181408D02*
X174544D01*
X173619Y181025D01*
X172911Y180317D01*
X172528Y179393D01*
Y178392D01*
X172911Y177467D01*
X173619Y176759D01*
X174544Y176376D01*
X175545D01*
X176469Y176759D01*
X177177Y177467D01*
X177560Y178392D01*
Y179393D01*
X177177Y180317D01*
X176469Y181025D01*
X175545Y181408D01*
D02*
G37*
G36*
X194911Y181392D02*
X193910D01*
X192985Y181009D01*
X192277Y180301D01*
X191894Y179377D01*
Y178376D01*
X192277Y177451D01*
X192985Y176743D01*
X193910Y176360D01*
X194911D01*
X195835Y176743D01*
X196543Y177451D01*
X196926Y178376D01*
Y179377D01*
X196543Y180301D01*
X195835Y181009D01*
X194911Y181392D01*
D02*
G37*
G36*
X114067Y178221D02*
X113066D01*
X112142Y177838D01*
X111434Y177131D01*
X111051Y176206D01*
Y175205D01*
X111434Y174280D01*
X112142Y173572D01*
X113066Y173189D01*
X114067D01*
X114992Y173572D01*
X115700Y174280D01*
X116083Y175205D01*
Y176206D01*
X115700Y177131D01*
X114992Y177838D01*
X114067Y178221D01*
D02*
G37*
G36*
X70722Y176895D02*
X69721D01*
X68796Y176512D01*
X68089Y175804D01*
X67706Y174879D01*
Y173878D01*
X68089Y172954D01*
X68796Y172246D01*
X69721Y171863D01*
X70722D01*
X71647Y172246D01*
X72355Y172954D01*
X72738Y173878D01*
Y174879D01*
X72355Y175804D01*
X71647Y176512D01*
X70722Y176895D01*
D02*
G37*
G36*
X181978Y175003D02*
X180977D01*
X180052Y174620D01*
X179344Y173912D01*
X178961Y172987D01*
Y171986D01*
X179344Y171061D01*
X180052Y170354D01*
X180977Y169971D01*
X181978D01*
X182902Y170354D01*
X183610Y171061D01*
X183993Y171986D01*
Y172987D01*
X183610Y173912D01*
X182902Y174620D01*
X181978Y175003D01*
D02*
G37*
G36*
X162496D02*
X161495D01*
X160570Y174620D01*
X159862Y173912D01*
X159479Y172987D01*
Y171986D01*
X159862Y171061D01*
X160570Y170354D01*
X161495Y169971D01*
X162496D01*
X163420Y170354D01*
X164128Y171061D01*
X164511Y171986D01*
Y172987D01*
X164128Y173912D01*
X163420Y174620D01*
X162496Y175003D01*
D02*
G37*
G36*
X102001Y174016D02*
X100999D01*
X100075Y173633D01*
X99367Y172925D01*
X98984Y172001D01*
Y171000D01*
X99367Y170075D01*
X100075Y169367D01*
X100999Y168984D01*
X102001D01*
X102925Y169367D01*
X103633Y170075D01*
X104016Y171000D01*
Y172001D01*
X103633Y172925D01*
X102925Y173633D01*
X102001Y174016D01*
D02*
G37*
G36*
X112939Y172485D02*
X111938D01*
X111014Y172102D01*
X110306Y171395D01*
X109923Y170470D01*
Y169469D01*
X110306Y168544D01*
X111014Y167836D01*
X111938Y167453D01*
X112939D01*
X113864Y167836D01*
X114572Y168544D01*
X114955Y169469D01*
Y170470D01*
X114572Y171395D01*
X113864Y172102D01*
X112939Y172485D01*
D02*
G37*
G36*
X156062Y168559D02*
X155062D01*
X154137Y168176D01*
X153429Y167468D01*
X153046Y166543D01*
Y165542D01*
X153429Y164618D01*
X154137Y163910D01*
X155062Y163527D01*
X156062D01*
X156987Y163910D01*
X157695Y164618D01*
X158078Y165542D01*
Y166543D01*
X157695Y167468D01*
X156987Y168176D01*
X156062Y168559D01*
D02*
G37*
G36*
X181978Y168526D02*
X180977D01*
X180052Y168143D01*
X179344Y167435D01*
X178961Y166510D01*
Y165509D01*
X179344Y164584D01*
X180052Y163877D01*
X180977Y163494D01*
X181978D01*
X182902Y163877D01*
X183610Y164584D01*
X183993Y165509D01*
Y166510D01*
X183610Y167435D01*
X182902Y168143D01*
X181978Y168526D01*
D02*
G37*
G36*
X175501D02*
X174499D01*
X173575Y168143D01*
X172867Y167435D01*
X172484Y166510D01*
Y165509D01*
X172867Y164584D01*
X173575Y163877D01*
X174499Y163494D01*
X175501D01*
X176425Y163877D01*
X177133Y164584D01*
X177516Y165509D01*
Y166510D01*
X177133Y167435D01*
X176425Y168143D01*
X175501Y168526D01*
D02*
G37*
G36*
X168998D02*
X167997D01*
X167072Y168143D01*
X166365Y167435D01*
X165982Y166510D01*
Y165509D01*
X166365Y164584D01*
X167072Y163877D01*
X167997Y163494D01*
X168998D01*
X169923Y163877D01*
X170631Y164584D01*
X171014Y165509D01*
Y166510D01*
X170631Y167435D01*
X169923Y168143D01*
X168998Y168526D01*
D02*
G37*
G36*
X162496D02*
X161495D01*
X160570Y168143D01*
X159862Y167435D01*
X159479Y166510D01*
Y165509D01*
X159862Y164584D01*
X160570Y163877D01*
X161495Y163494D01*
X162496D01*
X163420Y163877D01*
X164128Y164584D01*
X164511Y165509D01*
Y166510D01*
X164128Y167435D01*
X163420Y168143D01*
X162496Y168526D01*
D02*
G37*
G36*
X59523Y166731D02*
X58522D01*
X57597Y166348D01*
X56890Y165640D01*
X56507Y164715D01*
Y163715D01*
X56890Y162790D01*
X57597Y162082D01*
X58522Y161699D01*
X59523D01*
X60448Y162082D01*
X61156Y162790D01*
X61539Y163715D01*
Y164715D01*
X61156Y165640D01*
X60448Y166348D01*
X59523Y166731D01*
D02*
G37*
G36*
X66962Y165155D02*
X65961D01*
X65036Y164772D01*
X64328Y164064D01*
X63945Y163139D01*
Y162139D01*
X64328Y161214D01*
X65036Y160506D01*
X65961Y160123D01*
X66962D01*
X67886Y160506D01*
X68594Y161214D01*
X68977Y162139D01*
Y163139D01*
X68594Y164064D01*
X67886Y164772D01*
X66962Y165155D01*
D02*
G37*
G36*
X52116Y164229D02*
X51115D01*
X50190Y163846D01*
X49483Y163138D01*
X49099Y162213D01*
Y161213D01*
X49483Y160288D01*
X50190Y159580D01*
X51115Y159197D01*
X52116D01*
X53041Y159580D01*
X53748Y160288D01*
X54131Y161213D01*
Y162213D01*
X53748Y163138D01*
X53041Y163846D01*
X52116Y164229D01*
D02*
G37*
G36*
X19545Y164007D02*
X18544D01*
X17619Y163624D01*
X16911Y162916D01*
X16529Y161991D01*
Y160990D01*
X16911Y160065D01*
X17619Y159358D01*
X18544Y158975D01*
X19545D01*
X20470Y159358D01*
X21177Y160065D01*
X21560Y160990D01*
Y161991D01*
X21177Y162916D01*
X20470Y163624D01*
X19545Y164007D01*
D02*
G37*
G36*
X30501Y162516D02*
X29500D01*
X28575Y162133D01*
X27867Y161425D01*
X27484Y160501D01*
Y159500D01*
X27867Y158575D01*
X28575Y157867D01*
X29500Y157484D01*
X30501D01*
X31425Y157867D01*
X32133Y158575D01*
X32516Y159500D01*
Y160501D01*
X32133Y161425D01*
X31425Y162133D01*
X30501Y162516D01*
D02*
G37*
G36*
X67941Y157130D02*
X67179D01*
X67049Y157076D01*
X66909Y157097D01*
X66198Y156919D01*
X66083Y156833D01*
X65940Y156819D01*
X65280Y156463D01*
X65191Y156355D01*
X65058Y156307D01*
X64500Y155799D01*
X64435Y155662D01*
X64311Y155575D01*
X63905Y154940D01*
X63877Y154789D01*
X63779Y154670D01*
X63550Y153933D01*
X63563Y153800D01*
X63503Y153680D01*
X63452Y152943D01*
X63502Y152795D01*
X63473Y152641D01*
X63625Y151905D01*
X63695Y151802D01*
X63698Y151678D01*
X64003Y150992D01*
X64116Y150885D01*
X64162Y150735D01*
X64644Y150151D01*
X64778Y150080D01*
X64859Y149952D01*
X65469Y149520D01*
X65605Y149489D01*
X65705Y149392D01*
X66416Y149113D01*
X66553Y149115D01*
X66671Y149046D01*
X67408Y148945D01*
X67558Y148984D01*
X67707Y148944D01*
X68469Y149045D01*
X68596Y149119D01*
X68742Y149118D01*
X69428Y149397D01*
X69522Y149490D01*
X69651Y149520D01*
X70261Y149952D01*
X70342Y150080D01*
X70476Y150151D01*
X70959Y150735D01*
X70999Y150869D01*
X71103Y150962D01*
X71434Y151647D01*
X71442Y151806D01*
X71528Y151941D01*
X71655Y152678D01*
X71624Y152812D01*
X71668Y152943D01*
X71617Y153680D01*
X71558Y153800D01*
X71570Y153934D01*
X71341Y154670D01*
X71243Y154789D01*
X71216Y154940D01*
X70809Y155575D01*
X70696Y155655D01*
X70639Y155781D01*
X70106Y156289D01*
X69963Y156345D01*
X69866Y156463D01*
X69206Y156819D01*
X69058Y156834D01*
X68939Y156921D01*
X68202Y157099D01*
X68067Y157078D01*
X67941Y157130D01*
D02*
G37*
G36*
X168998Y162023D02*
X167997D01*
X167072Y161640D01*
X166365Y160932D01*
X165982Y160008D01*
Y159007D01*
X166365Y158082D01*
X167072Y157374D01*
X167997Y156991D01*
X168998D01*
X169923Y157374D01*
X170631Y158082D01*
X171014Y159007D01*
Y160008D01*
X170631Y160932D01*
X169923Y161640D01*
X168998Y162023D01*
D02*
G37*
G36*
X162496D02*
X161495D01*
X160570Y161640D01*
X159862Y160932D01*
X159479Y160008D01*
Y159007D01*
X159862Y158082D01*
X160570Y157374D01*
X161495Y156991D01*
X162496D01*
X163420Y157374D01*
X164128Y158082D01*
X164511Y159007D01*
Y160008D01*
X164128Y160932D01*
X163420Y161640D01*
X162496Y162023D01*
D02*
G37*
G36*
X49427Y158902D02*
X48426D01*
X47502Y158519D01*
X46794Y157811D01*
X46411Y156886D01*
Y155885D01*
X46794Y154961D01*
X47502Y154253D01*
X48426Y153870D01*
X49427D01*
X50352Y154253D01*
X51060Y154961D01*
X51443Y155885D01*
Y156886D01*
X51060Y157811D01*
X50352Y158519D01*
X49427Y158902D01*
D02*
G37*
G36*
X15998Y158811D02*
X14997D01*
X14072Y158428D01*
X13364Y157720D01*
X12981Y156796D01*
Y155795D01*
X13364Y154870D01*
X14072Y154162D01*
X14997Y153779D01*
X15998D01*
X16923Y154162D01*
X17630Y154870D01*
X18013Y155795D01*
Y156796D01*
X17630Y157720D01*
X16923Y158428D01*
X15998Y158811D01*
D02*
G37*
G36*
X131048Y155856D02*
X130047D01*
X129123Y155473D01*
X128415Y154765D01*
X128032Y153840D01*
Y152839D01*
X128415Y151915D01*
X129123Y151207D01*
X130047Y150824D01*
X131048D01*
X131973Y151207D01*
X132681Y151915D01*
X133064Y152839D01*
Y153840D01*
X132681Y154765D01*
X131973Y155473D01*
X131048Y155856D01*
D02*
G37*
G36*
X162496Y155521D02*
X161495D01*
X160570Y155138D01*
X159862Y154430D01*
X159479Y153505D01*
Y152504D01*
X159862Y151580D01*
X160570Y150872D01*
X161495Y150489D01*
X162496D01*
X163420Y150872D01*
X164128Y151580D01*
X164511Y152504D01*
Y153505D01*
X164128Y154430D01*
X163420Y155138D01*
X162496Y155521D01*
D02*
G37*
G36*
X45646Y154544D02*
X44645D01*
X43721Y154161D01*
X43013Y153453D01*
X42630Y152528D01*
Y151527D01*
X43013Y150603D01*
X43721Y149895D01*
X44645Y149512D01*
X45646D01*
X46571Y149895D01*
X47279Y150603D01*
X47662Y151527D01*
Y152528D01*
X47279Y153453D01*
X46571Y154161D01*
X45646Y154544D01*
D02*
G37*
G36*
X11871Y154394D02*
X10870D01*
X9945Y154011D01*
X9238Y153303D01*
X8855Y152379D01*
Y151378D01*
X9238Y150453D01*
X9945Y149745D01*
X10870Y149362D01*
X11871D01*
X12796Y149745D01*
X13504Y150453D01*
X13887Y151378D01*
Y152379D01*
X13504Y153303D01*
X12796Y154011D01*
X11871Y154394D01*
D02*
G37*
G36*
X81705Y152070D02*
X80704D01*
X79779Y151687D01*
X79072Y150979D01*
X78689Y150054D01*
Y149053D01*
X79072Y148128D01*
X79779Y147421D01*
X80704Y147038D01*
X81705D01*
X82630Y147421D01*
X83338Y148128D01*
X83721Y149053D01*
Y150054D01*
X83338Y150979D01*
X82630Y151687D01*
X81705Y152070D01*
D02*
G37*
G36*
X136558Y149432D02*
X135557D01*
X134632Y149049D01*
X133924Y148341D01*
X133541Y147416D01*
Y146416D01*
X133924Y145491D01*
X134632Y144783D01*
X135557Y144400D01*
X136558D01*
X137482Y144783D01*
X138190Y145491D01*
X138573Y146416D01*
Y147416D01*
X138190Y148341D01*
X137482Y149049D01*
X136558Y149432D01*
D02*
G37*
G36*
X110726Y146071D02*
X109725D01*
X108801Y145688D01*
X108093Y144980D01*
X107710Y144056D01*
Y143999D01*
X106769Y144940D01*
X106181Y145333D01*
X105487Y145471D01*
X97893D01*
X97200Y145333D01*
X96612Y144940D01*
X95212Y143541D01*
X95031Y143616D01*
X93732D01*
X92531Y143118D01*
X91613Y142199D01*
X91115Y140999D01*
Y139699D01*
X91613Y138499D01*
X92531Y137580D01*
X93732Y137083D01*
X94326D01*
X94001Y136297D01*
Y134997D01*
X94498Y133797D01*
X95417Y132878D01*
X96617Y132381D01*
X97917D01*
X99118Y132878D01*
X100036Y133797D01*
X100534Y134997D01*
Y136297D01*
X100434Y136537D01*
X100723Y136826D01*
X102657D01*
X105468Y134016D01*
X106056Y133623D01*
X106749Y133485D01*
X109885D01*
X109845Y133445D01*
X109462Y132520D01*
Y131519D01*
X109845Y130595D01*
X110553Y129887D01*
X111477Y129504D01*
X112478D01*
X113403Y129887D01*
X114111Y130595D01*
X114494Y131519D01*
Y132520D01*
X114111Y133445D01*
X114071Y133485D01*
X127890D01*
X127552Y133147D01*
X127169Y132222D01*
Y131222D01*
X127552Y130297D01*
X128259Y129589D01*
X129184Y129206D01*
X130185D01*
X131110Y129589D01*
X131818Y130297D01*
X132201Y131222D01*
Y132222D01*
X131818Y133147D01*
X131480Y133485D01*
X135369D01*
X135031Y133147D01*
X134648Y132222D01*
Y131222D01*
X135031Y130297D01*
X135739Y129589D01*
X136664Y129206D01*
X137665D01*
X138589Y129589D01*
X139297Y130297D01*
X139680Y131222D01*
Y132222D01*
X139297Y133147D01*
X139238Y133206D01*
X144497D01*
X145190Y133344D01*
X145779Y133737D01*
X146834Y134792D01*
X146475Y133926D01*
Y132926D01*
X146858Y132001D01*
X147566Y131293D01*
X148491Y130910D01*
X149492D01*
X150416Y131293D01*
X151124Y132001D01*
X151507Y132926D01*
Y133926D01*
X151124Y134851D01*
X150416Y135559D01*
X149492Y135942D01*
X148491D01*
X147625Y135583D01*
X148753Y136712D01*
X149647D01*
X150848Y137209D01*
X151767Y138128D01*
X152264Y139328D01*
Y140628D01*
X151767Y141828D01*
X150848Y142747D01*
X149647Y143245D01*
X148348D01*
X147147Y142747D01*
X146228Y141828D01*
X145731Y140628D01*
Y139328D01*
X145881Y138967D01*
X145247Y138333D01*
X145684Y139389D01*
Y140688D01*
X145187Y141889D01*
X144268Y142808D01*
X143068Y143305D01*
X141768D01*
X140568Y142808D01*
X139890Y142130D01*
X112359D01*
X112359Y142130D01*
X112742Y143055D01*
Y144056D01*
X112359Y144980D01*
X111651Y145688D01*
X110726Y146071D01*
D02*
G37*
G36*
X149498Y149020D02*
X148497D01*
X147572Y148637D01*
X146865Y147929D01*
X146482Y147004D01*
Y146003D01*
X146865Y145078D01*
X147572Y144371D01*
X148497Y143988D01*
X149498D01*
X150423Y144371D01*
X151131Y145078D01*
X151514Y146003D01*
Y147004D01*
X151131Y147929D01*
X150423Y148637D01*
X149498Y149020D01*
D02*
G37*
G36*
X162496Y149018D02*
X161495D01*
X160570Y148635D01*
X159862Y147928D01*
X159479Y147003D01*
Y146002D01*
X159862Y145077D01*
X160570Y144369D01*
X161495Y143986D01*
X162496D01*
X163420Y144369D01*
X164128Y145077D01*
X164511Y146002D01*
Y147003D01*
X164128Y147928D01*
X163420Y148635D01*
X162496Y149018D01*
D02*
G37*
G36*
Y142516D02*
X161495D01*
X160570Y142133D01*
X159862Y141425D01*
X159479Y140500D01*
Y139500D01*
X159862Y138575D01*
X160570Y137867D01*
X161495Y137484D01*
X162496D01*
X163420Y137867D01*
X164128Y138575D01*
X164511Y139500D01*
Y140500D01*
X164128Y141425D01*
X163420Y142133D01*
X162496Y142516D01*
D02*
G37*
G36*
X155993D02*
X154992D01*
X154068Y142133D01*
X153360Y141425D01*
X152977Y140500D01*
Y139500D01*
X153360Y138575D01*
X154068Y137867D01*
X154992Y137484D01*
X155993D01*
X156918Y137867D01*
X157626Y138575D01*
X158009Y139500D01*
Y140500D01*
X157626Y141425D01*
X156918Y142133D01*
X155993Y142516D01*
D02*
G37*
G36*
X76069Y143910D02*
X69059D01*
X67101Y143521D01*
X65442Y142412D01*
X64333Y140753D01*
X63944Y138795D01*
X64333Y136838D01*
X65442Y135179D01*
X67101Y134070D01*
X69059Y133680D01*
X76069D01*
X78026Y134070D01*
X79686Y135179D01*
X80795Y136838D01*
X81184Y138795D01*
X80795Y140753D01*
X79686Y142412D01*
X78026Y143521D01*
X76069Y143910D01*
D02*
G37*
G36*
X32749D02*
X28762D01*
X26804Y143521D01*
X25145Y142412D01*
X24036Y140753D01*
X23647Y138795D01*
X24036Y136838D01*
X25145Y135179D01*
X26804Y134070D01*
X28762Y133680D01*
X32749D01*
X34707Y134070D01*
X36366Y135179D01*
X37475Y136838D01*
X37864Y138795D01*
X37475Y140753D01*
X36366Y142412D01*
X34707Y143521D01*
X32749Y143910D01*
D02*
G37*
G36*
X162496Y136014D02*
X161495D01*
X160570Y135631D01*
X159862Y134923D01*
X159479Y133998D01*
Y132997D01*
X159862Y132072D01*
X160570Y131365D01*
X161495Y130982D01*
X162496D01*
X163420Y131365D01*
X164128Y132072D01*
X164511Y132997D01*
Y133998D01*
X164128Y134923D01*
X163420Y135631D01*
X162496Y136014D01*
D02*
G37*
G36*
Y129511D02*
X161495D01*
X160570Y129128D01*
X159862Y128420D01*
X159479Y127496D01*
Y126495D01*
X159862Y125570D01*
X160570Y124862D01*
X161495Y124479D01*
X162496D01*
X163420Y124862D01*
X164128Y125570D01*
X164511Y126495D01*
Y127496D01*
X164128Y128420D01*
X163420Y129128D01*
X162496Y129511D01*
D02*
G37*
G36*
X155993D02*
X154992D01*
X154068Y129128D01*
X153360Y128420D01*
X152977Y127496D01*
Y126495D01*
X153360Y125570D01*
X154068Y124862D01*
X154992Y124479D01*
X155993D01*
X156918Y124862D01*
X157626Y125570D01*
X158009Y126495D01*
Y127496D01*
X157626Y128420D01*
X156918Y129128D01*
X155993Y129511D01*
D02*
G37*
G36*
X122415Y126930D02*
X121414D01*
X120489Y126547D01*
X119781Y125839D01*
X119398Y124915D01*
Y123914D01*
X119781Y122989D01*
X120489Y122281D01*
X121414Y121898D01*
X122415D01*
X123340Y122281D01*
X124047Y122989D01*
X124430Y123914D01*
Y124915D01*
X124047Y125839D01*
X123340Y126547D01*
X122415Y126930D01*
D02*
G37*
G36*
X162496Y123009D02*
X161495D01*
X160570Y122626D01*
X159862Y121918D01*
X159479Y120993D01*
Y119992D01*
X159862Y119068D01*
X160570Y118360D01*
X161495Y117977D01*
X162496D01*
X163420Y118360D01*
X164128Y119068D01*
X164511Y119992D01*
Y120993D01*
X164128Y121918D01*
X163420Y122626D01*
X162496Y123009D01*
D02*
G37*
G36*
X155993D02*
X154992D01*
X154068Y122626D01*
X153360Y121918D01*
X152977Y120993D01*
Y119992D01*
X153360Y119068D01*
X154068Y118360D01*
X154992Y117977D01*
X155993D01*
X156918Y118360D01*
X157626Y119068D01*
X158009Y119992D01*
Y120993D01*
X157626Y121918D01*
X156918Y122626D01*
X155993Y123009D01*
D02*
G37*
G36*
X96094Y122451D02*
X95093D01*
X94168Y122068D01*
X93460Y121360D01*
X93077Y120435D01*
Y119435D01*
X93460Y118510D01*
X94168Y117802D01*
X95093Y117419D01*
X96094D01*
X97018Y117802D01*
X97726Y118510D01*
X98109Y119435D01*
Y120435D01*
X97726Y121360D01*
X97018Y122068D01*
X96094Y122451D01*
D02*
G37*
G36*
X149609Y123802D02*
X148310D01*
X147109Y123305D01*
X146190Y122386D01*
X145693Y121186D01*
Y119886D01*
X145708Y119849D01*
X123449Y97590D01*
X123056Y97001D01*
X122918Y96308D01*
Y91696D01*
X123056Y91002D01*
X123449Y90414D01*
X123922Y89941D01*
Y81750D01*
X123347Y81175D01*
X122849Y79974D01*
Y78675D01*
X123347Y77474D01*
X124265Y76556D01*
X125466Y76058D01*
X126765D01*
X127966Y76556D01*
X128885Y77474D01*
X129382Y78675D01*
Y79974D01*
X128885Y81175D01*
X127966Y82094D01*
X127548Y82267D01*
Y90692D01*
X127410Y91386D01*
X127017Y91974D01*
X126544Y92447D01*
Y95557D01*
X148272Y117285D01*
X148310Y117269D01*
X149609D01*
X150810Y117767D01*
X151728Y118686D01*
X152226Y119886D01*
Y121186D01*
X151728Y122386D01*
X150810Y123305D01*
X149609Y123802D01*
D02*
G37*
G36*
X194982Y116506D02*
X193981D01*
X193057Y116123D01*
X192349Y115416D01*
X191966Y114491D01*
Y113490D01*
X192349Y112565D01*
X193057Y111857D01*
X193981Y111474D01*
X194982D01*
X195907Y111857D01*
X196615Y112565D01*
X196998Y113490D01*
Y114491D01*
X196615Y115416D01*
X195907Y116123D01*
X194982Y116506D01*
D02*
G37*
G36*
X168998D02*
X167997D01*
X167072Y116123D01*
X166365Y115416D01*
X165982Y114491D01*
Y113490D01*
X166365Y112565D01*
X167072Y111857D01*
X167997Y111474D01*
X168998D01*
X169923Y111857D01*
X170631Y112565D01*
X171014Y113490D01*
Y114491D01*
X170631Y115416D01*
X169923Y116123D01*
X168998Y116506D01*
D02*
G37*
G36*
X162496D02*
X161495D01*
X160570Y116123D01*
X159862Y115416D01*
X159479Y114491D01*
Y113490D01*
X159862Y112565D01*
X160570Y111857D01*
X161495Y111474D01*
X162496D01*
X163420Y111857D01*
X164128Y112565D01*
X164511Y113490D01*
Y114491D01*
X164128Y115416D01*
X163420Y116123D01*
X162496Y116506D01*
D02*
G37*
G36*
X155993D02*
X154992D01*
X154068Y116123D01*
X153360Y115416D01*
X152977Y114491D01*
Y113490D01*
X153360Y112565D01*
X154068Y111857D01*
X154992Y111474D01*
X155993D01*
X156918Y111857D01*
X157626Y112565D01*
X158009Y113490D01*
Y114491D01*
X157626Y115416D01*
X156918Y116123D01*
X155993Y116506D01*
D02*
G37*
G36*
X149437Y116493D02*
X148436D01*
X147512Y116110D01*
X146804Y115402D01*
X146421Y114477D01*
Y113476D01*
X146804Y112552D01*
X147512Y111844D01*
X148436Y111461D01*
X149437D01*
X150362Y111844D01*
X151070Y112552D01*
X151453Y113476D01*
Y114477D01*
X151070Y115402D01*
X150362Y116110D01*
X149437Y116493D01*
D02*
G37*
G36*
X27710Y115624D02*
X26709D01*
X25785Y115241D01*
X25077Y114533D01*
X24694Y113608D01*
Y112607D01*
X25077Y111683D01*
X25785Y110975D01*
X26709Y110592D01*
X27710D01*
X28635Y110975D01*
X29343Y111683D01*
X29726Y112607D01*
Y113608D01*
X29343Y114533D01*
X28635Y115241D01*
X27710Y115624D01*
D02*
G37*
G36*
X65950Y112353D02*
X64949D01*
X64024Y111970D01*
X63316Y111262D01*
X62933Y110337D01*
Y109336D01*
X63316Y108412D01*
X64024Y107704D01*
X64949Y107321D01*
X65950D01*
X66875Y107704D01*
X67582Y108412D01*
X67965Y109336D01*
Y110337D01*
X67582Y111262D01*
X66875Y111970D01*
X65950Y112353D01*
D02*
G37*
G36*
X188480Y110004D02*
X187479D01*
X186554Y109621D01*
X185846Y108913D01*
X185463Y107989D01*
Y106987D01*
X185846Y106063D01*
X186554Y105355D01*
X187479Y104972D01*
X188480D01*
X189405Y105355D01*
X190112Y106063D01*
X190495Y106987D01*
Y107989D01*
X190112Y108913D01*
X189405Y109621D01*
X188480Y110004D01*
D02*
G37*
G36*
X181978D02*
X180977D01*
X180052Y109621D01*
X179344Y108913D01*
X178961Y107989D01*
Y106987D01*
X179344Y106063D01*
X180052Y105355D01*
X180977Y104972D01*
X181978D01*
X182902Y105355D01*
X183610Y106063D01*
X183993Y106987D01*
Y107989D01*
X183610Y108913D01*
X182902Y109621D01*
X181978Y110004D01*
D02*
G37*
G36*
X175501D02*
X174499D01*
X173575Y109621D01*
X172867Y108913D01*
X172484Y107989D01*
Y106987D01*
X172867Y106063D01*
X173575Y105355D01*
X174499Y104972D01*
X175501D01*
X176425Y105355D01*
X177133Y106063D01*
X177516Y106987D01*
Y107989D01*
X177133Y108913D01*
X176425Y109621D01*
X175501Y110004D01*
D02*
G37*
G36*
X149491D02*
X148490D01*
X147565Y109621D01*
X146857Y108913D01*
X146474Y107989D01*
Y106987D01*
X146857Y106063D01*
X147565Y105355D01*
X148490Y104972D01*
X149491D01*
X150416Y105355D01*
X151123Y106063D01*
X151506Y106987D01*
Y107989D01*
X151123Y108913D01*
X150416Y109621D01*
X149491Y110004D01*
D02*
G37*
G36*
X142989D02*
X141987D01*
X141063Y109621D01*
X140355Y108913D01*
X139972Y107989D01*
Y106987D01*
X140355Y106063D01*
X141063Y105355D01*
X141987Y104972D01*
X142989D01*
X143913Y105355D01*
X144621Y106063D01*
X145004Y106987D01*
Y107989D01*
X144621Y108913D01*
X143913Y109621D01*
X142989Y110004D01*
D02*
G37*
G36*
X168922Y109981D02*
X167921D01*
X166996Y109598D01*
X166289Y108890D01*
X165906Y107965D01*
Y106965D01*
X166289Y106040D01*
X166996Y105332D01*
X167921Y104949D01*
X168922D01*
X169847Y105332D01*
X170555Y106040D01*
X170938Y106965D01*
Y107965D01*
X170555Y108890D01*
X169847Y109598D01*
X168922Y109981D01*
D02*
G37*
G36*
X130083Y109963D02*
X129082D01*
X128158Y109580D01*
X127450Y108872D01*
X127067Y107947D01*
Y106946D01*
X127450Y106022D01*
X128158Y105314D01*
X129082Y104931D01*
X130083D01*
X131008Y105314D01*
X131716Y106022D01*
X132099Y106946D01*
Y107947D01*
X131716Y108872D01*
X131008Y109580D01*
X130083Y109963D01*
D02*
G37*
G36*
X162473Y109950D02*
X161472D01*
X160547Y109567D01*
X159839Y108860D01*
X159456Y107935D01*
Y106934D01*
X159839Y106009D01*
X160547Y105301D01*
X161472Y104918D01*
X162473D01*
X163398Y105301D01*
X164105Y106009D01*
X164488Y106934D01*
Y107935D01*
X164105Y108860D01*
X163398Y109567D01*
X162473Y109950D01*
D02*
G37*
G36*
X155985D02*
X154985D01*
X154060Y109567D01*
X153352Y108860D01*
X152969Y107935D01*
Y106934D01*
X153352Y106009D01*
X154060Y105301D01*
X154985Y104918D01*
X155985D01*
X156910Y105301D01*
X157618Y106009D01*
X158001Y106934D01*
Y107935D01*
X157618Y108860D01*
X156910Y109567D01*
X155985Y109950D01*
D02*
G37*
G36*
X53400Y116266D02*
X52100D01*
X50900Y115769D01*
X49981Y114850D01*
X49484Y113650D01*
Y112350D01*
X49981Y111150D01*
X50900Y110231D01*
X50937Y110215D01*
Y104377D01*
X43001Y112313D01*
X43016Y112350D01*
Y113650D01*
X42519Y114850D01*
X41600Y115769D01*
X40400Y116266D01*
X39100D01*
X37900Y115769D01*
X36981Y114850D01*
X36484Y113650D01*
Y112350D01*
X36981Y111150D01*
X37900Y110231D01*
X39100Y109734D01*
X40400D01*
X40437Y109749D01*
X83968Y66218D01*
X84556Y65825D01*
X85250Y65687D01*
X155165D01*
X155858Y65825D01*
X156447Y66218D01*
X181471Y91242D01*
X182263D01*
X183463Y91740D01*
X184382Y92658D01*
X184879Y93859D01*
Y95158D01*
X184382Y96359D01*
X183463Y97278D01*
X182263Y97775D01*
X180963D01*
X179763Y97278D01*
X178844Y96359D01*
X178347Y95158D01*
Y93859D01*
X178526Y93425D01*
X177836Y92735D01*
X178323Y93912D01*
Y95211D01*
X177826Y96412D01*
X176907Y97330D01*
X175707Y97828D01*
X174407D01*
X173207Y97330D01*
X172288Y96412D01*
X171791Y95211D01*
Y93912D01*
X171806Y93874D01*
X170537Y92605D01*
X170144Y92016D01*
X170006Y91323D01*
Y90990D01*
X151173Y72156D01*
X87288D01*
X54563Y104882D01*
Y110215D01*
X54600Y110231D01*
X55519Y111150D01*
X56016Y112350D01*
Y113650D01*
X55519Y114850D01*
X54600Y115769D01*
X53400Y116266D01*
D02*
G37*
G36*
X162473Y103570D02*
X161472D01*
X160547Y103187D01*
X159839Y102479D01*
X159456Y101554D01*
Y100553D01*
X159839Y99629D01*
X160547Y98921D01*
X161472Y98538D01*
X162473D01*
X163398Y98921D01*
X164105Y99629D01*
X164488Y100553D01*
Y101554D01*
X164105Y102479D01*
X163398Y103187D01*
X162473Y103570D01*
D02*
G37*
G36*
X201474Y103532D02*
X200473D01*
X199548Y103149D01*
X198840Y102441D01*
X198457Y101516D01*
Y100515D01*
X198840Y99591D01*
X199548Y98883D01*
X200473Y98500D01*
X201474D01*
X202398Y98883D01*
X203106Y99591D01*
X203489Y100515D01*
Y101516D01*
X203106Y102441D01*
X202398Y103149D01*
X201474Y103532D01*
D02*
G37*
G36*
X181973D02*
X180972D01*
X180048Y103149D01*
X179340Y102441D01*
X178957Y101516D01*
Y100515D01*
X179340Y99591D01*
X180048Y98883D01*
X180972Y98500D01*
X181973D01*
X182898Y98883D01*
X183606Y99591D01*
X183989Y100515D01*
Y101516D01*
X183606Y102441D01*
X182898Y103149D01*
X181973Y103532D01*
D02*
G37*
G36*
X207961Y103494D02*
X206960D01*
X206035Y103111D01*
X205328Y102403D01*
X204945Y101478D01*
Y100477D01*
X205328Y99552D01*
X206035Y98845D01*
X206960Y98462D01*
X207961D01*
X208886Y98845D01*
X209594Y99552D01*
X209977Y100477D01*
Y101478D01*
X209594Y102403D01*
X208886Y103111D01*
X207961Y103494D01*
D02*
G37*
G36*
X214487Y103455D02*
X213486D01*
X212561Y103072D01*
X211853Y102365D01*
X211470Y101440D01*
Y100439D01*
X211853Y99514D01*
X212561Y98806D01*
X213486Y98423D01*
X214487D01*
X215412Y98806D01*
X216119Y99514D01*
X216502Y100439D01*
Y101440D01*
X216119Y102365D01*
X215412Y103072D01*
X214487Y103455D01*
D02*
G37*
G36*
X175486D02*
X174485D01*
X173560Y103072D01*
X172852Y102365D01*
X172469Y101440D01*
Y100439D01*
X172852Y99514D01*
X173560Y98806D01*
X174485Y98423D01*
X175486D01*
X176411Y98806D01*
X177118Y99514D01*
X177501Y100439D01*
Y101440D01*
X177118Y102365D01*
X176411Y103072D01*
X175486Y103455D01*
D02*
G37*
G36*
X168999D02*
X167998D01*
X167073Y103072D01*
X166365Y102365D01*
X165982Y101440D01*
Y100439D01*
X166365Y99514D01*
X167073Y98806D01*
X167998Y98423D01*
X168999D01*
X169923Y98806D01*
X170631Y99514D01*
X171014Y100439D01*
Y101440D01*
X170631Y102365D01*
X169923Y103072D01*
X168999Y103455D01*
D02*
G37*
G36*
X201448Y97092D02*
X200447D01*
X199522Y96709D01*
X198815Y96001D01*
X198431Y95076D01*
Y94075D01*
X198815Y93150D01*
X199522Y92443D01*
X200447Y92060D01*
X201448D01*
X202373Y92443D01*
X203081Y93150D01*
X203463Y94075D01*
Y95076D01*
X203081Y96001D01*
X202373Y96709D01*
X201448Y97092D01*
D02*
G37*
G36*
X156010Y97073D02*
X155009D01*
X154084Y96690D01*
X153376Y95982D01*
X152993Y95057D01*
Y94056D01*
X153376Y93132D01*
X154084Y92424D01*
X155009Y92041D01*
X156010D01*
X156934Y92424D01*
X157642Y93132D01*
X158025Y94056D01*
Y95057D01*
X157642Y95982D01*
X156934Y96690D01*
X156010Y97073D01*
D02*
G37*
G36*
X135538Y96121D02*
X134537D01*
X133613Y95738D01*
X132905Y95030D01*
X132522Y94106D01*
Y93105D01*
X132905Y92180D01*
X133613Y91472D01*
X134537Y91089D01*
X135538D01*
X136463Y91472D01*
X137171Y92180D01*
X137554Y93105D01*
Y94106D01*
X137171Y95030D01*
X136463Y95738D01*
X135538Y96121D01*
D02*
G37*
G36*
X129641Y96038D02*
X128640D01*
X127715Y95655D01*
X127008Y94947D01*
X126625Y94023D01*
Y93022D01*
X127008Y92097D01*
X127715Y91389D01*
X128640Y91006D01*
X129641D01*
X130566Y91389D01*
X131274Y92097D01*
X131657Y93022D01*
Y94023D01*
X131274Y94947D01*
X130566Y95655D01*
X129641Y96038D01*
D02*
G37*
G36*
X167824Y94495D02*
X166823D01*
X165898Y94112D01*
X165190Y93404D01*
X164807Y92480D01*
Y91479D01*
X165190Y90554D01*
X165898Y89846D01*
X166823Y89463D01*
X167824D01*
X168748Y89846D01*
X169456Y90554D01*
X169839Y91479D01*
Y92480D01*
X169456Y93404D01*
X168748Y94112D01*
X167824Y94495D01*
D02*
G37*
G36*
X106633Y93386D02*
X105632D01*
X104707Y93003D01*
X104000Y92296D01*
X103616Y91371D01*
Y90370D01*
X104000Y89445D01*
X104707Y88737D01*
X105632Y88354D01*
X106633D01*
X107558Y88737D01*
X108265Y89445D01*
X108648Y90370D01*
Y91371D01*
X108265Y92296D01*
X107558Y93003D01*
X106633Y93386D01*
D02*
G37*
G36*
X92480Y91429D02*
X91479D01*
X90555Y91046D01*
X89847Y90338D01*
X89464Y89413D01*
Y88412D01*
X89847Y87488D01*
X90555Y86780D01*
X91479Y86397D01*
X92480D01*
X93405Y86780D01*
X94113Y87488D01*
X94496Y88412D01*
Y89413D01*
X94113Y90338D01*
X93405Y91046D01*
X92480Y91429D01*
D02*
G37*
G36*
X199804Y91371D02*
X198803D01*
X197879Y90988D01*
X197171Y90280D01*
X196788Y89356D01*
Y88355D01*
X197171Y87430D01*
X197879Y86722D01*
X198803Y86339D01*
X199804D01*
X200729Y86722D01*
X201437Y87430D01*
X201820Y88355D01*
Y89356D01*
X201437Y90280D01*
X200729Y90988D01*
X199804Y91371D01*
D02*
G37*
G36*
X212155Y90186D02*
X211154D01*
X210230Y89803D01*
X209522Y89095D01*
X209139Y88171D01*
Y87170D01*
X209522Y86245D01*
X210230Y85537D01*
X211154Y85154D01*
X212155D01*
X213080Y85537D01*
X213788Y86245D01*
X214171Y87170D01*
Y88171D01*
X213788Y89095D01*
X213080Y89803D01*
X212155Y90186D01*
D02*
G37*
G36*
X144250Y88206D02*
X143250D01*
X142325Y87823D01*
X141617Y87115D01*
X141234Y86190D01*
Y85189D01*
X141617Y84264D01*
X142325Y83557D01*
X143250Y83174D01*
X144250D01*
X145175Y83557D01*
X145883Y84264D01*
X146266Y85189D01*
Y86190D01*
X145883Y87115D01*
X145175Y87823D01*
X144250Y88206D01*
D02*
G37*
G36*
X61179Y87374D02*
X60179D01*
X59254Y86992D01*
X58546Y86284D01*
X58163Y85359D01*
Y84358D01*
X58546Y83433D01*
X59254Y82726D01*
X60179Y82343D01*
X61179D01*
X62104Y82726D01*
X62812Y83433D01*
X63195Y84358D01*
Y85359D01*
X62812Y86284D01*
X62104Y86992D01*
X61179Y87374D01*
D02*
G37*
G36*
X46179D02*
X45179D01*
X44254Y86992D01*
X43546Y86284D01*
X43163Y85359D01*
Y84358D01*
X43546Y83433D01*
X44254Y82726D01*
X45179Y82343D01*
X46179D01*
X47104Y82726D01*
X47812Y83433D01*
X48195Y84358D01*
Y85359D01*
X47812Y86284D01*
X47104Y86992D01*
X46179Y87374D01*
D02*
G37*
G36*
X31179D02*
X30179D01*
X29254Y86992D01*
X28546Y86284D01*
X28163Y85359D01*
Y84358D01*
X28546Y83433D01*
X29254Y82726D01*
X30179Y82343D01*
X31179D01*
X32104Y82726D01*
X32812Y83433D01*
X33195Y84358D01*
Y85359D01*
X32812Y86284D01*
X32104Y86992D01*
X31179Y87374D01*
D02*
G37*
G36*
X121501Y85430D02*
X120500D01*
X119575Y85047D01*
X118867Y84339D01*
X118484Y83414D01*
Y82413D01*
X118867Y81489D01*
X119575Y80781D01*
X120500Y80398D01*
X121501D01*
X122425Y80781D01*
X123133Y81489D01*
X123516Y82413D01*
Y83414D01*
X123133Y84339D01*
X122425Y85047D01*
X121501Y85430D01*
D02*
G37*
G36*
X121134Y79543D02*
X120133D01*
X119208Y79160D01*
X118500Y78452D01*
X118117Y77528D01*
Y76527D01*
X118500Y75602D01*
X119208Y74894D01*
X120133Y74511D01*
X121134D01*
X122058Y74894D01*
X122766Y75602D01*
X123149Y76527D01*
Y77528D01*
X122766Y78452D01*
X122058Y79160D01*
X121134Y79543D01*
D02*
G37*
G36*
X106449Y77675D02*
X105448D01*
X104523Y77292D01*
X103815Y76585D01*
X103432Y75660D01*
Y74659D01*
X103815Y73734D01*
X104523Y73026D01*
X105448Y72643D01*
X106449D01*
X107374Y73026D01*
X108081Y73734D01*
X108464Y74659D01*
Y75660D01*
X108081Y76585D01*
X107374Y77292D01*
X106449Y77675D01*
D02*
G37*
G36*
X61179Y77375D02*
X60179D01*
X59254Y76992D01*
X58546Y76284D01*
X58163Y75359D01*
Y74358D01*
X58546Y73433D01*
X59254Y72726D01*
X60179Y72343D01*
X61179D01*
X62104Y72726D01*
X62812Y73433D01*
X63195Y74358D01*
Y75359D01*
X62812Y76284D01*
X62104Y76992D01*
X61179Y77375D01*
D02*
G37*
G36*
X46179D02*
X45179D01*
X44254Y76992D01*
X43546Y76284D01*
X43163Y75359D01*
Y74358D01*
X43546Y73433D01*
X44254Y72726D01*
X45179Y72343D01*
X46179D01*
X47104Y72726D01*
X47812Y73433D01*
X48195Y74358D01*
Y75359D01*
X47812Y76284D01*
X47104Y76992D01*
X46179Y77375D01*
D02*
G37*
G36*
X31179D02*
X30179D01*
X29254Y76992D01*
X28546Y76284D01*
X28163Y75359D01*
Y74358D01*
X28546Y73433D01*
X29254Y72726D01*
X30179Y72343D01*
X31179D01*
X32104Y72726D01*
X32812Y73433D01*
X33195Y74358D01*
Y75359D01*
X32812Y76284D01*
X32104Y76992D01*
X31179Y77375D01*
D02*
G37*
G36*
X180000Y73266D02*
X179000D01*
X178075Y72883D01*
X177367Y72175D01*
X176984Y71251D01*
Y70250D01*
X177367Y69325D01*
X178075Y68617D01*
X179000Y68234D01*
X180000D01*
X180925Y68617D01*
X181633Y69325D01*
X182016Y70250D01*
Y71251D01*
X181633Y72175D01*
X180925Y72883D01*
X180000Y73266D01*
D02*
G37*
G36*
X173500Y70663D02*
X172500D01*
X171575Y70280D01*
X170867Y69573D01*
X170484Y68648D01*
Y67647D01*
X170867Y66722D01*
X171575Y66014D01*
X172500Y65631D01*
X173500D01*
X174425Y66014D01*
X175133Y66722D01*
X175516Y67647D01*
Y68648D01*
X175133Y69573D01*
X174425Y70280D01*
X173500Y70663D01*
D02*
G37*
G36*
X61179Y67375D02*
X60179D01*
X59254Y66992D01*
X58546Y66284D01*
X58163Y65359D01*
Y64358D01*
X58546Y63433D01*
X59254Y62726D01*
X60179Y62343D01*
X61179D01*
X62104Y62726D01*
X62812Y63433D01*
X63195Y64358D01*
Y65359D01*
X62812Y66284D01*
X62104Y66992D01*
X61179Y67375D01*
D02*
G37*
G36*
X46179D02*
X45179D01*
X44254Y66992D01*
X43546Y66284D01*
X43163Y65359D01*
Y64358D01*
X43546Y63433D01*
X44254Y62726D01*
X45179Y62343D01*
X46179D01*
X47104Y62726D01*
X47812Y63433D01*
X48195Y64358D01*
Y65359D01*
X47812Y66284D01*
X47104Y66992D01*
X46179Y67375D01*
D02*
G37*
G36*
X31179D02*
X30179D01*
X29254Y66992D01*
X28546Y66284D01*
X28163Y65359D01*
Y64358D01*
X28546Y63433D01*
X29254Y62726D01*
X30179Y62343D01*
X31179D01*
X32104Y62726D01*
X32812Y63433D01*
X33195Y64358D01*
Y65359D01*
X32812Y66284D01*
X32104Y66992D01*
X31179Y67375D01*
D02*
G37*
G36*
X240501Y62516D02*
X239500D01*
X238575Y62133D01*
X237867Y61425D01*
X237484Y60501D01*
Y59500D01*
X237867Y58575D01*
X238575Y57867D01*
X239500Y57484D01*
X240501D01*
X241425Y57867D01*
X242133Y58575D01*
X242516Y59500D01*
Y60501D01*
X242133Y61425D01*
X241425Y62133D01*
X240501Y62516D01*
D02*
G37*
G36*
X263651Y57179D02*
X262650D01*
X261725Y56796D01*
X261018Y56089D01*
X260635Y55164D01*
Y54163D01*
X261018Y53238D01*
X261725Y52530D01*
X262650Y52147D01*
X263651D01*
X264576Y52530D01*
X265284Y53238D01*
X265667Y54163D01*
Y55164D01*
X265284Y56089D01*
X264576Y56796D01*
X263651Y57179D01*
D02*
G37*
G36*
X251500Y53766D02*
X250499D01*
X249575Y53383D01*
X248867Y52675D01*
X248484Y51750D01*
Y50750D01*
X248867Y49825D01*
X249575Y49117D01*
X250499Y48734D01*
X251500D01*
X252425Y49117D01*
X253133Y49825D01*
X253516Y50750D01*
Y51750D01*
X253133Y52675D01*
X252425Y53383D01*
X251500Y53766D01*
D02*
G37*
G36*
X123008Y52860D02*
X122008D01*
X121083Y52477D01*
X120375Y51770D01*
X119992Y50845D01*
Y49844D01*
X120375Y48919D01*
X121083Y48212D01*
X122008Y47828D01*
X123008D01*
X123933Y48212D01*
X124641Y48919D01*
X125024Y49844D01*
Y50845D01*
X124641Y51770D01*
X123933Y52477D01*
X123008Y52860D01*
D02*
G37*
G36*
X167833Y52559D02*
X166833D01*
X165908Y52176D01*
X165200Y51469D01*
X164817Y50544D01*
Y49543D01*
X165200Y48618D01*
X165908Y47910D01*
X166833Y47527D01*
X167833D01*
X168758Y47910D01*
X169466Y48618D01*
X169849Y49543D01*
Y50544D01*
X169466Y51469D01*
X168758Y52176D01*
X167833Y52559D01*
D02*
G37*
G36*
X182968Y52382D02*
X181967D01*
X181042Y51998D01*
X180335Y51291D01*
X179952Y50366D01*
Y49365D01*
X180335Y48440D01*
X181042Y47733D01*
X181967Y47350D01*
X182968D01*
X183893Y47733D01*
X184601Y48440D01*
X184984Y49365D01*
Y50366D01*
X184601Y51291D01*
X183893Y51998D01*
X182968Y52382D01*
D02*
G37*
G36*
X153188Y52226D02*
X152188D01*
X151263Y51843D01*
X150555Y51135D01*
X150172Y50210D01*
Y49209D01*
X150555Y48285D01*
X151263Y47577D01*
X152188Y47194D01*
X153188D01*
X154113Y47577D01*
X154821Y48285D01*
X155204Y49209D01*
Y50210D01*
X154821Y51135D01*
X154113Y51843D01*
X153188Y52226D01*
D02*
G37*
G36*
X229446Y52183D02*
X228445D01*
X227520Y51800D01*
X226812Y51093D01*
X226429Y50168D01*
Y49167D01*
X226812Y48242D01*
X227520Y47535D01*
X228445Y47151D01*
X229446D01*
X230371Y47535D01*
X231078Y48242D01*
X231461Y49167D01*
Y50168D01*
X231078Y51093D01*
X230371Y51800D01*
X229446Y52183D01*
D02*
G37*
G36*
X212792Y52114D02*
X211791D01*
X210867Y51731D01*
X210159Y51024D01*
X209776Y50099D01*
Y49098D01*
X210159Y48173D01*
X210867Y47465D01*
X211791Y47082D01*
X212792D01*
X213717Y47465D01*
X214425Y48173D01*
X214808Y49098D01*
Y50099D01*
X214425Y51024D01*
X213717Y51731D01*
X212792Y52114D01*
D02*
G37*
G36*
X197925Y52025D02*
X196924D01*
X195999Y51642D01*
X195291Y50935D01*
X194908Y50010D01*
Y49009D01*
X195291Y48084D01*
X195999Y47376D01*
X196924Y46993D01*
X197925D01*
X198849Y47376D01*
X199557Y48084D01*
X199940Y49009D01*
Y50010D01*
X199557Y50935D01*
X198849Y51642D01*
X197925Y52025D01*
D02*
G37*
G36*
X138199Y50900D02*
X137198D01*
X136273Y50517D01*
X135565Y49809D01*
X135182Y48885D01*
Y47884D01*
X135565Y46959D01*
X136273Y46251D01*
X137198Y45868D01*
X138199D01*
X139123Y46251D01*
X139831Y46959D01*
X140214Y47884D01*
Y48885D01*
X139831Y49809D01*
X139123Y50517D01*
X138199Y50900D01*
D02*
G37*
G36*
X263156Y47496D02*
X262155D01*
X261230Y47113D01*
X260522Y46405D01*
X260139Y45480D01*
Y44479D01*
X260522Y43555D01*
X261230Y42847D01*
X262155Y42464D01*
X263156D01*
X264081Y42847D01*
X264788Y43555D01*
X265171Y44479D01*
Y45480D01*
X264788Y46405D01*
X264081Y47113D01*
X263156Y47496D01*
D02*
G37*
G36*
X145067Y46449D02*
X144066D01*
X143141Y46066D01*
X142434Y45359D01*
X142051Y44434D01*
Y43433D01*
X142434Y42508D01*
X143141Y41800D01*
X144066Y41417D01*
X145067D01*
X145992Y41800D01*
X146700Y42508D01*
X147083Y43433D01*
Y44434D01*
X146700Y45359D01*
X145992Y46066D01*
X145067Y46449D01*
D02*
G37*
G36*
X100040Y43056D02*
X99039D01*
X98114Y42673D01*
X97406Y41965D01*
X97023Y41040D01*
Y40039D01*
X97406Y39115D01*
X98114Y38407D01*
X99039Y38024D01*
X100040D01*
X100964Y38407D01*
X101672Y39115D01*
X102055Y40039D01*
Y41040D01*
X101672Y41965D01*
X100964Y42673D01*
X100040Y43056D01*
D02*
G37*
G36*
X250851Y41988D02*
X249850D01*
X248925Y41604D01*
X248217Y40897D01*
X247834Y39972D01*
Y38971D01*
X248217Y38046D01*
X248925Y37339D01*
X249850Y36956D01*
X250851D01*
X251776Y37339D01*
X252483Y38046D01*
X252866Y38971D01*
Y39972D01*
X252483Y40897D01*
X251776Y41604D01*
X250851Y41988D01*
D02*
G37*
G36*
X352321Y400941D02*
X351320D01*
X350395Y400558D01*
X349687Y399850D01*
X349304Y398925D01*
Y397924D01*
X349687Y396999D01*
X350395Y396292D01*
X351320Y395909D01*
X352321D01*
X353245Y396292D01*
X353953Y396999D01*
X354336Y397924D01*
Y398925D01*
X353953Y399850D01*
X353245Y400558D01*
X352321Y400941D01*
D02*
G37*
G36*
X354597Y389779D02*
X353596D01*
X352672Y389396D01*
X351964Y388689D01*
X351581Y387764D01*
Y386763D01*
X351964Y385838D01*
X352672Y385130D01*
X353596Y384747D01*
X354597D01*
X355522Y385130D01*
X356230Y385838D01*
X356613Y386763D01*
Y387764D01*
X356230Y388689D01*
X355522Y389396D01*
X354597Y389779D01*
D02*
G37*
G36*
X315863Y382532D02*
X314862D01*
X313938Y382149D01*
X313230Y381441D01*
X312847Y380516D01*
Y379515D01*
X313230Y378590D01*
X313938Y377883D01*
X314862Y377500D01*
X315863D01*
X316788Y377883D01*
X317496Y378590D01*
X317879Y379515D01*
Y380516D01*
X317496Y381441D01*
X316788Y382149D01*
X315863Y382532D01*
D02*
G37*
G36*
X325500Y377516D02*
X324500D01*
X323575Y377133D01*
X322867Y376425D01*
X322484Y375500D01*
Y374500D01*
X322867Y373575D01*
X323575Y372867D01*
X324500Y372484D01*
X325500D01*
X326425Y372867D01*
X327133Y373575D01*
X327516Y374500D01*
Y375500D01*
X327133Y376425D01*
X326425Y377133D01*
X325500Y377516D01*
D02*
G37*
G36*
X326660Y369859D02*
X325659D01*
X324734Y369476D01*
X324026Y368768D01*
X323643Y367844D01*
Y366843D01*
X324026Y365918D01*
X324734Y365210D01*
X325659Y364827D01*
X326660D01*
X327584Y365210D01*
X328292Y365918D01*
X328675Y366843D01*
Y367844D01*
X328292Y368768D01*
X327584Y369476D01*
X326660Y369859D01*
D02*
G37*
G36*
X333872Y364490D02*
X332871D01*
X331946Y364107D01*
X331239Y363399D01*
X330856Y362475D01*
Y361474D01*
X331239Y360549D01*
X331946Y359841D01*
X332871Y359458D01*
X333872D01*
X334797Y359841D01*
X335505Y360549D01*
X335888Y361474D01*
Y362475D01*
X335505Y363399D01*
X334797Y364107D01*
X333872Y364490D01*
D02*
G37*
G36*
X336057Y359042D02*
X335056D01*
X334131Y358659D01*
X333423Y357951D01*
X333040Y357027D01*
Y356026D01*
X333423Y355101D01*
X334131Y354393D01*
X335056Y354010D01*
X336057D01*
X336981Y354393D01*
X337689Y355101D01*
X338072Y356026D01*
Y357027D01*
X337689Y357951D01*
X336981Y358659D01*
X336057Y359042D01*
D02*
G37*
G36*
X328750Y359013D02*
X327749D01*
X326824Y358630D01*
X326117Y357922D01*
X325734Y356997D01*
Y355997D01*
X326117Y355072D01*
X326824Y354364D01*
X327749Y353981D01*
X328750D01*
X329675Y354364D01*
X330383Y355072D01*
X330766Y355997D01*
Y356997D01*
X330383Y357922D01*
X329675Y358630D01*
X328750Y359013D01*
D02*
G37*
G36*
X334871Y345566D02*
X333870D01*
X332945Y345183D01*
X332238Y344475D01*
X331855Y343550D01*
Y342550D01*
X332238Y341625D01*
X332945Y340917D01*
X333870Y340534D01*
X334871D01*
X335796Y340917D01*
X336503Y341625D01*
X336887Y342550D01*
Y343550D01*
X336503Y344475D01*
X335796Y345183D01*
X334871Y345566D01*
D02*
G37*
G36*
X353253Y348116D02*
X351655D01*
X350179Y347505D01*
X349049Y346375D01*
X348438Y344899D01*
Y343302D01*
X349049Y341825D01*
X350179Y340696D01*
X351655Y340084D01*
X353253D01*
X354729Y340696D01*
X355858Y341825D01*
X356470Y343302D01*
Y344899D01*
X355858Y346375D01*
X354729Y347505D01*
X353253Y348116D01*
D02*
G37*
G36*
X353209Y331991D02*
X351611D01*
X350135Y331380D01*
X349005Y330250D01*
X348394Y328774D01*
Y327176D01*
X349005Y325700D01*
X350135Y324571D01*
X351611Y323959D01*
X353209D01*
X354685Y324571D01*
X355815Y325700D01*
X356426Y327176D01*
Y328774D01*
X355815Y330250D01*
X354685Y331380D01*
X353209Y331991D01*
D02*
G37*
G36*
X315501Y327516D02*
X314499D01*
X313575Y327133D01*
X312867Y326425D01*
X312484Y325500D01*
Y324500D01*
X312867Y323575D01*
X313575Y322867D01*
X314499Y322484D01*
X315501D01*
X316425Y322867D01*
X317133Y323575D01*
X317516Y324500D01*
Y325500D01*
X317133Y326425D01*
X316425Y327133D01*
X315501Y327516D01*
D02*
G37*
G36*
X320282Y320102D02*
X319281D01*
X318356Y319719D01*
X317649Y319012D01*
X317266Y318087D01*
Y317086D01*
X317649Y316161D01*
X318356Y315453D01*
X319281Y315070D01*
X320282D01*
X321207Y315453D01*
X321915Y316161D01*
X322298Y317086D01*
Y318087D01*
X321915Y319012D01*
X321207Y319719D01*
X320282Y320102D01*
D02*
G37*
G36*
X313945Y319169D02*
X312944D01*
X312019Y318786D01*
X311311Y318078D01*
X310928Y317153D01*
Y316152D01*
X311311Y315228D01*
X312019Y314520D01*
X312944Y314137D01*
X313945D01*
X314869Y314520D01*
X315577Y315228D01*
X315960Y316152D01*
Y317153D01*
X315577Y318078D01*
X314869Y318786D01*
X313945Y319169D01*
D02*
G37*
G36*
X330639Y314833D02*
X329638D01*
X328713Y314450D01*
X328006Y313742D01*
X327623Y312817D01*
Y311816D01*
X328006Y310892D01*
X328713Y310184D01*
X329638Y309801D01*
X330639D01*
X331564Y310184D01*
X332271Y310892D01*
X332655Y311816D01*
Y312817D01*
X332271Y313742D01*
X331564Y314450D01*
X330639Y314833D01*
D02*
G37*
G36*
X335507Y310504D02*
X334506D01*
X333581Y310120D01*
X332873Y309413D01*
X332490Y308488D01*
Y307487D01*
X332873Y306562D01*
X333581Y305854D01*
X334506Y305471D01*
X335507D01*
X336432Y305854D01*
X337139Y306562D01*
X337522Y307487D01*
Y308488D01*
X337139Y309413D01*
X336432Y310120D01*
X335507Y310504D01*
D02*
G37*
G36*
X323899Y309912D02*
X322898D01*
X321974Y309529D01*
X321266Y308821D01*
X320883Y307896D01*
Y306896D01*
X321266Y305971D01*
X321974Y305263D01*
X322898Y304880D01*
X323899D01*
X324824Y305263D01*
X325532Y305971D01*
X325915Y306896D01*
Y307896D01*
X325532Y308821D01*
X324824Y309529D01*
X323899Y309912D01*
D02*
G37*
G36*
X353414Y310472D02*
X351816D01*
X350340Y309860D01*
X349210Y308731D01*
X348599Y307255D01*
Y305657D01*
X349210Y304181D01*
X350340Y303051D01*
X351816Y302440D01*
X353414D01*
X354890Y303051D01*
X356019Y304181D01*
X356631Y305657D01*
Y307255D01*
X356019Y308731D01*
X354890Y309860D01*
X353414Y310472D01*
D02*
G37*
G36*
X326500Y305016D02*
X325499D01*
X324575Y304633D01*
X323867Y303925D01*
X323484Y303001D01*
Y301999D01*
X323867Y301075D01*
X324575Y300367D01*
X325499Y299984D01*
X326500D01*
X327425Y300367D01*
X328133Y301075D01*
X328516Y301999D01*
Y303001D01*
X328133Y303925D01*
X327425Y304633D01*
X326500Y305016D01*
D02*
G37*
G36*
X316500D02*
X315499D01*
X314575Y304633D01*
X313867Y303925D01*
X313484Y303001D01*
Y301999D01*
X313867Y301075D01*
X314575Y300367D01*
X315499Y299984D01*
X316500D01*
X317425Y300367D01*
X318133Y301075D01*
X318516Y301999D01*
Y303001D01*
X318133Y303925D01*
X317425Y304633D01*
X316500Y305016D01*
D02*
G37*
G36*
X321500Y300016D02*
X320499D01*
X319575Y299633D01*
X318867Y298925D01*
X318484Y298001D01*
Y297000D01*
X318867Y296075D01*
X319575Y295367D01*
X320499Y294984D01*
X321500D01*
X322425Y295367D01*
X323133Y296075D01*
X323516Y297000D01*
Y298001D01*
X323133Y298925D01*
X322425Y299633D01*
X321500Y300016D01*
D02*
G37*
G36*
X326500Y295016D02*
X325499D01*
X324575Y294633D01*
X323867Y293925D01*
X323484Y293001D01*
Y292000D01*
X323867Y291075D01*
X324575Y290367D01*
X325499Y289984D01*
X326500D01*
X327425Y290367D01*
X328133Y291075D01*
X328516Y292000D01*
Y293001D01*
X328133Y293925D01*
X327425Y294633D01*
X326500Y295016D01*
D02*
G37*
G36*
X316500D02*
X315499D01*
X314575Y294633D01*
X313867Y293925D01*
X313484Y293001D01*
Y292000D01*
X313867Y291075D01*
X314575Y290367D01*
X315499Y289984D01*
X316500D01*
X317425Y290367D01*
X318133Y291075D01*
X318516Y292000D01*
Y293001D01*
X318133Y293925D01*
X317425Y294633D01*
X316500Y295016D01*
D02*
G37*
G36*
X353370Y294347D02*
X351772D01*
X350296Y293735D01*
X349166Y292605D01*
X348555Y291129D01*
Y289532D01*
X349166Y288056D01*
X350296Y286926D01*
X351772Y286315D01*
X353370D01*
X354846Y286926D01*
X355975Y288056D01*
X356587Y289532D01*
Y291129D01*
X355975Y292605D01*
X354846Y293735D01*
X353370Y294347D01*
D02*
G37*
G36*
X330121Y285596D02*
X329120D01*
X328196Y285212D01*
X327488Y284505D01*
X327105Y283580D01*
Y282579D01*
X327488Y281654D01*
X328196Y280947D01*
X329120Y280564D01*
X330121D01*
X331046Y280947D01*
X331754Y281654D01*
X332137Y282579D01*
Y283580D01*
X331754Y284505D01*
X331046Y285212D01*
X330121Y285596D01*
D02*
G37*
G36*
X323934Y281037D02*
X322933D01*
X322008Y280654D01*
X321300Y279946D01*
X320917Y279021D01*
Y278020D01*
X321300Y277096D01*
X322008Y276388D01*
X322933Y276005D01*
X323934D01*
X324859Y276388D01*
X325566Y277096D01*
X325949Y278020D01*
Y279021D01*
X325566Y279946D01*
X324859Y280654D01*
X323934Y281037D01*
D02*
G37*
G36*
X353536Y280647D02*
X351938D01*
X350462Y280035D01*
X349333Y278906D01*
X348721Y277430D01*
Y275832D01*
X349333Y274356D01*
X350462Y273226D01*
X351938Y272615D01*
X353536D01*
X355012Y273226D01*
X356142Y274356D01*
X356753Y275832D01*
Y277430D01*
X356142Y278906D01*
X355012Y280035D01*
X353536Y280647D01*
D02*
G37*
G36*
X322676Y267639D02*
X321675D01*
X320751Y267256D01*
X320043Y266548D01*
X319660Y265624D01*
Y264623D01*
X320043Y263698D01*
X320751Y262990D01*
X321675Y262607D01*
X322676D01*
X323601Y262990D01*
X324309Y263698D01*
X324692Y264623D01*
Y265624D01*
X324309Y266548D01*
X323601Y267256D01*
X322676Y267639D01*
D02*
G37*
G36*
X336902Y263838D02*
X335901D01*
X334977Y263455D01*
X334269Y262748D01*
X333886Y261823D01*
Y260822D01*
X334269Y259897D01*
X334977Y259189D01*
X335901Y258806D01*
X336902D01*
X337827Y259189D01*
X338535Y259897D01*
X338918Y260822D01*
Y261823D01*
X338535Y262748D01*
X337827Y263455D01*
X336902Y263838D01*
D02*
G37*
G36*
X353492Y264522D02*
X351894D01*
X350419Y263910D01*
X349289Y262781D01*
X348677Y261305D01*
Y259707D01*
X349289Y258231D01*
X350419Y257101D01*
X351894Y256490D01*
X353492D01*
X354968Y257101D01*
X356098Y258231D01*
X356709Y259707D01*
Y261305D01*
X356098Y262781D01*
X354968Y263910D01*
X353492Y264522D01*
D02*
G37*
G36*
X335085Y252686D02*
X331098D01*
X329140Y252297D01*
X327481Y251188D01*
X326372Y249529D01*
X325983Y247572D01*
X326372Y245614D01*
X327481Y243955D01*
X329140Y242846D01*
X331098Y242457D01*
X335085D01*
X337043Y242846D01*
X338702Y243955D01*
X339811Y245614D01*
X340200Y247572D01*
X339811Y249529D01*
X338702Y251188D01*
X337043Y252297D01*
X335085Y252686D01*
D02*
G37*
G36*
X350501Y242516D02*
X349500D01*
X348575Y242133D01*
X347867Y241426D01*
X347484Y240501D01*
Y239500D01*
X347867Y238575D01*
X348575Y237867D01*
X349500Y237484D01*
X350501D01*
X351426Y237867D01*
X352133Y238575D01*
X352516Y239500D01*
Y240501D01*
X352133Y241426D01*
X351426Y242133D01*
X350501Y242516D01*
D02*
G37*
G36*
X340501Y222516D02*
X339500D01*
X338575Y222133D01*
X337867Y221425D01*
X337484Y220501D01*
Y219500D01*
X337867Y218575D01*
X338575Y217867D01*
X339500Y217484D01*
X340501D01*
X341426Y217867D01*
X342133Y218575D01*
X342516Y219500D01*
Y220501D01*
X342133Y221425D01*
X341426Y222133D01*
X340501Y222516D01*
D02*
G37*
G36*
X350501Y202516D02*
X349500D01*
X348575Y202133D01*
X347867Y201425D01*
X347484Y200501D01*
Y199500D01*
X347867Y198575D01*
X348575Y197867D01*
X349500Y197484D01*
X350501D01*
X351426Y197867D01*
X352133Y198575D01*
X352516Y199500D01*
Y200501D01*
X352133Y201425D01*
X351426Y202133D01*
X350501Y202516D01*
D02*
G37*
G36*
X330501D02*
X329500D01*
X328575Y202133D01*
X327867Y201425D01*
X327484Y200501D01*
Y199500D01*
X327867Y198575D01*
X328575Y197867D01*
X329500Y197484D01*
X330501D01*
X331426Y197867D01*
X332133Y198575D01*
X332516Y199500D01*
Y200501D01*
X332133Y201425D01*
X331426Y202133D01*
X330501Y202516D01*
D02*
G37*
G36*
X300455Y199928D02*
X299454D01*
X298529Y199545D01*
X297821Y198837D01*
X297438Y197913D01*
Y196912D01*
X297821Y195987D01*
X298529Y195279D01*
X299454Y194896D01*
X300455D01*
X301379Y195279D01*
X302087Y195987D01*
X302470Y196912D01*
Y197913D01*
X302087Y198837D01*
X301379Y199545D01*
X300455Y199928D01*
D02*
G37*
G36*
X306446Y193345D02*
X305446D01*
X304521Y192962D01*
X303813Y192254D01*
X303430Y191330D01*
Y190329D01*
X303813Y189404D01*
X304521Y188696D01*
X305446Y188313D01*
X306446D01*
X307371Y188696D01*
X308079Y189404D01*
X308462Y190329D01*
Y191330D01*
X308079Y192254D01*
X307371Y192962D01*
X306446Y193345D01*
D02*
G37*
G36*
X295501Y192516D02*
X294500D01*
X293575Y192133D01*
X292867Y191425D01*
X292484Y190501D01*
Y189499D01*
X292867Y188575D01*
X293575Y187867D01*
X294500Y187484D01*
X295501D01*
X296425Y187867D01*
X297133Y188575D01*
X297516Y189499D01*
Y190501D01*
X297133Y191425D01*
X296425Y192133D01*
X295501Y192516D01*
D02*
G37*
G36*
X296176Y179414D02*
X295414Y179338D01*
X295269Y179260D01*
X295105Y179261D01*
X294419Y178981D01*
X294314Y178878D01*
X294171Y178841D01*
X293561Y178384D01*
X293498Y178277D01*
X293387Y178221D01*
X292904Y177662D01*
X292857Y177518D01*
X292744Y177417D01*
X292414Y176731D01*
X292405Y176572D01*
X292320Y176438D01*
X292192Y175701D01*
X292223Y175567D01*
X292179Y175438D01*
X292230Y174676D01*
X292292Y174550D01*
X292281Y174409D01*
X292509Y173698D01*
X292605Y173585D01*
X292631Y173438D01*
X293038Y172803D01*
X293151Y172724D01*
X293208Y172597D01*
X293741Y172089D01*
X293869Y172040D01*
X293953Y171931D01*
X294613Y171550D01*
X294776Y171529D01*
X294908Y171432D01*
X295645Y171254D01*
X295780Y171276D01*
X295906Y171223D01*
X296668D01*
X296798Y171277D01*
X296938Y171257D01*
X297649Y171434D01*
X297777Y171529D01*
X297936Y171550D01*
X298596Y171931D01*
X298672Y172030D01*
X298789Y172072D01*
X299347Y172580D01*
X299412Y172717D01*
X299536Y172803D01*
X299943Y173438D01*
X299969Y173585D01*
X300065Y173698D01*
X300293Y174409D01*
X300282Y174550D01*
X300344Y174676D01*
X300395Y175438D01*
X300345Y175585D01*
X300375Y175737D01*
X300222Y176474D01*
X300152Y176577D01*
X300149Y176701D01*
X299844Y177386D01*
X299722Y177502D01*
X299670Y177662D01*
X299187Y178221D01*
X299076Y178277D01*
X299012Y178384D01*
X298403Y178841D01*
X298253Y178879D01*
X298142Y178987D01*
X297431Y179266D01*
X297275Y179263D01*
X297138Y179337D01*
X296402Y179413D01*
X296289Y179380D01*
X296176Y179414D01*
D02*
G37*
G36*
X340501Y182516D02*
X339500D01*
X338575Y182133D01*
X337867Y181425D01*
X337484Y180501D01*
Y179500D01*
X337867Y178575D01*
X338575Y177867D01*
X339500Y177484D01*
X340501D01*
X341426Y177867D01*
X342133Y178575D01*
X342516Y179500D01*
Y180501D01*
X342133Y181425D01*
X341426Y182133D01*
X340501Y182516D01*
D02*
G37*
G36*
X287133Y174275D02*
X286132D01*
X285208Y173892D01*
X284500Y173184D01*
X284117Y172259D01*
Y171259D01*
X284500Y170334D01*
X285208Y169626D01*
X286132Y169243D01*
X287133D01*
X288058Y169626D01*
X288766Y170334D01*
X289149Y171259D01*
Y172259D01*
X288766Y173184D01*
X288058Y173892D01*
X287133Y174275D01*
D02*
G37*
G36*
X350501Y162516D02*
X349500D01*
X348575Y162133D01*
X347867Y161425D01*
X347484Y160501D01*
Y159500D01*
X347867Y158575D01*
X348575Y157867D01*
X349500Y157484D01*
X350501D01*
X351426Y157867D01*
X352133Y158575D01*
X352516Y159500D01*
Y160501D01*
X352133Y161425D01*
X351426Y162133D01*
X350501Y162516D01*
D02*
G37*
G36*
X220992Y162023D02*
X219991D01*
X219066Y161640D01*
X218358Y160932D01*
X217975Y160008D01*
Y159007D01*
X218358Y158082D01*
X219066Y157374D01*
X219991Y156991D01*
X220992D01*
X221917Y157374D01*
X222624Y158082D01*
X223007Y159007D01*
Y160008D01*
X222624Y160932D01*
X221917Y161640D01*
X220992Y162023D01*
D02*
G37*
G36*
X335085Y166174D02*
X331098D01*
X329140Y165785D01*
X327481Y164676D01*
X326372Y163017D01*
X325983Y161059D01*
X326372Y159102D01*
X327481Y157443D01*
X329140Y156334D01*
X331098Y155944D01*
X335085D01*
X337043Y156334D01*
X338702Y157443D01*
X339811Y159102D01*
X340200Y161059D01*
X339811Y163017D01*
X338702Y164676D01*
X337043Y165785D01*
X335085Y166174D01*
D02*
G37*
G36*
X294788D02*
X287778D01*
X285821Y165785D01*
X284161Y164676D01*
X283053Y163017D01*
X282663Y161059D01*
X283053Y159102D01*
X284161Y157443D01*
X285821Y156334D01*
X287778Y155944D01*
X294788D01*
X296746Y156334D01*
X298405Y157443D01*
X299514Y159102D01*
X299903Y161059D01*
X299514Y163017D01*
X298405Y164676D01*
X296746Y165785D01*
X294788Y166174D01*
D02*
G37*
G36*
X220992Y155521D02*
X219991D01*
X219066Y155138D01*
X218358Y154430D01*
X217975Y153505D01*
Y152504D01*
X218358Y151580D01*
X219066Y150872D01*
X219991Y150489D01*
X220992D01*
X221917Y150872D01*
X222624Y151580D01*
X223007Y152504D01*
Y153505D01*
X222624Y154430D01*
X221917Y155138D01*
X220992Y155521D01*
D02*
G37*
G36*
X181978D02*
X180977D01*
X180052Y155138D01*
X179344Y154430D01*
X178961Y153505D01*
Y152504D01*
X179344Y151580D01*
X180052Y150872D01*
X180977Y150489D01*
X181978D01*
X182902Y150872D01*
X183610Y151580D01*
X183993Y152504D01*
Y153505D01*
X183610Y154430D01*
X182902Y155138D01*
X181978Y155521D01*
D02*
G37*
G36*
X175501D02*
X174499D01*
X173575Y155138D01*
X172867Y154430D01*
X172484Y153505D01*
Y152504D01*
X172867Y151580D01*
X173575Y150872D01*
X174499Y150489D01*
X175501D01*
X176425Y150872D01*
X177133Y151580D01*
X177516Y152504D01*
Y153505D01*
X177133Y154430D01*
X176425Y155138D01*
X175501Y155521D01*
D02*
G37*
G36*
X227494Y149018D02*
X226493D01*
X225569Y148635D01*
X224861Y147928D01*
X224478Y147003D01*
Y146002D01*
X224861Y145077D01*
X225569Y144369D01*
X226493Y143986D01*
X227494D01*
X228419Y144369D01*
X229127Y145077D01*
X229510Y146002D01*
Y147003D01*
X229127Y147928D01*
X228419Y148635D01*
X227494Y149018D01*
D02*
G37*
G36*
X220992D02*
X219991D01*
X219066Y148635D01*
X218358Y147928D01*
X217975Y147003D01*
Y146002D01*
X218358Y145077D01*
X219066Y144369D01*
X219991Y143986D01*
X220992D01*
X221917Y144369D01*
X222624Y145077D01*
X223007Y146002D01*
Y147003D01*
X222624Y147928D01*
X221917Y148635D01*
X220992Y149018D01*
D02*
G37*
G36*
X214489D02*
X213489D01*
X212564Y148635D01*
X211856Y147928D01*
X211473Y147003D01*
Y146002D01*
X211856Y145077D01*
X212564Y144369D01*
X213489Y143986D01*
X214489D01*
X215414Y144369D01*
X216122Y145077D01*
X216505Y146002D01*
Y147003D01*
X216122Y147928D01*
X215414Y148635D01*
X214489Y149018D01*
D02*
G37*
G36*
X207987D02*
X206986D01*
X206061Y148635D01*
X205354Y147928D01*
X204971Y147003D01*
Y146002D01*
X205354Y145077D01*
X206061Y144369D01*
X206986Y143986D01*
X207987D01*
X208912Y144369D01*
X209620Y145077D01*
X210003Y146002D01*
Y147003D01*
X209620Y147928D01*
X208912Y148635D01*
X207987Y149018D01*
D02*
G37*
G36*
X201485D02*
X200484D01*
X199559Y148635D01*
X198851Y147928D01*
X198468Y147003D01*
Y146002D01*
X198851Y145077D01*
X199559Y144369D01*
X200484Y143986D01*
X201485D01*
X202409Y144369D01*
X203117Y145077D01*
X203500Y146002D01*
Y147003D01*
X203117Y147928D01*
X202409Y148635D01*
X201485Y149018D01*
D02*
G37*
G36*
X194982D02*
X193981D01*
X193057Y148635D01*
X192349Y147928D01*
X191966Y147003D01*
Y146002D01*
X192349Y145077D01*
X193057Y144369D01*
X193981Y143986D01*
X194982D01*
X195907Y144369D01*
X196615Y145077D01*
X196998Y146002D01*
Y147003D01*
X196615Y147928D01*
X195907Y148635D01*
X194982Y149018D01*
D02*
G37*
G36*
X188480D02*
X187479D01*
X186554Y148635D01*
X185846Y147928D01*
X185463Y147003D01*
Y146002D01*
X185846Y145077D01*
X186554Y144369D01*
X187479Y143986D01*
X188480D01*
X189405Y144369D01*
X190112Y145077D01*
X190495Y146002D01*
Y147003D01*
X190112Y147928D01*
X189405Y148635D01*
X188480Y149018D01*
D02*
G37*
G36*
X227494Y142516D02*
X226493D01*
X225569Y142133D01*
X224861Y141425D01*
X224478Y140500D01*
Y139500D01*
X224861Y138575D01*
X225569Y137867D01*
X226493Y137484D01*
X227494D01*
X228419Y137867D01*
X229127Y138575D01*
X229510Y139500D01*
Y140500D01*
X229127Y141425D01*
X228419Y142133D01*
X227494Y142516D01*
D02*
G37*
G36*
X220992D02*
X219991D01*
X219066Y142133D01*
X218358Y141425D01*
X217975Y140500D01*
Y139500D01*
X218358Y138575D01*
X219066Y137867D01*
X219991Y137484D01*
X220992D01*
X221917Y137867D01*
X222624Y138575D01*
X223007Y139500D01*
Y140500D01*
X222624Y141425D01*
X221917Y142133D01*
X220992Y142516D01*
D02*
G37*
G36*
X181978D02*
X180977D01*
X180052Y142133D01*
X179344Y141425D01*
X178961Y140500D01*
Y139500D01*
X179344Y138575D01*
X180052Y137867D01*
X180977Y137484D01*
X181978D01*
X182902Y137867D01*
X183610Y138575D01*
X183993Y139500D01*
Y140500D01*
X183610Y141425D01*
X182902Y142133D01*
X181978Y142516D01*
D02*
G37*
G36*
X175501D02*
X174499D01*
X173575Y142133D01*
X172867Y141425D01*
X172484Y140500D01*
Y139500D01*
X172867Y138575D01*
X173575Y137867D01*
X174499Y137484D01*
X175501D01*
X176425Y137867D01*
X177133Y138575D01*
X177516Y139500D01*
Y140500D01*
X177133Y141425D01*
X176425Y142133D01*
X175501Y142516D01*
D02*
G37*
G36*
X207987Y136014D02*
X206986D01*
X206061Y135631D01*
X205354Y134923D01*
X204971Y133998D01*
Y132997D01*
X205354Y132072D01*
X206061Y131365D01*
X206986Y130982D01*
X207987D01*
X208912Y131365D01*
X209620Y132072D01*
X210003Y132997D01*
Y133998D01*
X209620Y134923D01*
X208912Y135631D01*
X207987Y136014D01*
D02*
G37*
G36*
X201485D02*
X200484D01*
X199559Y135631D01*
X198851Y134923D01*
X198468Y133998D01*
Y132997D01*
X198851Y132072D01*
X199559Y131365D01*
X200484Y130982D01*
X201485D01*
X202409Y131365D01*
X203117Y132072D01*
X203500Y132997D01*
Y133998D01*
X203117Y134923D01*
X202409Y135631D01*
X201485Y136014D01*
D02*
G37*
G36*
X194982D02*
X193981D01*
X193057Y135631D01*
X192349Y134923D01*
X191966Y133998D01*
Y132997D01*
X192349Y132072D01*
X193057Y131365D01*
X193981Y130982D01*
X194982D01*
X195907Y131365D01*
X196615Y132072D01*
X196998Y132997D01*
Y133998D01*
X196615Y134923D01*
X195907Y135631D01*
X194982Y136014D01*
D02*
G37*
G36*
X188480D02*
X187479D01*
X186554Y135631D01*
X185846Y134923D01*
X185463Y133998D01*
Y132997D01*
X185846Y132072D01*
X186554Y131365D01*
X187479Y130982D01*
X188480D01*
X189405Y131365D01*
X190112Y132072D01*
X190495Y132997D01*
Y133998D01*
X190112Y134923D01*
X189405Y135631D01*
X188480Y136014D01*
D02*
G37*
G36*
X240499Y175003D02*
X239498D01*
X238573Y174620D01*
X237866Y173912D01*
X237483Y172987D01*
Y171986D01*
X237866Y171061D01*
X238573Y170354D01*
X239498Y169971D01*
X240499D01*
X241424Y170354D01*
X242132Y171061D01*
X242515Y171986D01*
Y172987D01*
X242132Y173912D01*
X241424Y174620D01*
X240499Y175003D01*
D02*
G37*
G36*
X214430Y174989D02*
X213429D01*
X212504Y174606D01*
X211796Y173898D01*
X211413Y172973D01*
Y171972D01*
X211796Y171047D01*
X212504Y170340D01*
X213429Y169957D01*
X214430D01*
X215355Y170340D01*
X216062Y171047D01*
X216445Y171972D01*
Y172973D01*
X216062Y173898D01*
X215355Y174606D01*
X214430Y174989D01*
D02*
G37*
G36*
X208024D02*
X207023D01*
X206098Y174606D01*
X205390Y173898D01*
X205007Y172973D01*
Y171972D01*
X205390Y171047D01*
X206098Y170340D01*
X207023Y169957D01*
X208024D01*
X208949Y170340D01*
X209657Y171047D01*
X210040Y171972D01*
Y172973D01*
X209657Y173898D01*
X208949Y174606D01*
X208024Y174989D01*
D02*
G37*
G36*
X201467Y174949D02*
X200466D01*
X199541Y174566D01*
X198833Y173858D01*
X198450Y172934D01*
Y171933D01*
X198833Y171008D01*
X199541Y170300D01*
X200466Y169917D01*
X201467D01*
X202391Y170300D01*
X203099Y171008D01*
X203482Y171933D01*
Y172934D01*
X203099Y173858D01*
X202391Y174566D01*
X201467Y174949D01*
D02*
G37*
G36*
X214489Y168526D02*
X213489D01*
X212564Y168143D01*
X211856Y167435D01*
X211473Y166510D01*
Y165509D01*
X211856Y164584D01*
X212564Y163877D01*
X213489Y163494D01*
X214489D01*
X215414Y163877D01*
X216122Y164584D01*
X216505Y165509D01*
Y166510D01*
X216122Y167435D01*
X215414Y168143D01*
X214489Y168526D01*
D02*
G37*
G36*
X207987D02*
X206986D01*
X206061Y168143D01*
X205354Y167435D01*
X204971Y166510D01*
Y165509D01*
X205354Y164584D01*
X206061Y163877D01*
X206986Y163494D01*
X207987D01*
X208912Y163877D01*
X209620Y164584D01*
X210003Y165509D01*
Y166510D01*
X209620Y167435D01*
X208912Y168143D01*
X207987Y168526D01*
D02*
G37*
G36*
X201485D02*
X200484D01*
X199559Y168143D01*
X198851Y167435D01*
X198468Y166510D01*
Y165509D01*
X198851Y164584D01*
X199559Y163877D01*
X200484Y163494D01*
X201485D01*
X202409Y163877D01*
X203117Y164584D01*
X203500Y165509D01*
Y166510D01*
X203117Y167435D01*
X202409Y168143D01*
X201485Y168526D01*
D02*
G37*
G36*
X220992Y129511D02*
X219991D01*
X219066Y129128D01*
X218358Y128420D01*
X217975Y127496D01*
Y126495D01*
X218358Y125570D01*
X219066Y124862D01*
X219991Y124479D01*
X220992D01*
X221917Y124862D01*
X222624Y125570D01*
X223007Y126495D01*
Y127496D01*
X222624Y128420D01*
X221917Y129128D01*
X220992Y129511D01*
D02*
G37*
G36*
X227538Y129500D02*
X226537D01*
X225612Y129117D01*
X224904Y128409D01*
X224521Y127485D01*
Y126484D01*
X224904Y125559D01*
X225612Y124851D01*
X226537Y124468D01*
X227538D01*
X228462Y124851D01*
X229170Y125559D01*
X229553Y126484D01*
Y127485D01*
X229170Y128409D01*
X228462Y129117D01*
X227538Y129500D01*
D02*
G37*
G36*
X249428Y128516D02*
X248427D01*
X247502Y128133D01*
X246794Y127425D01*
X246411Y126501D01*
Y125499D01*
X246794Y124575D01*
X247502Y123867D01*
X248427Y123484D01*
X249428D01*
X250352Y123867D01*
X251060Y124575D01*
X251443Y125499D01*
Y126501D01*
X251060Y127425D01*
X250352Y128133D01*
X249428Y128516D01*
D02*
G37*
G36*
X207987Y123009D02*
X206986D01*
X206061Y122626D01*
X205354Y121918D01*
X204971Y120993D01*
Y119992D01*
X205354Y119068D01*
X206061Y118360D01*
X206986Y117977D01*
X207987D01*
X208912Y118360D01*
X209620Y119068D01*
X210003Y119992D01*
Y120993D01*
X209620Y121918D01*
X208912Y122626D01*
X207987Y123009D01*
D02*
G37*
G36*
X220992Y116506D02*
X219991D01*
X219066Y116123D01*
X218358Y115416D01*
X217975Y114491D01*
Y113490D01*
X218358Y112565D01*
X219066Y111857D01*
X219991Y111474D01*
X220992D01*
X221917Y111857D01*
X222624Y112565D01*
X223007Y113490D01*
Y114491D01*
X222624Y115416D01*
X221917Y116123D01*
X220992Y116506D01*
D02*
G37*
G36*
X220936Y110019D02*
X219935D01*
X219010Y109636D01*
X218303Y108928D01*
X217920Y108004D01*
Y107003D01*
X218303Y106078D01*
X219010Y105370D01*
X219935Y104987D01*
X220936D01*
X221861Y105370D01*
X222568Y106078D01*
X222952Y107003D01*
Y108004D01*
X222568Y108928D01*
X221861Y109636D01*
X220936Y110019D01*
D02*
G37*
G36*
X227500Y109981D02*
X226499D01*
X225574Y109598D01*
X224866Y108890D01*
X224483Y107965D01*
Y106965D01*
X224866Y106040D01*
X225574Y105332D01*
X226499Y104949D01*
X227500D01*
X228424Y105332D01*
X229132Y106040D01*
X229515Y106965D01*
Y107965D01*
X229132Y108890D01*
X228424Y109598D01*
X227500Y109981D01*
D02*
G37*
G36*
X233987Y103570D02*
X232986D01*
X232062Y103187D01*
X231354Y102479D01*
X230971Y101554D01*
Y100553D01*
X231354Y99629D01*
X232062Y98921D01*
X232986Y98538D01*
X233987D01*
X234912Y98921D01*
X235620Y99629D01*
X236003Y100553D01*
Y101554D01*
X235620Y102479D01*
X234912Y103187D01*
X233987Y103570D01*
D02*
G37*
G36*
X240499Y103502D02*
X239498D01*
X238573Y103119D01*
X237866Y102411D01*
X237483Y101486D01*
Y100485D01*
X237866Y99560D01*
X238573Y98853D01*
X239498Y98470D01*
X240499D01*
X241424Y98853D01*
X242132Y99560D01*
X242515Y100485D01*
Y101486D01*
X242132Y102411D01*
X241424Y103119D01*
X240499Y103502D01*
D02*
G37*
G36*
X320501Y102516D02*
X319500D01*
X318575Y102133D01*
X317867Y101426D01*
X317484Y100501D01*
Y99500D01*
X317867Y98575D01*
X318575Y97867D01*
X319500Y97484D01*
X320501D01*
X321426Y97867D01*
X322133Y98575D01*
X322516Y99500D01*
Y100501D01*
X322133Y101426D01*
X321426Y102133D01*
X320501Y102516D01*
D02*
G37*
G36*
X233997Y97025D02*
X232996D01*
X232071Y96642D01*
X231363Y95934D01*
X230980Y95009D01*
Y94008D01*
X231363Y93083D01*
X232071Y92376D01*
X232996Y91993D01*
X233997D01*
X234921Y92376D01*
X235629Y93083D01*
X236012Y94008D01*
Y95009D01*
X235629Y95934D01*
X234921Y96642D01*
X233997Y97025D01*
D02*
G37*
G36*
X310501Y82516D02*
X309500D01*
X308575Y82133D01*
X307867Y81426D01*
X307484Y80501D01*
Y79500D01*
X307867Y78575D01*
X308575Y77867D01*
X309500Y77484D01*
X310501D01*
X311426Y77867D01*
X312133Y78575D01*
X312516Y79500D01*
Y80501D01*
X312133Y81426D01*
X311426Y82133D01*
X310501Y82516D01*
D02*
G37*
G36*
X290501D02*
X289500D01*
X288575Y82133D01*
X287867Y81426D01*
X287484Y80501D01*
Y79500D01*
X287867Y78575D01*
X288575Y77867D01*
X289500Y77484D01*
X290501D01*
X291426Y77867D01*
X292133Y78575D01*
X292516Y79500D01*
Y80501D01*
X292133Y81426D01*
X291426Y82133D01*
X290501Y82516D01*
D02*
G37*
%LPD*%
D14*
X209205Y70750D02*
X226852Y88398D01*
X192500Y70750D02*
X209205D01*
X186780Y71780D02*
X190000Y75000D01*
X206680D01*
X226994Y95314D01*
X186780Y69312D02*
Y71780D01*
X226994Y95314D02*
Y100986D01*
X94382Y140349D02*
X94585D01*
X97893Y143658D01*
X97267Y135647D02*
Y135934D01*
X99972Y138639D02*
X103408D01*
X97267Y135934D02*
X99972Y138639D01*
X97893Y143658D02*
X105487D01*
X142139Y140317D02*
X142418Y140038D01*
X138503Y135019D02*
X144497D01*
X103408Y138639D02*
X106749Y135298D01*
X105487Y143658D02*
X108868Y140277D01*
X111584D01*
X148997Y139520D02*
Y139978D01*
X106749Y135298D02*
X138224D01*
X138503Y135019D01*
X144497D02*
X148997Y139520D01*
X111623Y140317D02*
X142139D01*
X111584Y140277D02*
X111623Y140317D01*
X151923Y70343D02*
X171819Y90239D01*
X52750Y104131D02*
X86537Y70343D01*
X151923D01*
X39750Y113000D02*
X85250Y67500D01*
X155165D02*
X181613Y93948D01*
X85250Y67500D02*
X155165D01*
X52750Y104131D02*
Y113000D01*
X128626Y183374D02*
Y196091D01*
X130080Y168671D02*
X137174Y175765D01*
X158681D01*
X130080Y162759D02*
Y168671D01*
X171819Y90239D02*
Y91323D01*
X175057Y94561D01*
X181613Y93948D02*
Y94509D01*
X124731Y91696D02*
Y96308D01*
Y91696D02*
X125735Y90692D01*
X124731Y96308D02*
X148959Y120536D01*
X125735Y79705D02*
X126116Y79325D01*
X125735Y79705D02*
Y90692D01*
X128626Y183374D02*
X129679Y182321D01*
X152208D02*
X155486Y185599D01*
X129679Y182321D02*
X152208D01*
X158681Y175765D02*
X161959Y179043D01*
D82*
X97267Y135647D02*
D03*
X94382Y140349D02*
D03*
X142418Y140038D02*
D03*
X269758Y59450D02*
D03*
X271379Y459229D02*
D03*
X322989Y139819D02*
D03*
X316274Y137805D02*
D03*
X114620Y74372D02*
D03*
X182750Y431500D02*
D03*
X8031Y431344D02*
D03*
X7001Y444516D02*
D03*
X7516Y457998D02*
D03*
X7825Y471376D02*
D03*
X7734Y485166D02*
D03*
X262072Y129905D02*
D03*
X262079Y169643D02*
D03*
Y163478D02*
D03*
X195421Y259843D02*
D03*
X237780Y234273D02*
D03*
X227514Y223354D02*
D03*
X244985Y234894D02*
D03*
X237904Y241230D02*
D03*
X244861Y240981D02*
D03*
X220932Y216026D02*
D03*
X228250Y210500D02*
D03*
Y217000D02*
D03*
X148997Y139978D02*
D03*
X263621Y123880D02*
D03*
X341854Y135358D02*
D03*
X316884Y119333D02*
D03*
X322412Y125917D02*
D03*
X65291Y35088D02*
D03*
X236224Y74765D02*
D03*
X155493Y133498D02*
D03*
X200984Y113990D02*
D03*
X187979D02*
D03*
X175000D02*
D03*
X121509Y107800D02*
D03*
X155493Y146502D02*
D03*
X105312Y119745D02*
D03*
X221483Y460149D02*
D03*
X221583Y452360D02*
D03*
X339281Y462390D02*
D03*
X128626Y196091D02*
D03*
X181613Y94509D02*
D03*
X175057Y94561D02*
D03*
X39750Y113000D02*
D03*
X52750D02*
D03*
X126116Y79325D02*
D03*
X148959Y120536D02*
D03*
X161959Y179043D02*
D03*
X155486Y185599D02*
D03*
X130080Y162759D02*
D03*
X187979Y166010D02*
D03*
X207487Y153005D02*
D03*
X200984D02*
D03*
X213989D02*
D03*
X194482D02*
D03*
X175000Y146502D02*
D03*
X181477D02*
D03*
X168498Y153005D02*
D03*
X187979D02*
D03*
X168498Y146502D02*
D03*
X336596Y396467D02*
D03*
X336193Y402452D02*
D03*
X342572Y402630D02*
D03*
X336480Y456118D02*
D03*
X271888Y452734D02*
D03*
X181477Y133498D02*
D03*
X175000Y126995D02*
D03*
Y133498D02*
D03*
X168498Y126995D02*
D03*
X175000Y120493D02*
D03*
X181477D02*
D03*
Y126995D02*
D03*
X168498Y133498D02*
D03*
X187979Y126995D02*
D03*
X213989Y140000D02*
D03*
Y126995D02*
D03*
X220491Y120493D02*
D03*
X207491Y114022D02*
D03*
X213989Y113990D02*
D03*
X187979Y140000D02*
D03*
X194482D02*
D03*
X207487D02*
D03*
X200984D02*
D03*
X207487Y126995D02*
D03*
X200984D02*
D03*
X194482D02*
D03*
M02*
