G04*
G04 #@! TF.GenerationSoftware,Altium Limited,Altium Designer,26.8.1 (31)*
G04*
G04 Layer_Color=128*
G04 Board_Origin=4724409|16535433*
%FSLAX44Y44*%
%MOMM*%
G71*
G04*
G04 #@! TF.SameCoordinates,9F142E4A-C4AE-4B97-A2BD-9400E08D3EDC*
G04*
G04*
G04 #@! TF.FilePolarity,Positive*
G04*
G01*
G75*
%ADD34R,0.3250X0.2700*%
%ADD44R,1.9990X2.9997*%
%ADD45R,0.2997X1.3005*%
%ADD52R,0.5153X0.4725*%
%ADD53R,0.4725X0.5153*%
%ADD54R,0.7500X0.9000*%
%ADD55R,0.9000X0.7500*%
%ADD127C,1.0000*%
G04:AMPARAMS|DCode=131|XSize=0.3mm|YSize=0.45mm|CornerRadius=0.0495mm|HoleSize=0mm|Usage=FLASHONLY|Rotation=270.000|XOffset=0mm|YOffset=0mm|HoleType=Round|Shape=RoundedRectangle|*
%AMROUNDEDRECTD131*
21,1,0.3000,0.3510,0,0,270.0*
21,1,0.2010,0.4500,0,0,270.0*
1,1,0.0990,-0.1755,-0.1005*
1,1,0.0990,-0.1755,0.1005*
1,1,0.0990,0.1755,0.1005*
1,1,0.0990,0.1755,-0.1005*
%
%ADD131ROUNDEDRECTD131*%
%ADD132R,0.8000X0.9000*%
%ADD133R,0.8000X0.8000*%
G04:AMPARAMS|DCode=134|XSize=0.55mm|YSize=0.25mm|CornerRadius=0.05mm|HoleSize=0mm|Usage=FLASHONLY|Rotation=180.000|XOffset=0mm|YOffset=0mm|HoleType=Round|Shape=RoundedRectangle|*
%AMROUNDEDRECTD134*
21,1,0.5500,0.1500,0,0,180.0*
21,1,0.4500,0.2500,0,0,180.0*
1,1,0.1000,-0.2250,0.0750*
1,1,0.1000,0.2250,0.0750*
1,1,0.1000,0.2250,-0.0750*
1,1,0.1000,-0.2250,-0.0750*
%
%ADD134ROUNDEDRECTD134*%
G04:AMPARAMS|DCode=135|XSize=0.6mm|YSize=0.25mm|CornerRadius=0.05mm|HoleSize=0mm|Usage=FLASHONLY|Rotation=0.000|XOffset=0mm|YOffset=0mm|HoleType=Round|Shape=RoundedRectangle|*
%AMROUNDEDRECTD135*
21,1,0.6000,0.1500,0,0,0.0*
21,1,0.5000,0.2500,0,0,0.0*
1,1,0.1000,0.2500,-0.0750*
1,1,0.1000,-0.2500,-0.0750*
1,1,0.1000,-0.2500,0.0750*
1,1,0.1000,0.2500,0.0750*
%
%ADD135ROUNDEDRECTD135*%
G04:AMPARAMS|DCode=136|XSize=0.9mm|YSize=0.25mm|CornerRadius=0.05mm|HoleSize=0mm|Usage=FLASHONLY|Rotation=0.000|XOffset=0mm|YOffset=0mm|HoleType=Round|Shape=RoundedRectangle|*
%AMROUNDEDRECTD136*
21,1,0.9000,0.1500,0,0,0.0*
21,1,0.8000,0.2500,0,0,0.0*
1,1,0.1000,0.4000,-0.0750*
1,1,0.1000,-0.4000,-0.0750*
1,1,0.1000,-0.4000,0.0750*
1,1,0.1000,0.4000,0.0750*
%
%ADD136ROUNDEDRECTD136*%
%ADD138R,0.2800X0.3000*%
%ADD139R,0.7493X0.5004*%
%ADD140R,0.3000X0.2800*%
%ADD141R,0.9500X1.1506*%
G04:AMPARAMS|DCode=163|XSize=1mm|YSize=0.7mm|CornerRadius=0.049mm|HoleSize=0mm|Usage=FLASHONLY|Rotation=0.000|XOffset=0mm|YOffset=0mm|HoleType=Round|Shape=RoundedRectangle|*
%AMROUNDEDRECTD163*
21,1,1.0000,0.6020,0,0,0.0*
21,1,0.9020,0.7000,0,0,0.0*
1,1,0.0980,0.4510,-0.3010*
1,1,0.0980,-0.4510,-0.3010*
1,1,0.0980,-0.4510,0.3010*
1,1,0.0980,0.4510,0.3010*
%
%ADD163ROUNDEDRECTD163*%
G36*
X469500Y431250D02*
X469400D01*
X469217Y431174D01*
X469076Y431033D01*
X469000Y430849D01*
Y430750D01*
D01*
Y429250D01*
Y429151D01*
X469076Y428967D01*
X469217Y428826D01*
X469400Y428750D01*
X469500D01*
D01*
X474000D01*
X474099D01*
X474283Y428826D01*
X474424Y428967D01*
X474500Y429151D01*
Y429250D01*
D01*
Y430750D01*
Y430849D01*
X474424Y431033D01*
X474283Y431174D01*
X474099Y431250D01*
X474000D01*
D01*
X469500D01*
D02*
G37*
G36*
X482000Y430750D02*
Y430849D01*
X481924Y431033D01*
X481783Y431174D01*
X481599Y431250D01*
X481500D01*
D01*
X477000D01*
X476900D01*
X476717Y431174D01*
X476576Y431033D01*
X476500Y430849D01*
Y430750D01*
D01*
Y429250D01*
Y429151D01*
X476576Y428967D01*
X476717Y428826D01*
X476900Y428750D01*
X477000D01*
D01*
X481500D01*
X481599D01*
X481783Y428826D01*
X481924Y428967D01*
X482000Y429151D01*
Y429250D01*
D01*
Y430750D01*
D02*
G37*
G36*
X519500Y431250D02*
X519400D01*
X519217Y431174D01*
X519076Y431033D01*
X519000Y430849D01*
Y430750D01*
D01*
Y429250D01*
Y429151D01*
X519076Y428967D01*
X519217Y428826D01*
X519400Y428750D01*
X519500D01*
D01*
X524000D01*
X524099D01*
X524283Y428826D01*
X524424Y428967D01*
X524500Y429151D01*
Y429250D01*
D01*
Y430750D01*
Y430849D01*
X524424Y431033D01*
X524283Y431174D01*
X524099Y431250D01*
X524000D01*
D01*
X519500D01*
D02*
G37*
G36*
X528027Y366411D02*
X527927D01*
X527743Y366335D01*
X527603Y366194D01*
X527527Y366011D01*
Y365911D01*
D01*
Y364411D01*
Y364312D01*
X527603Y364128D01*
X527743Y363987D01*
X527927Y363911D01*
X528027D01*
D01*
X532527D01*
X532626D01*
X532810Y363987D01*
X532951Y364128D01*
X533027Y364312D01*
Y364411D01*
D01*
Y365911D01*
Y366011D01*
X532951Y366194D01*
X532810Y366335D01*
X532626Y366411D01*
X532527D01*
D01*
X528027D01*
D02*
G37*
G36*
X540527Y365911D02*
Y366011D01*
X540451Y366194D01*
X540310Y366335D01*
X540126Y366411D01*
X540027D01*
D01*
X535527D01*
X535427D01*
X535243Y366335D01*
X535103Y366194D01*
X535027Y366011D01*
Y365911D01*
D01*
Y364411D01*
Y364312D01*
X535103Y364128D01*
X535243Y363987D01*
X535427Y363911D01*
X535527D01*
D01*
X540027D01*
X540126D01*
X540310Y363987D01*
X540451Y364128D01*
X540527Y364312D01*
Y364411D01*
D01*
Y365911D01*
D02*
G37*
G36*
X532000Y430750D02*
Y430849D01*
X531924Y431033D01*
X531783Y431174D01*
X531599Y431250D01*
X531500D01*
D01*
X527000D01*
X526900D01*
X526717Y431174D01*
X526576Y431033D01*
X526500Y430849D01*
Y430750D01*
D01*
Y429250D01*
Y429151D01*
X526576Y428967D01*
X526717Y428826D01*
X526900Y428750D01*
X527000D01*
D01*
X531500D01*
X531599D01*
X531783Y428826D01*
X531924Y428967D01*
X532000Y429151D01*
Y429250D01*
D01*
Y430750D01*
D02*
G37*
D34*
X336011Y431559D02*
D03*
Y436559D02*
D03*
Y441559D02*
D03*
X342761D02*
D03*
Y436559D02*
D03*
Y431559D02*
D03*
D44*
X484444Y32930D02*
D03*
X346445D02*
D03*
D45*
X362930Y56425D02*
D03*
X367934D02*
D03*
X372938D02*
D03*
X377941D02*
D03*
X382945D02*
D03*
X387949D02*
D03*
X392927D02*
D03*
X397931D02*
D03*
X467934D02*
D03*
X462930D02*
D03*
X457951D02*
D03*
X452948D02*
D03*
X447944D02*
D03*
X442940D02*
D03*
X437936D02*
D03*
X432932D02*
D03*
X427929D02*
D03*
X422950D02*
D03*
X417946D02*
D03*
X412943D02*
D03*
X407939D02*
D03*
X402935D02*
D03*
D52*
X398878Y318725D02*
D03*
X406449D02*
D03*
X347316Y477157D02*
D03*
X339744D02*
D03*
X361717Y107839D02*
D03*
X369289D02*
D03*
X336344Y120001D02*
D03*
X343916D02*
D03*
X346161Y74609D02*
D03*
X353732D02*
D03*
X268725Y407561D02*
D03*
X276297D02*
D03*
X361997Y134718D02*
D03*
X369569D02*
D03*
X527294Y38211D02*
D03*
X519722D02*
D03*
X289577Y194309D02*
D03*
X297148D02*
D03*
X369223Y124557D02*
D03*
X361652D02*
D03*
X555494Y190257D02*
D03*
X547923D02*
D03*
X392929Y200689D02*
D03*
X400500D02*
D03*
X556673Y221437D02*
D03*
X549102D02*
D03*
X344260Y134100D02*
D03*
X351832D02*
D03*
X290262Y167617D02*
D03*
X297833D02*
D03*
X550000Y325000D02*
D03*
X557571D02*
D03*
X362047Y162610D02*
D03*
X369618D02*
D03*
X577613Y387359D02*
D03*
X570042D02*
D03*
X578553Y449201D02*
D03*
X570982D02*
D03*
X594148Y449290D02*
D03*
X586576D02*
D03*
X455578Y200358D02*
D03*
X463149D02*
D03*
X303071Y35061D02*
D03*
X295500D02*
D03*
X418929Y213689D02*
D03*
X426500D02*
D03*
X452422Y210306D02*
D03*
X444851D02*
D03*
X439998Y200276D02*
D03*
X447569D02*
D03*
X593949Y387136D02*
D03*
X586378D02*
D03*
X553684Y395226D02*
D03*
X546112D02*
D03*
X369766Y152313D02*
D03*
X362195D02*
D03*
X388483Y146665D02*
D03*
X380912D02*
D03*
X385239Y133519D02*
D03*
X377668D02*
D03*
X377765Y293134D02*
D03*
X385336D02*
D03*
X540915Y70096D02*
D03*
X533344D02*
D03*
D53*
X365660Y223116D02*
D03*
Y230687D02*
D03*
X309649Y530264D02*
D03*
Y522692D02*
D03*
X289054Y492019D02*
D03*
Y499590D02*
D03*
X594666Y357958D02*
D03*
Y365530D02*
D03*
X593749Y418909D02*
D03*
Y426480D02*
D03*
X441677Y317282D02*
D03*
Y309711D02*
D03*
X411572Y366793D02*
D03*
Y374364D02*
D03*
X531310Y279774D02*
D03*
Y272203D02*
D03*
X569370Y290946D02*
D03*
Y283375D02*
D03*
X546607Y292953D02*
D03*
Y285382D02*
D03*
X321509Y20470D02*
D03*
Y28041D02*
D03*
X321713Y45922D02*
D03*
Y38351D02*
D03*
X321943Y56307D02*
D03*
Y63878D02*
D03*
X541193Y51731D02*
D03*
Y59302D02*
D03*
X525990Y51855D02*
D03*
Y59426D02*
D03*
X510353Y52049D02*
D03*
Y59620D02*
D03*
X506907Y371216D02*
D03*
Y378787D02*
D03*
X504157Y354303D02*
D03*
Y361874D02*
D03*
X368306Y195903D02*
D03*
Y203474D02*
D03*
X304939Y110321D02*
D03*
Y102750D02*
D03*
X279689Y110321D02*
D03*
Y102750D02*
D03*
X428196Y193347D02*
D03*
Y200919D02*
D03*
X447911Y434592D02*
D03*
Y442164D02*
D03*
X445512Y417310D02*
D03*
Y424881D02*
D03*
X497943Y434058D02*
D03*
Y441629D02*
D03*
X375061Y261179D02*
D03*
Y268750D02*
D03*
X360061Y261179D02*
D03*
Y268750D02*
D03*
X360061Y241926D02*
D03*
Y249497D02*
D03*
X368306Y172626D02*
D03*
Y180197D02*
D03*
X496029Y416707D02*
D03*
Y424278D02*
D03*
X349490Y316454D02*
D03*
Y308883D02*
D03*
X404939Y353811D02*
D03*
Y346240D02*
D03*
X391356Y379738D02*
D03*
Y387309D02*
D03*
D54*
X322250Y80000D02*
D03*
X337750D02*
D03*
X361743Y91061D02*
D03*
X346243D02*
D03*
X400056Y330997D02*
D03*
X415556D02*
D03*
D55*
X365000Y437750D02*
D03*
Y422250D02*
D03*
D127*
X308383Y491459D02*
D03*
Y471459D02*
D03*
Y451459D02*
D03*
Y431459D02*
D03*
Y411459D02*
D03*
Y511459D02*
D03*
D131*
X436456Y380130D02*
D03*
X455956Y367130D02*
D03*
X436456D02*
D03*
Y373630D02*
D03*
X455956Y380130D02*
D03*
Y373630D02*
D03*
X470250Y306500D02*
D03*
X489750Y293500D02*
D03*
X470250D02*
D03*
Y300000D02*
D03*
X489750Y306500D02*
D03*
Y300000D02*
D03*
D132*
X424614Y383537D02*
D03*
Y366537D02*
D03*
X457058Y311146D02*
D03*
Y294146D02*
D03*
D133*
X537581Y306237D02*
D03*
Y321237D02*
D03*
D134*
X582352Y433806D02*
D03*
Y428806D02*
D03*
Y423806D02*
D03*
Y418806D02*
D03*
X568853D02*
D03*
Y423806D02*
D03*
Y428806D02*
D03*
Y433806D02*
D03*
X581902Y372446D02*
D03*
Y367446D02*
D03*
Y362446D02*
D03*
Y357446D02*
D03*
X568402D02*
D03*
Y362446D02*
D03*
Y367446D02*
D03*
Y372446D02*
D03*
D135*
X511000Y420000D02*
D03*
Y425000D02*
D03*
Y430000D02*
D03*
Y435000D02*
D03*
Y440000D02*
D03*
X519527Y355161D02*
D03*
Y360161D02*
D03*
Y365161D02*
D03*
Y370161D02*
D03*
Y375161D02*
D03*
X461000Y420000D02*
D03*
Y425000D02*
D03*
Y430000D02*
D03*
Y435000D02*
D03*
Y440000D02*
D03*
D136*
X527500D02*
D03*
Y435000D02*
D03*
Y425000D02*
D03*
Y420000D02*
D03*
X536027Y375161D02*
D03*
Y370161D02*
D03*
Y360161D02*
D03*
Y355161D02*
D03*
X477500Y440000D02*
D03*
Y435000D02*
D03*
Y425000D02*
D03*
Y420000D02*
D03*
D138*
X376689Y113947D02*
D03*
X381990D02*
D03*
X401145Y159550D02*
D03*
X395845D02*
D03*
X454581Y113995D02*
D03*
X459881D02*
D03*
X461215Y140048D02*
D03*
X466515D02*
D03*
X454625Y126627D02*
D03*
X459925D02*
D03*
X459922Y120378D02*
D03*
X454622D02*
D03*
X435109Y172468D02*
D03*
X440410D02*
D03*
X427410Y178975D02*
D03*
X422109D02*
D03*
X453402Y185505D02*
D03*
X448102D02*
D03*
X414417Y192046D02*
D03*
X409117D02*
D03*
X414445Y185627D02*
D03*
X409145D02*
D03*
X446887Y192046D02*
D03*
X441587D02*
D03*
X395781Y133563D02*
D03*
X401081D02*
D03*
X395796Y146616D02*
D03*
X401096D02*
D03*
X401147Y153066D02*
D03*
X395847D02*
D03*
X402646Y113900D02*
D03*
X407946D02*
D03*
X401496Y120365D02*
D03*
X396196D02*
D03*
X394874Y126966D02*
D03*
X389574D02*
D03*
X408996Y140198D02*
D03*
X414296D02*
D03*
X414411Y120420D02*
D03*
X409111D02*
D03*
X408032Y126947D02*
D03*
X402732D02*
D03*
X401038Y140039D02*
D03*
X395738D02*
D03*
X440378Y114031D02*
D03*
X435078D02*
D03*
D139*
X385974Y329232D02*
D03*
X365959D02*
D03*
X385974Y319224D02*
D03*
X365959D02*
D03*
X385974Y309216D02*
D03*
X365959D02*
D03*
D140*
X415005Y113381D02*
D03*
Y108081D02*
D03*
X401991Y166571D02*
D03*
Y171871D02*
D03*
X460456Y160094D02*
D03*
Y165394D02*
D03*
X460477Y152515D02*
D03*
Y147215D02*
D03*
X447482Y113514D02*
D03*
Y108214D02*
D03*
X447404Y159981D02*
D03*
Y165281D02*
D03*
X440840Y160019D02*
D03*
Y165319D02*
D03*
X421350Y160443D02*
D03*
Y165743D02*
D03*
X427962Y166626D02*
D03*
Y171926D02*
D03*
X415078Y160193D02*
D03*
Y165493D02*
D03*
X440916Y126443D02*
D03*
Y121143D02*
D03*
X408261Y153672D02*
D03*
Y158972D02*
D03*
X427809Y126443D02*
D03*
Y121143D02*
D03*
X421529Y119755D02*
D03*
Y114455D02*
D03*
X421470Y134175D02*
D03*
Y139475D02*
D03*
X447388Y126497D02*
D03*
Y121197D02*
D03*
X434390Y126470D02*
D03*
Y121170D02*
D03*
X447542Y139403D02*
D03*
Y134103D02*
D03*
X440826Y139403D02*
D03*
Y134103D02*
D03*
X434491Y139485D02*
D03*
Y134185D02*
D03*
X428073Y139499D02*
D03*
Y134199D02*
D03*
X441069Y152647D02*
D03*
Y147347D02*
D03*
X447814Y152646D02*
D03*
Y147346D02*
D03*
X454068Y139349D02*
D03*
Y134049D02*
D03*
X421554Y147379D02*
D03*
Y152678D02*
D03*
X427829Y152631D02*
D03*
Y147331D02*
D03*
X434543Y152700D02*
D03*
Y147400D02*
D03*
X414808Y147295D02*
D03*
Y152595D02*
D03*
X454231Y152619D02*
D03*
Y147319D02*
D03*
X427972Y113310D02*
D03*
Y108011D02*
D03*
X388922Y113643D02*
D03*
Y108343D02*
D03*
D141*
X286094Y157418D02*
D03*
X252236D02*
D03*
D163*
X446206Y369130D02*
D03*
Y378130D02*
D03*
X480000Y295500D02*
D03*
Y304500D02*
D03*
M02*
