G04*
G04 #@! TF.GenerationSoftware,Altium Limited,Altium Designer,26.8.1 (31)*
G04*
G04 Layer_Physical_Order=5*
G04 Layer_Color=16737945*
G04 Board_Origin=14173228|16535433*
%FSLAX44Y44*%
%MOMM*%
G71*
G04*
G04 #@! TF.SameCoordinates,052879A6-1AC8-4D96-B3AC-167BFAB021D9*
G04*
G04*
G04 #@! TF.FilePolarity,Positive*
G04*
G01*
G75*
%ADD14C,0.1524*%
%ADD83C,0.4501*%
%ADD88C,0.7620*%
%ADD90C,1.0160*%
D14*
X126229Y150824D02*
X129081Y147972D01*
X130665Y154046D02*
X135142Y158523D01*
X130491Y154046D02*
X130665D01*
X126229Y150824D02*
Y159771D01*
X124250Y161750D02*
X126229Y159771D01*
X113526Y175664D02*
X113608D01*
X116848Y172424D01*
Y168143D02*
Y172424D01*
X122109Y124417D02*
X127213D01*
X117590Y125925D02*
X123592Y131927D01*
Y136655D01*
X117590Y121656D02*
Y125925D01*
X121852Y124159D02*
X122109Y124417D01*
X110921Y114987D02*
X117590Y121656D01*
X108000Y100737D02*
Y116197D01*
X120671Y132999D02*
Y137865D01*
X114965Y123162D02*
Y127293D01*
X110921Y101947D02*
Y114987D01*
X114965Y127293D02*
X120671Y132999D01*
X108000Y116197D02*
X114965Y123162D01*
X178983Y197168D02*
X179553Y197738D01*
X178983Y193994D02*
Y197168D01*
X178278Y183278D02*
Y193289D01*
X178983Y193994D01*
X95641Y134265D02*
X96855Y135480D01*
X90812Y130064D02*
X91308D01*
X93563Y138494D02*
X94631Y139562D01*
X89624Y134128D02*
X93563Y138067D01*
X91308Y130064D02*
X95508Y134265D01*
X94631Y139562D02*
Y140367D01*
X89128Y134128D02*
X89624D01*
X96855Y135480D02*
X97661D01*
X95508Y134265D02*
X95641D01*
X93563Y138067D02*
Y138494D01*
X75657Y120657D02*
X89128Y134128D01*
X51677Y413444D02*
X85508Y379613D01*
X51442Y430325D02*
X51677Y430090D01*
Y413444D02*
Y430090D01*
X296683Y5936D02*
X338940Y48193D01*
X334876Y49876D02*
Y149527D01*
X328246Y156156D02*
X334876Y149527D01*
X295000Y10000D02*
X334876Y49876D01*
X332310Y157840D02*
X338940Y151210D01*
Y48193D02*
Y151210D01*
X140000Y355473D02*
X140473Y355000D01*
X140000Y355473D02*
Y388368D01*
X132869Y358539D02*
X136211Y355197D01*
Y293237D02*
Y355197D01*
X130112Y354669D02*
X130345Y354902D01*
X130112Y358667D02*
Y370124D01*
X119862Y380374D02*
X130112Y370124D01*
X132869Y358539D02*
Y402983D01*
X124214Y411638D02*
X132869Y402983D01*
X130112Y358667D02*
X130345Y358433D01*
X130112Y336435D02*
Y354669D01*
X130345Y354902D02*
Y358433D01*
X50070Y442679D02*
X51442Y441307D01*
X50070Y442679D02*
Y446036D01*
X49500Y446606D02*
X50070Y446036D01*
X51442Y430325D02*
Y441307D01*
X290900Y398100D02*
X293092Y395908D01*
X215000Y401517D02*
X215893Y400624D01*
X215000Y401517D02*
Y415678D01*
X309376Y400624D02*
X325000Y385000D01*
X266841Y400893D02*
X267110Y400624D01*
X215893D02*
X267110D01*
X190150Y398100D02*
X290900D01*
X176921Y411329D02*
X190150Y398100D01*
X267110Y400624D02*
X309376D01*
X215000Y415678D02*
X217822Y418500D01*
X266841Y400893D02*
Y418620D01*
X189360Y438374D02*
X190702Y439716D01*
X176921Y411329D02*
Y415895D01*
X189360Y428334D01*
Y438374D01*
X137953Y390415D02*
Y427047D01*
Y390415D02*
X140000Y388368D01*
X134767Y430234D02*
X137953Y427047D01*
X240295Y80000D02*
X244063Y83768D01*
X234548Y80000D02*
X239999Y85451D01*
X228440Y73893D02*
X234548Y80000D01*
X230124Y69829D02*
X240295Y80000D01*
X218848Y67445D02*
X225296Y73893D01*
X244063Y83768D02*
Y102669D01*
X218848Y66998D02*
Y67445D01*
X225296Y73893D02*
X228440D01*
X226980Y69829D02*
X230124D01*
X239999Y85451D02*
Y100986D01*
X224598Y67448D02*
X226980Y69829D01*
X224598Y67065D02*
Y67448D01*
X214585Y60374D02*
Y72870D01*
X215968Y80000D02*
X218590Y82622D01*
X224649Y88788D02*
X226078D01*
X226332Y84724D02*
X227762D01*
X218590Y82729D02*
X224649Y88788D01*
X210520Y74553D02*
X215968Y80000D01*
X218590Y82622D02*
Y82729D01*
X221715Y80000D02*
X222654Y80939D01*
X210520Y58690D02*
Y74553D01*
X222654Y81046D02*
X226332Y84724D01*
X227762D02*
X230142Y87105D01*
X214585Y72870D02*
X221715Y80000D01*
X222654Y80939D02*
Y81046D01*
X230142Y87105D02*
Y91554D01*
X209220Y88345D02*
Y96039D01*
X212223Y79926D02*
X212297Y80000D01*
X212002Y85458D02*
X215877Y89333D01*
X212002Y85453D02*
Y85458D01*
X209049Y88174D02*
X209220Y88345D01*
X212297Y80000D02*
X216066Y83769D01*
Y83774D02*
X219941Y87649D01*
X215877Y89333D02*
Y96343D01*
X210540Y83990D02*
X212002Y85453D01*
X219941Y87649D02*
Y94016D01*
X208405Y79926D02*
X212223D01*
X206722Y83990D02*
X210540D01*
X226536Y95161D02*
X230142Y91554D01*
X216066Y83769D02*
Y83774D01*
X226536Y95161D02*
Y100528D01*
X332310Y157840D02*
Y163437D01*
X282289Y180936D02*
X303905D01*
X310697Y185051D02*
X332310Y163437D01*
X303956Y180986D02*
X309014D01*
X302272Y185051D02*
X310697D01*
X302222Y185000D02*
X302272Y185051D01*
X328246Y156156D02*
Y161754D01*
X283973Y185000D02*
X302222D01*
X303905Y180936D02*
X303956Y180986D01*
X309014D02*
X328246Y161754D01*
X69553Y19700D02*
Y100050D01*
X73617Y21383D02*
Y98366D01*
X69553Y100050D02*
X75657Y106153D01*
X73617Y98366D02*
X79721Y104470D01*
X73617Y21383D02*
X85000Y10000D01*
X69553Y19700D02*
X83317Y5936D01*
X263668Y205304D02*
X283973Y185000D01*
X259259Y210500D02*
X259828Y209930D01*
X259142Y199301D02*
X259947D01*
X259828Y207948D02*
Y209930D01*
X262472Y205304D02*
X263668D01*
X259828Y207948D02*
X262472Y205304D01*
X261086Y200440D02*
X262785D01*
X259947Y199301D02*
X261086Y200440D01*
X262785D02*
X282289Y180936D01*
X252003Y116718D02*
X258474Y123189D01*
X250000Y120717D02*
X250595Y121312D01*
X253028D01*
X255950Y124235D01*
X247673Y115021D02*
X250017Y112677D01*
X247673Y118390D02*
X250000Y120717D01*
X255145Y128570D02*
Y186933D01*
X247673Y115021D02*
Y118390D01*
X257669Y129616D02*
Y189950D01*
X258474Y123189D02*
Y128811D01*
X255145Y128570D02*
X255950Y127765D01*
Y124235D02*
Y127765D01*
X250247Y191831D02*
X255145Y186933D01*
X257669Y129616D02*
X258474Y128811D01*
X105763Y169969D02*
X112439D01*
X58744Y171021D02*
X62528Y167238D01*
X103032D02*
X105763Y169969D01*
X62528Y167238D02*
X103032D01*
X226536Y100528D02*
X226994Y100986D01*
X55156Y173252D02*
X57387Y171021D01*
X39212Y174145D02*
X40105Y173252D01*
X39212Y174145D02*
Y215093D01*
X56916Y160000D02*
X108705D01*
X36672Y171870D02*
X43813Y164728D01*
X40105Y173252D02*
X55156D01*
X52188Y164728D02*
X56916Y160000D01*
X43813Y164728D02*
X52188D01*
X53709Y179872D02*
Y182238D01*
X56836Y176745D02*
X56885D01*
X53709Y179872D02*
X56836Y176745D01*
X58031Y181577D02*
X58601Y181007D01*
X57387Y171021D02*
X58744D01*
X58031Y181577D02*
Y184496D01*
X58347Y175283D02*
X59152D01*
X56885Y176745D02*
X58347Y175283D01*
X53140Y182808D02*
X53709Y182238D01*
X54041Y188487D02*
X58031Y184496D01*
X309262Y435893D02*
X310155Y435000D01*
X325000D01*
X265738Y452255D02*
X267174Y450818D01*
Y440502D02*
Y450818D01*
X134767Y430234D02*
Y430530D01*
X87992Y45738D02*
X110434D01*
X88024Y39664D02*
X94376Y33312D01*
X110434Y45738D02*
X123507Y58811D01*
X87857Y39664D02*
X88024D01*
X129752Y44055D02*
Y46568D01*
X136751Y53566D01*
X138813D01*
X170985Y76596D02*
X174389Y80000D01*
X170985Y71031D02*
Y76596D01*
Y71031D02*
X171634Y70382D01*
X175049Y74913D02*
X195900Y95764D01*
X174389Y80000D02*
X194216Y99828D01*
X176573Y71190D02*
X179060D01*
X175049Y72714D02*
Y74913D01*
X171634Y67624D02*
Y70382D01*
X179060Y71190D02*
X179500Y70750D01*
X175049Y72714D02*
X176573Y71190D01*
X171634Y67624D02*
X171939Y67319D01*
X204275Y43112D02*
X212713Y51550D01*
X216777Y49867D02*
Y58181D01*
X214585Y60374D02*
X216777Y58181D01*
X205958Y39048D02*
X216777Y49867D01*
X190550Y40440D02*
X193562D01*
X212713Y51550D02*
Y56498D01*
X194954Y39048D02*
X205958D01*
X189980Y41010D02*
X190550Y40440D01*
X193562D02*
X194954Y39048D01*
X196637Y43112D02*
X204275D01*
X193111Y45833D02*
X193917D01*
X196637Y43112D01*
X205669Y67921D02*
Y69470D01*
X200508Y66865D02*
X201078Y67434D01*
X205330Y73160D02*
X205405Y73084D01*
X201078Y67434D02*
Y68982D01*
X201341Y69246D01*
X205330Y73160D02*
Y76851D01*
X205405Y69733D02*
Y73084D01*
X215877Y96343D02*
X220474Y100939D01*
X205669Y67921D02*
X206238Y67352D01*
X201266Y78534D02*
X206722Y83990D01*
X201266Y71476D02*
Y78534D01*
Y71476D02*
X201341Y71401D01*
X205405Y69733D02*
X205669Y69470D01*
X201341Y69246D02*
Y71401D01*
X205330Y76851D02*
X208405Y79926D01*
X210520Y58690D02*
X212713Y56498D01*
X319625Y369936D02*
Y382460D01*
X319220Y369532D02*
X319625Y369936D01*
X319220Y347345D02*
Y369532D01*
Y347345D02*
X320780Y345785D01*
X319782Y317586D02*
Y322600D01*
X320780Y323599D01*
X306177Y395908D02*
X319625Y382460D01*
X320780Y323599D02*
Y345785D01*
X151914Y86259D02*
X152807Y87153D01*
X154341D01*
X143750Y85690D02*
X144320Y86259D01*
X151914D01*
X168128Y100939D02*
X168498D01*
X154341Y87153D02*
X168128Y100939D01*
X87639Y224361D02*
X108000Y204000D01*
X87639Y224361D02*
Y269053D01*
X30000Y326692D02*
X87639Y269053D01*
X178298Y97841D02*
X181473Y101016D01*
X178298Y95956D02*
X178335Y95919D01*
Y93203D02*
Y95919D01*
X178298Y93052D02*
Y93167D01*
X178335Y93203D01*
X178298Y95956D02*
Y97841D01*
X138813Y53566D02*
X178298Y93052D01*
X119009Y33312D02*
X129752Y44055D01*
X94376Y33312D02*
X119009D01*
X152215Y112633D02*
Y115335D01*
X150295Y117255D02*
X152215Y115335D01*
X127213Y124417D02*
X134748Y116881D01*
X140857Y116539D02*
X144194D01*
X144910Y117255D01*
X140515Y116881D02*
X140857Y116539D01*
X134748Y116881D02*
X140515D01*
X144910Y117255D02*
X150295D01*
X154135Y110712D02*
X163353D01*
X164895Y110992D02*
X168422Y107465D01*
X152215Y112633D02*
X154135Y110712D01*
X163632Y110992D02*
X164895D01*
X163353Y110712D02*
X163632Y110992D01*
X144080Y202901D02*
X150974Y209794D01*
X144080Y190038D02*
Y202901D01*
Y190038D02*
X148519Y185599D01*
X148893D01*
X171742Y97696D02*
X174985Y100939D01*
X139852Y58811D02*
X171352Y90310D01*
Y97049D01*
X171742Y97439D02*
Y97696D01*
X171352Y97049D02*
X171742Y97439D01*
X123507Y58811D02*
X139852D01*
X123751Y317131D02*
Y334204D01*
X136540Y156329D02*
X146254Y166043D01*
X136540Y153635D02*
Y156329D01*
X146254Y166043D02*
X155562D01*
X133386Y170876D02*
Y203603D01*
X130462Y167952D02*
X133386Y170876D01*
X130877Y147972D02*
X136540Y153635D01*
X129081Y147972D02*
X130877D01*
X127202Y167952D02*
X130462D01*
X125611Y166361D02*
X127202Y167952D01*
X125611Y164513D02*
Y166361D01*
X124250Y163152D02*
X125611Y164513D01*
X124250Y161750D02*
Y163152D01*
X125251Y211738D02*
X133386Y203603D01*
X125251Y211738D02*
Y235920D01*
X127551Y238220D02*
Y261665D01*
X125251Y235920D02*
X127551Y238220D01*
X128158Y273080D02*
Y293445D01*
X127551Y261665D02*
X129490Y263604D01*
Y271748D01*
X128158Y273080D02*
X129490Y271748D01*
X128158Y293445D02*
X130032Y295320D01*
Y310849D01*
X123751Y317131D02*
X130032Y310849D01*
X126341Y347529D02*
X127500Y346369D01*
X123751Y334204D02*
X127500Y337954D01*
Y346369D01*
X126341Y347529D02*
Y356410D01*
X126083Y356668D02*
X126341Y356410D01*
X199304Y88855D02*
X199873Y89425D01*
X203234D01*
X206891Y100408D02*
X207461Y100978D01*
X206891Y97302D02*
Y100408D01*
X203234Y89425D02*
X206680Y92871D01*
Y97091D01*
X206891Y97302D01*
X95872Y85173D02*
X100545Y80500D01*
X91980Y88913D02*
X95719Y85173D01*
X95872D01*
X118563Y72618D02*
X147962D01*
X116729Y70784D02*
X118563Y72618D01*
X105257Y80500D02*
X108771Y76986D01*
Y73984D02*
Y76986D01*
Y73984D02*
X111972Y70784D01*
X116729D01*
X100545Y80500D02*
X105257D01*
X147962Y72618D02*
X167323Y91979D01*
X110921Y101947D02*
X111814Y101054D01*
X121213Y164246D02*
X122690Y165723D01*
Y173174D01*
X121213Y148306D02*
X125192Y144328D01*
X121213Y148306D02*
Y164246D01*
X125192Y138255D02*
Y144328D01*
X123592Y136655D02*
X125192Y138255D01*
X121213Y252516D02*
Y266273D01*
X111814Y101054D02*
X161972D01*
X125892Y185539D02*
X126113Y185317D01*
X125605Y185539D02*
X125892D01*
X122330Y188813D02*
X125605Y185539D01*
X124630Y239429D02*
Y249100D01*
X122330Y188813D02*
Y237130D01*
X121213Y252516D02*
X124630Y249100D01*
X122330Y237130D02*
X124630Y239429D01*
X125554Y177099D02*
X126615D01*
X122971Y173455D02*
Y174516D01*
X125554Y177099D01*
X122690Y173174D02*
X122971Y173455D01*
X126113Y185317D02*
X128792D01*
X129684Y184425D01*
X126615Y177099D02*
X129684Y180168D01*
Y184425D01*
X98680Y376686D02*
Y385069D01*
X97330Y394214D02*
X113102Y409985D01*
X97330Y386419D02*
Y394214D01*
Y386419D02*
X98680Y385069D01*
Y376686D02*
X117750Y357617D01*
Y269736D02*
X121213Y266273D01*
X117750Y269736D02*
Y357617D01*
X121709Y426843D02*
X124748D01*
X113102Y418236D02*
X121709Y426843D01*
X113102Y409985D02*
Y418236D01*
X141236Y443330D02*
X144057D01*
X144216Y443171D02*
X148070D01*
X144057Y443330D02*
X144216Y443171D01*
X148070D02*
X148639Y442602D01*
X128469Y430460D02*
X133230Y435221D01*
Y435324D01*
X124748Y426843D02*
X128365Y430460D01*
X133230Y435324D02*
X141236Y443330D01*
X128365Y430460D02*
X128469D01*
X36672Y171870D02*
Y220264D01*
X56871Y240463D01*
X13722Y320283D02*
X40398Y293608D01*
X56871Y240463D02*
Y281129D01*
X44392Y293608D02*
X56871Y281129D01*
X40398Y293608D02*
X44392D01*
X108705Y160000D02*
X116848Y168143D01*
X116591Y81070D02*
X120633Y77027D01*
X116591Y81070D02*
Y84740D01*
X124803Y92953D01*
X128571D01*
X129141Y93522D01*
X62540Y242540D02*
Y279052D01*
X20579Y317019D02*
X41450Y296148D01*
X45444D02*
X62540Y279052D01*
X23829Y323040D02*
X78596Y268273D01*
X41450Y296148D02*
X45444D01*
X78596Y217154D02*
Y268273D01*
X20579Y317019D02*
Y423292D01*
X44840Y220721D02*
Y224840D01*
X62540Y242540D01*
X304881Y212524D02*
X305500D01*
X304690Y201626D02*
Y205606D01*
X304134Y206162D02*
X304690Y205606D01*
Y201626D02*
X309265Y197051D01*
X305500Y212524D02*
X309964Y208061D01*
Y203506D02*
Y208061D01*
X75657Y106153D02*
Y120657D01*
X79721Y104470D02*
Y118973D01*
X90812Y130064D01*
X85000Y10000D02*
X295000D01*
X83317Y5936D02*
X296683D01*
X325000Y375011D02*
Y385000D01*
Y375011D02*
X325011Y375000D01*
X209220Y96039D02*
X213651Y100470D01*
Y101275D01*
X194216Y99828D02*
X198980D01*
X200142Y94576D02*
X200947D01*
X198980Y99828D02*
X200168Y101016D01*
X195900Y95764D02*
X198954D01*
X200142Y94576D01*
X200168Y101016D02*
X200973D01*
X250528Y112677D02*
X258620Y104585D01*
X248994Y110137D02*
X256080Y103051D01*
X258620Y98880D02*
Y104585D01*
X253540Y96237D02*
X254250Y95527D01*
X253540Y96237D02*
Y101999D01*
X247942Y107597D02*
X253540Y101999D01*
X256080Y97289D02*
X257500Y95869D01*
X258620Y98880D02*
X260421Y97079D01*
X256080Y97289D02*
Y103051D01*
X251000Y63059D02*
Y100918D01*
X240037Y111881D02*
X251000Y100918D01*
X248965Y110137D02*
X248994D01*
X247913Y107597D02*
X247942D01*
X245117Y113985D02*
Y119426D01*
Y113985D02*
X248965Y110137D01*
X245117Y119426D02*
X248172Y122481D01*
X240037Y121530D02*
X242637Y124130D01*
X242577Y112933D02*
Y120478D01*
Y112933D02*
X247913Y107597D01*
X240037Y111881D02*
Y121530D01*
X250017Y112677D02*
X250528D01*
X242577Y120478D02*
X245632Y123533D01*
X241682Y105050D02*
X244063Y102669D01*
X235560Y102321D02*
X235587D01*
X234292Y101054D02*
X235560Y102321D01*
X235587D02*
X238315Y105050D01*
X233487Y101054D02*
X234292D01*
X238315Y105050D02*
X241682D01*
X248172Y154852D02*
X251329Y158009D01*
X220264Y172473D02*
X220264D01*
X219986Y176882D02*
X245632Y151236D01*
X248172Y122481D02*
Y154852D01*
X245632Y123533D02*
Y151236D01*
X242748Y149989D02*
X243083Y125229D01*
X220264Y172473D02*
X242748Y149989D01*
X243083Y124577D02*
Y125229D01*
X213929Y172473D02*
X220264D01*
X242637Y124130D02*
X243083Y124577D01*
X254250Y61403D02*
Y95527D01*
X219941Y94016D02*
X220397Y94472D01*
X144567Y43933D02*
X158500Y30000D01*
X210000D01*
X218250Y38250D02*
X228923D01*
X210000Y30000D02*
X218250Y38250D01*
X263190Y54703D02*
Y75021D01*
X263151Y54663D02*
X263190Y54703D01*
X257500Y60522D02*
Y95869D01*
X257058Y60080D02*
X257500Y60522D01*
X257058Y57342D02*
Y60080D01*
X256489Y56772D02*
X257058Y57342D01*
X233071Y33321D02*
X235320Y35570D01*
X221215Y33321D02*
X233071D01*
X235320Y35570D02*
Y39424D01*
X235693Y39797D02*
Y42845D01*
X235320Y39424D02*
X235693Y39797D01*
X228923Y38250D02*
X232771Y42099D01*
X214035Y191967D02*
X218620Y188909D01*
X249056Y188891D01*
X251329Y186618D01*
Y158009D02*
Y186618D01*
X260421Y96744D02*
Y97079D01*
X261869Y76342D02*
Y95296D01*
X260421Y96744D02*
X261869Y95296D01*
X235711Y191831D02*
X250247D01*
X220446Y193319D02*
X234223D01*
X235711Y191831D01*
X261869Y76342D02*
X263190Y75021D01*
X235693Y42845D02*
X254250Y61403D01*
X207523Y172473D02*
X211933Y176882D01*
X219986D01*
X232771Y42099D02*
Y44831D01*
X251000Y63059D01*
X293092Y395908D02*
X306177D01*
X134000Y291026D02*
X136211Y293237D01*
X126672Y332994D02*
X130112Y336435D01*
X183262Y315012D02*
X198950Y330700D01*
X213622D01*
X39212Y215093D02*
X44840Y220721D01*
X130690Y436915D02*
X140786Y447011D01*
X130690Y436273D02*
Y436915D01*
X123539Y429764D02*
X126774Y433000D01*
X127416D01*
X130690Y436273D01*
X250015Y247235D02*
Y269949D01*
X18188Y425683D02*
X20579Y423292D01*
X18188Y425683D02*
Y430945D01*
X227258Y184469D02*
X246920D01*
X266765Y161067D02*
Y185061D01*
X250839Y196780D02*
X257669Y189950D01*
X263780Y187921D02*
X263905Y187921D01*
X264210Y187616D01*
X266765Y185061D01*
X263469Y188230D02*
X263780Y187921D01*
X260035Y191715D02*
X263469Y188230D01*
X265277Y159579D02*
X266765Y161067D01*
X265277Y135999D02*
Y159579D01*
X224621Y181832D02*
X227258Y184469D01*
X254250Y198131D02*
Y211727D01*
X250839Y196780D02*
Y214792D01*
X254250Y198131D02*
X254250Y197500D01*
X260035Y191715D01*
X210276Y181832D02*
X224621D01*
X238722Y205205D02*
X246453Y196328D01*
X238722Y205205D02*
Y222778D01*
X183262Y282369D02*
X250839Y214792D01*
X189250Y272250D02*
X238722Y222778D01*
X137250Y272250D02*
X189250D01*
X183262Y282369D02*
Y315012D01*
X140786Y447011D02*
X151195D01*
X153049Y445157D01*
X190702Y439716D02*
Y445713D01*
X184354Y449953D02*
X186461D01*
X190702Y445713D01*
X182241Y452066D02*
X184354Y449953D01*
X132411Y259803D02*
Y263456D01*
Y259803D02*
X133162Y259052D01*
Y235960D02*
Y259052D01*
Y264206D02*
Y272208D01*
X132411Y263456D02*
X133162Y264206D01*
X131079Y274290D02*
X133162Y272208D01*
X134000Y275500D02*
X137250Y272250D01*
X134000Y275500D02*
Y291026D01*
X131079Y274290D02*
Y292235D01*
X133671Y294827D01*
X128172Y230971D02*
X133162Y235960D01*
X153049Y438963D02*
Y445157D01*
X148182Y434095D02*
X153049Y438963D01*
X186000Y415250D02*
X197946Y427196D01*
X181436Y452066D02*
X182241D01*
X113181Y403829D02*
X120991Y411638D01*
X124214D01*
X110181Y419446D02*
X120499Y429764D01*
X88567Y402317D02*
X104750Y418500D01*
X120499Y429764D02*
X123539D01*
X110181Y411195D02*
Y419446D01*
X260750Y218227D02*
Y236500D01*
X250015Y247235D02*
X260750Y236500D01*
X128172Y223500D02*
X137512Y214161D01*
X128172Y223500D02*
Y230971D01*
X114500Y206722D02*
X119409Y201812D01*
X95759Y375476D02*
X114500Y356736D01*
Y206722D02*
Y356736D01*
X126672Y318614D02*
X133671Y311614D01*
Y294827D02*
Y311614D01*
X220180Y200457D02*
X223253D01*
X216705Y196982D02*
X220180Y200457D01*
X201523Y196982D02*
X216705D01*
X197688Y193147D02*
X201523Y196982D01*
X197688Y176062D02*
Y193147D01*
X197062Y176062D02*
X197688D01*
X193074Y172074D02*
X197062Y176062D01*
X193074Y164612D02*
Y172074D01*
X187979Y159517D02*
X193074Y164612D01*
X89340Y335426D02*
X101115Y323651D01*
X89340Y335426D02*
Y373077D01*
X86419Y331980D02*
X109551Y308847D01*
X86419Y331980D02*
Y374287D01*
X89340Y373077D02*
X92838Y376576D01*
Y382649D01*
X91488Y383999D02*
X92838Y382649D01*
X91488Y383999D02*
Y398738D01*
X104750Y412000D01*
X86419Y374287D02*
X89917Y377786D01*
X95759Y375476D02*
Y383859D01*
X94409Y385209D02*
X95759Y383859D01*
X103250Y380374D02*
X119862D01*
X94409Y385209D02*
Y395424D01*
X110181Y411195D01*
X103090Y380534D02*
X103250Y380374D01*
X88567Y382789D02*
Y402317D01*
Y382789D02*
X89917Y381439D01*
Y377786D02*
Y381439D01*
X126672Y318614D02*
Y332994D01*
X135142Y158523D02*
Y164228D01*
X137685Y166772D01*
X137512Y179863D02*
X138404Y178970D01*
X148805D01*
X137512Y179863D02*
Y214161D01*
X129766Y87912D02*
X135038Y93184D01*
X152051Y98015D02*
X155509Y94557D01*
X108000Y100737D02*
X110722Y98015D01*
X135038Y93184D02*
Y93605D01*
X110722Y98015D02*
X152051D01*
X254250Y211727D02*
X260750Y218227D01*
X20250Y444500D02*
X23829Y440921D01*
Y323040D02*
Y440921D01*
X84718Y217532D02*
Y266282D01*
X26750Y324250D02*
X84718Y266282D01*
X26750Y324250D02*
Y451000D01*
X121000Y82914D02*
X125998Y87912D01*
X129766D01*
X207442Y178998D02*
X210276Y181832D01*
X120671Y137865D02*
X122271Y139465D01*
Y143118D01*
X118292Y147096D02*
Y165456D01*
Y147096D02*
X122271Y143118D01*
X148805Y178970D02*
X148878Y179043D01*
X178239Y182113D02*
Y183033D01*
X175044Y178919D02*
X178239Y182113D01*
X175044Y178892D02*
Y178919D01*
X154135Y175765D02*
X165351D01*
X168556Y178970D01*
X149870Y171500D02*
X154135Y175765D01*
X137685Y166772D02*
Y167793D01*
X141393Y171500D01*
X149870D01*
X119409Y194277D02*
Y201812D01*
X118035Y192903D02*
X119409Y194277D01*
X118035Y178667D02*
X119769Y176933D01*
X118035Y178667D02*
Y192903D01*
X118292Y165456D02*
X119769Y166933D01*
X23500Y454250D02*
X26750Y451000D01*
X84718Y217532D02*
X104750Y197500D01*
X78596Y217154D02*
X98250Y197500D01*
X119769Y166933D02*
Y176933D01*
X161965Y195761D02*
X166954Y200750D01*
X175085D01*
X161965Y185556D02*
Y195761D01*
X181835Y207500D02*
X193498D01*
X175085Y200750D02*
X181835Y207500D01*
X193498D02*
X195998Y210000D01*
X309262Y435893D02*
Y466765D01*
X268973Y465000D02*
X305000D01*
X265738Y452255D02*
Y461765D01*
X268973Y465000D01*
X30000Y326692D02*
Y460750D01*
X144036Y467250D02*
X163250D01*
X141520Y464734D02*
X144036Y467250D01*
X121501Y464734D02*
X141520D01*
X200153Y464000D02*
X208750D01*
X166119Y464381D02*
X199772D01*
X200153Y464000D01*
X163250Y467250D02*
X166119Y464381D01*
X197946Y427196D02*
Y459972D01*
X23500Y454250D02*
Y467250D01*
X104262Y470738D02*
X169428D01*
X172093Y473402D01*
X221746D02*
X224350Y470798D01*
X172093Y473402D02*
X221746D01*
X300000Y470000D02*
X306027D01*
X309262Y466765D01*
X224350Y470798D02*
X250761D01*
X20250Y470500D02*
X23500Y467250D01*
X88137Y486863D02*
X104262Y470738D01*
X172645Y477524D02*
X292476D01*
X300000Y470000D01*
X170121Y475000D02*
X172645Y477524D01*
X135000Y475000D02*
X170121D01*
X10500Y493250D02*
X13722Y490028D01*
Y320283D02*
Y490028D01*
X88137Y486863D02*
Y512232D01*
D83*
X130491Y154046D02*
D03*
X113526Y175664D02*
D03*
X121852Y124159D02*
D03*
X179553Y197738D02*
D03*
X94631Y140367D02*
D03*
X97661Y135480D02*
D03*
X140473Y355000D02*
D03*
X49500Y446606D02*
D03*
X209049Y88174D02*
D03*
X252003Y116718D02*
D03*
X226078Y88788D02*
D03*
X224598Y67065D02*
D03*
X218848Y66998D02*
D03*
X58601Y181007D02*
D03*
X59152Y175283D02*
D03*
X53140Y182808D02*
D03*
X54041Y188487D02*
D03*
X134767Y430530D02*
D03*
X106874Y437747D02*
D03*
X87992Y45738D02*
D03*
X87857Y39664D02*
D03*
X171939Y67319D02*
D03*
X193111Y45833D02*
D03*
X189980Y41010D02*
D03*
X200508Y66865D02*
D03*
X206238Y67352D02*
D03*
X143750Y85690D02*
D03*
X168498Y100939D02*
D03*
X108000Y204000D02*
D03*
X181473Y101016D02*
D03*
X168422Y107465D02*
D03*
X150974Y209794D02*
D03*
X148893Y185599D02*
D03*
X174985Y100939D02*
D03*
X155562Y166043D02*
D03*
X325000Y435000D02*
D03*
X126083Y356668D02*
D03*
X207461Y100978D02*
D03*
X199304Y88855D02*
D03*
X91980Y88913D02*
D03*
X167323Y91979D02*
D03*
X161972Y101054D02*
D03*
X148639Y442602D02*
D03*
X120633Y77027D02*
D03*
X129141Y93522D02*
D03*
X309265Y197051D02*
D03*
X309964Y203506D02*
D03*
X304881Y212524D02*
D03*
X304134Y206162D02*
D03*
X36987Y407666D02*
D03*
X181330Y444140D02*
D03*
X163631Y319013D02*
D03*
X285000Y390000D02*
D03*
X125102Y438588D02*
D03*
X325011Y375000D02*
D03*
X200947Y94576D02*
D03*
X213651Y101275D02*
D03*
X220397Y94472D02*
D03*
X233487Y101054D02*
D03*
X263151Y54663D02*
D03*
X256489Y56772D02*
D03*
X221215Y33321D02*
D03*
X179500Y70750D02*
D03*
X214035Y191967D02*
D03*
X200973Y101016D02*
D03*
X220446Y193319D02*
D03*
X207523Y172473D02*
D03*
X226994Y100986D02*
D03*
X213622Y330700D02*
D03*
X250015Y269949D02*
D03*
X239999Y100986D02*
D03*
X246920Y184469D02*
D03*
X265277Y135999D02*
D03*
X246453Y196328D02*
D03*
X186000Y415250D02*
D03*
X148182Y434095D02*
D03*
X104750Y418500D02*
D03*
X259259Y210500D02*
D03*
X259142Y199301D02*
D03*
X267174Y440502D02*
D03*
X266841Y418620D02*
D03*
X217822Y418500D02*
D03*
X220474Y100939D02*
D03*
X144567Y43933D02*
D03*
X213929Y172473D02*
D03*
X101115Y323651D02*
D03*
X103090Y380534D02*
D03*
X104750Y412000D02*
D03*
X109551Y308847D02*
D03*
X113181Y403829D02*
D03*
X135038Y93605D02*
D03*
X121000Y82914D02*
D03*
X148878Y179043D02*
D03*
X85508Y379613D02*
D03*
X104750Y197500D02*
D03*
X18188Y430945D02*
D03*
X98250Y197500D02*
D03*
X20250Y444500D02*
D03*
X112439Y169969D02*
D03*
X155509Y94557D02*
D03*
X187979Y159517D02*
D03*
X207442Y178998D02*
D03*
X195998Y210000D02*
D03*
X223253Y200457D02*
D03*
X319782Y317586D02*
D03*
X161965Y185556D02*
D03*
X168556Y178970D02*
D03*
X181436Y452066D02*
D03*
X175044Y178892D02*
D03*
X305000Y465000D02*
D03*
X30000Y460750D02*
D03*
X121501Y464734D02*
D03*
X197946Y459972D02*
D03*
X208750Y464000D02*
D03*
X135000Y475000D02*
D03*
X10500Y493250D02*
D03*
X20250Y470500D02*
D03*
X250761Y470798D02*
D03*
X17401Y504924D02*
D03*
X50568Y499315D02*
D03*
X70109Y512655D02*
D03*
X88137Y512232D02*
D03*
D88*
X40105Y410784D02*
Y453916D01*
X36987Y407666D02*
X40105Y410784D01*
X40000Y453916D02*
X109666D01*
X105000Y441972D02*
X106874Y440099D01*
Y437747D02*
Y440099D01*
X105000Y441972D02*
Y449250D01*
X125102Y453102D02*
X126250Y454250D01*
X125102Y438588D02*
Y453102D01*
X40200Y453916D02*
Y499800D01*
X17401Y504924D02*
X40000D01*
Y499315D02*
Y504924D01*
Y500000D02*
X40685Y499315D01*
X50568D01*
X56769D01*
X70109Y512655D01*
D90*
X182055Y442714D02*
X182161D01*
X187293Y391258D02*
X283742D01*
X285000Y390000D01*
X181420Y397131D02*
X187293Y391258D01*
X170557Y325567D02*
Y386807D01*
X180881Y397131D01*
X164004Y319013D02*
X170557Y325567D01*
X163631Y319013D02*
X164004D01*
X169682Y408331D02*
Y430340D01*
X182055Y442714D01*
X169682Y408331D02*
X180881Y397131D01*
X170063Y434957D02*
Y440937D01*
X180881Y397131D02*
X181420D01*
X109666Y453916D02*
X110000Y454250D01*
X156750D02*
X170063Y440937D01*
X126250Y454250D02*
X156750D01*
X110000D02*
X126250D01*
M02*
