G04*
G04 #@! TF.GenerationSoftware,Altium Limited,Altium Designer Agile,26.0.0 (14)*
G04*
G04 Layer_Physical_Order=5*
G04 Layer_Color=16737945*
%FSLAX44Y44*%
%MOMM*%
G71*
G04*
G04 #@! TF.SameCoordinates,0D045A4B-1190-48FA-AC4E-BF44F472733E*
G04*
G04*
G04 #@! TF.FilePolarity,Positive*
G04*
G01*
G75*
%ADD14C,0.1524*%
%ADD82C,0.4501*%
%ADD86C,0.7620*%
%ADD88C,1.0160*%
D14*
X56554Y172395D02*
X57461Y171487D01*
X40278Y172395D02*
X56554D01*
X58278Y171487D02*
X62209Y167557D01*
X99746D01*
X58395Y175516D02*
X59130D01*
X57461Y171487D02*
X58278D01*
X54171Y179741D02*
X58395Y175516D01*
X99746Y167557D02*
X99831Y167472D01*
X43813Y164728D02*
X52188D01*
X36672Y171870D02*
X43813Y164728D01*
X52188D02*
X56916Y160000D01*
X108705D02*
X116848Y168143D01*
X56916Y160000D02*
X108705D01*
X39212Y173461D02*
X40278Y172395D01*
X53601Y183400D02*
X54171Y182831D01*
X58031Y181156D02*
Y184667D01*
Y181156D02*
X58601Y180586D01*
X53786Y188912D02*
X58031Y184667D01*
X54171Y179741D02*
Y182831D01*
X53362Y188912D02*
X53786D01*
X62540Y242540D02*
Y279052D01*
X13722Y320283D02*
Y490028D01*
X40398Y293608D02*
X44392D01*
X39212Y173461D02*
Y215093D01*
X20579Y317019D02*
X41450Y296148D01*
X44392Y293608D02*
X56871Y281129D01*
Y240463D02*
Y281129D01*
X45444Y296148D02*
X62540Y279052D01*
X13722Y320283D02*
X40398Y293608D01*
X23829Y323040D02*
X78596Y268273D01*
X41450Y296148D02*
X45444D01*
X78596Y217154D02*
Y268273D01*
X20579Y317019D02*
Y423292D01*
X44840Y220721D02*
Y224840D01*
X36672Y220264D02*
X56871Y240463D01*
X36672Y171870D02*
Y220264D01*
X44840Y224840D02*
X62540Y242540D01*
X116848Y168143D02*
Y172424D01*
X328246Y156156D02*
X335000Y149403D01*
X290000Y185000D02*
X310000D01*
X332310Y157840D02*
Y162690D01*
X339064Y48317D02*
Y151086D01*
X335000Y50000D02*
Y149403D01*
X310000Y185000D02*
X332310Y162690D01*
Y157840D02*
X339064Y151086D01*
X308317Y180936D02*
X328246Y161006D01*
X288317Y180936D02*
X308317D01*
X328246Y156156D02*
Y161006D01*
X304881Y212524D02*
X305500D01*
X304690Y201626D02*
Y205606D01*
X304134Y206162D02*
X304690Y205606D01*
Y201626D02*
X309265Y197051D01*
X305500Y212524D02*
X309964Y208061D01*
Y203506D02*
Y208061D01*
X75657Y106153D02*
Y120657D01*
X65936Y96433D02*
X75657Y106153D01*
X70000Y94749D02*
X79721Y104470D01*
X70000Y44114D02*
Y94749D01*
X65936Y42430D02*
Y96433D01*
X79721Y104470D02*
Y118973D01*
X75657Y120657D02*
X89128Y134128D01*
X79721Y118973D02*
X90812Y130064D01*
X65936Y42430D02*
X68569Y39797D01*
X70000Y44114D02*
X72633Y41481D01*
X70000Y25000D02*
Y29414D01*
X65936Y31098D02*
X68569Y33730D01*
X70000Y29414D02*
X72633Y32047D01*
X65936Y23317D02*
Y31098D01*
X68569Y33730D02*
Y39797D01*
X72633Y32047D02*
Y41481D01*
X70000Y25000D02*
X85000Y10000D01*
X65936Y23317D02*
X83317Y5936D01*
X94376Y33312D02*
X119009D01*
X85000Y10000D02*
X295000D01*
X83317Y5936D02*
X296683D01*
X87467Y40221D02*
X94376Y33312D01*
X87341Y40221D02*
X87467D01*
X296683Y5936D02*
X339064Y48317D01*
X295000Y10000D02*
X335000Y50000D01*
X268304Y197812D02*
X271440D01*
X288317Y180936D01*
X269988Y201876D02*
X273124D01*
X290000Y185000D01*
X259259Y210500D02*
X264782Y204977D01*
X259711Y199870D02*
X262898D01*
X259142Y199301D02*
X259711Y199870D01*
X265203Y200913D02*
X268304Y197812D01*
X262898Y199870D02*
X263941Y200913D01*
X264782Y204977D02*
X266887D01*
X269988Y201876D01*
X263941Y200913D02*
X265203D01*
X306177Y395908D02*
X320982Y381103D01*
X325000Y375011D02*
Y385000D01*
X319782Y317586D02*
Y318392D01*
X325000Y375011D02*
X325011Y375000D01*
X319782Y318392D02*
X320982Y319593D01*
Y381103D01*
X292797Y477203D02*
X300000Y470000D01*
X135000Y475000D02*
X135178D01*
X137381Y477203D01*
X292797D01*
X201914Y470798D02*
X250761D01*
X152210Y472460D02*
X200252D01*
X150250Y470500D02*
X152210Y472460D01*
X200252D02*
X201914Y470798D01*
X119500Y470500D02*
X150250D01*
X88137Y501863D02*
X119500Y470500D01*
X88137Y501863D02*
Y512232D01*
X144036Y467250D02*
X163250D01*
X141520Y464734D02*
X144036Y467250D01*
X121501Y464734D02*
X141520D01*
X163353Y110712D02*
X163632Y110992D01*
X164895D01*
X152215Y112633D02*
X154135Y110712D01*
X164895Y110992D02*
X168422Y107465D01*
X154135Y110712D02*
X163353D01*
X178309Y74046D02*
Y78173D01*
X178930Y71320D02*
X179500Y70750D01*
X178309Y74046D02*
X178930Y73425D01*
X174245Y70111D02*
Y79856D01*
X170820Y66686D02*
X174245Y70111D01*
X178930Y71320D02*
Y73425D01*
X147962Y72618D02*
X167323Y91979D01*
X225722Y69309D02*
X233642Y77229D01*
X234295D01*
X224598Y67871D02*
X225722Y68995D01*
X231959Y81293D02*
X232611D01*
X220534Y69868D02*
X231959Y81293D01*
X219090Y67570D02*
X220534Y69015D01*
Y69868D01*
X219090Y66765D02*
Y67570D01*
X224598Y67065D02*
Y67871D01*
X234295Y77229D02*
X244063Y86997D01*
X225722Y68995D02*
Y69309D01*
X232611Y81293D02*
X239999Y88680D01*
X244063Y86997D02*
Y102669D01*
X239999Y88680D02*
Y100986D01*
X215061Y49117D02*
Y70859D01*
X210997Y49835D02*
Y72543D01*
X208792Y41882D02*
X212568D01*
X205958Y39048D02*
X208792Y41882D01*
X204275Y43112D02*
X210997Y49835D01*
X215444Y44759D02*
Y48734D01*
X215061Y49117D02*
X215444Y48734D01*
X212568Y41882D02*
X215444Y44759D01*
X197587Y43112D02*
X204275D01*
X210997Y72543D02*
X226852Y88398D01*
X215061Y70859D02*
X230916Y86714D01*
X195904Y39048D02*
X205958D01*
X201110Y67181D02*
Y68836D01*
X200540Y66611D02*
X201110Y67181D01*
X205330Y69111D02*
X205486Y68955D01*
X205330Y69111D02*
Y76851D01*
X205486Y67299D02*
X206056Y66729D01*
X201266Y68992D02*
Y78534D01*
X201110Y68836D02*
X201266Y68992D01*
X205486Y67299D02*
Y68955D01*
X206680Y97091D02*
X206891Y97302D01*
X206680Y92871D02*
Y97091D01*
X203234Y89425D02*
X206680Y92871D01*
X211634Y83990D02*
X215877Y88233D01*
X206891Y97302D02*
Y100408D01*
X209220Y88019D02*
Y96039D01*
X213317Y79926D02*
X219941Y86550D01*
X206891Y100408D02*
X207461Y100978D01*
X209220Y96039D02*
X213651Y100470D01*
X206722Y83990D02*
X211634D01*
X205330Y76851D02*
X208405Y79926D01*
X201266Y78534D02*
X206722Y83990D01*
X208405Y79926D02*
X213317D01*
X199873Y89425D02*
X203234D01*
X174245Y79856D02*
X194216Y99828D01*
X213651Y100470D02*
Y101275D01*
X178309Y78173D02*
X195900Y95764D01*
X194216Y99828D02*
X198980D01*
X200142Y94576D02*
X200947D01*
X198980Y99828D02*
X200168Y101016D01*
X199304Y88855D02*
X199873Y89425D01*
X195900Y95764D02*
X198954D01*
X200142Y94576D01*
X200168Y101016D02*
X200973D01*
X219941Y86550D02*
Y94016D01*
X215877Y88233D02*
Y96343D01*
X250528Y112677D02*
X258620Y104585D01*
X248994Y110137D02*
X256080Y103051D01*
X258620Y98880D02*
Y104585D01*
X253540Y96237D02*
X254250Y95527D01*
X253540Y96237D02*
Y101999D01*
X247942Y107597D02*
X253540Y101999D01*
X256080Y97289D02*
X257500Y95869D01*
X258620Y98880D02*
X260421Y97079D01*
X256080Y97289D02*
Y103051D01*
X251000Y63059D02*
Y100918D01*
X240037Y111881D02*
X251000Y100918D01*
X251685Y116935D02*
X257662Y122912D01*
X248965Y110137D02*
X248994D01*
X251685Y116706D02*
Y116935D01*
X247913Y107597D02*
X247942D01*
X245117Y113985D02*
Y119426D01*
X247657Y118374D02*
X251168Y121885D01*
X245117Y113985D02*
X248965Y110137D01*
X245117Y119426D02*
X248172Y122481D01*
X247657Y115037D02*
Y118374D01*
X240037Y121530D02*
X242637Y124130D01*
X242577Y112933D02*
Y120478D01*
Y112933D02*
X247913Y107597D01*
X247657Y115037D02*
X250017Y112677D01*
X240037Y111881D02*
Y121530D01*
X250017Y112677D02*
X250528D01*
X242577Y120478D02*
X245632Y123533D01*
X241682Y105050D02*
X244063Y102669D01*
X235560Y102321D02*
X235587D01*
X234292Y101054D02*
X235560Y102321D01*
X235587D02*
X238315Y105050D01*
X233487Y101054D02*
X234292D01*
X238315Y105050D02*
X241682D01*
X248172Y154852D02*
X251329Y158009D01*
X220264Y172473D02*
X220264D01*
X219986Y176882D02*
X245632Y151236D01*
X248172Y122481D02*
Y154852D01*
X250247Y191831D02*
X254966Y187112D01*
X245632Y123533D02*
Y151236D01*
X252209Y121885D02*
X254966Y124642D01*
X251168Y121885D02*
X252209D01*
X242748Y149989D02*
X243083Y125229D01*
X220264Y172473D02*
X242748Y149989D01*
X243083Y124577D02*
Y125229D01*
X213929Y172473D02*
X220264D01*
X242637Y124130D02*
X243083Y124577D01*
X254966Y124642D02*
Y187112D01*
X254250Y61403D02*
Y95527D01*
X215877Y96343D02*
X220474Y100939D01*
X219941Y94016D02*
X220397Y94472D01*
X144567Y43933D02*
X158500Y30000D01*
X210000D01*
X218250Y38250D02*
X228923D01*
X210000Y30000D02*
X218250Y38250D01*
X194162Y40790D02*
X195904Y39048D01*
X195846Y44854D02*
X197587Y43112D01*
X192840Y40790D02*
X194162D01*
X191504Y42126D02*
X192840Y40790D01*
X194523Y44854D02*
X195846D01*
X192142Y47227D02*
X192150D01*
X189566Y42126D02*
X191504D01*
X192150Y47227D02*
X194523Y44854D01*
X188996Y42695D02*
X189566Y42126D01*
X230916Y86714D02*
Y90081D01*
X226923Y93355D02*
Y100915D01*
X228536Y92462D02*
X230916Y90081D01*
X226923Y100915D02*
X226994Y100986D01*
X226923Y93355D02*
X227816Y92462D01*
X228536D01*
X129752Y44055D02*
Y45939D01*
X137380Y53566D01*
X119009Y33312D02*
X129752Y44055D01*
X87795Y45284D02*
X109980D01*
X87341Y45738D02*
X87795Y45284D01*
X263190Y54703D02*
Y75021D01*
X263151Y54663D02*
X263190Y54703D01*
X257500Y60522D02*
Y95869D01*
X257058Y60080D02*
X257500Y60522D01*
X257058Y57342D02*
Y60080D01*
X256489Y56772D02*
X257058Y57342D01*
X233071Y33321D02*
X235320Y35570D01*
X221215Y33321D02*
X233071D01*
X235320Y35570D02*
Y39424D01*
X235693Y39797D02*
Y42845D01*
X235320Y39424D02*
X235693Y39797D01*
X228923Y38250D02*
X232771Y42099D01*
X214035Y191967D02*
X218620Y188909D01*
X249056Y188891D01*
X251329Y186618D01*
Y158009D02*
Y186618D01*
X260421Y96744D02*
Y97079D01*
X261869Y76342D02*
Y95296D01*
X260421Y96744D02*
X261869Y95296D01*
X235711Y191831D02*
X250247D01*
X220446Y193319D02*
X234223D01*
X235711Y191831D01*
X261869Y76342D02*
X263190Y75021D01*
X235693Y42845D02*
X254250Y61403D01*
X207523Y172473D02*
X211933Y176882D01*
X219986D01*
X100545Y80500D02*
X105257D01*
X111972Y70784D02*
X116729D01*
X108771Y73984D02*
X111972Y70784D01*
X108771Y73984D02*
Y76986D01*
X105257Y80500D02*
X108771Y76986D01*
X116729Y70784D02*
X118563Y72618D01*
X109980Y45284D02*
X123507Y58811D01*
X139852D01*
X137380Y53566D02*
X138813D01*
X171352Y97049D02*
X171742Y97439D01*
Y97696D01*
X171352Y90310D02*
Y97049D01*
X139852Y58811D02*
X171352Y90310D01*
X171742Y97696D02*
X174985Y100939D01*
X232771Y42099D02*
Y44831D01*
X251000Y63059D01*
X90922Y130064D02*
X96505Y135647D01*
X94382Y139544D02*
Y140349D01*
X96505Y135647D02*
X97267D01*
X90812Y130064D02*
X90922D01*
X93237Y138399D02*
X94382Y139544D01*
X89128Y134128D02*
X89239D01*
X93237Y138126D02*
Y138399D01*
X89239Y134128D02*
X93237Y138126D01*
X310000Y400000D02*
X325000Y385000D01*
X267734Y400000D02*
X310000D01*
X293092Y395908D02*
X306177D01*
X215000Y400893D02*
X215893Y400000D01*
X215000Y415678D02*
X217822Y418500D01*
X215893Y400000D02*
X267734D01*
X215000Y400893D02*
Y415678D01*
X266841Y400893D02*
Y418620D01*
Y400893D02*
X267734Y400000D01*
X190790Y397460D02*
X291540D01*
X176921Y411329D02*
X190790Y397460D01*
X291540D02*
X293092Y395908D01*
X270000Y465000D02*
X305000D01*
X267174Y440502D02*
Y462174D01*
X270000Y465000D01*
X300000Y470000D02*
X305697D01*
X309028Y435972D02*
X310000Y435000D01*
X305697Y470000D02*
X309028Y466669D01*
Y435972D02*
Y466669D01*
X310000Y435000D02*
X325000D01*
X140000Y394601D02*
Y425000D01*
X135000Y430000D02*
X140000Y425000D01*
Y355000D02*
Y389759D01*
X138937Y390822D02*
X140000Y389759D01*
X138937Y390822D02*
Y393538D01*
X140000Y394601D01*
X126083Y356668D02*
X126341Y356410D01*
X130112Y336435D02*
Y357704D01*
X134000Y291026D02*
X136211Y293237D01*
X129920Y357896D02*
Y370316D01*
X132460Y358948D02*
X135972Y355436D01*
X119862Y380374D02*
X129920Y370316D01*
X126341Y347529D02*
Y356410D01*
X129920Y357896D02*
X130112Y357704D01*
X132460Y358948D02*
Y403393D01*
X135972Y346679D02*
Y355436D01*
X136211Y293237D02*
Y346439D01*
X126672Y332994D02*
X130112Y336435D01*
X135972Y346679D02*
X136211Y346439D01*
X124214Y411638D02*
X132460Y403393D01*
X127500Y337954D02*
Y346369D01*
X123751Y334204D02*
X127500Y337954D01*
X126341Y347529D02*
X127500Y346369D01*
X200153Y464000D02*
X208750D01*
X166119Y464381D02*
X199772D01*
X200153Y464000D01*
X183262Y315012D02*
X198950Y330700D01*
X213622D01*
X39212Y215093D02*
X44840Y220721D01*
X49500Y432178D02*
Y447174D01*
X128365Y430460D02*
X128469D01*
X133230Y435324D02*
X141236Y443330D01*
X124748Y426843D02*
X128365Y430460D01*
X133230Y435221D02*
Y435324D01*
X130690Y436915D02*
X140786Y447011D01*
X130690Y436273D02*
Y436915D01*
X123539Y429764D02*
X126774Y433000D01*
X128469Y430460D02*
X133230Y435221D01*
X126774Y433000D02*
X127416D01*
X130690Y436273D01*
X49500Y432178D02*
X49604Y432074D01*
Y415517D02*
Y432074D01*
Y415517D02*
X85508Y379613D01*
X30000Y326692D02*
Y460750D01*
Y326692D02*
X87639Y269053D01*
X178964Y193998D02*
Y197232D01*
X178278Y193312D02*
X178964Y193998D01*
Y197232D02*
X179534Y197801D01*
X178278Y183278D02*
Y193312D01*
X113567Y175705D02*
X116848Y172424D01*
X99831Y167472D02*
X103169D01*
X105667Y169969D01*
X112439D01*
X250015Y247235D02*
Y269949D01*
X118563Y72618D02*
X147962D01*
X186461Y433486D02*
Y435475D01*
Y433486D02*
X186778Y433169D01*
Y429831D02*
Y433169D01*
X176921Y411329D02*
Y419973D01*
X186778Y429831D01*
X186461Y435475D02*
X190702Y439716D01*
X10500Y493250D02*
X13722Y490028D01*
X18188Y425683D02*
X20579Y423292D01*
X18188Y425683D02*
Y430945D01*
X257662Y122912D02*
Y154531D01*
X227258Y184469D02*
X246920D01*
X257662Y154531D02*
X257669Y154538D01*
Y189950D01*
X266765Y161067D02*
Y185061D01*
X250839Y196780D02*
X257669Y189950D01*
X263780Y187921D02*
X263905Y187921D01*
X264210Y187616D01*
X266765Y185061D01*
X263469Y188230D02*
X263780Y187921D01*
X260035Y191715D02*
X263469Y188230D01*
X265277Y159579D02*
X266765Y161067D01*
X265277Y135999D02*
Y159579D01*
X224621Y181832D02*
X227258Y184469D01*
X254250Y198131D02*
Y211727D01*
X250839Y196780D02*
Y214792D01*
X254250Y198131D02*
X254250Y197500D01*
X260035Y191715D01*
X210276Y181832D02*
X224621D01*
X238722Y205205D02*
X246453Y196328D01*
X238722Y205205D02*
Y222778D01*
X183262Y282369D02*
X250839Y214792D01*
X189250Y272250D02*
X238722Y222778D01*
X137250Y272250D02*
X189250D01*
X183262Y282369D02*
Y315012D01*
X163250Y467250D02*
X166119Y464381D01*
X148070Y443171D02*
X148639Y442602D01*
X144057Y443330D02*
X144216Y443171D01*
X148070D01*
X140786Y447011D02*
X151195D01*
X153049Y445157D01*
X141236Y443330D02*
X144057D01*
X190702Y439716D02*
Y445713D01*
X184354Y449953D02*
X186461D01*
X190702Y445713D01*
X182241Y452066D02*
X184354Y449953D01*
X132411Y259803D02*
Y263456D01*
Y259803D02*
X133162Y259052D01*
Y235960D02*
Y259052D01*
X123751Y317131D02*
X130032Y310849D01*
Y295320D02*
Y310849D01*
X128158Y293445D02*
X130032Y295320D01*
X128158Y273080D02*
X129490Y271748D01*
X133162Y264206D02*
Y272208D01*
X129490Y263604D02*
Y271748D01*
X132411Y263456D02*
X133162Y264206D01*
X127551Y261665D02*
X129490Y263604D01*
X131079Y274290D02*
X133162Y272208D01*
X134000Y275500D02*
X137250Y272250D01*
X134000Y275500D02*
Y291026D01*
X128158Y273080D02*
Y293445D01*
X131079Y274290D02*
Y292235D01*
X133671Y294827D01*
X125251Y235920D02*
X127551Y238220D01*
X128172Y230971D02*
X133162Y235960D01*
X127551Y238220D02*
Y261665D01*
X197946Y427196D02*
Y459972D01*
X153049Y438963D02*
Y445157D01*
X148182Y434095D02*
X153049Y438963D01*
X186000Y415250D02*
X197946Y427196D01*
X181436Y452066D02*
X182241D01*
X113102Y409985D02*
Y418236D01*
X121709Y426843D01*
X113181Y403829D02*
X120991Y411638D01*
X124214D01*
X110181Y419446D02*
X120499Y429764D01*
X121709Y426843D02*
X124748D01*
X88567Y402317D02*
X104750Y418500D01*
X120499Y429764D02*
X123539D01*
X110181Y411195D02*
Y419446D01*
X260750Y218227D02*
Y236500D01*
X250015Y247235D02*
X260750Y236500D01*
X125251Y211738D02*
Y235920D01*
Y211738D02*
X133386Y203603D01*
X124250Y161750D02*
X126519Y159481D01*
X124250Y161750D02*
Y163152D01*
X125611Y164513D01*
Y166361D01*
X127202Y167952D01*
X130462D01*
X126519Y150534D02*
X129081Y147972D01*
X126519Y150534D02*
Y159481D01*
X129081Y147972D02*
X130877D01*
X136540Y153635D01*
X130462Y167952D02*
X133386Y170876D01*
Y203603D01*
X146254Y166043D02*
X155562D01*
X136540Y153635D02*
Y156329D01*
X146254Y166043D01*
X123751Y317131D02*
Y334204D01*
X128172Y223500D02*
X137512Y214161D01*
X128172Y223500D02*
Y230971D01*
X117750Y269736D02*
Y357617D01*
Y269736D02*
X121213Y266273D01*
X114500Y206722D02*
X119409Y201812D01*
X95759Y375476D02*
X114500Y356736D01*
Y206722D02*
Y356736D01*
X126672Y318614D02*
X133671Y311614D01*
Y294827D02*
Y311614D01*
X220180Y200457D02*
X223253D01*
X216705Y196982D02*
X220180Y200457D01*
X201523Y196982D02*
X216705D01*
X197688Y193147D02*
X201523Y196982D01*
X197688Y176062D02*
Y193147D01*
X197062Y176062D02*
X197688D01*
X193074Y172074D02*
X197062Y176062D01*
X193074Y164612D02*
Y172074D01*
X187979Y159517D02*
X193074Y164612D01*
X89340Y335426D02*
X101115Y323651D01*
X89340Y335426D02*
Y373077D01*
X86419Y331980D02*
X109551Y308847D01*
X86419Y331980D02*
Y374287D01*
X89340Y373077D02*
X92838Y376576D01*
Y382649D01*
X91488Y383999D02*
X92838Y382649D01*
X91488Y383999D02*
Y398738D01*
X104750Y412000D01*
X98680Y376686D02*
X117750Y357617D01*
X86419Y374287D02*
X89917Y377786D01*
X97330Y386419D02*
X98680Y385069D01*
X97330Y386419D02*
Y394214D01*
X95759Y375476D02*
Y383859D01*
X94409Y385209D02*
X95759Y383859D01*
X103250Y380374D02*
X119862D01*
X94409Y385209D02*
Y395424D01*
X97330Y394214D02*
X113102Y409985D01*
X98680Y376686D02*
Y385069D01*
X94409Y395424D02*
X110181Y411195D01*
X103090Y380534D02*
X103250Y380374D01*
X88567Y382789D02*
Y402317D01*
Y382789D02*
X89917Y381439D01*
Y377786D02*
Y381439D01*
X126672Y318614D02*
Y332994D01*
X135142Y158523D02*
Y164228D01*
X137685Y166772D01*
X130548Y153928D02*
X135142Y158523D01*
X137512Y179863D02*
X138404Y178970D01*
X148805D01*
X137512Y179863D02*
Y214161D01*
X129684Y180168D02*
Y184425D01*
X126615Y177099D02*
X129684Y180168D01*
X128792Y185317D02*
X129684Y184425D01*
X126113Y185317D02*
X128792D01*
X122690Y173174D02*
X122971Y173455D01*
Y174516D02*
X125554Y177099D01*
X122971Y173455D02*
Y174516D01*
X125554Y177099D02*
X126615D01*
X130548Y153340D02*
Y153928D01*
X122330Y237130D02*
X124630Y239429D01*
X121213Y252516D02*
X124630Y249100D01*
X122330Y188813D02*
Y237130D01*
X124630Y239429D02*
Y249100D01*
X122330Y188813D02*
X125605Y185539D01*
X125892D01*
X126113Y185317D01*
X138813Y53566D02*
X178298Y93052D01*
X95719Y85173D02*
X95872D01*
X91980Y88913D02*
X95719Y85173D01*
X95872D02*
X100545Y80500D01*
X178298Y95956D02*
Y97841D01*
Y93167D02*
X178335Y93203D01*
X178298Y93052D02*
Y93167D01*
X178335Y93203D02*
Y95919D01*
X178298Y95956D02*
X178335Y95919D01*
X154341Y87153D02*
X168128Y100939D01*
X168498D01*
X111814Y101054D02*
X161972D01*
X178298Y97841D02*
X181473Y101016D01*
X129766Y87912D02*
X135038Y93184D01*
X152051Y98015D02*
X155509Y94557D01*
X108000Y100737D02*
X110722Y98015D01*
X144320Y86259D02*
X151914D01*
X135038Y93184D02*
Y93605D01*
X143750Y85690D02*
X144320Y86259D01*
X110722Y98015D02*
X152051D01*
X152807Y87153D02*
X154341D01*
X151914Y86259D02*
X152807Y87153D01*
X254250Y211727D02*
X260750Y218227D01*
X20250Y444500D02*
X23829Y440921D01*
Y323040D02*
Y440921D01*
X84718Y217532D02*
Y266282D01*
X26750Y324250D02*
X84718Y266282D01*
X26750Y324250D02*
Y451000D01*
X128571Y92953D02*
X129141Y93522D01*
X124803Y92953D02*
X128571D01*
X116591Y84740D02*
X124803Y92953D01*
X116591Y81070D02*
Y84740D01*
Y81070D02*
X120633Y77027D01*
X121000Y82914D02*
X125998Y87912D01*
X129766D01*
X144910Y117255D02*
X150295D01*
X134748Y116881D02*
X140515D01*
X140857Y116539D01*
X144194D02*
X144910Y117255D01*
X140857Y116539D02*
X144194D01*
X207442Y178998D02*
X210276Y181832D01*
X121213Y252516D02*
Y266273D01*
X114965Y123162D02*
Y127293D01*
X117886Y121952D02*
Y126083D01*
X121914Y124414D02*
X121917Y124417D01*
X127213D01*
X114965Y127293D02*
X120671Y132999D01*
X117886Y126083D02*
X123592Y131789D01*
X127213Y124417D02*
X134748Y116881D01*
X120671Y132999D02*
Y137865D01*
X122271Y139465D01*
X123592Y131789D02*
Y136655D01*
X125192Y138255D01*
X108000Y100737D02*
Y116197D01*
X110921Y101947D02*
Y114987D01*
X117886Y121952D01*
X108000Y116197D02*
X114965Y123162D01*
X122271Y139465D02*
Y143118D01*
X125192Y138255D02*
Y144328D01*
X118292Y147096D02*
Y165456D01*
Y147096D02*
X122271Y143118D01*
X121213Y148306D02*
Y164246D01*
Y148306D02*
X125192Y144328D01*
X148519Y185599D02*
X148893D01*
X148805Y178970D02*
X148878Y179043D01*
X122690Y165723D02*
Y173174D01*
X144080Y190038D02*
X148519Y185599D01*
X178239Y182113D02*
Y183033D01*
X175044Y178919D02*
X178239Y182113D01*
X175044Y178892D02*
Y178919D01*
X154135Y175765D02*
X165351D01*
X168556Y178970D01*
X144080Y190038D02*
Y202901D01*
X150974Y209794D01*
X23500Y454250D02*
Y467250D01*
X149870Y171500D02*
X154135Y175765D01*
X137685Y166772D02*
Y167793D01*
X141393Y171500D01*
X149870D01*
X119409Y194277D02*
Y201812D01*
X118035Y192903D02*
X119409Y194277D01*
X118035Y178667D02*
X119769Y176933D01*
X118035Y178667D02*
Y192903D01*
X118292Y165456D02*
X119769Y166933D01*
X23500Y454250D02*
X26750Y451000D01*
X20250Y470500D02*
X23500Y467250D01*
X87639Y224361D02*
Y269053D01*
Y224361D02*
X108000Y204000D01*
X84718Y217532D02*
X104750Y197500D01*
X78596Y217154D02*
X98250Y197500D01*
X119769Y166933D02*
Y176933D01*
X121213Y164246D02*
X122690Y165723D01*
X110921Y101947D02*
X111814Y101054D01*
X150295Y117255D02*
X152215Y115335D01*
Y112633D02*
Y115335D01*
X161965Y195761D02*
X166954Y200750D01*
X175085D01*
X161965Y185556D02*
Y195761D01*
X181835Y207500D02*
X193498D01*
X175085Y200750D02*
X181835Y207500D01*
X193498D02*
X195998Y210000D01*
D82*
X59130Y175516D02*
D03*
X58601Y181007D02*
D03*
X53362Y188912D02*
D03*
X53601Y183400D02*
D03*
X309265Y197051D02*
D03*
X309964Y203506D02*
D03*
X304881Y212524D02*
D03*
X304134Y206162D02*
D03*
X87341Y40221D02*
D03*
X36987Y407666D02*
D03*
X17401Y504924D02*
D03*
X181330Y444140D02*
D03*
X50568Y499315D02*
D03*
X70109Y512655D02*
D03*
X163631Y319013D02*
D03*
X106685Y437377D02*
D03*
X285000Y390000D02*
D03*
X125102Y438588D02*
D03*
X325011Y375000D02*
D03*
X121501Y464734D02*
D03*
X170820Y66686D02*
D03*
X167323Y91979D02*
D03*
X224598Y67065D02*
D03*
X219090Y66765D02*
D03*
X206056Y66729D02*
D03*
X209220Y88019D02*
D03*
X199304Y88855D02*
D03*
X200947Y94576D02*
D03*
X251685Y116706D02*
D03*
X200540Y66611D02*
D03*
X213651Y101275D02*
D03*
X188996Y42695D02*
D03*
X192142Y47227D02*
D03*
X220397Y94472D02*
D03*
X233487Y101054D02*
D03*
X87341Y45738D02*
D03*
X263151Y54663D02*
D03*
X256489Y56772D02*
D03*
X221215Y33321D02*
D03*
X179500Y70750D02*
D03*
X214035Y191967D02*
D03*
X200973Y101016D02*
D03*
X220446Y193319D02*
D03*
X207461Y100978D02*
D03*
X207523Y172473D02*
D03*
X226994Y100986D02*
D03*
X226852Y88398D02*
D03*
X97267Y135647D02*
D03*
X94382Y140349D02*
D03*
X305000Y465000D02*
D03*
X135000Y430000D02*
D03*
X126083Y356668D02*
D03*
X140000Y355000D02*
D03*
X135000Y475000D02*
D03*
X325000Y435000D02*
D03*
X213622Y330700D02*
D03*
X49500Y447174D02*
D03*
X179534Y197801D02*
D03*
X113567Y175705D02*
D03*
X250015Y269949D02*
D03*
X239999Y100986D02*
D03*
X246920Y184469D02*
D03*
X265277Y135999D02*
D03*
X246453Y196328D02*
D03*
X197946Y459972D02*
D03*
X148639Y442602D02*
D03*
X186000Y415250D02*
D03*
X148182Y434095D02*
D03*
X104750Y418500D02*
D03*
X259259Y210500D02*
D03*
X259142Y199301D02*
D03*
X155562Y166043D02*
D03*
X267174Y440502D02*
D03*
X266841Y418620D02*
D03*
X217822Y418500D02*
D03*
X220474Y100939D02*
D03*
X144567Y43933D02*
D03*
X213929Y172473D02*
D03*
X208750Y464000D02*
D03*
X101115Y323651D02*
D03*
X103090Y380534D02*
D03*
X104750Y412000D02*
D03*
X109551Y308847D02*
D03*
X113181Y403829D02*
D03*
X130548Y153340D02*
D03*
X91980Y88913D02*
D03*
X161972Y101054D02*
D03*
X168498Y100939D02*
D03*
X135038Y93605D02*
D03*
X143750Y85690D02*
D03*
X129141Y93522D02*
D03*
X120633Y77027D02*
D03*
X121000Y82914D02*
D03*
X121914Y124414D02*
D03*
X148893Y185599D02*
D03*
X148878Y179043D02*
D03*
X85508Y379613D02*
D03*
X30000Y460750D02*
D03*
X108000Y204000D02*
D03*
X20250Y470500D02*
D03*
X104750Y197500D02*
D03*
X18188Y430945D02*
D03*
X98250Y197500D02*
D03*
X20250Y444500D02*
D03*
X10500Y493250D02*
D03*
X112439Y169969D02*
D03*
X155509Y94557D02*
D03*
X187979Y159517D02*
D03*
X207442Y178998D02*
D03*
X195998Y210000D02*
D03*
X223253Y200457D02*
D03*
X319782Y317586D02*
D03*
X250761Y470798D02*
D03*
X150974Y209794D02*
D03*
X161965Y185556D02*
D03*
X168556Y178970D02*
D03*
X88137Y512232D02*
D03*
X181436Y452066D02*
D03*
X174985Y100939D02*
D03*
X168422Y107465D02*
D03*
X181473Y101016D02*
D03*
X175044Y178892D02*
D03*
D86*
X40000Y499315D02*
Y504924D01*
X17401D02*
X40000D01*
Y454250D02*
Y499315D01*
Y454250D02*
X65242D01*
X36987Y407666D02*
X40000Y410679D01*
Y500000D02*
X40685Y499315D01*
X50568D01*
X56769D01*
X70109Y512655D01*
X106685Y437377D02*
Y440320D01*
X105000Y442004D02*
Y449250D01*
X110000Y454250D01*
X105000Y442004D02*
X106685Y440320D01*
X40000Y410679D02*
Y454250D01*
X125102Y453102D02*
X126250Y454250D01*
X125102Y438588D02*
Y453102D01*
D88*
X65242Y454250D02*
X105316D01*
X169682Y430235D02*
X182161Y442714D01*
X169682Y408331D02*
X180881Y397131D01*
X156750Y454250D02*
X170063Y440937D01*
X169682Y408331D02*
Y430235D01*
X170063Y434957D02*
Y440937D01*
X173769Y390019D02*
X180881Y397131D01*
X163631Y319013D02*
X164004D01*
X173769Y328778D01*
Y390019D01*
X126250Y454250D02*
X156750D01*
X110000D02*
X126250D01*
X105316D02*
X110000D01*
X284398Y390602D02*
X285000Y390000D01*
X181420Y397131D02*
X187949Y390602D01*
X180881Y397131D02*
X181420D01*
X187949Y390602D02*
X284398D01*
M02*
