G04*
G04 #@! TF.GenerationSoftware,Altium Limited,Altium Designer,26.8.1 (31)*
G04*
G04 Layer_Physical_Order=3*
G04 Layer_Color=16440176*
G04 Board_Origin=14173228|16535433*
%FSLAX44Y44*%
%MOMM*%
G71*
G04*
G04 #@! TF.SameCoordinates,787D18DD-F0E2-4AD7-92A2-126251623CEA*
G04*
G04*
G04 #@! TF.FilePolarity,Positive*
G04*
G01*
G75*
%ADD14C,0.1524*%
%ADD83C,0.4501*%
G36*
X283500Y455550D02*
X283250Y454946D01*
Y453554D01*
X283500Y452950D01*
Y447750D01*
X280002Y444253D01*
X279295Y444546D01*
X277903D01*
X276616Y444013D01*
X275632Y443028D01*
X275099Y441742D01*
Y440349D01*
X275392Y439642D01*
X270500Y434750D01*
Y420031D01*
X270179Y419709D01*
X269808Y420603D01*
X268824Y421588D01*
X267537Y422121D01*
X267070D01*
X267967Y423017D01*
X268500Y424304D01*
Y425696D01*
X267967Y426983D01*
X267619Y427331D01*
X268326Y427623D01*
X269310Y428608D01*
X269843Y429894D01*
Y431287D01*
X269310Y432573D01*
X268326Y433558D01*
X267039Y434090D01*
X265647D01*
X264361Y433558D01*
X263376Y432573D01*
X262843Y431287D01*
Y429894D01*
X263376Y428608D01*
X263724Y428260D01*
X263017Y427967D01*
X262033Y426983D01*
X261500Y425696D01*
Y424304D01*
X262033Y423017D01*
X263017Y422033D01*
X264304Y421500D01*
X264771D01*
X264023Y420752D01*
X263834Y421209D01*
X262849Y422194D01*
X261563Y422727D01*
X260170D01*
X258884Y422194D01*
X257899Y421209D01*
X257367Y419923D01*
Y418531D01*
X257899Y417244D01*
X258884Y416260D01*
X260170Y415727D01*
X261563D01*
X262849Y416260D01*
X263685Y417095D01*
X263874Y416638D01*
X264858Y415653D01*
X266145Y415121D01*
X267537D01*
X268824Y415653D01*
X269418Y416247D01*
Y409204D01*
X269460Y409102D01*
X269438Y408993D01*
X269614Y408731D01*
X269735Y408439D01*
X269837Y408396D01*
X269899Y408304D01*
X270351Y408002D01*
X270267Y407967D01*
X269283Y406983D01*
X268750Y405696D01*
Y404304D01*
X269283Y403017D01*
X270267Y402033D01*
X270351Y401998D01*
X269899Y401696D01*
X269837Y401604D01*
X269735Y401561D01*
X269614Y401270D01*
X269438Y401007D01*
X269460Y400898D01*
X269418Y400796D01*
Y367967D01*
X269501Y367764D01*
X269503Y367545D01*
X269654Y367397D01*
X269735Y367201D01*
X269937Y367118D01*
X270093Y366964D01*
X270500Y366799D01*
Y357216D01*
X270031Y356990D01*
X269907Y356851D01*
X269735Y356780D01*
X269641Y356555D01*
X269478Y356373D01*
X269489Y356187D01*
X269418Y356015D01*
Y343500D01*
X269304D01*
X268017Y342967D01*
X267033Y341982D01*
X266500Y340696D01*
Y339304D01*
X267033Y338017D01*
X268017Y337033D01*
X269304Y336500D01*
X269418D01*
Y270852D01*
X251841Y246664D01*
X251763Y246338D01*
X251635Y246028D01*
Y245515D01*
X251000Y244643D01*
Y231140D01*
X251635Y230506D01*
X227673D01*
Y268423D01*
X241250Y282000D01*
Y291229D01*
X241983Y291533D01*
X242967Y292517D01*
X243500Y293804D01*
Y295196D01*
X242967Y296483D01*
X241983Y297467D01*
X241250Y297771D01*
Y302229D01*
X241983Y302533D01*
X242967Y303517D01*
X243500Y304804D01*
Y306196D01*
X242967Y307483D01*
X241983Y308467D01*
X241250Y308771D01*
Y311755D01*
X241282Y311742D01*
X242675D01*
X243961Y312274D01*
X244946Y313259D01*
X245478Y314545D01*
Y315938D01*
X244946Y317224D01*
X243961Y318209D01*
X242675Y318741D01*
X241282D01*
X241250Y318728D01*
Y345793D01*
X241679Y346221D01*
X242212Y347508D01*
Y348900D01*
X241679Y350187D01*
X241250Y350615D01*
Y417360D01*
X241803Y416806D01*
X243090Y416273D01*
X244482D01*
X245769Y416806D01*
X246753Y417791D01*
X247286Y419077D01*
Y420470D01*
X246753Y421756D01*
X245769Y422741D01*
X244482Y423273D01*
X243090D01*
X241803Y422741D01*
X241250Y422187D01*
Y444500D01*
X264000Y467250D01*
X283500D01*
Y455550D01*
D02*
G37*
G36*
X351750Y462219D02*
X351715Y462196D01*
X350323D01*
X349036Y461663D01*
X348052Y460678D01*
X347519Y459392D01*
Y458000D01*
X348052Y456713D01*
X349036Y455729D01*
X350323Y455196D01*
X351715D01*
X351750Y455173D01*
Y451203D01*
X351235Y449960D01*
Y448568D01*
X351750Y447324D01*
Y441250D01*
X345250Y434750D01*
X329908D01*
X329000Y434750D01*
X328369Y436013D01*
X327967Y436983D01*
X326983Y437967D01*
X325696Y438500D01*
X324304D01*
X323017Y437967D01*
X322033Y436983D01*
X321500Y435696D01*
Y434304D01*
X322033Y433017D01*
X322041Y433009D01*
X321897Y431300D01*
X320912Y430315D01*
X320379Y429029D01*
Y427636D01*
X320821Y426571D01*
X315001Y420751D01*
X314666Y420739D01*
X313292Y421198D01*
X312967Y421983D01*
X311983Y422967D01*
X310696Y423500D01*
X309304D01*
X308017Y422967D01*
X307033Y421983D01*
X306500Y420696D01*
Y419304D01*
X307033Y418017D01*
X308017Y417033D01*
X308802Y416708D01*
X309261Y415334D01*
X309249Y414999D01*
X306250Y412000D01*
X305912Y411774D01*
X305696Y411863D01*
X304304D01*
X303017Y411330D01*
X302033Y410346D01*
X301500Y409059D01*
Y407667D01*
X302033Y406381D01*
X303017Y405396D01*
X304304Y404863D01*
X305696D01*
X306250Y404493D01*
Y369179D01*
X304726Y368354D01*
X304051Y368633D01*
X302658D01*
X301372Y368100D01*
X300387Y367116D01*
X299854Y365830D01*
Y364437D01*
X300387Y363151D01*
X301372Y362166D01*
X302658Y361633D01*
X304051D01*
X304726Y361913D01*
X306250Y361088D01*
Y308870D01*
X305696Y308500D01*
X304304D01*
X303017Y307967D01*
X302033Y306983D01*
X301500Y305696D01*
Y304304D01*
X302033Y303017D01*
X303017Y302033D01*
X304304Y301500D01*
X305696D01*
X306250Y301130D01*
Y285692D01*
X305267Y285285D01*
X304283Y284301D01*
X303750Y283014D01*
Y281622D01*
X304283Y280336D01*
X305267Y279351D01*
X306250Y278944D01*
Y254600D01*
X305072Y253633D01*
X304789Y253690D01*
X297779D01*
X295438Y253224D01*
X293453Y251898D01*
X292127Y249913D01*
X291661Y247572D01*
X292127Y245230D01*
X293453Y243246D01*
X295438Y241919D01*
X297779Y241454D01*
X304789D01*
X305072Y241510D01*
X306250Y240543D01*
Y238303D01*
X305244D01*
X303406Y237542D01*
X302000Y236135D01*
X301238Y234298D01*
Y232309D01*
X302000Y230471D01*
X303406Y229064D01*
X305244Y228303D01*
X306250D01*
Y226750D01*
X272421Y207529D01*
X271983Y207967D01*
X270696Y208500D01*
X269304D01*
X268017Y207967D01*
X267033Y206983D01*
X266500Y205696D01*
Y204304D01*
X266546Y204192D01*
X261862Y201530D01*
X261124Y202268D01*
X259838Y202801D01*
X258445D01*
X257159Y202268D01*
X256174Y201283D01*
X255641Y199997D01*
Y198605D01*
X255846Y198112D01*
X252717Y196334D01*
X248953Y196355D01*
Y196825D01*
X248572Y197744D01*
X247869Y198447D01*
X246950Y198828D01*
X245956D01*
X245037Y198447D01*
X244334Y197744D01*
X243953Y196825D01*
X243511Y196385D01*
X235822Y196428D01*
X221750Y210500D01*
X215250D01*
Y217000D01*
X227673Y229423D01*
X252717D01*
Y246028D01*
X270500Y270500D01*
Y336500D01*
X270696D01*
X271983Y337033D01*
X272967Y338017D01*
X273500Y339304D01*
Y340696D01*
X272967Y341982D01*
X271983Y342967D01*
X270696Y343500D01*
X270500D01*
Y356015D01*
X272024Y356748D01*
X272674Y356256D01*
X272817Y354697D01*
X272773Y354652D01*
X272240Y353366D01*
Y351974D01*
X272773Y350687D01*
X273758Y349703D01*
X275044Y349170D01*
X276436D01*
X277723Y349703D01*
X278707Y350687D01*
X279240Y351974D01*
Y353366D01*
X278707Y354652D01*
X277723Y355637D01*
X277491Y357382D01*
X277697Y357588D01*
X278230Y358875D01*
Y360267D01*
X277775Y361366D01*
X277697Y361553D01*
X277771Y363354D01*
X277847Y363429D01*
X278380Y364716D01*
Y366108D01*
X277847Y367394D01*
X276862Y368379D01*
X275576Y368912D01*
X274184D01*
X272897Y368379D01*
X272024Y367506D01*
X271505Y367560D01*
X270500Y367967D01*
Y400796D01*
X271554Y401500D01*
X272946D01*
X274233Y402033D01*
X275217Y403017D01*
X275750Y404304D01*
Y405696D01*
X275217Y406983D01*
X274233Y407967D01*
X272946Y408500D01*
X271554D01*
X270500Y409204D01*
Y418500D01*
X275397Y423397D01*
X277020Y422975D01*
X277223Y421987D01*
X276802Y421602D01*
X276560Y421502D01*
X275575Y420518D01*
X275042Y419231D01*
Y417839D01*
X275575Y416552D01*
X276560Y415568D01*
X277846Y415035D01*
X279238D01*
X280525Y415568D01*
X281509Y416552D01*
X282042Y417839D01*
Y419231D01*
X281853Y419688D01*
X281659Y420654D01*
X282615Y421527D01*
X282857Y421627D01*
X283842Y422612D01*
X284375Y423898D01*
Y425291D01*
X283842Y426577D01*
X282857Y427562D01*
X282051Y427896D01*
X281596Y429228D01*
X281605Y429605D01*
X325750Y473750D01*
X351750D01*
Y462219D01*
D02*
G37*
G36*
X360000Y135750D02*
X268777D01*
Y136695D01*
X268244Y137981D01*
X267259Y138966D01*
X265973Y139499D01*
X264580D01*
X263294Y138966D01*
X262309Y137981D01*
X261777Y136695D01*
Y135750D01*
X228089D01*
X227491Y135998D01*
X226497D01*
X225899Y135750D01*
X221586D01*
X220989Y135998D01*
X219994D01*
X219396Y135750D01*
X218500D01*
X216489Y133739D01*
Y133995D01*
X216108Y134914D01*
X215405Y135617D01*
X214486Y135998D01*
X213492D01*
X212573Y135617D01*
X211870Y134914D01*
X211489Y133995D01*
Y133000D01*
X211853Y132121D01*
X211784Y132087D01*
X209467Y129470D01*
X209407Y129296D01*
X209277Y129166D01*
Y128920D01*
X209197Y128687D01*
X209277Y128522D01*
Y128338D01*
X209655Y127427D01*
Y126905D01*
X209169Y126419D01*
Y125611D01*
X208715Y125157D01*
X207918Y124827D01*
X207055D01*
X206259Y125157D01*
X205852Y125564D01*
X205637Y125653D01*
X205467Y125812D01*
X205269Y125805D01*
X205086Y125881D01*
X204872Y125792D01*
X204639Y125784D01*
X203514Y125274D01*
X203379Y125130D01*
X203196Y125054D01*
X203107Y124839D01*
X202948Y124669D01*
X202955Y124471D01*
X202879Y124289D01*
Y123744D01*
X190244D01*
X189039Y122760D01*
X188477Y122993D01*
X187482D01*
X186563Y122612D01*
X185860Y121909D01*
X185479Y120990D01*
Y119995D01*
X185524Y119887D01*
X182715Y117592D01*
X173473D01*
X173000Y119500D01*
X170635Y121865D01*
X170617Y121909D01*
X169914Y122612D01*
X169869Y122631D01*
X166500Y126000D01*
X168498Y127998D01*
Y137500D01*
X168995D01*
X169914Y137881D01*
X170617Y138584D01*
X170998Y139503D01*
Y140497D01*
X170617Y141416D01*
X169914Y142119D01*
X168995Y142500D01*
X168000D01*
X167397Y142250D01*
X166500D01*
Y151007D01*
X173232Y157739D01*
X173584Y157388D01*
X174503Y157007D01*
X175497D01*
X176416Y157388D01*
X177009Y157980D01*
X179468D01*
X180061Y157388D01*
X180980Y157007D01*
X181974D01*
X182893Y157388D01*
X183486Y157980D01*
X185981D01*
X186563Y157398D01*
X187482Y157017D01*
X188477D01*
X189396Y157398D01*
X189978Y157980D01*
X192473D01*
X193066Y157388D01*
X193985Y157007D01*
X194979D01*
X195898Y157388D01*
X196490Y157980D01*
X198976D01*
X199568Y157388D01*
X200487Y157007D01*
X201481D01*
X202400Y157388D01*
X202993Y157980D01*
X205478D01*
X206070Y157388D01*
X206989Y157007D01*
X207984D01*
X208903Y157388D01*
X209495Y157980D01*
X210638D01*
X211489Y159212D01*
Y159010D01*
X211870Y158091D01*
X212573Y157388D01*
X213492Y157007D01*
X214486D01*
X215405Y157388D01*
X216108Y158091D01*
X216489Y159010D01*
Y160005D01*
X216108Y160923D01*
X216025Y161007D01*
X216029Y161018D01*
X216061Y161034D01*
X218814Y164151D01*
X219075Y163890D01*
X219994Y163510D01*
X220989D01*
X221908Y163890D01*
X222611Y164594D01*
X222991Y165512D01*
Y166507D01*
X222860Y166824D01*
X248593Y167052D01*
X258579Y162854D01*
Y162782D01*
X259112Y161495D01*
X260096Y160511D01*
X261383Y159978D01*
X262775D01*
X264062Y160511D01*
X264299Y160748D01*
X264409Y160748D01*
X264564Y160901D01*
X264765Y160985D01*
X264847Y161181D01*
X264998Y161331D01*
X264998Y161448D01*
X265046Y161495D01*
X265579Y162782D01*
Y164174D01*
X265082Y165373D01*
Y167628D01*
X268185Y167594D01*
X267588Y184838D01*
X301203Y204144D01*
X302152Y203195D01*
X303438Y202662D01*
X304830D01*
X306117Y203195D01*
X306464Y203542D01*
Y202810D01*
X306996Y201524D01*
X307981Y200539D01*
X308261Y200423D01*
X307282Y200018D01*
X306298Y199034D01*
X305765Y197747D01*
Y196355D01*
X306298Y195068D01*
X307282Y194084D01*
X307586Y193958D01*
X307251D01*
X305965Y193425D01*
X304980Y192440D01*
X304447Y191154D01*
Y189762D01*
X304980Y188475D01*
X305965Y187491D01*
X307251Y186958D01*
X308644D01*
X309930Y187491D01*
X310915Y188475D01*
X311448Y189762D01*
Y191154D01*
X310915Y192440D01*
X309930Y193425D01*
X309626Y193551D01*
X309961D01*
X311247Y194084D01*
X312232Y195068D01*
X312765Y196355D01*
Y197747D01*
X312232Y199034D01*
X311247Y200018D01*
X310968Y200134D01*
X311946Y200539D01*
X312931Y201524D01*
X313464Y202810D01*
Y204203D01*
X312931Y205489D01*
X311946Y206474D01*
X310660Y207006D01*
X309268D01*
X307981Y206474D01*
X307634Y206127D01*
Y206858D01*
X307307Y207649D01*
X309500Y208909D01*
Y217953D01*
X309877D01*
X311164Y218486D01*
X312148Y219471D01*
X312580Y220513D01*
X313030Y219426D01*
X314015Y218441D01*
X315301Y217908D01*
X316694D01*
X317980Y218441D01*
X318965Y219426D01*
X319498Y220712D01*
Y222104D01*
X318965Y223391D01*
X317980Y224375D01*
X316694Y224908D01*
X315301D01*
X314015Y224375D01*
X313030Y223391D01*
X312599Y222349D01*
X312148Y223436D01*
X311164Y224421D01*
X309877Y224953D01*
X309500D01*
Y229494D01*
X310477Y230471D01*
X311238Y232309D01*
Y234298D01*
X310477Y236135D01*
X309500Y237113D01*
Y243821D01*
X310442Y245230D01*
X310907Y247572D01*
X310442Y249913D01*
X309500Y251322D01*
Y279618D01*
X310217Y280336D01*
X310750Y281622D01*
Y283014D01*
X310217Y284301D01*
X309500Y285018D01*
Y336500D01*
X310696D01*
X311983Y337033D01*
X312967Y338017D01*
X313500Y339304D01*
Y340696D01*
X312967Y341982D01*
X311983Y342967D01*
X310696Y343500D01*
X309500D01*
Y407042D01*
X360000D01*
X360000Y135750D01*
D02*
G37*
G36*
X7559Y495259D02*
X7533Y495233D01*
X7000Y493946D01*
Y492554D01*
X7533Y491267D01*
X8517Y490283D01*
X9804Y489750D01*
X11196D01*
X12483Y490283D01*
X13467Y491267D01*
X13856Y492207D01*
X78750Y460750D01*
X194480D01*
X194446Y460668D01*
Y459275D01*
X194979Y457989D01*
X195963Y457004D01*
X197250Y456472D01*
X198642D01*
X199928Y457004D01*
X200913Y457989D01*
X201446Y459275D01*
Y460668D01*
X201412Y460750D01*
X207450D01*
X208054Y460500D01*
X209446D01*
X210050Y460750D01*
X234750D01*
Y458236D01*
X233912Y457889D01*
X232928Y456905D01*
X232395Y455618D01*
Y454226D01*
X232928Y452939D01*
X233912Y451955D01*
X234750Y451608D01*
Y277031D01*
X226908Y269189D01*
X226591Y268423D01*
Y267341D01*
X225000Y265750D01*
Y230000D01*
X206864Y211864D01*
X205938Y212791D01*
X204652Y213323D01*
X203259D01*
X201973Y212791D01*
X200988Y211806D01*
X200455Y210520D01*
Y209127D01*
X200988Y207841D01*
X201915Y206915D01*
X201180Y206180D01*
Y202019D01*
X201119Y202166D01*
X200416Y202869D01*
X199497Y203250D01*
X198503D01*
X197584Y202869D01*
X196881Y202166D01*
X196500Y201247D01*
Y200253D01*
X196881Y199334D01*
X197584Y198631D01*
X198503Y198250D01*
X199497D01*
X200416Y198631D01*
X201119Y199334D01*
X201180Y199481D01*
Y194389D01*
X200569D01*
X199650Y194008D01*
X198946Y193305D01*
X198566Y192386D01*
Y191392D01*
X198946Y190473D01*
X199650Y189770D01*
X200569Y189389D01*
X201180D01*
Y187991D01*
X200487D01*
X199568Y187611D01*
X198865Y186908D01*
X198484Y185989D01*
Y184994D01*
X198865Y184075D01*
X199568Y183372D01*
X200487Y182991D01*
X201180D01*
Y181643D01*
X200683D01*
X199764Y181263D01*
X199061Y180559D01*
X198680Y179641D01*
Y178646D01*
X199061Y177727D01*
X199764Y177024D01*
X200683Y176643D01*
X200806D01*
X190196Y173761D01*
X190167Y173739D01*
X190099Y173903D01*
X189396Y174606D01*
X188477Y174987D01*
X187482D01*
X186563Y174606D01*
X185860Y173903D01*
X185479Y172984D01*
Y171989D01*
X185547Y171825D01*
X185235Y171696D01*
X184918Y170931D01*
Y167112D01*
X184729Y166656D01*
Y165363D01*
X184918Y164908D01*
Y161750D01*
X185071Y161379D01*
X183615Y160879D01*
X183596Y160923D01*
X182893Y161627D01*
X181974Y162007D01*
X180980D01*
X180061Y161627D01*
X179358Y160923D01*
X178977Y160005D01*
Y159287D01*
X178325Y159063D01*
X177500D01*
Y160005D01*
X177119Y160923D01*
X176416Y161627D01*
X175497Y162007D01*
X174503D01*
X173584Y161627D01*
X172881Y160923D01*
X172500Y160005D01*
Y159010D01*
X172674Y158590D01*
X172467Y158505D01*
X172467Y158505D01*
D01*
X170253Y156291D01*
X169599Y156067D01*
X169144Y156255D01*
X167851D01*
X166656Y155760D01*
X165742Y154846D01*
X165247Y153651D01*
Y152358D01*
X165612Y151477D01*
X165418Y151007D01*
Y147560D01*
X165247Y147149D01*
Y145856D01*
X165418Y145444D01*
Y142250D01*
X165735Y141485D01*
X166308Y141247D01*
X165998Y140497D01*
Y139503D01*
X166378Y138584D01*
X167082Y137881D01*
X167501Y137707D01*
X167415Y137500D01*
Y136567D01*
X166656Y136253D01*
X165742Y135339D01*
X165247Y134144D01*
Y132851D01*
X165742Y131656D01*
X166656Y130742D01*
X167415Y130428D01*
Y130065D01*
X166656Y129751D01*
X165742Y128836D01*
X165247Y127642D01*
Y126349D01*
X165742Y125154D01*
X166656Y124240D01*
X166782Y124188D01*
X167983Y122986D01*
X167082Y122612D01*
X166378Y121909D01*
X165998Y120990D01*
Y119995D01*
X166378Y119077D01*
X167082Y118373D01*
X168000Y117993D01*
X168995D01*
X169914Y118373D01*
X170617Y119077D01*
X170991Y119979D01*
X172022Y118947D01*
X172423Y117331D01*
X172596Y117097D01*
X172708Y116827D01*
X172834Y116775D01*
X172914Y116665D01*
X173203Y116621D01*
X173473Y116510D01*
X182715D01*
X183052Y116649D01*
X183400Y116754D01*
X184426Y117592D01*
X202879D01*
Y115296D01*
X202962Y115098D01*
Y114882D01*
X203152Y114422D01*
Y113559D01*
X202962Y113099D01*
Y112883D01*
X202879Y112684D01*
Y111324D01*
X203196Y110558D01*
X203899Y110267D01*
X203898Y109207D01*
X205658Y109195D01*
X205367Y108904D01*
X204987Y107985D01*
Y106991D01*
X205367Y106072D01*
X206070Y105369D01*
X206989Y104988D01*
X207984D01*
X208903Y105369D01*
X209606Y106072D01*
X209987Y106991D01*
Y107985D01*
X209606Y108904D01*
X209339Y109171D01*
X210183Y109166D01*
X211489Y107725D01*
Y106991D01*
X211870Y106072D01*
X212573Y105369D01*
X213492Y104988D01*
X213970D01*
X217974Y100571D01*
Y100442D01*
X218354Y99523D01*
X219058Y98820D01*
X219863Y98486D01*
X221441Y96746D01*
X220894Y96972D01*
X219900D01*
X218981Y96592D01*
X218277Y95888D01*
X217897Y94970D01*
Y93975D01*
X218277Y93056D01*
X218981Y92353D01*
X219900Y91972D01*
X220894D01*
X221813Y92353D01*
X222516Y93056D01*
X222897Y93975D01*
Y94970D01*
X222767Y95283D01*
X226388Y91288D01*
X225581D01*
X224662Y90907D01*
X223959Y90204D01*
X223578Y89285D01*
Y88291D01*
X223959Y87372D01*
X224662Y86669D01*
X225581Y86288D01*
X226576D01*
X227495Y86669D01*
X228198Y87372D01*
X228578Y88291D01*
Y88872D01*
X229050Y88352D01*
X237734Y82486D01*
X243252Y76967D01*
X243106Y76820D01*
X242573Y75534D01*
Y74141D01*
X243106Y72855D01*
X244090Y71870D01*
X245376Y71338D01*
X246769D01*
X248055Y71870D01*
X249040Y72855D01*
X249100Y73000D01*
X249100Y73000D01*
X249315Y73000D01*
X249514Y72918D01*
X252691D01*
X275418Y62023D01*
Y54500D01*
X276593Y47593D01*
X276238Y43557D01*
X275782Y43368D01*
X274798Y42383D01*
X274265Y41097D01*
Y39704D01*
X274798Y38418D01*
X275707Y37508D01*
X275418Y34221D01*
X224631D01*
X224182Y35304D01*
X223198Y36289D01*
X221911Y36821D01*
X220519D01*
X219233Y36289D01*
X218248Y35304D01*
X217799Y34221D01*
X57235D01*
X57328Y34445D01*
Y35837D01*
X56796Y37124D01*
X55811Y38108D01*
X54524Y38641D01*
X53132D01*
X51846Y38108D01*
X50861Y37124D01*
X50328Y35837D01*
Y34445D01*
X50421Y34221D01*
X30501D01*
X30589Y34431D01*
Y35823D01*
X30056Y37109D01*
X29071Y38094D01*
X27785Y38627D01*
X26392D01*
X25106Y38094D01*
X24121Y37109D01*
X23589Y35823D01*
Y34431D01*
X23676Y34221D01*
X15658D01*
X16682Y109166D01*
X15831Y133538D01*
X16422Y133143D01*
X18764Y132677D01*
X22751D01*
X25093Y133143D01*
X27077Y134469D01*
X28404Y136454D01*
X28411Y136489D01*
X53401D01*
X53408Y136454D01*
X54735Y134469D01*
X56719Y133143D01*
X59061Y132677D01*
X66071D01*
X68412Y133143D01*
X70397Y134469D01*
X71723Y136454D01*
X71730Y136489D01*
X83751D01*
Y147150D01*
X84172Y147571D01*
X84705Y148857D01*
Y150250D01*
X84172Y151536D01*
X83751Y151957D01*
Y271270D01*
X70863Y296522D01*
X72852Y297346D01*
X74399Y298893D01*
X75236Y300915D01*
Y303103D01*
X74399Y305124D01*
X72852Y306671D01*
X70830Y307509D01*
X68642D01*
X66621Y306671D01*
X66000Y306051D01*
X60668Y316500D01*
X60696D01*
X61982Y317033D01*
X62967Y318017D01*
X63500Y319304D01*
Y320696D01*
X62967Y321982D01*
X61982Y322967D01*
X60696Y323500D01*
X59304D01*
X58017Y322967D01*
X57587Y322537D01*
X50460Y336500D01*
X50696D01*
X51982Y337033D01*
X52967Y338017D01*
X53500Y339304D01*
Y340696D01*
X52967Y341982D01*
X51982Y342967D01*
X50696Y343500D01*
X49304D01*
X48017Y342967D01*
X47449Y342399D01*
X40253Y356500D01*
X40696D01*
X41982Y357033D01*
X42967Y358017D01*
X43500Y359304D01*
Y360696D01*
X42967Y361982D01*
X41982Y362967D01*
X40696Y363500D01*
X39304D01*
X38017Y362967D01*
X37312Y362262D01*
X5000Y425575D01*
Y496500D01*
X7559Y495259D01*
D02*
G37*
G36*
X264000Y171500D02*
Y161750D01*
X248807Y168136D01*
X222136Y167900D01*
X221908Y168129D01*
X220989Y168510D01*
X219994D01*
X219075Y168129D01*
X218372Y167426D01*
X217991Y166507D01*
Y165512D01*
X218177Y165065D01*
X215250Y161750D01*
X215107D01*
X214486Y162007D01*
X213492D01*
X212871Y161750D01*
X208605D01*
X207984Y162007D01*
X206989D01*
X206368Y161750D01*
X202102D01*
X201481Y162007D01*
X200487D01*
X199866Y161750D01*
X195600D01*
X194979Y162007D01*
X193985D01*
X193364Y161750D01*
X189121D01*
X188477Y162017D01*
X187482D01*
X186838Y161750D01*
X186000D01*
Y170931D01*
X186563Y170367D01*
X187482Y169987D01*
X188477D01*
X189396Y170367D01*
X190099Y171070D01*
X190479Y171989D01*
Y172717D01*
X205978Y176926D01*
X206026Y176879D01*
X206945Y176498D01*
X207939D01*
X208858Y176879D01*
X209561Y177582D01*
X209710Y177940D01*
X212719Y178757D01*
X224878D01*
Y177894D01*
X225259Y176975D01*
X225962Y176272D01*
X226881Y175891D01*
X227875D01*
X228794Y176272D01*
X229498Y176975D01*
X229878Y177894D01*
Y178757D01*
X246136D01*
X264000Y171500D01*
D02*
G37*
G36*
X254250Y129250D02*
X267250D01*
Y116250D01*
X265300D01*
X264696Y116500D01*
X263304D01*
X262700Y116250D01*
X259520D01*
X258407Y116711D01*
X257015D01*
X255902Y116250D01*
X255503D01*
Y117414D01*
X254970Y118701D01*
X253986Y119685D01*
X252699Y120218D01*
X251307D01*
X250021Y119685D01*
X249057Y118722D01*
X246664Y121456D01*
X246630Y121473D01*
X246615Y121509D01*
X246263Y121655D01*
X245921Y121824D01*
X245885Y121811D01*
X245849Y121826D01*
X223457D01*
X223247Y122334D01*
X222333Y123248D01*
X221138Y123743D01*
X219845D01*
X218650Y123248D01*
X217736Y122334D01*
X217525Y121826D01*
X216489D01*
X216194Y121704D01*
X216108Y121909D01*
X215405Y122612D01*
X214486Y122993D01*
X213492D01*
X212573Y122612D01*
X211870Y121909D01*
X211489Y120990D01*
Y119995D01*
X211552Y119843D01*
X211235Y119712D01*
X210918Y118946D01*
Y115069D01*
X210739Y114637D01*
Y113344D01*
X210918Y112912D01*
Y111324D01*
X203962D01*
Y112684D01*
X204235Y113344D01*
Y114637D01*
X203962Y115296D01*
Y119362D01*
Y124289D01*
X205086Y124799D01*
X205645Y124240D01*
X206840Y123745D01*
X208133D01*
X209328Y124240D01*
X210242Y125154D01*
X210737Y126349D01*
Y127642D01*
X210277Y128752D01*
X212594Y131369D01*
X213492Y130998D01*
X214486D01*
X215405Y131378D01*
X216108Y132081D01*
X216282Y132500D01*
X218199D01*
X218372Y132081D01*
X219075Y131378D01*
X219994Y130998D01*
X220989D01*
X221908Y131378D01*
X222611Y132081D01*
X222784Y132500D01*
X224701D01*
X224874Y132081D01*
X225578Y131378D01*
X226497Y130998D01*
X227491D01*
X228410Y131378D01*
X229113Y132081D01*
X229287Y132500D01*
X249917D01*
X254250Y129250D01*
D02*
G37*
G36*
X325750Y90250D02*
Y87000D01*
X321795Y83045D01*
X320696Y83500D01*
X319304D01*
X318017Y82967D01*
X317033Y81982D01*
X316500Y80696D01*
Y79304D01*
X316955Y78205D01*
X312750Y74000D01*
X249514D01*
X249573Y74141D01*
Y75534D01*
X249040Y76820D01*
X248055Y77805D01*
X246769Y78338D01*
X245376D01*
X244090Y77805D01*
X244018Y77732D01*
X222410Y99340D01*
X222593Y99523D01*
X222974Y100442D01*
Y101437D01*
X222593Y102355D01*
X221890Y103059D01*
X220971Y103439D01*
X219977D01*
X219058Y103059D01*
X218874Y102876D01*
X215893Y105857D01*
X216108Y106072D01*
X216489Y106991D01*
Y107985D01*
X216108Y108904D01*
X215405Y109607D01*
X214486Y109988D01*
X213492D01*
X212573Y109607D01*
X212358Y109392D01*
X212000Y109750D01*
Y118946D01*
X212573Y118373D01*
X213492Y117993D01*
X214486D01*
X215405Y118373D01*
X216108Y119077D01*
X216489Y119995D01*
Y120744D01*
X245849D01*
X248587Y117615D01*
X248503Y117414D01*
Y116022D01*
X249036Y114735D01*
X250021Y113751D01*
X251307Y113218D01*
X252434D01*
X263161Y100959D01*
X262309Y100107D01*
X261777Y98821D01*
Y97428D01*
X262309Y96142D01*
X263294Y95157D01*
X264580Y94625D01*
X265973D01*
X267259Y95157D01*
X268244Y96142D01*
X268777Y97428D01*
Y98821D01*
X268288Y100000D01*
X283500D01*
X289308Y105808D01*
X289938Y104287D01*
X291485Y102740D01*
X293507Y101902D01*
X295695D01*
X297716Y102740D01*
X299263Y104287D01*
X300100Y106308D01*
Y108496D01*
X299263Y110518D01*
X297716Y112065D01*
X296195Y112695D01*
X312750Y129250D01*
X325750D01*
Y90250D01*
D02*
G37*
%LPC*%
G36*
X267871Y444002D02*
X266478D01*
X265192Y443470D01*
X264207Y442485D01*
X263674Y441199D01*
Y439806D01*
X264207Y438520D01*
X265192Y437535D01*
X266478Y437002D01*
X267871D01*
X269157Y437535D01*
X270141Y438520D01*
X270674Y439806D01*
Y441199D01*
X270141Y442485D01*
X269157Y443470D01*
X267871Y444002D01*
D02*
G37*
G36*
X245696Y433500D02*
X244304D01*
X243017Y432967D01*
X242033Y431983D01*
X241500Y430696D01*
Y429304D01*
X242033Y428017D01*
X243017Y427033D01*
X244304Y426500D01*
X245696D01*
X246983Y427033D01*
X247967Y428017D01*
X248500Y429304D01*
Y430696D01*
X247967Y431983D01*
X246983Y432967D01*
X245696Y433500D01*
D02*
G37*
G36*
X264948Y357955D02*
X263555D01*
X262269Y357422D01*
X261284Y356437D01*
X260751Y355151D01*
Y353758D01*
X261284Y352472D01*
X262269Y351488D01*
X263555Y350955D01*
X264948D01*
X266234Y351488D01*
X267219Y352472D01*
X267752Y353758D01*
Y355151D01*
X267219Y356437D01*
X266234Y357422D01*
X264948Y357955D01*
D02*
G37*
G36*
X259072Y309511D02*
X257680D01*
X256393Y308978D01*
X255409Y307994D01*
X254876Y306707D01*
Y305315D01*
X255409Y304028D01*
X256393Y303044D01*
X257680Y302511D01*
X259072D01*
X260359Y303044D01*
X261343Y304028D01*
X261876Y305315D01*
Y306707D01*
X261343Y307994D01*
X260359Y308978D01*
X259072Y309511D01*
D02*
G37*
G36*
X250446Y303500D02*
X249054D01*
X247767Y302967D01*
X246783Y301983D01*
X246250Y300696D01*
Y299304D01*
X246783Y298017D01*
X247767Y297033D01*
X248465Y296744D01*
X247757Y296451D01*
X246772Y295466D01*
X246239Y294180D01*
Y292787D01*
X246772Y291501D01*
X247757Y290517D01*
X249043Y289984D01*
X250435D01*
X251722Y290517D01*
X252706Y291501D01*
X253239Y292787D01*
Y294180D01*
X252706Y295466D01*
X251722Y296451D01*
X251025Y296740D01*
X251733Y297033D01*
X252717Y298017D01*
X253250Y299304D01*
Y300696D01*
X252717Y301983D01*
X251733Y302967D01*
X250446Y303500D01*
D02*
G37*
G36*
X258558Y273449D02*
X257166D01*
X255879Y272916D01*
X254895Y271932D01*
X254362Y270645D01*
Y269253D01*
X254895Y267966D01*
X255879Y266982D01*
X257166Y266449D01*
X258558D01*
X259845Y266982D01*
X260829Y267966D01*
X261362Y269253D01*
Y270645D01*
X260829Y271932D01*
X259845Y272916D01*
X258558Y273449D01*
D02*
G37*
G36*
X250711D02*
X249319D01*
X248032Y272916D01*
X247048Y271932D01*
X246515Y270645D01*
Y269253D01*
X247048Y267966D01*
X248032Y266982D01*
X249319Y266449D01*
X250711D01*
X251997Y266982D01*
X252982Y267966D01*
X253515Y269253D01*
Y270645D01*
X252982Y271932D01*
X251997Y272916D01*
X250711Y273449D01*
D02*
G37*
G36*
X317782Y446165D02*
X316389D01*
X315103Y445632D01*
X314118Y444647D01*
X313585Y443361D01*
Y441968D01*
X314118Y440682D01*
X315103Y439697D01*
X316389Y439165D01*
X317782D01*
X319068Y439697D01*
X320052Y440682D01*
X320585Y441968D01*
Y443361D01*
X320052Y444647D01*
X319068Y445632D01*
X317782Y446165D01*
D02*
G37*
G36*
X300696Y443500D02*
X299304D01*
X298017Y442967D01*
X297033Y441983D01*
X296500Y440696D01*
Y439304D01*
X297033Y438017D01*
X298017Y437033D01*
X299304Y436500D01*
X300696D01*
X301983Y437033D01*
X302967Y438017D01*
X303500Y439304D01*
Y440696D01*
X302967Y441983D01*
X301983Y442967D01*
X300696Y443500D01*
D02*
G37*
G36*
X298863Y433322D02*
X297471D01*
X296184Y432789D01*
X295200Y431804D01*
X294667Y430518D01*
Y429126D01*
X295200Y427839D01*
X296184Y426855D01*
X297471Y426322D01*
X298863D01*
X300150Y426855D01*
X301134Y427839D01*
X301667Y429126D01*
Y430518D01*
X301134Y431804D01*
X300150Y432789D01*
X298863Y433322D01*
D02*
G37*
G36*
X294057Y423262D02*
X292664D01*
X291378Y422729D01*
X290393Y421744D01*
X289860Y420458D01*
Y419066D01*
X290393Y417779D01*
X291378Y416795D01*
X292664Y416262D01*
X294057D01*
X295343Y416795D01*
X296328Y417779D01*
X296860Y419066D01*
Y420458D01*
X296328Y421744D01*
X295343Y422729D01*
X294057Y423262D01*
D02*
G37*
G36*
X298667Y394998D02*
X297274D01*
X295988Y394465D01*
X295003Y393481D01*
X294471Y392195D01*
Y390802D01*
X295003Y389516D01*
X295988Y388531D01*
X297274Y387998D01*
X298667D01*
X299953Y388531D01*
X300938Y389516D01*
X301471Y390802D01*
Y392195D01*
X300938Y393481D01*
X299953Y394465D01*
X298667Y394998D01*
D02*
G37*
G36*
X285696Y393500D02*
X284304D01*
X283017Y392967D01*
X282033Y391983D01*
X281500Y390696D01*
Y389304D01*
X282033Y388017D01*
X283017Y387033D01*
X284304Y386500D01*
X285696D01*
X286983Y387033D01*
X287967Y388017D01*
X288500Y389304D01*
Y390696D01*
X287967Y391983D01*
X286983Y392967D01*
X285696Y393500D01*
D02*
G37*
G36*
X286652Y377162D02*
X285260D01*
X283973Y376629D01*
X282989Y375645D01*
X282456Y374358D01*
Y372966D01*
X282989Y371679D01*
X283973Y370695D01*
X285260Y370162D01*
X286652D01*
X287938Y370695D01*
X289355Y369957D01*
Y369604D01*
X289888Y368318D01*
X290873Y367333D01*
X292159Y366800D01*
X293552D01*
X294838Y367333D01*
X295823Y368318D01*
X296355Y369604D01*
Y370997D01*
X295823Y372283D01*
X294838Y373268D01*
X293552Y373800D01*
X292159D01*
X290873Y373268D01*
X289456Y374006D01*
Y374358D01*
X288923Y375645D01*
X287938Y376629D01*
X286652Y377162D01*
D02*
G37*
G36*
X292439Y363867D02*
X291047D01*
X289761Y363334D01*
X288776Y362350D01*
X288652Y362325D01*
X288009Y362967D01*
X286723Y363500D01*
X285331D01*
X284044Y362967D01*
X283060Y361983D01*
X282527Y360696D01*
Y359304D01*
X283060Y358017D01*
X284044Y357033D01*
X285331Y356500D01*
X286723D01*
X288009Y357033D01*
X288994Y358017D01*
X289118Y358042D01*
X289761Y357400D01*
X291047Y356867D01*
X292439D01*
X293726Y357400D01*
X294710Y358384D01*
X295243Y359671D01*
Y361063D01*
X294710Y362350D01*
X293726Y363334D01*
X292439Y363867D01*
D02*
G37*
G36*
X298617Y342014D02*
X297225D01*
X295938Y341481D01*
X294954Y340496D01*
X294421Y339210D01*
Y337817D01*
X294954Y336531D01*
X295938Y335546D01*
X297225Y335014D01*
X298617D01*
X299903Y335546D01*
X300888Y336531D01*
X301421Y337817D01*
Y339210D01*
X300888Y340496D01*
X299903Y341481D01*
X298617Y342014D01*
D02*
G37*
G36*
X292410Y294851D02*
X291018D01*
X289732Y294318D01*
X288747Y293333D01*
X288214Y292047D01*
Y290655D01*
X288747Y289368D01*
X289732Y288384D01*
X291018Y287851D01*
X292410D01*
X293697Y288384D01*
X294681Y289368D01*
X295214Y290655D01*
Y292047D01*
X294681Y293333D01*
X293697Y294318D01*
X292410Y294851D01*
D02*
G37*
G36*
X280696Y283500D02*
X279304D01*
X278017Y282967D01*
X277033Y281982D01*
X276500Y280696D01*
Y279304D01*
X277033Y278017D01*
X278017Y277033D01*
X279304Y276500D01*
X280696D01*
X281983Y277033D01*
X282967Y278017D01*
X283500Y279304D01*
Y280696D01*
X282967Y281982D01*
X281983Y282967D01*
X280696Y283500D01*
D02*
G37*
G36*
X292067Y283185D02*
X290675D01*
X289389Y282652D01*
X288404Y281667D01*
X287871Y280381D01*
Y278988D01*
X288404Y277702D01*
X289139Y276967D01*
X289266Y276010D01*
X289121Y275179D01*
X288361Y274419D01*
X287828Y273132D01*
X286433Y273340D01*
X285041D01*
X283754Y272807D01*
X282770Y271822D01*
X282237Y270536D01*
Y269144D01*
X282770Y267857D01*
X283754Y266873D01*
X285041Y266340D01*
X286433D01*
X287719Y266873D01*
X288704Y267857D01*
X289237Y269144D01*
X290632Y268936D01*
X292025D01*
X293311Y269469D01*
X294296Y270453D01*
X294828Y271740D01*
Y273132D01*
X294296Y274419D01*
X293561Y275154D01*
X293434Y276111D01*
X293578Y276942D01*
X294338Y277702D01*
X294871Y278988D01*
Y280381D01*
X294338Y281667D01*
X293354Y282652D01*
X292067Y283185D01*
D02*
G37*
G36*
X280696Y243500D02*
X279304D01*
X278017Y242967D01*
X277033Y241982D01*
X276500Y240696D01*
Y239304D01*
X277033Y238017D01*
X278017Y237033D01*
X279304Y236500D01*
X280696D01*
X281983Y237033D01*
X282967Y238017D01*
X283500Y239304D01*
Y240696D01*
X282967Y241982D01*
X281983Y242967D01*
X280696Y243500D01*
D02*
G37*
G36*
X290423Y239684D02*
X289030D01*
X287744Y239151D01*
X286759Y238167D01*
X286227Y236880D01*
Y235488D01*
X286759Y234201D01*
X287744Y233217D01*
X289030Y232684D01*
X290423D01*
X291709Y233217D01*
X292694Y234201D01*
X293227Y235488D01*
Y236880D01*
X292694Y238167D01*
X291709Y239151D01*
X290423Y239684D01*
D02*
G37*
G36*
X270696Y223500D02*
X269304D01*
X268017Y222967D01*
X267033Y221982D01*
X266500Y220696D01*
Y219304D01*
X267033Y218017D01*
X268017Y217033D01*
X269304Y216500D01*
X270696D01*
X271983Y217033D01*
X272967Y218017D01*
X273500Y219304D01*
Y220696D01*
X272967Y221982D01*
X271983Y222967D01*
X270696Y223500D01*
D02*
G37*
G36*
X259955Y214000D02*
X258563D01*
X257276Y213467D01*
X256292Y212483D01*
X255759Y211196D01*
Y209804D01*
X256292Y208517D01*
X257276Y207533D01*
X258563Y207000D01*
X259955D01*
X261241Y207533D01*
X262226Y208517D01*
X262759Y209804D01*
Y211196D01*
X262226Y212483D01*
X261241Y213467D01*
X259955Y214000D01*
D02*
G37*
G36*
X352516Y401925D02*
X351124D01*
X349838Y401392D01*
X348853Y400407D01*
X348320Y399121D01*
Y397728D01*
X348853Y396442D01*
X349838Y395457D01*
X351124Y394925D01*
X352516D01*
X353803Y395457D01*
X354787Y396442D01*
X355320Y397728D01*
Y399121D01*
X354787Y400407D01*
X353803Y401392D01*
X352516Y401925D01*
D02*
G37*
G36*
X354793Y390763D02*
X353400D01*
X352114Y390230D01*
X351129Y389246D01*
X350597Y387960D01*
Y386567D01*
X351129Y385281D01*
X352114Y384296D01*
X353400Y383763D01*
X354793D01*
X356079Y384296D01*
X357064Y385281D01*
X357597Y386567D01*
Y387960D01*
X357064Y389246D01*
X356079Y390230D01*
X354793Y390763D01*
D02*
G37*
G36*
X316059Y383516D02*
X314667D01*
X313380Y382983D01*
X312396Y381998D01*
X311863Y380712D01*
Y379319D01*
X312396Y378033D01*
X313380Y377048D01*
X314667Y376516D01*
X316059D01*
X317345Y377048D01*
X318330Y378033D01*
X318863Y379319D01*
Y380712D01*
X318330Y381998D01*
X317345Y382983D01*
X316059Y383516D01*
D02*
G37*
G36*
X325707Y378500D02*
X324315D01*
X323028Y377967D01*
X322044Y376983D01*
X321511Y375696D01*
Y374304D01*
X322044Y373017D01*
X323028Y372033D01*
X324315Y371500D01*
X325707D01*
X326993Y372033D01*
X327978Y373017D01*
X328511Y374304D01*
Y375696D01*
X327978Y376983D01*
X326993Y377967D01*
X325707Y378500D01*
D02*
G37*
G36*
X324179Y371266D02*
X322786D01*
X321500Y370733D01*
X320515Y369749D01*
X319982Y368463D01*
Y367070D01*
X320515Y365784D01*
X321500Y364799D01*
X322786Y364266D01*
X324179D01*
X325465Y364799D01*
X326450Y365784D01*
X326982Y367070D01*
Y368463D01*
X326450Y369749D01*
X325465Y370733D01*
X324179Y371266D01*
D02*
G37*
G36*
X334348Y365379D02*
X332956D01*
X331669Y364846D01*
X330685Y363862D01*
X330152Y362575D01*
Y361183D01*
X330685Y359897D01*
X331669Y358912D01*
X332605Y358525D01*
X332589Y358509D01*
X332056Y357222D01*
Y355830D01*
X332589Y354543D01*
X333573Y353559D01*
X334860Y353026D01*
X336252D01*
X337539Y353559D01*
X338523Y354543D01*
X339056Y355830D01*
Y357222D01*
X338523Y358509D01*
X337539Y359493D01*
X336603Y359881D01*
X336619Y359897D01*
X337152Y361183D01*
Y362575D01*
X336619Y363862D01*
X335634Y364846D01*
X334348Y365379D01*
D02*
G37*
G36*
X328946Y359997D02*
X327553D01*
X326267Y359464D01*
X325283Y358479D01*
X324750Y357193D01*
Y355801D01*
X325283Y354514D01*
X326267Y353530D01*
X327553Y352997D01*
X328946D01*
X330232Y353530D01*
X331217Y354514D01*
X331750Y355801D01*
Y357193D01*
X331217Y358479D01*
X330232Y359464D01*
X328946Y359997D01*
D02*
G37*
G36*
X335067Y346550D02*
X333674D01*
X332388Y346017D01*
X331403Y345033D01*
X330871Y343746D01*
Y342354D01*
X331403Y341067D01*
X332388Y340083D01*
X333674Y339550D01*
X335067D01*
X336353Y340083D01*
X337338Y341067D01*
X337871Y342354D01*
Y343746D01*
X337338Y345033D01*
X336353Y346017D01*
X335067Y346550D01*
D02*
G37*
G36*
X353448Y349100D02*
X351459D01*
X349622Y348339D01*
X348215Y346933D01*
X347454Y345095D01*
Y343106D01*
X348215Y341268D01*
X349622Y339862D01*
X351459Y339100D01*
X353448D01*
X355286Y339862D01*
X356693Y341268D01*
X357454Y343106D01*
Y345095D01*
X356693Y346933D01*
X355286Y348339D01*
X353448Y349100D01*
D02*
G37*
G36*
X353405Y332975D02*
X351415D01*
X349578Y332214D01*
X348171Y330807D01*
X347410Y328970D01*
Y326981D01*
X348171Y325143D01*
X349578Y323736D01*
X351415Y322975D01*
X353405D01*
X355242Y323736D01*
X356649Y325143D01*
X357410Y326981D01*
Y328970D01*
X356649Y330807D01*
X355242Y332214D01*
X353405Y332975D01*
D02*
G37*
G36*
X317215Y328864D02*
X315822D01*
X314536Y328331D01*
X313551Y327347D01*
X313018Y326060D01*
Y324668D01*
X313551Y323382D01*
X314536Y322397D01*
X315822Y321864D01*
X317215D01*
X318501Y322397D01*
X319486Y323382D01*
X320018Y324668D01*
Y326060D01*
X319486Y327347D01*
X318501Y328331D01*
X317215Y328864D01*
D02*
G37*
G36*
X320478Y321086D02*
X319086D01*
X317799Y320554D01*
X316815Y319569D01*
X316420Y318616D01*
X316411Y318635D01*
X315427Y319620D01*
X314140Y320153D01*
X312748D01*
X311462Y319620D01*
X310477Y318635D01*
X309944Y317349D01*
Y315957D01*
X310477Y314670D01*
X311462Y313686D01*
X312748Y313153D01*
X314140D01*
X315427Y313686D01*
X316411Y314670D01*
X316806Y315624D01*
X316815Y315604D01*
X317799Y314619D01*
X319086Y314086D01*
X320478D01*
X321764Y314619D01*
X322749Y315604D01*
X323282Y316890D01*
Y318283D01*
X322749Y319569D01*
X321764Y320554D01*
X320478Y321086D01*
D02*
G37*
G36*
X353584Y315865D02*
X351595D01*
X349757Y315104D01*
X348350Y313697D01*
X347589Y311860D01*
Y309871D01*
X348350Y308033D01*
X349757Y306626D01*
X351595Y305865D01*
X353584D01*
X355421Y306626D01*
X356828Y308033D01*
X357589Y309871D01*
Y311860D01*
X356828Y313697D01*
X355421Y315104D01*
X353584Y315865D01*
D02*
G37*
G36*
X330835Y315817D02*
X329442D01*
X328156Y315284D01*
X327171Y314299D01*
X326639Y313013D01*
Y311621D01*
X327171Y310334D01*
X328156Y309350D01*
X329442Y308817D01*
X330835D01*
X331712Y309180D01*
X331506Y308684D01*
Y307291D01*
X332039Y306005D01*
X333024Y305020D01*
X334310Y304487D01*
X335703D01*
X336989Y305020D01*
X337973Y306005D01*
X338506Y307291D01*
Y308684D01*
X337973Y309970D01*
X336989Y310955D01*
X335703Y311488D01*
X334310D01*
X333433Y311124D01*
X333639Y311621D01*
Y313013D01*
X333106Y314299D01*
X332121Y315284D01*
X330835Y315817D01*
D02*
G37*
G36*
X324095Y310896D02*
X322703D01*
X321416Y310363D01*
X320432Y309379D01*
X319899Y308092D01*
Y306700D01*
X320432Y305413D01*
X321416Y304429D01*
X322703Y303896D01*
X322790D01*
X322500Y303196D01*
Y301804D01*
X323033Y300517D01*
X324017Y299533D01*
X325304Y299000D01*
X326696D01*
X327983Y299533D01*
X328967Y300517D01*
X329500Y301804D01*
Y303196D01*
X328967Y304483D01*
X327983Y305467D01*
X326696Y306000D01*
X326609D01*
X326899Y306700D01*
Y308092D01*
X326366Y309379D01*
X325382Y310363D01*
X324095Y310896D01*
D02*
G37*
G36*
X316696Y306000D02*
X315304D01*
X314017Y305467D01*
X313033Y304483D01*
X312500Y303196D01*
Y301804D01*
X313033Y300517D01*
X314017Y299533D01*
X315304Y299000D01*
X316696D01*
X317983Y299533D01*
X318967Y300517D01*
X319500Y301804D01*
Y303196D01*
X318967Y304483D01*
X317983Y305467D01*
X316696Y306000D01*
D02*
G37*
G36*
X321696Y301000D02*
X320304D01*
X319017Y300467D01*
X318033Y299483D01*
X317500Y298196D01*
Y296804D01*
X318033Y295517D01*
X319017Y294533D01*
X320304Y294000D01*
X321696D01*
X322983Y294533D01*
X323967Y295517D01*
X324500Y296804D01*
Y298196D01*
X323967Y299483D01*
X322983Y300467D01*
X321696Y301000D01*
D02*
G37*
G36*
X353540Y299740D02*
X351551D01*
X349713Y298979D01*
X348307Y297572D01*
X347545Y295735D01*
Y293745D01*
X348307Y291908D01*
X349713Y290501D01*
X351551Y289740D01*
X353540D01*
X355378Y290501D01*
X356784Y291908D01*
X357545Y293745D01*
Y295735D01*
X356784Y297572D01*
X355378Y298979D01*
X353540Y299740D01*
D02*
G37*
G36*
X326696Y296000D02*
X325304D01*
X324017Y295467D01*
X323033Y294483D01*
X322500Y293196D01*
Y291804D01*
X323033Y290517D01*
X324017Y289533D01*
X325304Y289000D01*
X326696D01*
X327983Y289533D01*
X328967Y290517D01*
X329500Y291804D01*
Y293196D01*
X328967Y294483D01*
X327983Y295467D01*
X326696Y296000D01*
D02*
G37*
G36*
X316696D02*
X315304D01*
X314017Y295467D01*
X313033Y294483D01*
X312500Y293196D01*
Y291804D01*
X313033Y290517D01*
X314017Y289533D01*
X315304Y289000D01*
X316696D01*
X317983Y289533D01*
X318967Y290517D01*
X319500Y291804D01*
Y293196D01*
X318967Y294483D01*
X317983Y295467D01*
X316696Y296000D01*
D02*
G37*
G36*
X330317Y286580D02*
X328925D01*
X327638Y286047D01*
X326654Y285062D01*
X326121Y283776D01*
Y282383D01*
X326654Y281097D01*
X327638Y280112D01*
X328925Y279580D01*
X330317D01*
X331603Y280112D01*
X332588Y281097D01*
X333121Y282383D01*
Y283776D01*
X332588Y285062D01*
X331603Y286047D01*
X330317Y286580D01*
D02*
G37*
G36*
X340696Y283500D02*
X339304D01*
X338017Y282967D01*
X337033Y281982D01*
X336500Y280696D01*
Y279304D01*
X337033Y278017D01*
X338017Y277033D01*
X339304Y276500D01*
X340696D01*
X341983Y277033D01*
X342967Y278017D01*
X343500Y279304D01*
Y280696D01*
X342967Y281982D01*
X341983Y282967D01*
X340696Y283500D01*
D02*
G37*
G36*
X324129Y282021D02*
X322737D01*
X321451Y281488D01*
X320466Y280504D01*
X319933Y279217D01*
Y277825D01*
X320466Y276538D01*
X321451Y275554D01*
X322737Y275021D01*
X324129D01*
X325416Y275554D01*
X326400Y276538D01*
X326933Y277825D01*
Y279217D01*
X326400Y280504D01*
X325416Y281488D01*
X324129Y282021D01*
D02*
G37*
G36*
X353464Y284689D02*
X351474D01*
X349637Y283928D01*
X348230Y282521D01*
X347469Y280683D01*
Y278694D01*
X348230Y276857D01*
X349637Y275450D01*
X351474Y274689D01*
X353464D01*
X355301Y275450D01*
X356708Y276857D01*
X357469Y278694D01*
Y280683D01*
X356708Y282521D01*
X355301Y283928D01*
X353464Y284689D01*
D02*
G37*
G36*
X322872Y268623D02*
X321480D01*
X320193Y268090D01*
X319209Y267106D01*
X318676Y265819D01*
Y264427D01*
X319209Y263141D01*
X320193Y262156D01*
X321480Y261623D01*
X322872D01*
X324159Y262156D01*
X325143Y263141D01*
X325676Y264427D01*
Y265819D01*
X325143Y267106D01*
X324159Y268090D01*
X322872Y268623D01*
D02*
G37*
G36*
X353420Y268564D02*
X351430D01*
X349593Y267803D01*
X348186Y266396D01*
X347425Y264558D01*
Y262569D01*
X348186Y260732D01*
X349593Y259325D01*
X351430Y258564D01*
X353420D01*
X355257Y259325D01*
X356664Y260732D01*
X357425Y262569D01*
Y264558D01*
X356664Y266396D01*
X355257Y267803D01*
X353420Y268564D01*
D02*
G37*
G36*
X337098Y264822D02*
X335705D01*
X334419Y264289D01*
X333434Y263305D01*
X332902Y262019D01*
Y260626D01*
X333434Y259340D01*
X334419Y258355D01*
X335705Y257822D01*
X337098D01*
X338384Y258355D01*
X339369Y259340D01*
X339902Y260626D01*
Y262019D01*
X339369Y263305D01*
X338384Y264289D01*
X337098Y264822D01*
D02*
G37*
G36*
X345087Y253690D02*
X341099D01*
X338757Y253224D01*
X336773Y251898D01*
X335446Y249913D01*
X334981Y247572D01*
X335446Y245230D01*
X336773Y243246D01*
X338757Y241919D01*
X341099Y241454D01*
X345087D01*
X347428Y241919D01*
X349413Y243246D01*
X350739Y245230D01*
X351205Y247572D01*
X350739Y249913D01*
X349413Y251898D01*
X347428Y253224D01*
X345087Y253690D01*
D02*
G37*
G36*
X350696Y223500D02*
X349304D01*
X348017Y222967D01*
X347033Y221982D01*
X346500Y220696D01*
Y219304D01*
X347033Y218017D01*
X348017Y217033D01*
X349304Y216500D01*
X350696D01*
X351983Y217033D01*
X352967Y218017D01*
X353500Y219304D01*
Y220696D01*
X352967Y221982D01*
X351983Y222967D01*
X350696Y223500D01*
D02*
G37*
G36*
X340696Y203500D02*
X339304D01*
X338017Y202967D01*
X337033Y201982D01*
X336500Y200696D01*
Y199304D01*
X337033Y198017D01*
X338017Y197033D01*
X339304Y196500D01*
X340696D01*
X341983Y197033D01*
X342967Y198017D01*
X343500Y199304D01*
Y200696D01*
X342967Y201982D01*
X341983Y202967D01*
X340696Y203500D01*
D02*
G37*
G36*
X316257Y193777D02*
X314865D01*
X313578Y193244D01*
X312594Y192260D01*
X312061Y190973D01*
Y189581D01*
X312594Y188295D01*
X313578Y187310D01*
X314865Y186777D01*
X316257D01*
X317544Y187310D01*
X318528Y188295D01*
X319061Y189581D01*
Y190973D01*
X318528Y192260D01*
X317544Y193244D01*
X316257Y193777D01*
D02*
G37*
G36*
X350696Y183500D02*
X349304D01*
X348017Y182967D01*
X347033Y181982D01*
X346500Y180696D01*
Y179304D01*
X347033Y178017D01*
X348017Y177033D01*
X349304Y176500D01*
X350696D01*
X351983Y177033D01*
X352967Y178017D01*
X353500Y179304D01*
Y180696D01*
X352967Y181982D01*
X351983Y182967D01*
X350696Y183500D01*
D02*
G37*
G36*
X307337Y180224D02*
X305348D01*
X303510Y179463D01*
X302104Y178057D01*
X301343Y176219D01*
Y174230D01*
X302104Y172392D01*
X303510Y170986D01*
X305348Y170224D01*
X307337D01*
X309175Y170986D01*
X310581Y172392D01*
X311343Y174230D01*
Y176219D01*
X310581Y178057D01*
X309175Y179463D01*
X307337Y180224D01*
D02*
G37*
G36*
X291265Y175767D02*
X289873D01*
X288587Y175234D01*
X287602Y174249D01*
X287069Y172963D01*
Y171570D01*
X287602Y170284D01*
X288587Y169299D01*
X289873Y168766D01*
X291265D01*
X292552Y169299D01*
X293536Y170284D01*
X294069Y171570D01*
Y172963D01*
X293536Y174249D01*
X292552Y175234D01*
X291265Y175767D01*
D02*
G37*
G36*
X220989Y162007D02*
X219994D01*
X219075Y161627D01*
X218372Y160923D01*
X217991Y160005D01*
Y159010D01*
X218372Y158091D01*
X219075Y157388D01*
X219994Y157007D01*
X220989D01*
X221908Y157388D01*
X222611Y158091D01*
X222991Y159010D01*
Y160005D01*
X222611Y160923D01*
X221908Y161627D01*
X220989Y162007D01*
D02*
G37*
G36*
X345087Y167177D02*
X341099D01*
X338757Y166712D01*
X336773Y165385D01*
X335446Y163400D01*
X334981Y161059D01*
X335446Y158718D01*
X336773Y156733D01*
X338757Y155407D01*
X341099Y154941D01*
X345087D01*
X347428Y155407D01*
X349413Y156733D01*
X350739Y158718D01*
X351205Y161059D01*
X350739Y163400D01*
X349413Y165385D01*
X347428Y166712D01*
X345087Y167177D01*
D02*
G37*
G36*
X304789D02*
X297779D01*
X295438Y166712D01*
X293453Y165385D01*
X292127Y163400D01*
X291661Y161059D01*
X292127Y158718D01*
X293453Y156733D01*
X295438Y155407D01*
X297779Y154941D01*
X304789D01*
X307131Y155407D01*
X309116Y156733D01*
X310442Y158718D01*
X310907Y161059D01*
X310442Y163400D01*
X309116Y165385D01*
X307131Y166712D01*
X304789Y167177D01*
D02*
G37*
G36*
X220989Y155505D02*
X219994D01*
X219075Y155124D01*
X218372Y154421D01*
X217991Y153502D01*
Y152507D01*
X218372Y151589D01*
X219075Y150885D01*
X219994Y150505D01*
X220989D01*
X221908Y150885D01*
X222611Y151589D01*
X222991Y152507D01*
Y153502D01*
X222611Y154421D01*
X221908Y155124D01*
X220989Y155505D01*
D02*
G37*
G36*
X181974D02*
X180980D01*
X180061Y155124D01*
X179358Y154421D01*
X178977Y153502D01*
Y152507D01*
X179358Y151589D01*
X180061Y150885D01*
X180980Y150505D01*
X181974D01*
X182893Y150885D01*
X183596Y151589D01*
X183977Y152507D01*
Y153502D01*
X183596Y154421D01*
X182893Y155124D01*
X181974Y155505D01*
D02*
G37*
G36*
X175497D02*
X174503D01*
X173584Y155124D01*
X172881Y154421D01*
X172500Y153502D01*
Y152507D01*
X172881Y151589D01*
X173584Y150885D01*
X174503Y150505D01*
X175497D01*
X176416Y150885D01*
X177119Y151589D01*
X177500Y152507D01*
Y153502D01*
X177119Y154421D01*
X176416Y155124D01*
X175497Y155505D01*
D02*
G37*
G36*
X227491Y149002D02*
X226497D01*
X225578Y148622D01*
X224874Y147919D01*
X224494Y147000D01*
Y146005D01*
X224874Y145086D01*
X225578Y144383D01*
X226497Y144002D01*
X227491D01*
X228410Y144383D01*
X229113Y145086D01*
X229494Y146005D01*
Y147000D01*
X229113Y147919D01*
X228410Y148622D01*
X227491Y149002D01*
D02*
G37*
G36*
X220989D02*
X219994D01*
X219075Y148622D01*
X218372Y147919D01*
X217991Y147000D01*
Y146005D01*
X218372Y145086D01*
X219075Y144383D01*
X219994Y144002D01*
X220989D01*
X221908Y144383D01*
X222611Y145086D01*
X222991Y146005D01*
Y147000D01*
X222611Y147919D01*
X221908Y148622D01*
X220989Y149002D01*
D02*
G37*
G36*
X214486D02*
X213492D01*
X212573Y148622D01*
X211870Y147919D01*
X211489Y147000D01*
Y146005D01*
X211870Y145086D01*
X212573Y144383D01*
X213492Y144002D01*
X214486D01*
X215405Y144383D01*
X216108Y145086D01*
X216489Y146005D01*
Y147000D01*
X216108Y147919D01*
X215405Y148622D01*
X214486Y149002D01*
D02*
G37*
G36*
X207984D02*
X206989D01*
X206070Y148622D01*
X205367Y147919D01*
X204987Y147000D01*
Y146005D01*
X205367Y145086D01*
X206070Y144383D01*
X206989Y144002D01*
X207984D01*
X208903Y144383D01*
X209606Y145086D01*
X209987Y146005D01*
Y147000D01*
X209606Y147919D01*
X208903Y148622D01*
X207984Y149002D01*
D02*
G37*
G36*
X201481D02*
X200487D01*
X199568Y148622D01*
X198865Y147919D01*
X198484Y147000D01*
Y146005D01*
X198865Y145086D01*
X199568Y144383D01*
X200487Y144002D01*
X201481D01*
X202400Y144383D01*
X203104Y145086D01*
X203484Y146005D01*
Y147000D01*
X203104Y147919D01*
X202400Y148622D01*
X201481Y149002D01*
D02*
G37*
G36*
X194979D02*
X193985D01*
X193066Y148622D01*
X192362Y147919D01*
X191982Y147000D01*
Y146005D01*
X192362Y145086D01*
X193066Y144383D01*
X193985Y144002D01*
X194979D01*
X195898Y144383D01*
X196601Y145086D01*
X196982Y146005D01*
Y147000D01*
X196601Y147919D01*
X195898Y148622D01*
X194979Y149002D01*
D02*
G37*
G36*
X188477D02*
X187482D01*
X186563Y148622D01*
X185860Y147919D01*
X185479Y147000D01*
Y146005D01*
X185860Y145086D01*
X186563Y144383D01*
X187482Y144002D01*
X188477D01*
X189396Y144383D01*
X190099Y145086D01*
X190479Y146005D01*
Y147000D01*
X190099Y147919D01*
X189396Y148622D01*
X188477Y149002D01*
D02*
G37*
G36*
X227491Y142500D02*
X226497D01*
X225578Y142119D01*
X224874Y141416D01*
X224494Y140497D01*
Y139503D01*
X224874Y138584D01*
X225578Y137881D01*
X226497Y137500D01*
X227491D01*
X228410Y137881D01*
X229113Y138584D01*
X229494Y139503D01*
Y140497D01*
X229113Y141416D01*
X228410Y142119D01*
X227491Y142500D01*
D02*
G37*
G36*
X220989D02*
X219994D01*
X219075Y142119D01*
X218372Y141416D01*
X217991Y140497D01*
Y139503D01*
X218372Y138584D01*
X219075Y137881D01*
X219994Y137500D01*
X220989D01*
X221908Y137881D01*
X222611Y138584D01*
X222991Y139503D01*
Y140497D01*
X222611Y141416D01*
X221908Y142119D01*
X220989Y142500D01*
D02*
G37*
G36*
X181974D02*
X180980D01*
X180061Y142119D01*
X179358Y141416D01*
X178977Y140497D01*
Y139503D01*
X179358Y138584D01*
X180061Y137881D01*
X180980Y137500D01*
X181974D01*
X182893Y137881D01*
X183596Y138584D01*
X183977Y139503D01*
Y140497D01*
X183596Y141416D01*
X182893Y142119D01*
X181974Y142500D01*
D02*
G37*
G36*
X175497D02*
X174503D01*
X173584Y142119D01*
X172881Y141416D01*
X172500Y140497D01*
Y139503D01*
X172881Y138584D01*
X173584Y137881D01*
X174503Y137500D01*
X175497D01*
X176416Y137881D01*
X177119Y138584D01*
X177500Y139503D01*
Y140497D01*
X177119Y141416D01*
X176416Y142119D01*
X175497Y142500D01*
D02*
G37*
G36*
X330696Y143500D02*
X329304D01*
X328017Y142967D01*
X327033Y141982D01*
X326500Y140696D01*
Y139304D01*
X327033Y138017D01*
X328017Y137033D01*
X329304Y136500D01*
X330696D01*
X331983Y137033D01*
X332967Y138017D01*
X333500Y139304D01*
Y140696D01*
X332967Y141982D01*
X331983Y142967D01*
X330696Y143500D01*
D02*
G37*
G36*
X290696D02*
X289304D01*
X288017Y142967D01*
X287033Y141982D01*
X286500Y140696D01*
Y139304D01*
X287033Y138017D01*
X288017Y137033D01*
X289304Y136500D01*
X290696D01*
X291983Y137033D01*
X292967Y138017D01*
X293500Y139304D01*
Y140696D01*
X292967Y141982D01*
X291983Y142967D01*
X290696Y143500D01*
D02*
G37*
G36*
X207984Y135998D02*
X206989D01*
X206070Y135617D01*
X205367Y134914D01*
X204987Y133995D01*
Y133000D01*
X205367Y132081D01*
X206070Y131378D01*
X206989Y130998D01*
X207984D01*
X208903Y131378D01*
X209606Y132081D01*
X209987Y133000D01*
Y133995D01*
X209606Y134914D01*
X208903Y135617D01*
X207984Y135998D01*
D02*
G37*
G36*
X201481D02*
X200487D01*
X199568Y135617D01*
X198865Y134914D01*
X198484Y133995D01*
Y133000D01*
X198865Y132081D01*
X199568Y131378D01*
X200487Y130998D01*
X201481D01*
X202400Y131378D01*
X203104Y132081D01*
X203484Y133000D01*
Y133995D01*
X203104Y134914D01*
X202400Y135617D01*
X201481Y135998D01*
D02*
G37*
G36*
X194979D02*
X193985D01*
X193066Y135617D01*
X192362Y134914D01*
X191982Y133995D01*
Y133000D01*
X192362Y132081D01*
X193066Y131378D01*
X193985Y130998D01*
X194979D01*
X195898Y131378D01*
X196601Y132081D01*
X196982Y133000D01*
Y133995D01*
X196601Y134914D01*
X195898Y135617D01*
X194979Y135998D01*
D02*
G37*
G36*
X188477D02*
X187482D01*
X186563Y135617D01*
X185860Y134914D01*
X185479Y133995D01*
Y133000D01*
X185860Y132081D01*
X186563Y131378D01*
X187482Y130998D01*
X188477D01*
X189396Y131378D01*
X190099Y132081D01*
X190479Y133000D01*
Y133995D01*
X190099Y134914D01*
X189396Y135617D01*
X188477Y135998D01*
D02*
G37*
G36*
X20946Y474000D02*
X19554D01*
X18267Y473467D01*
X17283Y472483D01*
X16750Y471196D01*
Y469804D01*
X17283Y468517D01*
X18267Y467533D01*
X19554Y467000D01*
X20946D01*
X22233Y467533D01*
X23217Y468517D01*
X23750Y469804D01*
Y471196D01*
X23217Y472483D01*
X22233Y473467D01*
X20946Y474000D01*
D02*
G37*
G36*
X30696Y464250D02*
X29304D01*
X28017Y463717D01*
X27033Y462733D01*
X26500Y461446D01*
Y460054D01*
X27033Y458767D01*
X28017Y457783D01*
X29304Y457250D01*
X30696D01*
X31983Y457783D01*
X32967Y458767D01*
X33500Y460054D01*
Y461446D01*
X32967Y462733D01*
X31983Y463717D01*
X30696Y464250D01*
D02*
G37*
G36*
X182132Y455566D02*
X180740D01*
X179453Y455033D01*
X178469Y454049D01*
X177936Y452762D01*
Y451370D01*
X178469Y450084D01*
X179453Y449099D01*
X180740Y448566D01*
X182132D01*
X183419Y449099D01*
X184403Y450084D01*
X184936Y451370D01*
Y452762D01*
X184403Y454049D01*
X183419Y455033D01*
X182132Y455566D01*
D02*
G37*
G36*
X50196Y450106D02*
X48804D01*
X47517Y449573D01*
X46533Y448588D01*
X46000Y447302D01*
Y445909D01*
X46533Y444623D01*
X47517Y443638D01*
X48804Y443106D01*
X50196D01*
X51483Y443638D01*
X52467Y444623D01*
X53000Y445909D01*
Y447302D01*
X52467Y448588D01*
X51483Y449573D01*
X50196Y450106D01*
D02*
G37*
G36*
X113006Y448500D02*
X111614D01*
X110327Y447967D01*
X109343Y446983D01*
X108810Y445696D01*
Y444304D01*
X109343Y443017D01*
X110327Y442033D01*
X111614Y441500D01*
X113006D01*
X114293Y442033D01*
X115277Y443017D01*
X115810Y444304D01*
Y445696D01*
X115277Y446983D01*
X114293Y447967D01*
X113006Y448500D01*
D02*
G37*
G36*
X20946Y448000D02*
X19554D01*
X18267Y447467D01*
X17283Y446483D01*
X16750Y445196D01*
Y443804D01*
X17283Y442517D01*
X18267Y441533D01*
X19554Y441000D01*
X20946D01*
X22233Y441533D01*
X23217Y442517D01*
X23750Y443804D01*
Y445196D01*
X23217Y446483D01*
X22233Y447467D01*
X20946Y448000D01*
D02*
G37*
G36*
X89011Y447822D02*
X87618D01*
X86332Y447289D01*
X85347Y446305D01*
X84815Y445018D01*
Y443626D01*
X85347Y442339D01*
X86332Y441355D01*
X87618Y440822D01*
X89011D01*
X90297Y441355D01*
X91282Y442339D01*
X91814Y443626D01*
Y445018D01*
X91282Y446305D01*
X90297Y447289D01*
X89011Y447822D01*
D02*
G37*
G36*
X69066D02*
X67673D01*
X66387Y447289D01*
X65402Y446305D01*
X64869Y445018D01*
Y443626D01*
X65402Y442339D01*
X66387Y441355D01*
X67673Y440822D01*
X69066D01*
X70352Y441355D01*
X71337Y442339D01*
X71869Y443626D01*
Y445018D01*
X71337Y446305D01*
X70352Y447289D01*
X69066Y447822D01*
D02*
G37*
G36*
X182026Y447640D02*
X180634D01*
X179347Y447107D01*
X178363Y446122D01*
X177830Y444836D01*
Y443443D01*
X178363Y442157D01*
X179347Y441172D01*
X180634Y440639D01*
X182026D01*
X183313Y441172D01*
X184297Y442157D01*
X184830Y443443D01*
Y444836D01*
X184297Y446122D01*
X183313Y447107D01*
X182026Y447640D01*
D02*
G37*
G36*
X149336Y446101D02*
X147943D01*
X146657Y445569D01*
X145672Y444584D01*
X145140Y443298D01*
Y441905D01*
X145672Y440619D01*
X146657Y439634D01*
X147943Y439102D01*
X149336D01*
X150622Y439634D01*
X151607Y440619D01*
X152140Y441905D01*
Y443298D01*
X151607Y444584D01*
X150622Y445569D01*
X149336Y446101D01*
D02*
G37*
G36*
X125798Y442088D02*
X124406D01*
X123119Y441555D01*
X122135Y440570D01*
X121602Y439284D01*
Y437892D01*
X122135Y436605D01*
X123119Y435621D01*
X124406Y435088D01*
X125798D01*
X127084Y435621D01*
X128069Y436605D01*
X128602Y437892D01*
Y439284D01*
X128069Y440570D01*
X127084Y441555D01*
X125798Y442088D01*
D02*
G37*
G36*
X107570Y441247D02*
X106177D01*
X104891Y440714D01*
X103906Y439730D01*
X103374Y438443D01*
Y437051D01*
X103906Y435765D01*
X104891Y434780D01*
X106177Y434247D01*
X107570D01*
X108856Y434780D01*
X109841Y435765D01*
X110374Y437051D01*
Y438443D01*
X109841Y439730D01*
X108856Y440714D01*
X107570Y441247D01*
D02*
G37*
G36*
X228721Y444389D02*
X227328D01*
X226042Y443857D01*
X225057Y442872D01*
X224524Y441586D01*
Y440193D01*
X225057Y438907D01*
X226042Y437922D01*
X227328Y437389D01*
X227909D01*
X227907Y437388D01*
X227375Y436102D01*
Y434709D01*
X227907Y433423D01*
X228892Y432438D01*
X230178Y431906D01*
X231571D01*
X232857Y432438D01*
X233842Y433423D01*
X234375Y434709D01*
Y436102D01*
X233842Y437388D01*
X232857Y438373D01*
X231571Y438905D01*
X230990D01*
X230992Y438907D01*
X231524Y440193D01*
Y441586D01*
X230992Y442872D01*
X230007Y443857D01*
X228721Y444389D01*
D02*
G37*
G36*
X148878Y437595D02*
X147485D01*
X146199Y437062D01*
X145214Y436078D01*
X144682Y434791D01*
Y433399D01*
X145214Y432113D01*
X146199Y431128D01*
X147485Y430595D01*
X148878D01*
X150164Y431128D01*
X151149Y432113D01*
X151682Y433399D01*
Y434791D01*
X151149Y436078D01*
X150164Y437062D01*
X148878Y437595D01*
D02*
G37*
G36*
X18884Y434445D02*
X17492D01*
X16205Y433913D01*
X15221Y432928D01*
X14688Y431642D01*
Y430249D01*
X15221Y428963D01*
X16205Y427978D01*
X17492Y427445D01*
X18884D01*
X20170Y427978D01*
X21155Y428963D01*
X21688Y430249D01*
Y431642D01*
X21155Y432928D01*
X20170Y433913D01*
X18884Y434445D01*
D02*
G37*
G36*
X105446Y434253D02*
X104054D01*
X102767Y433720D01*
X101783Y432735D01*
X101250Y431449D01*
Y430056D01*
X101783Y428770D01*
X102767Y427785D01*
X104054Y427253D01*
X105446D01*
X106733Y427785D01*
X107717Y428770D01*
X108250Y430056D01*
Y431449D01*
X107717Y432735D01*
X106733Y433720D01*
X105446Y434253D01*
D02*
G37*
G36*
X135463Y434030D02*
X134070D01*
X132784Y433498D01*
X131799Y432513D01*
X131266Y431227D01*
Y429834D01*
X131799Y428548D01*
X132784Y427563D01*
X134070Y427030D01*
X135463D01*
X136749Y427563D01*
X137734Y428548D01*
X138266Y429834D01*
Y431227D01*
X137734Y432513D01*
X136749Y433498D01*
X135463Y434030D01*
D02*
G37*
G36*
X158183Y428822D02*
X156791D01*
X155505Y428289D01*
X154520Y427304D01*
X153987Y426018D01*
Y424626D01*
X154520Y423339D01*
X155505Y422355D01*
X156791Y421822D01*
X158183D01*
X159470Y422355D01*
X160454Y423339D01*
X160987Y424626D01*
Y426018D01*
X160454Y427304D01*
X159470Y428289D01*
X158183Y428822D01*
D02*
G37*
G36*
X48111Y428500D02*
X46719D01*
X45432Y427967D01*
X44448Y426983D01*
X43915Y425696D01*
Y424304D01*
X44448Y423017D01*
X45432Y422033D01*
X46719Y421500D01*
X48111D01*
X49398Y422033D01*
X50382Y423017D01*
X50915Y424304D01*
Y425696D01*
X50382Y426983D01*
X49398Y427967D01*
X48111Y428500D01*
D02*
G37*
G36*
X125696Y425750D02*
X124304D01*
X123017Y425217D01*
X122033Y424233D01*
X121500Y422946D01*
Y421554D01*
X122033Y420267D01*
X123017Y419283D01*
X124304Y418750D01*
X125696D01*
X126983Y419283D01*
X127967Y420267D01*
X128500Y421554D01*
Y422946D01*
X127967Y424233D01*
X126983Y425217D01*
X125696Y425750D01*
D02*
G37*
G36*
X231325Y427991D02*
X229932D01*
X228646Y427458D01*
X227661Y426474D01*
X227129Y425187D01*
Y423795D01*
X227535Y422814D01*
X227328D01*
X226042Y422281D01*
X225057Y421297D01*
X224524Y420010D01*
Y418618D01*
X225057Y417332D01*
X226042Y416347D01*
X227328Y415814D01*
X228721D01*
X230007Y416347D01*
X230992Y417332D01*
X231525Y418618D01*
Y420010D01*
X231118Y420991D01*
X231325D01*
X232611Y421524D01*
X233596Y422509D01*
X234128Y423795D01*
Y425187D01*
X233596Y426474D01*
X232611Y427458D01*
X231325Y427991D01*
D02*
G37*
G36*
X215546Y434090D02*
X214154D01*
X212868Y433558D01*
X211883Y432573D01*
X211350Y431287D01*
Y429894D01*
X211883Y428608D01*
X212806Y427685D01*
X211933Y426812D01*
X211400Y425525D01*
Y424133D01*
X211933Y422846D01*
X212917Y421862D01*
X214204Y421329D01*
X215596D01*
X215775Y421403D01*
X214854Y420483D01*
X214321Y419196D01*
Y417804D01*
X214854Y416517D01*
X215839Y415533D01*
X217125Y415000D01*
X218518D01*
X219804Y415533D01*
X220789Y416517D01*
X221322Y417804D01*
Y419196D01*
X220789Y420483D01*
X219804Y421467D01*
X218518Y422000D01*
X217125D01*
X216947Y421926D01*
X217867Y422846D01*
X218400Y424133D01*
Y425525D01*
X217867Y426812D01*
X216944Y427735D01*
X217817Y428608D01*
X218350Y429894D01*
Y431287D01*
X217817Y432573D01*
X216833Y433558D01*
X215546Y434090D01*
D02*
G37*
G36*
X206147Y420813D02*
X204755D01*
X203469Y420280D01*
X202484Y419295D01*
X201951Y418009D01*
Y416616D01*
X202484Y415330D01*
X203469Y414346D01*
X204755Y413813D01*
X206147D01*
X207434Y414346D01*
X208419Y415330D01*
X208951Y416616D01*
Y418009D01*
X208419Y419295D01*
X207434Y420280D01*
X206147Y420813D01*
D02*
G37*
G36*
X186696Y418750D02*
X185304D01*
X184017Y418217D01*
X183033Y417233D01*
X182500Y415946D01*
Y414554D01*
X183033Y413267D01*
X184017Y412283D01*
X185304Y411750D01*
X186696D01*
X187983Y412283D01*
X188967Y413267D01*
X189500Y414554D01*
Y415946D01*
X188967Y417233D01*
X187983Y418217D01*
X186696Y418750D01*
D02*
G37*
G36*
X105446Y422000D02*
X104054D01*
X102767Y421467D01*
X101783Y420483D01*
X101250Y419196D01*
Y417804D01*
X101783Y416517D01*
X102767Y415533D01*
X103450Y415250D01*
X102767Y414967D01*
X101783Y413983D01*
X101250Y412696D01*
Y411304D01*
X101783Y410017D01*
X102767Y409033D01*
X104054Y408500D01*
X105446D01*
X106733Y409033D01*
X107717Y410017D01*
X108250Y411304D01*
Y412696D01*
X107717Y413983D01*
X106733Y414967D01*
X106050Y415250D01*
X106733Y415533D01*
X107717Y416517D01*
X108250Y417804D01*
Y419196D01*
X107717Y420483D01*
X106733Y421467D01*
X105446Y422000D01*
D02*
G37*
G36*
X82382Y411256D02*
X80990D01*
X79703Y410724D01*
X78719Y409739D01*
X78186Y408453D01*
Y407060D01*
X78719Y405774D01*
X79703Y404789D01*
X80990Y404256D01*
X82382D01*
X83668Y404789D01*
X84653Y405774D01*
X85186Y407060D01*
Y408453D01*
X84653Y409739D01*
X83668Y410724D01*
X82382Y411256D01*
D02*
G37*
G36*
X37683Y411166D02*
X36291D01*
X35004Y410633D01*
X34019Y409648D01*
X33487Y408362D01*
Y406969D01*
X34019Y405683D01*
X35004Y404698D01*
X36291Y404166D01*
X37683D01*
X38969Y404698D01*
X39954Y405683D01*
X40487Y406969D01*
Y408362D01*
X39954Y409648D01*
X38969Y410633D01*
X37683Y411166D01*
D02*
G37*
G36*
X222752Y408918D02*
X221360D01*
X220073Y408386D01*
X219089Y407401D01*
X218556Y406115D01*
Y404722D01*
X219089Y403436D01*
X220073Y402451D01*
X221360Y401918D01*
X222752D01*
X224038Y402451D01*
X225023Y403436D01*
X225556Y404722D01*
Y406115D01*
X225023Y407401D01*
X224038Y408386D01*
X222752Y408918D01*
D02*
G37*
G36*
X113877Y407329D02*
X112485D01*
X111199Y406796D01*
X110214Y405811D01*
X109681Y404525D01*
Y403133D01*
X110214Y401846D01*
X111199Y400862D01*
X112485Y400329D01*
X113877D01*
X115164Y400862D01*
X116149Y401846D01*
X116681Y403133D01*
Y404525D01*
X116149Y405811D01*
X115164Y406796D01*
X113877Y407329D01*
D02*
G37*
G36*
X160696Y403500D02*
X159304D01*
X158017Y402967D01*
X157033Y401983D01*
X156500Y400696D01*
Y399304D01*
X157033Y398017D01*
X158017Y397033D01*
X159304Y396500D01*
X160696D01*
X161982Y397033D01*
X162967Y398017D01*
X163500Y399304D01*
Y400696D01*
X162967Y401983D01*
X161982Y402967D01*
X160696Y403500D01*
D02*
G37*
G36*
X40696D02*
X39304D01*
X38017Y402967D01*
X37033Y401983D01*
X36500Y400696D01*
Y399304D01*
X37033Y398017D01*
X38017Y397033D01*
X39304Y396500D01*
X40696D01*
X41982Y397033D01*
X42967Y398017D01*
X43500Y399304D01*
Y400696D01*
X42967Y401983D01*
X41982Y402967D01*
X40696Y403500D01*
D02*
G37*
G36*
X125012Y395783D02*
X123619D01*
X122333Y395250D01*
X121348Y394266D01*
X120816Y392979D01*
Y391587D01*
X121348Y390300D01*
X122333Y389316D01*
X123619Y388783D01*
X125012D01*
X126298Y389316D01*
X127283Y390300D01*
X127816Y391587D01*
Y392979D01*
X127283Y394266D01*
X126298Y395250D01*
X125012Y395783D01*
D02*
G37*
G36*
X142911Y395680D02*
X141519D01*
X140232Y395147D01*
X139248Y394163D01*
X138715Y392876D01*
Y391484D01*
X139248Y390198D01*
X140232Y389213D01*
X141519Y388680D01*
X142911D01*
X144198Y389213D01*
X145182Y390198D01*
X145715Y391484D01*
Y392876D01*
X145182Y394163D01*
X144198Y395147D01*
X142911Y395680D01*
D02*
G37*
G36*
X215946Y386178D02*
X214554D01*
X213267Y385645D01*
X212283Y384661D01*
X211750Y383374D01*
Y381982D01*
X212283Y380696D01*
X213267Y379711D01*
X214554Y379178D01*
X215946D01*
X217233Y379711D01*
X218217Y380696D01*
X218750Y381982D01*
Y383374D01*
X218217Y384661D01*
X217233Y385645D01*
X215946Y386178D01*
D02*
G37*
G36*
X185249Y385154D02*
X183856D01*
X182570Y384621D01*
X181585Y383636D01*
X181052Y382350D01*
Y380957D01*
X181585Y379671D01*
X182570Y378686D01*
X183856Y378154D01*
X185249D01*
X186535Y378686D01*
X187519Y379671D01*
X188052Y380957D01*
Y382350D01*
X187519Y383636D01*
X186535Y384621D01*
X185249Y385154D01*
D02*
G37*
G36*
X103786Y384034D02*
X102394D01*
X101107Y383502D01*
X100123Y382517D01*
X99590Y381231D01*
Y379838D01*
X100123Y378552D01*
X101107Y377567D01*
X102394Y377034D01*
X103786D01*
X105072Y377567D01*
X106057Y378552D01*
X106590Y379838D01*
Y381231D01*
X106057Y382517D01*
X105072Y383502D01*
X103786Y384034D01*
D02*
G37*
G36*
X225832Y383997D02*
X224439D01*
X223153Y383464D01*
X222168Y382480D01*
X221635Y381193D01*
Y379801D01*
X222168Y378515D01*
X223153Y377530D01*
X224439Y376997D01*
X225832D01*
X227118Y377530D01*
X228102Y378515D01*
X228635Y379801D01*
Y381193D01*
X228102Y382480D01*
X227118Y383464D01*
X225832Y383997D01*
D02*
G37*
G36*
X197043Y383965D02*
X195651D01*
X194364Y383432D01*
X193380Y382447D01*
X192847Y381161D01*
Y379768D01*
X193380Y378482D01*
X194364Y377497D01*
X195651Y376965D01*
X197043D01*
X198330Y377497D01*
X199314Y378482D01*
X199847Y379768D01*
Y381161D01*
X199314Y382447D01*
X198330Y383432D01*
X197043Y383965D01*
D02*
G37*
G36*
X150696Y383500D02*
X149304D01*
X148017Y382967D01*
X147033Y381982D01*
X146500Y380696D01*
Y379304D01*
X147033Y378017D01*
X148017Y377033D01*
X149304Y376500D01*
X150696D01*
X151982Y377033D01*
X152967Y378017D01*
X153500Y379304D01*
Y380696D01*
X152967Y381982D01*
X151982Y382967D01*
X150696Y383500D01*
D02*
G37*
G36*
X86204Y383113D02*
X84812D01*
X83525Y382580D01*
X82541Y381595D01*
X82008Y380309D01*
Y378916D01*
X82541Y377630D01*
X83525Y376645D01*
X84812Y376113D01*
X86204D01*
X87491Y376645D01*
X88475Y377630D01*
X89008Y378916D01*
Y380309D01*
X88475Y381595D01*
X87491Y382580D01*
X86204Y383113D01*
D02*
G37*
G36*
X206902Y382630D02*
X205510D01*
X204223Y382098D01*
X203239Y381113D01*
X202706Y379827D01*
Y378434D01*
X203239Y377148D01*
X204223Y376163D01*
X205510Y375630D01*
X206902D01*
X208189Y376163D01*
X209173Y377148D01*
X209706Y378434D01*
Y379827D01*
X209173Y381113D01*
X208189Y382098D01*
X206902Y382630D01*
D02*
G37*
G36*
X53450Y378667D02*
X52058D01*
X50772Y378134D01*
X49787Y377150D01*
X49254Y375863D01*
Y374471D01*
X49787Y373185D01*
X50772Y372200D01*
X52058Y371667D01*
X53450D01*
X54737Y372200D01*
X55722Y373185D01*
X56254Y374471D01*
Y375863D01*
X55722Y377150D01*
X54737Y378134D01*
X53450Y378667D01*
D02*
G37*
G36*
X79832Y378623D02*
X78440D01*
X77153Y378090D01*
X76169Y377105D01*
X75636Y375819D01*
Y374426D01*
X76169Y373140D01*
X77153Y372156D01*
X78440Y371623D01*
X79832D01*
X81118Y372156D01*
X82103Y373140D01*
X82636Y374426D01*
Y375819D01*
X82103Y377105D01*
X81118Y378090D01*
X79832Y378623D01*
D02*
G37*
G36*
X216058Y377081D02*
X214665D01*
X213379Y376548D01*
X212394Y375563D01*
X211862Y374277D01*
Y372884D01*
X212394Y371598D01*
X213379Y370614D01*
X214665Y370081D01*
X216058D01*
X217344Y370614D01*
X218329Y371598D01*
X218862Y372884D01*
Y374277D01*
X218329Y375563D01*
X217344Y376548D01*
X216058Y377081D01*
D02*
G37*
G36*
X94445Y374751D02*
X93053D01*
X91767Y374218D01*
X90782Y373233D01*
X90249Y371947D01*
Y370555D01*
X90782Y369268D01*
X91767Y368284D01*
X93053Y367751D01*
X94445D01*
X95732Y368284D01*
X96716Y369268D01*
X97249Y370555D01*
Y371947D01*
X96716Y373233D01*
X95732Y374218D01*
X94445Y374751D01*
D02*
G37*
G36*
X149534Y372403D02*
X148142D01*
X146855Y371870D01*
X145871Y370886D01*
X145338Y369599D01*
Y368207D01*
X145871Y366921D01*
X146855Y365936D01*
X148142Y365403D01*
X149534D01*
X150820Y365936D01*
X151805Y366921D01*
X152338Y368207D01*
Y369599D01*
X151805Y370886D01*
X150820Y371870D01*
X149534Y372403D01*
D02*
G37*
G36*
X206902Y371630D02*
X205510D01*
X204223Y371097D01*
X203239Y370113D01*
X202706Y368826D01*
Y367434D01*
X203239Y366148D01*
X204223Y365163D01*
X205510Y364630D01*
X206902D01*
X208189Y365163D01*
X209173Y366148D01*
X209706Y367434D01*
Y368826D01*
X209173Y370113D01*
X208189Y371097D01*
X206902Y371630D01*
D02*
G37*
G36*
X162673Y370335D02*
X161281D01*
X159995Y369802D01*
X159010Y368818D01*
X158477Y367531D01*
Y366139D01*
X159010Y364853D01*
X159995Y363868D01*
X161281Y363335D01*
X162673D01*
X163960Y363868D01*
X164944Y364853D01*
X165477Y366139D01*
Y367531D01*
X164944Y368818D01*
X163960Y369802D01*
X162673Y370335D01*
D02*
G37*
G36*
X217009Y370016D02*
X215616D01*
X214330Y369483D01*
X213345Y368499D01*
X212812Y367212D01*
Y365820D01*
X213345Y364534D01*
X214330Y363549D01*
X215616Y363016D01*
X217009D01*
X218295Y363549D01*
X219280Y364534D01*
X219812Y365820D01*
Y367212D01*
X219280Y368499D01*
X218295Y369483D01*
X217009Y370016D01*
D02*
G37*
G36*
X100696Y363500D02*
X99304D01*
X98017Y362967D01*
X97033Y361982D01*
X96500Y360696D01*
Y359304D01*
X97033Y358017D01*
X98017Y357033D01*
X99304Y356500D01*
X100696D01*
X101982Y357033D01*
X102967Y358017D01*
X103500Y359304D01*
Y360696D01*
X102967Y361982D01*
X101982Y362967D01*
X100696Y363500D01*
D02*
G37*
G36*
X126779Y360168D02*
X125387D01*
X124101Y359635D01*
X123116Y358650D01*
X122583Y357364D01*
Y355971D01*
X123116Y354685D01*
X124101Y353700D01*
X125387Y353168D01*
X126779D01*
X128066Y353700D01*
X129051Y354685D01*
X129583Y355971D01*
Y357364D01*
X129051Y358650D01*
X128066Y359635D01*
X126779Y360168D01*
D02*
G37*
G36*
X148506Y358587D02*
X147113D01*
X145827Y358054D01*
X144842Y357069D01*
X144310Y355783D01*
Y354390D01*
X144842Y353104D01*
X145827Y352119D01*
X147113Y351587D01*
X148506D01*
X149792Y352119D01*
X150777Y353104D01*
X151310Y354390D01*
Y355783D01*
X150777Y357069D01*
X149792Y358054D01*
X148506Y358587D01*
D02*
G37*
G36*
X141169Y358500D02*
X139777D01*
X138490Y357967D01*
X137506Y356983D01*
X136973Y355696D01*
Y354304D01*
X137506Y353017D01*
X138490Y352033D01*
X139777Y351500D01*
X141169D01*
X142456Y352033D01*
X143440Y353017D01*
X143973Y354304D01*
Y355696D01*
X143440Y356983D01*
X142456Y357967D01*
X141169Y358500D01*
D02*
G37*
G36*
X106606Y351026D02*
X105213D01*
X103927Y350493D01*
X102942Y349509D01*
X102409Y348222D01*
Y346830D01*
X102942Y345544D01*
X103927Y344559D01*
X105213Y344026D01*
X106606D01*
X107892Y344559D01*
X108877Y345544D01*
X109409Y346830D01*
Y348222D01*
X108877Y349509D01*
X107892Y350493D01*
X106606Y351026D01*
D02*
G37*
G36*
X210696Y343500D02*
X209304D01*
X208017Y342967D01*
X207033Y341982D01*
X206500Y340696D01*
Y339304D01*
X207033Y338017D01*
X208017Y337033D01*
X209304Y336500D01*
X210696D01*
X211982Y337033D01*
X212967Y338017D01*
X213500Y339304D01*
Y340696D01*
X212967Y341982D01*
X211982Y342967D01*
X210696Y343500D01*
D02*
G37*
G36*
X70696D02*
X69304D01*
X68017Y342967D01*
X67033Y341982D01*
X66500Y340696D01*
Y339304D01*
X67033Y338017D01*
X68017Y337033D01*
X69304Y336500D01*
X70696D01*
X71982Y337033D01*
X72967Y338017D01*
X73500Y339304D01*
Y340696D01*
X72967Y341982D01*
X71982Y342967D01*
X70696Y343500D01*
D02*
G37*
G36*
X183859Y345381D02*
X181870D01*
X180033Y344620D01*
X178626Y343213D01*
X177865Y341376D01*
Y339386D01*
X178626Y337549D01*
X180033Y336142D01*
X181870Y335381D01*
X183859D01*
X185697Y336142D01*
X187104Y337549D01*
X187865Y339386D01*
Y341376D01*
X187104Y343213D01*
X185697Y344620D01*
X183859Y345381D01*
D02*
G37*
G36*
X199985Y345337D02*
X197995D01*
X196158Y344576D01*
X194751Y343170D01*
X193990Y341332D01*
Y339343D01*
X194751Y337505D01*
X196158Y336098D01*
X197995Y335337D01*
X199985D01*
X201822Y336098D01*
X203229Y337505D01*
X203990Y339343D01*
Y341332D01*
X203229Y343170D01*
X201822Y344576D01*
X199985Y345337D01*
D02*
G37*
G36*
X214318Y334200D02*
X212926D01*
X211639Y333667D01*
X210655Y332682D01*
X210122Y331396D01*
Y330004D01*
X210655Y328717D01*
X211639Y327733D01*
X212926Y327200D01*
X214318D01*
X215604Y327733D01*
X216589Y328717D01*
X217122Y330004D01*
Y331396D01*
X216589Y332682D01*
X215604Y333667D01*
X214318Y334200D01*
D02*
G37*
G36*
X162673Y333876D02*
X161281D01*
X159995Y333343D01*
X159010Y332359D01*
X158477Y331072D01*
Y329680D01*
X159010Y328393D01*
X159995Y327409D01*
X161281Y326876D01*
X162673D01*
X163960Y327409D01*
X164944Y328393D01*
X165477Y329680D01*
Y331072D01*
X164944Y332359D01*
X163960Y333343D01*
X162673Y333876D01*
D02*
G37*
G36*
X224623Y333240D02*
X223230D01*
X221944Y332707D01*
X220959Y331722D01*
X220427Y330436D01*
Y329043D01*
X220959Y327757D01*
X221944Y326772D01*
X223230Y326240D01*
X224623D01*
X225909Y326772D01*
X226894Y327757D01*
X227426Y329043D01*
Y330436D01*
X226894Y331722D01*
X225909Y332707D01*
X224623Y333240D01*
D02*
G37*
G36*
X101811Y327151D02*
X100419D01*
X99132Y326618D01*
X98148Y325633D01*
X97615Y324347D01*
Y322954D01*
X98148Y321668D01*
X99132Y320683D01*
X100419Y320151D01*
X101811D01*
X103097Y320683D01*
X104082Y321668D01*
X104615Y322954D01*
Y324347D01*
X104082Y325633D01*
X103097Y326618D01*
X101811Y327151D01*
D02*
G37*
G36*
X131777Y323940D02*
X130385D01*
X129098Y323407D01*
X128114Y322423D01*
X127581Y321136D01*
Y319744D01*
X128114Y318457D01*
X129098Y317473D01*
X130385Y316940D01*
X131777D01*
X133064Y317473D01*
X134048Y318457D01*
X134581Y319744D01*
Y321136D01*
X134048Y322423D01*
X133064Y323407D01*
X131777Y323940D01*
D02*
G37*
G36*
X70830Y327509D02*
X68642D01*
X66621Y326671D01*
X65074Y325124D01*
X64236Y323103D01*
Y320915D01*
X65074Y318893D01*
X66621Y317346D01*
X68642Y316509D01*
X70830D01*
X72852Y317346D01*
X74399Y318893D01*
X75236Y320915D01*
Y323103D01*
X74399Y325124D01*
X72852Y326671D01*
X70830Y327509D01*
D02*
G37*
G36*
X180696Y323500D02*
X179304D01*
X178017Y322967D01*
X177033Y321982D01*
X176500Y320696D01*
Y319304D01*
X177033Y318017D01*
X178017Y317033D01*
X179304Y316500D01*
X180696D01*
X181982Y317033D01*
X182967Y318017D01*
X183500Y319304D01*
Y320696D01*
X182967Y321982D01*
X181982Y322967D01*
X180696Y323500D01*
D02*
G37*
G36*
X164327Y322513D02*
X162934D01*
X161648Y321980D01*
X160663Y320995D01*
X160131Y319709D01*
Y318317D01*
X160663Y317030D01*
X161648Y316046D01*
X162934Y315513D01*
X164327D01*
X165613Y316046D01*
X166598Y317030D01*
X167131Y318317D01*
Y319709D01*
X166598Y320995D01*
X165613Y321980D01*
X164327Y322513D01*
D02*
G37*
G36*
X202466Y320960D02*
X201073D01*
X199787Y320427D01*
X198802Y319442D01*
X198270Y318156D01*
Y316764D01*
X198802Y315477D01*
X199787Y314493D01*
X201073Y313960D01*
X202466D01*
X203752Y314493D01*
X204737Y315477D01*
X205270Y316764D01*
Y318156D01*
X204737Y319442D01*
X203752Y320427D01*
X202466Y320960D01*
D02*
G37*
G36*
X216341Y317221D02*
X214948D01*
X213662Y316688D01*
X212677Y315704D01*
X212144Y314417D01*
Y313025D01*
X212677Y311738D01*
X213662Y310754D01*
X214948Y310221D01*
X216341D01*
X217627Y310754D01*
X218612Y311738D01*
X219144Y313025D01*
Y314417D01*
X218612Y315704D01*
X217627Y316688D01*
X216341Y317221D01*
D02*
G37*
G36*
X146735Y312522D02*
X145342D01*
X144056Y311989D01*
X143071Y311005D01*
X142538Y309718D01*
Y308326D01*
X143071Y307040D01*
X144056Y306055D01*
X145342Y305522D01*
X146735D01*
X148021Y306055D01*
X149006Y307040D01*
X149538Y308326D01*
Y309718D01*
X149006Y311005D01*
X148021Y311989D01*
X146735Y312522D01*
D02*
G37*
G36*
X126319D02*
X124927D01*
X123640Y311989D01*
X122656Y311005D01*
X122123Y309718D01*
Y308326D01*
X122656Y307040D01*
X123640Y306055D01*
X124927Y305522D01*
X126319D01*
X127605Y306055D01*
X128590Y307040D01*
X129123Y308326D01*
Y309718D01*
X128590Y311005D01*
X127605Y311989D01*
X126319Y312522D01*
D02*
G37*
G36*
X110247Y312347D02*
X108855D01*
X107568Y311814D01*
X106584Y310830D01*
X106051Y309543D01*
Y308151D01*
X106584Y306865D01*
X107568Y305880D01*
X108855Y305347D01*
X110247D01*
X111533Y305880D01*
X112518Y306865D01*
X113051Y308151D01*
Y309543D01*
X112518Y310830D01*
X111533Y311814D01*
X110247Y312347D01*
D02*
G37*
G36*
X230370Y309979D02*
X228978D01*
X227691Y309446D01*
X226707Y308462D01*
X226174Y307175D01*
Y305783D01*
X226707Y304496D01*
X227691Y303512D01*
X228978Y302979D01*
X230370D01*
X231656Y303512D01*
X232641Y304496D01*
X233174Y305783D01*
Y307175D01*
X232641Y308462D01*
X231656Y309446D01*
X230370Y309979D01*
D02*
G37*
G36*
X110696Y303500D02*
X109304D01*
X108017Y302967D01*
X107033Y301982D01*
X106500Y300696D01*
Y299304D01*
X107033Y298017D01*
X108017Y297033D01*
X109304Y296500D01*
X110696D01*
X111982Y297033D01*
X112967Y298017D01*
X113500Y299304D01*
Y300696D01*
X112967Y301982D01*
X111982Y302967D01*
X110696Y303500D01*
D02*
G37*
G36*
X90696D02*
X89304D01*
X88017Y302967D01*
X87033Y301982D01*
X86500Y300696D01*
Y299304D01*
X87033Y298017D01*
X88017Y297033D01*
X89304Y296500D01*
X90696D01*
X91982Y297033D01*
X92967Y298017D01*
X93500Y299304D01*
Y300696D01*
X92967Y301982D01*
X91982Y302967D01*
X90696Y303500D01*
D02*
G37*
G36*
X195995Y302874D02*
X194006D01*
X192168Y302113D01*
X190761Y300706D01*
X190000Y298869D01*
Y296879D01*
X190761Y295042D01*
X192168Y293635D01*
X194006Y292874D01*
X195995D01*
X197832Y293635D01*
X199239Y295042D01*
X200000Y296879D01*
Y298869D01*
X199239Y300706D01*
X197832Y302113D01*
X195995Y302874D01*
D02*
G37*
G36*
X195951Y286749D02*
X193962D01*
X192124Y285988D01*
X190717Y284581D01*
X189956Y282743D01*
Y280754D01*
X190717Y278917D01*
X192124Y277510D01*
X193962Y276749D01*
X195951D01*
X197788Y277510D01*
X199195Y278917D01*
X199956Y280754D01*
Y282743D01*
X199195Y284581D01*
X197788Y285988D01*
X195951Y286749D01*
D02*
G37*
G36*
X100696Y283500D02*
X99304D01*
X98017Y282967D01*
X97033Y281982D01*
X96500Y280696D01*
Y279304D01*
X97033Y278017D01*
X98017Y277033D01*
X99304Y276500D01*
X100696D01*
X101982Y277033D01*
X102967Y278017D01*
X103500Y279304D01*
Y280696D01*
X102967Y281982D01*
X101982Y282967D01*
X100696Y283500D01*
D02*
G37*
G36*
X175696Y283000D02*
X174304D01*
X173017Y282467D01*
X172033Y281483D01*
X171500Y280196D01*
Y278804D01*
X172033Y277517D01*
X173017Y276533D01*
X174304Y276000D01*
X175696D01*
X176983Y276533D01*
X177967Y277517D01*
X178500Y278804D01*
Y280196D01*
X177967Y281483D01*
X176983Y282467D01*
X175696Y283000D01*
D02*
G37*
G36*
X139479Y281690D02*
X138087D01*
X136800Y281157D01*
X135816Y280173D01*
X135283Y278886D01*
Y277494D01*
X135816Y276207D01*
X136800Y275223D01*
X138087Y274690D01*
X139479D01*
X140765Y275223D01*
X141750Y276207D01*
X142283Y277494D01*
Y278886D01*
X141750Y280173D01*
X140765Y281157D01*
X139479Y281690D01*
D02*
G37*
G36*
X122856Y275063D02*
X121463D01*
X120177Y274530D01*
X119192Y273545D01*
X118659Y272259D01*
Y270866D01*
X119192Y269580D01*
X120177Y268595D01*
X121463Y268063D01*
X122856D01*
X124142Y268595D01*
X125127Y269580D01*
X125659Y270866D01*
Y272259D01*
X125127Y273545D01*
X124142Y274530D01*
X122856Y275063D01*
D02*
G37*
G36*
X137517Y265129D02*
X136124D01*
X134838Y264596D01*
X133854Y263612D01*
X133321Y262325D01*
Y260933D01*
X133854Y259646D01*
X134838Y258662D01*
X136124Y258129D01*
X137517D01*
X138803Y258662D01*
X139788Y259646D01*
X140321Y260933D01*
Y262325D01*
X139788Y263612D01*
X138803Y264596D01*
X137517Y265129D01*
D02*
G37*
G36*
X110696Y263500D02*
X109304D01*
X108017Y262967D01*
X107033Y261982D01*
X106500Y260696D01*
Y259304D01*
X107033Y258017D01*
X108017Y257033D01*
X109304Y256500D01*
X110696D01*
X111982Y257033D01*
X112967Y258017D01*
X113500Y259304D01*
Y260696D01*
X112967Y261982D01*
X111982Y262967D01*
X110696Y263500D01*
D02*
G37*
G36*
X120757Y245426D02*
X119365D01*
X118078Y244893D01*
X117094Y243909D01*
X116561Y242622D01*
Y241230D01*
X117094Y239943D01*
X118078Y238959D01*
X119365Y238426D01*
X120757D01*
X122044Y238959D01*
X123028Y239943D01*
X123561Y241230D01*
Y242622D01*
X123028Y243909D01*
X122044Y244893D01*
X120757Y245426D01*
D02*
G37*
G36*
X100696Y243500D02*
X99304D01*
X98017Y242967D01*
X97033Y241982D01*
X96500Y240696D01*
Y239304D01*
X97033Y238017D01*
X98017Y237033D01*
X99304Y236500D01*
X100696D01*
X101982Y237033D01*
X102967Y238017D01*
X103500Y239304D01*
Y240696D01*
X102967Y241982D01*
X101982Y242967D01*
X100696Y243500D01*
D02*
G37*
G36*
X140988Y240982D02*
X139596D01*
X138309Y240449D01*
X137325Y239464D01*
X136792Y238178D01*
Y236785D01*
X137325Y235499D01*
X138309Y234514D01*
X139596Y233981D01*
X140988D01*
X142275Y234514D01*
X143259Y235499D01*
X143792Y236785D01*
Y238178D01*
X143259Y239464D01*
X142275Y240449D01*
X140988Y240982D01*
D02*
G37*
G36*
X153100Y230986D02*
X151708D01*
X150421Y230453D01*
X149437Y229468D01*
X148904Y228182D01*
Y226790D01*
X149437Y225503D01*
X150421Y224519D01*
X151708Y223986D01*
X153100D01*
X154387Y224519D01*
X155371Y225503D01*
X155904Y226790D01*
Y228182D01*
X155371Y229468D01*
X154387Y230453D01*
X153100Y230986D01*
D02*
G37*
G36*
X210696Y223500D02*
X209304D01*
X208017Y222967D01*
X207033Y221982D01*
X206500Y220696D01*
Y219304D01*
X207033Y218017D01*
X208017Y217033D01*
X209304Y216500D01*
X210696D01*
X211982Y217033D01*
X212967Y218017D01*
X213500Y219304D01*
Y220696D01*
X212967Y221982D01*
X211982Y222967D01*
X210696Y223500D01*
D02*
G37*
G36*
X187433Y217163D02*
X186041D01*
X184754Y216630D01*
X183770Y215645D01*
X183237Y214359D01*
Y212967D01*
X183770Y211680D01*
X184754Y210696D01*
X186041Y210163D01*
X187433D01*
X188720Y210696D01*
X189704Y211680D01*
X190237Y212967D01*
Y214359D01*
X189704Y215645D01*
X188720Y216630D01*
X187433Y217163D01*
D02*
G37*
G36*
X133798Y213623D02*
X132406D01*
X131119Y213090D01*
X130135Y212106D01*
X129602Y210820D01*
Y209427D01*
X130135Y208141D01*
X131119Y207156D01*
X132406Y206623D01*
X133798D01*
X135085Y207156D01*
X136069Y208141D01*
X136602Y209427D01*
Y210820D01*
X136069Y212106D01*
X135085Y213090D01*
X133798Y213623D01*
D02*
G37*
G36*
X196694Y213500D02*
X195302D01*
X194016Y212967D01*
X193031Y211983D01*
X192498Y210696D01*
Y209304D01*
X193031Y208017D01*
X194016Y207033D01*
X195302Y206500D01*
X196694D01*
X197981Y207033D01*
X198965Y208017D01*
X199498Y209304D01*
Y210696D01*
X198965Y211983D01*
X197981Y212967D01*
X196694Y213500D01*
D02*
G37*
G36*
X170905Y213461D02*
X169512D01*
X168226Y212928D01*
X167241Y211943D01*
X166708Y210657D01*
Y209265D01*
X167241Y207978D01*
X168226Y206994D01*
X169512Y206461D01*
X170905D01*
X172191Y206994D01*
X173175Y207978D01*
X173708Y209265D01*
Y210657D01*
X173175Y211943D01*
X172191Y212928D01*
X170905Y213461D01*
D02*
G37*
G36*
X151670Y213294D02*
X150278D01*
X148991Y212761D01*
X148007Y211777D01*
X147474Y210491D01*
Y209098D01*
X148007Y207812D01*
X148991Y206827D01*
X150278Y206294D01*
X151670D01*
X152957Y206827D01*
X153941Y207812D01*
X154474Y209098D01*
Y210491D01*
X153941Y211777D01*
X152957Y212761D01*
X151670Y213294D01*
D02*
G37*
G36*
X159450Y213255D02*
X158057D01*
X156771Y212722D01*
X155786Y211738D01*
X155254Y210451D01*
Y209059D01*
X155786Y207773D01*
X156771Y206788D01*
X158057Y206255D01*
X159450D01*
X160736Y206788D01*
X161721Y207773D01*
X162254Y209059D01*
Y210451D01*
X161721Y211738D01*
X160736Y212722D01*
X159450Y213255D01*
D02*
G37*
G36*
X128135Y205616D02*
X127141D01*
X126222Y205235D01*
X125518Y204532D01*
X125138Y203613D01*
Y202619D01*
X125518Y201700D01*
X126222Y200996D01*
X127141Y200616D01*
X128135D01*
X129054Y200996D01*
X129757Y201700D01*
X130138Y202619D01*
Y203613D01*
X129757Y204532D01*
X129054Y205235D01*
X128135Y205616D01*
D02*
G37*
G36*
X108696Y207500D02*
X107304D01*
X106017Y206967D01*
X105033Y205983D01*
X104500Y204696D01*
Y203304D01*
X105033Y202017D01*
X106017Y201033D01*
X107304Y200500D01*
X108696D01*
X109983Y201033D01*
X110967Y202017D01*
X111500Y203304D01*
Y204696D01*
X110967Y205983D01*
X109983Y206967D01*
X108696Y207500D01*
D02*
G37*
G36*
X105446Y201000D02*
X104054D01*
X102767Y200467D01*
X101783Y199483D01*
X101500Y198800D01*
X101217Y199483D01*
X100233Y200467D01*
X98946Y201000D01*
X97554D01*
X96267Y200467D01*
X95283Y199483D01*
X94750Y198196D01*
Y196804D01*
X95283Y195517D01*
X96267Y194533D01*
X97554Y194000D01*
X98946D01*
X100233Y194533D01*
X101217Y195517D01*
X101500Y196200D01*
X101783Y195517D01*
X102767Y194533D01*
X104054Y194000D01*
X105446D01*
X106733Y194533D01*
X107717Y195517D01*
X108250Y196804D01*
Y198196D01*
X107717Y199483D01*
X106733Y200467D01*
X105446Y201000D01*
D02*
G37*
G36*
X160497Y203250D02*
X159503D01*
X158584Y202869D01*
X157881Y202166D01*
X157500Y201247D01*
Y200253D01*
X157881Y199334D01*
X158584Y198631D01*
X159503Y198250D01*
X160497D01*
X161416Y198631D01*
X162119Y199334D01*
X162500Y200253D01*
Y201247D01*
X162119Y202166D01*
X161416Y202869D01*
X160497Y203250D01*
D02*
G37*
G36*
X193074Y202253D02*
X192080D01*
X191161Y201872D01*
X190457Y201169D01*
X190077Y200250D01*
Y199256D01*
X190457Y198337D01*
X191161Y197634D01*
X192080Y197253D01*
X193074D01*
X193993Y197634D01*
X194696Y198337D01*
X195077Y199256D01*
Y200250D01*
X194696Y201169D01*
X193993Y201872D01*
X193074Y202253D01*
D02*
G37*
G36*
X115696Y203486D02*
X114304D01*
X113017Y202953D01*
X112033Y201968D01*
X111500Y200682D01*
Y199290D01*
X112033Y198003D01*
X113017Y197019D01*
X114304Y196486D01*
X115696D01*
X116983Y197019D01*
X117967Y198003D01*
X118500Y199290D01*
Y200682D01*
X117967Y201968D01*
X116983Y202953D01*
X115696Y203486D01*
D02*
G37*
G36*
X180050Y200238D02*
X179055D01*
X178137Y199857D01*
X177433Y199154D01*
X177053Y198235D01*
Y197240D01*
X177433Y196322D01*
X178137Y195618D01*
X179055Y195238D01*
X180050D01*
X180969Y195618D01*
X181672Y196322D01*
X182053Y197240D01*
Y198235D01*
X181672Y199154D01*
X180969Y199857D01*
X180050Y200238D01*
D02*
G37*
G36*
X149495Y194575D02*
X148500D01*
X147582Y194194D01*
X146878Y193491D01*
X146498Y192572D01*
Y191577D01*
X146878Y190658D01*
X147582Y189955D01*
X148500Y189575D01*
X149495D01*
X150414Y189955D01*
X151117Y190658D01*
X151498Y191577D01*
Y192572D01*
X151117Y193491D01*
X150414Y194194D01*
X149495Y194575D01*
D02*
G37*
G36*
X155983Y194502D02*
X154989D01*
X154070Y194121D01*
X153367Y193418D01*
X152986Y192499D01*
Y191504D01*
X153367Y190586D01*
X154070Y189882D01*
X154989Y189502D01*
X155983D01*
X156902Y189882D01*
X157605Y190586D01*
X157986Y191504D01*
Y192499D01*
X157605Y193418D01*
X156902Y194121D01*
X155983Y194502D01*
D02*
G37*
G36*
X175497Y194494D02*
X174503D01*
X173584Y194113D01*
X172881Y193410D01*
X172500Y192491D01*
Y191497D01*
X172881Y190578D01*
X173584Y189874D01*
X174503Y189494D01*
X175497D01*
X176416Y189874D01*
X177119Y190578D01*
X177500Y191497D01*
Y192491D01*
X177119Y193410D01*
X176416Y194113D01*
X175497Y194494D01*
D02*
G37*
G36*
X168995D02*
X168000D01*
X167082Y194113D01*
X166378Y193410D01*
X165998Y192491D01*
Y191497D01*
X166378Y190578D01*
X167082Y189874D01*
X168000Y189494D01*
X168995D01*
X169914Y189874D01*
X170617Y190578D01*
X170998Y191497D01*
Y192491D01*
X170617Y193410D01*
X169914Y194113D01*
X168995Y194494D01*
D02*
G37*
G36*
X188441Y194471D02*
X187447D01*
X186528Y194090D01*
X185825Y193387D01*
X185444Y192468D01*
Y191474D01*
X185825Y190555D01*
X186528Y189851D01*
X187447Y189471D01*
X188441D01*
X189360Y189851D01*
X190063Y190555D01*
X190444Y191474D01*
Y192468D01*
X190063Y193387D01*
X189360Y194090D01*
X188441Y194471D01*
D02*
G37*
G36*
X182053Y194454D02*
X181059D01*
X180140Y194073D01*
X179437Y193370D01*
X179056Y192451D01*
Y191457D01*
X179437Y190538D01*
X180140Y189834D01*
X181059Y189454D01*
X182053D01*
X182972Y189834D01*
X183675Y190538D01*
X184056Y191457D01*
Y192451D01*
X183675Y193370D01*
X182972Y194073D01*
X182053Y194454D01*
D02*
G37*
G36*
X194908Y188131D02*
X193913D01*
X192994Y187750D01*
X192291Y187047D01*
X191910Y186128D01*
Y185133D01*
X192291Y184214D01*
X192994Y183511D01*
X193913Y183131D01*
X194908D01*
X195826Y183511D01*
X196530Y184214D01*
X196910Y185133D01*
Y186128D01*
X196530Y187047D01*
X195826Y187750D01*
X194908Y188131D01*
D02*
G37*
G36*
X162462Y188056D02*
X161468D01*
X160549Y187676D01*
X159846Y186972D01*
X159465Y186054D01*
Y185059D01*
X159846Y184140D01*
X160549Y183437D01*
X161468Y183056D01*
X162462D01*
X163381Y183437D01*
X164084Y184140D01*
X164465Y185059D01*
Y186054D01*
X164084Y186972D01*
X163381Y187676D01*
X162462Y188056D01*
D02*
G37*
G36*
X188477Y187991D02*
X187482D01*
X186563Y187611D01*
X185860Y186908D01*
X185479Y185989D01*
Y184994D01*
X185860Y184075D01*
X186563Y183372D01*
X187482Y182991D01*
X188477D01*
X189396Y183372D01*
X190099Y184075D01*
X190479Y184994D01*
Y185989D01*
X190099Y186908D01*
X189396Y187611D01*
X188477Y187991D01*
D02*
G37*
G36*
X175497D02*
X174503D01*
X173584Y187611D01*
X172881Y186908D01*
X172500Y185989D01*
Y184994D01*
X172881Y184075D01*
X173584Y183372D01*
X174503Y182991D01*
X175497D01*
X176416Y183372D01*
X177119Y184075D01*
X177500Y184994D01*
Y185989D01*
X177119Y186908D01*
X176416Y187611D01*
X175497Y187991D01*
D02*
G37*
G36*
X168987Y187951D02*
X167993D01*
X167074Y187570D01*
X166371Y186867D01*
X165990Y185948D01*
Y184954D01*
X166371Y184035D01*
X167074Y183332D01*
X167993Y182951D01*
X168987D01*
X169906Y183332D01*
X170609Y184035D01*
X170990Y184954D01*
Y185948D01*
X170609Y186867D01*
X169906Y187570D01*
X168987Y187951D01*
D02*
G37*
G36*
X182053Y187924D02*
X181059D01*
X180140Y187543D01*
X179437Y186840D01*
X179056Y185921D01*
Y184926D01*
X179437Y184007D01*
X180140Y183304D01*
X181059Y182924D01*
X182053D01*
X182972Y183304D01*
X183675Y184007D01*
X184056Y184926D01*
Y185921D01*
X183675Y186840D01*
X182972Y187543D01*
X182053Y187924D01*
D02*
G37*
G36*
X129273Y199341D02*
X127980D01*
X126785Y198846D01*
X125871Y197932D01*
X125376Y196737D01*
Y195444D01*
X125871Y194249D01*
X126785Y193335D01*
X126830Y193317D01*
Y183374D01*
X126967Y182686D01*
X127356Y182103D01*
X128409Y181050D01*
X128992Y180661D01*
X129679Y180524D01*
X146824D01*
X146759Y180459D01*
X146378Y179540D01*
Y178545D01*
X146759Y177626D01*
X146824Y177561D01*
X137384D01*
X136696Y177424D01*
X136113Y177035D01*
X130283Y171205D01*
X130630Y172041D01*
Y173035D01*
X130249Y173954D01*
X129546Y174657D01*
X128627Y175038D01*
X127632D01*
X126713Y174657D01*
X126010Y173954D01*
X125630Y173035D01*
Y172041D01*
X126010Y171122D01*
X126713Y170418D01*
X127632Y170038D01*
X128627D01*
X129462Y170384D01*
X128810Y169731D01*
X128420Y169149D01*
X128284Y168461D01*
Y165533D01*
X128239Y165514D01*
X127325Y164600D01*
X126830Y163405D01*
Y162112D01*
X127325Y160917D01*
X128239Y160003D01*
X129434Y159508D01*
X130727D01*
X131921Y160003D01*
X132836Y160917D01*
X133331Y162112D01*
Y163405D01*
X132836Y164600D01*
X131921Y165514D01*
X131877Y165533D01*
Y167717D01*
X138128Y173968D01*
X153439D01*
X153373Y173903D01*
X152993Y172984D01*
Y171989D01*
X153373Y171070D01*
X154077Y170367D01*
X154995Y169987D01*
X155990D01*
X156909Y170367D01*
X157612Y171070D01*
X157993Y171989D01*
Y172984D01*
X157612Y173903D01*
X157547Y173968D01*
X158681D01*
X159369Y174105D01*
X159952Y174494D01*
X161268Y175811D01*
X161313Y175792D01*
X162606D01*
X163801Y176287D01*
X164715Y177201D01*
X165210Y178396D01*
Y179689D01*
X164715Y180884D01*
X163801Y181798D01*
X162606Y182293D01*
X161313D01*
X160118Y181798D01*
X159204Y180884D01*
X158709Y179689D01*
Y178396D01*
X158728Y178351D01*
X157937Y177561D01*
X157564D01*
X157630Y177626D01*
X158010Y178545D01*
Y179540D01*
X157630Y180459D01*
X156926Y181162D01*
X156008Y181543D01*
X155013D01*
X154094Y181162D01*
X153391Y180459D01*
X153010Y179540D01*
Y178545D01*
X153391Y177626D01*
X153456Y177561D01*
X150932D01*
X150997Y177626D01*
X151378Y178545D01*
Y179540D01*
X150997Y180459D01*
X150932Y180524D01*
X152208D01*
X152896Y180661D01*
X153478Y181050D01*
X154795Y182367D01*
X154839Y182348D01*
X156133D01*
X157327Y182843D01*
X158242Y183757D01*
X158736Y184952D01*
Y186245D01*
X158242Y187440D01*
X157327Y188354D01*
X156133Y188849D01*
X154839D01*
X153645Y188354D01*
X152731Y187440D01*
X152236Y186245D01*
Y184952D01*
X152254Y184907D01*
X151464Y184117D01*
X150947D01*
X151012Y184182D01*
X151393Y185101D01*
Y186096D01*
X151012Y187015D01*
X150309Y187718D01*
X149390Y188099D01*
X148396D01*
X147477Y187718D01*
X146774Y187015D01*
X146393Y186096D01*
Y185101D01*
X146774Y184182D01*
X146839Y184117D01*
X130424D01*
X130423Y184118D01*
Y193317D01*
X130468Y193335D01*
X131382Y194249D01*
X131877Y195444D01*
Y196737D01*
X131382Y197932D01*
X130468Y198846D01*
X129273Y199341D01*
D02*
G37*
G36*
X97787Y185903D02*
X96394D01*
X95108Y185370D01*
X94123Y184386D01*
X93591Y183099D01*
Y181707D01*
X94123Y180420D01*
X95108Y179436D01*
X96394Y178903D01*
X97787D01*
X99073Y179436D01*
X100058Y180420D01*
X100591Y181707D01*
Y183099D01*
X100058Y184386D01*
X99073Y185370D01*
X97787Y185903D01*
D02*
G37*
G36*
X108634Y185631D02*
X107242D01*
X105956Y185099D01*
X104971Y184114D01*
X104438Y182828D01*
Y181435D01*
X104971Y180149D01*
X105956Y179164D01*
X107242Y178631D01*
X108634D01*
X109921Y179164D01*
X110905Y180149D01*
X111438Y181435D01*
Y182828D01*
X110905Y184114D01*
X109921Y185099D01*
X108634Y185631D01*
D02*
G37*
G36*
X123141Y183994D02*
X121749D01*
X120462Y183461D01*
X119478Y182476D01*
X118945Y181190D01*
Y179797D01*
X119478Y178511D01*
X120462Y177526D01*
X121749Y176994D01*
X123141D01*
X124427Y177526D01*
X125412Y178511D01*
X125945Y179797D01*
Y181190D01*
X125412Y182476D01*
X124427Y183461D01*
X123141Y183994D01*
D02*
G37*
G36*
X188477Y181489D02*
X187482D01*
X186563Y181108D01*
X185860Y180405D01*
X185479Y179486D01*
Y178492D01*
X185860Y177573D01*
X186563Y176870D01*
X187482Y176489D01*
X188477D01*
X189396Y176870D01*
X190099Y177573D01*
X190479Y178492D01*
Y179486D01*
X190099Y180405D01*
X189396Y181108D01*
X188477Y181489D01*
D02*
G37*
G36*
X181974D02*
X180980D01*
X180061Y181108D01*
X179358Y180405D01*
X178977Y179486D01*
Y178492D01*
X179358Y177573D01*
X180061Y176870D01*
X180980Y176489D01*
X181974D01*
X182893Y176870D01*
X183596Y177573D01*
X183977Y178492D01*
Y179486D01*
X183596Y180405D01*
X182893Y181108D01*
X181974Y181489D01*
D02*
G37*
G36*
X169053Y181470D02*
X168059D01*
X167140Y181089D01*
X166437Y180386D01*
X166056Y179467D01*
Y178473D01*
X166437Y177554D01*
X167140Y176851D01*
X168059Y176470D01*
X169053D01*
X169972Y176851D01*
X170676Y177554D01*
X171056Y178473D01*
Y179467D01*
X170676Y180386D01*
X169972Y181089D01*
X169053Y181470D01*
D02*
G37*
G36*
X175541Y181392D02*
X174547D01*
X173628Y181012D01*
X172925Y180308D01*
X172544Y179390D01*
Y178395D01*
X172925Y177476D01*
X173628Y176773D01*
X174547Y176392D01*
X175541D01*
X176460Y176773D01*
X177164Y177476D01*
X177544Y178395D01*
Y179390D01*
X177164Y180308D01*
X176460Y181012D01*
X175541Y181392D01*
D02*
G37*
G36*
X194908Y181376D02*
X193913D01*
X192994Y180995D01*
X192291Y180292D01*
X191910Y179373D01*
Y178379D01*
X192291Y177460D01*
X192994Y176757D01*
X193913Y176376D01*
X194908D01*
X195826Y176757D01*
X196530Y177460D01*
X196910Y178379D01*
Y179373D01*
X196530Y180292D01*
X195826Y180995D01*
X194908Y181376D01*
D02*
G37*
G36*
X181974Y174987D02*
X180980D01*
X180061Y174606D01*
X179358Y173903D01*
X178977Y172984D01*
Y171989D01*
X179358Y171070D01*
X180061Y170367D01*
X180980Y169987D01*
X181974D01*
X182893Y170367D01*
X183596Y171070D01*
X183977Y171989D01*
Y172984D01*
X183596Y173903D01*
X182893Y174606D01*
X181974Y174987D01*
D02*
G37*
G36*
X162493D02*
X161498D01*
X160579Y174606D01*
X159876Y173903D01*
X159495Y172984D01*
Y171989D01*
X159876Y171070D01*
X160579Y170367D01*
X161498Y169987D01*
X162493D01*
X163411Y170367D01*
X164115Y171070D01*
X164495Y171989D01*
Y172984D01*
X164115Y173903D01*
X163411Y174606D01*
X162493Y174987D01*
D02*
G37*
G36*
X101963Y175000D02*
X100570D01*
X99284Y174467D01*
X98299Y173483D01*
X97767Y172196D01*
Y170804D01*
X98299Y169517D01*
X99284Y168533D01*
X100570Y168000D01*
X101963D01*
X103249Y168533D01*
X104234Y169517D01*
X104766Y170804D01*
Y172196D01*
X104234Y173483D01*
X103249Y174467D01*
X101963Y175000D01*
D02*
G37*
G36*
X114222Y179164D02*
X112829D01*
X111543Y178631D01*
X110558Y177647D01*
X110026Y176360D01*
Y174968D01*
X110558Y173682D01*
X111055Y173185D01*
X110456Y172937D01*
X109472Y171952D01*
X108939Y170666D01*
Y169273D01*
X109472Y167987D01*
X110456Y167002D01*
X111743Y166469D01*
X113135D01*
X114421Y167002D01*
X115406Y167987D01*
X115939Y169273D01*
Y170666D01*
X115406Y171952D01*
X114909Y172449D01*
X115508Y172697D01*
X116493Y173682D01*
X117025Y174968D01*
Y176360D01*
X116493Y177647D01*
X115508Y178631D01*
X114222Y179164D01*
D02*
G37*
G36*
X156059Y168543D02*
X155065D01*
X154146Y168162D01*
X153443Y167459D01*
X153062Y166540D01*
Y165546D01*
X153443Y164627D01*
X154146Y163923D01*
X155065Y163543D01*
X156059D01*
X156978Y163923D01*
X157681Y164627D01*
X158062Y165546D01*
Y166540D01*
X157681Y167459D01*
X156978Y168162D01*
X156059Y168543D01*
D02*
G37*
G36*
X181974Y168510D02*
X180980D01*
X180061Y168129D01*
X179358Y167426D01*
X178977Y166507D01*
Y165512D01*
X179358Y164594D01*
X180061Y163890D01*
X180980Y163510D01*
X181974D01*
X182893Y163890D01*
X183596Y164594D01*
X183977Y165512D01*
Y166507D01*
X183596Y167426D01*
X182893Y168129D01*
X181974Y168510D01*
D02*
G37*
G36*
X175497D02*
X174503D01*
X173584Y168129D01*
X172881Y167426D01*
X172500Y166507D01*
Y165512D01*
X172881Y164594D01*
X173584Y163890D01*
X174503Y163510D01*
X175497D01*
X176416Y163890D01*
X177119Y164594D01*
X177500Y165512D01*
Y166507D01*
X177119Y167426D01*
X176416Y168129D01*
X175497Y168510D01*
D02*
G37*
G36*
X168995D02*
X168000D01*
X167082Y168129D01*
X166378Y167426D01*
X165998Y166507D01*
Y165512D01*
X166378Y164594D01*
X167082Y163890D01*
X168000Y163510D01*
X168995D01*
X169914Y163890D01*
X170617Y164594D01*
X170998Y165512D01*
Y166507D01*
X170617Y167426D01*
X169914Y168129D01*
X168995Y168510D01*
D02*
G37*
G36*
X162493D02*
X161498D01*
X160579Y168129D01*
X159876Y167426D01*
X159495Y166507D01*
Y165512D01*
X159876Y164594D01*
X160579Y163890D01*
X161498Y163510D01*
X162493D01*
X163411Y163890D01*
X164115Y164594D01*
X164495Y165512D01*
Y166507D01*
X164115Y167426D01*
X163411Y168129D01*
X162493Y168510D01*
D02*
G37*
G36*
X168995Y162007D02*
X168000D01*
X167082Y161627D01*
X166378Y160923D01*
X165998Y160005D01*
Y159010D01*
X166378Y158091D01*
X167082Y157388D01*
X168000Y157007D01*
X168995D01*
X169914Y157388D01*
X170617Y158091D01*
X170998Y159010D01*
Y160005D01*
X170617Y160923D01*
X169914Y161627D01*
X168995Y162007D01*
D02*
G37*
G36*
X162493D02*
X161498D01*
X160579Y161627D01*
X159876Y160923D01*
X159495Y160005D01*
Y159010D01*
X159876Y158091D01*
X160579Y157388D01*
X161498Y157007D01*
X162493D01*
X163411Y157388D01*
X164115Y158091D01*
X164495Y159010D01*
Y160005D01*
X164115Y160923D01*
X163411Y161627D01*
X162493Y162007D01*
D02*
G37*
G36*
X130988Y156546D02*
X129993D01*
X129075Y156165D01*
X128371Y155462D01*
X127991Y154543D01*
Y153549D01*
X128371Y152630D01*
X129075Y151927D01*
X129993Y151546D01*
X130988D01*
X131907Y151927D01*
X132610Y152630D01*
X132991Y153549D01*
Y154543D01*
X132610Y155462D01*
X131907Y156165D01*
X130988Y156546D01*
D02*
G37*
G36*
X162493Y155505D02*
X161498D01*
X160579Y155124D01*
X159876Y154421D01*
X159495Y153502D01*
Y152507D01*
X159876Y151589D01*
X160579Y150885D01*
X161498Y150505D01*
X162493D01*
X163411Y150885D01*
X164115Y151589D01*
X164495Y152507D01*
Y153502D01*
X164115Y154421D01*
X163411Y155124D01*
X162493Y155505D01*
D02*
G37*
G36*
X110895Y148471D02*
X109502D01*
X108216Y147938D01*
X107231Y146954D01*
X106698Y145667D01*
Y144900D01*
X106372Y145118D01*
X105685Y145254D01*
X97956D01*
X97268Y145118D01*
X96685Y144728D01*
X95679Y143722D01*
X95327Y143867D01*
X93935D01*
X92648Y143335D01*
X91664Y142350D01*
X91131Y141064D01*
Y139671D01*
X91664Y138385D01*
X92648Y137400D01*
X93935Y136867D01*
X94447D01*
X94161Y136176D01*
Y134784D01*
X94694Y133497D01*
X95678Y132513D01*
X96965Y131980D01*
X98357D01*
X99644Y132513D01*
X100628Y133497D01*
X101161Y134784D01*
Y136176D01*
X101084Y136362D01*
X102319Y137597D01*
X103257D01*
X105519Y135336D01*
X106102Y134946D01*
X106789Y134809D01*
X109817D01*
X109011Y134003D01*
X108478Y132716D01*
Y131324D01*
X109011Y130037D01*
X109995Y129053D01*
X111282Y128520D01*
X112674D01*
X113960Y129053D01*
X114945Y130037D01*
X115478Y131324D01*
Y132716D01*
X114945Y134003D01*
X114138Y134809D01*
X119801D01*
X120000Y134770D01*
X136077D01*
X136143Y134704D01*
X136726Y134315D01*
X137413Y134178D01*
X144994D01*
X145681Y134315D01*
X146264Y134704D01*
X148306Y136746D01*
X148351Y136728D01*
X149644D01*
X150839Y137223D01*
X151753Y138137D01*
X152248Y139332D01*
Y140625D01*
X151753Y141819D01*
X150839Y142734D01*
X149644Y143229D01*
X148351D01*
X147156Y142734D01*
X146242Y141819D01*
X145747Y140625D01*
Y139332D01*
X145766Y139287D01*
X145525Y139047D01*
X145668Y139392D01*
Y140685D01*
X145173Y141880D01*
X144259Y142794D01*
X143064Y143289D01*
X141771D01*
X140577Y142794D01*
X139781Y141998D01*
X139225Y142369D01*
X138537Y142506D01*
X120000D01*
X119801Y142466D01*
X112643D01*
X113166Y142989D01*
X113698Y144275D01*
Y145667D01*
X113166Y146954D01*
X112181Y147938D01*
X110895Y148471D01*
D02*
G37*
G36*
X136554Y149416D02*
X135560D01*
X134641Y149035D01*
X133938Y148332D01*
X133557Y147413D01*
Y146419D01*
X133938Y145500D01*
X134641Y144797D01*
X135560Y144416D01*
X136554D01*
X137473Y144797D01*
X138176Y145500D01*
X138557Y146419D01*
Y147413D01*
X138176Y148332D01*
X137473Y149035D01*
X136554Y149416D01*
D02*
G37*
G36*
X149495Y149004D02*
X148500D01*
X147581Y148623D01*
X146878Y147920D01*
X146497Y147001D01*
Y146006D01*
X146878Y145088D01*
X147581Y144384D01*
X148500Y144004D01*
X149495D01*
X150414Y144384D01*
X151117Y145088D01*
X151497Y146006D01*
Y147001D01*
X151117Y147920D01*
X150414Y148623D01*
X149495Y149004D01*
D02*
G37*
G36*
X162493Y149002D02*
X161498D01*
X160579Y148622D01*
X159876Y147919D01*
X159495Y147000D01*
Y146005D01*
X159876Y145086D01*
X160579Y144383D01*
X161498Y144002D01*
X162493D01*
X163411Y144383D01*
X164115Y145086D01*
X164495Y146005D01*
Y147000D01*
X164115Y147919D01*
X163411Y148622D01*
X162493Y149002D01*
D02*
G37*
G36*
Y142500D02*
X161498D01*
X160579Y142119D01*
X159876Y141416D01*
X159495Y140497D01*
Y139503D01*
X159876Y138584D01*
X160579Y137881D01*
X161498Y137500D01*
X162493D01*
X163411Y137881D01*
X164115Y138584D01*
X164495Y139503D01*
Y140497D01*
X164115Y141416D01*
X163411Y142119D01*
X162493Y142500D01*
D02*
G37*
G36*
X155990D02*
X154995D01*
X154077Y142119D01*
X153373Y141416D01*
X152993Y140497D01*
Y139503D01*
X153373Y138584D01*
X154077Y137881D01*
X154995Y137500D01*
X155990D01*
X156909Y137881D01*
X157612Y138584D01*
X157993Y139503D01*
Y140497D01*
X157612Y141416D01*
X156909Y142119D01*
X155990Y142500D01*
D02*
G37*
G36*
X162493Y135998D02*
X161498D01*
X160579Y135617D01*
X159876Y134914D01*
X159495Y133995D01*
Y133000D01*
X159876Y132081D01*
X160579Y131378D01*
X161498Y130998D01*
X162493D01*
X163411Y131378D01*
X164115Y132081D01*
X164495Y133000D01*
Y133995D01*
X164115Y134914D01*
X163411Y135617D01*
X162493Y135998D01*
D02*
G37*
G36*
X149488Y135926D02*
X148494D01*
X147575Y135545D01*
X146872Y134842D01*
X146491Y133923D01*
Y132929D01*
X146872Y132010D01*
X147575Y131307D01*
X148494Y130926D01*
X149488D01*
X150407Y131307D01*
X151110Y132010D01*
X151491Y132929D01*
Y133923D01*
X151110Y134842D01*
X150407Y135545D01*
X149488Y135926D01*
D02*
G37*
G36*
X130182Y134222D02*
X129187D01*
X128269Y133841D01*
X127565Y133138D01*
X127185Y132219D01*
Y131225D01*
X127565Y130306D01*
X128269Y129603D01*
X129187Y129222D01*
X130182D01*
X131101Y129603D01*
X131804Y130306D01*
X132185Y131225D01*
Y132219D01*
X131804Y133138D01*
X131101Y133841D01*
X130182Y134222D01*
D02*
G37*
G36*
X137691Y133753D02*
X136696D01*
X135778Y133373D01*
X135074Y132669D01*
X134694Y131751D01*
Y130756D01*
X135074Y129837D01*
X135778Y129134D01*
X136696Y128753D01*
X137691D01*
X138610Y129134D01*
X139313Y129837D01*
X139694Y130756D01*
Y131751D01*
X139313Y132669D01*
X138610Y133373D01*
X137691Y133753D01*
D02*
G37*
G36*
X162493Y129495D02*
X161498D01*
X160579Y129115D01*
X159876Y128411D01*
X159495Y127493D01*
Y126498D01*
X159876Y125579D01*
X160579Y124876D01*
X161498Y124495D01*
X162493D01*
X163411Y124876D01*
X164115Y125579D01*
X164495Y126498D01*
Y127493D01*
X164115Y128411D01*
X163411Y129115D01*
X162493Y129495D01*
D02*
G37*
G36*
X155990D02*
X154995D01*
X154077Y129115D01*
X153373Y128411D01*
X152993Y127493D01*
Y126498D01*
X153373Y125579D01*
X154077Y124876D01*
X154995Y124495D01*
X155990D01*
X156909Y124876D01*
X157612Y125579D01*
X157993Y126498D01*
Y127493D01*
X157612Y128411D01*
X156909Y129115D01*
X155990Y129495D01*
D02*
G37*
G36*
X122548Y127659D02*
X121156D01*
X119869Y127127D01*
X118885Y126142D01*
X118352Y124856D01*
Y123463D01*
X118885Y122177D01*
X119869Y121192D01*
X121156Y120659D01*
X122548D01*
X123835Y121192D01*
X124819Y122177D01*
X125352Y123463D01*
Y124856D01*
X124819Y126142D01*
X123835Y127127D01*
X122548Y127659D01*
D02*
G37*
G36*
X162493Y122993D02*
X161498D01*
X160579Y122612D01*
X159876Y121909D01*
X159495Y120990D01*
Y119995D01*
X159876Y119077D01*
X160579Y118373D01*
X161498Y117993D01*
X162493D01*
X163411Y118373D01*
X164115Y119077D01*
X164495Y119995D01*
Y120990D01*
X164115Y121909D01*
X163411Y122612D01*
X162493Y122993D01*
D02*
G37*
G36*
X155990D02*
X154995D01*
X154077Y122612D01*
X153373Y121909D01*
X152993Y120990D01*
Y119995D01*
X153373Y119077D01*
X154077Y118373D01*
X154995Y117993D01*
X155990D01*
X156909Y118373D01*
X157612Y119077D01*
X157993Y119995D01*
Y120990D01*
X157612Y121909D01*
X156909Y122612D01*
X155990Y122993D01*
D02*
G37*
G36*
X149606Y123786D02*
X148313D01*
X147118Y123291D01*
X146204Y122377D01*
X145709Y121182D01*
Y119889D01*
X145727Y119845D01*
X123461Y97578D01*
X123071Y96995D01*
X122935Y96308D01*
Y91696D01*
X123071Y91008D01*
X123461Y90425D01*
X123938Y89948D01*
Y84925D01*
X122983Y85881D01*
X121696Y86414D01*
X120304D01*
X119017Y85881D01*
X118033Y84896D01*
X117500Y83610D01*
Y82218D01*
X118033Y80931D01*
X118876Y80088D01*
X118651Y79994D01*
X117666Y79010D01*
X117133Y77723D01*
Y76331D01*
X117666Y75045D01*
X118651Y74060D01*
X119937Y73527D01*
X121329D01*
X122616Y74060D01*
X123600Y75045D01*
X124133Y76331D01*
Y76357D01*
X125420Y75825D01*
X126812D01*
X128098Y76357D01*
X129083Y77342D01*
X129616Y78628D01*
Y80021D01*
X129083Y81307D01*
X128098Y82292D01*
X127531Y82527D01*
Y90692D01*
X127395Y91379D01*
X127005Y91962D01*
X126528Y92440D01*
Y95563D01*
X148268Y117304D01*
X148313Y117285D01*
X149606D01*
X150801Y117780D01*
X151715Y118694D01*
X152210Y119889D01*
Y121182D01*
X151715Y122377D01*
X150801Y123291D01*
X149606Y123786D01*
D02*
G37*
G36*
X96289Y123435D02*
X94897D01*
X93611Y122902D01*
X92626Y121918D01*
X92093Y120631D01*
Y119239D01*
X92626Y117952D01*
X93611Y116968D01*
X94897Y116435D01*
X96289D01*
X97576Y116968D01*
X98560Y117952D01*
X99093Y119239D01*
Y120631D01*
X98560Y121918D01*
X97576Y122902D01*
X96289Y123435D01*
D02*
G37*
G36*
X194979Y116490D02*
X193985D01*
X193066Y116110D01*
X192362Y115407D01*
X191982Y114488D01*
Y113493D01*
X192362Y112574D01*
X193066Y111871D01*
X193985Y111490D01*
X194979D01*
X195898Y111871D01*
X196601Y112574D01*
X196982Y113493D01*
Y114488D01*
X196601Y115407D01*
X195898Y116110D01*
X194979Y116490D01*
D02*
G37*
G36*
X181974D02*
X180980D01*
X180061Y116110D01*
X179358Y115407D01*
X178977Y114488D01*
Y113493D01*
X179358Y112574D01*
X180061Y111871D01*
X180980Y111490D01*
X181974D01*
X182893Y111871D01*
X183596Y112574D01*
X183977Y113493D01*
Y114488D01*
X183596Y115407D01*
X182893Y116110D01*
X181974Y116490D01*
D02*
G37*
G36*
X168995D02*
X168000D01*
X167082Y116110D01*
X166378Y115407D01*
X165998Y114488D01*
Y113493D01*
X166378Y112574D01*
X167082Y111871D01*
X168000Y111490D01*
X168995D01*
X169914Y111871D01*
X170617Y112574D01*
X170998Y113493D01*
Y114488D01*
X170617Y115407D01*
X169914Y116110D01*
X168995Y116490D01*
D02*
G37*
G36*
X162493D02*
X161498D01*
X160579Y116110D01*
X159876Y115407D01*
X159495Y114488D01*
Y113493D01*
X159876Y112574D01*
X160579Y111871D01*
X161498Y111490D01*
X162493D01*
X163411Y111871D01*
X164115Y112574D01*
X164495Y113493D01*
Y114488D01*
X164115Y115407D01*
X163411Y116110D01*
X162493Y116490D01*
D02*
G37*
G36*
X155990D02*
X154995D01*
X154077Y116110D01*
X153373Y115407D01*
X152993Y114488D01*
Y113493D01*
X153373Y112574D01*
X154077Y111871D01*
X154995Y111490D01*
X155990D01*
X156909Y111871D01*
X157612Y112574D01*
X157993Y113493D01*
Y114488D01*
X157612Y115407D01*
X156909Y116110D01*
X155990Y116490D01*
D02*
G37*
G36*
X149434Y116477D02*
X148440D01*
X147521Y116096D01*
X146817Y115393D01*
X146437Y114474D01*
Y113480D01*
X146817Y112561D01*
X147521Y111858D01*
X148440Y111477D01*
X149434D01*
X150353Y111858D01*
X151056Y112561D01*
X151437Y113480D01*
Y114474D01*
X151056Y115393D01*
X150353Y116096D01*
X149434Y116477D01*
D02*
G37*
G36*
X27906Y116608D02*
X26514D01*
X25227Y116075D01*
X24243Y115090D01*
X23710Y113804D01*
Y112412D01*
X24243Y111125D01*
X25227Y110141D01*
X26514Y109608D01*
X27906D01*
X29193Y110141D01*
X30177Y111125D01*
X30710Y112412D01*
Y113804D01*
X30177Y115090D01*
X29193Y116075D01*
X27906Y116608D01*
D02*
G37*
G36*
X66146Y113337D02*
X64753D01*
X63467Y112804D01*
X62482Y111819D01*
X61949Y110533D01*
Y109141D01*
X62482Y107854D01*
X63467Y106870D01*
X64753Y106337D01*
X66146D01*
X67432Y106870D01*
X68417Y107854D01*
X68949Y109141D01*
Y110533D01*
X68417Y111819D01*
X67432Y112804D01*
X66146Y113337D01*
D02*
G37*
G36*
X188477Y109988D02*
X187482D01*
X186563Y109607D01*
X185860Y108904D01*
X185479Y107985D01*
Y106991D01*
X185860Y106072D01*
X186563Y105369D01*
X187482Y104988D01*
X188477D01*
X189396Y105369D01*
X190099Y106072D01*
X190479Y106991D01*
Y107985D01*
X190099Y108904D01*
X189396Y109607D01*
X188477Y109988D01*
D02*
G37*
G36*
X181974D02*
X180980D01*
X180061Y109607D01*
X179358Y108904D01*
X178977Y107985D01*
Y106991D01*
X179358Y106072D01*
X180061Y105369D01*
X180980Y104988D01*
X181974D01*
X182893Y105369D01*
X183596Y106072D01*
X183977Y106991D01*
Y107985D01*
X183596Y108904D01*
X182893Y109607D01*
X181974Y109988D01*
D02*
G37*
G36*
X175497D02*
X174503D01*
X173584Y109607D01*
X172881Y108904D01*
X172500Y107985D01*
Y106991D01*
X172881Y106072D01*
X173584Y105369D01*
X174503Y104988D01*
X175497D01*
X176416Y105369D01*
X177119Y106072D01*
X177500Y106991D01*
Y107985D01*
X177119Y108904D01*
X176416Y109607D01*
X175497Y109988D01*
D02*
G37*
G36*
X149488D02*
X148493D01*
X147574Y109607D01*
X146871Y108904D01*
X146490Y107985D01*
Y106991D01*
X146871Y106072D01*
X147574Y105369D01*
X148493Y104988D01*
X149488D01*
X150407Y105369D01*
X151110Y106072D01*
X151490Y106991D01*
Y107985D01*
X151110Y108904D01*
X150407Y109607D01*
X149488Y109988D01*
D02*
G37*
G36*
X142985D02*
X141991D01*
X141072Y109607D01*
X140369Y108904D01*
X139988Y107985D01*
Y106991D01*
X140369Y106072D01*
X141072Y105369D01*
X141991Y104988D01*
X142985D01*
X143904Y105369D01*
X144607Y106072D01*
X144988Y106991D01*
Y107985D01*
X144607Y108904D01*
X143904Y109607D01*
X142985Y109988D01*
D02*
G37*
G36*
X168919Y109965D02*
X167924D01*
X167006Y109584D01*
X166302Y108881D01*
X165922Y107962D01*
Y106968D01*
X166302Y106049D01*
X167006Y105346D01*
X167924Y104965D01*
X168919D01*
X169838Y105346D01*
X170541Y106049D01*
X170922Y106968D01*
Y107962D01*
X170541Y108881D01*
X169838Y109584D01*
X168919Y109965D01*
D02*
G37*
G36*
X130080Y109947D02*
X129086D01*
X128167Y109566D01*
X127464Y108863D01*
X127083Y107944D01*
Y106950D01*
X127464Y106031D01*
X128167Y105327D01*
X129086Y104947D01*
X130080D01*
X130999Y105327D01*
X131702Y106031D01*
X132083Y106950D01*
Y107944D01*
X131702Y108863D01*
X130999Y109566D01*
X130080Y109947D01*
D02*
G37*
G36*
X162470Y109934D02*
X161475D01*
X160556Y109554D01*
X159853Y108850D01*
X159472Y107932D01*
Y106937D01*
X159853Y106018D01*
X160556Y105315D01*
X161475Y104934D01*
X162470D01*
X163389Y105315D01*
X164092Y106018D01*
X164472Y106937D01*
Y107932D01*
X164092Y108850D01*
X163389Y109554D01*
X162470Y109934D01*
D02*
G37*
G36*
X155982D02*
X154988D01*
X154069Y109554D01*
X153366Y108850D01*
X152985Y107932D01*
Y106937D01*
X153366Y106018D01*
X154069Y105315D01*
X154988Y104934D01*
X155982D01*
X156901Y105315D01*
X157604Y106018D01*
X157985Y106937D01*
Y107932D01*
X157604Y108850D01*
X156901Y109554D01*
X155982Y109934D01*
D02*
G37*
G36*
X53446Y116500D02*
X52054D01*
X50767Y115967D01*
X49783Y114983D01*
X49250Y113696D01*
Y112304D01*
X49783Y111017D01*
X50767Y110033D01*
X50953Y109956D01*
Y104337D01*
X43173Y112118D01*
X43250Y112304D01*
Y113696D01*
X42717Y114983D01*
X41733Y115967D01*
X40446Y116500D01*
X39054D01*
X37767Y115967D01*
X36783Y114983D01*
X36250Y113696D01*
Y112304D01*
X36783Y111017D01*
X37767Y110033D01*
X39054Y109500D01*
X40446D01*
X40632Y109577D01*
X62187Y88022D01*
X61375Y88358D01*
X59983D01*
X58696Y87826D01*
X57712Y86841D01*
X57179Y85555D01*
Y84162D01*
X57712Y82876D01*
X58696Y81891D01*
X59983Y81358D01*
X61375D01*
X62662Y81891D01*
X63646Y82876D01*
X64179Y84162D01*
Y85555D01*
X63843Y86367D01*
X83980Y66230D01*
X84563Y65840D01*
X85250Y65704D01*
X155165D01*
X155852Y65840D01*
X156435Y66230D01*
X181464Y91258D01*
X182260D01*
X183454Y91753D01*
X184369Y92667D01*
X184863Y93862D01*
Y95155D01*
X184369Y96350D01*
X183454Y97264D01*
X182260Y97759D01*
X180966D01*
X179772Y97264D01*
X178857Y96350D01*
X178363Y95155D01*
Y93862D01*
X178545Y93421D01*
X154420Y69296D01*
X153417D01*
X173089Y88968D01*
X173478Y89551D01*
X173615Y90239D01*
Y90579D01*
X174366Y91329D01*
X174410Y91311D01*
X175704D01*
X176898Y91806D01*
X177813Y92720D01*
X178307Y93915D01*
Y95208D01*
X177813Y96402D01*
X176898Y97317D01*
X175704Y97812D01*
X174410D01*
X173216Y97317D01*
X172301Y96402D01*
X171807Y95208D01*
Y93915D01*
X171825Y93870D01*
X170548Y92593D01*
X170159Y92010D01*
X170022Y91323D01*
Y90983D01*
X151179Y72140D01*
X106218D01*
X106345Y72192D01*
X107329Y73177D01*
X107862Y74463D01*
Y75856D01*
X107329Y77142D01*
X106345Y78127D01*
X105058Y78659D01*
X103666D01*
X102379Y78127D01*
X101395Y77142D01*
X100862Y75856D01*
Y74463D01*
X101395Y73177D01*
X102379Y72192D01*
X102506Y72140D01*
X87282D01*
X54546Y104875D01*
Y109956D01*
X54733Y110033D01*
X55717Y111017D01*
X56250Y112304D01*
Y113696D01*
X55717Y114983D01*
X54733Y115967D01*
X53446Y116500D01*
D02*
G37*
G36*
X214148Y103775D02*
X213153D01*
X212234Y103395D01*
X211531Y102691D01*
X211151Y101772D01*
Y100778D01*
X211531Y99859D01*
X212234Y99156D01*
X213153Y98775D01*
X214148D01*
X215067Y99156D01*
X215770Y99859D01*
X216150Y100778D01*
Y101772D01*
X215770Y102691D01*
X215067Y103395D01*
X214148Y103775D01*
D02*
G37*
G36*
X162470Y103554D02*
X161475D01*
X160556Y103173D01*
X159853Y102470D01*
X159472Y101551D01*
Y100557D01*
X159853Y99638D01*
X160556Y98934D01*
X161475Y98554D01*
X162470D01*
X163389Y98934D01*
X164092Y99638D01*
X164472Y100557D01*
Y101551D01*
X164092Y102470D01*
X163389Y103173D01*
X162470Y103554D01*
D02*
G37*
G36*
X201471Y103516D02*
X200476D01*
X199557Y103135D01*
X198854Y102432D01*
X198473Y101513D01*
Y100518D01*
X198854Y99600D01*
X199557Y98896D01*
X200476Y98516D01*
X201471D01*
X202390Y98896D01*
X203093Y99600D01*
X203473Y100518D01*
Y101513D01*
X203093Y102432D01*
X202390Y103135D01*
X201471Y103516D01*
D02*
G37*
G36*
X181970D02*
X180975D01*
X180057Y103135D01*
X179353Y102432D01*
X178973Y101513D01*
Y100518D01*
X179353Y99600D01*
X180057Y98896D01*
X180975Y98516D01*
X181970D01*
X182889Y98896D01*
X183592Y99600D01*
X183973Y100518D01*
Y101513D01*
X183592Y102432D01*
X182889Y103135D01*
X181970Y103516D01*
D02*
G37*
G36*
X207958Y103478D02*
X206963D01*
X206045Y103097D01*
X205341Y102394D01*
X204961Y101475D01*
Y100480D01*
X205341Y99561D01*
X206045Y98858D01*
X206963Y98478D01*
X207958D01*
X208877Y98858D01*
X209580Y99561D01*
X209961Y100480D01*
Y101475D01*
X209580Y102394D01*
X208877Y103097D01*
X207958Y103478D01*
D02*
G37*
G36*
X175483Y103439D02*
X174488D01*
X173569Y103059D01*
X172866Y102355D01*
X172485Y101437D01*
Y100442D01*
X172866Y99523D01*
X173569Y98820D01*
X174488Y98439D01*
X175483D01*
X176402Y98820D01*
X177105Y99523D01*
X177485Y100442D01*
Y101437D01*
X177105Y102355D01*
X176402Y103059D01*
X175483Y103439D01*
D02*
G37*
G36*
X168995D02*
X168001D01*
X167082Y103059D01*
X166379Y102355D01*
X165998Y101437D01*
Y100442D01*
X166379Y99523D01*
X167082Y98820D01*
X168001Y98439D01*
X168995D01*
X169914Y98820D01*
X170617Y99523D01*
X170998Y100442D01*
Y101437D01*
X170617Y102355D01*
X169914Y103059D01*
X168995Y103439D01*
D02*
G37*
G36*
X201445Y97076D02*
X200450D01*
X199531Y96695D01*
X198828Y95992D01*
X198447Y95073D01*
Y94078D01*
X198828Y93160D01*
X199531Y92456D01*
X200450Y92076D01*
X201445D01*
X202364Y92456D01*
X203067Y93160D01*
X203447Y94078D01*
Y95073D01*
X203067Y95992D01*
X202364Y96695D01*
X201445Y97076D01*
D02*
G37*
G36*
X156006Y97057D02*
X155012D01*
X154093Y96676D01*
X153390Y95973D01*
X153009Y95054D01*
Y94060D01*
X153390Y93141D01*
X154093Y92437D01*
X155012Y92057D01*
X156006D01*
X156925Y92437D01*
X157628Y93141D01*
X158009Y94060D01*
Y95054D01*
X157628Y95973D01*
X156925Y96676D01*
X156006Y97057D01*
D02*
G37*
G36*
X135535Y96105D02*
X134541D01*
X133622Y95724D01*
X132919Y95021D01*
X132538Y94102D01*
Y93108D01*
X132919Y92189D01*
X133622Y91486D01*
X134541Y91105D01*
X135535D01*
X136454Y91486D01*
X137157Y92189D01*
X137538Y93108D01*
Y94102D01*
X137157Y95021D01*
X136454Y95724D01*
X135535Y96105D01*
D02*
G37*
G36*
X129638Y96022D02*
X128643D01*
X127725Y95641D01*
X127021Y94938D01*
X126641Y94019D01*
Y93025D01*
X127021Y92106D01*
X127725Y91403D01*
X128643Y91022D01*
X129638D01*
X130557Y91403D01*
X131260Y92106D01*
X131641Y93025D01*
Y94019D01*
X131260Y94938D01*
X130557Y95641D01*
X129638Y96022D01*
D02*
G37*
G36*
X167820Y94479D02*
X166826D01*
X165907Y94099D01*
X165204Y93395D01*
X164823Y92476D01*
Y91482D01*
X165204Y90563D01*
X165907Y89860D01*
X166826Y89479D01*
X167820D01*
X168739Y89860D01*
X169443Y90563D01*
X169823Y91482D01*
Y92476D01*
X169443Y93395D01*
X168739Y94099D01*
X167820Y94479D01*
D02*
G37*
G36*
X106829Y94370D02*
X105436D01*
X104150Y93837D01*
X103165Y92853D01*
X102632Y91566D01*
Y90174D01*
X103165Y88888D01*
X104150Y87903D01*
X105436Y87370D01*
X106829D01*
X108115Y87903D01*
X109100Y88888D01*
X109632Y90174D01*
Y91566D01*
X109100Y92853D01*
X108115Y93837D01*
X106829Y94370D01*
D02*
G37*
G36*
X199801Y91355D02*
X198806D01*
X197888Y90975D01*
X197184Y90271D01*
X196804Y89353D01*
Y88358D01*
X197184Y87439D01*
X197888Y86736D01*
X198806Y86355D01*
X199801D01*
X200720Y86736D01*
X201423Y87439D01*
X201804Y88358D01*
Y89353D01*
X201423Y90271D01*
X200720Y90975D01*
X199801Y91355D01*
D02*
G37*
G36*
X209546Y90674D02*
X208551D01*
X207633Y90293D01*
X206929Y89590D01*
X206549Y88671D01*
Y87676D01*
X206929Y86758D01*
X207633Y86054D01*
X208551Y85674D01*
X209546D01*
X210465Y86054D01*
X211168Y86758D01*
X211549Y87676D01*
Y88671D01*
X211168Y89590D01*
X210465Y90293D01*
X209546Y90674D01*
D02*
G37*
G36*
X92676Y92413D02*
X91284D01*
X89997Y91880D01*
X89012Y90896D01*
X88480Y89609D01*
Y88217D01*
X89012Y86930D01*
X89997Y85946D01*
X91284Y85413D01*
X92676D01*
X93962Y85946D01*
X94947Y86930D01*
X95480Y88217D01*
Y89609D01*
X94947Y90896D01*
X93962Y91880D01*
X92676Y92413D01*
D02*
G37*
G36*
X144247Y88190D02*
X143253D01*
X142334Y87809D01*
X141631Y87106D01*
X141250Y86187D01*
Y85192D01*
X141631Y84274D01*
X142334Y83570D01*
X143253Y83190D01*
X144247D01*
X145166Y83570D01*
X145869Y84274D01*
X146250Y85192D01*
Y86187D01*
X145869Y87106D01*
X145166Y87809D01*
X144247Y88190D01*
D02*
G37*
G36*
X46375Y88358D02*
X44983D01*
X43696Y87826D01*
X42712Y86841D01*
X42179Y85555D01*
Y84162D01*
X42712Y82876D01*
X43696Y81891D01*
X44983Y81358D01*
X46375D01*
X47662Y81891D01*
X48646Y82876D01*
X49179Y84162D01*
Y85555D01*
X48646Y86841D01*
X47662Y87826D01*
X46375Y88358D01*
D02*
G37*
G36*
X31375D02*
X29983D01*
X28696Y87826D01*
X27712Y86841D01*
X27179Y85555D01*
Y84162D01*
X27712Y82876D01*
X28696Y81891D01*
X29983Y81358D01*
X31375D01*
X32662Y81891D01*
X33646Y82876D01*
X34179Y84162D01*
Y85555D01*
X33646Y86841D01*
X32662Y87826D01*
X31375Y88358D01*
D02*
G37*
G36*
X61375Y78358D02*
X59983D01*
X58696Y77826D01*
X57712Y76841D01*
X57179Y75555D01*
Y74162D01*
X57712Y72876D01*
X58696Y71891D01*
X59983Y71358D01*
X61375D01*
X62662Y71891D01*
X63646Y72876D01*
X64179Y74162D01*
Y75555D01*
X63646Y76841D01*
X62662Y77826D01*
X61375Y78358D01*
D02*
G37*
G36*
X46375D02*
X44983D01*
X43696Y77826D01*
X42712Y76841D01*
X42179Y75555D01*
Y74162D01*
X42712Y72876D01*
X43696Y71891D01*
X44983Y71358D01*
X46375D01*
X47662Y71891D01*
X48646Y72876D01*
X49179Y74162D01*
Y75555D01*
X48646Y76841D01*
X47662Y77826D01*
X46375Y78358D01*
D02*
G37*
G36*
X31375D02*
X29983D01*
X28696Y77826D01*
X27712Y76841D01*
X27179Y75555D01*
Y74162D01*
X27712Y72876D01*
X28696Y71891D01*
X29983Y71358D01*
X31375D01*
X32662Y71891D01*
X33646Y72876D01*
X34179Y74162D01*
Y75555D01*
X33646Y76841D01*
X32662Y77826D01*
X31375Y78358D01*
D02*
G37*
G36*
X206934Y70852D02*
X205542D01*
X204256Y70319D01*
X203271Y69334D01*
X203188Y69134D01*
X202491Y69832D01*
X201205Y70364D01*
X199812D01*
X198526Y69832D01*
X197541Y68847D01*
X197008Y67561D01*
Y66168D01*
X197541Y64882D01*
X198526Y63897D01*
X199812Y63365D01*
X201205D01*
X202491Y63897D01*
X203476Y64882D01*
X203558Y65082D01*
X204256Y64385D01*
X205542Y63852D01*
X206934D01*
X208221Y64385D01*
X209205Y65369D01*
X209738Y66656D01*
Y68048D01*
X209205Y69334D01*
X208221Y70319D01*
X206934Y70852D01*
D02*
G37*
G36*
X225294Y70565D02*
X223902D01*
X222616Y70032D01*
X221690Y69107D01*
X220831Y69966D01*
X219544Y70498D01*
X218152D01*
X216866Y69966D01*
X215881Y68981D01*
X215348Y67695D01*
Y66302D01*
X215881Y65016D01*
X216866Y64031D01*
X218152Y63498D01*
X219544D01*
X220831Y64031D01*
X221757Y64957D01*
X222616Y64098D01*
X223902Y63565D01*
X225294D01*
X226581Y64098D01*
X227565Y65083D01*
X228098Y66369D01*
Y67762D01*
X227565Y69048D01*
X226581Y70032D01*
X225294Y70565D01*
D02*
G37*
G36*
X180196Y74250D02*
X178804D01*
X177517Y73717D01*
X176533Y72733D01*
X176000Y71446D01*
Y70054D01*
X176533Y68767D01*
X177517Y67783D01*
X178804Y67250D01*
X180196D01*
X181483Y67783D01*
X182467Y68767D01*
X183000Y70054D01*
Y71446D01*
X182467Y72733D01*
X181483Y73717D01*
X180196Y74250D01*
D02*
G37*
G36*
X172635Y70819D02*
X171243D01*
X169956Y70286D01*
X168972Y69302D01*
X168439Y68015D01*
Y66623D01*
X168972Y65336D01*
X169956Y64352D01*
X171243Y63819D01*
X172635D01*
X173922Y64352D01*
X174906Y65336D01*
X175439Y66623D01*
Y68015D01*
X174906Y69302D01*
X173922Y70286D01*
X172635Y70819D01*
D02*
G37*
G36*
X61375Y68358D02*
X59983D01*
X58696Y67826D01*
X57712Y66841D01*
X57179Y65555D01*
Y64162D01*
X57712Y62876D01*
X58696Y61891D01*
X59983Y61358D01*
X61375D01*
X62662Y61891D01*
X63646Y62876D01*
X64179Y64162D01*
Y65555D01*
X63646Y66841D01*
X62662Y67826D01*
X61375Y68358D01*
D02*
G37*
G36*
X46375D02*
X44983D01*
X43696Y67826D01*
X42712Y66841D01*
X42179Y65555D01*
Y64162D01*
X42712Y62876D01*
X43696Y61891D01*
X44983Y61358D01*
X46375D01*
X47662Y61891D01*
X48646Y62876D01*
X49179Y64162D01*
Y65555D01*
X48646Y66841D01*
X47662Y67826D01*
X46375Y68358D01*
D02*
G37*
G36*
X31375D02*
X29983D01*
X28696Y67826D01*
X27712Y66841D01*
X27179Y65555D01*
Y64162D01*
X27712Y62876D01*
X28696Y61891D01*
X29983Y61358D01*
X31375D01*
X32662Y61891D01*
X33646Y62876D01*
X34179Y64162D01*
Y65555D01*
X33646Y66841D01*
X32662Y67826D01*
X31375Y68358D01*
D02*
G37*
G36*
X257185Y60272D02*
X255793D01*
X254506Y59740D01*
X253522Y58755D01*
X252989Y57469D01*
Y56076D01*
X253522Y54790D01*
X254506Y53805D01*
X255793Y53273D01*
X257185D01*
X258471Y53805D01*
X259456Y54790D01*
X259651Y55260D01*
Y53967D01*
X260184Y52681D01*
X261168Y51696D01*
X262454Y51163D01*
X263847D01*
X265133Y51696D01*
X266118Y52681D01*
X266651Y53967D01*
Y55360D01*
X266118Y56646D01*
X265133Y57631D01*
X263847Y58163D01*
X262454D01*
X261168Y57631D01*
X260184Y56646D01*
X259989Y56176D01*
Y57469D01*
X259456Y58755D01*
X258471Y59740D01*
X257185Y60272D01*
D02*
G37*
G36*
X198866Y52068D02*
X197474D01*
X196187Y51535D01*
X195203Y50550D01*
X194670Y49264D01*
Y48976D01*
X193807Y49333D01*
X192415D01*
X191129Y48800D01*
X190144Y47816D01*
X189611Y46529D01*
Y45137D01*
X189871Y44510D01*
X189284D01*
X187997Y43977D01*
X187013Y42993D01*
X186480Y41706D01*
Y40314D01*
X187013Y39027D01*
X187997Y38043D01*
X189284Y37510D01*
X190676D01*
X191963Y38043D01*
X192947Y39027D01*
X193480Y40314D01*
Y41706D01*
X193220Y42333D01*
X193807D01*
X195094Y42866D01*
X196078Y43851D01*
X196611Y45137D01*
Y45425D01*
X197474Y45068D01*
X198866D01*
X200152Y45601D01*
X201137Y46585D01*
X201670Y47872D01*
Y49264D01*
X201137Y50550D01*
X200152Y51535D01*
X198866Y52068D01*
D02*
G37*
G36*
X153702Y52172D02*
X152310D01*
X151024Y51639D01*
X150039Y50655D01*
X149506Y49368D01*
Y47976D01*
X150039Y46690D01*
X151024Y45705D01*
X152310Y45172D01*
X153702D01*
X154989Y45705D01*
X155973Y46690D01*
X156506Y47976D01*
Y49368D01*
X155973Y50655D01*
X154989Y51639D01*
X153702Y52172D01*
D02*
G37*
G36*
X168734Y52084D02*
X167342D01*
X166056Y51551D01*
X165071Y50567D01*
X164538Y49280D01*
Y47888D01*
X165071Y46602D01*
X166056Y45617D01*
X167342Y45084D01*
X168734D01*
X170021Y45617D01*
X171005Y46602D01*
X171538Y47888D01*
Y49280D01*
X171005Y50567D01*
X170021Y51551D01*
X168734Y52084D01*
D02*
G37*
G36*
X183768Y52000D02*
X182375D01*
X181089Y51467D01*
X180104Y50483D01*
X179571Y49196D01*
Y47804D01*
X180104Y46518D01*
X181089Y45533D01*
X182375Y45000D01*
X183768D01*
X185054Y45533D01*
X186038Y46518D01*
X186571Y47804D01*
Y49196D01*
X186038Y50483D01*
X185054Y51467D01*
X183768Y52000D01*
D02*
G37*
G36*
X138694Y51987D02*
X137301D01*
X136015Y51454D01*
X135030Y50470D01*
X134498Y49183D01*
Y47791D01*
X135030Y46505D01*
X136015Y45520D01*
X137301Y44987D01*
X138694D01*
X139980Y45520D01*
X140965Y46505D01*
X141498Y47791D01*
Y49183D01*
X140965Y50470D01*
X139980Y51454D01*
X138694Y51987D01*
D02*
G37*
G36*
X126150Y49284D02*
X124758D01*
X123471Y48752D01*
X122487Y47767D01*
X121954Y46481D01*
Y45088D01*
X122487Y43802D01*
X123471Y42817D01*
X124758Y42284D01*
X126150D01*
X127437Y42817D01*
X128421Y43802D01*
X128954Y45088D01*
Y46481D01*
X128421Y47767D01*
X127437Y48752D01*
X126150Y49284D01*
D02*
G37*
G36*
X263772Y48480D02*
X262380D01*
X261093Y47947D01*
X260109Y46962D01*
X259576Y45676D01*
Y44283D01*
X260109Y42997D01*
X261093Y42013D01*
X262380Y41480D01*
X263772D01*
X265058Y42013D01*
X266043Y42997D01*
X266576Y44283D01*
Y45676D01*
X266043Y46962D01*
X265058Y47947D01*
X263772Y48480D01*
D02*
G37*
G36*
X145263Y47433D02*
X143870D01*
X142584Y46900D01*
X141600Y45916D01*
X141067Y44630D01*
Y43237D01*
X141600Y41951D01*
X142584Y40966D01*
X143870Y40433D01*
X145263D01*
X146549Y40966D01*
X147534Y41951D01*
X148067Y43237D01*
Y44630D01*
X147534Y45916D01*
X146549Y46900D01*
X145263Y47433D01*
D02*
G37*
G36*
X215953Y45820D02*
X214561D01*
X213274Y45287D01*
X212290Y44303D01*
X211757Y43016D01*
Y41624D01*
X212290Y40337D01*
X213274Y39353D01*
X214561Y38820D01*
X215953D01*
X217240Y39353D01*
X218224Y40337D01*
X218757Y41624D01*
Y43016D01*
X218224Y44303D01*
X217240Y45287D01*
X215953Y45820D01*
D02*
G37*
G36*
X100235Y44040D02*
X98843D01*
X97556Y43507D01*
X96572Y42523D01*
X96039Y41236D01*
Y39844D01*
X96572Y38557D01*
X97556Y37573D01*
X98843Y37040D01*
X100235D01*
X101522Y37573D01*
X102506Y38557D01*
X103039Y39844D01*
Y41236D01*
X102506Y42523D01*
X101522Y43507D01*
X100235Y44040D01*
D02*
G37*
G36*
X180696Y43500D02*
X179304D01*
X178017Y42967D01*
X177033Y41982D01*
X176500Y40696D01*
Y39304D01*
X177033Y38017D01*
X178017Y37033D01*
X179304Y36500D01*
X180696D01*
X181982Y37033D01*
X182967Y38017D01*
X183500Y39304D01*
Y40696D01*
X182967Y41982D01*
X181982Y42967D01*
X180696Y43500D01*
D02*
G37*
G36*
X160696D02*
X159304D01*
X158017Y42967D01*
X157033Y41982D01*
X156500Y40696D01*
Y39304D01*
X157033Y38017D01*
X158017Y37033D01*
X159304Y36500D01*
X160696D01*
X161982Y37033D01*
X162967Y38017D01*
X163500Y39304D01*
Y40696D01*
X162967Y41982D01*
X161982Y42967D01*
X160696Y43500D01*
D02*
G37*
G36*
X88688Y49238D02*
X87296D01*
X86009Y48705D01*
X85025Y47720D01*
X84492Y46434D01*
Y45042D01*
X85025Y43755D01*
X86009Y42771D01*
X86110Y42729D01*
X85874Y42631D01*
X84890Y41646D01*
X84357Y40360D01*
Y38968D01*
X84890Y37681D01*
X85874Y36697D01*
X87161Y36164D01*
X88553D01*
X89839Y36697D01*
X90824Y37681D01*
X91357Y38968D01*
Y40360D01*
X90824Y41646D01*
X89839Y42631D01*
X89738Y42673D01*
X89974Y42771D01*
X90959Y43755D01*
X91492Y45042D01*
Y46434D01*
X90959Y47720D01*
X89974Y48705D01*
X88688Y49238D01*
D02*
G37*
G36*
X251047Y42972D02*
X249654D01*
X248368Y42439D01*
X247383Y41454D01*
X246850Y40168D01*
Y38775D01*
X247383Y37489D01*
X248368Y36504D01*
X249654Y35972D01*
X251047D01*
X252333Y36504D01*
X253318Y37489D01*
X253850Y38775D01*
Y40168D01*
X253318Y41454D01*
X252333Y42439D01*
X251047Y42972D01*
D02*
G37*
G36*
X240496Y174987D02*
X239501D01*
X238582Y174606D01*
X237879Y173903D01*
X237499Y172984D01*
Y171989D01*
X237879Y171070D01*
X238582Y170367D01*
X239501Y169987D01*
X240496D01*
X241415Y170367D01*
X242118Y171070D01*
X242499Y171989D01*
Y172984D01*
X242118Y173903D01*
X241415Y174606D01*
X240496Y174987D01*
D02*
G37*
G36*
X214427Y174973D02*
X213432D01*
X212513Y174592D01*
X211810Y173889D01*
X211429Y172970D01*
Y171975D01*
X211810Y171056D01*
X212513Y170353D01*
X213432Y169973D01*
X214427D01*
X215345Y170353D01*
X216049Y171056D01*
X216429Y171975D01*
Y172970D01*
X216049Y173889D01*
X215345Y174592D01*
X214427Y174973D01*
D02*
G37*
G36*
X208021D02*
X207026D01*
X206107Y174592D01*
X205404Y173889D01*
X205023Y172970D01*
Y171975D01*
X205404Y171056D01*
X206107Y170353D01*
X207026Y169973D01*
X208021D01*
X208940Y170353D01*
X209643Y171056D01*
X210023Y171975D01*
Y172970D01*
X209643Y173889D01*
X208940Y174592D01*
X208021Y174973D01*
D02*
G37*
G36*
X201464Y174933D02*
X200469D01*
X199550Y174552D01*
X198847Y173849D01*
X198466Y172930D01*
Y171936D01*
X198847Y171017D01*
X199550Y170314D01*
X200469Y169933D01*
X201464D01*
X202383Y170314D01*
X203086Y171017D01*
X203466Y171936D01*
Y172930D01*
X203086Y173849D01*
X202383Y174552D01*
X201464Y174933D01*
D02*
G37*
G36*
X214486Y168510D02*
X213492D01*
X212573Y168129D01*
X211870Y167426D01*
X211489Y166507D01*
Y165512D01*
X211870Y164594D01*
X212573Y163890D01*
X213492Y163510D01*
X214486D01*
X215405Y163890D01*
X216108Y164594D01*
X216489Y165512D01*
Y166507D01*
X216108Y167426D01*
X215405Y168129D01*
X214486Y168510D01*
D02*
G37*
G36*
X207984D02*
X206989D01*
X206070Y168129D01*
X205367Y167426D01*
X204987Y166507D01*
Y165512D01*
X205367Y164594D01*
X206070Y163890D01*
X206989Y163510D01*
X207984D01*
X208903Y163890D01*
X209606Y164594D01*
X209987Y165512D01*
Y166507D01*
X209606Y167426D01*
X208903Y168129D01*
X207984Y168510D01*
D02*
G37*
G36*
X201481D02*
X200487D01*
X199568Y168129D01*
X198865Y167426D01*
X198484Y166507D01*
Y165512D01*
X198865Y164594D01*
X199568Y163890D01*
X200487Y163510D01*
X201481D01*
X202400Y163890D01*
X203104Y164594D01*
X203484Y165512D01*
Y166507D01*
X203104Y167426D01*
X202400Y168129D01*
X201481Y168510D01*
D02*
G37*
G36*
X220989Y129495D02*
X219994D01*
X219075Y129115D01*
X218372Y128411D01*
X217991Y127493D01*
Y126498D01*
X218372Y125579D01*
X219075Y124876D01*
X219994Y124495D01*
X220989D01*
X221908Y124876D01*
X222611Y125579D01*
X222991Y126498D01*
Y127493D01*
X222611Y128411D01*
X221908Y129115D01*
X220989Y129495D01*
D02*
G37*
G36*
X227534Y129484D02*
X226540D01*
X225621Y129104D01*
X224918Y128400D01*
X224537Y127481D01*
Y126487D01*
X224918Y125568D01*
X225621Y124865D01*
X226540Y124484D01*
X227534D01*
X228453Y124865D01*
X229156Y125568D01*
X229537Y126487D01*
Y127481D01*
X229156Y128400D01*
X228453Y129104D01*
X227534Y129484D01*
D02*
G37*
G36*
X252385Y129500D02*
X250992D01*
X249706Y128967D01*
X248721Y127983D01*
X248188Y126696D01*
Y125304D01*
X248721Y124017D01*
X249706Y123033D01*
X250992Y122500D01*
X252385D01*
X253671Y123033D01*
X254655Y124017D01*
X255188Y125304D01*
Y126696D01*
X254655Y127983D01*
X253671Y128967D01*
X252385Y129500D01*
D02*
G37*
G36*
X207984Y122993D02*
X206989D01*
X206070Y122612D01*
X205367Y121909D01*
X204987Y120990D01*
Y119995D01*
X205367Y119077D01*
X206070Y118373D01*
X206989Y117993D01*
X207984D01*
X208903Y118373D01*
X209606Y119077D01*
X209987Y119995D01*
Y120990D01*
X209606Y121909D01*
X208903Y122612D01*
X207984Y122993D01*
D02*
G37*
G36*
X220989Y116490D02*
X219994D01*
X219075Y116110D01*
X218372Y115407D01*
X217991Y114488D01*
Y113493D01*
X218372Y112574D01*
X219075Y111871D01*
X219994Y111490D01*
X220989D01*
X221908Y111871D01*
X222611Y112574D01*
X222991Y113493D01*
Y114488D01*
X222611Y115407D01*
X221908Y116110D01*
X220989Y116490D01*
D02*
G37*
G36*
X220933Y110003D02*
X219938D01*
X219020Y109622D01*
X218316Y108919D01*
X217936Y108000D01*
Y107006D01*
X218316Y106087D01*
X219020Y105384D01*
X219938Y105003D01*
X220933D01*
X221852Y105384D01*
X222555Y106087D01*
X222936Y107006D01*
Y108000D01*
X222555Y108919D01*
X221852Y109622D01*
X220933Y110003D01*
D02*
G37*
G36*
X227497Y109965D02*
X226502D01*
X225583Y109584D01*
X224880Y108881D01*
X224499Y107962D01*
Y106968D01*
X224880Y106049D01*
X225583Y105346D01*
X226502Y104965D01*
X227497D01*
X228415Y105346D01*
X229119Y106049D01*
X229499Y106968D01*
Y107962D01*
X229119Y108881D01*
X228415Y109584D01*
X227497Y109965D01*
D02*
G37*
G36*
X233984Y103554D02*
X232989D01*
X232071Y103173D01*
X231367Y102470D01*
X230987Y101551D01*
Y100557D01*
X231367Y99638D01*
X232071Y98934D01*
X232989Y98554D01*
X233984D01*
X234903Y98934D01*
X235606Y99638D01*
X235987Y100557D01*
Y101551D01*
X235606Y102470D01*
X234903Y103173D01*
X233984Y103554D01*
D02*
G37*
G36*
X240496Y103486D02*
X239501D01*
X238582Y103105D01*
X237879Y102402D01*
X237499Y101483D01*
Y100488D01*
X237879Y99570D01*
X238582Y98866D01*
X239501Y98486D01*
X240496D01*
X241415Y98866D01*
X242118Y99570D01*
X242499Y100488D01*
Y101483D01*
X242118Y102402D01*
X241415Y103105D01*
X240496Y103486D01*
D02*
G37*
G36*
X227491D02*
X226497D01*
X225578Y103105D01*
X224874Y102402D01*
X224494Y101483D01*
Y100488D01*
X224874Y99570D01*
X225578Y98866D01*
X226497Y98486D01*
X227491D01*
X228410Y98866D01*
X229113Y99570D01*
X229494Y100488D01*
Y101483D01*
X229113Y102402D01*
X228410Y103105D01*
X227491Y103486D01*
D02*
G37*
G36*
X310696Y103500D02*
X309304D01*
X308017Y102967D01*
X307033Y101982D01*
X306500Y100696D01*
Y99304D01*
X307033Y98017D01*
X308017Y97033D01*
X309304Y96500D01*
X310696D01*
X311983Y97033D01*
X312967Y98017D01*
X313500Y99304D01*
Y100696D01*
X312967Y101982D01*
X311983Y102967D01*
X310696Y103500D01*
D02*
G37*
G36*
X233993Y97009D02*
X232999D01*
X232080Y96628D01*
X231377Y95925D01*
X230996Y95006D01*
Y94011D01*
X231377Y93092D01*
X232080Y92389D01*
X232999Y92009D01*
X233993D01*
X234912Y92389D01*
X235616Y93092D01*
X235996Y94011D01*
Y95006D01*
X235616Y95925D01*
X234912Y96628D01*
X233993Y97009D01*
D02*
G37*
G36*
X300696Y83500D02*
X299304D01*
X298017Y82967D01*
X297033Y81982D01*
X296500Y80696D01*
Y79304D01*
X297033Y78017D01*
X298017Y77033D01*
X299304Y76500D01*
X300696D01*
X301983Y77033D01*
X302967Y78017D01*
X303500Y79304D01*
Y80696D01*
X302967Y81982D01*
X301983Y82967D01*
X300696Y83500D01*
D02*
G37*
G36*
X280696D02*
X279304D01*
X278017Y82967D01*
X277033Y81982D01*
X276500Y80696D01*
Y79304D01*
X277033Y78017D01*
X278017Y77033D01*
X279304Y76500D01*
X280696D01*
X281983Y77033D01*
X282967Y78017D01*
X283500Y79304D01*
Y80696D01*
X282967Y81982D01*
X281983Y82967D01*
X280696Y83500D01*
D02*
G37*
%LPD*%
D14*
X130080Y168461D02*
X137384Y175765D01*
X130080Y162759D02*
Y168461D01*
X137384Y175765D02*
X158681D01*
X108473Y140670D02*
X119960D01*
X120000Y136566D02*
X136821D01*
X119960Y140670D02*
X120000Y140709D01*
X119960Y136606D02*
X120000Y136566D01*
X137413Y135974D02*
X144994D01*
X94631Y140367D02*
X94865D01*
X120000Y140709D02*
X138537D01*
X105685Y143458D02*
X108473Y140670D01*
X136821Y136566D02*
X137413Y135974D01*
X94865Y140367D02*
X97956Y143458D01*
X106789Y136606D02*
X119960D01*
X97956Y143458D02*
X105685D01*
X97661Y135480D02*
X101575Y139394D01*
X104001D02*
X106789Y136606D01*
X101575Y139394D02*
X104001D01*
X139129Y140117D02*
X142339D01*
X142418Y140038D01*
X138537Y140709D02*
X139129Y140117D01*
X144994Y135974D02*
X148997Y139978D01*
X129679Y182321D02*
X152208D01*
X155486Y185599D01*
X128626Y183374D02*
X129679Y182321D01*
X128626Y183374D02*
Y196091D01*
X151923Y70343D02*
X171819Y90239D01*
X52750Y104131D02*
X86537Y70343D01*
X151923D01*
X39750Y113000D02*
X85250Y67500D01*
X155165D02*
X181613Y93948D01*
X85250Y67500D02*
X155165D01*
X52750Y104131D02*
Y113000D01*
X171819Y90239D02*
Y91323D01*
X175057Y94561D01*
X181613Y93948D02*
Y94509D01*
X124731Y91696D02*
Y96308D01*
Y91696D02*
X125735Y90692D01*
X124731Y96308D02*
X148959Y120536D01*
X125735Y79705D02*
X126116Y79325D01*
X125735Y79705D02*
Y90692D01*
X158681Y175765D02*
X161959Y179043D01*
D83*
X277043Y458394D02*
D03*
X94631Y140367D02*
D03*
X97661Y135480D02*
D03*
X343202Y135358D02*
D03*
X183124Y431649D02*
D03*
X226675Y78155D02*
D03*
X65291Y35088D02*
D03*
X262552Y130051D02*
D03*
X155486Y185599D02*
D03*
X128626Y196091D02*
D03*
X322539Y140240D02*
D03*
X315018Y138134D02*
D03*
X270503Y59647D02*
D03*
X323278Y125917D02*
D03*
X316722Y119333D02*
D03*
X113181Y75811D02*
D03*
X221583Y452360D02*
D03*
X105312Y119745D02*
D03*
X155493Y146502D02*
D03*
X121509Y107800D02*
D03*
X175000Y113990D02*
D03*
X187979D02*
D03*
X200984D02*
D03*
X155493Y133498D02*
D03*
X195421Y259843D02*
D03*
X7001Y444516D02*
D03*
X8031Y431344D02*
D03*
X142418Y140038D02*
D03*
X262079Y169643D02*
D03*
Y163478D02*
D03*
X237780Y234273D02*
D03*
X227514Y223354D02*
D03*
X244985Y234894D02*
D03*
X237904Y241230D02*
D03*
X244861Y240981D02*
D03*
X220932Y216026D02*
D03*
X228250Y210500D02*
D03*
Y217000D02*
D03*
X148997Y139978D02*
D03*
X263621Y123880D02*
D03*
X181613Y94509D02*
D03*
X175057Y94561D02*
D03*
X39750Y113000D02*
D03*
X52750D02*
D03*
X126116Y79325D02*
D03*
X148959Y120536D02*
D03*
X161959Y179043D02*
D03*
X130080Y162759D02*
D03*
X187979Y166010D02*
D03*
X207487Y153005D02*
D03*
X200984D02*
D03*
X213989D02*
D03*
X194482D02*
D03*
X175000Y146502D02*
D03*
X181477D02*
D03*
X168498Y153005D02*
D03*
X187979D02*
D03*
X168498Y146502D02*
D03*
X336596Y396467D02*
D03*
X336193Y402452D02*
D03*
X342572Y402630D02*
D03*
X336480Y456118D02*
D03*
X271888Y452734D02*
D03*
X181477Y133498D02*
D03*
X175000Y126995D02*
D03*
Y133498D02*
D03*
X168498Y126995D02*
D03*
X175000Y120493D02*
D03*
X181477D02*
D03*
Y126995D02*
D03*
X168498Y133498D02*
D03*
X187979Y126995D02*
D03*
X213989Y140000D02*
D03*
Y126995D02*
D03*
X220491Y120493D02*
D03*
X207491Y114022D02*
D03*
X213989Y113990D02*
D03*
X187979Y140000D02*
D03*
X194482D02*
D03*
X207487D02*
D03*
X200984D02*
D03*
X207487Y126995D02*
D03*
X200984D02*
D03*
X194482D02*
D03*
X221483Y460149D02*
D03*
X7516Y457998D02*
D03*
X339281Y462390D02*
D03*
X7734Y485166D02*
D03*
X7825Y471376D02*
D03*
M02*
