G04*
G04 #@! TF.GenerationSoftware,Altium Limited,Altium Designer,26.8.1 (31)*
G04*
G04 Layer_Physical_Order=1*
G04 Layer_Color=255*
G04 Board_Origin=4724409|16535433*
%FSLAX44Y44*%
%MOMM*%
G71*
G04*
G04 #@! TF.SameCoordinates,47500F6B-AA3C-44C9-9B31-C918FA8A2740*
G04*
G04*
G04 #@! TF.FilePolarity,Positive*
G04*
G01*
G75*
%ADD12C,0.2540*%
%ADD15C,0.1524*%
%ADD20R,3.2995X0.7010*%
%ADD21R,3.2995X1.5011*%
%ADD22R,0.5994X1.0008*%
%ADD24C,0.2997*%
%ADD25C,0.4500*%
G04:AMPARAMS|DCode=26|XSize=0.25mm|YSize=0.6mm|CornerRadius=0.05mm|HoleSize=0mm|Usage=FLASHONLY|Rotation=180.000|XOffset=0mm|YOffset=0mm|HoleType=Round|Shape=RoundedRectangle|*
%AMROUNDEDRECTD26*
21,1,0.2500,0.5000,0,0,180.0*
21,1,0.1500,0.6000,0,0,180.0*
1,1,0.1000,-0.0750,0.2500*
1,1,0.1000,0.0750,0.2500*
1,1,0.1000,0.0750,-0.2500*
1,1,0.1000,-0.0750,-0.2500*
%
%ADD26ROUNDEDRECTD26*%
G04:AMPARAMS|DCode=27|XSize=0.25mm|YSize=0.6mm|CornerRadius=0.05mm|HoleSize=0mm|Usage=FLASHONLY|Rotation=270.000|XOffset=0mm|YOffset=0mm|HoleType=Round|Shape=RoundedRectangle|*
%AMROUNDEDRECTD27*
21,1,0.2500,0.5000,0,0,270.0*
21,1,0.1500,0.6000,0,0,270.0*
1,1,0.1000,-0.2500,-0.0750*
1,1,0.1000,-0.2500,0.0750*
1,1,0.1000,0.2500,0.0750*
1,1,0.1000,0.2500,-0.0750*
%
%ADD27ROUNDEDRECTD27*%
%ADD28R,0.6502X0.5461*%
%ADD29C,0.1118*%
%ADD31R,3.2995X0.5588*%
%ADD32R,3.2995X1.3005*%
%ADD33R,0.7500X0.7000*%
%ADD34R,0.3250X0.2700*%
%ADD35R,0.9000X0.8000*%
G04:AMPARAMS|DCode=36|XSize=1.3587mm|YSize=0.5868mm|CornerRadius=0.2934mm|HoleSize=0mm|Usage=FLASHONLY|Rotation=180.000|XOffset=0mm|YOffset=0mm|HoleType=Round|Shape=RoundedRectangle|*
%AMROUNDEDRECTD36*
21,1,1.3587,0.0000,0,0,180.0*
21,1,0.7719,0.5868,0,0,180.0*
1,1,0.5868,-0.3859,0.0000*
1,1,0.5868,0.3859,0.0000*
1,1,0.5868,0.3859,0.0000*
1,1,0.5868,-0.3859,0.0000*
%
%ADD36ROUNDEDRECTD36*%
%ADD37R,1.3587X0.5868*%
%ADD38R,0.9051X0.9062*%
%ADD39R,2.2062X1.3549*%
%ADD40R,1.7062X1.1544*%
%ADD41R,0.9582X1.1061*%
%ADD42R,1.1000X1.9000*%
%ADD43R,1.8062X1.3046*%
%ADD44R,1.9990X2.9997*%
%ADD45R,0.2997X1.3005*%
%ADD46R,1.1506X0.9500*%
%ADD47O,0.2794X1.6205*%
%ADD48R,1.4500X1.2500*%
%ADD49C,1.1989*%
%ADD50R,1.6002X0.5994*%
%ADD51R,0.5994X1.6002*%
%ADD52R,0.5153X0.4725*%
%ADD53R,0.4725X0.5153*%
%ADD54R,0.7500X0.9000*%
%ADD55R,0.9000X0.7500*%
%ADD56R,0.9062X0.9051*%
%ADD57R,0.5990X1.6000*%
%ADD92R,4.3002X3.4011*%
%ADD93R,1.3005X0.5994*%
%ADD94R,1.3005X0.2997*%
G04:AMPARAMS|DCode=95|XSize=1.7mm|YSize=1.7mm|CornerRadius=0.051mm|HoleSize=0mm|Usage=FLASHONLY|Rotation=180.000|XOffset=0mm|YOffset=0mm|HoleType=Round|Shape=RoundedRectangle|*
%AMROUNDEDRECTD95*
21,1,1.7000,1.5980,0,0,180.0*
21,1,1.5980,1.7000,0,0,180.0*
1,1,0.1020,-0.7990,0.7990*
1,1,0.1020,0.7990,0.7990*
1,1,0.1020,0.7990,-0.7990*
1,1,0.1020,-0.7990,-0.7990*
%
%ADD95ROUNDEDRECTD95*%
%ADD96C,0.4501*%
%ADD97R,1.0500X0.4000*%
%ADD98R,1.0000X0.4000*%
%ADD99R,0.5994X0.4000*%
%ADD100C,0.5080*%
%ADD101C,0.7620*%
%ADD102C,0.5990*%
%ADD103C,0.5500*%
%ADD104C,0.4000*%
%ADD105C,0.3048*%
%ADD106C,1.0160*%
%ADD107R,14.4670X1.2500*%
%ADD108R,0.7345X4.4009*%
%ADD109R,1.0507X0.4119*%
%ADD110R,1.0036X0.3868*%
%ADD111R,1.5000X5.9009*%
%ADD112R,10.5950X0.8842*%
%ADD113R,2.2600X0.8000*%
%ADD114R,7.3596X2.0934*%
%ADD115R,1.1477X1.2597*%
%ADD116R,0.7682X0.7997*%
%ADD117R,0.6412X1.0850*%
%ADD118R,0.9759X0.6891*%
%ADD119R,1.0719X1.3046*%
%ADD120R,1.1651X0.7620*%
%ADD121R,1.2847X0.7620*%
%ADD122C,0.6000*%
%ADD123O,1.8009X1.1989*%
%ADD124O,1.9990X1.1989*%
%ADD125C,0.5000*%
%ADD126C,1.2000*%
%ADD127R,1.2000X1.2000*%
%ADD128C,1.0000*%
%ADD129C,2.2000*%
%ADD130C,2.6000*%
G36*
X303760Y203057D02*
X316739D01*
Y206054D01*
D01*
Y209052D01*
X303760D01*
Y206054D01*
D01*
Y203057D01*
D01*
D02*
G37*
G36*
X540090Y175309D02*
X527086D01*
Y172311D01*
X527111D01*
Y169314D01*
X540090D01*
Y172311D01*
D01*
Y175309D01*
D01*
D02*
G37*
G36*
Y183310D02*
X527111D01*
Y180312D01*
D01*
Y177315D01*
X540090D01*
Y180312D01*
D01*
Y183310D01*
D01*
D02*
G37*
G36*
X567859Y24666D02*
X567910Y24260D01*
X567986Y23879D01*
X568087Y23498D01*
X568214Y23117D01*
X568341Y22736D01*
X568494Y22380D01*
X568672Y21999D01*
X568875Y21669D01*
X569078Y21313D01*
X569307Y21008D01*
X569561Y20678D01*
X569815Y20373D01*
X570094Y20094D01*
X570373Y19815D01*
X570678Y19561D01*
X570983Y19307D01*
X571313Y19078D01*
X571643Y18875D01*
X571999Y18672D01*
X572355Y18519D01*
X572736Y18341D01*
X573091Y18214D01*
X573472Y18087D01*
X573879Y18011D01*
X574260Y17910D01*
X574666Y17859D01*
Y20754D01*
X574336Y20831D01*
X574031Y20932D01*
X573726Y21034D01*
X573421Y21161D01*
X573142Y21313D01*
X572863Y21491D01*
X572583Y21694D01*
X572355Y21897D01*
X572101Y22101D01*
X571872Y22355D01*
X571669Y22609D01*
X571491Y22863D01*
X571313Y23142D01*
X571161Y23421D01*
X571034Y23726D01*
X570907Y24031D01*
X570831Y24336D01*
X570754Y24666D01*
X567859D01*
D01*
D02*
G37*
G36*
X574666Y33454D02*
X574260Y33404D01*
X573879Y33327D01*
X573498Y33226D01*
X573117Y33099D01*
X572736Y32972D01*
X572355Y32819D01*
X571999Y32642D01*
X571669Y32438D01*
X571313Y32235D01*
X570983Y32007D01*
X570678Y31778D01*
X570373Y31499D01*
X570094Y31245D01*
X569815Y30940D01*
X569561Y30635D01*
X569307Y30330D01*
X569078Y30000D01*
X568875Y29670D01*
X568672Y29314D01*
X568494Y28959D01*
X568341Y28578D01*
X568214Y28222D01*
X568087Y27841D01*
X567986Y27435D01*
X567910Y27054D01*
X567859Y26673D01*
X570754D01*
X570831Y26977D01*
X570932Y27282D01*
X571034Y27587D01*
X571161Y27892D01*
X571313Y28171D01*
X571491Y28451D01*
X571669Y28730D01*
X571872Y28984D01*
X572101Y29213D01*
X572355Y29441D01*
X572583Y29644D01*
X572863Y29822D01*
X573142Y30000D01*
X573421Y30152D01*
X573726Y30279D01*
X574031Y30406D01*
X574336Y30483D01*
X574666Y30559D01*
Y33454D01*
D01*
D02*
G37*
G36*
X576647Y17859D02*
X577054Y17910D01*
X577435Y17986D01*
X577816Y18087D01*
X578197Y18214D01*
X578578Y18341D01*
X578959Y18519D01*
X579314Y18672D01*
X579644Y18875D01*
X580000Y19078D01*
X580330Y19307D01*
X580635Y19561D01*
X580940Y19815D01*
X581219Y20094D01*
X581499Y20373D01*
X581753Y20678D01*
X582007Y20983D01*
X582235Y21313D01*
X582438Y21669D01*
X582642Y21999D01*
X582819Y22380D01*
X582972Y22736D01*
X583099Y23117D01*
X583226Y23498D01*
X583327Y23879D01*
X583404Y24260D01*
X583454Y24666D01*
X580559D01*
X580483Y24336D01*
X580381Y24031D01*
X580279Y23726D01*
X580152Y23421D01*
X580000Y23142D01*
X579822Y22863D01*
X579644Y22609D01*
X579441Y22355D01*
X579213Y22101D01*
X578959Y21897D01*
X578730Y21694D01*
X578451Y21491D01*
X578171Y21313D01*
X577892Y21161D01*
X577587Y21034D01*
X577282Y20932D01*
X576977Y20831D01*
X576647Y20754D01*
Y17859D01*
D01*
D02*
G37*
G36*
X583454Y26673D02*
X583404Y27054D01*
X583327Y27435D01*
X583226Y27841D01*
X583099Y28222D01*
X582972Y28578D01*
X582819Y28959D01*
X582642Y29314D01*
X582438Y29670D01*
X582235Y30000D01*
X582007Y30330D01*
X581753Y30635D01*
X581499Y30940D01*
X581219Y31245D01*
X580940Y31499D01*
X580635Y31778D01*
X580330Y32007D01*
X580000Y32235D01*
X579644Y32438D01*
X579314Y32642D01*
X578959Y32819D01*
X578578Y32972D01*
X578197Y33099D01*
X577816Y33226D01*
X577435Y33327D01*
X577054Y33404D01*
X576647Y33454D01*
Y30559D01*
X576977Y30483D01*
X577282Y30406D01*
X577587Y30279D01*
X577892Y30152D01*
X578171Y30000D01*
X578451Y29822D01*
X578730Y29644D01*
X578959Y29441D01*
X579213Y29213D01*
X579441Y28984D01*
X579644Y28730D01*
X579822Y28451D01*
X580000Y28171D01*
X580152Y27892D01*
X580279Y27587D01*
X580381Y27282D01*
X580483Y26977D01*
X580559Y26673D01*
X583454D01*
D01*
D02*
G37*
G36*
X485000Y358148D02*
X485025Y358123D01*
X482815Y355913D01*
X473687D01*
Y331893D01*
X466723D01*
X465909Y332707D01*
X465563Y332850D01*
Y333326D01*
X461233D01*
X458122Y342174D01*
Y368788D01*
X459333Y370000D01*
X485000D01*
Y358148D01*
D02*
G37*
G36*
X565000Y320000D02*
X562318D01*
X561764Y320554D01*
X560478Y321086D01*
X559086D01*
X557799Y320554D01*
X557245Y320000D01*
X554509D01*
X554141Y320153D01*
X552748D01*
X552379Y320000D01*
X550000D01*
X540000Y310000D01*
X541714Y308286D01*
Y306213D01*
X541500Y305696D01*
Y304304D01*
X541714Y303787D01*
Y290141D01*
X540000Y286683D01*
Y283176D01*
X532089D01*
X532067Y283185D01*
X530675D01*
X530654Y283176D01*
X528176D01*
X505000Y260000D01*
X460000D01*
Y265000D01*
X455000Y270000D01*
Y275000D01*
X490000D01*
X490169Y296500D01*
X490446D01*
X491733Y297033D01*
X492717Y298017D01*
X493050Y298820D01*
X520000Y300000D01*
Y324189D01*
X490186Y324679D01*
X490000Y345000D01*
X565000D01*
Y320000D01*
D02*
G37*
G36*
X596493Y299278D02*
X595944Y299827D01*
X593739Y300740D01*
X591352D01*
X589147Y299827D01*
X587459Y298139D01*
X586978Y296978D01*
X585000Y295000D01*
X580000D01*
Y310000D01*
X570000Y320000D01*
Y335000D01*
X596354D01*
X596493Y335139D01*
Y299278D01*
D02*
G37*
G36*
X316739Y214056D02*
X316764D01*
Y211058D01*
X303760D01*
Y214056D01*
Y217053D01*
X316739D01*
Y214056D01*
D02*
G37*
G36*
X374877Y559985D02*
Y541366D01*
X376297Y538660D01*
X370298D01*
X371624Y541366D01*
Y558695D01*
X361487Y565318D01*
Y569326D01*
X374877Y559985D01*
D02*
G37*
G36*
X366274Y534330D02*
X357064Y525120D01*
X245000D01*
Y540000D01*
X366274D01*
Y534330D01*
D02*
G37*
G36*
X600000Y538977D02*
Y523964D01*
X388118D01*
X387507Y524575D01*
Y539944D01*
X598922Y540054D01*
X600000Y538977D01*
D02*
G37*
%LPC*%
G36*
X540321Y343502D02*
X530821D01*
Y332502D01*
X540321D01*
Y335964D01*
X540888Y336531D01*
X541421Y337817D01*
Y339210D01*
X540888Y340496D01*
X540321Y341064D01*
Y343502D01*
D02*
G37*
G36*
X536997Y296550D02*
X525997D01*
Y288375D01*
X525696Y288500D01*
X524304D01*
X523017Y287967D01*
X522033Y286982D01*
X521500Y285696D01*
Y284304D01*
X522033Y283017D01*
X523017Y282033D01*
X524304Y281500D01*
X525696D01*
X526982Y282033D01*
X527967Y283017D01*
X528500Y284304D01*
Y285696D01*
X527967Y286982D01*
X527900Y287050D01*
X536997D01*
Y296550D01*
D02*
G37*
G36*
X473196Y273500D02*
X471804D01*
X470517Y272967D01*
X469533Y271982D01*
X469000Y270696D01*
Y269304D01*
X469533Y268017D01*
X470517Y267033D01*
X471804Y266500D01*
X473196D01*
X474482Y267033D01*
X475467Y268017D01*
X476000Y269304D01*
Y270696D01*
X475467Y271982D01*
X474482Y272967D01*
X473196Y273500D01*
D02*
G37*
G36*
X498558Y273449D02*
X497166D01*
X497104Y273423D01*
X493959D01*
Y266699D01*
X496563D01*
X497166Y266449D01*
X498558D01*
X499161Y266699D01*
X501113D01*
Y268650D01*
X501362Y269253D01*
Y270645D01*
X501113Y271248D01*
Y273423D01*
X498620D01*
X498558Y273449D01*
D02*
G37*
G36*
X490711D02*
X489319D01*
X489257Y273423D01*
X486388D01*
Y266699D01*
X488716D01*
X489319Y266449D01*
X490711D01*
X491314Y266699D01*
X493541D01*
Y273423D01*
X490773D01*
X490711Y273449D01*
D02*
G37*
%LPD*%
D12*
X360060Y532740D02*
Y540329D01*
X338830Y535000D02*
Y541673D01*
X360060Y540329D02*
X361404Y541673D01*
X127730Y502270D02*
X150000Y480000D01*
X43767Y478767D02*
Y589643D01*
X205000Y385577D02*
X222270Y402846D01*
X205000Y374707D02*
Y385577D01*
X145000Y385000D02*
X162270Y402270D01*
X145000Y374707D02*
Y385000D01*
X162270Y402270D02*
Y417153D01*
X85000Y374707D02*
Y385577D01*
X102270Y402846D01*
X187730Y502270D02*
X210000Y480000D01*
X150000Y465000D02*
X163767Y478767D01*
X150000Y429423D02*
Y465000D01*
X163767Y478767D02*
Y589643D01*
X150000Y429423D02*
X162270Y417153D01*
X7730Y502270D02*
X30000Y480000D01*
X67730Y502270D02*
X90000Y480000D01*
X103767Y478767D02*
Y589643D01*
X32730Y432270D02*
X42270Y422730D01*
X32730Y432270D02*
Y467730D01*
X43767Y478767D01*
X5000Y330013D02*
Y414423D01*
X9998Y419421D01*
X5000Y330013D02*
X12008Y323005D01*
X65000Y414423D02*
X69998Y419421D01*
X66488Y325240D02*
X82765D01*
X65000Y326728D02*
X66488Y325240D01*
X65000Y326728D02*
Y414423D01*
X125000Y326728D02*
X126488Y325240D01*
X125000Y414423D02*
X130000Y419423D01*
X126488Y325240D02*
X142765D01*
X125000Y326728D02*
Y414423D01*
X185000D02*
X190000Y419423D01*
X186488Y325240D02*
X202765D01*
X185000Y326728D02*
X186488Y325240D01*
X185000Y326728D02*
Y414423D01*
X202765Y325240D02*
X205000Y323005D01*
X142765Y325240D02*
X145000Y323005D01*
X82765Y325240D02*
X85000Y323005D01*
X190000Y419423D02*
Y440126D01*
X130000Y419423D02*
Y440126D01*
X69998Y419421D02*
Y440126D01*
X12008Y323005D02*
X25000D01*
X9998Y419421D02*
Y440126D01*
X223767Y478767D02*
Y589643D01*
X210000Y429423D02*
Y465000D01*
X223767Y478767D01*
X92730Y426693D02*
Y467730D01*
X103767Y478767D01*
X42270Y402846D02*
Y422730D01*
X210000Y429423D02*
X222270Y417153D01*
Y402846D02*
Y417153D01*
X102270Y402846D02*
Y417153D01*
X92730Y426693D02*
X102270Y417153D01*
X25000Y374707D02*
Y385577D01*
X42270Y402846D01*
X127730Y502270D02*
Y542730D01*
X145000Y560000D02*
Y565293D01*
X127730Y542730D02*
X145000Y560000D01*
X205000Y559557D02*
Y565293D01*
X187730Y542287D02*
X205000Y559557D01*
X187730Y502270D02*
Y542287D01*
X7730Y502270D02*
Y537154D01*
X85000Y559557D02*
Y565293D01*
X67730Y542287D02*
X85000Y559557D01*
X7730Y537154D02*
X25000Y554423D01*
Y565293D01*
X67730Y502270D02*
Y542287D01*
X218703Y594707D02*
X223767Y589643D01*
X205000Y594707D02*
X218703D01*
X158703D02*
X163767Y589643D01*
X145000Y594707D02*
X158703D01*
X98703D02*
X103767Y589643D01*
X85000Y594707D02*
X98703D01*
X38703D02*
X43767Y589643D01*
X25000Y594707D02*
X38703D01*
X495699Y204301D02*
X499142D01*
X493095Y206905D02*
X495699Y204301D01*
D15*
X345000Y210000D02*
X348690Y206310D01*
Y198426D02*
X351432Y195684D01*
X348690Y198426D02*
Y206310D01*
X351432Y195684D02*
X352753D01*
X340000Y210000D02*
X345000D01*
X349921Y235743D02*
X361913D01*
X258464Y484916D02*
X263379Y480000D01*
X265825Y479175D02*
X277211D01*
X263379Y480000D02*
X265000D01*
X265825Y479175D01*
X259245Y470184D02*
X277211D01*
X258193Y457876D02*
X261068Y460750D01*
X270000D01*
X257979Y457876D02*
X258193D01*
X439016Y88855D02*
X439304D01*
X438894Y82698D02*
X441196Y85000D01*
X403008D02*
X404769Y86762D01*
X436923D01*
X439016Y88855D01*
X406453Y82698D02*
X438894D01*
X404032Y80277D02*
X406453Y82698D01*
X441196Y85000D02*
X443684Y87488D01*
X394592Y80277D02*
X404032D01*
X416270Y92735D02*
Y93239D01*
X415000Y94509D02*
X416270Y93239D01*
X443684Y87488D02*
Y90706D01*
X412723Y66998D02*
Y67780D01*
X402244Y71136D02*
X409367D01*
X412723Y67780D01*
X402547Y59547D02*
X403306Y60306D01*
Y66171D01*
X403562Y66427D01*
X397500Y59500D02*
X397968Y59968D01*
Y66860D02*
X402244Y71136D01*
X397968Y59968D02*
Y66860D01*
X443684Y90706D02*
X447487Y94509D01*
X421477D02*
X421613D01*
X453447Y85000D02*
X453585Y85139D01*
X446171Y77724D02*
X453447Y85000D01*
X400637Y73660D02*
X447854D01*
X454194Y80000D01*
X398953Y77724D02*
X446171D01*
X393585Y72356D02*
X398953Y77724D01*
X395268Y68292D02*
X400637Y73660D01*
X375179Y68394D02*
X380197Y73412D01*
X387500Y59500D02*
X388103Y60103D01*
X380197Y73412D02*
X386414D01*
X387541Y85000D02*
Y85000D01*
X372245Y71207D02*
X378514Y77476D01*
X384730D01*
X387541Y84194D02*
Y85000D01*
X383685Y80000D02*
X386182Y82497D01*
X390610Y68292D02*
X395268D01*
X383035Y66463D02*
X388927Y72356D01*
X375660Y80000D02*
X383685D01*
X389195Y74880D02*
X394592Y80277D01*
X384730Y77476D02*
X386198Y78944D01*
X370660Y85000D02*
X375660Y80000D01*
X386198Y78944D02*
X387511D01*
X386414Y73412D02*
X387881Y74880D01*
X388103Y60103D02*
Y65784D01*
X387511Y78944D02*
X392909Y84341D01*
X383035Y56996D02*
Y66463D01*
X386182Y82836D02*
X387541Y84194D01*
X388927Y72356D02*
X393585D01*
X387881Y74880D02*
X389195D01*
X386182Y82497D02*
Y82836D01*
X388103Y65784D02*
X390610Y68292D01*
X293859Y445563D02*
X294428Y444993D01*
X293859Y445563D02*
Y448083D01*
X304440Y425002D02*
X321686Y407756D01*
X304440Y425002D02*
Y472503D01*
X284390Y450000D02*
X291942D01*
X288102Y488841D02*
X304440Y472503D01*
X291942Y450000D02*
X293859Y448083D01*
X362540Y192460D02*
X363876Y191124D01*
X355976Y192460D02*
X362540D01*
X363876Y191124D02*
X370626D01*
X352753Y195684D02*
X355976Y192460D01*
X361913Y235743D02*
X366017Y231640D01*
X259868Y444410D02*
X275985D01*
X259861Y444403D02*
X259868Y444410D01*
X259861Y444111D02*
Y444403D01*
X282215Y452175D02*
X284390Y450000D01*
X277211Y452175D02*
X282215D01*
X277386Y425000D02*
X287415D01*
X337482Y195927D02*
X340000Y193409D01*
X341652D02*
X344149Y190912D01*
X336677Y195927D02*
X337482D01*
X340000Y193409D02*
X341652D01*
X344149Y190912D02*
X349167D01*
X347465Y193833D02*
X349714D01*
X344362Y196936D02*
X347465Y193833D01*
X344153Y196936D02*
X344362D01*
X362317Y196472D02*
X368626D01*
X280643Y54469D02*
X307544D01*
X323569Y70493D02*
Y88618D01*
X307544Y54469D02*
X323569Y70493D01*
X295077Y50077D02*
X322593D01*
X323722Y51205D02*
X327245D01*
X322234Y39242D02*
X324759Y41767D01*
Y42794D01*
X327992Y46027D01*
X327245Y51205D02*
X327815Y51775D01*
X322593Y50077D02*
X323722Y51205D01*
X376218Y176948D02*
Y181128D01*
X378958Y175212D02*
X381683Y172487D01*
X372805Y158355D02*
X372811Y158349D01*
X374012Y168887D02*
X377851Y165049D01*
X370238Y175790D02*
X372805Y173222D01*
X374012Y172015D01*
X367170Y163990D02*
X372805Y158355D01*
X376218Y176948D02*
X377955Y175212D01*
X367170Y163990D02*
Y164998D01*
X376536Y171961D02*
X382488Y166010D01*
X353344Y175790D02*
X370238D01*
X376536Y171961D02*
Y173060D01*
X373297Y176300D02*
Y179918D01*
X377955Y175212D02*
X378958D01*
X362290Y169878D02*
X367170Y164998D01*
X374012Y168887D02*
Y172015D01*
X350153Y169878D02*
X362290D01*
X373297Y176300D02*
X376536Y173060D01*
X381683Y172487D02*
X382488D01*
X372811Y158349D02*
X377404D01*
X286229Y41229D02*
X295077Y50077D01*
X334778Y9690D02*
Y51172D01*
X360633Y77027D01*
X372559Y112160D02*
Y115484D01*
X382430Y120435D02*
X382488Y120493D01*
X372559Y115484D02*
X377511Y120435D01*
X382430D01*
X353784Y56216D02*
X359387Y50613D01*
X353784Y64417D02*
X360628Y71260D01*
X353784Y56216D02*
Y64417D01*
X363118Y120445D02*
X363447Y120774D01*
X358911Y120445D02*
X363118D01*
X355774Y117308D02*
X358911Y120445D01*
X348596Y97507D02*
Y101379D01*
Y97507D02*
X352188Y93915D01*
X362512D01*
X352913Y89205D02*
X360945D01*
X350317Y86608D02*
X352913Y89205D01*
X348596Y101379D02*
X350356Y103139D01*
Y126792D01*
X332079Y99671D02*
X338797Y92953D01*
X343649Y86608D02*
X350317D01*
X338797Y91461D02*
X343649Y86608D01*
X338797Y91461D02*
Y92953D01*
X350062Y169969D02*
X350153Y169878D01*
X349714Y193833D02*
X350387Y193160D01*
X351050D02*
X352183Y192027D01*
X350387Y193160D02*
X351050D01*
X349167Y190912D02*
X350973Y189106D01*
X350172Y186185D02*
X352245Y184112D01*
X348545Y187403D02*
X349763Y186185D01*
X352183Y192027D02*
X352840D01*
X356717Y188151D01*
X349763Y186185D02*
X350172D01*
X345291Y187403D02*
X348545D01*
X335526Y145500D02*
Y167496D01*
X343276Y167159D02*
X347252Y163183D01*
X348286D02*
X348830Y162639D01*
X347252Y163183D02*
X348286D01*
X339014Y170984D02*
Y171500D01*
X348297Y165707D02*
X349893D01*
X350040Y165560D01*
X348689Y177162D02*
X351579Y180052D01*
X345800Y168204D02*
X348297Y165707D01*
X335526Y167496D02*
X339014Y170984D01*
X343276Y167159D02*
Y172780D01*
X351886Y180052D02*
X352245Y180411D01*
X345291Y174795D02*
Y177403D01*
X345800Y168204D02*
Y171735D01*
X348689Y174624D02*
Y177162D01*
X345800Y171735D02*
X348689Y174624D01*
X351579Y180052D02*
X351886D01*
X343276Y172780D02*
X345291Y174795D01*
X351408Y131450D02*
X351978Y132020D01*
X351408Y127845D02*
Y131450D01*
X370000Y134195D02*
X372805Y131390D01*
Y129698D02*
Y131390D01*
X370000Y134195D02*
Y135000D01*
X372805Y129698D02*
X375512Y126991D01*
X377349Y131272D02*
Y131869D01*
X375512Y126991D02*
X382484D01*
X374439Y134779D02*
X377349Y131869D01*
X374439Y134779D02*
Y136998D01*
X372175Y139262D02*
X374439Y136998D01*
X335526Y145500D02*
X341764Y139262D01*
X372175D01*
X355359Y110188D02*
X355774Y110603D01*
Y117308D01*
X377851Y164080D02*
Y165049D01*
X382424Y159507D02*
X382488D01*
X360363Y152377D02*
Y158739D01*
X358364Y160738D02*
X360363Y158739D01*
X377851Y164080D02*
X382424Y159507D01*
X350040Y165560D02*
X353413D01*
X358235Y160738D02*
X358364D01*
X353413Y165560D02*
X358235Y160738D01*
X374551Y46423D02*
Y47228D01*
X377294Y49971D02*
Y58266D01*
X374551Y47228D02*
X377294Y49971D01*
X402348Y84341D02*
X403008Y85000D01*
X400686Y88353D02*
X401492D01*
X405261Y91272D02*
X408498Y94509D01*
X392909Y84341D02*
X402348D01*
X401492Y88353D02*
X404410Y91272D01*
X405261D01*
X396758Y90099D02*
X399240Y92582D01*
X399263D02*
X401190Y94509D01*
X401995D01*
X380774Y90099D02*
X396758D01*
X399240Y92582D02*
X399263D01*
X363045Y47152D02*
Y57482D01*
Y47152D02*
X365481Y44716D01*
X393024Y58976D02*
X393090Y58910D01*
X365481Y43911D02*
Y44716D01*
X363045Y57482D02*
X363781Y58219D01*
X393090Y48589D02*
X393138Y48541D01*
X393090Y48589D02*
Y58910D01*
X360628Y71260D02*
X360894D01*
X374770Y63743D02*
Y64770D01*
X375179Y65179D01*
X366655Y68710D02*
X369152Y71207D01*
X366655Y65179D02*
Y68710D01*
X367312Y59688D02*
Y64523D01*
X365546Y75913D02*
Y78755D01*
X372500Y59500D02*
Y61473D01*
X369152Y71207D02*
X372245D01*
X375179Y65179D02*
Y68394D01*
X372500Y61473D02*
X374770Y63743D01*
X360894Y71260D02*
X365546Y75913D01*
X366655Y65179D02*
X367312Y64523D01*
Y59688D02*
X367500Y59500D01*
X390997Y9168D02*
X498394D01*
X359387Y40778D02*
X390997Y9168D01*
X359387Y40778D02*
Y50613D01*
X316017Y39242D02*
X322234D01*
X313366Y41893D02*
X316017Y39242D01*
X301439Y41893D02*
X313366D01*
X298915Y39369D02*
X301439Y41893D01*
X365546Y78755D02*
X366116Y79325D01*
X323339Y304578D02*
X324939Y306179D01*
X319079Y304578D02*
X323339D01*
X314500Y300000D02*
X319079Y304578D01*
X325000Y311614D02*
Y324000D01*
X338250Y337250D01*
X383750D01*
X344750Y412000D02*
X345314Y412564D01*
X349286D01*
X371859Y309022D02*
X386038D01*
X357230Y323651D02*
X371859Y309022D01*
X341115Y323651D02*
X357230D01*
X387280Y470184D02*
X397201D01*
X380640Y427007D02*
Y432629D01*
X371044Y423032D02*
X376665D01*
X363235Y426512D02*
X367564D01*
X371044Y423032D01*
X376665D02*
X380640Y427007D01*
X349286Y412564D02*
X363235Y426512D01*
X378405Y461309D02*
X387280Y470184D01*
X378405Y434864D02*
Y461309D01*
Y434864D02*
X380640Y432629D01*
X334971Y504931D02*
X337206Y507166D01*
Y512170D01*
X332990Y497990D02*
X334971Y499971D01*
Y504931D01*
X332990Y480693D02*
Y497990D01*
X335000Y477696D02*
Y478683D01*
X332990Y480693D02*
X335000Y478683D01*
X357511Y439742D02*
X361501Y443731D01*
X340341Y410174D02*
Y420326D01*
X342924Y422909D01*
X340341Y410174D02*
X346685Y403829D01*
X353181D01*
X351382Y422874D02*
X357511Y429003D01*
X346576Y422909D02*
X346612Y422874D01*
X351382D01*
X357511Y429003D02*
Y439742D01*
X342924Y422909D02*
X346576D01*
X361501Y443731D02*
Y464734D01*
X448750Y464000D02*
X449320Y464570D01*
Y466259D01*
X453979Y470918D01*
X454193D01*
X335000Y477696D02*
X347342Y465354D01*
X361501D01*
X357788Y188188D02*
X369431D01*
X370606Y187013D01*
X371016D01*
X374379Y183650D01*
Y182967D02*
X376218Y181128D01*
X374379Y182967D02*
Y183650D01*
X357750Y188151D02*
X357788Y188188D01*
X356717Y188151D02*
X357750D01*
X377300Y184177D02*
X382488Y178989D01*
X371816Y189934D02*
X372226D01*
X377300Y184860D01*
Y184177D02*
Y184860D01*
X370626Y191124D02*
X371816Y189934D01*
X423777Y419795D02*
X429021Y425039D01*
X416843Y419795D02*
X423777D01*
X429021Y425039D02*
X433993D01*
X411575Y425063D02*
X416843Y419795D01*
X411575Y425063D02*
Y425571D01*
X406307Y430839D02*
X411575Y425571D01*
X405532Y430839D02*
X406307D01*
X402205Y434166D02*
X405532Y430839D01*
X397201Y434166D02*
X402205D01*
X388306Y475340D02*
X388362D01*
X392197Y479175D01*
X397201D01*
X344750Y418500D02*
X351250D01*
X375881Y462915D02*
X388306Y475340D01*
X361786Y429036D02*
X368609D01*
X375620Y425556D02*
X378116Y428053D01*
X368609Y429036D02*
X372089Y425556D01*
X378116Y428053D02*
Y431584D01*
X372089Y425556D02*
X375620D01*
X351250Y418500D02*
X361786Y429036D01*
X375881Y433819D02*
Y462915D01*
Y433819D02*
X378116Y431584D01*
X397201Y488167D02*
X406833D01*
X410000Y485000D01*
X491592Y406254D02*
Y454837D01*
Y406254D02*
X493071Y404775D01*
X491429Y455000D02*
X494050Y457621D01*
X491429Y455000D02*
X491592Y454837D01*
X535738Y464262D02*
X545000Y455000D01*
Y408363D02*
Y455000D01*
X492591Y468279D02*
X497967Y462903D01*
X494050Y457621D02*
Y458975D01*
X491426Y470798D02*
X492591Y469633D01*
Y468279D02*
Y469633D01*
X494050Y458975D02*
X497977Y462903D01*
X504192D01*
X497967D02*
X497977D01*
X504192D02*
X505551Y464262D01*
X535738D01*
X410000Y470529D02*
Y485000D01*
X440966Y172487D02*
X440984D01*
X440966Y172433D02*
Y172487D01*
X452776Y45607D02*
Y58229D01*
X438110Y48627D02*
Y58890D01*
X434482Y178876D02*
Y178989D01*
X434410Y178876D02*
X434482D01*
Y172487D02*
X440966D01*
X423055Y48516D02*
Y58861D01*
X408033Y48589D02*
Y58678D01*
X316268Y150035D02*
X321205D01*
X553472Y311528D02*
Y316625D01*
Y311528D02*
X553500Y311500D01*
X553444Y316653D02*
X553472Y316625D01*
X509650Y204650D02*
X510000Y205000D01*
X506241Y204650D02*
X509650D01*
X505891Y204301D02*
X506241Y204650D01*
X506006Y101589D02*
X507607Y103189D01*
X507821D01*
X506006Y99660D02*
Y101589D01*
X505277Y98930D02*
X506006Y99660D01*
X505277Y98125D02*
Y98930D01*
X455257Y42320D02*
Y43126D01*
X452776Y45607D02*
X455257Y43126D01*
X438059Y58941D02*
X438110Y58890D01*
Y48627D02*
X438170Y48568D01*
X434482Y178876D02*
X434502Y178856D01*
X434482Y172487D02*
X434502Y172507D01*
Y178856D01*
X427979Y172487D02*
X434482D01*
X277211Y425175D02*
X277386Y425000D01*
X337091Y182403D02*
X338541D01*
X434482Y166010D02*
Y172487D01*
Y166010D02*
X440984D01*
X423055Y58861D02*
X423097Y58903D01*
X423055Y48516D02*
X423071Y48500D01*
X408033Y58678D02*
X408038Y58684D01*
X408033Y48589D02*
X408038Y48584D01*
X388369Y531631D02*
X393356Y526644D01*
X381712Y531631D02*
X388369D01*
X392197Y452175D02*
X397201D01*
X385578Y445549D02*
Y445556D01*
X392197Y452175D01*
X328215Y498214D02*
Y512170D01*
X315000Y485000D02*
X328215Y498214D01*
X559782Y316781D02*
Y317586D01*
X558988Y315987D02*
X559782Y316781D01*
X558988Y311988D02*
Y315987D01*
X558500Y311500D02*
X558988Y311988D01*
X315000Y460000D02*
Y485000D01*
X287510Y488841D02*
X288102D01*
X278478Y489433D02*
X287510D01*
X277211Y488167D02*
X278478Y489433D01*
X337511Y367489D02*
X346219D01*
X333749Y371251D02*
X337511Y367489D01*
X364276Y185268D02*
X368221D01*
X364238Y185230D02*
X364276Y185268D01*
X355507Y185230D02*
X364238D01*
X351630Y189106D02*
X355507Y185230D01*
X350973Y189106D02*
X351630D01*
X368221Y185268D02*
X369397Y184092D01*
X369806D01*
X371458Y182440D01*
Y181758D02*
Y182440D01*
Y181758D02*
X373297Y179918D01*
X275985Y444410D02*
X277211Y443183D01*
X258188Y430899D02*
X258197Y430890D01*
X258188Y430899D02*
Y430945D01*
X377404Y158349D02*
X382488Y153265D01*
X258197Y430955D02*
X259732Y432490D01*
X264154D01*
X265830Y434166D01*
X277211D01*
X382488Y153005D02*
Y153265D01*
X300758Y391724D02*
X301214Y392180D01*
X300758Y375167D02*
Y391724D01*
Y367258D02*
Y375167D01*
X292500Y359000D02*
X300758Y367258D01*
X292500Y355000D02*
Y359000D01*
X342689Y429497D02*
X343945Y430753D01*
X344750D01*
X340195Y429497D02*
X342689D01*
X330678Y419981D02*
X340195Y429497D01*
X330678Y400312D02*
Y419981D01*
X330450Y400083D02*
X330678Y400312D01*
X330450Y394415D02*
Y400083D01*
X328215Y392180D02*
X330450Y394415D01*
X345458Y425433D02*
X352310Y432285D01*
X341878Y425433D02*
X345458D01*
X334742Y418298D02*
X341878Y425433D01*
X352310Y432285D02*
Y445000D01*
X334742Y400312D02*
Y418298D01*
X334971Y394415D02*
Y400083D01*
X334742Y400312D02*
X334971Y400083D01*
Y394415D02*
X337206Y392180D01*
X547734Y497766D02*
Y501391D01*
Y497766D02*
X550000Y495500D01*
X449152Y473404D02*
X450968Y475220D01*
X458423D01*
X550000Y473404D02*
X588650D01*
X550000D02*
Y495500D01*
X546113Y473404D02*
X550000D01*
X458423Y475220D02*
Y475297D01*
X448404Y473404D02*
X449152D01*
X501842Y475144D02*
X503347Y473639D01*
X501842Y475144D02*
Y475297D01*
X503455Y473531D02*
X546025D01*
X458423Y475297D02*
X501842D01*
X546112Y130923D02*
Y141112D01*
X549651Y144651D01*
X552081D01*
X561609Y154178D01*
X565708D01*
X565708Y154178D02*
X569301Y150585D01*
X565708Y154178D02*
X565708Y154178D01*
X578060Y150585D02*
X589897D01*
X569301Y150585D02*
X578060D01*
X578060Y150585D01*
X438101Y461491D02*
X440722Y464112D01*
X437920Y461096D02*
X438101Y461277D01*
X440722Y464112D02*
X441383D01*
X438101Y461277D02*
Y461491D01*
X441383Y464112D02*
X446228Y468957D01*
X397201Y461167D02*
X397271Y461096D01*
X446228Y471228D02*
X448404Y473404D01*
X446228Y468957D02*
Y471228D01*
X383750Y337250D02*
X396750Y350250D01*
Y386000D02*
X426000Y415250D01*
X396750Y350250D02*
Y386000D01*
X438101Y459636D02*
Y461277D01*
X437946Y452159D02*
Y459481D01*
X438101Y459636D01*
X397271Y461096D02*
X437920D01*
X588650Y473404D02*
X600000Y462054D01*
Y160688D02*
Y462054D01*
X589897Y150585D02*
X600000Y160688D01*
X279447Y494949D02*
X304893D01*
X277211Y497184D02*
X279447Y494949D01*
X257798Y497184D02*
X277211D01*
X257703Y497280D02*
X257798Y497184D01*
X304893Y494949D02*
X308383Y491459D01*
X310206Y376049D02*
Y392180D01*
Y376049D02*
X311132Y375123D01*
Y365368D02*
Y375123D01*
Y365368D02*
X317500Y359000D01*
Y355000D02*
Y359000D01*
X250500Y493250D02*
X255414Y488336D01*
Y487537D02*
Y488336D01*
Y487537D02*
X258035Y484916D01*
X258249D01*
X420310Y425039D02*
Y425253D01*
X418709Y426854D02*
X420310Y425253D01*
X417355Y426854D02*
X418709D01*
X411831Y432378D02*
X417355Y426854D01*
X411831Y432378D02*
Y434306D01*
X405189Y440948D02*
X411831Y434306D01*
X399436Y440948D02*
X405189D01*
X397201Y443183D02*
X399436Y440948D01*
X382667Y436629D02*
X386986Y440948D01*
X394966D01*
X397201Y443183D01*
X372559Y112160D02*
X373992Y110727D01*
Y105588D02*
Y110727D01*
X332254Y5901D02*
Y77431D01*
X339527Y84704D01*
X362512Y93915D02*
X367314Y89113D01*
X369547Y94021D02*
Y101143D01*
X360945Y89205D02*
X363980Y86170D01*
X367314Y89113D02*
X368262D01*
X370213D01*
X363980Y86170D02*
X368262D01*
X369491D02*
X370660Y85000D01*
X368262Y86170D02*
X369491D01*
X370213Y89113D02*
X373338Y85988D01*
X376662D02*
X380774Y90099D01*
X373338Y85988D02*
X376662D01*
X369547Y101143D02*
X373992Y105588D01*
X332254Y5901D02*
X334035Y4120D01*
X532945D01*
X553464Y20714D02*
X555000Y22250D01*
X549539Y20714D02*
X553464D01*
X532945Y4120D02*
X549539Y20714D01*
X375000Y469194D02*
Y470000D01*
X373357Y430315D02*
Y467552D01*
X375000Y469194D01*
X365000Y375000D02*
X386604D01*
X391344Y379741D01*
X373357Y430315D02*
X373854Y429818D01*
X298769Y321372D02*
X299405Y322009D01*
X309736D01*
X534600Y107402D02*
X543716D01*
X544939Y106179D01*
X534600Y127402D02*
X538652Y123351D01*
X546112D01*
X382484Y126991D02*
X382488Y126995D01*
X366166Y356750D02*
X367458D01*
X366083Y356668D02*
X366166Y356750D01*
X368616Y355592D02*
X379408D01*
X380237Y355237D02*
X381363Y356363D01*
X380237Y355237D02*
X380473Y355000D01*
X379500Y355500D02*
X380500D01*
X379408Y355592D02*
X379500Y355500D01*
X367458Y356750D02*
X368616Y355592D01*
X366219Y357989D02*
X367458Y356750D01*
X381363Y356363D02*
Y369022D01*
X453585Y85139D02*
Y86401D01*
X449351Y87872D02*
X452114D01*
X453989Y94509D02*
X454291Y94207D01*
X454194Y80000D02*
X457649Y83455D01*
X454291Y91443D02*
Y94207D01*
Y91443D02*
X457649Y88085D01*
X449049Y88174D02*
X449351Y87872D01*
X457649Y83455D02*
Y88085D01*
X452114Y87872D02*
X453585Y86401D01*
X486182Y61182D02*
X498315D01*
X485000Y60000D02*
X486182Y61182D01*
X472061Y48514D02*
X483547Y60000D01*
X485000D01*
X470621Y48514D02*
X472061D01*
X470441Y48335D02*
X470621Y48514D01*
X465656Y48335D02*
X470441D01*
X442627Y39836D02*
X470772Y11692D01*
X472763Y14216D02*
X496303D01*
X337824Y6644D02*
X517915D01*
X470772Y11692D02*
X497349D01*
X502655Y44559D02*
X503076Y44980D01*
X501338Y15907D02*
X502655Y17225D01*
X498394Y9168D02*
X503862Y14636D01*
X502655Y17225D02*
Y44559D01*
X497349Y11692D02*
X501338Y15682D01*
X334778Y9690D02*
X337824Y6644D01*
X499044Y49897D02*
X506125D01*
X497058Y52349D02*
Y56203D01*
X498814Y49667D02*
X499044Y49897D01*
X503862Y14636D02*
Y14862D01*
X465649Y21330D02*
Y39661D01*
X496303Y14216D02*
X498814Y16727D01*
Y49667D01*
X497058Y52349D02*
X498814Y50594D01*
X501338Y15682D02*
Y15907D01*
X503862Y14862D02*
X514000Y25000D01*
X496489Y56772D02*
X497058Y56203D01*
X517915Y6644D02*
X536033Y24762D01*
X498814Y49667D02*
Y50594D01*
X465649Y21330D02*
X472763Y14216D01*
X487657Y109843D02*
Y121969D01*
X352245Y180411D02*
Y184112D01*
X466078Y88788D02*
X466536Y89246D01*
Y94051D02*
X466994Y94509D01*
X466536Y89246D02*
Y94051D01*
X299813Y166211D02*
X301474Y164551D01*
X297527Y166211D02*
X299813D01*
X299515Y174921D02*
X309900D01*
X299152Y175283D02*
X299515Y174921D01*
X309900D02*
X310262Y174559D01*
X296957Y166781D02*
X297527Y166211D01*
X305253Y184383D02*
Y184538D01*
X293140Y182808D02*
X293709Y183377D01*
X294944D02*
X296836Y185269D01*
X309733Y189016D02*
X310262Y189545D01*
X294569Y189016D02*
X309733D01*
X294041Y188487D02*
X294569Y189016D01*
X304522Y185269D02*
X305253Y184538D01*
X296836Y185269D02*
X304522D01*
X293709Y183377D02*
X294944D01*
X531371Y279685D02*
X541107D01*
X544762Y289512D02*
X545250Y290000D01*
X541107Y279685D02*
X542607Y281184D01*
Y287057D01*
X544762Y289212D02*
Y289512D01*
X542607Y287057D02*
X544762Y289212D01*
X545250Y290000D02*
X547000D01*
X563358Y47468D02*
X570386Y40439D01*
X562788Y51832D02*
X563358Y51263D01*
Y47468D02*
Y51263D01*
X305449Y109837D02*
X306475D01*
X316641Y99671D01*
X332079D01*
X294724Y39369D02*
X298915D01*
X293828Y38473D02*
X294724Y39369D01*
X293828Y35141D02*
Y38473D01*
X393692Y237616D02*
X393942D01*
X387525Y223012D02*
Y232221D01*
X389087Y233783D02*
X389859D01*
X393692Y237616D01*
X387525Y232221D02*
X389087Y233783D01*
X390974Y209794D02*
Y219562D01*
X387525Y223012D02*
X390974Y219562D01*
X272372Y35127D02*
X274213Y33285D01*
X267089Y35127D02*
X272372D01*
X274213Y28836D02*
X275106Y27943D01*
X274213Y28836D02*
Y33285D01*
X286229Y28836D02*
Y41229D01*
X275106Y27943D02*
X285336D01*
X286229Y28836D01*
X536033Y24762D02*
X537033D01*
X301474Y164551D02*
X309038D01*
X309263Y164776D01*
X321799Y184917D02*
X330417D01*
X321799Y184917D02*
X321799Y184917D01*
X305788Y184917D02*
X321799D01*
X330417Y184917D02*
X332902Y187403D01*
X299407Y181007D02*
X300852Y179562D01*
X330392D01*
X305253Y184383D02*
X305788Y184917D01*
X298601Y181007D02*
X299407D01*
X310687Y194399D02*
X310897Y194608D01*
X297453Y194399D02*
X310687D01*
X332902Y187403D02*
X338541D01*
X330392Y179562D02*
X332551Y177403D01*
X338541D01*
X533436Y211986D02*
X544342D01*
X532897Y211447D02*
X533436Y211986D01*
X532897Y201465D02*
X533118Y201245D01*
X546171D01*
X533038Y206303D02*
X543993D01*
X533192Y196756D02*
X548970D01*
X549000Y221635D02*
X549181Y221453D01*
X533588Y221816D02*
X533769Y221635D01*
X549000D01*
X541686Y191458D02*
X542649Y190495D01*
X547910D01*
X547948Y190458D01*
X532897Y191458D02*
X541686D01*
X546171Y201245D02*
X547863Y202937D01*
X532897Y206444D02*
X533038Y206303D01*
X515431Y206805D02*
X533588D01*
X549394Y202937D02*
X549964Y203506D01*
X548970Y196756D02*
X549265Y197051D01*
X544342Y211986D02*
X544881Y212524D01*
X547863Y202937D02*
X549394D01*
X532897Y196461D02*
X533192Y196756D01*
X543993Y206303D02*
X544134Y206162D01*
X514538Y207697D02*
X515431Y206805D01*
X513638Y201826D02*
X533588D01*
X512178Y210671D02*
X514538Y208311D01*
Y207697D02*
Y208311D01*
X506479Y209889D02*
X508059D01*
X505891Y209301D02*
X506479Y209889D01*
X508059D02*
X508841Y210671D01*
X512178D01*
X524536Y41500D02*
X527624Y44588D01*
X545268Y51250D02*
X546030Y50488D01*
X515000Y41500D02*
X524536D01*
X550262Y50488D02*
X550567Y50183D01*
X546030Y50488D02*
X550262D01*
X530468Y51250D02*
X545268D01*
X507612Y51383D02*
X524371D01*
X445168Y43532D02*
X455378Y33321D01*
X445168Y48325D02*
X446306Y49463D01*
X447297Y59297D02*
X447500Y59500D01*
X442627Y39836D02*
Y59184D01*
X445168Y43532D02*
Y48325D01*
X487657Y121969D02*
X491688Y126000D01*
X487657Y109843D02*
X494311Y103189D01*
X447297Y51256D02*
Y59297D01*
X446306Y49463D02*
Y50265D01*
X447297Y51256D01*
X503151Y54663D02*
Y55469D01*
X498315Y61182D02*
X500898Y58599D01*
Y57721D02*
Y58599D01*
Y57721D02*
X503151Y55469D01*
X457500Y47810D02*
X465649Y39661D01*
X514000Y25000D02*
X515000D01*
X455378Y33321D02*
X461215D01*
X457500Y47810D02*
Y59500D01*
X506125Y49897D02*
X507612Y51383D01*
X463781Y50209D02*
Y58219D01*
Y50209D02*
X465656Y48335D01*
X575000Y290000D02*
X579246D01*
X592369Y276876D01*
X500643Y404775D02*
X500857D01*
X505891Y199301D02*
X511112D01*
X513638Y201826D01*
X499142Y209301D02*
X499259Y209418D01*
Y210500D01*
X494311Y103189D02*
X500250D01*
X498786Y448891D02*
Y455000D01*
Y448891D02*
X507174Y440502D01*
X502457Y413905D02*
X506841Y418288D01*
Y418620D01*
X362729Y271227D02*
Y272938D01*
Y271227D02*
X362941Y271015D01*
X362159Y270234D02*
X362941Y271015D01*
X355967Y270234D02*
X362159D01*
Y271563D01*
X355733Y270000D02*
X355967Y270234D01*
X350356Y126792D02*
X351408Y127845D01*
X375046Y261629D02*
X376821D01*
X374267Y260850D02*
X375046Y261629D01*
X376439Y263022D02*
X387522D01*
X375046Y261629D02*
X376439Y263022D01*
X279750Y53576D02*
X280643Y54469D01*
X478259Y285514D02*
X480296Y283477D01*
X570386Y40439D02*
X570907D01*
X527624Y48406D02*
X530468Y51250D01*
X527624Y44588D02*
Y48406D01*
X576874Y73986D02*
Y74736D01*
X377465Y202465D02*
X380313Y205313D01*
X377465Y189821D02*
Y202465D01*
Y189821D02*
X381795Y185491D01*
X382488D01*
X380313Y209794D02*
Y227488D01*
Y205313D02*
Y209794D01*
X355359Y152377D02*
Y159108D01*
X348830Y162639D02*
X351828D01*
X355359Y159108D01*
X438430Y200180D02*
X439000Y200750D01*
X438430Y196394D02*
Y200180D01*
X434482Y192446D02*
X438430Y196394D01*
X434482Y191994D02*
Y192446D01*
X415000Y260500D02*
X422887D01*
X423287Y260900D01*
X427650D01*
X429250Y262500D01*
X279750Y35165D02*
X279788Y35127D01*
X279750Y35165D02*
Y53576D01*
X401995Y191994D02*
Y192446D01*
X409078Y199528D01*
X409360D01*
X415736Y205904D01*
Y207733D01*
X418004Y210000D01*
Y227695D01*
X414232Y231466D02*
X418004Y227695D01*
X387522Y263022D02*
X394500Y270000D01*
X395000D01*
X568500Y311500D02*
X569317Y312317D01*
X570139D01*
X558500Y276500D02*
Y283500D01*
Y276500D02*
X562249Y272751D01*
X567021D01*
X570755Y269017D01*
X576510D01*
X500857Y404775D02*
X502457Y406375D01*
Y413905D01*
X580406Y54430D02*
X581708Y55732D01*
Y55734D01*
X435998Y210000D02*
X438265Y212267D01*
Y217015D01*
X439232Y217982D01*
Y231466D01*
X380313Y227488D02*
X380442Y227616D01*
X535500Y490000D02*
X543882D01*
X545061Y488821D01*
X535500Y510000D02*
X546697D01*
X547734Y508963D01*
D20*
X205000Y297021D02*
D03*
Y323005D02*
D03*
X25000Y617021D02*
D03*
Y643005D02*
D03*
X85000Y617021D02*
D03*
Y643005D02*
D03*
X145000Y617021D02*
D03*
Y643005D02*
D03*
X205000Y617021D02*
D03*
Y643005D02*
D03*
X25000Y297021D02*
D03*
Y323005D02*
D03*
X85000Y297021D02*
D03*
Y323005D02*
D03*
X145000Y297021D02*
D03*
Y323005D02*
D03*
D21*
X205000Y310000D02*
D03*
X25000Y630000D02*
D03*
X85000D02*
D03*
X145000D02*
D03*
X205000Y630000D02*
D03*
X25000Y310000D02*
D03*
X85000Y310000D02*
D03*
X145000D02*
D03*
D22*
X292488Y35127D02*
D03*
X279788D02*
D03*
X267089D02*
D03*
X305189D02*
D03*
X267089Y113130D02*
D03*
X305189D02*
D03*
X292488D02*
D03*
X279788D02*
D03*
D24*
X310262Y206054D02*
D03*
Y214056D02*
D03*
X533588Y180312D02*
D03*
Y172311D02*
D03*
D25*
X361856Y180244D02*
D03*
X362317Y196472D02*
D03*
X344428Y204274D02*
D03*
X370548Y237002D02*
D03*
X333960Y240000D02*
D03*
X349002Y241624D02*
D03*
X322388Y63015D02*
D03*
X286748Y98742D02*
D03*
X297655Y104825D02*
D03*
X265396Y474935D02*
D03*
X330000Y95000D02*
D03*
X381920Y84262D02*
D03*
X329670Y144878D02*
D03*
X337779Y128917D02*
D03*
X372046Y223107D02*
D03*
X330000Y195000D02*
D03*
X340140Y217002D02*
D03*
X255000Y420000D02*
D03*
X259561Y437811D02*
D03*
X265000Y455000D02*
D03*
X247389Y498146D02*
D03*
X366017Y231640D02*
D03*
X365660Y223116D02*
D03*
X585000Y525000D02*
D03*
X592500Y510000D02*
D03*
X585000Y495000D02*
D03*
X592500Y480000D02*
D03*
Y240000D02*
D03*
X585000Y225000D02*
D03*
X592500Y210000D02*
D03*
X585000Y195000D02*
D03*
X592500Y180000D02*
D03*
Y120000D02*
D03*
X585000Y105000D02*
D03*
X592500Y90000D02*
D03*
X585000Y75000D02*
D03*
X592500Y30000D02*
D03*
X585000Y15000D02*
D03*
X570000Y525000D02*
D03*
X577500Y510000D02*
D03*
X570000Y495000D02*
D03*
X577500Y480000D02*
D03*
X570000Y465000D02*
D03*
Y255000D02*
D03*
X577500Y210000D02*
D03*
Y180000D02*
D03*
X570000Y135000D02*
D03*
Y105000D02*
D03*
X555000Y525000D02*
D03*
X562500Y510000D02*
D03*
X555000Y495000D02*
D03*
X562500Y480000D02*
D03*
X555000Y465000D02*
D03*
Y105000D02*
D03*
X562500Y90000D02*
D03*
X555000Y75000D02*
D03*
X540000Y525000D02*
D03*
Y495000D02*
D03*
X547500Y360000D02*
D03*
Y90000D02*
D03*
X525000Y525000D02*
D03*
X532500Y480000D02*
D03*
X525000Y285000D02*
D03*
Y165000D02*
D03*
X532500Y90000D02*
D03*
X525000Y75000D02*
D03*
X510000Y525000D02*
D03*
X517500Y510000D02*
D03*
X510000Y495000D02*
D03*
X517500Y480000D02*
D03*
Y240000D02*
D03*
Y90000D02*
D03*
X510000Y75000D02*
D03*
X495000Y525000D02*
D03*
X502500Y510000D02*
D03*
X495000Y495000D02*
D03*
X502500Y480000D02*
D03*
X480000Y525000D02*
D03*
X487500Y510000D02*
D03*
X480000Y495000D02*
D03*
X487500Y480000D02*
D03*
X480000Y465000D02*
D03*
X465000Y525000D02*
D03*
X472500Y510000D02*
D03*
X465000Y495000D02*
D03*
X472500Y480000D02*
D03*
Y270000D02*
D03*
X450000Y525000D02*
D03*
X457500Y510000D02*
D03*
X450000Y495000D02*
D03*
X457500Y480000D02*
D03*
X450000Y405000D02*
D03*
Y345000D02*
D03*
Y225000D02*
D03*
Y15000D02*
D03*
X435000Y525000D02*
D03*
X442500Y510000D02*
D03*
X435000Y495000D02*
D03*
X442500Y480000D02*
D03*
X435000Y405000D02*
D03*
Y315000D02*
D03*
Y15000D02*
D03*
X420000Y525000D02*
D03*
X427500Y510000D02*
D03*
X420000Y495000D02*
D03*
X427500Y480000D02*
D03*
Y330000D02*
D03*
Y240000D02*
D03*
X420000Y15000D02*
D03*
X405000Y525000D02*
D03*
X412500Y510000D02*
D03*
Y450000D02*
D03*
Y300000D02*
D03*
X405000Y225000D02*
D03*
Y15000D02*
D03*
X390000Y525000D02*
D03*
X397500Y510000D02*
D03*
X390000Y285000D02*
D03*
X375000Y495000D02*
D03*
X382500Y480000D02*
D03*
Y420000D02*
D03*
Y30000D02*
D03*
X375000Y15000D02*
D03*
X360000Y495000D02*
D03*
X367500Y480000D02*
D03*
X360000Y15000D02*
D03*
X345000Y525000D02*
D03*
Y495000D02*
D03*
Y285000D02*
D03*
X330000Y525000D02*
D03*
Y465000D02*
D03*
Y435000D02*
D03*
X337500Y360000D02*
D03*
X330000Y285000D02*
D03*
X315000Y405000D02*
D03*
X322500Y330000D02*
D03*
X300000Y525000D02*
D03*
X307500Y480000D02*
D03*
X300000Y405000D02*
D03*
X307500Y360000D02*
D03*
Y330000D02*
D03*
X300000Y315000D02*
D03*
X307500Y270000D02*
D03*
X285000Y525000D02*
D03*
X292500Y330000D02*
D03*
X285000Y285000D02*
D03*
X292500Y270000D02*
D03*
X285000Y255000D02*
D03*
Y135000D02*
D03*
X270000Y525000D02*
D03*
X277500Y390000D02*
D03*
Y360000D02*
D03*
Y330000D02*
D03*
X270000Y285000D02*
D03*
Y195000D02*
D03*
Y165000D02*
D03*
Y45000D02*
D03*
X255000Y525000D02*
D03*
X262500Y300000D02*
D03*
X255000Y285000D02*
D03*
X262500Y240000D02*
D03*
Y150000D02*
D03*
X255000Y105000D02*
D03*
Y75000D02*
D03*
Y45000D02*
D03*
Y15000D02*
D03*
X388976Y179051D02*
D03*
X321713Y45815D02*
D03*
X376571Y113822D02*
D03*
X369223Y124557D02*
D03*
X358046Y59119D02*
D03*
X362824Y163317D02*
D03*
X360043Y261130D02*
D03*
X344273Y132451D02*
D03*
X305065Y102711D02*
D03*
X279714Y102747D02*
D03*
X321774Y33288D02*
D03*
X321047Y57074D02*
D03*
X387849Y46283D02*
D03*
X325835Y19292D02*
D03*
X362393Y66998D02*
D03*
X370917Y66945D02*
D03*
X410000Y470529D02*
D03*
X533230Y69954D02*
D03*
X519058Y121399D02*
D03*
X406555Y318418D02*
D03*
X415523Y328054D02*
D03*
X545079Y113704D02*
D03*
X298718Y328872D02*
D03*
X545136Y481332D02*
D03*
X335000Y105000D02*
D03*
X309649Y530264D02*
D03*
X391209Y387204D02*
D03*
X385578Y445549D02*
D03*
X382488Y113990D02*
D03*
X85000Y323005D02*
D03*
Y345293D02*
D03*
X25000Y297021D02*
D03*
X85000Y297021D02*
D03*
X205000Y297021D02*
D03*
X145000Y297021D02*
D03*
X25000Y323005D02*
D03*
X145000Y323005D02*
D03*
X205000Y323005D02*
D03*
Y345293D02*
D03*
X145000Y345293D02*
D03*
X25000Y345000D02*
D03*
Y374707D02*
D03*
X85000Y374707D02*
D03*
X145000D02*
D03*
X205000Y374707D02*
D03*
X205287Y617168D02*
D03*
X85000Y617021D02*
D03*
Y565293D02*
D03*
X25000Y643005D02*
D03*
Y565293D02*
D03*
Y617021D02*
D03*
X85000Y643005D02*
D03*
X145000Y565293D02*
D03*
X205000D02*
D03*
Y594707D02*
D03*
X145000D02*
D03*
X85000D02*
D03*
X25000D02*
D03*
X145000Y617021D02*
D03*
X205000Y643005D02*
D03*
X145000Y643005D02*
D03*
X391344Y379741D02*
D03*
X365000Y375000D02*
D03*
D26*
X568500Y283500D02*
D03*
X563500D02*
D03*
X558500D02*
D03*
X553500D02*
D03*
Y311500D02*
D03*
X558500D02*
D03*
X563500D02*
D03*
X568500D02*
D03*
D27*
X547000Y290000D02*
D03*
Y295000D02*
D03*
Y300000D02*
D03*
Y305000D02*
D03*
X575000D02*
D03*
Y300000D02*
D03*
Y295000D02*
D03*
Y290000D02*
D03*
D28*
X580406Y40439D02*
D03*
X570907D02*
D03*
D29*
X580000Y30000D02*
D03*
X571313D02*
D03*
Y21313D02*
D03*
X580000D02*
D03*
D31*
X205000Y345293D02*
D03*
Y374707D02*
D03*
X85000Y594707D02*
D03*
Y565293D02*
D03*
X145000Y594707D02*
D03*
Y565293D02*
D03*
X205000Y594707D02*
D03*
Y565293D02*
D03*
X25000Y594707D02*
D03*
Y565293D02*
D03*
Y345293D02*
D03*
Y374707D02*
D03*
X85000Y345293D02*
D03*
Y374707D02*
D03*
X145000Y345293D02*
D03*
Y374707D02*
D03*
D32*
X205000Y360000D02*
D03*
X85000Y580000D02*
D03*
X145000D02*
D03*
X205000D02*
D03*
X25000D02*
D03*
Y360000D02*
D03*
X85000Y360000D02*
D03*
X145000D02*
D03*
D33*
X380442Y237616D02*
D03*
X393942D02*
D03*
Y227616D02*
D03*
X380442D02*
D03*
D34*
X499142Y199301D02*
D03*
Y204301D02*
D03*
Y209301D02*
D03*
X505891D02*
D03*
Y204301D02*
D03*
Y199301D02*
D03*
X345291Y187403D02*
D03*
Y182403D02*
D03*
Y177403D02*
D03*
X338541D02*
D03*
Y182403D02*
D03*
Y187403D02*
D03*
D35*
X366219Y357989D02*
D03*
X346219Y348489D02*
D03*
Y367489D02*
D03*
X395000Y270000D02*
D03*
X415000Y279500D02*
D03*
Y260500D02*
D03*
D36*
X355733Y270000D02*
D03*
X374267Y279150D02*
D03*
D37*
Y260850D02*
D03*
D38*
X591945Y398908D02*
D03*
X579933D02*
D03*
X591080Y458865D02*
D03*
X579068D02*
D03*
X476006Y455000D02*
D03*
X463994D02*
D03*
X526006D02*
D03*
X513994D02*
D03*
X536818Y388030D02*
D03*
X524807D02*
D03*
D39*
X475000Y385257D02*
D03*
Y364743D02*
D03*
X506955Y310648D02*
D03*
Y290135D02*
D03*
D40*
X520000Y423241D02*
D03*
Y436759D02*
D03*
X579456Y380261D02*
D03*
Y366744D02*
D03*
X580190Y440311D02*
D03*
Y426794D02*
D03*
X530898Y356787D02*
D03*
Y370305D02*
D03*
X470000Y423241D02*
D03*
Y436759D02*
D03*
D41*
X555000Y18239D02*
D03*
Y31761D02*
D03*
X500732Y126821D02*
D03*
Y113299D02*
D03*
X501315Y166890D02*
D03*
Y180412D02*
D03*
X559250Y122489D02*
D03*
Y136011D02*
D03*
D42*
X317500Y355000D02*
D03*
X292500D02*
D03*
X414232Y231466D02*
D03*
X439232D02*
D03*
D43*
X424176Y385897D02*
D03*
Y357881D02*
D03*
X456568Y313530D02*
D03*
Y285514D02*
D03*
D44*
X484533Y33501D02*
D03*
X346535D02*
D03*
D45*
X428043Y56996D02*
D03*
X423040D02*
D03*
X418036D02*
D03*
X413032D02*
D03*
X408028D02*
D03*
X403050D02*
D03*
X398046D02*
D03*
X393042D02*
D03*
X388038D02*
D03*
X383035D02*
D03*
X378031D02*
D03*
X373027D02*
D03*
X368049D02*
D03*
X363045D02*
D03*
X433047D02*
D03*
X438051D02*
D03*
X443029D02*
D03*
X448033D02*
D03*
X453037D02*
D03*
X458041D02*
D03*
X463045D02*
D03*
X468048D02*
D03*
D46*
X448245Y355841D02*
D03*
Y389699D02*
D03*
X480854Y283387D02*
D03*
Y317245D02*
D03*
D47*
X360363Y152377D02*
D03*
X355359D02*
D03*
X350356D02*
D03*
X345352D02*
D03*
X340348D02*
D03*
X360363Y110188D02*
D03*
X355359D02*
D03*
X350356D02*
D03*
X345352D02*
D03*
X340348D02*
D03*
D48*
X537033Y24762D02*
D03*
Y41262D02*
D03*
X515000Y25000D02*
D03*
Y41500D02*
D03*
D49*
X325624Y477067D02*
D03*
D50*
X397201Y497184D02*
D03*
Y488167D02*
D03*
Y479175D02*
D03*
Y470184D02*
D03*
Y461167D02*
D03*
Y452175D02*
D03*
Y443183D02*
D03*
Y434166D02*
D03*
Y425175D02*
D03*
Y416183D02*
D03*
Y407166D02*
D03*
X277211D02*
D03*
Y416183D02*
D03*
Y425175D02*
D03*
Y434166D02*
D03*
Y443183D02*
D03*
Y452175D02*
D03*
Y461167D02*
D03*
Y470184D02*
D03*
Y479175D02*
D03*
Y488167D02*
D03*
Y497184D02*
D03*
D51*
X382215Y392180D02*
D03*
X373223D02*
D03*
X364206D02*
D03*
X355215D02*
D03*
X346223D02*
D03*
X337206D02*
D03*
X328215D02*
D03*
X319223D02*
D03*
X310206D02*
D03*
X301214D02*
D03*
X292223D02*
D03*
Y512170D02*
D03*
X301214D02*
D03*
X310206D02*
D03*
X319223D02*
D03*
X328215D02*
D03*
X337206D02*
D03*
X346223D02*
D03*
X355215D02*
D03*
X364206D02*
D03*
X373223D02*
D03*
X382215D02*
D03*
D52*
X373679Y531848D02*
D03*
X381251D02*
D03*
X258214Y484977D02*
D03*
X250643D02*
D03*
X490812Y471172D02*
D03*
X498383D02*
D03*
X461729Y470979D02*
D03*
X454158D02*
D03*
X258052Y471402D02*
D03*
X250481D02*
D03*
X491250Y454939D02*
D03*
X498821D02*
D03*
X257943Y457937D02*
D03*
X250372D02*
D03*
X478293Y74877D02*
D03*
X485864D02*
D03*
X381222Y355039D02*
D03*
X388794D02*
D03*
X305610Y18778D02*
D03*
X298039D02*
D03*
X443778Y209961D02*
D03*
X436207D02*
D03*
X417780D02*
D03*
X410208D02*
D03*
X372534Y209834D02*
D03*
X380105D02*
D03*
X398754Y209755D02*
D03*
X391182D02*
D03*
X589487Y55693D02*
D03*
X581916D02*
D03*
X292978Y375206D02*
D03*
X300550D02*
D03*
X311356Y375162D02*
D03*
X318928D02*
D03*
X497536Y270061D02*
D03*
X489964D02*
D03*
X493107Y404714D02*
D03*
X500678D02*
D03*
X381363Y369022D02*
D03*
X388935D02*
D03*
X500250Y103189D02*
D03*
X507821D02*
D03*
X323604Y88558D02*
D03*
X331175D02*
D03*
X436786Y262561D02*
D03*
X429215D02*
D03*
X258053Y444471D02*
D03*
X250482D02*
D03*
X461986Y329964D02*
D03*
X454415D02*
D03*
X258162Y430951D02*
D03*
X250591D02*
D03*
D53*
X547734Y501391D02*
D03*
Y508963D02*
D03*
X257764Y497315D02*
D03*
Y504886D02*
D03*
X545061Y481250D02*
D03*
Y488821D02*
D03*
X421369Y468876D02*
D03*
Y461305D02*
D03*
X438101Y468848D02*
D03*
Y461277D02*
D03*
X576449Y268982D02*
D03*
Y261411D02*
D03*
X421378Y451690D02*
D03*
Y444119D02*
D03*
X433932Y432575D02*
D03*
Y425003D02*
D03*
X420249Y432575D02*
D03*
Y425003D02*
D03*
X437993Y452016D02*
D03*
Y444445D02*
D03*
X545105Y130796D02*
D03*
Y123224D02*
D03*
X544939Y113750D02*
D03*
Y106179D02*
D03*
X324939Y313750D02*
D03*
Y306179D02*
D03*
X298769Y328944D02*
D03*
Y321372D02*
D03*
X519071Y121152D02*
D03*
Y113581D02*
D03*
D54*
X562750Y265000D02*
D03*
X547250D02*
D03*
X535570Y338002D02*
D03*
X520070D02*
D03*
X462250Y405000D02*
D03*
X477750D02*
D03*
X263813Y18105D02*
D03*
X279312D02*
D03*
X592374Y74736D02*
D03*
X576874D02*
D03*
X526379Y270176D02*
D03*
X510879D02*
D03*
X512250Y405000D02*
D03*
X527750D02*
D03*
X478913Y347766D02*
D03*
X463413D02*
D03*
D55*
X531497Y291800D02*
D03*
Y307300D02*
D03*
X575000Y342750D02*
D03*
Y327250D02*
D03*
X556034Y380322D02*
D03*
Y364823D02*
D03*
X556844Y442322D02*
D03*
Y426822D02*
D03*
D56*
X582000Y123244D02*
D03*
Y135256D02*
D03*
D57*
X373309Y512555D02*
D03*
D92*
X286138Y74141D02*
D03*
D93*
X310262Y158048D02*
D03*
Y150048D02*
D03*
X533588Y228318D02*
D03*
Y236319D02*
D03*
D94*
X310262Y164551D02*
D03*
Y169555D02*
D03*
Y174559D02*
D03*
Y179562D02*
D03*
Y184541D02*
D03*
Y189545D02*
D03*
Y194548D02*
D03*
Y199552D02*
D03*
X533588Y221816D02*
D03*
Y216812D02*
D03*
Y211808D02*
D03*
Y206805D02*
D03*
Y201826D02*
D03*
Y196822D02*
D03*
Y191819D02*
D03*
Y186815D02*
D03*
D95*
X561000Y297500D02*
D03*
D96*
X382488Y94509D02*
D03*
Y100986D02*
D03*
Y107488D02*
D03*
Y113990D02*
D03*
Y120493D02*
D03*
Y126995D02*
D03*
Y133498D02*
D03*
Y140000D02*
D03*
Y146502D02*
D03*
Y153005D02*
D03*
Y159507D02*
D03*
Y166010D02*
D03*
Y172487D02*
D03*
Y178989D02*
D03*
Y185491D02*
D03*
Y191994D02*
D03*
X388990Y94509D02*
D03*
Y100986D02*
D03*
Y107488D02*
D03*
Y113990D02*
D03*
Y120493D02*
D03*
Y126995D02*
D03*
Y133498D02*
D03*
Y140000D02*
D03*
Y146502D02*
D03*
Y153005D02*
D03*
Y159507D02*
D03*
Y166010D02*
D03*
Y172487D02*
D03*
Y178989D02*
D03*
Y185491D02*
D03*
Y191994D02*
D03*
X395493Y94509D02*
D03*
Y100986D02*
D03*
Y107488D02*
D03*
Y113990D02*
D03*
Y120493D02*
D03*
Y126995D02*
D03*
Y133498D02*
D03*
Y140000D02*
D03*
Y146502D02*
D03*
Y153005D02*
D03*
Y159507D02*
D03*
Y166010D02*
D03*
Y172487D02*
D03*
Y178989D02*
D03*
Y185491D02*
D03*
Y191994D02*
D03*
X401995Y94509D02*
D03*
Y100986D02*
D03*
Y107488D02*
D03*
Y113990D02*
D03*
Y120493D02*
D03*
Y126995D02*
D03*
Y133498D02*
D03*
Y140000D02*
D03*
Y146502D02*
D03*
Y153005D02*
D03*
Y159507D02*
D03*
Y166010D02*
D03*
Y172487D02*
D03*
Y178989D02*
D03*
Y185491D02*
D03*
Y191994D02*
D03*
X408498Y94509D02*
D03*
Y100986D02*
D03*
Y107488D02*
D03*
Y113990D02*
D03*
Y120493D02*
D03*
Y126995D02*
D03*
Y133498D02*
D03*
Y140000D02*
D03*
Y146502D02*
D03*
Y153005D02*
D03*
Y159507D02*
D03*
Y166010D02*
D03*
Y172487D02*
D03*
Y178989D02*
D03*
Y185491D02*
D03*
Y191994D02*
D03*
X415000Y94509D02*
D03*
Y100986D02*
D03*
Y107488D02*
D03*
Y113990D02*
D03*
Y120493D02*
D03*
Y126995D02*
D03*
Y133498D02*
D03*
Y140000D02*
D03*
Y146502D02*
D03*
Y153005D02*
D03*
Y159507D02*
D03*
Y166010D02*
D03*
Y172487D02*
D03*
Y178989D02*
D03*
Y185491D02*
D03*
Y191994D02*
D03*
X421477Y94509D02*
D03*
Y100986D02*
D03*
Y107488D02*
D03*
Y113990D02*
D03*
Y120493D02*
D03*
Y126995D02*
D03*
Y133498D02*
D03*
Y140000D02*
D03*
Y146502D02*
D03*
Y153005D02*
D03*
Y159507D02*
D03*
Y166010D02*
D03*
Y172487D02*
D03*
Y178989D02*
D03*
Y185491D02*
D03*
Y191994D02*
D03*
X427979Y94509D02*
D03*
Y100986D02*
D03*
Y107488D02*
D03*
Y113990D02*
D03*
Y120493D02*
D03*
Y126995D02*
D03*
Y133498D02*
D03*
Y140000D02*
D03*
Y146502D02*
D03*
Y153005D02*
D03*
Y159507D02*
D03*
Y166010D02*
D03*
Y172487D02*
D03*
Y178989D02*
D03*
Y185491D02*
D03*
Y191994D02*
D03*
X434482Y94509D02*
D03*
Y100986D02*
D03*
Y107488D02*
D03*
Y113990D02*
D03*
Y120493D02*
D03*
Y126995D02*
D03*
Y133498D02*
D03*
Y140000D02*
D03*
Y146502D02*
D03*
Y153005D02*
D03*
Y159507D02*
D03*
Y166010D02*
D03*
Y172487D02*
D03*
Y178989D02*
D03*
Y185491D02*
D03*
Y191994D02*
D03*
X440984Y94509D02*
D03*
Y100986D02*
D03*
Y107488D02*
D03*
Y113990D02*
D03*
Y120493D02*
D03*
Y126995D02*
D03*
Y133498D02*
D03*
Y140000D02*
D03*
Y146502D02*
D03*
Y153005D02*
D03*
Y159507D02*
D03*
Y166010D02*
D03*
Y172487D02*
D03*
Y178989D02*
D03*
Y185491D02*
D03*
Y191994D02*
D03*
X447487Y94509D02*
D03*
Y100986D02*
D03*
Y107488D02*
D03*
Y113990D02*
D03*
Y120493D02*
D03*
Y126995D02*
D03*
Y133498D02*
D03*
Y140000D02*
D03*
Y146502D02*
D03*
Y153005D02*
D03*
Y159507D02*
D03*
Y166010D02*
D03*
Y172487D02*
D03*
Y178989D02*
D03*
Y185491D02*
D03*
Y191994D02*
D03*
X453989Y94509D02*
D03*
Y100986D02*
D03*
Y107488D02*
D03*
Y113990D02*
D03*
Y120493D02*
D03*
Y126995D02*
D03*
Y133498D02*
D03*
Y140000D02*
D03*
Y146502D02*
D03*
Y153005D02*
D03*
Y159507D02*
D03*
Y166010D02*
D03*
Y172487D02*
D03*
Y178989D02*
D03*
Y185491D02*
D03*
Y191994D02*
D03*
X460491Y94509D02*
D03*
Y100986D02*
D03*
Y107488D02*
D03*
Y113990D02*
D03*
Y120493D02*
D03*
Y126995D02*
D03*
Y133498D02*
D03*
Y140000D02*
D03*
Y146502D02*
D03*
Y153005D02*
D03*
Y159507D02*
D03*
Y166010D02*
D03*
Y172487D02*
D03*
Y178989D02*
D03*
Y185491D02*
D03*
Y191994D02*
D03*
X466994Y94509D02*
D03*
Y100986D02*
D03*
Y107488D02*
D03*
Y113990D02*
D03*
Y120493D02*
D03*
Y126995D02*
D03*
Y133498D02*
D03*
Y140000D02*
D03*
Y146502D02*
D03*
Y153005D02*
D03*
Y159507D02*
D03*
Y166010D02*
D03*
Y172487D02*
D03*
Y178989D02*
D03*
Y185491D02*
D03*
Y191994D02*
D03*
X473496Y94509D02*
D03*
Y100986D02*
D03*
Y107488D02*
D03*
Y113990D02*
D03*
Y120493D02*
D03*
Y126995D02*
D03*
Y133498D02*
D03*
Y140000D02*
D03*
Y146502D02*
D03*
Y153005D02*
D03*
Y159507D02*
D03*
Y166010D02*
D03*
Y172487D02*
D03*
Y178989D02*
D03*
Y185491D02*
D03*
Y191994D02*
D03*
X479999Y94509D02*
D03*
Y100986D02*
D03*
Y107488D02*
D03*
Y113990D02*
D03*
Y120493D02*
D03*
Y126995D02*
D03*
Y133498D02*
D03*
Y140000D02*
D03*
Y146502D02*
D03*
Y153005D02*
D03*
Y159507D02*
D03*
Y166010D02*
D03*
Y172487D02*
D03*
Y178989D02*
D03*
Y185491D02*
D03*
Y191994D02*
D03*
X353214Y199986D02*
D03*
X349921Y235743D02*
D03*
X300612Y84791D02*
D03*
X416270Y92735D02*
D03*
X412723Y66998D02*
D03*
X403562Y66427D02*
D03*
X421613Y94509D02*
D03*
X439304Y88855D02*
D03*
X387541Y85000D02*
D03*
X300178Y445063D02*
D03*
X294428Y444993D02*
D03*
X340000Y210000D02*
D03*
X246238Y485166D02*
D03*
Y471376D02*
D03*
Y457998D02*
D03*
Y444516D02*
D03*
Y431344D02*
D03*
X259861Y444111D02*
D03*
X287415Y425000D02*
D03*
X276987Y407666D02*
D03*
X369310Y203116D02*
D03*
X373628Y210791D02*
D03*
X336677Y195927D02*
D03*
X344153Y196936D02*
D03*
X368626Y196091D02*
D03*
X292754Y375167D02*
D03*
X370000Y135000D02*
D03*
X327815Y51775D02*
D03*
X327992Y46027D02*
D03*
X370000Y170000D02*
D03*
X373713Y163121D02*
D03*
X344657Y73990D02*
D03*
X353181Y75811D02*
D03*
X363447Y111464D02*
D03*
Y120774D02*
D03*
X368393Y107696D02*
D03*
X350062Y169969D02*
D03*
X339014Y171500D02*
D03*
X347785Y182285D02*
D03*
X353344Y175790D02*
D03*
X351978Y132020D02*
D03*
X377349Y131272D02*
D03*
X390000Y39205D02*
D03*
X400686Y88353D02*
D03*
X340652Y45375D02*
D03*
X374551Y46423D02*
D03*
X414586Y101339D02*
D03*
X395509Y94557D02*
D03*
X365481Y43911D02*
D03*
X393138Y48541D02*
D03*
X360633Y77027D02*
D03*
X366116Y79325D02*
D03*
X369547Y94021D02*
D03*
X341115Y323651D02*
D03*
X344750Y412000D02*
D03*
X386038Y309022D02*
D03*
X329368Y477512D02*
D03*
X486920Y184469D02*
D03*
X486453Y196328D02*
D03*
X353181Y403829D02*
D03*
X447442Y178998D02*
D03*
X448750Y464000D02*
D03*
X361501Y465354D02*
D03*
X260250Y470500D02*
D03*
X270000Y460750D02*
D03*
X388210Y434062D02*
D03*
X344750Y418500D02*
D03*
X349551Y308847D02*
D03*
X365623Y309022D02*
D03*
X490761Y470798D02*
D03*
X545000Y408363D02*
D03*
X387299Y356567D02*
D03*
X594097Y387263D02*
D03*
X498349Y470529D02*
D03*
X421547Y468005D02*
D03*
X438162D02*
D03*
X371081Y320440D02*
D03*
X415098Y367904D02*
D03*
X594735Y449264D02*
D03*
X591019Y458696D02*
D03*
X591820Y398425D02*
D03*
X567683Y417662D02*
D03*
X568250Y356497D02*
D03*
X557085Y442665D02*
D03*
X538167Y429822D02*
D03*
X555363Y380016D02*
D03*
X543354Y365133D02*
D03*
X537971Y391498D02*
D03*
X574371Y343050D02*
D03*
X575006Y307987D02*
D03*
X563399Y307396D02*
D03*
X563433Y278521D02*
D03*
X576402Y261322D02*
D03*
X562176Y265123D02*
D03*
X553444Y316653D02*
D03*
X537921Y338514D02*
D03*
X531714Y291351D02*
D03*
X555998Y221408D02*
D03*
X531328Y272436D02*
D03*
X529727Y236184D02*
D03*
X526750Y454250D02*
D03*
X506343Y430591D02*
D03*
X505000Y425000D02*
D03*
X485000Y430000D02*
D03*
X500867Y419227D02*
D03*
X475895Y454922D02*
D03*
X454900Y424829D02*
D03*
X454850Y430591D02*
D03*
X445451Y417313D02*
D03*
X514880Y365412D02*
D03*
X514730Y359571D02*
D03*
X512250Y405000D02*
D03*
X504252Y354455D02*
D03*
X525737Y269840D02*
D03*
X497862Y269949D02*
D03*
X462056Y405419D02*
D03*
X478712Y348204D02*
D03*
X463927Y329740D02*
D03*
X441769Y317460D02*
D03*
X469674Y306479D02*
D03*
X455644Y313721D02*
D03*
X555561Y190277D02*
D03*
X530569Y172267D02*
D03*
X583202Y122935D02*
D03*
X510000Y205000D02*
D03*
X479999Y172487D02*
D03*
X467378Y178391D02*
D03*
X466994Y146502D02*
D03*
Y133498D02*
D03*
Y140000D02*
D03*
X593258Y74372D02*
D03*
X589141Y55436D02*
D03*
X580420Y31329D02*
D03*
X570720Y31046D02*
D03*
X580754Y20601D02*
D03*
X570772Y20343D02*
D03*
X505277Y98125D02*
D03*
X473496Y94509D02*
D03*
X486073Y74838D02*
D03*
X538768Y38385D02*
D03*
X490350Y39472D02*
D03*
X453989Y166010D02*
D03*
X460491D02*
D03*
X453989Y159507D02*
D03*
X447487Y166010D02*
D03*
X460491Y146502D02*
D03*
X453989D02*
D03*
X447487D02*
D03*
X443955Y209823D02*
D03*
X441066Y191889D02*
D03*
X447487Y185491D02*
D03*
X441180Y179143D02*
D03*
X440984Y185491D02*
D03*
Y146502D02*
D03*
Y166010D02*
D03*
Y133498D02*
D03*
X440966Y172433D02*
D03*
X460491Y126995D02*
D03*
Y133498D02*
D03*
X453989Y120493D02*
D03*
Y133498D02*
D03*
X460491Y113990D02*
D03*
X453989Y107488D02*
D03*
X455257Y42320D02*
D03*
X447487Y133498D02*
D03*
Y120493D02*
D03*
X440984D02*
D03*
X447487Y107488D02*
D03*
X424552Y381654D02*
D03*
X436347Y380465D02*
D03*
X415000Y279500D02*
D03*
X409809Y210028D02*
D03*
X397487Y425322D02*
D03*
X392404Y227486D02*
D03*
X398754Y209755D02*
D03*
X382215Y392180D02*
D03*
X434410Y185631D02*
D03*
X432577Y199753D02*
D03*
X427979Y185491D02*
D03*
X434410Y178876D02*
D03*
X427979Y172487D02*
D03*
X408498Y191994D02*
D03*
X421556Y191954D02*
D03*
X388998Y192075D02*
D03*
X408490Y185451D02*
D03*
X421556Y185424D02*
D03*
X421477Y178989D02*
D03*
Y172487D02*
D03*
X395493D02*
D03*
X401995D02*
D03*
X365000Y422250D02*
D03*
X364316Y392283D02*
D03*
X328315Y444322D02*
D03*
X360061Y241926D02*
D03*
X345909Y347526D02*
D03*
X319136Y375123D02*
D03*
X380292Y237481D02*
D03*
X337091Y182403D02*
D03*
X289540Y194249D02*
D03*
X290051Y168990D02*
D03*
X427979Y146502D02*
D03*
X421477Y153005D02*
D03*
X434482Y146502D02*
D03*
Y133498D02*
D03*
X421477Y140000D02*
D03*
X427979Y133498D02*
D03*
X415000Y166010D02*
D03*
X421477D02*
D03*
X408498Y159507D02*
D03*
Y166010D02*
D03*
X415000Y153005D02*
D03*
Y140000D02*
D03*
X401995Y133498D02*
D03*
X434482Y120493D02*
D03*
Y113990D02*
D03*
X427979Y120493D02*
D03*
Y107488D02*
D03*
X438170Y48568D02*
D03*
X423071Y48500D02*
D03*
X421477Y113990D02*
D03*
X408498D02*
D03*
X415000Y107488D02*
D03*
X408498Y120493D02*
D03*
X421477Y107488D02*
D03*
X408038Y48584D02*
D03*
X401995Y146502D02*
D03*
X395493Y140000D02*
D03*
X401995Y126995D02*
D03*
X395493Y120493D02*
D03*
Y113990D02*
D03*
X382488Y107488D02*
D03*
X388990D02*
D03*
X321205Y149554D02*
D03*
X376057Y146916D02*
D03*
X350198Y144971D02*
D03*
X335593Y119935D02*
D03*
X267210Y113108D02*
D03*
X300679Y74858D02*
D03*
X285679Y64858D02*
D03*
Y84859D02*
D03*
X270679Y74858D02*
D03*
Y84859D02*
D03*
X285679Y74858D02*
D03*
X270679Y64858D02*
D03*
X300679D02*
D03*
X297518Y18778D02*
D03*
X263510Y18461D02*
D03*
X347069Y476579D02*
D03*
X382301Y507515D02*
D03*
X382256Y517122D02*
D03*
X364234Y517191D02*
D03*
Y507515D02*
D03*
X595000Y535000D02*
D03*
X585000D02*
D03*
X570000D02*
D03*
X555000D02*
D03*
X540000D02*
D03*
X510000D02*
D03*
X525000D02*
D03*
X495000D02*
D03*
X480000D02*
D03*
X465000D02*
D03*
X450000D02*
D03*
X435000D02*
D03*
X420000D02*
D03*
X405780Y535280D02*
D03*
X393080D02*
D03*
X363507Y537911D02*
D03*
X357347D02*
D03*
X342643Y538010D02*
D03*
X352933Y529996D02*
D03*
X336582Y537911D02*
D03*
X325000Y535000D02*
D03*
X335532Y529996D02*
D03*
X265000Y535000D02*
D03*
X280000D02*
D03*
X250000D02*
D03*
X295000D02*
D03*
X343789Y94015D02*
D03*
X559782Y317586D02*
D03*
X421436Y452066D02*
D03*
X315000Y460000D02*
D03*
X287510Y489433D02*
D03*
X321686Y407756D02*
D03*
X333749Y371251D02*
D03*
X258188Y430945D02*
D03*
X344750Y430753D02*
D03*
X352310Y445000D02*
D03*
X426000Y415250D02*
D03*
X437946Y459481D02*
D03*
X257401Y504924D02*
D03*
X310109Y512655D02*
D03*
X290568Y499315D02*
D03*
X346874Y437747D02*
D03*
X365102Y438588D02*
D03*
X421330Y444140D02*
D03*
X525000Y390000D02*
D03*
X404939Y353811D02*
D03*
X308383Y491459D02*
D03*
X250500Y493250D02*
D03*
X401972Y101054D02*
D03*
X382667Y436629D02*
D03*
X339527Y84704D02*
D03*
X150000Y480000D02*
D03*
X210000D02*
D03*
X90000D02*
D03*
X30000D02*
D03*
X594247Y426784D02*
D03*
X375000Y470000D02*
D03*
X373854Y429818D02*
D03*
X419553Y197738D02*
D03*
X525956Y373662D02*
D03*
X532855Y370300D02*
D03*
X517043Y458394D02*
D03*
X489739Y293484D02*
D03*
X370491Y154046D02*
D03*
X334631Y140367D02*
D03*
X337661Y135480D02*
D03*
X583202Y135358D02*
D03*
X380473Y355000D02*
D03*
X455250Y382678D02*
D03*
X423124Y431649D02*
D03*
X466675Y78155D02*
D03*
X449049Y88174D02*
D03*
X503076Y44980D02*
D03*
X305291Y35088D02*
D03*
X492003Y116718D02*
D03*
X502552Y130051D02*
D03*
X491688Y126000D02*
D03*
X466078Y88788D02*
D03*
X464598Y67065D02*
D03*
X458848Y66998D02*
D03*
X285898Y157055D02*
D03*
X290422Y160466D02*
D03*
X296957Y166781D02*
D03*
X298601Y181007D02*
D03*
X299152Y175283D02*
D03*
X293140Y182808D02*
D03*
X294041Y188487D02*
D03*
X297453Y194399D02*
D03*
X547250Y282318D02*
D03*
X526027Y360000D02*
D03*
X531743Y360367D02*
D03*
X562788Y51832D02*
D03*
X433111Y45833D02*
D03*
X429980Y41010D02*
D03*
X440508Y66865D02*
D03*
X446238Y67352D02*
D03*
X573652Y361879D02*
D03*
X563482Y367766D02*
D03*
X395485Y107434D02*
D03*
X305449Y109837D02*
D03*
X408498Y100939D02*
D03*
X293828Y35141D02*
D03*
X421473Y101016D02*
D03*
X408422Y107465D02*
D03*
X390974Y209794D02*
D03*
X388893Y185599D02*
D03*
X388937Y113977D02*
D03*
X267089Y35127D02*
D03*
X395510Y179043D02*
D03*
X395562Y166043D02*
D03*
X565000Y435000D02*
D03*
X366083Y356668D02*
D03*
X447461Y100978D02*
D03*
X331980Y88913D02*
D03*
X401972Y107434D02*
D03*
X395486Y185599D02*
D03*
X256779Y161272D02*
D03*
X281866Y152541D02*
D03*
X248884Y151879D02*
D03*
X252796Y156754D02*
D03*
X549181Y221453D02*
D03*
X547948Y190458D02*
D03*
X549265Y197051D02*
D03*
X549964Y203506D02*
D03*
X544881Y212524D02*
D03*
X544134Y206162D02*
D03*
X562539Y140240D02*
D03*
X555018Y138134D02*
D03*
X510503Y59647D02*
D03*
X563278Y125917D02*
D03*
X556722Y119333D02*
D03*
X550567Y50183D02*
D03*
X517765Y40401D02*
D03*
X524371Y51383D02*
D03*
X565011Y375000D02*
D03*
X556518Y325364D02*
D03*
X545000Y305000D02*
D03*
X440947Y94576D02*
D03*
X497711Y113211D02*
D03*
X453651Y101275D02*
D03*
X460397Y94472D02*
D03*
X473487Y101054D02*
D03*
X503151Y54663D02*
D03*
X496489Y56772D02*
D03*
X461215Y33321D02*
D03*
X454035Y191967D02*
D03*
X440973Y101016D02*
D03*
X460447Y193319D02*
D03*
X461583Y452360D02*
D03*
X541523Y59416D02*
D03*
X345312Y119745D02*
D03*
X395493Y146502D02*
D03*
X460491Y159507D02*
D03*
X415000Y113990D02*
D03*
X427979D02*
D03*
X460491Y140000D02*
D03*
X440984Y113990D02*
D03*
X395493Y133498D02*
D03*
X460491Y153005D02*
D03*
X435421Y259843D02*
D03*
X447523Y172473D02*
D03*
X466994Y100986D02*
D03*
X382418Y140038D02*
D03*
X453622Y330700D02*
D03*
X576046Y428280D02*
D03*
X573860Y422531D02*
D03*
X575556Y356526D02*
D03*
X518542Y418535D02*
D03*
X518599Y441045D02*
D03*
X468024Y419314D02*
D03*
X468024Y440889D02*
D03*
X490015Y269949D02*
D03*
X388838Y368903D02*
D03*
X483786Y419773D02*
D03*
X479999Y100986D02*
D03*
X502079Y183512D02*
D03*
Y169643D02*
D03*
Y163478D02*
D03*
X502356Y177702D02*
D03*
X505277Y135999D02*
D03*
X470875Y435406D02*
D03*
X477780Y234273D02*
D03*
X467514Y223354D02*
D03*
X484985Y234894D02*
D03*
X477904Y241230D02*
D03*
X484861Y240981D02*
D03*
X460932Y216026D02*
D03*
X468250Y210500D02*
D03*
Y217000D02*
D03*
X499259Y210500D02*
D03*
X388997Y139978D02*
D03*
X499142Y199301D02*
D03*
X503621Y123880D02*
D03*
X504000Y113000D02*
D03*
X520875Y435406D02*
D03*
X563880Y428333D02*
D03*
X533360Y419762D02*
D03*
X515740Y352670D02*
D03*
X456312Y366516D02*
D03*
X378783Y278190D02*
D03*
X507174Y440502D02*
D03*
X506841Y418620D02*
D03*
X520875Y424595D02*
D03*
X457822Y418500D02*
D03*
X460474Y100939D02*
D03*
X453929Y172473D02*
D03*
X362159Y271563D02*
D03*
X376821Y261629D02*
D03*
X279750Y113000D02*
D03*
X292750D02*
D03*
X455697Y200610D02*
D03*
X448017Y200260D02*
D03*
X426737Y213663D02*
D03*
X460436Y107503D02*
D03*
X455362Y373581D02*
D03*
X388959Y120536D02*
D03*
X427944Y191971D02*
D03*
X401959Y179043D02*
D03*
X395486Y192002D02*
D03*
X362445Y180494D02*
D03*
X401995Y159507D02*
D03*
X415000D02*
D03*
X421477D02*
D03*
X427979Y166010D02*
D03*
Y159517D02*
D03*
X434482Y159507D02*
D03*
X447487D02*
D03*
Y153005D02*
D03*
X440984D02*
D03*
X453989D02*
D03*
X440984Y159507D02*
D03*
X434482Y153005D02*
D03*
X401995D02*
D03*
X415000Y146502D02*
D03*
X388997Y146504D02*
D03*
X421477Y146502D02*
D03*
X408498Y153005D02*
D03*
X427979D02*
D03*
X408498Y146502D02*
D03*
X401995Y166010D02*
D03*
X439000Y200750D02*
D03*
X453989Y185491D02*
D03*
X447487Y191994D02*
D03*
X531371Y279685D02*
D03*
X435998Y210000D02*
D03*
X463253Y200457D02*
D03*
X576596Y396467D02*
D03*
X576193Y402452D02*
D03*
X582572Y402630D02*
D03*
X576480Y456118D02*
D03*
X569621Y283080D02*
D03*
X570139Y312317D02*
D03*
X511888Y452734D02*
D03*
X470629Y424491D02*
D03*
X465135Y380497D02*
D03*
X481978Y315242D02*
D03*
X498376Y306011D02*
D03*
X400000Y200750D02*
D03*
X415000Y191994D02*
D03*
X401965Y185556D02*
D03*
X415000Y185491D02*
D03*
X427979Y178989D02*
D03*
X408556Y178970D02*
D03*
X421477Y133498D02*
D03*
X415000Y126995D02*
D03*
Y133498D02*
D03*
X408498Y126995D02*
D03*
X415000Y120493D02*
D03*
X421477D02*
D03*
Y126995D02*
D03*
X408498Y133498D02*
D03*
X427979Y126995D02*
D03*
X453989Y140000D02*
D03*
Y126995D02*
D03*
X460491Y120493D02*
D03*
X447491Y114022D02*
D03*
X453989Y113990D02*
D03*
X427979Y140000D02*
D03*
X434482D02*
D03*
X447487D02*
D03*
X408498D02*
D03*
X440984D02*
D03*
X447487Y126995D02*
D03*
X440984D02*
D03*
X434482D02*
D03*
X401995Y120493D02*
D03*
Y113990D02*
D03*
X388991Y133426D02*
D03*
X401995Y140000D02*
D03*
X395493Y126995D02*
D03*
X415044Y178892D02*
D03*
X489750Y300000D02*
D03*
X467037Y126984D02*
D03*
X466999Y107465D02*
D03*
X545000Y465000D02*
D03*
X461483Y460149D02*
D03*
X579281Y462390D02*
D03*
D97*
X339560Y541673D02*
D03*
D98*
X361404D02*
D03*
D99*
X373309Y536713D02*
D03*
D100*
X353214Y199986D02*
X354062Y200834D01*
Y223060D01*
X340000Y237122D02*
X354062Y223060D01*
X340000Y237122D02*
Y251577D01*
X452020Y449295D02*
X460859Y458135D01*
X433920Y432538D02*
X434029Y432647D01*
X305345Y18328D02*
X305834Y18817D01*
X305189Y19462D02*
X305834Y18817D01*
X305189Y19462D02*
Y35127D01*
X310262Y214056D02*
Y223006D01*
X316869Y150048D02*
X320260D01*
X316412Y150072D02*
X316869Y150529D01*
X316412Y141987D02*
Y149590D01*
X312564Y138795D02*
X313221D01*
X316412Y141987D01*
X421330Y444140D02*
X421564D01*
X421905Y444480D01*
X438054D01*
X460000Y351929D02*
Y362828D01*
X456312Y366516D02*
X460000Y362828D01*
Y351929D02*
X464623Y347306D01*
X489739Y293484D02*
X503606D01*
X506955Y290135D01*
X522353Y298906D02*
X530747Y307300D01*
X531497D01*
X454440Y382678D02*
X455250D01*
X447687Y389431D02*
X454440Y382678D01*
X429040Y432538D02*
X433920D01*
X422235D02*
X423124Y431649D01*
X428151D01*
X429040Y432538D01*
X420286D02*
X422235D01*
X420249Y432575D02*
X420286Y432538D01*
X469994Y74836D02*
X478069D01*
X466675Y78155D02*
X469994Y74836D01*
X310149Y206613D02*
X328232D01*
X309869Y206334D02*
X310149Y206613D01*
X289837Y161052D02*
X294144D01*
X294593Y160604D01*
X305252Y35127D02*
X305291Y35088D01*
X305189Y35127D02*
X305252D01*
X289837Y160993D02*
Y161052D01*
X285898Y157055D02*
X289837Y160993D01*
X282318Y159931D02*
X285195Y157055D01*
X285898D01*
X289837Y161052D02*
X290422Y160466D01*
X547250Y282318D02*
X548212Y283280D01*
X549646D01*
X547250Y265000D02*
Y282318D01*
X556034Y364823D02*
X556727Y364129D01*
Y334478D02*
Y364129D01*
X551125Y328875D02*
X556727Y334478D01*
X557244Y366032D02*
X561749D01*
X563482Y367766D01*
X280000Y165794D02*
Y206437D01*
X282318Y159931D02*
Y163476D01*
X280000Y165794D02*
X282318Y163476D01*
X328232Y206613D02*
X331208Y209589D01*
Y225428D01*
X289015Y215452D02*
Y229264D01*
X280000Y206437D02*
X289015Y215452D01*
X303350Y234858D02*
X304239Y235747D01*
X289015Y229264D02*
X294609Y234858D01*
X303350D01*
X304239Y235747D02*
X320889D01*
X331208Y225428D01*
X531693Y179754D02*
X532875Y180936D01*
X510933Y179754D02*
X531693D01*
X542345Y258011D02*
X546608D01*
X510000Y228776D02*
X533190D01*
X546608Y258011D02*
X546989Y258392D01*
X529537Y306090D02*
X533457D01*
X554636Y325364D02*
X556518D01*
X551125Y328875D02*
X554636Y325364D01*
X531960Y309710D02*
X551125Y328875D01*
X477111Y67111D02*
Y73878D01*
X470000Y60000D02*
X477111Y67111D01*
X452020Y447221D02*
Y449295D01*
X437445Y432647D02*
X452020Y447221D01*
X434029Y432647D02*
X437445D01*
X305345Y13320D02*
Y18328D01*
X302024Y10000D02*
X305345Y13320D01*
X286667Y10000D02*
X302024D01*
X279312Y17355D02*
X286667Y10000D01*
X279312Y17355D02*
Y18105D01*
X463369Y262500D02*
X503953D01*
X456869Y269000D02*
X463369Y262500D01*
X503953D02*
X509669Y268216D01*
Y268966D02*
X510879Y270176D01*
X509669Y268216D02*
Y268966D01*
X510879Y270176D02*
Y286211D01*
X413000Y269000D02*
X456869D01*
X410056Y271944D02*
X413000Y269000D01*
X409027Y271944D02*
X410056D01*
X406226Y274745D02*
X409027Y271944D01*
X406226Y274745D02*
Y275774D01*
X403250Y278750D02*
X406226Y275774D01*
X379343Y278750D02*
X403250D01*
X378783Y278190D02*
X379343Y278750D01*
X482976Y415628D02*
Y418963D01*
X483786Y419773D01*
X478960Y406210D02*
Y411612D01*
X482976Y415628D01*
X543064Y260000D02*
X546040Y262976D01*
Y263790D02*
X547250Y265000D01*
X546040Y262976D02*
Y263790D01*
X493072Y212492D02*
X493095Y212515D01*
Y250000D01*
X493072Y206929D02*
Y212492D01*
X563578Y428032D02*
X563880Y428333D01*
X558054Y428032D02*
X563578D01*
X556844Y426822D02*
X558054Y428032D01*
X555048Y400000D02*
X556844Y401796D01*
Y426822D01*
X555048Y392816D02*
Y400000D01*
X555048Y400000D02*
X555048Y400000D01*
X535000Y400000D02*
X555048D01*
X551597Y389365D02*
X555048Y392816D01*
X551098Y372127D02*
X554074Y369152D01*
X532976Y419377D02*
X533360Y419762D01*
X532976Y415628D02*
Y419377D01*
X528960Y406210D02*
Y411612D01*
X532976Y415628D01*
X527750Y405000D02*
X528960Y406210D01*
X550540Y389365D02*
X551597D01*
X547089Y374731D02*
Y385914D01*
X549693Y372127D02*
X551098D01*
X547089Y374731D02*
X549693Y372127D01*
X528960Y403040D02*
X531960D01*
X527750Y404250D02*
X528960Y403040D01*
X547089Y385914D02*
X550540Y389365D01*
X531960Y403040D02*
X535000Y400000D01*
X555284Y364823D02*
X556034D01*
X557244Y366032D01*
X554074D02*
X555284Y364823D01*
X554074Y366032D02*
Y369152D01*
X529537Y308510D02*
X530287D01*
X523790Y314257D02*
Y321210D01*
X520000Y325000D02*
Y338002D01*
X523790Y314257D02*
X529537Y308510D01*
X539555Y298945D02*
X540000Y298500D01*
X539555Y298945D02*
Y299992D01*
X533457Y306090D02*
X539555Y299992D01*
X479710Y403040D02*
X482750Y400000D01*
X478960Y403040D02*
X479710D01*
X477750Y404250D02*
X478960Y403040D01*
X515740Y344702D02*
X518861Y341582D01*
X484348Y400000D02*
X495000Y389348D01*
X482750Y400000D02*
X484348D01*
X515740Y344702D02*
Y352670D01*
X477750Y404250D02*
Y405000D01*
X473228Y366516D02*
X475000Y364743D01*
X456312Y366516D02*
X473228D01*
X464623Y343208D02*
X465000Y342831D01*
X464623Y343208D02*
Y347306D01*
X518861Y339141D02*
X520000Y338002D01*
X518861Y339141D02*
Y341582D01*
X520000Y325000D02*
X523790Y321210D01*
X515000Y330000D02*
X520000Y325000D01*
X495000Y335000D02*
X500000Y330000D01*
X495000Y335000D02*
Y389348D01*
X511211Y290135D02*
X519982Y298906D01*
X500000Y330000D02*
X515000D01*
X519982Y298906D02*
X522353D01*
X506955Y290135D02*
X511211D01*
X506955D02*
X510879Y286211D01*
X493512Y336488D02*
X495000Y335000D01*
X492024D02*
X493512Y336488D01*
X465000Y340000D02*
X470000Y335000D01*
X465000Y340000D02*
Y342831D01*
X470000Y335000D02*
X492024D01*
X362445Y180494D02*
X366026D01*
X426126Y355931D02*
X427381D01*
X429414Y349913D02*
Y353898D01*
X427381Y355931D02*
X429414Y353898D01*
X424176Y357881D02*
X426126Y355931D01*
X429414Y349913D02*
X438990Y340337D01*
X426126Y355931D02*
X447687D01*
X575808Y319192D02*
X582445Y312555D01*
Y301860D02*
Y312555D01*
X575808Y319192D02*
Y326442D01*
X575000Y327250D02*
X575808Y326442D01*
X592432Y313249D02*
X592454Y313227D01*
X592432Y313249D02*
Y327953D01*
X592410Y327975D02*
X592432Y327953D01*
X591079Y327975D02*
X592410D01*
X585408Y333646D02*
X591079Y327975D01*
X582146Y333646D02*
X585408D01*
X575750Y327250D02*
X582146Y333646D01*
X578462Y297532D02*
X581076D01*
X582346Y298802D01*
Y301760D01*
X582445Y301860D01*
X462009Y456985D02*
Y459622D01*
X461483Y460149D02*
X462009Y459622D01*
Y456985D02*
X463994Y455000D01*
X461483Y460149D02*
X461765Y460430D01*
Y470918D01*
D101*
X340000Y251577D02*
X346577D01*
X296577D02*
X340000D01*
X346577D02*
X346609Y251609D01*
X408027D01*
X504000Y113000D02*
X504581Y113581D01*
X519071D01*
X277710Y232710D02*
X296577Y251577D01*
X257950Y200517D02*
X277710Y220277D01*
Y232710D01*
X256779Y161272D02*
X257950Y162442D01*
Y200517D01*
X255945Y161272D02*
X256779D01*
X252796Y158124D02*
X255945Y161272D01*
X252796Y156754D02*
Y158124D01*
X546989Y258392D02*
X551608D01*
X565000Y245000D01*
Y165472D02*
Y245000D01*
X549767Y150239D02*
X565000Y165472D01*
X540000Y150000D02*
X540239Y150239D01*
X549767D01*
X510933Y159067D02*
Y179754D01*
Y159067D02*
X520000Y150000D01*
X540000D01*
X510000Y228776D02*
Y255000D01*
X408027Y251609D02*
X409636Y250000D01*
X493095D01*
X518152Y255000D02*
X522433Y259281D01*
X505000Y250000D02*
X510000Y255000D01*
X542345Y259281D02*
X543064Y260000D01*
X493095Y250000D02*
X505000D01*
X510000Y255000D02*
X518152D01*
X522433Y259281D02*
X542345D01*
X458820Y283262D02*
X480080D01*
X456568Y285514D02*
X458820Y283262D01*
X446965Y282801D02*
X453855D01*
X437609Y282719D02*
X446883D01*
X435411Y282204D02*
X437094D01*
X453855Y282801D02*
X456568Y285514D01*
X446883Y282719D02*
X446965Y282801D01*
X437094Y282204D02*
X437609Y282719D01*
X434956Y281749D02*
X435411Y282204D01*
D102*
X373307Y520948D02*
Y527699D01*
X373295Y520937D02*
X373307Y520948D01*
X373295Y512242D02*
Y535937D01*
D103*
X373309Y512555D02*
X373442Y512422D01*
D104*
X309265Y159046D02*
X310262Y158048D01*
X301529Y159046D02*
X309265D01*
X299971Y160604D02*
X301529Y159046D01*
X294593Y160604D02*
X299971D01*
D105*
X555000Y27750D02*
X557710Y30460D01*
Y54822D01*
X576874Y73986D01*
Y60568D02*
Y73986D01*
X580406Y40439D02*
Y54430D01*
X576874Y60568D02*
X581708Y55734D01*
D106*
X580434Y380953D02*
Y396467D01*
Y400305D01*
X579068Y441003D02*
Y462177D01*
X579281Y462390D01*
D107*
X426433Y605872D02*
D03*
D108*
X350598Y590118D02*
D03*
D109*
X339614Y545393D02*
D03*
D110*
X361458Y545454D02*
D03*
D111*
X268025Y582618D02*
D03*
D112*
X313500Y551693D02*
D03*
D113*
X350513Y565363D02*
D03*
D114*
X310324Y601655D02*
D03*
D115*
X285517Y156733D02*
D03*
D116*
X471348Y58998D02*
D03*
D117*
X575635Y359575D02*
D03*
D118*
X549646Y283280D02*
D03*
D119*
X252372Y156536D02*
D03*
D120*
X544149Y297399D02*
D03*
D121*
X578462Y297532D02*
D03*
D122*
X297507Y211142D02*
D03*
X297612Y153064D02*
D03*
X546343Y175224D02*
D03*
X546238Y233303D02*
D03*
D123*
X260757Y225308D02*
D03*
Y138795D02*
D03*
X583093Y161059D02*
D03*
Y247572D02*
D03*
D124*
X302566Y225308D02*
D03*
Y138795D02*
D03*
X541284Y161059D02*
D03*
Y247572D02*
D03*
D125*
X575656Y25626D02*
D03*
X446206Y368130D02*
D03*
Y379130D02*
D03*
X566000Y302500D02*
D03*
Y292500D02*
D03*
X556000D02*
D03*
Y302500D02*
D03*
X561000Y297500D02*
D03*
X480000Y294500D02*
D03*
Y305500D02*
D03*
D126*
X314500Y320000D02*
D03*
X530500Y490000D02*
D03*
X532222Y109333D02*
D03*
D127*
X314500Y300000D02*
D03*
X530500Y510000D02*
D03*
X532222Y129333D02*
D03*
D128*
X220044Y456251D02*
D03*
X220000Y440126D02*
D03*
X438990Y340337D02*
D03*
X422865Y340381D02*
D03*
X434956Y281749D02*
D03*
X435000Y297874D02*
D03*
X592410Y327975D02*
D03*
X592454Y344100D02*
D03*
X592589Y310865D02*
D03*
X592545Y294740D02*
D03*
X592469Y279689D02*
D03*
X592425Y263564D02*
D03*
X10041Y456251D02*
D03*
X9998Y440126D02*
D03*
X40044Y456251D02*
D03*
X40000Y440126D02*
D03*
X70041Y456251D02*
D03*
X69998Y440126D02*
D03*
X100044Y456251D02*
D03*
X100000Y440126D02*
D03*
X130044Y456251D02*
D03*
X130000Y440126D02*
D03*
X160044Y456251D02*
D03*
X160000Y440126D02*
D03*
X190044Y456251D02*
D03*
X190000Y440126D02*
D03*
D129*
X25000Y410000D02*
D03*
X85000D02*
D03*
X145000D02*
D03*
X205000D02*
D03*
X25000Y530000D02*
D03*
X85000D02*
D03*
X145000D02*
D03*
X205000D02*
D03*
D130*
X266150Y258584D02*
D03*
M02*
